G04 EAGLE Gerber RS-274X export*
G75*
%MOMM*%
%FSLAX34Y34*%
%LPD*%
%IN*%
%IPPOS*%
%AMOC8*
5,1,8,0,0,1.08239X$1,22.5*%
G01*
%ADD10C,0.254000*%
%ADD11C,0.203200*%
%ADD12C,0.127000*%
%ADD13C,0.000000*%
%ADD14C,0.600000*%
%ADD15C,0.254000*%


D10*
X0Y546100D02*
X0Y0D01*
X190500Y0D01*
X266700Y0D02*
X457200Y0D01*
X457200Y546100D01*
X0Y546100D01*
D11*
X205740Y15240D02*
X205372Y15236D01*
X205004Y15222D01*
X204636Y15200D01*
X204269Y15169D01*
X203903Y15129D01*
X203538Y15080D01*
X203174Y15022D01*
X202812Y14956D01*
X202451Y14881D01*
X202093Y14797D01*
X201736Y14705D01*
X201382Y14604D01*
X201031Y14494D01*
X200682Y14376D01*
X200336Y14250D01*
X199993Y14115D01*
X199654Y13972D01*
X199318Y13821D01*
X198986Y13662D01*
X198658Y13494D01*
X198334Y13319D01*
X198014Y13136D01*
X197699Y12946D01*
X197388Y12748D01*
X197083Y12542D01*
X196782Y12329D01*
X196487Y12109D01*
X196197Y11882D01*
X195913Y11648D01*
X195634Y11407D01*
X195361Y11160D01*
X195095Y10906D01*
X194834Y10645D01*
X194580Y10379D01*
X194333Y10106D01*
X194092Y9827D01*
X193858Y9543D01*
X193631Y9253D01*
X193411Y8958D01*
X193198Y8657D01*
X192992Y8352D01*
X192794Y8041D01*
X192604Y7726D01*
X192421Y7406D01*
X192246Y7082D01*
X192078Y6754D01*
X191919Y6422D01*
X191768Y6086D01*
X191625Y5747D01*
X191490Y5404D01*
X191364Y5058D01*
X191246Y4709D01*
X191136Y4358D01*
X191035Y4004D01*
X190943Y3647D01*
X190859Y3289D01*
X190784Y2928D01*
X190718Y2566D01*
X190660Y2202D01*
X190611Y1837D01*
X190571Y1471D01*
X190540Y1104D01*
X190518Y736D01*
X190504Y368D01*
X190500Y0D01*
X205740Y15240D02*
X251460Y15240D01*
X251828Y15236D01*
X252196Y15222D01*
X252564Y15200D01*
X252931Y15169D01*
X253297Y15129D01*
X253662Y15080D01*
X254026Y15022D01*
X254388Y14956D01*
X254749Y14881D01*
X255107Y14797D01*
X255464Y14705D01*
X255818Y14604D01*
X256169Y14494D01*
X256518Y14376D01*
X256864Y14250D01*
X257207Y14115D01*
X257546Y13972D01*
X257882Y13821D01*
X258214Y13662D01*
X258542Y13494D01*
X258866Y13319D01*
X259186Y13136D01*
X259501Y12946D01*
X259812Y12748D01*
X260117Y12542D01*
X260418Y12329D01*
X260713Y12109D01*
X261003Y11882D01*
X261287Y11648D01*
X261566Y11407D01*
X261839Y11160D01*
X262105Y10906D01*
X262366Y10645D01*
X262620Y10379D01*
X262867Y10106D01*
X263108Y9827D01*
X263342Y9543D01*
X263569Y9253D01*
X263789Y8958D01*
X264002Y8657D01*
X264208Y8352D01*
X264406Y8041D01*
X264596Y7726D01*
X264779Y7406D01*
X264954Y7082D01*
X265122Y6754D01*
X265281Y6422D01*
X265432Y6086D01*
X265575Y5747D01*
X265710Y5404D01*
X265836Y5058D01*
X265954Y4709D01*
X266064Y4358D01*
X266165Y4004D01*
X266257Y3647D01*
X266341Y3289D01*
X266416Y2928D01*
X266482Y2566D01*
X266540Y2202D01*
X266589Y1837D01*
X266629Y1471D01*
X266660Y1104D01*
X266682Y736D01*
X266696Y368D01*
X266700Y0D01*
D12*
X205105Y4445D02*
X205105Y10795D01*
X206869Y10795D01*
X206952Y10793D01*
X207034Y10787D01*
X207116Y10778D01*
X207198Y10764D01*
X207279Y10747D01*
X207359Y10726D01*
X207438Y10701D01*
X207515Y10672D01*
X207592Y10640D01*
X207666Y10605D01*
X207739Y10566D01*
X207810Y10523D01*
X207879Y10477D01*
X207946Y10428D01*
X208010Y10376D01*
X208072Y10321D01*
X208131Y10264D01*
X208187Y10203D01*
X208241Y10140D01*
X208291Y10075D01*
X208339Y10007D01*
X208383Y9937D01*
X208423Y9865D01*
X208461Y9791D01*
X208495Y9716D01*
X208525Y9639D01*
X208552Y9560D01*
X208575Y9481D01*
X208594Y9400D01*
X208609Y9319D01*
X208621Y9237D01*
X208629Y9155D01*
X208633Y9072D01*
X208633Y8990D01*
X208629Y8907D01*
X208621Y8825D01*
X208609Y8743D01*
X208594Y8662D01*
X208575Y8581D01*
X208552Y8502D01*
X208525Y8423D01*
X208495Y8346D01*
X208461Y8271D01*
X208423Y8197D01*
X208383Y8125D01*
X208339Y8055D01*
X208291Y7987D01*
X208241Y7922D01*
X208187Y7859D01*
X208131Y7798D01*
X208072Y7741D01*
X208010Y7686D01*
X207946Y7634D01*
X207879Y7585D01*
X207810Y7539D01*
X207739Y7496D01*
X207666Y7457D01*
X207592Y7422D01*
X207515Y7390D01*
X207438Y7361D01*
X207359Y7336D01*
X207279Y7315D01*
X207198Y7298D01*
X207116Y7284D01*
X207034Y7275D01*
X206952Y7269D01*
X206869Y7267D01*
X205105Y7267D01*
X207222Y7267D02*
X208633Y4445D01*
X211790Y5856D02*
X211790Y7267D01*
X211791Y7267D02*
X211793Y7341D01*
X211799Y7414D01*
X211808Y7488D01*
X211822Y7560D01*
X211839Y7632D01*
X211860Y7703D01*
X211885Y7773D01*
X211913Y7841D01*
X211945Y7908D01*
X211980Y7973D01*
X212019Y8035D01*
X212060Y8096D01*
X212105Y8155D01*
X212153Y8211D01*
X212204Y8265D01*
X212258Y8316D01*
X212314Y8364D01*
X212373Y8409D01*
X212434Y8450D01*
X212497Y8489D01*
X212561Y8524D01*
X212628Y8556D01*
X212696Y8584D01*
X212766Y8609D01*
X212837Y8630D01*
X212909Y8647D01*
X212981Y8661D01*
X213055Y8670D01*
X213128Y8676D01*
X213202Y8678D01*
X213276Y8676D01*
X213349Y8670D01*
X213423Y8661D01*
X213495Y8647D01*
X213567Y8630D01*
X213638Y8609D01*
X213708Y8584D01*
X213776Y8556D01*
X213843Y8524D01*
X213908Y8489D01*
X213970Y8450D01*
X214031Y8409D01*
X214090Y8364D01*
X214146Y8316D01*
X214200Y8265D01*
X214251Y8211D01*
X214299Y8155D01*
X214344Y8096D01*
X214385Y8035D01*
X214424Y7973D01*
X214459Y7908D01*
X214491Y7841D01*
X214519Y7773D01*
X214544Y7703D01*
X214565Y7632D01*
X214582Y7560D01*
X214596Y7488D01*
X214605Y7414D01*
X214611Y7341D01*
X214613Y7267D01*
X214613Y5856D01*
X214611Y5782D01*
X214605Y5709D01*
X214596Y5635D01*
X214582Y5563D01*
X214565Y5491D01*
X214544Y5420D01*
X214519Y5350D01*
X214491Y5282D01*
X214459Y5215D01*
X214424Y5151D01*
X214385Y5088D01*
X214344Y5027D01*
X214299Y4968D01*
X214251Y4912D01*
X214200Y4858D01*
X214146Y4807D01*
X214090Y4759D01*
X214031Y4714D01*
X213970Y4673D01*
X213908Y4634D01*
X213843Y4599D01*
X213776Y4567D01*
X213708Y4539D01*
X213638Y4514D01*
X213567Y4493D01*
X213495Y4476D01*
X213423Y4462D01*
X213349Y4453D01*
X213276Y4447D01*
X213202Y4445D01*
X213128Y4447D01*
X213055Y4453D01*
X212981Y4462D01*
X212909Y4476D01*
X212837Y4493D01*
X212766Y4514D01*
X212696Y4539D01*
X212628Y4567D01*
X212561Y4599D01*
X212497Y4634D01*
X212434Y4673D01*
X212373Y4714D01*
X212314Y4759D01*
X212258Y4807D01*
X212204Y4858D01*
X212153Y4912D01*
X212105Y4968D01*
X212060Y5027D01*
X212019Y5088D01*
X211980Y5151D01*
X211945Y5215D01*
X211913Y5282D01*
X211885Y5350D01*
X211860Y5420D01*
X211839Y5491D01*
X211822Y5563D01*
X211808Y5635D01*
X211799Y5709D01*
X211793Y5782D01*
X211791Y5856D01*
X217963Y5503D02*
X217963Y8678D01*
X217963Y5503D02*
X217965Y5439D01*
X217971Y5375D01*
X217980Y5312D01*
X217994Y5250D01*
X218011Y5188D01*
X218032Y5128D01*
X218056Y5069D01*
X218084Y5011D01*
X218116Y4956D01*
X218150Y4902D01*
X218188Y4851D01*
X218229Y4801D01*
X218273Y4755D01*
X218319Y4711D01*
X218369Y4670D01*
X218420Y4632D01*
X218474Y4598D01*
X218529Y4566D01*
X218587Y4538D01*
X218646Y4514D01*
X218706Y4493D01*
X218768Y4476D01*
X218830Y4462D01*
X218893Y4453D01*
X218957Y4447D01*
X219021Y4445D01*
X220785Y4445D01*
X220785Y8678D01*
X223488Y8678D02*
X225604Y8678D01*
X224193Y10795D02*
X224193Y5503D01*
X224194Y5503D02*
X224196Y5439D01*
X224202Y5375D01*
X224211Y5312D01*
X224225Y5250D01*
X224242Y5188D01*
X224263Y5128D01*
X224287Y5069D01*
X224315Y5011D01*
X224347Y4956D01*
X224381Y4902D01*
X224419Y4851D01*
X224460Y4801D01*
X224504Y4755D01*
X224550Y4711D01*
X224600Y4670D01*
X224651Y4632D01*
X224705Y4598D01*
X224760Y4566D01*
X224818Y4538D01*
X224877Y4514D01*
X224937Y4493D01*
X224999Y4476D01*
X225061Y4462D01*
X225125Y4453D01*
X225188Y4447D01*
X225252Y4445D01*
X225604Y4445D01*
X229537Y4445D02*
X231300Y4445D01*
X229537Y4445D02*
X229473Y4447D01*
X229409Y4453D01*
X229346Y4462D01*
X229284Y4476D01*
X229222Y4493D01*
X229162Y4514D01*
X229103Y4538D01*
X229045Y4566D01*
X228990Y4598D01*
X228936Y4632D01*
X228885Y4670D01*
X228835Y4711D01*
X228789Y4755D01*
X228745Y4801D01*
X228704Y4851D01*
X228666Y4902D01*
X228632Y4956D01*
X228600Y5011D01*
X228572Y5069D01*
X228548Y5128D01*
X228527Y5188D01*
X228510Y5250D01*
X228496Y5312D01*
X228487Y5375D01*
X228481Y5439D01*
X228479Y5503D01*
X228478Y5503D02*
X228478Y7267D01*
X228480Y7341D01*
X228486Y7414D01*
X228495Y7488D01*
X228509Y7560D01*
X228526Y7632D01*
X228547Y7703D01*
X228572Y7773D01*
X228600Y7841D01*
X228632Y7908D01*
X228667Y7973D01*
X228706Y8035D01*
X228747Y8096D01*
X228792Y8155D01*
X228840Y8211D01*
X228891Y8265D01*
X228945Y8316D01*
X229001Y8364D01*
X229060Y8409D01*
X229121Y8450D01*
X229184Y8489D01*
X229248Y8524D01*
X229315Y8556D01*
X229383Y8584D01*
X229453Y8609D01*
X229524Y8630D01*
X229596Y8647D01*
X229668Y8661D01*
X229742Y8670D01*
X229815Y8676D01*
X229889Y8678D01*
X229963Y8676D01*
X230036Y8670D01*
X230110Y8661D01*
X230182Y8647D01*
X230254Y8630D01*
X230325Y8609D01*
X230395Y8584D01*
X230463Y8556D01*
X230530Y8524D01*
X230595Y8489D01*
X230657Y8450D01*
X230718Y8409D01*
X230777Y8364D01*
X230833Y8316D01*
X230887Y8265D01*
X230938Y8211D01*
X230986Y8155D01*
X231031Y8096D01*
X231072Y8035D01*
X231111Y7973D01*
X231146Y7908D01*
X231178Y7841D01*
X231206Y7773D01*
X231231Y7703D01*
X231252Y7632D01*
X231269Y7560D01*
X231283Y7488D01*
X231292Y7414D01*
X231298Y7341D01*
X231300Y7267D01*
X231300Y6562D01*
X228478Y6562D01*
X238184Y6209D02*
X238184Y9031D01*
X238186Y9114D01*
X238192Y9196D01*
X238201Y9278D01*
X238215Y9360D01*
X238232Y9441D01*
X238253Y9521D01*
X238278Y9600D01*
X238307Y9677D01*
X238339Y9754D01*
X238374Y9828D01*
X238413Y9901D01*
X238456Y9972D01*
X238502Y10041D01*
X238551Y10108D01*
X238603Y10172D01*
X238658Y10234D01*
X238715Y10293D01*
X238776Y10349D01*
X238839Y10403D01*
X238904Y10453D01*
X238972Y10501D01*
X239042Y10545D01*
X239114Y10585D01*
X239188Y10623D01*
X239263Y10657D01*
X239340Y10687D01*
X239419Y10714D01*
X239498Y10737D01*
X239579Y10756D01*
X239660Y10771D01*
X239742Y10783D01*
X239824Y10791D01*
X239907Y10795D01*
X239989Y10795D01*
X240072Y10791D01*
X240154Y10783D01*
X240236Y10771D01*
X240317Y10756D01*
X240398Y10737D01*
X240477Y10714D01*
X240556Y10687D01*
X240633Y10657D01*
X240708Y10623D01*
X240782Y10585D01*
X240854Y10545D01*
X240924Y10501D01*
X240992Y10453D01*
X241057Y10403D01*
X241120Y10349D01*
X241181Y10293D01*
X241238Y10234D01*
X241293Y10172D01*
X241345Y10108D01*
X241394Y10041D01*
X241440Y9972D01*
X241483Y9901D01*
X241522Y9828D01*
X241557Y9754D01*
X241589Y9677D01*
X241618Y9600D01*
X241643Y9521D01*
X241664Y9441D01*
X241681Y9360D01*
X241695Y9278D01*
X241704Y9196D01*
X241710Y9114D01*
X241712Y9031D01*
X241712Y6209D01*
X241710Y6126D01*
X241704Y6044D01*
X241695Y5962D01*
X241681Y5880D01*
X241664Y5799D01*
X241643Y5719D01*
X241618Y5640D01*
X241589Y5563D01*
X241557Y5486D01*
X241522Y5412D01*
X241483Y5339D01*
X241440Y5268D01*
X241394Y5199D01*
X241345Y5132D01*
X241293Y5068D01*
X241238Y5006D01*
X241181Y4947D01*
X241120Y4891D01*
X241057Y4837D01*
X240992Y4787D01*
X240924Y4739D01*
X240854Y4695D01*
X240782Y4655D01*
X240708Y4617D01*
X240633Y4583D01*
X240556Y4553D01*
X240477Y4526D01*
X240398Y4503D01*
X240317Y4484D01*
X240236Y4469D01*
X240154Y4457D01*
X240072Y4449D01*
X239989Y4445D01*
X239907Y4445D01*
X239824Y4449D01*
X239742Y4457D01*
X239660Y4469D01*
X239579Y4484D01*
X239498Y4503D01*
X239419Y4526D01*
X239340Y4553D01*
X239263Y4583D01*
X239188Y4617D01*
X239114Y4655D01*
X239042Y4695D01*
X238972Y4739D01*
X238904Y4787D01*
X238839Y4837D01*
X238776Y4891D01*
X238715Y4947D01*
X238658Y5006D01*
X238603Y5068D01*
X238551Y5132D01*
X238502Y5199D01*
X238456Y5268D01*
X238413Y5339D01*
X238374Y5412D01*
X238339Y5486D01*
X238307Y5563D01*
X238278Y5640D01*
X238253Y5719D01*
X238232Y5799D01*
X238215Y5880D01*
X238201Y5962D01*
X238192Y6044D01*
X238186Y6126D01*
X238184Y6209D01*
X245166Y5503D02*
X245166Y8678D01*
X245166Y5503D02*
X245168Y5439D01*
X245174Y5375D01*
X245183Y5312D01*
X245197Y5250D01*
X245214Y5188D01*
X245235Y5128D01*
X245259Y5069D01*
X245287Y5011D01*
X245319Y4956D01*
X245353Y4902D01*
X245391Y4851D01*
X245432Y4801D01*
X245476Y4755D01*
X245522Y4711D01*
X245572Y4670D01*
X245623Y4632D01*
X245677Y4598D01*
X245732Y4566D01*
X245790Y4538D01*
X245849Y4514D01*
X245909Y4493D01*
X245971Y4476D01*
X246033Y4462D01*
X246096Y4453D01*
X246160Y4447D01*
X246224Y4445D01*
X247988Y4445D01*
X247988Y8678D01*
X250691Y8678D02*
X252808Y8678D01*
X251397Y10795D02*
X251397Y5503D01*
X251399Y5439D01*
X251405Y5375D01*
X251414Y5312D01*
X251428Y5250D01*
X251445Y5188D01*
X251466Y5128D01*
X251490Y5069D01*
X251518Y5011D01*
X251550Y4956D01*
X251584Y4902D01*
X251622Y4851D01*
X251663Y4801D01*
X251707Y4755D01*
X251753Y4711D01*
X251803Y4670D01*
X251854Y4632D01*
X251908Y4598D01*
X251963Y4566D01*
X252021Y4538D01*
X252080Y4514D01*
X252140Y4493D01*
X252202Y4476D01*
X252264Y4462D01*
X252328Y4453D01*
X252391Y4447D01*
X252455Y4445D01*
X252808Y4445D01*
D13*
X298050Y51590D02*
X298052Y51703D01*
X298058Y51817D01*
X298068Y51930D01*
X298082Y52042D01*
X298099Y52154D01*
X298121Y52266D01*
X298147Y52376D01*
X298176Y52486D01*
X298209Y52594D01*
X298246Y52702D01*
X298287Y52807D01*
X298331Y52912D01*
X298379Y53015D01*
X298430Y53116D01*
X298485Y53215D01*
X298544Y53312D01*
X298606Y53407D01*
X298671Y53500D01*
X298739Y53591D01*
X298810Y53679D01*
X298885Y53765D01*
X298962Y53848D01*
X299042Y53928D01*
X299125Y54005D01*
X299211Y54080D01*
X299299Y54151D01*
X299390Y54219D01*
X299483Y54284D01*
X299578Y54346D01*
X299675Y54405D01*
X299774Y54460D01*
X299875Y54511D01*
X299978Y54559D01*
X300083Y54603D01*
X300188Y54644D01*
X300296Y54681D01*
X300404Y54714D01*
X300514Y54743D01*
X300624Y54769D01*
X300736Y54791D01*
X300848Y54808D01*
X300960Y54822D01*
X301073Y54832D01*
X301187Y54838D01*
X301300Y54840D01*
X301413Y54838D01*
X301527Y54832D01*
X301640Y54822D01*
X301752Y54808D01*
X301864Y54791D01*
X301976Y54769D01*
X302086Y54743D01*
X302196Y54714D01*
X302304Y54681D01*
X302412Y54644D01*
X302517Y54603D01*
X302622Y54559D01*
X302725Y54511D01*
X302826Y54460D01*
X302925Y54405D01*
X303022Y54346D01*
X303117Y54284D01*
X303210Y54219D01*
X303301Y54151D01*
X303389Y54080D01*
X303475Y54005D01*
X303558Y53928D01*
X303638Y53848D01*
X303715Y53765D01*
X303790Y53679D01*
X303861Y53591D01*
X303929Y53500D01*
X303994Y53407D01*
X304056Y53312D01*
X304115Y53215D01*
X304170Y53116D01*
X304221Y53015D01*
X304269Y52912D01*
X304313Y52807D01*
X304354Y52702D01*
X304391Y52594D01*
X304424Y52486D01*
X304453Y52376D01*
X304479Y52266D01*
X304501Y52154D01*
X304518Y52042D01*
X304532Y51930D01*
X304542Y51817D01*
X304548Y51703D01*
X304550Y51590D01*
X304548Y51477D01*
X304542Y51363D01*
X304532Y51250D01*
X304518Y51138D01*
X304501Y51026D01*
X304479Y50914D01*
X304453Y50804D01*
X304424Y50694D01*
X304391Y50586D01*
X304354Y50478D01*
X304313Y50373D01*
X304269Y50268D01*
X304221Y50165D01*
X304170Y50064D01*
X304115Y49965D01*
X304056Y49868D01*
X303994Y49773D01*
X303929Y49680D01*
X303861Y49589D01*
X303790Y49501D01*
X303715Y49415D01*
X303638Y49332D01*
X303558Y49252D01*
X303475Y49175D01*
X303389Y49100D01*
X303301Y49029D01*
X303210Y48961D01*
X303117Y48896D01*
X303022Y48834D01*
X302925Y48775D01*
X302826Y48720D01*
X302725Y48669D01*
X302622Y48621D01*
X302517Y48577D01*
X302412Y48536D01*
X302304Y48499D01*
X302196Y48466D01*
X302086Y48437D01*
X301976Y48411D01*
X301864Y48389D01*
X301752Y48372D01*
X301640Y48358D01*
X301527Y48348D01*
X301413Y48342D01*
X301300Y48340D01*
X301187Y48342D01*
X301073Y48348D01*
X300960Y48358D01*
X300848Y48372D01*
X300736Y48389D01*
X300624Y48411D01*
X300514Y48437D01*
X300404Y48466D01*
X300296Y48499D01*
X300188Y48536D01*
X300083Y48577D01*
X299978Y48621D01*
X299875Y48669D01*
X299774Y48720D01*
X299675Y48775D01*
X299578Y48834D01*
X299483Y48896D01*
X299390Y48961D01*
X299299Y49029D01*
X299211Y49100D01*
X299125Y49175D01*
X299042Y49252D01*
X298962Y49332D01*
X298885Y49415D01*
X298810Y49501D01*
X298739Y49589D01*
X298671Y49680D01*
X298606Y49773D01*
X298544Y49868D01*
X298485Y49965D01*
X298430Y50064D01*
X298379Y50165D01*
X298331Y50268D01*
X298287Y50373D01*
X298246Y50478D01*
X298209Y50586D01*
X298176Y50694D01*
X298147Y50804D01*
X298121Y50914D01*
X298099Y51026D01*
X298082Y51138D01*
X298068Y51250D01*
X298058Y51363D01*
X298052Y51477D01*
X298050Y51590D01*
X355850Y51590D02*
X355852Y51703D01*
X355858Y51817D01*
X355868Y51930D01*
X355882Y52042D01*
X355899Y52154D01*
X355921Y52266D01*
X355947Y52376D01*
X355976Y52486D01*
X356009Y52594D01*
X356046Y52702D01*
X356087Y52807D01*
X356131Y52912D01*
X356179Y53015D01*
X356230Y53116D01*
X356285Y53215D01*
X356344Y53312D01*
X356406Y53407D01*
X356471Y53500D01*
X356539Y53591D01*
X356610Y53679D01*
X356685Y53765D01*
X356762Y53848D01*
X356842Y53928D01*
X356925Y54005D01*
X357011Y54080D01*
X357099Y54151D01*
X357190Y54219D01*
X357283Y54284D01*
X357378Y54346D01*
X357475Y54405D01*
X357574Y54460D01*
X357675Y54511D01*
X357778Y54559D01*
X357883Y54603D01*
X357988Y54644D01*
X358096Y54681D01*
X358204Y54714D01*
X358314Y54743D01*
X358424Y54769D01*
X358536Y54791D01*
X358648Y54808D01*
X358760Y54822D01*
X358873Y54832D01*
X358987Y54838D01*
X359100Y54840D01*
X359213Y54838D01*
X359327Y54832D01*
X359440Y54822D01*
X359552Y54808D01*
X359664Y54791D01*
X359776Y54769D01*
X359886Y54743D01*
X359996Y54714D01*
X360104Y54681D01*
X360212Y54644D01*
X360317Y54603D01*
X360422Y54559D01*
X360525Y54511D01*
X360626Y54460D01*
X360725Y54405D01*
X360822Y54346D01*
X360917Y54284D01*
X361010Y54219D01*
X361101Y54151D01*
X361189Y54080D01*
X361275Y54005D01*
X361358Y53928D01*
X361438Y53848D01*
X361515Y53765D01*
X361590Y53679D01*
X361661Y53591D01*
X361729Y53500D01*
X361794Y53407D01*
X361856Y53312D01*
X361915Y53215D01*
X361970Y53116D01*
X362021Y53015D01*
X362069Y52912D01*
X362113Y52807D01*
X362154Y52702D01*
X362191Y52594D01*
X362224Y52486D01*
X362253Y52376D01*
X362279Y52266D01*
X362301Y52154D01*
X362318Y52042D01*
X362332Y51930D01*
X362342Y51817D01*
X362348Y51703D01*
X362350Y51590D01*
X362348Y51477D01*
X362342Y51363D01*
X362332Y51250D01*
X362318Y51138D01*
X362301Y51026D01*
X362279Y50914D01*
X362253Y50804D01*
X362224Y50694D01*
X362191Y50586D01*
X362154Y50478D01*
X362113Y50373D01*
X362069Y50268D01*
X362021Y50165D01*
X361970Y50064D01*
X361915Y49965D01*
X361856Y49868D01*
X361794Y49773D01*
X361729Y49680D01*
X361661Y49589D01*
X361590Y49501D01*
X361515Y49415D01*
X361438Y49332D01*
X361358Y49252D01*
X361275Y49175D01*
X361189Y49100D01*
X361101Y49029D01*
X361010Y48961D01*
X360917Y48896D01*
X360822Y48834D01*
X360725Y48775D01*
X360626Y48720D01*
X360525Y48669D01*
X360422Y48621D01*
X360317Y48577D01*
X360212Y48536D01*
X360104Y48499D01*
X359996Y48466D01*
X359886Y48437D01*
X359776Y48411D01*
X359664Y48389D01*
X359552Y48372D01*
X359440Y48358D01*
X359327Y48348D01*
X359213Y48342D01*
X359100Y48340D01*
X358987Y48342D01*
X358873Y48348D01*
X358760Y48358D01*
X358648Y48372D01*
X358536Y48389D01*
X358424Y48411D01*
X358314Y48437D01*
X358204Y48466D01*
X358096Y48499D01*
X357988Y48536D01*
X357883Y48577D01*
X357778Y48621D01*
X357675Y48669D01*
X357574Y48720D01*
X357475Y48775D01*
X357378Y48834D01*
X357283Y48896D01*
X357190Y48961D01*
X357099Y49029D01*
X357011Y49100D01*
X356925Y49175D01*
X356842Y49252D01*
X356762Y49332D01*
X356685Y49415D01*
X356610Y49501D01*
X356539Y49589D01*
X356471Y49680D01*
X356406Y49773D01*
X356344Y49868D01*
X356285Y49965D01*
X356230Y50064D01*
X356179Y50165D01*
X356131Y50268D01*
X356087Y50373D01*
X356046Y50478D01*
X356009Y50586D01*
X355976Y50694D01*
X355947Y50804D01*
X355921Y50914D01*
X355899Y51026D01*
X355882Y51138D01*
X355868Y51250D01*
X355858Y51363D01*
X355852Y51477D01*
X355850Y51590D01*
D14*
X287020Y51390D02*
X287020Y62390D01*
X373380Y62390D02*
X373380Y51390D01*
X287020Y18240D02*
X287020Y12040D01*
X373380Y12040D02*
X373380Y18240D01*
D13*
X94850Y51590D02*
X94852Y51703D01*
X94858Y51817D01*
X94868Y51930D01*
X94882Y52042D01*
X94899Y52154D01*
X94921Y52266D01*
X94947Y52376D01*
X94976Y52486D01*
X95009Y52594D01*
X95046Y52702D01*
X95087Y52807D01*
X95131Y52912D01*
X95179Y53015D01*
X95230Y53116D01*
X95285Y53215D01*
X95344Y53312D01*
X95406Y53407D01*
X95471Y53500D01*
X95539Y53591D01*
X95610Y53679D01*
X95685Y53765D01*
X95762Y53848D01*
X95842Y53928D01*
X95925Y54005D01*
X96011Y54080D01*
X96099Y54151D01*
X96190Y54219D01*
X96283Y54284D01*
X96378Y54346D01*
X96475Y54405D01*
X96574Y54460D01*
X96675Y54511D01*
X96778Y54559D01*
X96883Y54603D01*
X96988Y54644D01*
X97096Y54681D01*
X97204Y54714D01*
X97314Y54743D01*
X97424Y54769D01*
X97536Y54791D01*
X97648Y54808D01*
X97760Y54822D01*
X97873Y54832D01*
X97987Y54838D01*
X98100Y54840D01*
X98213Y54838D01*
X98327Y54832D01*
X98440Y54822D01*
X98552Y54808D01*
X98664Y54791D01*
X98776Y54769D01*
X98886Y54743D01*
X98996Y54714D01*
X99104Y54681D01*
X99212Y54644D01*
X99317Y54603D01*
X99422Y54559D01*
X99525Y54511D01*
X99626Y54460D01*
X99725Y54405D01*
X99822Y54346D01*
X99917Y54284D01*
X100010Y54219D01*
X100101Y54151D01*
X100189Y54080D01*
X100275Y54005D01*
X100358Y53928D01*
X100438Y53848D01*
X100515Y53765D01*
X100590Y53679D01*
X100661Y53591D01*
X100729Y53500D01*
X100794Y53407D01*
X100856Y53312D01*
X100915Y53215D01*
X100970Y53116D01*
X101021Y53015D01*
X101069Y52912D01*
X101113Y52807D01*
X101154Y52702D01*
X101191Y52594D01*
X101224Y52486D01*
X101253Y52376D01*
X101279Y52266D01*
X101301Y52154D01*
X101318Y52042D01*
X101332Y51930D01*
X101342Y51817D01*
X101348Y51703D01*
X101350Y51590D01*
X101348Y51477D01*
X101342Y51363D01*
X101332Y51250D01*
X101318Y51138D01*
X101301Y51026D01*
X101279Y50914D01*
X101253Y50804D01*
X101224Y50694D01*
X101191Y50586D01*
X101154Y50478D01*
X101113Y50373D01*
X101069Y50268D01*
X101021Y50165D01*
X100970Y50064D01*
X100915Y49965D01*
X100856Y49868D01*
X100794Y49773D01*
X100729Y49680D01*
X100661Y49589D01*
X100590Y49501D01*
X100515Y49415D01*
X100438Y49332D01*
X100358Y49252D01*
X100275Y49175D01*
X100189Y49100D01*
X100101Y49029D01*
X100010Y48961D01*
X99917Y48896D01*
X99822Y48834D01*
X99725Y48775D01*
X99626Y48720D01*
X99525Y48669D01*
X99422Y48621D01*
X99317Y48577D01*
X99212Y48536D01*
X99104Y48499D01*
X98996Y48466D01*
X98886Y48437D01*
X98776Y48411D01*
X98664Y48389D01*
X98552Y48372D01*
X98440Y48358D01*
X98327Y48348D01*
X98213Y48342D01*
X98100Y48340D01*
X97987Y48342D01*
X97873Y48348D01*
X97760Y48358D01*
X97648Y48372D01*
X97536Y48389D01*
X97424Y48411D01*
X97314Y48437D01*
X97204Y48466D01*
X97096Y48499D01*
X96988Y48536D01*
X96883Y48577D01*
X96778Y48621D01*
X96675Y48669D01*
X96574Y48720D01*
X96475Y48775D01*
X96378Y48834D01*
X96283Y48896D01*
X96190Y48961D01*
X96099Y49029D01*
X96011Y49100D01*
X95925Y49175D01*
X95842Y49252D01*
X95762Y49332D01*
X95685Y49415D01*
X95610Y49501D01*
X95539Y49589D01*
X95471Y49680D01*
X95406Y49773D01*
X95344Y49868D01*
X95285Y49965D01*
X95230Y50064D01*
X95179Y50165D01*
X95131Y50268D01*
X95087Y50373D01*
X95046Y50478D01*
X95009Y50586D01*
X94976Y50694D01*
X94947Y50804D01*
X94921Y50914D01*
X94899Y51026D01*
X94882Y51138D01*
X94868Y51250D01*
X94858Y51363D01*
X94852Y51477D01*
X94850Y51590D01*
X152650Y51590D02*
X152652Y51703D01*
X152658Y51817D01*
X152668Y51930D01*
X152682Y52042D01*
X152699Y52154D01*
X152721Y52266D01*
X152747Y52376D01*
X152776Y52486D01*
X152809Y52594D01*
X152846Y52702D01*
X152887Y52807D01*
X152931Y52912D01*
X152979Y53015D01*
X153030Y53116D01*
X153085Y53215D01*
X153144Y53312D01*
X153206Y53407D01*
X153271Y53500D01*
X153339Y53591D01*
X153410Y53679D01*
X153485Y53765D01*
X153562Y53848D01*
X153642Y53928D01*
X153725Y54005D01*
X153811Y54080D01*
X153899Y54151D01*
X153990Y54219D01*
X154083Y54284D01*
X154178Y54346D01*
X154275Y54405D01*
X154374Y54460D01*
X154475Y54511D01*
X154578Y54559D01*
X154683Y54603D01*
X154788Y54644D01*
X154896Y54681D01*
X155004Y54714D01*
X155114Y54743D01*
X155224Y54769D01*
X155336Y54791D01*
X155448Y54808D01*
X155560Y54822D01*
X155673Y54832D01*
X155787Y54838D01*
X155900Y54840D01*
X156013Y54838D01*
X156127Y54832D01*
X156240Y54822D01*
X156352Y54808D01*
X156464Y54791D01*
X156576Y54769D01*
X156686Y54743D01*
X156796Y54714D01*
X156904Y54681D01*
X157012Y54644D01*
X157117Y54603D01*
X157222Y54559D01*
X157325Y54511D01*
X157426Y54460D01*
X157525Y54405D01*
X157622Y54346D01*
X157717Y54284D01*
X157810Y54219D01*
X157901Y54151D01*
X157989Y54080D01*
X158075Y54005D01*
X158158Y53928D01*
X158238Y53848D01*
X158315Y53765D01*
X158390Y53679D01*
X158461Y53591D01*
X158529Y53500D01*
X158594Y53407D01*
X158656Y53312D01*
X158715Y53215D01*
X158770Y53116D01*
X158821Y53015D01*
X158869Y52912D01*
X158913Y52807D01*
X158954Y52702D01*
X158991Y52594D01*
X159024Y52486D01*
X159053Y52376D01*
X159079Y52266D01*
X159101Y52154D01*
X159118Y52042D01*
X159132Y51930D01*
X159142Y51817D01*
X159148Y51703D01*
X159150Y51590D01*
X159148Y51477D01*
X159142Y51363D01*
X159132Y51250D01*
X159118Y51138D01*
X159101Y51026D01*
X159079Y50914D01*
X159053Y50804D01*
X159024Y50694D01*
X158991Y50586D01*
X158954Y50478D01*
X158913Y50373D01*
X158869Y50268D01*
X158821Y50165D01*
X158770Y50064D01*
X158715Y49965D01*
X158656Y49868D01*
X158594Y49773D01*
X158529Y49680D01*
X158461Y49589D01*
X158390Y49501D01*
X158315Y49415D01*
X158238Y49332D01*
X158158Y49252D01*
X158075Y49175D01*
X157989Y49100D01*
X157901Y49029D01*
X157810Y48961D01*
X157717Y48896D01*
X157622Y48834D01*
X157525Y48775D01*
X157426Y48720D01*
X157325Y48669D01*
X157222Y48621D01*
X157117Y48577D01*
X157012Y48536D01*
X156904Y48499D01*
X156796Y48466D01*
X156686Y48437D01*
X156576Y48411D01*
X156464Y48389D01*
X156352Y48372D01*
X156240Y48358D01*
X156127Y48348D01*
X156013Y48342D01*
X155900Y48340D01*
X155787Y48342D01*
X155673Y48348D01*
X155560Y48358D01*
X155448Y48372D01*
X155336Y48389D01*
X155224Y48411D01*
X155114Y48437D01*
X155004Y48466D01*
X154896Y48499D01*
X154788Y48536D01*
X154683Y48577D01*
X154578Y48621D01*
X154475Y48669D01*
X154374Y48720D01*
X154275Y48775D01*
X154178Y48834D01*
X154083Y48896D01*
X153990Y48961D01*
X153899Y49029D01*
X153811Y49100D01*
X153725Y49175D01*
X153642Y49252D01*
X153562Y49332D01*
X153485Y49415D01*
X153410Y49501D01*
X153339Y49589D01*
X153271Y49680D01*
X153206Y49773D01*
X153144Y49868D01*
X153085Y49965D01*
X153030Y50064D01*
X152979Y50165D01*
X152931Y50268D01*
X152887Y50373D01*
X152846Y50478D01*
X152809Y50586D01*
X152776Y50694D01*
X152747Y50804D01*
X152721Y50914D01*
X152699Y51026D01*
X152682Y51138D01*
X152668Y51250D01*
X152658Y51363D01*
X152652Y51477D01*
X152650Y51590D01*
D14*
X83820Y51390D02*
X83820Y62390D01*
X170180Y62390D02*
X170180Y51390D01*
X83820Y18240D02*
X83820Y12040D01*
X170180Y12040D02*
X170180Y18240D01*
D13*
X416560Y520700D02*
X416565Y521074D01*
X416578Y521448D01*
X416601Y521821D01*
X416633Y522194D01*
X416675Y522566D01*
X416725Y522936D01*
X416784Y523305D01*
X416853Y523673D01*
X416930Y524039D01*
X417017Y524403D01*
X417112Y524765D01*
X417216Y525124D01*
X417329Y525481D01*
X417451Y525834D01*
X417581Y526185D01*
X417720Y526532D01*
X417867Y526876D01*
X418023Y527216D01*
X418187Y527552D01*
X418360Y527884D01*
X418540Y528212D01*
X418728Y528535D01*
X418924Y528853D01*
X419128Y529167D01*
X419340Y529475D01*
X419559Y529778D01*
X419786Y530076D01*
X420019Y530368D01*
X420260Y530654D01*
X420508Y530935D01*
X420762Y531209D01*
X421024Y531476D01*
X421291Y531738D01*
X421565Y531992D01*
X421846Y532240D01*
X422132Y532481D01*
X422424Y532714D01*
X422722Y532941D01*
X423025Y533160D01*
X423333Y533372D01*
X423647Y533576D01*
X423965Y533772D01*
X424288Y533960D01*
X424616Y534140D01*
X424948Y534313D01*
X425284Y534477D01*
X425624Y534633D01*
X425968Y534780D01*
X426315Y534919D01*
X426666Y535049D01*
X427019Y535171D01*
X427376Y535284D01*
X427735Y535388D01*
X428097Y535483D01*
X428461Y535570D01*
X428827Y535647D01*
X429195Y535716D01*
X429564Y535775D01*
X429934Y535825D01*
X430306Y535867D01*
X430679Y535899D01*
X431052Y535922D01*
X431426Y535935D01*
X431800Y535940D01*
X432174Y535935D01*
X432548Y535922D01*
X432921Y535899D01*
X433294Y535867D01*
X433666Y535825D01*
X434036Y535775D01*
X434405Y535716D01*
X434773Y535647D01*
X435139Y535570D01*
X435503Y535483D01*
X435865Y535388D01*
X436224Y535284D01*
X436581Y535171D01*
X436934Y535049D01*
X437285Y534919D01*
X437632Y534780D01*
X437976Y534633D01*
X438316Y534477D01*
X438652Y534313D01*
X438984Y534140D01*
X439312Y533960D01*
X439635Y533772D01*
X439953Y533576D01*
X440267Y533372D01*
X440575Y533160D01*
X440878Y532941D01*
X441176Y532714D01*
X441468Y532481D01*
X441754Y532240D01*
X442035Y531992D01*
X442309Y531738D01*
X442576Y531476D01*
X442838Y531209D01*
X443092Y530935D01*
X443340Y530654D01*
X443581Y530368D01*
X443814Y530076D01*
X444041Y529778D01*
X444260Y529475D01*
X444472Y529167D01*
X444676Y528853D01*
X444872Y528535D01*
X445060Y528212D01*
X445240Y527884D01*
X445413Y527552D01*
X445577Y527216D01*
X445733Y526876D01*
X445880Y526532D01*
X446019Y526185D01*
X446149Y525834D01*
X446271Y525481D01*
X446384Y525124D01*
X446488Y524765D01*
X446583Y524403D01*
X446670Y524039D01*
X446747Y523673D01*
X446816Y523305D01*
X446875Y522936D01*
X446925Y522566D01*
X446967Y522194D01*
X446999Y521821D01*
X447022Y521448D01*
X447035Y521074D01*
X447040Y520700D01*
X447035Y520326D01*
X447022Y519952D01*
X446999Y519579D01*
X446967Y519206D01*
X446925Y518834D01*
X446875Y518464D01*
X446816Y518095D01*
X446747Y517727D01*
X446670Y517361D01*
X446583Y516997D01*
X446488Y516635D01*
X446384Y516276D01*
X446271Y515919D01*
X446149Y515566D01*
X446019Y515215D01*
X445880Y514868D01*
X445733Y514524D01*
X445577Y514184D01*
X445413Y513848D01*
X445240Y513516D01*
X445060Y513188D01*
X444872Y512865D01*
X444676Y512547D01*
X444472Y512233D01*
X444260Y511925D01*
X444041Y511622D01*
X443814Y511324D01*
X443581Y511032D01*
X443340Y510746D01*
X443092Y510465D01*
X442838Y510191D01*
X442576Y509924D01*
X442309Y509662D01*
X442035Y509408D01*
X441754Y509160D01*
X441468Y508919D01*
X441176Y508686D01*
X440878Y508459D01*
X440575Y508240D01*
X440267Y508028D01*
X439953Y507824D01*
X439635Y507628D01*
X439312Y507440D01*
X438984Y507260D01*
X438652Y507087D01*
X438316Y506923D01*
X437976Y506767D01*
X437632Y506620D01*
X437285Y506481D01*
X436934Y506351D01*
X436581Y506229D01*
X436224Y506116D01*
X435865Y506012D01*
X435503Y505917D01*
X435139Y505830D01*
X434773Y505753D01*
X434405Y505684D01*
X434036Y505625D01*
X433666Y505575D01*
X433294Y505533D01*
X432921Y505501D01*
X432548Y505478D01*
X432174Y505465D01*
X431800Y505460D01*
X431426Y505465D01*
X431052Y505478D01*
X430679Y505501D01*
X430306Y505533D01*
X429934Y505575D01*
X429564Y505625D01*
X429195Y505684D01*
X428827Y505753D01*
X428461Y505830D01*
X428097Y505917D01*
X427735Y506012D01*
X427376Y506116D01*
X427019Y506229D01*
X426666Y506351D01*
X426315Y506481D01*
X425968Y506620D01*
X425624Y506767D01*
X425284Y506923D01*
X424948Y507087D01*
X424616Y507260D01*
X424288Y507440D01*
X423965Y507628D01*
X423647Y507824D01*
X423333Y508028D01*
X423025Y508240D01*
X422722Y508459D01*
X422424Y508686D01*
X422132Y508919D01*
X421846Y509160D01*
X421565Y509408D01*
X421291Y509662D01*
X421024Y509924D01*
X420762Y510191D01*
X420508Y510465D01*
X420260Y510746D01*
X420019Y511032D01*
X419786Y511324D01*
X419559Y511622D01*
X419340Y511925D01*
X419128Y512233D01*
X418924Y512547D01*
X418728Y512865D01*
X418540Y513188D01*
X418360Y513516D01*
X418187Y513848D01*
X418023Y514184D01*
X417867Y514524D01*
X417720Y514868D01*
X417581Y515215D01*
X417451Y515566D01*
X417329Y515919D01*
X417216Y516276D01*
X417112Y516635D01*
X417017Y516997D01*
X416930Y517361D01*
X416853Y517727D01*
X416784Y518095D01*
X416725Y518464D01*
X416675Y518834D01*
X416633Y519206D01*
X416601Y519579D01*
X416578Y519952D01*
X416565Y520326D01*
X416560Y520700D01*
X416560Y25400D02*
X416565Y25774D01*
X416578Y26148D01*
X416601Y26521D01*
X416633Y26894D01*
X416675Y27266D01*
X416725Y27636D01*
X416784Y28005D01*
X416853Y28373D01*
X416930Y28739D01*
X417017Y29103D01*
X417112Y29465D01*
X417216Y29824D01*
X417329Y30181D01*
X417451Y30534D01*
X417581Y30885D01*
X417720Y31232D01*
X417867Y31576D01*
X418023Y31916D01*
X418187Y32252D01*
X418360Y32584D01*
X418540Y32912D01*
X418728Y33235D01*
X418924Y33553D01*
X419128Y33867D01*
X419340Y34175D01*
X419559Y34478D01*
X419786Y34776D01*
X420019Y35068D01*
X420260Y35354D01*
X420508Y35635D01*
X420762Y35909D01*
X421024Y36176D01*
X421291Y36438D01*
X421565Y36692D01*
X421846Y36940D01*
X422132Y37181D01*
X422424Y37414D01*
X422722Y37641D01*
X423025Y37860D01*
X423333Y38072D01*
X423647Y38276D01*
X423965Y38472D01*
X424288Y38660D01*
X424616Y38840D01*
X424948Y39013D01*
X425284Y39177D01*
X425624Y39333D01*
X425968Y39480D01*
X426315Y39619D01*
X426666Y39749D01*
X427019Y39871D01*
X427376Y39984D01*
X427735Y40088D01*
X428097Y40183D01*
X428461Y40270D01*
X428827Y40347D01*
X429195Y40416D01*
X429564Y40475D01*
X429934Y40525D01*
X430306Y40567D01*
X430679Y40599D01*
X431052Y40622D01*
X431426Y40635D01*
X431800Y40640D01*
X432174Y40635D01*
X432548Y40622D01*
X432921Y40599D01*
X433294Y40567D01*
X433666Y40525D01*
X434036Y40475D01*
X434405Y40416D01*
X434773Y40347D01*
X435139Y40270D01*
X435503Y40183D01*
X435865Y40088D01*
X436224Y39984D01*
X436581Y39871D01*
X436934Y39749D01*
X437285Y39619D01*
X437632Y39480D01*
X437976Y39333D01*
X438316Y39177D01*
X438652Y39013D01*
X438984Y38840D01*
X439312Y38660D01*
X439635Y38472D01*
X439953Y38276D01*
X440267Y38072D01*
X440575Y37860D01*
X440878Y37641D01*
X441176Y37414D01*
X441468Y37181D01*
X441754Y36940D01*
X442035Y36692D01*
X442309Y36438D01*
X442576Y36176D01*
X442838Y35909D01*
X443092Y35635D01*
X443340Y35354D01*
X443581Y35068D01*
X443814Y34776D01*
X444041Y34478D01*
X444260Y34175D01*
X444472Y33867D01*
X444676Y33553D01*
X444872Y33235D01*
X445060Y32912D01*
X445240Y32584D01*
X445413Y32252D01*
X445577Y31916D01*
X445733Y31576D01*
X445880Y31232D01*
X446019Y30885D01*
X446149Y30534D01*
X446271Y30181D01*
X446384Y29824D01*
X446488Y29465D01*
X446583Y29103D01*
X446670Y28739D01*
X446747Y28373D01*
X446816Y28005D01*
X446875Y27636D01*
X446925Y27266D01*
X446967Y26894D01*
X446999Y26521D01*
X447022Y26148D01*
X447035Y25774D01*
X447040Y25400D01*
X447035Y25026D01*
X447022Y24652D01*
X446999Y24279D01*
X446967Y23906D01*
X446925Y23534D01*
X446875Y23164D01*
X446816Y22795D01*
X446747Y22427D01*
X446670Y22061D01*
X446583Y21697D01*
X446488Y21335D01*
X446384Y20976D01*
X446271Y20619D01*
X446149Y20266D01*
X446019Y19915D01*
X445880Y19568D01*
X445733Y19224D01*
X445577Y18884D01*
X445413Y18548D01*
X445240Y18216D01*
X445060Y17888D01*
X444872Y17565D01*
X444676Y17247D01*
X444472Y16933D01*
X444260Y16625D01*
X444041Y16322D01*
X443814Y16024D01*
X443581Y15732D01*
X443340Y15446D01*
X443092Y15165D01*
X442838Y14891D01*
X442576Y14624D01*
X442309Y14362D01*
X442035Y14108D01*
X441754Y13860D01*
X441468Y13619D01*
X441176Y13386D01*
X440878Y13159D01*
X440575Y12940D01*
X440267Y12728D01*
X439953Y12524D01*
X439635Y12328D01*
X439312Y12140D01*
X438984Y11960D01*
X438652Y11787D01*
X438316Y11623D01*
X437976Y11467D01*
X437632Y11320D01*
X437285Y11181D01*
X436934Y11051D01*
X436581Y10929D01*
X436224Y10816D01*
X435865Y10712D01*
X435503Y10617D01*
X435139Y10530D01*
X434773Y10453D01*
X434405Y10384D01*
X434036Y10325D01*
X433666Y10275D01*
X433294Y10233D01*
X432921Y10201D01*
X432548Y10178D01*
X432174Y10165D01*
X431800Y10160D01*
X431426Y10165D01*
X431052Y10178D01*
X430679Y10201D01*
X430306Y10233D01*
X429934Y10275D01*
X429564Y10325D01*
X429195Y10384D01*
X428827Y10453D01*
X428461Y10530D01*
X428097Y10617D01*
X427735Y10712D01*
X427376Y10816D01*
X427019Y10929D01*
X426666Y11051D01*
X426315Y11181D01*
X425968Y11320D01*
X425624Y11467D01*
X425284Y11623D01*
X424948Y11787D01*
X424616Y11960D01*
X424288Y12140D01*
X423965Y12328D01*
X423647Y12524D01*
X423333Y12728D01*
X423025Y12940D01*
X422722Y13159D01*
X422424Y13386D01*
X422132Y13619D01*
X421846Y13860D01*
X421565Y14108D01*
X421291Y14362D01*
X421024Y14624D01*
X420762Y14891D01*
X420508Y15165D01*
X420260Y15446D01*
X420019Y15732D01*
X419786Y16024D01*
X419559Y16322D01*
X419340Y16625D01*
X419128Y16933D01*
X418924Y17247D01*
X418728Y17565D01*
X418540Y17888D01*
X418360Y18216D01*
X418187Y18548D01*
X418023Y18884D01*
X417867Y19224D01*
X417720Y19568D01*
X417581Y19915D01*
X417451Y20266D01*
X417329Y20619D01*
X417216Y20976D01*
X417112Y21335D01*
X417017Y21697D01*
X416930Y22061D01*
X416853Y22427D01*
X416784Y22795D01*
X416725Y23164D01*
X416675Y23534D01*
X416633Y23906D01*
X416601Y24279D01*
X416578Y24652D01*
X416565Y25026D01*
X416560Y25400D01*
X10160Y520700D02*
X10165Y521074D01*
X10178Y521448D01*
X10201Y521821D01*
X10233Y522194D01*
X10275Y522566D01*
X10325Y522936D01*
X10384Y523305D01*
X10453Y523673D01*
X10530Y524039D01*
X10617Y524403D01*
X10712Y524765D01*
X10816Y525124D01*
X10929Y525481D01*
X11051Y525834D01*
X11181Y526185D01*
X11320Y526532D01*
X11467Y526876D01*
X11623Y527216D01*
X11787Y527552D01*
X11960Y527884D01*
X12140Y528212D01*
X12328Y528535D01*
X12524Y528853D01*
X12728Y529167D01*
X12940Y529475D01*
X13159Y529778D01*
X13386Y530076D01*
X13619Y530368D01*
X13860Y530654D01*
X14108Y530935D01*
X14362Y531209D01*
X14624Y531476D01*
X14891Y531738D01*
X15165Y531992D01*
X15446Y532240D01*
X15732Y532481D01*
X16024Y532714D01*
X16322Y532941D01*
X16625Y533160D01*
X16933Y533372D01*
X17247Y533576D01*
X17565Y533772D01*
X17888Y533960D01*
X18216Y534140D01*
X18548Y534313D01*
X18884Y534477D01*
X19224Y534633D01*
X19568Y534780D01*
X19915Y534919D01*
X20266Y535049D01*
X20619Y535171D01*
X20976Y535284D01*
X21335Y535388D01*
X21697Y535483D01*
X22061Y535570D01*
X22427Y535647D01*
X22795Y535716D01*
X23164Y535775D01*
X23534Y535825D01*
X23906Y535867D01*
X24279Y535899D01*
X24652Y535922D01*
X25026Y535935D01*
X25400Y535940D01*
X25774Y535935D01*
X26148Y535922D01*
X26521Y535899D01*
X26894Y535867D01*
X27266Y535825D01*
X27636Y535775D01*
X28005Y535716D01*
X28373Y535647D01*
X28739Y535570D01*
X29103Y535483D01*
X29465Y535388D01*
X29824Y535284D01*
X30181Y535171D01*
X30534Y535049D01*
X30885Y534919D01*
X31232Y534780D01*
X31576Y534633D01*
X31916Y534477D01*
X32252Y534313D01*
X32584Y534140D01*
X32912Y533960D01*
X33235Y533772D01*
X33553Y533576D01*
X33867Y533372D01*
X34175Y533160D01*
X34478Y532941D01*
X34776Y532714D01*
X35068Y532481D01*
X35354Y532240D01*
X35635Y531992D01*
X35909Y531738D01*
X36176Y531476D01*
X36438Y531209D01*
X36692Y530935D01*
X36940Y530654D01*
X37181Y530368D01*
X37414Y530076D01*
X37641Y529778D01*
X37860Y529475D01*
X38072Y529167D01*
X38276Y528853D01*
X38472Y528535D01*
X38660Y528212D01*
X38840Y527884D01*
X39013Y527552D01*
X39177Y527216D01*
X39333Y526876D01*
X39480Y526532D01*
X39619Y526185D01*
X39749Y525834D01*
X39871Y525481D01*
X39984Y525124D01*
X40088Y524765D01*
X40183Y524403D01*
X40270Y524039D01*
X40347Y523673D01*
X40416Y523305D01*
X40475Y522936D01*
X40525Y522566D01*
X40567Y522194D01*
X40599Y521821D01*
X40622Y521448D01*
X40635Y521074D01*
X40640Y520700D01*
X40635Y520326D01*
X40622Y519952D01*
X40599Y519579D01*
X40567Y519206D01*
X40525Y518834D01*
X40475Y518464D01*
X40416Y518095D01*
X40347Y517727D01*
X40270Y517361D01*
X40183Y516997D01*
X40088Y516635D01*
X39984Y516276D01*
X39871Y515919D01*
X39749Y515566D01*
X39619Y515215D01*
X39480Y514868D01*
X39333Y514524D01*
X39177Y514184D01*
X39013Y513848D01*
X38840Y513516D01*
X38660Y513188D01*
X38472Y512865D01*
X38276Y512547D01*
X38072Y512233D01*
X37860Y511925D01*
X37641Y511622D01*
X37414Y511324D01*
X37181Y511032D01*
X36940Y510746D01*
X36692Y510465D01*
X36438Y510191D01*
X36176Y509924D01*
X35909Y509662D01*
X35635Y509408D01*
X35354Y509160D01*
X35068Y508919D01*
X34776Y508686D01*
X34478Y508459D01*
X34175Y508240D01*
X33867Y508028D01*
X33553Y507824D01*
X33235Y507628D01*
X32912Y507440D01*
X32584Y507260D01*
X32252Y507087D01*
X31916Y506923D01*
X31576Y506767D01*
X31232Y506620D01*
X30885Y506481D01*
X30534Y506351D01*
X30181Y506229D01*
X29824Y506116D01*
X29465Y506012D01*
X29103Y505917D01*
X28739Y505830D01*
X28373Y505753D01*
X28005Y505684D01*
X27636Y505625D01*
X27266Y505575D01*
X26894Y505533D01*
X26521Y505501D01*
X26148Y505478D01*
X25774Y505465D01*
X25400Y505460D01*
X25026Y505465D01*
X24652Y505478D01*
X24279Y505501D01*
X23906Y505533D01*
X23534Y505575D01*
X23164Y505625D01*
X22795Y505684D01*
X22427Y505753D01*
X22061Y505830D01*
X21697Y505917D01*
X21335Y506012D01*
X20976Y506116D01*
X20619Y506229D01*
X20266Y506351D01*
X19915Y506481D01*
X19568Y506620D01*
X19224Y506767D01*
X18884Y506923D01*
X18548Y507087D01*
X18216Y507260D01*
X17888Y507440D01*
X17565Y507628D01*
X17247Y507824D01*
X16933Y508028D01*
X16625Y508240D01*
X16322Y508459D01*
X16024Y508686D01*
X15732Y508919D01*
X15446Y509160D01*
X15165Y509408D01*
X14891Y509662D01*
X14624Y509924D01*
X14362Y510191D01*
X14108Y510465D01*
X13860Y510746D01*
X13619Y511032D01*
X13386Y511324D01*
X13159Y511622D01*
X12940Y511925D01*
X12728Y512233D01*
X12524Y512547D01*
X12328Y512865D01*
X12140Y513188D01*
X11960Y513516D01*
X11787Y513848D01*
X11623Y514184D01*
X11467Y514524D01*
X11320Y514868D01*
X11181Y515215D01*
X11051Y515566D01*
X10929Y515919D01*
X10816Y516276D01*
X10712Y516635D01*
X10617Y516997D01*
X10530Y517361D01*
X10453Y517727D01*
X10384Y518095D01*
X10325Y518464D01*
X10275Y518834D01*
X10233Y519206D01*
X10201Y519579D01*
X10178Y519952D01*
X10165Y520326D01*
X10160Y520700D01*
X10160Y25400D02*
X10165Y25774D01*
X10178Y26148D01*
X10201Y26521D01*
X10233Y26894D01*
X10275Y27266D01*
X10325Y27636D01*
X10384Y28005D01*
X10453Y28373D01*
X10530Y28739D01*
X10617Y29103D01*
X10712Y29465D01*
X10816Y29824D01*
X10929Y30181D01*
X11051Y30534D01*
X11181Y30885D01*
X11320Y31232D01*
X11467Y31576D01*
X11623Y31916D01*
X11787Y32252D01*
X11960Y32584D01*
X12140Y32912D01*
X12328Y33235D01*
X12524Y33553D01*
X12728Y33867D01*
X12940Y34175D01*
X13159Y34478D01*
X13386Y34776D01*
X13619Y35068D01*
X13860Y35354D01*
X14108Y35635D01*
X14362Y35909D01*
X14624Y36176D01*
X14891Y36438D01*
X15165Y36692D01*
X15446Y36940D01*
X15732Y37181D01*
X16024Y37414D01*
X16322Y37641D01*
X16625Y37860D01*
X16933Y38072D01*
X17247Y38276D01*
X17565Y38472D01*
X17888Y38660D01*
X18216Y38840D01*
X18548Y39013D01*
X18884Y39177D01*
X19224Y39333D01*
X19568Y39480D01*
X19915Y39619D01*
X20266Y39749D01*
X20619Y39871D01*
X20976Y39984D01*
X21335Y40088D01*
X21697Y40183D01*
X22061Y40270D01*
X22427Y40347D01*
X22795Y40416D01*
X23164Y40475D01*
X23534Y40525D01*
X23906Y40567D01*
X24279Y40599D01*
X24652Y40622D01*
X25026Y40635D01*
X25400Y40640D01*
X25774Y40635D01*
X26148Y40622D01*
X26521Y40599D01*
X26894Y40567D01*
X27266Y40525D01*
X27636Y40475D01*
X28005Y40416D01*
X28373Y40347D01*
X28739Y40270D01*
X29103Y40183D01*
X29465Y40088D01*
X29824Y39984D01*
X30181Y39871D01*
X30534Y39749D01*
X30885Y39619D01*
X31232Y39480D01*
X31576Y39333D01*
X31916Y39177D01*
X32252Y39013D01*
X32584Y38840D01*
X32912Y38660D01*
X33235Y38472D01*
X33553Y38276D01*
X33867Y38072D01*
X34175Y37860D01*
X34478Y37641D01*
X34776Y37414D01*
X35068Y37181D01*
X35354Y36940D01*
X35635Y36692D01*
X35909Y36438D01*
X36176Y36176D01*
X36438Y35909D01*
X36692Y35635D01*
X36940Y35354D01*
X37181Y35068D01*
X37414Y34776D01*
X37641Y34478D01*
X37860Y34175D01*
X38072Y33867D01*
X38276Y33553D01*
X38472Y33235D01*
X38660Y32912D01*
X38840Y32584D01*
X39013Y32252D01*
X39177Y31916D01*
X39333Y31576D01*
X39480Y31232D01*
X39619Y30885D01*
X39749Y30534D01*
X39871Y30181D01*
X39984Y29824D01*
X40088Y29465D01*
X40183Y29103D01*
X40270Y28739D01*
X40347Y28373D01*
X40416Y28005D01*
X40475Y27636D01*
X40525Y27266D01*
X40567Y26894D01*
X40599Y26521D01*
X40622Y26148D01*
X40635Y25774D01*
X40640Y25400D01*
X40635Y25026D01*
X40622Y24652D01*
X40599Y24279D01*
X40567Y23906D01*
X40525Y23534D01*
X40475Y23164D01*
X40416Y22795D01*
X40347Y22427D01*
X40270Y22061D01*
X40183Y21697D01*
X40088Y21335D01*
X39984Y20976D01*
X39871Y20619D01*
X39749Y20266D01*
X39619Y19915D01*
X39480Y19568D01*
X39333Y19224D01*
X39177Y18884D01*
X39013Y18548D01*
X38840Y18216D01*
X38660Y17888D01*
X38472Y17565D01*
X38276Y17247D01*
X38072Y16933D01*
X37860Y16625D01*
X37641Y16322D01*
X37414Y16024D01*
X37181Y15732D01*
X36940Y15446D01*
X36692Y15165D01*
X36438Y14891D01*
X36176Y14624D01*
X35909Y14362D01*
X35635Y14108D01*
X35354Y13860D01*
X35068Y13619D01*
X34776Y13386D01*
X34478Y13159D01*
X34175Y12940D01*
X33867Y12728D01*
X33553Y12524D01*
X33235Y12328D01*
X32912Y12140D01*
X32584Y11960D01*
X32252Y11787D01*
X31916Y11623D01*
X31576Y11467D01*
X31232Y11320D01*
X30885Y11181D01*
X30534Y11051D01*
X30181Y10929D01*
X29824Y10816D01*
X29465Y10712D01*
X29103Y10617D01*
X28739Y10530D01*
X28373Y10453D01*
X28005Y10384D01*
X27636Y10325D01*
X27266Y10275D01*
X26894Y10233D01*
X26521Y10201D01*
X26148Y10178D01*
X25774Y10165D01*
X25400Y10160D01*
X25026Y10165D01*
X24652Y10178D01*
X24279Y10201D01*
X23906Y10233D01*
X23534Y10275D01*
X23164Y10325D01*
X22795Y10384D01*
X22427Y10453D01*
X22061Y10530D01*
X21697Y10617D01*
X21335Y10712D01*
X20976Y10816D01*
X20619Y10929D01*
X20266Y11051D01*
X19915Y11181D01*
X19568Y11320D01*
X19224Y11467D01*
X18884Y11623D01*
X18548Y11787D01*
X18216Y11960D01*
X17888Y12140D01*
X17565Y12328D01*
X17247Y12524D01*
X16933Y12728D01*
X16625Y12940D01*
X16322Y13159D01*
X16024Y13386D01*
X15732Y13619D01*
X15446Y13860D01*
X15165Y14108D01*
X14891Y14362D01*
X14624Y14624D01*
X14362Y14891D01*
X14108Y15165D01*
X13860Y15446D01*
X13619Y15732D01*
X13386Y16024D01*
X13159Y16322D01*
X12940Y16625D01*
X12728Y16933D01*
X12524Y17247D01*
X12328Y17565D01*
X12140Y17888D01*
X11960Y18216D01*
X11787Y18548D01*
X11623Y18884D01*
X11467Y19224D01*
X11320Y19568D01*
X11181Y19915D01*
X11051Y20266D01*
X10929Y20619D01*
X10816Y20976D01*
X10712Y21335D01*
X10617Y21697D01*
X10530Y22061D01*
X10453Y22427D01*
X10384Y22795D01*
X10325Y23164D01*
X10275Y23534D01*
X10233Y23906D01*
X10201Y24279D01*
X10178Y24652D01*
X10165Y25026D01*
X10160Y25400D01*
X46550Y150100D02*
X46552Y150230D01*
X46558Y150360D01*
X46568Y150490D01*
X46582Y150620D01*
X46600Y150749D01*
X46622Y150877D01*
X46647Y151005D01*
X46677Y151132D01*
X46711Y151258D01*
X46748Y151382D01*
X46789Y151506D01*
X46834Y151628D01*
X46883Y151749D01*
X46935Y151868D01*
X46991Y151986D01*
X47051Y152102D01*
X47114Y152216D01*
X47181Y152328D01*
X47251Y152437D01*
X47324Y152545D01*
X47400Y152650D01*
X47480Y152753D01*
X47563Y152854D01*
X47649Y152952D01*
X47738Y153047D01*
X47830Y153140D01*
X47924Y153229D01*
X48021Y153316D01*
X48121Y153399D01*
X48224Y153480D01*
X48328Y153557D01*
X48435Y153631D01*
X48545Y153702D01*
X48656Y153770D01*
X48770Y153834D01*
X48885Y153894D01*
X49002Y153951D01*
X49121Y154004D01*
X49242Y154054D01*
X49363Y154100D01*
X49487Y154142D01*
X49611Y154180D01*
X49737Y154215D01*
X49863Y154246D01*
X49991Y154272D01*
X50119Y154295D01*
X50248Y154314D01*
X50377Y154329D01*
X50507Y154340D01*
X50637Y154347D01*
X50767Y154350D01*
X50898Y154349D01*
X51028Y154344D01*
X51158Y154335D01*
X51287Y154322D01*
X51417Y154305D01*
X51545Y154284D01*
X51673Y154259D01*
X51800Y154231D01*
X51926Y154198D01*
X52051Y154162D01*
X52175Y154121D01*
X52298Y154077D01*
X52419Y154030D01*
X52539Y153978D01*
X52657Y153923D01*
X52773Y153864D01*
X52887Y153802D01*
X53000Y153736D01*
X53110Y153667D01*
X53218Y153595D01*
X53324Y153519D01*
X53428Y153440D01*
X53529Y153358D01*
X53628Y153273D01*
X53724Y153185D01*
X53817Y153094D01*
X53907Y153000D01*
X53994Y152903D01*
X54079Y152804D01*
X54160Y152702D01*
X54238Y152598D01*
X54313Y152492D01*
X54385Y152383D01*
X54453Y152272D01*
X54518Y152159D01*
X54579Y152044D01*
X54637Y151927D01*
X54691Y151809D01*
X54742Y151689D01*
X54789Y151567D01*
X54832Y151444D01*
X54871Y151320D01*
X54907Y151195D01*
X54938Y151068D01*
X54966Y150941D01*
X54990Y150813D01*
X55010Y150684D01*
X55026Y150555D01*
X55038Y150425D01*
X55046Y150295D01*
X55050Y150165D01*
X55050Y150035D01*
X55046Y149905D01*
X55038Y149775D01*
X55026Y149645D01*
X55010Y149516D01*
X54990Y149387D01*
X54966Y149259D01*
X54938Y149132D01*
X54907Y149005D01*
X54871Y148880D01*
X54832Y148756D01*
X54789Y148633D01*
X54742Y148511D01*
X54691Y148391D01*
X54637Y148273D01*
X54579Y148156D01*
X54518Y148041D01*
X54453Y147928D01*
X54385Y147817D01*
X54313Y147708D01*
X54238Y147602D01*
X54160Y147498D01*
X54079Y147396D01*
X53994Y147297D01*
X53907Y147200D01*
X53817Y147106D01*
X53724Y147015D01*
X53628Y146927D01*
X53529Y146842D01*
X53428Y146760D01*
X53324Y146681D01*
X53218Y146605D01*
X53110Y146533D01*
X53000Y146464D01*
X52887Y146398D01*
X52773Y146336D01*
X52657Y146277D01*
X52539Y146222D01*
X52419Y146170D01*
X52298Y146123D01*
X52175Y146079D01*
X52051Y146038D01*
X51926Y146002D01*
X51800Y145969D01*
X51673Y145941D01*
X51545Y145916D01*
X51417Y145895D01*
X51287Y145878D01*
X51158Y145865D01*
X51028Y145856D01*
X50898Y145851D01*
X50767Y145850D01*
X50637Y145853D01*
X50507Y145860D01*
X50377Y145871D01*
X50248Y145886D01*
X50119Y145905D01*
X49991Y145928D01*
X49863Y145954D01*
X49737Y145985D01*
X49611Y146020D01*
X49487Y146058D01*
X49363Y146100D01*
X49242Y146146D01*
X49121Y146196D01*
X49002Y146249D01*
X48885Y146306D01*
X48770Y146366D01*
X48656Y146430D01*
X48545Y146498D01*
X48435Y146569D01*
X48328Y146643D01*
X48224Y146720D01*
X48121Y146801D01*
X48021Y146884D01*
X47924Y146971D01*
X47830Y147060D01*
X47738Y147153D01*
X47649Y147248D01*
X47563Y147346D01*
X47480Y147447D01*
X47400Y147550D01*
X47324Y147655D01*
X47251Y147763D01*
X47181Y147872D01*
X47114Y147984D01*
X47051Y148098D01*
X46991Y148214D01*
X46935Y148332D01*
X46883Y148451D01*
X46834Y148572D01*
X46789Y148694D01*
X46748Y148818D01*
X46711Y148942D01*
X46677Y149068D01*
X46647Y149195D01*
X46622Y149323D01*
X46600Y149451D01*
X46582Y149580D01*
X46568Y149710D01*
X46558Y149840D01*
X46552Y149970D01*
X46550Y150100D01*
X46550Y180100D02*
X46552Y180230D01*
X46558Y180360D01*
X46568Y180490D01*
X46582Y180620D01*
X46600Y180749D01*
X46622Y180877D01*
X46647Y181005D01*
X46677Y181132D01*
X46711Y181258D01*
X46748Y181382D01*
X46789Y181506D01*
X46834Y181628D01*
X46883Y181749D01*
X46935Y181868D01*
X46991Y181986D01*
X47051Y182102D01*
X47114Y182216D01*
X47181Y182328D01*
X47251Y182437D01*
X47324Y182545D01*
X47400Y182650D01*
X47480Y182753D01*
X47563Y182854D01*
X47649Y182952D01*
X47738Y183047D01*
X47830Y183140D01*
X47924Y183229D01*
X48021Y183316D01*
X48121Y183399D01*
X48224Y183480D01*
X48328Y183557D01*
X48435Y183631D01*
X48545Y183702D01*
X48656Y183770D01*
X48770Y183834D01*
X48885Y183894D01*
X49002Y183951D01*
X49121Y184004D01*
X49242Y184054D01*
X49363Y184100D01*
X49487Y184142D01*
X49611Y184180D01*
X49737Y184215D01*
X49863Y184246D01*
X49991Y184272D01*
X50119Y184295D01*
X50248Y184314D01*
X50377Y184329D01*
X50507Y184340D01*
X50637Y184347D01*
X50767Y184350D01*
X50898Y184349D01*
X51028Y184344D01*
X51158Y184335D01*
X51287Y184322D01*
X51417Y184305D01*
X51545Y184284D01*
X51673Y184259D01*
X51800Y184231D01*
X51926Y184198D01*
X52051Y184162D01*
X52175Y184121D01*
X52298Y184077D01*
X52419Y184030D01*
X52539Y183978D01*
X52657Y183923D01*
X52773Y183864D01*
X52887Y183802D01*
X53000Y183736D01*
X53110Y183667D01*
X53218Y183595D01*
X53324Y183519D01*
X53428Y183440D01*
X53529Y183358D01*
X53628Y183273D01*
X53724Y183185D01*
X53817Y183094D01*
X53907Y183000D01*
X53994Y182903D01*
X54079Y182804D01*
X54160Y182702D01*
X54238Y182598D01*
X54313Y182492D01*
X54385Y182383D01*
X54453Y182272D01*
X54518Y182159D01*
X54579Y182044D01*
X54637Y181927D01*
X54691Y181809D01*
X54742Y181689D01*
X54789Y181567D01*
X54832Y181444D01*
X54871Y181320D01*
X54907Y181195D01*
X54938Y181068D01*
X54966Y180941D01*
X54990Y180813D01*
X55010Y180684D01*
X55026Y180555D01*
X55038Y180425D01*
X55046Y180295D01*
X55050Y180165D01*
X55050Y180035D01*
X55046Y179905D01*
X55038Y179775D01*
X55026Y179645D01*
X55010Y179516D01*
X54990Y179387D01*
X54966Y179259D01*
X54938Y179132D01*
X54907Y179005D01*
X54871Y178880D01*
X54832Y178756D01*
X54789Y178633D01*
X54742Y178511D01*
X54691Y178391D01*
X54637Y178273D01*
X54579Y178156D01*
X54518Y178041D01*
X54453Y177928D01*
X54385Y177817D01*
X54313Y177708D01*
X54238Y177602D01*
X54160Y177498D01*
X54079Y177396D01*
X53994Y177297D01*
X53907Y177200D01*
X53817Y177106D01*
X53724Y177015D01*
X53628Y176927D01*
X53529Y176842D01*
X53428Y176760D01*
X53324Y176681D01*
X53218Y176605D01*
X53110Y176533D01*
X53000Y176464D01*
X52887Y176398D01*
X52773Y176336D01*
X52657Y176277D01*
X52539Y176222D01*
X52419Y176170D01*
X52298Y176123D01*
X52175Y176079D01*
X52051Y176038D01*
X51926Y176002D01*
X51800Y175969D01*
X51673Y175941D01*
X51545Y175916D01*
X51417Y175895D01*
X51287Y175878D01*
X51158Y175865D01*
X51028Y175856D01*
X50898Y175851D01*
X50767Y175850D01*
X50637Y175853D01*
X50507Y175860D01*
X50377Y175871D01*
X50248Y175886D01*
X50119Y175905D01*
X49991Y175928D01*
X49863Y175954D01*
X49737Y175985D01*
X49611Y176020D01*
X49487Y176058D01*
X49363Y176100D01*
X49242Y176146D01*
X49121Y176196D01*
X49002Y176249D01*
X48885Y176306D01*
X48770Y176366D01*
X48656Y176430D01*
X48545Y176498D01*
X48435Y176569D01*
X48328Y176643D01*
X48224Y176720D01*
X48121Y176801D01*
X48021Y176884D01*
X47924Y176971D01*
X47830Y177060D01*
X47738Y177153D01*
X47649Y177248D01*
X47563Y177346D01*
X47480Y177447D01*
X47400Y177550D01*
X47324Y177655D01*
X47251Y177763D01*
X47181Y177872D01*
X47114Y177984D01*
X47051Y178098D01*
X46991Y178214D01*
X46935Y178332D01*
X46883Y178451D01*
X46834Y178572D01*
X46789Y178694D01*
X46748Y178818D01*
X46711Y178942D01*
X46677Y179068D01*
X46647Y179195D01*
X46622Y179323D01*
X46600Y179451D01*
X46582Y179580D01*
X46568Y179710D01*
X46558Y179840D01*
X46552Y179970D01*
X46550Y180100D01*
D15*
X0Y0D02*
X190500Y0D01*
X190558Y1328D01*
X190732Y2646D01*
X191019Y3944D01*
X191419Y5212D01*
X191928Y6441D01*
X192542Y7620D01*
X193256Y8741D01*
X194065Y9796D01*
X194964Y10776D01*
X195944Y11675D01*
X196999Y12484D01*
X198120Y13198D01*
X199299Y13812D01*
X200528Y14321D01*
X201796Y14721D01*
X203094Y15008D01*
X204412Y15182D01*
X205740Y15240D01*
X251460Y15240D01*
X252788Y15182D01*
X254106Y15008D01*
X255404Y14721D01*
X256672Y14321D01*
X257901Y13812D01*
X259080Y13198D01*
X260201Y12484D01*
X261256Y11675D01*
X262236Y10776D01*
X263135Y9796D01*
X263944Y8741D01*
X264658Y7620D01*
X265272Y6441D01*
X265781Y5212D01*
X266181Y3944D01*
X266468Y2646D01*
X266642Y1328D01*
X266700Y0D01*
X457200Y0D01*
X457200Y546100D01*
X0Y546100D01*
X0Y0D01*
X304550Y51377D02*
X304494Y50955D01*
X304384Y50543D01*
X304221Y50149D01*
X304008Y49781D01*
X303749Y49443D01*
X303447Y49141D01*
X303109Y48882D01*
X302741Y48669D01*
X302347Y48506D01*
X301935Y48396D01*
X301513Y48340D01*
X301087Y48340D01*
X300665Y48396D01*
X300253Y48506D01*
X299859Y48669D01*
X299491Y48882D01*
X299153Y49141D01*
X298851Y49443D01*
X298592Y49781D01*
X298379Y50149D01*
X298216Y50543D01*
X298106Y50955D01*
X298050Y51377D01*
X298050Y51803D01*
X298106Y52225D01*
X298216Y52637D01*
X298379Y53031D01*
X298592Y53399D01*
X298851Y53737D01*
X299153Y54039D01*
X299491Y54298D01*
X299859Y54511D01*
X300253Y54674D01*
X300665Y54784D01*
X301087Y54840D01*
X301513Y54840D01*
X301935Y54784D01*
X302347Y54674D01*
X302741Y54511D01*
X303109Y54298D01*
X303447Y54039D01*
X303749Y53737D01*
X304008Y53399D01*
X304221Y53031D01*
X304384Y52637D01*
X304494Y52225D01*
X304550Y51803D01*
X304550Y51377D01*
X362350Y51377D02*
X362294Y50955D01*
X362184Y50543D01*
X362021Y50149D01*
X361808Y49781D01*
X361549Y49443D01*
X361247Y49141D01*
X360909Y48882D01*
X360541Y48669D01*
X360147Y48506D01*
X359735Y48396D01*
X359313Y48340D01*
X358887Y48340D01*
X358465Y48396D01*
X358053Y48506D01*
X357659Y48669D01*
X357291Y48882D01*
X356953Y49141D01*
X356651Y49443D01*
X356392Y49781D01*
X356179Y50149D01*
X356016Y50543D01*
X355906Y50955D01*
X355850Y51377D01*
X355850Y51803D01*
X355906Y52225D01*
X356016Y52637D01*
X356179Y53031D01*
X356392Y53399D01*
X356651Y53737D01*
X356953Y54039D01*
X357291Y54298D01*
X357659Y54511D01*
X358053Y54674D01*
X358465Y54784D01*
X358887Y54840D01*
X359313Y54840D01*
X359735Y54784D01*
X360147Y54674D01*
X360541Y54511D01*
X360909Y54298D01*
X361247Y54039D01*
X361549Y53737D01*
X361808Y53399D01*
X362021Y53031D01*
X362184Y52637D01*
X362294Y52225D01*
X362350Y51803D01*
X362350Y51377D01*
X101350Y51377D02*
X101294Y50955D01*
X101184Y50543D01*
X101021Y50149D01*
X100808Y49781D01*
X100549Y49443D01*
X100247Y49141D01*
X99909Y48882D01*
X99541Y48669D01*
X99147Y48506D01*
X98735Y48396D01*
X98313Y48340D01*
X97887Y48340D01*
X97465Y48396D01*
X97053Y48506D01*
X96659Y48669D01*
X96291Y48882D01*
X95953Y49141D01*
X95651Y49443D01*
X95392Y49781D01*
X95179Y50149D01*
X95016Y50543D01*
X94906Y50955D01*
X94850Y51377D01*
X94850Y51803D01*
X94906Y52225D01*
X95016Y52637D01*
X95179Y53031D01*
X95392Y53399D01*
X95651Y53737D01*
X95953Y54039D01*
X96291Y54298D01*
X96659Y54511D01*
X97053Y54674D01*
X97465Y54784D01*
X97887Y54840D01*
X98313Y54840D01*
X98735Y54784D01*
X99147Y54674D01*
X99541Y54511D01*
X99909Y54298D01*
X100247Y54039D01*
X100549Y53737D01*
X100808Y53399D01*
X101021Y53031D01*
X101184Y52637D01*
X101294Y52225D01*
X101350Y51803D01*
X101350Y51377D01*
X159150Y51377D02*
X159094Y50955D01*
X158984Y50543D01*
X158821Y50149D01*
X158608Y49781D01*
X158349Y49443D01*
X158047Y49141D01*
X157709Y48882D01*
X157341Y48669D01*
X156947Y48506D01*
X156535Y48396D01*
X156113Y48340D01*
X155687Y48340D01*
X155265Y48396D01*
X154853Y48506D01*
X154459Y48669D01*
X154091Y48882D01*
X153753Y49141D01*
X153451Y49443D01*
X153192Y49781D01*
X152979Y50149D01*
X152816Y50543D01*
X152706Y50955D01*
X152650Y51377D01*
X152650Y51803D01*
X152706Y52225D01*
X152816Y52637D01*
X152979Y53031D01*
X153192Y53399D01*
X153451Y53737D01*
X153753Y54039D01*
X154091Y54298D01*
X154459Y54511D01*
X154853Y54674D01*
X155265Y54784D01*
X155687Y54840D01*
X156113Y54840D01*
X156535Y54784D01*
X156947Y54674D01*
X157341Y54511D01*
X157709Y54298D01*
X158047Y54039D01*
X158349Y53737D01*
X158608Y53399D01*
X158821Y53031D01*
X158984Y52637D01*
X159094Y52225D01*
X159150Y51803D01*
X159150Y51377D01*
X447040Y520156D02*
X446962Y519070D01*
X446807Y517992D01*
X446576Y516929D01*
X446269Y515884D01*
X445889Y514864D01*
X445437Y513874D01*
X444915Y512919D01*
X444326Y512003D01*
X443674Y511131D01*
X442961Y510309D01*
X442191Y509539D01*
X441369Y508826D01*
X440497Y508174D01*
X439581Y507585D01*
X438626Y507063D01*
X437636Y506611D01*
X436616Y506231D01*
X435571Y505924D01*
X434508Y505693D01*
X433430Y505538D01*
X432344Y505460D01*
X431256Y505460D01*
X430170Y505538D01*
X429092Y505693D01*
X428029Y505924D01*
X426984Y506231D01*
X425964Y506611D01*
X424974Y507063D01*
X424019Y507585D01*
X423103Y508174D01*
X422231Y508826D01*
X421409Y509539D01*
X420639Y510309D01*
X419926Y511131D01*
X419274Y512003D01*
X418685Y512919D01*
X418163Y513874D01*
X417711Y514864D01*
X417331Y515884D01*
X417024Y516929D01*
X416793Y517992D01*
X416638Y519070D01*
X416560Y520156D01*
X416560Y521244D01*
X416638Y522330D01*
X416793Y523408D01*
X417024Y524471D01*
X417331Y525516D01*
X417711Y526536D01*
X418163Y527526D01*
X418685Y528481D01*
X419274Y529397D01*
X419926Y530269D01*
X420639Y531091D01*
X421409Y531861D01*
X422231Y532574D01*
X423103Y533226D01*
X424019Y533815D01*
X424974Y534337D01*
X425964Y534789D01*
X426984Y535169D01*
X428029Y535476D01*
X429092Y535707D01*
X430170Y535862D01*
X431256Y535940D01*
X432344Y535940D01*
X433430Y535862D01*
X434508Y535707D01*
X435571Y535476D01*
X436616Y535169D01*
X437636Y534789D01*
X438626Y534337D01*
X439581Y533815D01*
X440497Y533226D01*
X441369Y532574D01*
X442191Y531861D01*
X442961Y531091D01*
X443674Y530269D01*
X444326Y529397D01*
X444915Y528481D01*
X445437Y527526D01*
X445889Y526536D01*
X446269Y525516D01*
X446576Y524471D01*
X446807Y523408D01*
X446962Y522330D01*
X447040Y521244D01*
X447040Y520156D01*
X447040Y24856D02*
X446962Y23770D01*
X446807Y22692D01*
X446576Y21629D01*
X446269Y20584D01*
X445889Y19564D01*
X445437Y18574D01*
X444915Y17619D01*
X444326Y16703D01*
X443674Y15831D01*
X442961Y15009D01*
X442191Y14239D01*
X441369Y13526D01*
X440497Y12874D01*
X439581Y12285D01*
X438626Y11763D01*
X437636Y11311D01*
X436616Y10931D01*
X435571Y10624D01*
X434508Y10393D01*
X433430Y10238D01*
X432344Y10160D01*
X431256Y10160D01*
X430170Y10238D01*
X429092Y10393D01*
X428029Y10624D01*
X426984Y10931D01*
X425964Y11311D01*
X424974Y11763D01*
X424019Y12285D01*
X423103Y12874D01*
X422231Y13526D01*
X421409Y14239D01*
X420639Y15009D01*
X419926Y15831D01*
X419274Y16703D01*
X418685Y17619D01*
X418163Y18574D01*
X417711Y19564D01*
X417331Y20584D01*
X417024Y21629D01*
X416793Y22692D01*
X416638Y23770D01*
X416560Y24856D01*
X416560Y25944D01*
X416638Y27030D01*
X416793Y28108D01*
X417024Y29171D01*
X417331Y30216D01*
X417711Y31236D01*
X418163Y32226D01*
X418685Y33181D01*
X419274Y34097D01*
X419926Y34969D01*
X420639Y35791D01*
X421409Y36561D01*
X422231Y37274D01*
X423103Y37926D01*
X424019Y38515D01*
X424974Y39037D01*
X425964Y39489D01*
X426984Y39869D01*
X428029Y40176D01*
X429092Y40407D01*
X430170Y40562D01*
X431256Y40640D01*
X432344Y40640D01*
X433430Y40562D01*
X434508Y40407D01*
X435571Y40176D01*
X436616Y39869D01*
X437636Y39489D01*
X438626Y39037D01*
X439581Y38515D01*
X440497Y37926D01*
X441369Y37274D01*
X442191Y36561D01*
X442961Y35791D01*
X443674Y34969D01*
X444326Y34097D01*
X444915Y33181D01*
X445437Y32226D01*
X445889Y31236D01*
X446269Y30216D01*
X446576Y29171D01*
X446807Y28108D01*
X446962Y27030D01*
X447040Y25944D01*
X447040Y24856D01*
X40640Y520156D02*
X40562Y519070D01*
X40407Y517992D01*
X40176Y516929D01*
X39869Y515884D01*
X39489Y514864D01*
X39037Y513874D01*
X38515Y512919D01*
X37926Y512003D01*
X37274Y511131D01*
X36561Y510309D01*
X35791Y509539D01*
X34969Y508826D01*
X34097Y508174D01*
X33181Y507585D01*
X32226Y507063D01*
X31236Y506611D01*
X30216Y506231D01*
X29171Y505924D01*
X28108Y505693D01*
X27030Y505538D01*
X25944Y505460D01*
X24856Y505460D01*
X23770Y505538D01*
X22692Y505693D01*
X21629Y505924D01*
X20584Y506231D01*
X19564Y506611D01*
X18574Y507063D01*
X17619Y507585D01*
X16703Y508174D01*
X15831Y508826D01*
X15009Y509539D01*
X14239Y510309D01*
X13526Y511131D01*
X12874Y512003D01*
X12285Y512919D01*
X11763Y513874D01*
X11311Y514864D01*
X10931Y515884D01*
X10624Y516929D01*
X10393Y517992D01*
X10238Y519070D01*
X10160Y520156D01*
X10160Y521244D01*
X10238Y522330D01*
X10393Y523408D01*
X10624Y524471D01*
X10931Y525516D01*
X11311Y526536D01*
X11763Y527526D01*
X12285Y528481D01*
X12874Y529397D01*
X13526Y530269D01*
X14239Y531091D01*
X15009Y531861D01*
X15831Y532574D01*
X16703Y533226D01*
X17619Y533815D01*
X18574Y534337D01*
X19564Y534789D01*
X20584Y535169D01*
X21629Y535476D01*
X22692Y535707D01*
X23770Y535862D01*
X24856Y535940D01*
X25944Y535940D01*
X27030Y535862D01*
X28108Y535707D01*
X29171Y535476D01*
X30216Y535169D01*
X31236Y534789D01*
X32226Y534337D01*
X33181Y533815D01*
X34097Y533226D01*
X34969Y532574D01*
X35791Y531861D01*
X36561Y531091D01*
X37274Y530269D01*
X37926Y529397D01*
X38515Y528481D01*
X39037Y527526D01*
X39489Y526536D01*
X39869Y525516D01*
X40176Y524471D01*
X40407Y523408D01*
X40562Y522330D01*
X40640Y521244D01*
X40640Y520156D01*
X40640Y24856D02*
X40562Y23770D01*
X40407Y22692D01*
X40176Y21629D01*
X39869Y20584D01*
X39489Y19564D01*
X39037Y18574D01*
X38515Y17619D01*
X37926Y16703D01*
X37274Y15831D01*
X36561Y15009D01*
X35791Y14239D01*
X34969Y13526D01*
X34097Y12874D01*
X33181Y12285D01*
X32226Y11763D01*
X31236Y11311D01*
X30216Y10931D01*
X29171Y10624D01*
X28108Y10393D01*
X27030Y10238D01*
X25944Y10160D01*
X24856Y10160D01*
X23770Y10238D01*
X22692Y10393D01*
X21629Y10624D01*
X20584Y10931D01*
X19564Y11311D01*
X18574Y11763D01*
X17619Y12285D01*
X16703Y12874D01*
X15831Y13526D01*
X15009Y14239D01*
X14239Y15009D01*
X13526Y15831D01*
X12874Y16703D01*
X12285Y17619D01*
X11763Y18574D01*
X11311Y19564D01*
X10931Y20584D01*
X10624Y21629D01*
X10393Y22692D01*
X10238Y23770D01*
X10160Y24856D01*
X10160Y25944D01*
X10238Y27030D01*
X10393Y28108D01*
X10624Y29171D01*
X10931Y30216D01*
X11311Y31236D01*
X11763Y32226D01*
X12285Y33181D01*
X12874Y34097D01*
X13526Y34969D01*
X14239Y35791D01*
X15009Y36561D01*
X15831Y37274D01*
X16703Y37926D01*
X17619Y38515D01*
X18574Y39037D01*
X19564Y39489D01*
X20584Y39869D01*
X21629Y40176D01*
X22692Y40407D01*
X23770Y40562D01*
X24856Y40640D01*
X25944Y40640D01*
X27030Y40562D01*
X28108Y40407D01*
X29171Y40176D01*
X30216Y39869D01*
X31236Y39489D01*
X32226Y39037D01*
X33181Y38515D01*
X34097Y37926D01*
X34969Y37274D01*
X35791Y36561D01*
X36561Y35791D01*
X37274Y34969D01*
X37926Y34097D01*
X38515Y33181D01*
X39037Y32226D01*
X39489Y31236D01*
X39869Y30216D01*
X40176Y29171D01*
X40407Y28108D01*
X40562Y27030D01*
X40640Y25944D01*
X40640Y24856D01*
X50521Y145850D02*
X49969Y145923D01*
X49431Y146067D01*
X48916Y146280D01*
X48434Y146559D01*
X47992Y146898D01*
X47598Y147292D01*
X47259Y147734D01*
X46980Y148216D01*
X46767Y148731D01*
X46623Y149269D01*
X46550Y149821D01*
X46550Y150379D01*
X46623Y150931D01*
X46767Y151469D01*
X46980Y151984D01*
X47259Y152466D01*
X47598Y152908D01*
X47992Y153302D01*
X48434Y153641D01*
X48916Y153920D01*
X49431Y154133D01*
X49969Y154277D01*
X50521Y154350D01*
X51079Y154350D01*
X51631Y154277D01*
X52169Y154133D01*
X52684Y153920D01*
X53166Y153641D01*
X53608Y153302D01*
X54002Y152908D01*
X54341Y152466D01*
X54620Y151984D01*
X54833Y151469D01*
X54977Y150931D01*
X55050Y150379D01*
X55050Y149821D01*
X54977Y149269D01*
X54833Y148731D01*
X54620Y148216D01*
X54341Y147734D01*
X54002Y147292D01*
X53608Y146898D01*
X53166Y146559D01*
X52684Y146280D01*
X52169Y146067D01*
X51631Y145923D01*
X51079Y145850D01*
X50521Y145850D01*
X50521Y175850D02*
X49969Y175923D01*
X49431Y176067D01*
X48916Y176280D01*
X48434Y176559D01*
X47992Y176898D01*
X47598Y177292D01*
X47259Y177734D01*
X46980Y178216D01*
X46767Y178731D01*
X46623Y179269D01*
X46550Y179821D01*
X46550Y180379D01*
X46623Y180931D01*
X46767Y181469D01*
X46980Y181984D01*
X47259Y182466D01*
X47598Y182908D01*
X47992Y183302D01*
X48434Y183641D01*
X48916Y183920D01*
X49431Y184133D01*
X49969Y184277D01*
X50521Y184350D01*
X51079Y184350D01*
X51631Y184277D01*
X52169Y184133D01*
X52684Y183920D01*
X53166Y183641D01*
X53608Y183302D01*
X54002Y182908D01*
X54341Y182466D01*
X54620Y181984D01*
X54833Y181469D01*
X54977Y180931D01*
X55050Y180379D01*
X55050Y179821D01*
X54977Y179269D01*
X54833Y178731D01*
X54620Y178216D01*
X54341Y177734D01*
X54002Y177292D01*
X53608Y176898D01*
X53166Y176559D01*
X52684Y176280D01*
X52169Y176067D01*
X51631Y175923D01*
X51079Y175850D01*
X50521Y175850D01*
M02*
