M48
;GenerationSoftware,Autodesk,EAGLE,9.6.2*%
;CreationDate,2023-01-18T16:10:59Z*%
FMAT,2
ICI,OFF
METRIC,TZ,000.000
T7C0.305
T6C0.350
T5C0.400
T4C0.650
T3C0.850
T2C1.016
T1C3.048
%
G90
M71
T1
X43180Y2540
X2540Y2540
X2540Y52070
X43180Y52070
T2
X38100Y31750
X38100Y24130
X38100Y36830
X38100Y26670
X7620Y21590
X7620Y24130
X7620Y26670
X7620Y29210
X7620Y31750
X7620Y34290
X7620Y36830
X7620Y39370
X21590Y12700
X24130Y12700
X38100Y34290
X38100Y39370
X38100Y29210
X38100Y41910
X38100Y44450
X7620Y41910
X7620Y44450
X38100Y21590
T3
X5080Y18010
X5080Y15010
T4
X15590Y5159
X9810Y5159
X35910Y5159
X30130Y5159
T5
X17018Y5689
X17018Y1509
X8382Y1509
X28702Y1509
X37338Y1509
X28702Y5689
X37338Y5689
X8382Y5689
T6
X16510Y12192
X25908Y25908
X25908Y24511
X28702Y18415
X28956Y15113
X34036Y8128
X29210Y12192
X41910Y8636
X39370Y8636
X6604Y13970
X6731Y17399
X3048Y17653
X19431Y19939
X17653Y27178
X34671Y23495
X32004Y13335
X32131Y23495
X23876Y5715
X37465Y18415
X38989Y18415
X26289Y18542
X36576Y21463
X44450Y39370
X44450Y33020
X44450Y26670
X44450Y20320
X44450Y14097
X2540Y45720
X1270Y39370
X1270Y33020
X1270Y26670
X1270Y20320
X1270Y15367
X41783Y42418
X36576Y41275
X13462Y25019
X33020Y16510
X22860Y41351
X7366Y12065
X19431Y43688
X44450Y45720
X1270Y46990
X40640Y44450
X41910Y48260
X24511Y19431
X24511Y20320
X25273Y20320
X25273Y19558
T7
X17780Y16764
X5842Y39370
X33303Y7925
X29464Y15748
X17145Y15748
X14097Y27178
X10414Y27178
X33782Y26162
X17780Y35560
X1905Y35306
X36195Y24130
X30353Y21463
X35814Y21463
X32233Y7925
X28829Y17526
X11811Y8128
X12983Y8128
X11557Y17416
X7874Y17399
X6858Y16510
X2286Y15494
X10185Y10160
X19170Y10160
X33020Y23495
X18796Y19431
X15875Y36830
X15875Y39243
X28575Y16764
X1080Y12255
X1016Y9017
X19050Y31115
X6858Y19050
X21590Y42037
X26550Y10160
X35535Y10160
X29845Y33401
X29083Y33401
X29845Y32639
X29083Y32639
X31369Y23495
X30099Y24638
X30099Y26543
X30099Y25654
X22606Y30353
X2286Y23749
X41791Y9660
X38950Y13882
X13843Y17526
X17780Y3810
X27940Y3810
X22860Y3810
X22860Y53340
X25400Y42291
X15240Y53340
X12192Y16891
X36703Y43815
X30480Y45720
X16764Y36322
X16510Y38862
X18415Y41148
X16764Y41148
X13462Y16637
X4699Y8128
X8890Y12065
X30480Y53340
X15240Y41148
X36830Y12065
X19431Y24130
X7112Y3302
X4699Y11176
X38608Y3429
X9271Y19456
X2286Y17907
M30