G04 EAGLE Gerber RS-274X export*
G75*
%MOMM*%
%FSLAX34Y34*%
%LPD*%
%INBottom Copper*%
%IPPOS*%
%AMOC8*
5,1,8,0,0,1.08239X$1,22.5*%
G01*
%ADD10C,0.203200*%
%ADD11C,0.279400*%
%ADD12C,1.879600*%
%ADD13C,0.099059*%
%ADD14C,0.654000*%
%ADD15C,1.000000*%
%ADD16C,0.558800*%
%ADD17C,0.254000*%
%ADD18C,0.508000*%
%ADD19C,0.558800*%
%ADD20C,0.604000*%
%ADD21C,0.762000*%

G36*
X186663Y3052D02*
X186663Y3052D01*
X186693Y3050D01*
X186821Y3072D01*
X186950Y3089D01*
X186977Y3099D01*
X187006Y3104D01*
X187125Y3158D01*
X187245Y3206D01*
X187269Y3223D01*
X187296Y3235D01*
X187397Y3316D01*
X187503Y3392D01*
X187522Y3415D01*
X187545Y3434D01*
X187622Y3537D01*
X187705Y3637D01*
X187718Y3664D01*
X187736Y3688D01*
X187807Y3832D01*
X190451Y10216D01*
X195524Y15289D01*
X202153Y18035D01*
X210947Y18035D01*
X211065Y18050D01*
X211184Y18057D01*
X211222Y18070D01*
X211263Y18075D01*
X211373Y18118D01*
X211487Y18155D01*
X211521Y18177D01*
X211558Y18192D01*
X211655Y18261D01*
X211755Y18325D01*
X211783Y18355D01*
X211816Y18378D01*
X211892Y18470D01*
X211973Y18557D01*
X211993Y18592D01*
X212018Y18623D01*
X212069Y18731D01*
X212127Y18835D01*
X212137Y18875D01*
X212154Y18911D01*
X212176Y19028D01*
X212206Y19143D01*
X212210Y19203D01*
X212214Y19223D01*
X212213Y19244D01*
X212216Y19304D01*
X212216Y21013D01*
X213556Y22353D01*
X213910Y22353D01*
X214029Y22368D01*
X214147Y22375D01*
X214186Y22388D01*
X214226Y22393D01*
X214337Y22436D01*
X214450Y22473D01*
X214484Y22495D01*
X214522Y22510D01*
X214618Y22579D01*
X214719Y22643D01*
X214746Y22673D01*
X214779Y22696D01*
X214855Y22788D01*
X214936Y22875D01*
X214956Y22910D01*
X214982Y22941D01*
X215033Y23049D01*
X215090Y23153D01*
X215100Y23193D01*
X215117Y23229D01*
X215140Y23346D01*
X215169Y23461D01*
X215173Y23521D01*
X215177Y23541D01*
X215176Y23562D01*
X215180Y23622D01*
X215180Y30537D01*
X215178Y30551D01*
X215172Y30677D01*
X215081Y31496D01*
X215090Y31513D01*
X215117Y31619D01*
X215710Y32212D01*
X215719Y32223D01*
X215804Y32316D01*
X216319Y32960D01*
X216337Y32965D01*
X216431Y33021D01*
X217269Y33021D01*
X217284Y33023D01*
X217410Y33028D01*
X218229Y33119D01*
X218245Y33110D01*
X218351Y33083D01*
X218944Y32490D01*
X218955Y32482D01*
X219049Y32397D01*
X222675Y29496D01*
X222760Y29443D01*
X222840Y29383D01*
X222895Y29361D01*
X222946Y29330D01*
X223042Y29300D01*
X223134Y29262D01*
X223193Y29254D01*
X223250Y29236D01*
X223350Y29232D01*
X223449Y29218D01*
X223508Y29224D01*
X223568Y29221D01*
X223666Y29242D01*
X223765Y29253D01*
X223821Y29274D01*
X223879Y29286D01*
X223969Y29330D01*
X224063Y29366D01*
X224111Y29400D01*
X224165Y29426D01*
X224241Y29491D01*
X224323Y29549D01*
X224361Y29594D01*
X224407Y29633D01*
X224464Y29714D01*
X224529Y29791D01*
X224578Y29876D01*
X224589Y29893D01*
X224594Y29905D01*
X224609Y29931D01*
X224670Y30057D01*
X224672Y30061D01*
X224730Y30201D01*
X225124Y31352D01*
X227461Y33021D01*
X230332Y33021D01*
X232668Y31352D01*
X233063Y30202D01*
X233065Y30198D01*
X233122Y30057D01*
X233347Y29595D01*
X233367Y29566D01*
X233380Y29532D01*
X233454Y29433D01*
X233521Y29329D01*
X233548Y29305D01*
X233569Y29276D01*
X233665Y29198D01*
X233756Y29115D01*
X233788Y29098D01*
X233815Y29075D01*
X233928Y29023D01*
X234037Y28965D01*
X234072Y28957D01*
X234104Y28942D01*
X234226Y28920D01*
X234346Y28890D01*
X234382Y28891D01*
X234417Y28884D01*
X234540Y28893D01*
X234664Y28895D01*
X234698Y28904D01*
X234734Y28906D01*
X234890Y28947D01*
X236988Y29647D01*
X238616Y28833D01*
X238644Y28823D01*
X238669Y28808D01*
X238793Y28771D01*
X238916Y28728D01*
X238945Y28725D01*
X238974Y28717D01*
X239104Y28711D01*
X239233Y28700D01*
X239262Y28705D01*
X239292Y28704D01*
X239419Y28731D01*
X239546Y28752D01*
X239574Y28764D01*
X239603Y28770D01*
X239751Y28833D01*
X241379Y29647D01*
X243176Y29048D01*
X244023Y27353D01*
X241728Y20467D01*
X241726Y20459D01*
X241722Y20450D01*
X241695Y20303D01*
X241666Y20155D01*
X241666Y20146D01*
X241664Y20138D01*
X241675Y19989D01*
X241677Y19941D01*
X241643Y19872D01*
X241611Y19782D01*
X241571Y19697D01*
X241559Y19633D01*
X241537Y19572D01*
X241529Y19477D01*
X241511Y19384D01*
X241515Y19320D01*
X241510Y19255D01*
X241525Y19162D01*
X241531Y19067D01*
X241551Y19005D01*
X241562Y18941D01*
X241600Y18855D01*
X241629Y18765D01*
X241664Y18710D01*
X241690Y18650D01*
X241749Y18576D01*
X241799Y18496D01*
X241847Y18451D01*
X241887Y18400D01*
X241962Y18343D01*
X242031Y18278D01*
X242088Y18246D01*
X242140Y18207D01*
X242227Y18170D01*
X242309Y18124D01*
X242372Y18108D01*
X242432Y18083D01*
X242526Y18069D01*
X242617Y18045D01*
X242728Y18038D01*
X242747Y18035D01*
X242757Y18036D01*
X242778Y18035D01*
X255047Y18035D01*
X261676Y15289D01*
X266749Y10216D01*
X269393Y3832D01*
X269408Y3807D01*
X269417Y3779D01*
X269486Y3669D01*
X269551Y3556D01*
X269571Y3535D01*
X269587Y3510D01*
X269682Y3421D01*
X269772Y3328D01*
X269797Y3312D01*
X269819Y3292D01*
X269932Y3229D01*
X270043Y3161D01*
X270071Y3153D01*
X270097Y3138D01*
X270223Y3106D01*
X270347Y3068D01*
X270377Y3066D01*
X270405Y3059D01*
X270566Y3049D01*
X424952Y3049D01*
X425021Y3057D01*
X425091Y3056D01*
X425178Y3077D01*
X425267Y3089D01*
X425332Y3114D01*
X425400Y3131D01*
X425480Y3173D01*
X425563Y3206D01*
X425619Y3247D01*
X425681Y3279D01*
X425748Y3340D01*
X425820Y3392D01*
X425865Y3446D01*
X425916Y3493D01*
X425966Y3568D01*
X426023Y3637D01*
X426053Y3701D01*
X426091Y3759D01*
X426120Y3844D01*
X426159Y3925D01*
X426172Y3994D01*
X426194Y4060D01*
X426202Y4149D01*
X426218Y4237D01*
X426214Y4307D01*
X426220Y4377D01*
X426204Y4465D01*
X426199Y4555D01*
X426177Y4621D01*
X426165Y4690D01*
X426128Y4772D01*
X426101Y4857D01*
X426063Y4916D01*
X426035Y4980D01*
X425979Y5050D01*
X425930Y5126D01*
X425880Y5174D01*
X425836Y5228D01*
X425764Y5283D01*
X425699Y5344D01*
X425638Y5378D01*
X425582Y5420D01*
X425437Y5491D01*
X420001Y7742D01*
X414142Y13601D01*
X410971Y21257D01*
X410971Y29543D01*
X414142Y37199D01*
X420001Y43058D01*
X427657Y46229D01*
X435943Y46229D01*
X443599Y43058D01*
X449458Y37199D01*
X451709Y31763D01*
X451744Y31702D01*
X451770Y31637D01*
X451822Y31564D01*
X451867Y31486D01*
X451916Y31436D01*
X451956Y31380D01*
X452026Y31322D01*
X452088Y31258D01*
X452148Y31221D01*
X452201Y31177D01*
X452283Y31139D01*
X452359Y31092D01*
X452426Y31071D01*
X452489Y31041D01*
X452577Y31024D01*
X452663Y30998D01*
X452733Y30995D01*
X452802Y30982D01*
X452891Y30987D01*
X452981Y30983D01*
X453049Y30997D01*
X453119Y31001D01*
X453204Y31029D01*
X453292Y31047D01*
X453355Y31078D01*
X453421Y31099D01*
X453497Y31147D01*
X453578Y31187D01*
X453631Y31232D01*
X453690Y31270D01*
X453752Y31335D01*
X453820Y31393D01*
X453860Y31450D01*
X453908Y31501D01*
X453951Y31580D01*
X454003Y31653D01*
X454028Y31719D01*
X454062Y31780D01*
X454084Y31866D01*
X454116Y31951D01*
X454124Y32020D01*
X454141Y32088D01*
X454151Y32248D01*
X454151Y513852D01*
X454143Y513921D01*
X454144Y513991D01*
X454123Y514078D01*
X454111Y514167D01*
X454086Y514232D01*
X454069Y514300D01*
X454027Y514380D01*
X453994Y514463D01*
X453953Y514519D01*
X453921Y514581D01*
X453860Y514648D01*
X453808Y514720D01*
X453754Y514765D01*
X453707Y514816D01*
X453632Y514866D01*
X453563Y514923D01*
X453499Y514953D01*
X453441Y514991D01*
X453356Y515020D01*
X453275Y515059D01*
X453206Y515072D01*
X453140Y515094D01*
X453051Y515102D01*
X452963Y515118D01*
X452893Y515114D01*
X452823Y515120D01*
X452735Y515104D01*
X452645Y515099D01*
X452579Y515077D01*
X452510Y515065D01*
X452428Y515028D01*
X452343Y515001D01*
X452284Y514963D01*
X452220Y514935D01*
X452150Y514879D01*
X452074Y514830D01*
X452026Y514780D01*
X451972Y514736D01*
X451917Y514664D01*
X451856Y514599D01*
X451822Y514538D01*
X451780Y514482D01*
X451709Y514337D01*
X449458Y508901D01*
X443599Y503042D01*
X435943Y499871D01*
X427657Y499871D01*
X420001Y503042D01*
X414142Y508901D01*
X410971Y516557D01*
X410971Y524843D01*
X414142Y532499D01*
X420001Y538358D01*
X425437Y540609D01*
X425498Y540644D01*
X425563Y540670D01*
X425636Y540722D01*
X425714Y540767D01*
X425764Y540816D01*
X425820Y540856D01*
X425878Y540926D01*
X425942Y540988D01*
X425979Y541048D01*
X426023Y541101D01*
X426061Y541183D01*
X426108Y541259D01*
X426129Y541326D01*
X426159Y541389D01*
X426176Y541477D01*
X426202Y541563D01*
X426205Y541633D01*
X426218Y541702D01*
X426213Y541791D01*
X426217Y541881D01*
X426203Y541949D01*
X426199Y542019D01*
X426171Y542104D01*
X426153Y542192D01*
X426122Y542255D01*
X426101Y542321D01*
X426053Y542397D01*
X426013Y542478D01*
X425968Y542531D01*
X425930Y542590D01*
X425865Y542652D01*
X425807Y542720D01*
X425750Y542760D01*
X425699Y542808D01*
X425620Y542851D01*
X425547Y542903D01*
X425481Y542928D01*
X425420Y542962D01*
X425334Y542984D01*
X425249Y543016D01*
X425180Y543024D01*
X425112Y543041D01*
X424952Y543051D01*
X32248Y543051D01*
X32179Y543043D01*
X32109Y543044D01*
X32022Y543023D01*
X31933Y543011D01*
X31868Y542986D01*
X31800Y542969D01*
X31720Y542927D01*
X31637Y542894D01*
X31581Y542853D01*
X31519Y542821D01*
X31452Y542760D01*
X31380Y542708D01*
X31335Y542654D01*
X31284Y542607D01*
X31234Y542532D01*
X31177Y542463D01*
X31147Y542399D01*
X31109Y542341D01*
X31080Y542256D01*
X31041Y542175D01*
X31028Y542106D01*
X31006Y542040D01*
X30998Y541951D01*
X30982Y541863D01*
X30986Y541793D01*
X30980Y541723D01*
X30996Y541635D01*
X31001Y541545D01*
X31023Y541479D01*
X31035Y541410D01*
X31072Y541328D01*
X31099Y541243D01*
X31137Y541184D01*
X31165Y541120D01*
X31221Y541050D01*
X31270Y540974D01*
X31320Y540926D01*
X31364Y540872D01*
X31436Y540817D01*
X31501Y540756D01*
X31562Y540722D01*
X31618Y540680D01*
X31763Y540609D01*
X37199Y538358D01*
X43058Y532499D01*
X46229Y524843D01*
X46229Y516557D01*
X43058Y508901D01*
X37199Y503042D01*
X29543Y499871D01*
X21257Y499871D01*
X13601Y503042D01*
X7742Y508901D01*
X5491Y514337D01*
X5456Y514398D01*
X5430Y514463D01*
X5378Y514536D01*
X5333Y514614D01*
X5284Y514664D01*
X5244Y514720D01*
X5174Y514778D01*
X5112Y514842D01*
X5052Y514879D01*
X4999Y514923D01*
X4917Y514961D01*
X4841Y515008D01*
X4774Y515029D01*
X4711Y515059D01*
X4623Y515076D01*
X4537Y515102D01*
X4467Y515105D01*
X4398Y515118D01*
X4309Y515113D01*
X4219Y515117D01*
X4151Y515103D01*
X4081Y515099D01*
X3996Y515071D01*
X3908Y515053D01*
X3845Y515022D01*
X3779Y515001D01*
X3703Y514953D01*
X3622Y514913D01*
X3569Y514868D01*
X3510Y514830D01*
X3448Y514765D01*
X3380Y514707D01*
X3340Y514650D01*
X3292Y514599D01*
X3249Y514520D01*
X3197Y514447D01*
X3172Y514381D01*
X3138Y514320D01*
X3116Y514234D01*
X3084Y514149D01*
X3076Y514080D01*
X3059Y514012D01*
X3049Y513852D01*
X3049Y32248D01*
X3057Y32179D01*
X3056Y32109D01*
X3077Y32022D01*
X3089Y31933D01*
X3114Y31868D01*
X3131Y31800D01*
X3173Y31720D01*
X3206Y31637D01*
X3247Y31581D01*
X3279Y31519D01*
X3340Y31452D01*
X3392Y31380D01*
X3446Y31335D01*
X3493Y31284D01*
X3568Y31234D01*
X3637Y31177D01*
X3701Y31147D01*
X3759Y31109D01*
X3844Y31080D01*
X3925Y31041D01*
X3994Y31028D01*
X4060Y31006D01*
X4149Y30998D01*
X4237Y30982D01*
X4307Y30986D01*
X4377Y30980D01*
X4465Y30996D01*
X4555Y31001D01*
X4621Y31023D01*
X4690Y31035D01*
X4772Y31072D01*
X4857Y31099D01*
X4916Y31137D01*
X4980Y31165D01*
X5050Y31221D01*
X5126Y31270D01*
X5174Y31320D01*
X5228Y31364D01*
X5283Y31436D01*
X5344Y31501D01*
X5378Y31562D01*
X5420Y31618D01*
X5491Y31763D01*
X7742Y37199D01*
X13601Y43058D01*
X21257Y46229D01*
X29543Y46229D01*
X37199Y43058D01*
X43058Y37199D01*
X46229Y29543D01*
X46229Y21257D01*
X43058Y13601D01*
X37199Y7742D01*
X31763Y5491D01*
X31702Y5456D01*
X31637Y5430D01*
X31564Y5378D01*
X31486Y5333D01*
X31436Y5284D01*
X31380Y5244D01*
X31322Y5174D01*
X31258Y5112D01*
X31221Y5052D01*
X31177Y4999D01*
X31139Y4917D01*
X31092Y4841D01*
X31071Y4774D01*
X31041Y4711D01*
X31024Y4623D01*
X30998Y4537D01*
X30995Y4467D01*
X30982Y4398D01*
X30987Y4309D01*
X30983Y4219D01*
X30997Y4151D01*
X31001Y4081D01*
X31029Y3996D01*
X31047Y3908D01*
X31078Y3845D01*
X31099Y3779D01*
X31147Y3703D01*
X31187Y3622D01*
X31232Y3569D01*
X31270Y3510D01*
X31335Y3448D01*
X31393Y3380D01*
X31450Y3340D01*
X31501Y3292D01*
X31580Y3249D01*
X31653Y3197D01*
X31719Y3172D01*
X31780Y3138D01*
X31866Y3116D01*
X31951Y3084D01*
X32020Y3076D01*
X32088Y3059D01*
X32248Y3049D01*
X186634Y3049D01*
X186663Y3052D01*
G37*
%LPC*%
G36*
X169766Y153415D02*
X169766Y153415D01*
X167385Y155796D01*
X167385Y159164D01*
X169766Y161545D01*
X173134Y161545D01*
X174286Y160392D01*
X174364Y160332D01*
X174436Y160264D01*
X174489Y160235D01*
X174537Y160198D01*
X174628Y160158D01*
X174715Y160110D01*
X174773Y160095D01*
X174829Y160071D01*
X174927Y160056D01*
X175023Y160031D01*
X175123Y160025D01*
X175143Y160021D01*
X175155Y160023D01*
X175183Y160021D01*
X290830Y160021D01*
X290948Y160036D01*
X291067Y160043D01*
X291105Y160056D01*
X291146Y160061D01*
X291256Y160104D01*
X291369Y160141D01*
X291404Y160163D01*
X291441Y160178D01*
X291537Y160247D01*
X291638Y160311D01*
X291666Y160341D01*
X291699Y160364D01*
X291775Y160456D01*
X291856Y160543D01*
X291876Y160578D01*
X291901Y160609D01*
X291952Y160717D01*
X292010Y160821D01*
X292020Y160861D01*
X292037Y160897D01*
X292059Y161014D01*
X292089Y161129D01*
X292093Y161189D01*
X292097Y161209D01*
X292095Y161230D01*
X292099Y161290D01*
X292099Y165177D01*
X292082Y165314D01*
X292069Y165453D01*
X292062Y165472D01*
X292059Y165492D01*
X292008Y165621D01*
X291961Y165752D01*
X291950Y165769D01*
X291942Y165788D01*
X291861Y165900D01*
X291783Y166015D01*
X291767Y166029D01*
X291756Y166045D01*
X291648Y166134D01*
X291544Y166226D01*
X291526Y166235D01*
X291511Y166248D01*
X291385Y166307D01*
X291261Y166370D01*
X291241Y166375D01*
X291223Y166384D01*
X291087Y166410D01*
X290951Y166440D01*
X290930Y166440D01*
X290911Y166443D01*
X290772Y166435D01*
X290633Y166430D01*
X290613Y166425D01*
X290593Y166424D01*
X290461Y166381D01*
X290327Y166342D01*
X290310Y166332D01*
X290291Y166326D01*
X290173Y166251D01*
X290053Y166181D01*
X290032Y166162D01*
X290022Y166155D01*
X290008Y166140D01*
X289933Y166074D01*
X287434Y163575D01*
X284066Y163575D01*
X282914Y164728D01*
X282836Y164788D01*
X282764Y164856D01*
X282711Y164885D01*
X282663Y164922D01*
X282572Y164962D01*
X282485Y165010D01*
X282427Y165025D01*
X282371Y165049D01*
X282273Y165064D01*
X282177Y165089D01*
X282077Y165095D01*
X282057Y165099D01*
X282045Y165097D01*
X282017Y165099D01*
X181533Y165099D01*
X181435Y165087D01*
X181336Y165084D01*
X181278Y165067D01*
X181218Y165059D01*
X181126Y165023D01*
X181031Y164995D01*
X180979Y164965D01*
X180922Y164942D01*
X180842Y164884D01*
X180757Y164834D01*
X180681Y164768D01*
X180665Y164756D01*
X180657Y164746D01*
X180636Y164728D01*
X179484Y163575D01*
X176116Y163575D01*
X173735Y165956D01*
X173735Y169324D01*
X176116Y171705D01*
X179484Y171705D01*
X180636Y170552D01*
X180714Y170492D01*
X180786Y170424D01*
X180839Y170395D01*
X180887Y170358D01*
X180978Y170318D01*
X181065Y170270D01*
X181123Y170255D01*
X181179Y170231D01*
X181277Y170216D01*
X181373Y170191D01*
X181473Y170185D01*
X181493Y170181D01*
X181505Y170183D01*
X181533Y170181D01*
X282017Y170181D01*
X282071Y170188D01*
X282125Y170185D01*
X282228Y170207D01*
X282332Y170221D01*
X282383Y170241D01*
X282436Y170252D01*
X282584Y170315D01*
X282605Y170329D01*
X282628Y170338D01*
X282737Y170417D01*
X282849Y170492D01*
X282865Y170510D01*
X282885Y170524D01*
X282971Y170628D01*
X283061Y170728D01*
X283072Y170750D01*
X283088Y170769D01*
X283145Y170891D01*
X283207Y171011D01*
X283213Y171035D01*
X283224Y171057D01*
X283249Y171189D01*
X283279Y171320D01*
X283279Y171345D01*
X283283Y171370D01*
X283275Y171504D01*
X283272Y171638D01*
X283265Y171662D01*
X283264Y171687D01*
X283222Y171815D01*
X283186Y171944D01*
X283173Y171966D01*
X283166Y171989D01*
X283094Y172103D01*
X283026Y172220D01*
X283009Y172237D01*
X282995Y172258D01*
X282897Y172350D01*
X282803Y172446D01*
X282782Y172459D01*
X282764Y172476D01*
X282646Y172541D01*
X282531Y172611D01*
X282507Y172618D01*
X282485Y172630D01*
X282355Y172663D01*
X282226Y172702D01*
X282201Y172703D01*
X282177Y172709D01*
X282017Y172719D01*
X189448Y172719D01*
X185419Y176748D01*
X185419Y190577D01*
X185407Y190675D01*
X185404Y190774D01*
X185387Y190832D01*
X185379Y190892D01*
X185343Y190984D01*
X185315Y191079D01*
X185285Y191131D01*
X185262Y191188D01*
X185204Y191268D01*
X185154Y191353D01*
X185088Y191429D01*
X185076Y191445D01*
X185066Y191453D01*
X185048Y191474D01*
X183895Y192626D01*
X183895Y195994D01*
X186276Y198375D01*
X189644Y198375D01*
X192025Y195994D01*
X192025Y192626D01*
X190872Y191474D01*
X190812Y191396D01*
X190744Y191324D01*
X190715Y191271D01*
X190678Y191223D01*
X190638Y191132D01*
X190590Y191045D01*
X190575Y190987D01*
X190551Y190931D01*
X190536Y190833D01*
X190511Y190737D01*
X190505Y190637D01*
X190501Y190617D01*
X190503Y190605D01*
X190501Y190577D01*
X190501Y179378D01*
X190513Y179280D01*
X190516Y179181D01*
X190533Y179123D01*
X190541Y179063D01*
X190577Y178971D01*
X190605Y178875D01*
X190635Y178823D01*
X190658Y178767D01*
X190716Y178687D01*
X190766Y178602D01*
X190832Y178526D01*
X190844Y178510D01*
X190854Y178502D01*
X190872Y178481D01*
X191181Y178172D01*
X191259Y178112D01*
X191331Y178044D01*
X191384Y178015D01*
X191432Y177978D01*
X191523Y177938D01*
X191610Y177890D01*
X191668Y177875D01*
X191724Y177851D01*
X191822Y177836D01*
X191917Y177811D01*
X192018Y177805D01*
X192038Y177801D01*
X192050Y177803D01*
X192078Y177801D01*
X284557Y177801D01*
X284655Y177813D01*
X284754Y177816D01*
X284812Y177833D01*
X284872Y177841D01*
X284964Y177877D01*
X285059Y177905D01*
X285111Y177935D01*
X285168Y177958D01*
X285248Y178016D01*
X285333Y178066D01*
X285409Y178132D01*
X285425Y178144D01*
X285433Y178154D01*
X285454Y178172D01*
X286606Y179325D01*
X289986Y179325D01*
X290042Y179281D01*
X290149Y179192D01*
X290168Y179183D01*
X290184Y179171D01*
X290312Y179116D01*
X290437Y179056D01*
X290457Y179053D01*
X290476Y179045D01*
X290613Y179023D01*
X290750Y178997D01*
X290770Y178998D01*
X290790Y178995D01*
X290928Y179008D01*
X291067Y179016D01*
X291086Y179023D01*
X291106Y179025D01*
X291237Y179072D01*
X291369Y179114D01*
X291387Y179125D01*
X291406Y179132D01*
X291521Y179210D01*
X291638Y179285D01*
X291652Y179299D01*
X291669Y179311D01*
X291760Y179414D01*
X291856Y179516D01*
X291866Y179534D01*
X291879Y179549D01*
X291943Y179673D01*
X292010Y179795D01*
X292015Y179814D01*
X292024Y179832D01*
X292054Y179969D01*
X292089Y180103D01*
X292091Y180131D01*
X292094Y180143D01*
X292093Y180163D01*
X292099Y180263D01*
X292099Y219492D01*
X293959Y221352D01*
X296499Y223893D01*
X296585Y224002D01*
X296673Y224109D01*
X296682Y224128D01*
X296694Y224144D01*
X296750Y224272D01*
X296809Y224397D01*
X296813Y224417D01*
X296821Y224436D01*
X296843Y224574D01*
X296869Y224710D01*
X296867Y224730D01*
X296871Y224750D01*
X296857Y224889D01*
X296849Y225027D01*
X296843Y225046D01*
X296841Y225066D01*
X296794Y225198D01*
X296751Y225329D01*
X296740Y225347D01*
X296733Y225366D01*
X296655Y225481D01*
X296581Y225598D01*
X296566Y225612D01*
X296555Y225629D01*
X296450Y225721D01*
X296349Y225816D01*
X296331Y225826D01*
X296316Y225839D01*
X296192Y225903D01*
X296071Y225970D01*
X296051Y225975D01*
X296033Y225984D01*
X295897Y226014D01*
X295763Y226049D01*
X295735Y226051D01*
X295723Y226054D01*
X295702Y226053D01*
X295602Y226059D01*
X293678Y226059D01*
X293580Y226047D01*
X293481Y226044D01*
X293423Y226027D01*
X293363Y226019D01*
X293271Y225983D01*
X293175Y225955D01*
X293123Y225925D01*
X293067Y225902D01*
X292987Y225844D01*
X292901Y225794D01*
X292826Y225728D01*
X292810Y225716D01*
X292802Y225706D01*
X292781Y225688D01*
X281042Y213949D01*
X279182Y212089D01*
X264795Y212089D01*
X264677Y212074D01*
X264558Y212067D01*
X264520Y212054D01*
X264479Y212049D01*
X264369Y212006D01*
X264256Y211969D01*
X264221Y211947D01*
X264184Y211932D01*
X264088Y211863D01*
X263987Y211799D01*
X263959Y211769D01*
X263926Y211746D01*
X263850Y211654D01*
X263769Y211567D01*
X263749Y211532D01*
X263724Y211501D01*
X263673Y211393D01*
X263615Y211289D01*
X263605Y211249D01*
X263588Y211213D01*
X263566Y211096D01*
X263536Y210981D01*
X263532Y210921D01*
X263528Y210901D01*
X263530Y210880D01*
X263526Y210820D01*
X263526Y197331D01*
X262038Y195843D01*
X249709Y183514D01*
X237971Y183514D01*
X236854Y184631D01*
X236854Y209550D01*
X236839Y209668D01*
X236832Y209787D01*
X236819Y209825D01*
X236814Y209866D01*
X236771Y209976D01*
X236734Y210089D01*
X236712Y210124D01*
X236697Y210161D01*
X236628Y210257D01*
X236564Y210358D01*
X236534Y210386D01*
X236511Y210419D01*
X236419Y210495D01*
X236332Y210576D01*
X236297Y210596D01*
X236266Y210621D01*
X236158Y210672D01*
X236054Y210730D01*
X236014Y210740D01*
X235978Y210757D01*
X235861Y210779D01*
X235746Y210809D01*
X235686Y210813D01*
X235666Y210817D01*
X235645Y210815D01*
X235585Y210819D01*
X86491Y210819D01*
X86462Y210816D01*
X86433Y210818D01*
X86305Y210796D01*
X86176Y210779D01*
X86148Y210769D01*
X86119Y210763D01*
X86001Y210710D01*
X85880Y210662D01*
X85856Y210645D01*
X85829Y210633D01*
X85728Y210552D01*
X85623Y210476D01*
X85604Y210453D01*
X85581Y210434D01*
X85503Y210331D01*
X85420Y210231D01*
X85407Y210204D01*
X85390Y210180D01*
X85319Y210036D01*
X85245Y209857D01*
X82243Y206855D01*
X78322Y205231D01*
X74078Y205231D01*
X70157Y206855D01*
X67155Y209857D01*
X65531Y213778D01*
X65531Y218022D01*
X67155Y221943D01*
X70157Y224945D01*
X74078Y226569D01*
X78322Y226569D01*
X82243Y224945D01*
X85245Y221943D01*
X85319Y221764D01*
X85333Y221739D01*
X85342Y221711D01*
X85412Y221601D01*
X85476Y221488D01*
X85497Y221467D01*
X85513Y221442D01*
X85607Y221353D01*
X85697Y221260D01*
X85723Y221244D01*
X85744Y221224D01*
X85858Y221161D01*
X85969Y221093D01*
X85997Y221085D01*
X86023Y221070D01*
X86148Y221038D01*
X86273Y221000D01*
X86302Y220998D01*
X86331Y220991D01*
X86491Y220981D01*
X235585Y220981D01*
X235703Y220996D01*
X235822Y221003D01*
X235860Y221016D01*
X235901Y221021D01*
X236011Y221064D01*
X236124Y221101D01*
X236159Y221123D01*
X236196Y221138D01*
X236292Y221207D01*
X236393Y221271D01*
X236421Y221301D01*
X236454Y221324D01*
X236530Y221416D01*
X236611Y221503D01*
X236631Y221538D01*
X236656Y221569D01*
X236707Y221677D01*
X236765Y221781D01*
X236775Y221821D01*
X236792Y221857D01*
X236814Y221974D01*
X236844Y222089D01*
X236848Y222149D01*
X236852Y222169D01*
X236850Y222190D01*
X236854Y222250D01*
X236854Y225579D01*
X237971Y226696D01*
X262409Y226696D01*
X263526Y225579D01*
X263526Y218440D01*
X263541Y218322D01*
X263548Y218203D01*
X263561Y218165D01*
X263566Y218124D01*
X263609Y218014D01*
X263646Y217901D01*
X263668Y217866D01*
X263683Y217829D01*
X263752Y217733D01*
X263816Y217632D01*
X263846Y217604D01*
X263869Y217571D01*
X263961Y217495D01*
X264048Y217414D01*
X264083Y217394D01*
X264114Y217369D01*
X264222Y217318D01*
X264326Y217260D01*
X264366Y217250D01*
X264402Y217233D01*
X264519Y217211D01*
X264634Y217181D01*
X264694Y217177D01*
X264714Y217173D01*
X264735Y217175D01*
X264795Y217171D01*
X276552Y217171D01*
X276650Y217183D01*
X276749Y217186D01*
X276807Y217203D01*
X276867Y217211D01*
X276959Y217247D01*
X277055Y217275D01*
X277107Y217305D01*
X277163Y217328D01*
X277243Y217386D01*
X277328Y217436D01*
X277404Y217502D01*
X277420Y217514D01*
X277428Y217524D01*
X277449Y217542D01*
X289188Y229281D01*
X291048Y231141D01*
X308687Y231141D01*
X308825Y231158D01*
X308963Y231171D01*
X308982Y231178D01*
X309002Y231181D01*
X309131Y231232D01*
X309262Y231279D01*
X309279Y231290D01*
X309298Y231298D01*
X309410Y231379D01*
X309525Y231457D01*
X309539Y231473D01*
X309555Y231484D01*
X309644Y231592D01*
X309736Y231696D01*
X309745Y231714D01*
X309758Y231729D01*
X309817Y231855D01*
X309881Y231979D01*
X309885Y231999D01*
X309894Y232017D01*
X309920Y232153D01*
X309950Y232289D01*
X309950Y232310D01*
X309953Y232329D01*
X309945Y232468D01*
X309940Y232607D01*
X309935Y232627D01*
X309934Y232647D01*
X309891Y232779D01*
X309852Y232913D01*
X309842Y232930D01*
X309836Y232949D01*
X309761Y233067D01*
X309690Y233187D01*
X309672Y233208D01*
X309665Y233218D01*
X309650Y233232D01*
X309625Y233261D01*
X309625Y236634D01*
X312006Y239015D01*
X315374Y239015D01*
X317755Y236634D01*
X317755Y233254D01*
X317711Y233198D01*
X317622Y233091D01*
X317613Y233072D01*
X317601Y233056D01*
X317546Y232928D01*
X317486Y232803D01*
X317483Y232783D01*
X317475Y232764D01*
X317453Y232627D01*
X317427Y232490D01*
X317428Y232470D01*
X317425Y232450D01*
X317438Y232312D01*
X317446Y232173D01*
X317453Y232154D01*
X317455Y232134D01*
X317502Y232003D01*
X317544Y231871D01*
X317555Y231853D01*
X317562Y231834D01*
X317640Y231719D01*
X317715Y231602D01*
X317729Y231588D01*
X317741Y231571D01*
X317845Y231479D01*
X317946Y231384D01*
X317964Y231374D01*
X317979Y231361D01*
X318103Y231297D01*
X318225Y231230D01*
X318244Y231225D01*
X318262Y231216D01*
X318399Y231186D01*
X318533Y231151D01*
X318561Y231149D01*
X318573Y231146D01*
X318593Y231147D01*
X318693Y231141D01*
X322272Y231141D01*
X322370Y231153D01*
X322469Y231156D01*
X322527Y231173D01*
X322587Y231181D01*
X322679Y231217D01*
X322775Y231245D01*
X322827Y231275D01*
X322883Y231298D01*
X322963Y231356D01*
X323048Y231406D01*
X323124Y231472D01*
X323140Y231484D01*
X323148Y231494D01*
X323169Y231512D01*
X325764Y234107D01*
X325824Y234185D01*
X325892Y234257D01*
X325921Y234310D01*
X325958Y234358D01*
X325998Y234449D01*
X326046Y234536D01*
X326061Y234594D01*
X326085Y234650D01*
X326100Y234748D01*
X326125Y234843D01*
X326131Y234944D01*
X326135Y234964D01*
X326133Y234976D01*
X326135Y235004D01*
X326135Y236634D01*
X328516Y239015D01*
X331884Y239015D01*
X334265Y236634D01*
X334265Y233266D01*
X331884Y230885D01*
X330254Y230885D01*
X330156Y230873D01*
X330057Y230870D01*
X329999Y230853D01*
X329939Y230845D01*
X329847Y230809D01*
X329751Y230781D01*
X329699Y230751D01*
X329643Y230728D01*
X329563Y230670D01*
X329478Y230620D01*
X329402Y230554D01*
X329386Y230542D01*
X329378Y230532D01*
X329357Y230514D01*
X326762Y227919D01*
X325801Y226957D01*
X325716Y226848D01*
X325627Y226741D01*
X325618Y226722D01*
X325606Y226706D01*
X325550Y226579D01*
X325491Y226453D01*
X325487Y226433D01*
X325479Y226414D01*
X325457Y226276D01*
X325431Y226140D01*
X325433Y226120D01*
X325429Y226100D01*
X325443Y225961D01*
X325451Y225823D01*
X325457Y225804D01*
X325459Y225784D01*
X325506Y225652D01*
X325549Y225521D01*
X325560Y225503D01*
X325567Y225484D01*
X325645Y225369D01*
X325719Y225252D01*
X325734Y225238D01*
X325745Y225221D01*
X325850Y225129D01*
X325951Y225034D01*
X325969Y225024D01*
X325984Y225011D01*
X326108Y224948D01*
X326229Y224880D01*
X326249Y224875D01*
X326267Y224866D01*
X326403Y224836D01*
X326537Y224801D01*
X326565Y224799D01*
X326577Y224796D01*
X326598Y224797D01*
X326698Y224791D01*
X360372Y224791D01*
X360470Y224803D01*
X360569Y224806D01*
X360627Y224823D01*
X360687Y224831D01*
X360779Y224867D01*
X360875Y224895D01*
X360927Y224925D01*
X360983Y224948D01*
X361063Y225006D01*
X361148Y225056D01*
X361224Y225122D01*
X361240Y225134D01*
X361248Y225144D01*
X361269Y225162D01*
X371182Y235076D01*
X371201Y235099D01*
X371223Y235118D01*
X371298Y235224D01*
X371377Y235327D01*
X371389Y235354D01*
X371406Y235378D01*
X371452Y235499D01*
X371504Y235619D01*
X371508Y235648D01*
X371519Y235675D01*
X371533Y235804D01*
X371554Y235933D01*
X371551Y235962D01*
X371554Y235992D01*
X371536Y236120D01*
X371524Y236249D01*
X371514Y236277D01*
X371510Y236306D01*
X371458Y236459D01*
X370331Y239178D01*
X370331Y243422D01*
X371955Y247343D01*
X374957Y250345D01*
X378878Y251969D01*
X383122Y251969D01*
X387043Y250345D01*
X390045Y247343D01*
X391669Y243422D01*
X391669Y239178D01*
X390045Y235257D01*
X387043Y232255D01*
X383122Y230631D01*
X378878Y230631D01*
X376159Y231758D01*
X376130Y231765D01*
X376104Y231779D01*
X375977Y231807D01*
X375852Y231841D01*
X375823Y231842D01*
X375794Y231848D01*
X375664Y231844D01*
X375534Y231847D01*
X375505Y231840D01*
X375476Y231839D01*
X375351Y231803D01*
X375225Y231772D01*
X375199Y231759D01*
X375170Y231750D01*
X375059Y231685D01*
X374944Y231624D01*
X374922Y231604D01*
X374896Y231589D01*
X374776Y231482D01*
X364862Y221569D01*
X363002Y219709D01*
X361873Y219709D01*
X361735Y219692D01*
X361597Y219679D01*
X361578Y219672D01*
X361558Y219669D01*
X361429Y219618D01*
X361298Y219571D01*
X361281Y219560D01*
X361262Y219552D01*
X361150Y219471D01*
X361035Y219393D01*
X361021Y219377D01*
X361005Y219366D01*
X360916Y219258D01*
X360824Y219154D01*
X360815Y219136D01*
X360802Y219121D01*
X360743Y218995D01*
X360680Y218871D01*
X360675Y218851D01*
X360666Y218833D01*
X360640Y218696D01*
X360610Y218561D01*
X360610Y218540D01*
X360607Y218521D01*
X360615Y218382D01*
X360620Y218243D01*
X360625Y218223D01*
X360626Y218203D01*
X360669Y218071D01*
X360708Y217937D01*
X360718Y217920D01*
X360724Y217901D01*
X360799Y217783D01*
X360869Y217663D01*
X360888Y217642D01*
X360895Y217632D01*
X360910Y217618D01*
X360976Y217543D01*
X362205Y216314D01*
X362205Y212946D01*
X359824Y210565D01*
X356456Y210565D01*
X355304Y211718D01*
X355226Y211778D01*
X355154Y211846D01*
X355101Y211875D01*
X355053Y211912D01*
X354962Y211952D01*
X354875Y212000D01*
X354817Y212015D01*
X354761Y212039D01*
X354663Y212054D01*
X354567Y212079D01*
X354467Y212085D01*
X354447Y212089D01*
X354435Y212087D01*
X354407Y212089D01*
X307263Y212089D01*
X307165Y212077D01*
X307066Y212074D01*
X307008Y212057D01*
X306948Y212049D01*
X306856Y212013D01*
X306761Y211985D01*
X306709Y211955D01*
X306652Y211932D01*
X306572Y211874D01*
X306487Y211824D01*
X306411Y211758D01*
X306395Y211746D01*
X306387Y211736D01*
X306366Y211718D01*
X305214Y210565D01*
X301846Y210565D01*
X299347Y213064D01*
X299238Y213149D01*
X299131Y213238D01*
X299112Y213247D01*
X299096Y213259D01*
X298968Y213315D01*
X298843Y213374D01*
X298823Y213377D01*
X298804Y213385D01*
X298666Y213407D01*
X298530Y213433D01*
X298510Y213432D01*
X298490Y213435D01*
X298351Y213422D01*
X298213Y213414D01*
X298194Y213407D01*
X298174Y213405D01*
X298042Y213358D01*
X297911Y213316D01*
X297893Y213305D01*
X297874Y213298D01*
X297759Y213220D01*
X297642Y213145D01*
X297628Y213131D01*
X297611Y213119D01*
X297519Y213015D01*
X297424Y212914D01*
X297414Y212896D01*
X297401Y212881D01*
X297337Y212757D01*
X297270Y212635D01*
X297265Y212616D01*
X297256Y212598D01*
X297226Y212462D01*
X297191Y212327D01*
X297189Y212299D01*
X297186Y212287D01*
X297187Y212267D01*
X297181Y212167D01*
X297181Y161213D01*
X297193Y161115D01*
X297196Y161016D01*
X297213Y160958D01*
X297221Y160898D01*
X297257Y160806D01*
X297285Y160711D01*
X297315Y160659D01*
X297338Y160602D01*
X297396Y160522D01*
X297446Y160437D01*
X297512Y160361D01*
X297524Y160345D01*
X297534Y160337D01*
X297552Y160316D01*
X298705Y159164D01*
X298705Y155796D01*
X296324Y153415D01*
X292956Y153415D01*
X291804Y154568D01*
X291726Y154628D01*
X291654Y154696D01*
X291601Y154725D01*
X291553Y154762D01*
X291462Y154802D01*
X291375Y154850D01*
X291317Y154865D01*
X291261Y154889D01*
X291163Y154904D01*
X291067Y154929D01*
X290967Y154935D01*
X290947Y154939D01*
X290935Y154937D01*
X290907Y154939D01*
X175183Y154939D01*
X175085Y154927D01*
X174986Y154924D01*
X174928Y154907D01*
X174868Y154899D01*
X174776Y154863D01*
X174681Y154835D01*
X174629Y154805D01*
X174572Y154782D01*
X174492Y154724D01*
X174407Y154674D01*
X174331Y154608D01*
X174315Y154596D01*
X174307Y154586D01*
X174286Y154568D01*
X173134Y153415D01*
X169766Y153415D01*
G37*
%LPD*%
%LPC*%
G36*
X188816Y307085D02*
X188816Y307085D01*
X186435Y309466D01*
X186435Y312834D01*
X187588Y313986D01*
X187648Y314064D01*
X187716Y314136D01*
X187745Y314189D01*
X187782Y314237D01*
X187822Y314328D01*
X187870Y314415D01*
X187885Y314473D01*
X187909Y314529D01*
X187924Y314627D01*
X187949Y314723D01*
X187955Y314823D01*
X187959Y314843D01*
X187957Y314855D01*
X187959Y314883D01*
X187959Y321002D01*
X187947Y321100D01*
X187944Y321199D01*
X187927Y321257D01*
X187919Y321317D01*
X187883Y321409D01*
X187855Y321505D01*
X187825Y321557D01*
X187802Y321613D01*
X187744Y321693D01*
X187694Y321778D01*
X187628Y321854D01*
X187616Y321870D01*
X187606Y321878D01*
X187588Y321899D01*
X179659Y329828D01*
X179581Y329888D01*
X179509Y329956D01*
X179456Y329985D01*
X179408Y330022D01*
X179317Y330062D01*
X179230Y330110D01*
X179172Y330125D01*
X179116Y330149D01*
X179018Y330164D01*
X178923Y330189D01*
X178822Y330195D01*
X178802Y330199D01*
X178790Y330197D01*
X178762Y330199D01*
X85308Y330199D01*
X82424Y333082D01*
X82401Y333101D01*
X82382Y333123D01*
X82276Y333198D01*
X82173Y333277D01*
X82146Y333289D01*
X82122Y333306D01*
X82001Y333352D01*
X81881Y333404D01*
X81852Y333408D01*
X81825Y333419D01*
X81696Y333433D01*
X81567Y333454D01*
X81538Y333451D01*
X81508Y333454D01*
X81380Y333436D01*
X81251Y333424D01*
X81223Y333414D01*
X81194Y333410D01*
X81041Y333358D01*
X78322Y332231D01*
X74078Y332231D01*
X70157Y333855D01*
X67155Y336857D01*
X65531Y340778D01*
X65531Y345022D01*
X67155Y348943D01*
X69105Y350893D01*
X69190Y351002D01*
X69279Y351109D01*
X69287Y351128D01*
X69300Y351144D01*
X69355Y351272D01*
X69414Y351397D01*
X69418Y351417D01*
X69426Y351436D01*
X69448Y351574D01*
X69474Y351710D01*
X69473Y351730D01*
X69476Y351750D01*
X69463Y351889D01*
X69454Y352027D01*
X69448Y352046D01*
X69446Y352066D01*
X69399Y352198D01*
X69356Y352329D01*
X69345Y352347D01*
X69338Y352366D01*
X69260Y352481D01*
X69186Y352598D01*
X69171Y352612D01*
X69160Y352629D01*
X69056Y352721D01*
X68954Y352816D01*
X68937Y352826D01*
X68921Y352839D01*
X68797Y352903D01*
X68676Y352970D01*
X68656Y352975D01*
X68638Y352984D01*
X68502Y353014D01*
X68368Y353049D01*
X68340Y353051D01*
X68328Y353054D01*
X68307Y353053D01*
X68207Y353059D01*
X24384Y353059D01*
X24266Y353044D01*
X24147Y353037D01*
X24109Y353024D01*
X24068Y353019D01*
X23958Y352976D01*
X23845Y352939D01*
X23810Y352917D01*
X23773Y352902D01*
X23677Y352833D01*
X23576Y352769D01*
X23548Y352739D01*
X23515Y352716D01*
X23439Y352624D01*
X23358Y352537D01*
X23338Y352502D01*
X23313Y352471D01*
X23262Y352363D01*
X23204Y352259D01*
X23194Y352219D01*
X23177Y352183D01*
X23155Y352066D01*
X23125Y351951D01*
X23121Y351891D01*
X23117Y351871D01*
X23119Y351850D01*
X23115Y351790D01*
X23115Y351376D01*
X20734Y348995D01*
X17366Y348995D01*
X14985Y351376D01*
X14985Y354744D01*
X17366Y357125D01*
X18996Y357125D01*
X19094Y357137D01*
X19193Y357140D01*
X19251Y357157D01*
X19311Y357165D01*
X19403Y357201D01*
X19499Y357229D01*
X19551Y357259D01*
X19607Y357282D01*
X19687Y357340D01*
X19772Y357390D01*
X19848Y357456D01*
X19864Y357468D01*
X19872Y357478D01*
X19893Y357496D01*
X20538Y358141D01*
X68207Y358141D01*
X68345Y358158D01*
X68484Y358171D01*
X68503Y358178D01*
X68523Y358181D01*
X68652Y358232D01*
X68783Y358279D01*
X68800Y358290D01*
X68818Y358298D01*
X68931Y358379D01*
X69046Y358457D01*
X69059Y358473D01*
X69076Y358484D01*
X69165Y358592D01*
X69256Y358696D01*
X69266Y358714D01*
X69279Y358729D01*
X69338Y358855D01*
X69401Y358979D01*
X69405Y358999D01*
X69414Y359017D01*
X69440Y359153D01*
X69471Y359289D01*
X69470Y359310D01*
X69474Y359329D01*
X69465Y359468D01*
X69461Y359607D01*
X69455Y359627D01*
X69454Y359647D01*
X69411Y359779D01*
X69373Y359913D01*
X69362Y359930D01*
X69356Y359949D01*
X69281Y360067D01*
X69211Y360187D01*
X69193Y360208D01*
X69186Y360218D01*
X69171Y360232D01*
X69105Y360307D01*
X67155Y362257D01*
X65531Y366178D01*
X65531Y370422D01*
X67155Y374343D01*
X70157Y377345D01*
X74078Y378969D01*
X78322Y378969D01*
X82243Y377345D01*
X85245Y374343D01*
X86869Y370422D01*
X86869Y366178D01*
X85245Y362257D01*
X83295Y360307D01*
X83210Y360198D01*
X83121Y360091D01*
X83113Y360072D01*
X83100Y360056D01*
X83045Y359928D01*
X82986Y359803D01*
X82982Y359783D01*
X82974Y359764D01*
X82952Y359626D01*
X82926Y359490D01*
X82927Y359470D01*
X82924Y359450D01*
X82937Y359311D01*
X82946Y359173D01*
X82952Y359154D01*
X82954Y359134D01*
X83001Y359002D01*
X83044Y358871D01*
X83055Y358853D01*
X83062Y358834D01*
X83140Y358719D01*
X83214Y358602D01*
X83229Y358588D01*
X83240Y358571D01*
X83344Y358479D01*
X83446Y358384D01*
X83463Y358374D01*
X83479Y358361D01*
X83603Y358297D01*
X83724Y358230D01*
X83744Y358225D01*
X83762Y358216D01*
X83898Y358186D01*
X84032Y358151D01*
X84060Y358149D01*
X84072Y358146D01*
X84093Y358147D01*
X84193Y358141D01*
X174067Y358141D01*
X174165Y358153D01*
X174264Y358156D01*
X174322Y358173D01*
X174382Y358181D01*
X174474Y358217D01*
X174569Y358245D01*
X174621Y358275D01*
X174678Y358298D01*
X174758Y358356D01*
X174843Y358406D01*
X174919Y358472D01*
X174935Y358484D01*
X174943Y358494D01*
X174964Y358512D01*
X176116Y359665D01*
X179484Y359665D01*
X181865Y357284D01*
X181865Y353916D01*
X179484Y351535D01*
X176116Y351535D01*
X174964Y352688D01*
X174886Y352748D01*
X174814Y352816D01*
X174761Y352845D01*
X174713Y352882D01*
X174622Y352922D01*
X174535Y352970D01*
X174477Y352985D01*
X174421Y353009D01*
X174323Y353024D01*
X174227Y353049D01*
X174127Y353055D01*
X174107Y353059D01*
X174095Y353057D01*
X174067Y353059D01*
X84193Y353059D01*
X84055Y353042D01*
X83916Y353029D01*
X83897Y353022D01*
X83877Y353019D01*
X83748Y352968D01*
X83617Y352921D01*
X83600Y352910D01*
X83582Y352902D01*
X83469Y352821D01*
X83354Y352743D01*
X83341Y352727D01*
X83324Y352716D01*
X83235Y352608D01*
X83144Y352504D01*
X83134Y352486D01*
X83121Y352471D01*
X83062Y352345D01*
X82999Y352221D01*
X82995Y352201D01*
X82986Y352183D01*
X82960Y352047D01*
X82929Y351911D01*
X82930Y351890D01*
X82926Y351871D01*
X82935Y351732D01*
X82939Y351593D01*
X82945Y351573D01*
X82946Y351553D01*
X82989Y351421D01*
X83027Y351287D01*
X83038Y351270D01*
X83044Y351251D01*
X83119Y351133D01*
X83189Y351013D01*
X83207Y350992D01*
X83214Y350982D01*
X83229Y350968D01*
X83295Y350893D01*
X85245Y348943D01*
X86869Y345022D01*
X86869Y340778D01*
X85742Y338059D01*
X85735Y338030D01*
X85721Y338004D01*
X85693Y337877D01*
X85659Y337752D01*
X85658Y337722D01*
X85652Y337694D01*
X85656Y337564D01*
X85653Y337434D01*
X85660Y337405D01*
X85661Y337376D01*
X85697Y337251D01*
X85728Y337125D01*
X85741Y337099D01*
X85750Y337070D01*
X85816Y336958D01*
X85876Y336844D01*
X85896Y336822D01*
X85911Y336796D01*
X86018Y336676D01*
X87041Y335652D01*
X87119Y335592D01*
X87191Y335524D01*
X87244Y335495D01*
X87292Y335458D01*
X87383Y335418D01*
X87470Y335370D01*
X87528Y335355D01*
X87584Y335331D01*
X87682Y335316D01*
X87777Y335291D01*
X87878Y335285D01*
X87898Y335281D01*
X87910Y335283D01*
X87938Y335281D01*
X181392Y335281D01*
X193041Y323632D01*
X193041Y314883D01*
X193053Y314785D01*
X193056Y314686D01*
X193073Y314628D01*
X193081Y314568D01*
X193117Y314476D01*
X193145Y314381D01*
X193175Y314329D01*
X193198Y314272D01*
X193256Y314192D01*
X193306Y314107D01*
X193372Y314031D01*
X193384Y314015D01*
X193394Y314007D01*
X193412Y313986D01*
X194565Y312834D01*
X194565Y309466D01*
X192184Y307085D01*
X188816Y307085D01*
G37*
%LPD*%
%LPC*%
G36*
X336136Y257555D02*
X336136Y257555D01*
X333755Y259936D01*
X333755Y263304D01*
X334908Y264456D01*
X334968Y264534D01*
X335036Y264606D01*
X335065Y264659D01*
X335102Y264707D01*
X335142Y264798D01*
X335190Y264885D01*
X335205Y264943D01*
X335229Y264999D01*
X335244Y265097D01*
X335269Y265193D01*
X335275Y265293D01*
X335279Y265313D01*
X335277Y265325D01*
X335279Y265353D01*
X335279Y364272D01*
X337139Y366132D01*
X339988Y368981D01*
X341848Y370841D01*
X369657Y370841D01*
X369686Y370844D01*
X369715Y370842D01*
X369843Y370864D01*
X369972Y370881D01*
X370000Y370891D01*
X370029Y370896D01*
X370147Y370950D01*
X370268Y370998D01*
X370292Y371015D01*
X370319Y371027D01*
X370420Y371108D01*
X370525Y371184D01*
X370544Y371207D01*
X370567Y371226D01*
X370645Y371329D01*
X370728Y371429D01*
X370741Y371456D01*
X370758Y371480D01*
X370829Y371624D01*
X371955Y374343D01*
X374957Y377345D01*
X378878Y378969D01*
X383122Y378969D01*
X387043Y377345D01*
X390045Y374343D01*
X391669Y370422D01*
X391669Y366178D01*
X390045Y362257D01*
X387043Y359255D01*
X383122Y357631D01*
X378878Y357631D01*
X374957Y359255D01*
X371955Y362257D01*
X370829Y364976D01*
X370815Y365001D01*
X370805Y365029D01*
X370736Y365139D01*
X370672Y365252D01*
X370651Y365273D01*
X370635Y365298D01*
X370541Y365387D01*
X370450Y365480D01*
X370425Y365496D01*
X370404Y365516D01*
X370290Y365579D01*
X370179Y365647D01*
X370151Y365655D01*
X370125Y365670D01*
X369999Y365702D01*
X369875Y365740D01*
X369846Y365742D01*
X369817Y365749D01*
X369657Y365759D01*
X344478Y365759D01*
X344380Y365747D01*
X344281Y365744D01*
X344223Y365727D01*
X344163Y365719D01*
X344071Y365683D01*
X343975Y365655D01*
X343923Y365625D01*
X343867Y365602D01*
X343787Y365544D01*
X343701Y365494D01*
X343626Y365428D01*
X343610Y365416D01*
X343602Y365406D01*
X343581Y365388D01*
X340732Y362539D01*
X340672Y362461D01*
X340604Y362389D01*
X340575Y362336D01*
X340538Y362288D01*
X340498Y362197D01*
X340450Y362110D01*
X340435Y362052D01*
X340411Y361996D01*
X340396Y361898D01*
X340371Y361803D01*
X340365Y361703D01*
X340361Y361682D01*
X340363Y361670D01*
X340361Y361642D01*
X340361Y265353D01*
X340373Y265255D01*
X340376Y265156D01*
X340393Y265098D01*
X340401Y265038D01*
X340437Y264946D01*
X340465Y264851D01*
X340495Y264799D01*
X340518Y264742D01*
X340576Y264662D01*
X340626Y264577D01*
X340692Y264501D01*
X340704Y264485D01*
X340714Y264477D01*
X340732Y264456D01*
X341885Y263304D01*
X341885Y259936D01*
X339504Y257555D01*
X336136Y257555D01*
G37*
%LPD*%
%LPC*%
G36*
X74078Y383031D02*
X74078Y383031D01*
X70157Y384655D01*
X67155Y387657D01*
X66029Y390376D01*
X66015Y390401D01*
X66005Y390429D01*
X65936Y390539D01*
X65872Y390652D01*
X65851Y390673D01*
X65835Y390698D01*
X65741Y390787D01*
X65650Y390880D01*
X65625Y390896D01*
X65604Y390916D01*
X65490Y390979D01*
X65379Y391047D01*
X65351Y391055D01*
X65325Y391070D01*
X65199Y391102D01*
X65075Y391140D01*
X65046Y391142D01*
X65017Y391149D01*
X64857Y391159D01*
X62153Y391159D01*
X62055Y391147D01*
X61956Y391144D01*
X61898Y391127D01*
X61838Y391119D01*
X61746Y391083D01*
X61651Y391055D01*
X61599Y391025D01*
X61542Y391002D01*
X61462Y390944D01*
X61377Y390894D01*
X61301Y390828D01*
X61285Y390816D01*
X61277Y390806D01*
X61256Y390788D01*
X60104Y389635D01*
X56736Y389635D01*
X54355Y392016D01*
X54355Y395384D01*
X55508Y396536D01*
X55568Y396614D01*
X55636Y396686D01*
X55665Y396739D01*
X55702Y396787D01*
X55742Y396878D01*
X55790Y396965D01*
X55805Y397023D01*
X55829Y397079D01*
X55844Y397177D01*
X55869Y397273D01*
X55875Y397373D01*
X55879Y397393D01*
X55877Y397405D01*
X55879Y397433D01*
X55879Y442922D01*
X55867Y443020D01*
X55864Y443119D01*
X55847Y443177D01*
X55839Y443237D01*
X55803Y443329D01*
X55775Y443425D01*
X55745Y443477D01*
X55722Y443533D01*
X55664Y443613D01*
X55614Y443698D01*
X55548Y443774D01*
X55536Y443790D01*
X55526Y443798D01*
X55508Y443819D01*
X32339Y466988D01*
X32261Y467048D01*
X32189Y467116D01*
X32136Y467145D01*
X32088Y467182D01*
X31997Y467222D01*
X31910Y467270D01*
X31852Y467285D01*
X31796Y467309D01*
X31698Y467324D01*
X31603Y467349D01*
X31502Y467355D01*
X31482Y467359D01*
X31470Y467357D01*
X31442Y467359D01*
X16753Y467359D01*
X16655Y467347D01*
X16556Y467344D01*
X16498Y467327D01*
X16437Y467319D01*
X16345Y467283D01*
X16250Y467255D01*
X16198Y467225D01*
X16142Y467202D01*
X16062Y467144D01*
X15976Y467094D01*
X15901Y467028D01*
X15884Y467016D01*
X15877Y467006D01*
X15856Y466988D01*
X14477Y465609D01*
X10923Y465609D01*
X8409Y468123D01*
X8409Y471677D01*
X10923Y474191D01*
X14477Y474191D01*
X15856Y472812D01*
X15934Y472752D01*
X16006Y472684D01*
X16059Y472655D01*
X16107Y472618D01*
X16198Y472578D01*
X16284Y472530D01*
X16343Y472515D01*
X16399Y472491D01*
X16497Y472476D01*
X16592Y472451D01*
X16692Y472445D01*
X16713Y472441D01*
X16725Y472443D01*
X16753Y472441D01*
X34072Y472441D01*
X60961Y445552D01*
X60961Y397510D01*
X60976Y397392D01*
X60983Y397273D01*
X60996Y397235D01*
X61001Y397194D01*
X61045Y397083D01*
X61081Y396971D01*
X61103Y396936D01*
X61118Y396899D01*
X61187Y396803D01*
X61251Y396702D01*
X61281Y396674D01*
X61304Y396641D01*
X61396Y396565D01*
X61483Y396484D01*
X61518Y396464D01*
X61549Y396439D01*
X61657Y396388D01*
X61761Y396330D01*
X61801Y396320D01*
X61837Y396303D01*
X61954Y396281D01*
X62069Y396251D01*
X62129Y396247D01*
X62149Y396243D01*
X62170Y396245D01*
X62230Y396241D01*
X64857Y396241D01*
X64886Y396244D01*
X64915Y396242D01*
X65043Y396264D01*
X65172Y396281D01*
X65200Y396291D01*
X65229Y396296D01*
X65347Y396350D01*
X65468Y396398D01*
X65492Y396415D01*
X65519Y396427D01*
X65620Y396508D01*
X65725Y396584D01*
X65744Y396607D01*
X65767Y396626D01*
X65845Y396729D01*
X65928Y396829D01*
X65941Y396856D01*
X65958Y396880D01*
X66029Y397024D01*
X67155Y399743D01*
X70157Y402745D01*
X74078Y404369D01*
X78322Y404369D01*
X82243Y402745D01*
X85245Y399743D01*
X86869Y395822D01*
X86869Y391578D01*
X85245Y387657D01*
X82243Y384655D01*
X78322Y383031D01*
X74078Y383031D01*
G37*
%LPD*%
%LPC*%
G36*
X80310Y42201D02*
X80310Y42201D01*
X80338Y42231D01*
X80371Y42254D01*
X80447Y42346D01*
X80528Y42433D01*
X80548Y42468D01*
X80573Y42499D01*
X80624Y42607D01*
X80682Y42711D01*
X80692Y42751D01*
X80709Y42787D01*
X80731Y42904D01*
X80761Y43019D01*
X80765Y43079D01*
X80769Y43099D01*
X80767Y43120D01*
X80771Y43180D01*
X80771Y45019D01*
X80759Y45117D01*
X80756Y45216D01*
X80739Y45274D01*
X80731Y45334D01*
X80695Y45426D01*
X80667Y45521D01*
X80637Y45574D01*
X80614Y45630D01*
X80556Y45710D01*
X80506Y45795D01*
X80440Y45871D01*
X80428Y45887D01*
X80418Y45895D01*
X80400Y45916D01*
X79975Y46341D01*
X79926Y46379D01*
X79883Y46424D01*
X79753Y46518D01*
X79379Y46753D01*
X79349Y46797D01*
X79345Y46801D01*
X79341Y46806D01*
X79227Y46906D01*
X79188Y46940D01*
X78948Y47323D01*
X78909Y47371D01*
X78877Y47424D01*
X78771Y47545D01*
X78458Y47858D01*
X78439Y47907D01*
X78436Y47912D01*
X78433Y47918D01*
X78344Y48041D01*
X78314Y48082D01*
X78165Y48509D01*
X78137Y48564D01*
X78118Y48624D01*
X78042Y48765D01*
X77806Y49139D01*
X77799Y49191D01*
X77797Y49197D01*
X77796Y49203D01*
X77737Y49342D01*
X77716Y49390D01*
X77666Y49840D01*
X77651Y49900D01*
X77646Y49962D01*
X77602Y50117D01*
X77488Y50443D01*
X77489Y50448D01*
X77499Y50608D01*
X77499Y51244D01*
X77498Y51258D01*
X77491Y51387D01*
X77432Y51914D01*
X77442Y51955D01*
X77481Y52081D01*
X77482Y52109D01*
X77489Y52136D01*
X77499Y52296D01*
X77499Y61484D01*
X77496Y61512D01*
X77498Y61540D01*
X77478Y61658D01*
X77477Y61671D01*
X77475Y61678D01*
X77459Y61799D01*
X77449Y61825D01*
X77444Y61853D01*
X77433Y61878D01*
X77491Y62393D01*
X77491Y62407D01*
X77499Y62535D01*
X77499Y63172D01*
X77494Y63216D01*
X77496Y63261D01*
X77484Y63324D01*
X77602Y63663D01*
X77615Y63724D01*
X77637Y63782D01*
X77666Y63940D01*
X77715Y64380D01*
X77742Y64425D01*
X77743Y64431D01*
X77747Y64436D01*
X77787Y64584D01*
X77801Y64632D01*
X78042Y65015D01*
X78068Y65071D01*
X78102Y65123D01*
X78165Y65271D01*
X78311Y65688D01*
X78347Y65727D01*
X78350Y65732D01*
X78354Y65736D01*
X78427Y65871D01*
X78451Y65915D01*
X78771Y66235D01*
X78809Y66284D01*
X78854Y66327D01*
X78948Y66457D01*
X79183Y66831D01*
X79227Y66861D01*
X79231Y66865D01*
X79236Y66869D01*
X79336Y66983D01*
X79370Y67022D01*
X79753Y67262D01*
X79801Y67301D01*
X79854Y67333D01*
X79975Y67439D01*
X80288Y67752D01*
X80337Y67771D01*
X80342Y67775D01*
X80348Y67777D01*
X80471Y67866D01*
X80512Y67896D01*
X80939Y68045D01*
X80994Y68073D01*
X81054Y68092D01*
X81195Y68168D01*
X81569Y68404D01*
X81622Y68411D01*
X81627Y68413D01*
X81633Y68414D01*
X81774Y68475D01*
X81820Y68494D01*
X82270Y68544D01*
X82330Y68559D01*
X82392Y68564D01*
X82547Y68608D01*
X82964Y68754D01*
X83017Y68749D01*
X83022Y68750D01*
X83028Y68750D01*
X83178Y68777D01*
X83229Y68786D01*
X83678Y68735D01*
X83740Y68736D01*
X83801Y68727D01*
X83962Y68735D01*
X84401Y68785D01*
X84452Y68769D01*
X84458Y68768D01*
X84463Y68767D01*
X84616Y68760D01*
X84667Y68757D01*
X85093Y68608D01*
X85154Y68595D01*
X85212Y68573D01*
X85370Y68544D01*
X85810Y68495D01*
X85855Y68468D01*
X85861Y68467D01*
X85866Y68464D01*
X86013Y68423D01*
X86062Y68409D01*
X86445Y68168D01*
X86501Y68142D01*
X86553Y68108D01*
X86701Y68045D01*
X87118Y67899D01*
X87157Y67863D01*
X87162Y67860D01*
X87166Y67856D01*
X87301Y67783D01*
X87345Y67759D01*
X87665Y67439D01*
X87714Y67401D01*
X87757Y67356D01*
X87887Y67262D01*
X88261Y67027D01*
X88291Y66983D01*
X88295Y66979D01*
X88299Y66974D01*
X88414Y66874D01*
X88452Y66840D01*
X88692Y66457D01*
X88731Y66409D01*
X88763Y66356D01*
X88869Y66235D01*
X89182Y65922D01*
X89201Y65873D01*
X89205Y65868D01*
X89207Y65862D01*
X89296Y65739D01*
X89326Y65698D01*
X89475Y65271D01*
X89503Y65216D01*
X89522Y65156D01*
X89598Y65015D01*
X89834Y64641D01*
X89841Y64588D01*
X89843Y64583D01*
X89844Y64577D01*
X89905Y64435D01*
X89924Y64390D01*
X89974Y63940D01*
X89989Y63880D01*
X89994Y63818D01*
X90038Y63663D01*
X90064Y63589D01*
X90093Y63530D01*
X90113Y63469D01*
X90163Y63389D01*
X90205Y63304D01*
X90248Y63255D01*
X90283Y63200D01*
X90352Y63135D01*
X90414Y63064D01*
X90467Y63027D01*
X90515Y62982D01*
X90597Y62936D01*
X90675Y62883D01*
X90736Y62860D01*
X90793Y62828D01*
X90885Y62805D01*
X90973Y62772D01*
X91038Y62765D01*
X91101Y62749D01*
X91262Y62739D01*
X162738Y62739D01*
X162803Y62747D01*
X162868Y62745D01*
X162960Y62767D01*
X163054Y62779D01*
X163114Y62803D01*
X163178Y62817D01*
X163262Y62861D01*
X163349Y62896D01*
X163402Y62934D01*
X163460Y62964D01*
X163530Y63027D01*
X163607Y63082D01*
X163648Y63133D01*
X163697Y63176D01*
X163749Y63255D01*
X163810Y63327D01*
X163837Y63386D01*
X163874Y63441D01*
X163936Y63589D01*
X163962Y63663D01*
X163975Y63724D01*
X163997Y63782D01*
X164026Y63940D01*
X164075Y64380D01*
X164102Y64425D01*
X164103Y64431D01*
X164107Y64436D01*
X164147Y64584D01*
X164161Y64632D01*
X164402Y65015D01*
X164428Y65071D01*
X164462Y65123D01*
X164525Y65271D01*
X164671Y65688D01*
X164707Y65727D01*
X164710Y65732D01*
X164714Y65737D01*
X164787Y65872D01*
X164811Y65915D01*
X165131Y66235D01*
X165169Y66284D01*
X165214Y66327D01*
X165308Y66457D01*
X165543Y66831D01*
X165587Y66861D01*
X165591Y66865D01*
X165596Y66869D01*
X165696Y66983D01*
X165730Y67022D01*
X166113Y67262D01*
X166161Y67301D01*
X166214Y67333D01*
X166335Y67439D01*
X166648Y67752D01*
X166697Y67771D01*
X166702Y67775D01*
X166708Y67777D01*
X166831Y67866D01*
X166872Y67896D01*
X167299Y68045D01*
X167354Y68073D01*
X167414Y68092D01*
X167555Y68168D01*
X167929Y68404D01*
X167982Y68411D01*
X167987Y68413D01*
X167993Y68414D01*
X168134Y68475D01*
X168180Y68494D01*
X168630Y68544D01*
X168690Y68559D01*
X168752Y68564D01*
X168907Y68608D01*
X169324Y68754D01*
X169377Y68749D01*
X169382Y68750D01*
X169388Y68750D01*
X169538Y68777D01*
X169589Y68786D01*
X170038Y68735D01*
X170100Y68736D01*
X170161Y68727D01*
X170322Y68735D01*
X170761Y68785D01*
X170812Y68769D01*
X170818Y68768D01*
X170823Y68767D01*
X170976Y68760D01*
X171027Y68757D01*
X171453Y68608D01*
X171514Y68595D01*
X171572Y68573D01*
X171730Y68544D01*
X172170Y68495D01*
X172215Y68468D01*
X172221Y68467D01*
X172226Y68463D01*
X172374Y68423D01*
X172422Y68409D01*
X172805Y68168D01*
X172861Y68142D01*
X172913Y68108D01*
X173061Y68045D01*
X173478Y67899D01*
X173517Y67863D01*
X173522Y67860D01*
X173526Y67856D01*
X173661Y67783D01*
X173705Y67759D01*
X174025Y67439D01*
X174074Y67401D01*
X174117Y67356D01*
X174247Y67262D01*
X174622Y67027D01*
X174651Y66983D01*
X174656Y66979D01*
X174659Y66974D01*
X174776Y66872D01*
X174812Y66840D01*
X175052Y66457D01*
X175091Y66409D01*
X175123Y66356D01*
X175229Y66235D01*
X175542Y65922D01*
X175561Y65873D01*
X175565Y65868D01*
X175567Y65862D01*
X175656Y65739D01*
X175686Y65698D01*
X175835Y65271D01*
X175863Y65216D01*
X175882Y65156D01*
X175958Y65015D01*
X176194Y64641D01*
X176201Y64588D01*
X176203Y64583D01*
X176204Y64577D01*
X176265Y64435D01*
X176284Y64390D01*
X176334Y63940D01*
X176349Y63880D01*
X176354Y63818D01*
X176398Y63663D01*
X176512Y63336D01*
X176511Y63332D01*
X176501Y63172D01*
X176501Y62536D01*
X176502Y62522D01*
X176509Y62393D01*
X176568Y61866D01*
X176558Y61825D01*
X176519Y61699D01*
X176518Y61671D01*
X176511Y61644D01*
X176501Y61484D01*
X176501Y52296D01*
X176504Y52269D01*
X176502Y52241D01*
X176524Y52111D01*
X176541Y51981D01*
X176551Y51955D01*
X176556Y51927D01*
X176567Y51902D01*
X176509Y51387D01*
X176509Y51373D01*
X176509Y51367D01*
X176507Y51361D01*
X176508Y51354D01*
X176501Y51244D01*
X176501Y50608D01*
X176506Y50564D01*
X176504Y50519D01*
X176516Y50456D01*
X176398Y50117D01*
X176385Y50056D01*
X176363Y49998D01*
X176334Y49840D01*
X176285Y49400D01*
X176258Y49355D01*
X176257Y49349D01*
X176254Y49344D01*
X176213Y49197D01*
X176199Y49148D01*
X175958Y48765D01*
X175932Y48709D01*
X175898Y48657D01*
X175835Y48509D01*
X175689Y48092D01*
X175653Y48053D01*
X175650Y48048D01*
X175646Y48044D01*
X175573Y47909D01*
X175549Y47865D01*
X175229Y47545D01*
X175191Y47496D01*
X175146Y47453D01*
X175052Y47323D01*
X174817Y46949D01*
X174773Y46919D01*
X174769Y46915D01*
X174764Y46911D01*
X174664Y46797D01*
X174630Y46758D01*
X174247Y46518D01*
X174199Y46479D01*
X174146Y46447D01*
X174025Y46341D01*
X173600Y45916D01*
X173540Y45838D01*
X173472Y45766D01*
X173443Y45713D01*
X173406Y45665D01*
X173366Y45574D01*
X173318Y45487D01*
X173303Y45429D01*
X173279Y45373D01*
X173264Y45275D01*
X173239Y45179D01*
X173233Y45079D01*
X173229Y45059D01*
X173231Y45047D01*
X173229Y45019D01*
X173229Y24461D01*
X173241Y24363D01*
X173244Y24264D01*
X173261Y24206D01*
X173269Y24146D01*
X173305Y24054D01*
X173333Y23959D01*
X173363Y23906D01*
X173386Y23850D01*
X173444Y23770D01*
X173494Y23685D01*
X173560Y23609D01*
X173572Y23593D01*
X173582Y23585D01*
X173600Y23564D01*
X174025Y23139D01*
X174074Y23101D01*
X174117Y23056D01*
X174247Y22962D01*
X174621Y22727D01*
X174651Y22683D01*
X174655Y22679D01*
X174659Y22674D01*
X174774Y22574D01*
X174812Y22540D01*
X175052Y22157D01*
X175091Y22109D01*
X175123Y22056D01*
X175229Y21935D01*
X175542Y21622D01*
X175561Y21573D01*
X175565Y21568D01*
X175567Y21562D01*
X175656Y21439D01*
X175686Y21398D01*
X175835Y20971D01*
X175863Y20916D01*
X175882Y20856D01*
X175958Y20715D01*
X176194Y20341D01*
X176201Y20288D01*
X176203Y20283D01*
X176204Y20277D01*
X176265Y20135D01*
X176284Y20090D01*
X176334Y19640D01*
X176349Y19580D01*
X176354Y19518D01*
X176398Y19363D01*
X176512Y19036D01*
X176511Y19032D01*
X176501Y18872D01*
X176501Y18236D01*
X176502Y18222D01*
X176509Y18093D01*
X176568Y17566D01*
X176558Y17525D01*
X176519Y17399D01*
X176518Y17371D01*
X176511Y17344D01*
X176501Y17184D01*
X176501Y12996D01*
X176504Y12969D01*
X176502Y12941D01*
X176524Y12811D01*
X176541Y12681D01*
X176551Y12655D01*
X176556Y12627D01*
X176567Y12602D01*
X176509Y12087D01*
X176509Y12073D01*
X176506Y12029D01*
X176503Y12014D01*
X176504Y11999D01*
X176501Y11944D01*
X176501Y11308D01*
X176506Y11264D01*
X176504Y11219D01*
X176516Y11156D01*
X176398Y10817D01*
X176385Y10756D01*
X176363Y10698D01*
X176334Y10540D01*
X176285Y10100D01*
X176258Y10055D01*
X176257Y10049D01*
X176254Y10044D01*
X176213Y9897D01*
X176199Y9848D01*
X175958Y9465D01*
X175932Y9409D01*
X175898Y9357D01*
X175835Y9209D01*
X175689Y8792D01*
X175653Y8753D01*
X175650Y8748D01*
X175646Y8743D01*
X175573Y8608D01*
X175549Y8565D01*
X175229Y8245D01*
X175191Y8196D01*
X175146Y8153D01*
X175052Y8023D01*
X174817Y7649D01*
X174773Y7619D01*
X174769Y7615D01*
X174764Y7611D01*
X174664Y7497D01*
X174630Y7458D01*
X174247Y7218D01*
X174199Y7179D01*
X174146Y7147D01*
X174025Y7041D01*
X173712Y6728D01*
X173663Y6709D01*
X173658Y6706D01*
X173652Y6703D01*
X173529Y6613D01*
X173488Y6584D01*
X173061Y6435D01*
X173006Y6407D01*
X172946Y6388D01*
X172805Y6312D01*
X172431Y6076D01*
X172379Y6069D01*
X172373Y6067D01*
X172367Y6066D01*
X172227Y6006D01*
X172180Y5986D01*
X171954Y5961D01*
X171927Y5954D01*
X171899Y5953D01*
X171773Y5917D01*
X171645Y5886D01*
X171620Y5873D01*
X171593Y5865D01*
X171546Y5837D01*
X171448Y5825D01*
X171316Y5813D01*
X171280Y5803D01*
X171265Y5801D01*
X171244Y5793D01*
X171161Y5770D01*
X171036Y5726D01*
X170984Y5731D01*
X170978Y5730D01*
X170971Y5730D01*
X170822Y5703D01*
X170771Y5694D01*
X170322Y5745D01*
X170260Y5744D01*
X170199Y5753D01*
X170038Y5745D01*
X169599Y5695D01*
X169549Y5711D01*
X169542Y5712D01*
X169536Y5713D01*
X169384Y5720D01*
X169333Y5723D01*
X169199Y5770D01*
X169069Y5798D01*
X168941Y5831D01*
X168903Y5833D01*
X168888Y5837D01*
X168866Y5836D01*
X168780Y5841D01*
X85220Y5841D01*
X85088Y5825D01*
X84956Y5813D01*
X84920Y5803D01*
X84905Y5801D01*
X84884Y5793D01*
X84801Y5770D01*
X84676Y5726D01*
X84623Y5731D01*
X84618Y5730D01*
X84612Y5730D01*
X84462Y5703D01*
X84411Y5694D01*
X83962Y5745D01*
X83900Y5744D01*
X83839Y5753D01*
X83678Y5745D01*
X83239Y5695D01*
X83188Y5711D01*
X83182Y5712D01*
X83177Y5713D01*
X83024Y5720D01*
X82973Y5723D01*
X82839Y5770D01*
X82709Y5798D01*
X82581Y5831D01*
X82543Y5833D01*
X82528Y5837D01*
X82506Y5836D01*
X82449Y5839D01*
X82379Y5866D01*
X82258Y5918D01*
X82231Y5923D01*
X82205Y5933D01*
X82046Y5961D01*
X81830Y5985D01*
X81785Y6012D01*
X81779Y6013D01*
X81774Y6016D01*
X81627Y6057D01*
X81578Y6071D01*
X81195Y6312D01*
X81139Y6338D01*
X81087Y6372D01*
X80939Y6435D01*
X80522Y6581D01*
X80483Y6617D01*
X80478Y6620D01*
X80474Y6624D01*
X80339Y6697D01*
X80295Y6721D01*
X79975Y7041D01*
X79926Y7079D01*
X79883Y7124D01*
X79753Y7218D01*
X79379Y7453D01*
X79349Y7497D01*
X79345Y7501D01*
X79341Y7506D01*
X79226Y7606D01*
X79188Y7640D01*
X78948Y8023D01*
X78909Y8071D01*
X78877Y8124D01*
X78771Y8245D01*
X78458Y8558D01*
X78439Y8607D01*
X78435Y8612D01*
X78433Y8618D01*
X78345Y8739D01*
X78314Y8782D01*
X78165Y9209D01*
X78137Y9264D01*
X78118Y9324D01*
X78042Y9465D01*
X77806Y9839D01*
X77799Y9892D01*
X77797Y9897D01*
X77796Y9903D01*
X77736Y10044D01*
X77716Y10090D01*
X77666Y10540D01*
X77651Y10600D01*
X77646Y10662D01*
X77602Y10817D01*
X77488Y11144D01*
X77489Y11147D01*
X77499Y11308D01*
X77499Y11945D01*
X77498Y11958D01*
X77491Y12087D01*
X77432Y12614D01*
X77442Y12655D01*
X77481Y12780D01*
X77482Y12809D01*
X77489Y12836D01*
X77499Y12996D01*
X77499Y17184D01*
X77496Y17211D01*
X77498Y17239D01*
X77476Y17369D01*
X77459Y17499D01*
X77449Y17525D01*
X77444Y17553D01*
X77433Y17578D01*
X77491Y18093D01*
X77491Y18107D01*
X77499Y18235D01*
X77499Y18872D01*
X77494Y18916D01*
X77496Y18961D01*
X77484Y19024D01*
X77602Y19363D01*
X77615Y19424D01*
X77637Y19482D01*
X77666Y19640D01*
X77715Y20080D01*
X77742Y20125D01*
X77743Y20131D01*
X77747Y20136D01*
X77787Y20284D01*
X77801Y20332D01*
X78042Y20715D01*
X78068Y20771D01*
X78102Y20823D01*
X78165Y20971D01*
X78311Y21388D01*
X78347Y21427D01*
X78350Y21432D01*
X78354Y21437D01*
X78427Y21572D01*
X78451Y21615D01*
X78771Y21935D01*
X78809Y21984D01*
X78854Y22027D01*
X78948Y22158D01*
X78965Y22185D01*
X79031Y22326D01*
X79097Y22467D01*
X79098Y22470D01*
X79099Y22473D01*
X79128Y22626D01*
X79157Y22779D01*
X79157Y22783D01*
X79157Y22786D01*
X79147Y22941D01*
X79137Y23097D01*
X79136Y23100D01*
X79136Y23103D01*
X79087Y23251D01*
X79039Y23399D01*
X79038Y23402D01*
X79036Y23405D01*
X78953Y23535D01*
X78869Y23668D01*
X78867Y23670D01*
X78865Y23673D01*
X78752Y23778D01*
X78638Y23886D01*
X78635Y23888D01*
X78632Y23890D01*
X78497Y23964D01*
X78359Y24040D01*
X78356Y24040D01*
X78353Y24042D01*
X78203Y24080D01*
X78051Y24119D01*
X78047Y24119D01*
X78045Y24120D01*
X78039Y24120D01*
X77890Y24129D01*
X75407Y24129D01*
X74634Y24336D01*
X73942Y24736D01*
X73377Y25301D01*
X72977Y25993D01*
X72770Y26766D01*
X72770Y31370D01*
X78232Y31370D01*
X78350Y31385D01*
X78469Y31392D01*
X78507Y31404D01*
X78547Y31410D01*
X78658Y31453D01*
X78771Y31490D01*
X78805Y31512D01*
X78843Y31527D01*
X78939Y31596D01*
X79040Y31660D01*
X79065Y31687D01*
X88582Y31687D01*
X88661Y31613D01*
X88696Y31593D01*
X88728Y31568D01*
X88835Y31517D01*
X88940Y31459D01*
X88979Y31449D01*
X89015Y31432D01*
X89132Y31410D01*
X89248Y31380D01*
X89308Y31376D01*
X89328Y31372D01*
X89348Y31374D01*
X89408Y31370D01*
X94870Y31370D01*
X94870Y26766D01*
X94663Y25993D01*
X94263Y25301D01*
X93698Y24736D01*
X93006Y24336D01*
X92233Y24129D01*
X91289Y24129D01*
X91274Y24127D01*
X91259Y24129D01*
X91117Y24108D01*
X90973Y24089D01*
X90959Y24084D01*
X90945Y24082D01*
X90812Y24026D01*
X90677Y23972D01*
X90665Y23964D01*
X90652Y23958D01*
X90537Y23871D01*
X90420Y23786D01*
X90411Y23774D01*
X90399Y23765D01*
X90310Y23652D01*
X90217Y23541D01*
X90211Y23527D01*
X90202Y23516D01*
X90143Y23383D01*
X90082Y23253D01*
X90079Y23238D01*
X90073Y23225D01*
X90049Y23081D01*
X90022Y22940D01*
X90023Y22926D01*
X90020Y22911D01*
X90033Y22767D01*
X90042Y22623D01*
X90046Y22609D01*
X90047Y22594D01*
X90095Y22458D01*
X90140Y22321D01*
X90148Y22308D01*
X90152Y22294D01*
X90233Y22155D01*
X90547Y21686D01*
X91119Y20304D01*
X91411Y18838D01*
X91411Y16359D01*
X88869Y16359D01*
X88869Y18090D01*
X88867Y18093D01*
X88869Y18096D01*
X88744Y19208D01*
X88738Y19214D01*
X88741Y19219D01*
X88371Y20276D01*
X88365Y20280D01*
X88367Y20286D01*
X87771Y21234D01*
X87763Y21237D01*
X87764Y21242D01*
X86972Y22034D01*
X86964Y22035D01*
X86964Y22041D01*
X86016Y22637D01*
X86007Y22636D01*
X86006Y22641D01*
X84949Y23011D01*
X84941Y23009D01*
X84938Y23014D01*
X83826Y23139D01*
X83818Y23135D01*
X83815Y23139D01*
X82702Y23014D01*
X82696Y23008D01*
X82691Y23011D01*
X81634Y22641D01*
X81630Y22635D01*
X81624Y22637D01*
X80676Y22041D01*
X80673Y22033D01*
X80668Y22034D01*
X79876Y21242D01*
X79875Y21234D01*
X79869Y21234D01*
X79273Y20286D01*
X79274Y20277D01*
X79269Y20276D01*
X78899Y19219D01*
X78901Y19211D01*
X78896Y19208D01*
X78771Y18096D01*
X78773Y18092D01*
X78771Y18090D01*
X78771Y12090D01*
X78773Y12087D01*
X78771Y12085D01*
X78896Y10972D01*
X78902Y10966D01*
X78899Y10961D01*
X79269Y9904D01*
X79276Y9900D01*
X79273Y9894D01*
X79869Y8946D01*
X79877Y8943D01*
X79876Y8938D01*
X80668Y8146D01*
X80676Y8145D01*
X80676Y8139D01*
X81624Y7543D01*
X81633Y7544D01*
X81634Y7539D01*
X82691Y7169D01*
X82699Y7171D01*
X82702Y7166D01*
X83815Y7041D01*
X83822Y7045D01*
X83826Y7041D01*
X84938Y7166D01*
X84944Y7172D01*
X84949Y7169D01*
X86006Y7539D01*
X86010Y7546D01*
X86016Y7543D01*
X86964Y8139D01*
X86967Y8147D01*
X86972Y8146D01*
X87764Y8938D01*
X87765Y8946D01*
X87771Y8946D01*
X88367Y9894D01*
X88366Y9903D01*
X88371Y9904D01*
X88741Y10961D01*
X88740Y10965D01*
X88742Y10967D01*
X88740Y10970D01*
X88744Y10972D01*
X88869Y12085D01*
X88867Y12088D01*
X88869Y12090D01*
X88869Y13821D01*
X91411Y13821D01*
X91411Y11342D01*
X91119Y9876D01*
X90912Y9376D01*
X90899Y9328D01*
X90878Y9283D01*
X90857Y9175D01*
X90828Y9069D01*
X90827Y9019D01*
X90818Y8971D01*
X90825Y8861D01*
X90823Y8751D01*
X90834Y8703D01*
X90838Y8653D01*
X90871Y8549D01*
X90897Y8442D01*
X90920Y8398D01*
X90936Y8351D01*
X90994Y8258D01*
X91046Y8161D01*
X91079Y8124D01*
X91106Y8082D01*
X91186Y8007D01*
X91260Y7925D01*
X91301Y7898D01*
X91337Y7864D01*
X91434Y7811D01*
X91525Y7751D01*
X91572Y7734D01*
X91616Y7710D01*
X91722Y7683D01*
X91826Y7647D01*
X91876Y7643D01*
X91924Y7631D01*
X92084Y7621D01*
X161915Y7621D01*
X161965Y7627D01*
X162014Y7625D01*
X162122Y7647D01*
X162231Y7661D01*
X162277Y7679D01*
X162326Y7689D01*
X162425Y7737D01*
X162527Y7778D01*
X162567Y7807D01*
X162612Y7829D01*
X162695Y7900D01*
X162784Y7964D01*
X162816Y8003D01*
X162854Y8035D01*
X162917Y8125D01*
X162987Y8209D01*
X163008Y8254D01*
X163037Y8295D01*
X163076Y8398D01*
X163122Y8497D01*
X163132Y8546D01*
X163149Y8592D01*
X163162Y8702D01*
X163182Y8810D01*
X163179Y8859D01*
X163185Y8909D01*
X163169Y9017D01*
X163162Y9127D01*
X163147Y9174D01*
X163140Y9223D01*
X163088Y9376D01*
X162881Y9876D01*
X162589Y11343D01*
X162589Y13821D01*
X165131Y13821D01*
X165131Y12090D01*
X165133Y12087D01*
X165131Y12085D01*
X165256Y10972D01*
X165262Y10966D01*
X165259Y10961D01*
X165629Y9904D01*
X165636Y9900D01*
X165633Y9894D01*
X166229Y8946D01*
X166237Y8943D01*
X166236Y8938D01*
X167028Y8146D01*
X167036Y8145D01*
X167036Y8139D01*
X167984Y7543D01*
X167993Y7544D01*
X167994Y7539D01*
X169051Y7169D01*
X169059Y7171D01*
X169062Y7166D01*
X170175Y7041D01*
X170182Y7045D01*
X170186Y7041D01*
X171298Y7166D01*
X171304Y7172D01*
X171309Y7169D01*
X172366Y7539D01*
X172370Y7546D01*
X172376Y7543D01*
X173324Y8139D01*
X173327Y8147D01*
X173332Y8146D01*
X174124Y8938D01*
X174125Y8946D01*
X174131Y8946D01*
X174727Y9894D01*
X174726Y9903D01*
X174731Y9904D01*
X175101Y10961D01*
X175100Y10965D01*
X175102Y10967D01*
X175100Y10970D01*
X175104Y10972D01*
X175229Y12085D01*
X175227Y12088D01*
X175229Y12090D01*
X175229Y18090D01*
X175227Y18093D01*
X175229Y18096D01*
X175104Y19208D01*
X175098Y19214D01*
X175101Y19219D01*
X174731Y20276D01*
X174725Y20280D01*
X174727Y20286D01*
X174131Y21234D01*
X174123Y21237D01*
X174124Y21242D01*
X173332Y22034D01*
X173324Y22035D01*
X173324Y22041D01*
X172376Y22637D01*
X172367Y22636D01*
X172366Y22641D01*
X171449Y22962D01*
X171449Y46518D01*
X172366Y46839D01*
X172370Y46846D01*
X172376Y46843D01*
X173324Y47439D01*
X173327Y47447D01*
X173332Y47446D01*
X174124Y48238D01*
X174125Y48246D01*
X174131Y48246D01*
X174727Y49194D01*
X174726Y49203D01*
X174731Y49204D01*
X175101Y50261D01*
X175100Y50265D01*
X175102Y50267D01*
X175100Y50270D01*
X175104Y50272D01*
X175229Y51385D01*
X175227Y51388D01*
X175229Y51390D01*
X175229Y62390D01*
X175227Y62393D01*
X175229Y62396D01*
X175104Y63508D01*
X175098Y63514D01*
X175101Y63519D01*
X174731Y64576D01*
X174725Y64580D01*
X174727Y64586D01*
X174131Y65534D01*
X174123Y65537D01*
X174124Y65542D01*
X173332Y66334D01*
X173324Y66335D01*
X173324Y66341D01*
X172376Y66937D01*
X172367Y66936D01*
X172366Y66941D01*
X171309Y67311D01*
X171301Y67309D01*
X171298Y67314D01*
X170186Y67439D01*
X170178Y67435D01*
X170175Y67439D01*
X169062Y67314D01*
X169056Y67308D01*
X169051Y67311D01*
X167994Y66941D01*
X167990Y66935D01*
X167984Y66937D01*
X167036Y66341D01*
X167033Y66333D01*
X167028Y66334D01*
X166236Y65542D01*
X166235Y65534D01*
X166229Y65534D01*
X165633Y64586D01*
X165634Y64579D01*
X165630Y64577D01*
X165630Y64576D01*
X165629Y64576D01*
X165259Y63519D01*
X165261Y63511D01*
X165256Y63508D01*
X165131Y62396D01*
X165133Y62392D01*
X165131Y62390D01*
X165131Y58159D01*
X162589Y58159D01*
X162589Y59690D01*
X162574Y59808D01*
X162567Y59927D01*
X162554Y59965D01*
X162549Y60006D01*
X162506Y60116D01*
X162469Y60229D01*
X162447Y60264D01*
X162432Y60301D01*
X162362Y60397D01*
X162299Y60498D01*
X162269Y60526D01*
X162246Y60559D01*
X162154Y60635D01*
X162067Y60716D01*
X162032Y60736D01*
X162001Y60761D01*
X161893Y60812D01*
X161789Y60870D01*
X161749Y60880D01*
X161713Y60897D01*
X161596Y60919D01*
X161481Y60949D01*
X161420Y60953D01*
X161400Y60957D01*
X161380Y60955D01*
X161320Y60959D01*
X92680Y60959D01*
X92562Y60944D01*
X92443Y60937D01*
X92405Y60924D01*
X92364Y60919D01*
X92254Y60876D01*
X92141Y60839D01*
X92106Y60817D01*
X92069Y60802D01*
X91973Y60733D01*
X91872Y60669D01*
X91844Y60639D01*
X91811Y60616D01*
X91735Y60524D01*
X91654Y60437D01*
X91634Y60402D01*
X91609Y60371D01*
X91558Y60263D01*
X91500Y60159D01*
X91490Y60119D01*
X91473Y60083D01*
X91451Y59966D01*
X91421Y59851D01*
X91417Y59791D01*
X91413Y59771D01*
X91415Y59750D01*
X91414Y59746D01*
X91413Y59741D01*
X91414Y59735D01*
X91411Y59690D01*
X91411Y58159D01*
X88869Y58159D01*
X88869Y62390D01*
X88867Y62393D01*
X88869Y62396D01*
X88744Y63508D01*
X88738Y63514D01*
X88741Y63519D01*
X88371Y64576D01*
X88365Y64580D01*
X88367Y64586D01*
X87771Y65534D01*
X87763Y65537D01*
X87764Y65542D01*
X86972Y66334D01*
X86964Y66335D01*
X86964Y66341D01*
X86016Y66937D01*
X86007Y66936D01*
X86006Y66941D01*
X84949Y67311D01*
X84941Y67309D01*
X84938Y67314D01*
X83826Y67439D01*
X83818Y67435D01*
X83815Y67439D01*
X82702Y67314D01*
X82696Y67308D01*
X82691Y67311D01*
X81634Y66941D01*
X81630Y66935D01*
X81624Y66937D01*
X80676Y66341D01*
X80673Y66333D01*
X80668Y66334D01*
X79876Y65542D01*
X79875Y65534D01*
X79869Y65534D01*
X79273Y64586D01*
X79274Y64579D01*
X79270Y64577D01*
X79270Y64576D01*
X79269Y64576D01*
X78899Y63519D01*
X78901Y63511D01*
X78896Y63508D01*
X78771Y62396D01*
X78773Y62392D01*
X78771Y62390D01*
X78771Y51390D01*
X78773Y51387D01*
X78771Y51385D01*
X78896Y50272D01*
X78902Y50266D01*
X78899Y50261D01*
X79269Y49204D01*
X79276Y49200D01*
X79273Y49194D01*
X79869Y48246D01*
X79877Y48243D01*
X79876Y48238D01*
X80668Y47446D01*
X80676Y47445D01*
X80676Y47439D01*
X81624Y46843D01*
X81633Y46844D01*
X81634Y46839D01*
X82551Y46518D01*
X82551Y42460D01*
X82567Y42329D01*
X82578Y42197D01*
X82587Y42171D01*
X82591Y42145D01*
X82639Y42021D01*
X82683Y41896D01*
X82698Y41874D01*
X82708Y41849D01*
X82785Y41742D01*
X82859Y41631D01*
X82879Y41613D01*
X82894Y41592D01*
X82996Y41507D01*
X83095Y41419D01*
X83119Y41406D01*
X83139Y41389D01*
X83259Y41332D01*
X83377Y41271D01*
X83403Y41265D01*
X83427Y41253D01*
X83557Y41228D01*
X83686Y41198D01*
X83713Y41199D01*
X83740Y41194D01*
X83871Y41202D01*
X84004Y41204D01*
X84030Y41212D01*
X84057Y41213D01*
X84183Y41254D01*
X84310Y41290D01*
X84345Y41307D01*
X84359Y41311D01*
X84378Y41323D01*
X84455Y41361D01*
X84576Y41431D01*
X84692Y41519D01*
X84809Y41604D01*
X84818Y41615D01*
X84829Y41623D01*
X84920Y41737D01*
X85012Y41849D01*
X85018Y41862D01*
X85026Y41872D01*
X85086Y42006D01*
X85148Y42137D01*
X85150Y42150D01*
X85156Y42163D01*
X85180Y42307D01*
X85208Y42449D01*
X85207Y42463D01*
X85209Y42476D01*
X85197Y42622D01*
X85188Y42767D01*
X85184Y42780D01*
X85182Y42793D01*
X85135Y42931D01*
X85090Y43069D01*
X85089Y43070D01*
X85089Y46518D01*
X86006Y46839D01*
X86010Y46846D01*
X86016Y46843D01*
X86964Y47439D01*
X86967Y47447D01*
X86972Y47446D01*
X87764Y48238D01*
X87765Y48246D01*
X87771Y48246D01*
X88367Y49194D01*
X88366Y49203D01*
X88371Y49204D01*
X88741Y50261D01*
X88740Y50265D01*
X88742Y50267D01*
X88740Y50270D01*
X88744Y50272D01*
X88869Y51385D01*
X88867Y51388D01*
X88869Y51390D01*
X88869Y55621D01*
X91411Y55621D01*
X91411Y54962D01*
X91419Y54893D01*
X91418Y54823D01*
X91439Y54736D01*
X91451Y54647D01*
X91476Y54582D01*
X91493Y54514D01*
X91535Y54434D01*
X91568Y54351D01*
X91609Y54295D01*
X91641Y54233D01*
X91702Y54166D01*
X91754Y54094D01*
X91808Y54049D01*
X91855Y53997D01*
X91930Y53948D01*
X91999Y53891D01*
X92063Y53861D01*
X92121Y53823D01*
X92206Y53794D01*
X92287Y53755D01*
X92356Y53742D01*
X92422Y53720D01*
X92511Y53712D01*
X92599Y53696D01*
X92669Y53700D01*
X92739Y53694D01*
X92827Y53710D01*
X92917Y53715D01*
X92983Y53737D01*
X93052Y53749D01*
X93134Y53786D01*
X93219Y53813D01*
X93278Y53851D01*
X93342Y53879D01*
X93412Y53935D01*
X93488Y53983D01*
X93536Y54034D01*
X93590Y54078D01*
X93644Y54150D01*
X93706Y54215D01*
X93740Y54276D01*
X93782Y54332D01*
X93831Y54433D01*
X95251Y55853D01*
X97100Y56619D01*
X99100Y56619D01*
X100949Y55853D01*
X102363Y54439D01*
X103129Y52590D01*
X103129Y50590D01*
X102363Y48741D01*
X100949Y47327D01*
X99100Y46561D01*
X97100Y46561D01*
X95251Y47327D01*
X93837Y48741D01*
X93544Y49449D01*
X93492Y49540D01*
X93448Y49635D01*
X93413Y49678D01*
X93386Y49726D01*
X93313Y49801D01*
X93247Y49882D01*
X93203Y49914D01*
X93165Y49954D01*
X93076Y50009D01*
X92992Y50071D01*
X92941Y50092D01*
X92894Y50120D01*
X92794Y50151D01*
X92697Y50190D01*
X92642Y50198D01*
X92590Y50214D01*
X92486Y50219D01*
X92382Y50233D01*
X92327Y50226D01*
X92272Y50229D01*
X92170Y50208D01*
X92066Y50196D01*
X92015Y50176D01*
X91961Y50165D01*
X91867Y50119D01*
X91769Y50081D01*
X91724Y50049D01*
X91675Y50025D01*
X91595Y49957D01*
X91510Y49897D01*
X91475Y49855D01*
X91433Y49819D01*
X91373Y49733D01*
X91305Y49653D01*
X91282Y49604D01*
X91250Y49559D01*
X91213Y49461D01*
X91167Y49367D01*
X91145Y49282D01*
X91137Y49261D01*
X91135Y49246D01*
X91126Y49211D01*
X91119Y49176D01*
X90547Y47794D01*
X89716Y46551D01*
X88659Y45494D01*
X87416Y44663D01*
X86666Y44353D01*
X86605Y44318D01*
X86540Y44292D01*
X86468Y44240D01*
X86390Y44195D01*
X86339Y44147D01*
X86283Y44106D01*
X86226Y44036D01*
X86161Y43974D01*
X86125Y43914D01*
X86080Y43861D01*
X86042Y43779D01*
X85995Y43703D01*
X85974Y43636D01*
X85945Y43573D01*
X85928Y43485D01*
X85901Y43399D01*
X85898Y43329D01*
X85885Y43260D01*
X85890Y43171D01*
X85886Y43081D01*
X85900Y43013D01*
X85905Y42943D01*
X85932Y42858D01*
X85950Y42770D01*
X85981Y42707D01*
X86003Y42641D01*
X86051Y42565D01*
X86090Y42484D01*
X86135Y42431D01*
X86173Y42372D01*
X86238Y42310D01*
X86297Y42242D01*
X86354Y42202D01*
X86404Y42154D01*
X86483Y42111D01*
X86557Y42059D01*
X86622Y42034D01*
X86683Y42000D01*
X86770Y41978D01*
X86854Y41946D01*
X86923Y41938D01*
X86991Y41921D01*
X87152Y41911D01*
X87377Y41911D01*
X87377Y34353D01*
X80263Y34353D01*
X80263Y42172D01*
X80310Y42201D01*
G37*
%LPD*%
G36*
X248962Y184793D02*
X248962Y184793D01*
X249004Y184791D01*
X249071Y184813D01*
X249141Y184825D01*
X249177Y184847D01*
X249218Y184860D01*
X249291Y184914D01*
X249334Y184940D01*
X249347Y184956D01*
X249368Y184972D01*
X262068Y197672D01*
X262093Y197706D01*
X262124Y197735D01*
X262151Y197787D01*
X262160Y197799D01*
X262164Y197808D01*
X262197Y197856D01*
X262207Y197897D01*
X262227Y197935D01*
X262240Y198024D01*
X262253Y198073D01*
X262250Y198094D01*
X262254Y198120D01*
X262254Y224790D01*
X262243Y224855D01*
X262241Y224921D01*
X262223Y224964D01*
X262215Y225011D01*
X262181Y225068D01*
X262156Y225128D01*
X262125Y225163D01*
X262100Y225204D01*
X262049Y225246D01*
X262005Y225294D01*
X261963Y225316D01*
X261926Y225345D01*
X261864Y225366D01*
X261805Y225397D01*
X261751Y225405D01*
X261714Y225417D01*
X261674Y225416D01*
X261620Y225424D01*
X238760Y225424D01*
X238695Y225413D01*
X238629Y225411D01*
X238586Y225393D01*
X238539Y225385D01*
X238482Y225351D01*
X238422Y225326D01*
X238387Y225295D01*
X238346Y225270D01*
X238305Y225219D01*
X238256Y225175D01*
X238234Y225133D01*
X238205Y225096D01*
X238184Y225034D01*
X238153Y224975D01*
X238145Y224921D01*
X238133Y224884D01*
X238134Y224844D01*
X238133Y224838D01*
X238133Y224837D01*
X238126Y224790D01*
X238126Y185420D01*
X238137Y185355D01*
X238139Y185289D01*
X238157Y185246D01*
X238165Y185199D01*
X238199Y185142D01*
X238224Y185082D01*
X238255Y185047D01*
X238280Y185006D01*
X238331Y184965D01*
X238375Y184916D01*
X238417Y184894D01*
X238454Y184865D01*
X238516Y184844D01*
X238575Y184813D01*
X238629Y184805D01*
X238666Y184793D01*
X238706Y184794D01*
X238760Y184786D01*
X248920Y184786D01*
X248962Y184793D01*
G37*
%LPC*%
G36*
X373522Y5745D02*
X373522Y5745D01*
X373460Y5744D01*
X373399Y5753D01*
X373238Y5745D01*
X372799Y5695D01*
X372748Y5711D01*
X372742Y5712D01*
X372737Y5713D01*
X372584Y5720D01*
X372533Y5723D01*
X372399Y5770D01*
X372269Y5798D01*
X372141Y5831D01*
X372103Y5833D01*
X372088Y5837D01*
X372066Y5836D01*
X371980Y5841D01*
X288420Y5841D01*
X288288Y5825D01*
X288156Y5813D01*
X288120Y5803D01*
X288105Y5801D01*
X288084Y5793D01*
X288001Y5770D01*
X287876Y5726D01*
X287824Y5731D01*
X287818Y5730D01*
X287811Y5730D01*
X287662Y5703D01*
X287611Y5694D01*
X287162Y5745D01*
X287100Y5744D01*
X287039Y5753D01*
X286878Y5745D01*
X286439Y5695D01*
X286389Y5711D01*
X286382Y5712D01*
X286376Y5713D01*
X286224Y5720D01*
X286173Y5723D01*
X286039Y5770D01*
X285909Y5798D01*
X285781Y5831D01*
X285743Y5833D01*
X285728Y5837D01*
X285706Y5836D01*
X285649Y5839D01*
X285579Y5866D01*
X285458Y5918D01*
X285431Y5923D01*
X285405Y5933D01*
X285246Y5961D01*
X285030Y5985D01*
X284985Y6012D01*
X284979Y6013D01*
X284974Y6017D01*
X284826Y6057D01*
X284778Y6071D01*
X284395Y6312D01*
X284339Y6338D01*
X284287Y6372D01*
X284139Y6435D01*
X283722Y6581D01*
X283683Y6617D01*
X283678Y6620D01*
X283673Y6624D01*
X283539Y6697D01*
X283495Y6721D01*
X283175Y7041D01*
X283126Y7079D01*
X283083Y7124D01*
X282953Y7218D01*
X282579Y7453D01*
X282549Y7497D01*
X282545Y7501D01*
X282541Y7506D01*
X282427Y7606D01*
X282388Y7640D01*
X282148Y8023D01*
X282109Y8071D01*
X282077Y8124D01*
X281971Y8245D01*
X281658Y8558D01*
X281639Y8607D01*
X281635Y8612D01*
X281633Y8618D01*
X281545Y8739D01*
X281514Y8782D01*
X281365Y9209D01*
X281337Y9264D01*
X281318Y9324D01*
X281242Y9465D01*
X281006Y9839D01*
X280999Y9892D01*
X280997Y9897D01*
X280996Y9903D01*
X280936Y10044D01*
X280916Y10090D01*
X280866Y10540D01*
X280851Y10600D01*
X280846Y10662D01*
X280802Y10817D01*
X280688Y11143D01*
X280689Y11148D01*
X280699Y11308D01*
X280699Y11944D01*
X280698Y11958D01*
X280691Y12087D01*
X280632Y12614D01*
X280642Y12655D01*
X280681Y12781D01*
X280682Y12809D01*
X280689Y12836D01*
X280699Y12996D01*
X280699Y17184D01*
X280696Y17212D01*
X280698Y17240D01*
X280676Y17369D01*
X280659Y17499D01*
X280649Y17525D01*
X280644Y17553D01*
X280633Y17578D01*
X280691Y18093D01*
X280691Y18107D01*
X280699Y18235D01*
X280699Y18872D01*
X280694Y18916D01*
X280696Y18961D01*
X280684Y19024D01*
X280802Y19363D01*
X280815Y19424D01*
X280837Y19482D01*
X280866Y19640D01*
X280915Y20080D01*
X280942Y20125D01*
X280943Y20131D01*
X280946Y20136D01*
X280987Y20283D01*
X281001Y20332D01*
X281242Y20715D01*
X281268Y20771D01*
X281302Y20823D01*
X281365Y20971D01*
X281511Y21388D01*
X281547Y21427D01*
X281550Y21432D01*
X281554Y21436D01*
X281627Y21571D01*
X281651Y21615D01*
X281971Y21935D01*
X282009Y21984D01*
X282054Y22027D01*
X282148Y22157D01*
X282383Y22531D01*
X282427Y22561D01*
X282431Y22565D01*
X282436Y22569D01*
X282536Y22683D01*
X282570Y22722D01*
X282953Y22962D01*
X283001Y23001D01*
X283054Y23033D01*
X283175Y23139D01*
X283600Y23564D01*
X283660Y23642D01*
X283728Y23714D01*
X283757Y23767D01*
X283794Y23815D01*
X283834Y23906D01*
X283882Y23993D01*
X283897Y24052D01*
X283921Y24107D01*
X283936Y24205D01*
X283961Y24301D01*
X283967Y24401D01*
X283971Y24421D01*
X283969Y24433D01*
X283971Y24461D01*
X283971Y45019D01*
X283959Y45117D01*
X283956Y45216D01*
X283939Y45274D01*
X283931Y45334D01*
X283895Y45426D01*
X283867Y45521D01*
X283837Y45574D01*
X283814Y45630D01*
X283756Y45710D01*
X283706Y45795D01*
X283640Y45871D01*
X283628Y45887D01*
X283618Y45895D01*
X283600Y45916D01*
X283175Y46341D01*
X283126Y46379D01*
X283083Y46424D01*
X282953Y46518D01*
X282579Y46753D01*
X282549Y46797D01*
X282545Y46801D01*
X282541Y46806D01*
X282426Y46906D01*
X282388Y46940D01*
X282148Y47323D01*
X282109Y47371D01*
X282077Y47424D01*
X281971Y47545D01*
X281658Y47858D01*
X281639Y47907D01*
X281635Y47912D01*
X281633Y47918D01*
X281545Y48039D01*
X281514Y48082D01*
X281365Y48509D01*
X281337Y48564D01*
X281318Y48624D01*
X281242Y48765D01*
X281006Y49139D01*
X280999Y49192D01*
X280997Y49197D01*
X280996Y49203D01*
X280936Y49344D01*
X280916Y49390D01*
X280866Y49840D01*
X280851Y49900D01*
X280846Y49962D01*
X280802Y50117D01*
X280688Y50444D01*
X280689Y50448D01*
X280699Y50608D01*
X280699Y51244D01*
X280698Y51258D01*
X280691Y51387D01*
X280632Y51914D01*
X280642Y51955D01*
X280681Y52081D01*
X280682Y52109D01*
X280689Y52136D01*
X280699Y52296D01*
X280699Y61484D01*
X280696Y61511D01*
X280698Y61539D01*
X280678Y61658D01*
X280677Y61671D01*
X280675Y61678D01*
X280659Y61799D01*
X280649Y61825D01*
X280644Y61853D01*
X280633Y61878D01*
X280691Y62394D01*
X280691Y62407D01*
X280699Y62536D01*
X280699Y63172D01*
X280694Y63216D01*
X280696Y63261D01*
X280684Y63324D01*
X280802Y63663D01*
X280815Y63724D01*
X280837Y63782D01*
X280866Y63940D01*
X280915Y64380D01*
X280942Y64425D01*
X280943Y64431D01*
X280947Y64436D01*
X280987Y64584D01*
X281001Y64632D01*
X281242Y65015D01*
X281268Y65071D01*
X281302Y65123D01*
X281365Y65271D01*
X281511Y65688D01*
X281547Y65727D01*
X281550Y65732D01*
X281554Y65737D01*
X281627Y65872D01*
X281651Y65915D01*
X281971Y66235D01*
X282009Y66284D01*
X282054Y66327D01*
X282148Y66457D01*
X282383Y66831D01*
X282427Y66861D01*
X282431Y66865D01*
X282436Y66869D01*
X282536Y66983D01*
X282570Y67022D01*
X282953Y67262D01*
X283001Y67301D01*
X283054Y67333D01*
X283175Y67439D01*
X283488Y67752D01*
X283537Y67771D01*
X283542Y67774D01*
X283548Y67777D01*
X283671Y67866D01*
X283712Y67896D01*
X284139Y68045D01*
X284194Y68073D01*
X284254Y68092D01*
X284395Y68168D01*
X284769Y68404D01*
X284821Y68411D01*
X284827Y68413D01*
X284833Y68414D01*
X284973Y68474D01*
X285020Y68494D01*
X285470Y68544D01*
X285530Y68559D01*
X285592Y68564D01*
X285747Y68608D01*
X286164Y68754D01*
X286216Y68749D01*
X286222Y68750D01*
X286229Y68750D01*
X286378Y68777D01*
X286429Y68786D01*
X286878Y68735D01*
X286940Y68736D01*
X287001Y68727D01*
X287162Y68735D01*
X287601Y68785D01*
X287651Y68769D01*
X287658Y68768D01*
X287664Y68767D01*
X287816Y68760D01*
X287867Y68757D01*
X288293Y68608D01*
X288354Y68595D01*
X288412Y68573D01*
X288570Y68544D01*
X289010Y68495D01*
X289055Y68468D01*
X289061Y68467D01*
X289066Y68463D01*
X289214Y68423D01*
X289262Y68409D01*
X289645Y68168D01*
X289701Y68142D01*
X289753Y68108D01*
X289901Y68045D01*
X290318Y67899D01*
X290357Y67863D01*
X290362Y67860D01*
X290367Y67856D01*
X290502Y67783D01*
X290545Y67759D01*
X290865Y67439D01*
X290914Y67401D01*
X290957Y67356D01*
X291087Y67262D01*
X291461Y67027D01*
X291491Y66983D01*
X291495Y66979D01*
X291499Y66974D01*
X291613Y66874D01*
X291652Y66840D01*
X291892Y66457D01*
X291931Y66409D01*
X291963Y66356D01*
X292069Y66235D01*
X292382Y65922D01*
X292401Y65873D01*
X292405Y65868D01*
X292407Y65862D01*
X292496Y65739D01*
X292526Y65698D01*
X292675Y65271D01*
X292703Y65216D01*
X292722Y65156D01*
X292798Y65015D01*
X293034Y64641D01*
X293041Y64588D01*
X293043Y64583D01*
X293044Y64577D01*
X293105Y64435D01*
X293124Y64390D01*
X293174Y63940D01*
X293189Y63880D01*
X293194Y63818D01*
X293238Y63663D01*
X293264Y63589D01*
X293293Y63530D01*
X293313Y63469D01*
X293363Y63389D01*
X293405Y63304D01*
X293448Y63255D01*
X293483Y63200D01*
X293552Y63135D01*
X293614Y63064D01*
X293667Y63027D01*
X293715Y62982D01*
X293797Y62936D01*
X293875Y62883D01*
X293936Y62860D01*
X293993Y62828D01*
X294085Y62805D01*
X294173Y62772D01*
X294238Y62765D01*
X294301Y62749D01*
X294462Y62739D01*
X365938Y62739D01*
X366003Y62747D01*
X366068Y62745D01*
X366160Y62767D01*
X366254Y62779D01*
X366314Y62803D01*
X366378Y62817D01*
X366462Y62861D01*
X366549Y62896D01*
X366602Y62934D01*
X366660Y62964D01*
X366730Y63027D01*
X366807Y63082D01*
X366848Y63133D01*
X366897Y63176D01*
X366949Y63255D01*
X367010Y63327D01*
X367037Y63386D01*
X367074Y63441D01*
X367136Y63589D01*
X367162Y63663D01*
X367175Y63724D01*
X367197Y63782D01*
X367226Y63940D01*
X367275Y64380D01*
X367302Y64425D01*
X367303Y64431D01*
X367307Y64436D01*
X367347Y64584D01*
X367361Y64632D01*
X367602Y65015D01*
X367628Y65071D01*
X367662Y65123D01*
X367725Y65271D01*
X367871Y65688D01*
X367907Y65727D01*
X367910Y65732D01*
X367914Y65737D01*
X367987Y65872D01*
X368011Y65915D01*
X368331Y66235D01*
X368369Y66284D01*
X368414Y66327D01*
X368508Y66457D01*
X368743Y66831D01*
X368787Y66861D01*
X368791Y66865D01*
X368796Y66869D01*
X368896Y66983D01*
X368930Y67022D01*
X369313Y67262D01*
X369361Y67301D01*
X369414Y67333D01*
X369535Y67439D01*
X369848Y67752D01*
X369897Y67771D01*
X369902Y67774D01*
X369908Y67777D01*
X370031Y67866D01*
X370072Y67896D01*
X370499Y68045D01*
X370554Y68073D01*
X370614Y68092D01*
X370755Y68168D01*
X371129Y68404D01*
X371181Y68411D01*
X371187Y68413D01*
X371193Y68414D01*
X371333Y68474D01*
X371380Y68494D01*
X371830Y68544D01*
X371890Y68559D01*
X371952Y68564D01*
X372107Y68608D01*
X372524Y68754D01*
X372576Y68749D01*
X372582Y68750D01*
X372589Y68750D01*
X372738Y68777D01*
X372789Y68786D01*
X373238Y68735D01*
X373300Y68736D01*
X373361Y68727D01*
X373522Y68735D01*
X373961Y68785D01*
X374011Y68769D01*
X374018Y68768D01*
X374024Y68767D01*
X374176Y68760D01*
X374227Y68757D01*
X374653Y68608D01*
X374714Y68595D01*
X374772Y68573D01*
X374930Y68544D01*
X375370Y68495D01*
X375415Y68468D01*
X375421Y68467D01*
X375426Y68463D01*
X375574Y68423D01*
X375622Y68409D01*
X376005Y68168D01*
X376061Y68142D01*
X376113Y68108D01*
X376261Y68045D01*
X376678Y67899D01*
X376717Y67863D01*
X376722Y67860D01*
X376727Y67856D01*
X376862Y67783D01*
X376905Y67759D01*
X377225Y67439D01*
X377274Y67401D01*
X377317Y67356D01*
X377447Y67262D01*
X377821Y67027D01*
X377851Y66983D01*
X377855Y66979D01*
X377859Y66974D01*
X377973Y66874D01*
X378012Y66840D01*
X378252Y66457D01*
X378291Y66409D01*
X378323Y66356D01*
X378429Y66235D01*
X378742Y65922D01*
X378761Y65873D01*
X378764Y65868D01*
X378767Y65862D01*
X378856Y65739D01*
X378886Y65698D01*
X379035Y65271D01*
X379063Y65216D01*
X379082Y65156D01*
X379158Y65015D01*
X379394Y64641D01*
X379401Y64589D01*
X379403Y64583D01*
X379404Y64577D01*
X379465Y64435D01*
X379484Y64390D01*
X379534Y63940D01*
X379549Y63880D01*
X379554Y63818D01*
X379598Y63663D01*
X379712Y63337D01*
X379711Y63332D01*
X379701Y63172D01*
X379701Y62536D01*
X379702Y62522D01*
X379709Y62393D01*
X379768Y61866D01*
X379758Y61825D01*
X379719Y61699D01*
X379718Y61671D01*
X379711Y61644D01*
X379701Y61484D01*
X379701Y52296D01*
X379704Y52269D01*
X379702Y52241D01*
X379724Y52111D01*
X379741Y51981D01*
X379751Y51955D01*
X379756Y51927D01*
X379767Y51902D01*
X379709Y51387D01*
X379709Y51373D01*
X379709Y51367D01*
X379707Y51361D01*
X379708Y51354D01*
X379701Y51244D01*
X379701Y50608D01*
X379706Y50564D01*
X379704Y50519D01*
X379716Y50456D01*
X379598Y50117D01*
X379585Y50056D01*
X379563Y49998D01*
X379534Y49840D01*
X379485Y49400D01*
X379458Y49355D01*
X379457Y49349D01*
X379453Y49344D01*
X379413Y49196D01*
X379399Y49148D01*
X379158Y48765D01*
X379132Y48709D01*
X379098Y48657D01*
X379035Y48509D01*
X378889Y48092D01*
X378853Y48053D01*
X378850Y48048D01*
X378846Y48043D01*
X378773Y47908D01*
X378749Y47865D01*
X378429Y47545D01*
X378391Y47496D01*
X378346Y47453D01*
X378252Y47323D01*
X378017Y46949D01*
X377973Y46919D01*
X377969Y46915D01*
X377964Y46911D01*
X377864Y46797D01*
X377830Y46758D01*
X377447Y46518D01*
X377399Y46479D01*
X377346Y46447D01*
X377225Y46341D01*
X376800Y45916D01*
X376740Y45838D01*
X376672Y45766D01*
X376643Y45713D01*
X376606Y45665D01*
X376566Y45574D01*
X376518Y45487D01*
X376503Y45428D01*
X376479Y45373D01*
X376464Y45275D01*
X376439Y45179D01*
X376433Y45079D01*
X376429Y45059D01*
X376431Y45047D01*
X376429Y45019D01*
X376429Y44450D01*
X376444Y44332D01*
X376451Y44213D01*
X376464Y44175D01*
X376469Y44134D01*
X376512Y44024D01*
X376549Y43911D01*
X376571Y43876D01*
X376586Y43839D01*
X376655Y43743D01*
X376719Y43642D01*
X376749Y43614D01*
X376772Y43581D01*
X376864Y43505D01*
X376937Y43437D01*
X376937Y35623D01*
X369823Y35623D01*
X369823Y43959D01*
X369815Y44023D01*
X369817Y44087D01*
X369795Y44180D01*
X369783Y44274D01*
X369760Y44334D01*
X369745Y44397D01*
X369701Y44482D01*
X369666Y44570D01*
X369629Y44622D01*
X369599Y44679D01*
X369536Y44750D01*
X369480Y44827D01*
X369430Y44868D01*
X369387Y44916D01*
X369259Y45014D01*
X368805Y45318D01*
X368541Y45494D01*
X367484Y46551D01*
X366653Y47794D01*
X366081Y49176D01*
X366074Y49211D01*
X366041Y49311D01*
X366016Y49412D01*
X365991Y49461D01*
X365973Y49513D01*
X365917Y49601D01*
X365868Y49693D01*
X365831Y49734D01*
X365801Y49780D01*
X365724Y49851D01*
X365654Y49928D01*
X365608Y49959D01*
X365567Y49996D01*
X365475Y50046D01*
X365388Y50103D01*
X365336Y50121D01*
X365287Y50147D01*
X365186Y50173D01*
X365087Y50206D01*
X365032Y50211D01*
X364979Y50224D01*
X364874Y50223D01*
X364770Y50232D01*
X364716Y50222D01*
X364661Y50222D01*
X364560Y50195D01*
X364457Y50177D01*
X364407Y50155D01*
X364353Y50140D01*
X364262Y50090D01*
X364167Y50047D01*
X364124Y50012D01*
X364076Y49985D01*
X364000Y49913D01*
X363919Y49848D01*
X363885Y49804D01*
X363845Y49766D01*
X363790Y49677D01*
X363727Y49594D01*
X363688Y49515D01*
X363677Y49496D01*
X363672Y49482D01*
X363656Y49449D01*
X363363Y48741D01*
X361949Y47327D01*
X360100Y46561D01*
X358100Y46561D01*
X356251Y47327D01*
X354837Y48741D01*
X354071Y50590D01*
X354071Y52590D01*
X354837Y54439D01*
X356251Y55853D01*
X358100Y56619D01*
X360100Y56619D01*
X361949Y55853D01*
X363377Y54425D01*
X363382Y54416D01*
X363408Y54351D01*
X363460Y54279D01*
X363505Y54200D01*
X363553Y54150D01*
X363594Y54094D01*
X363664Y54037D01*
X363726Y53972D01*
X363786Y53936D01*
X363839Y53891D01*
X363921Y53853D01*
X363997Y53806D01*
X364064Y53785D01*
X364127Y53755D01*
X364215Y53739D01*
X364301Y53712D01*
X364371Y53709D01*
X364439Y53696D01*
X364529Y53701D01*
X364619Y53697D01*
X364687Y53711D01*
X364757Y53715D01*
X364842Y53743D01*
X364930Y53761D01*
X364993Y53792D01*
X365059Y53813D01*
X365135Y53861D01*
X365216Y53901D01*
X365269Y53946D01*
X365328Y53984D01*
X365390Y54049D01*
X365458Y54107D01*
X365498Y54164D01*
X365546Y54215D01*
X365589Y54294D01*
X365641Y54367D01*
X365666Y54433D01*
X365700Y54494D01*
X365722Y54581D01*
X365754Y54665D01*
X365762Y54734D01*
X365779Y54802D01*
X365789Y54962D01*
X365789Y55621D01*
X368331Y55621D01*
X368331Y51390D01*
X368333Y51387D01*
X368331Y51385D01*
X368456Y50272D01*
X368462Y50266D01*
X368459Y50261D01*
X368829Y49204D01*
X368836Y49200D01*
X368833Y49194D01*
X369429Y48246D01*
X369437Y48243D01*
X369436Y48238D01*
X370228Y47446D01*
X370236Y47445D01*
X370236Y47439D01*
X371184Y46843D01*
X371193Y46844D01*
X371194Y46839D01*
X372111Y46518D01*
X372111Y43730D01*
X372129Y43588D01*
X372143Y43445D01*
X372148Y43430D01*
X372150Y43415D01*
X372203Y43281D01*
X372253Y43147D01*
X372262Y43134D01*
X372267Y43119D01*
X372352Y43003D01*
X372433Y42885D01*
X372445Y42875D01*
X372454Y42862D01*
X372565Y42770D01*
X372673Y42676D01*
X372692Y42665D01*
X372699Y42659D01*
X372716Y42651D01*
X372812Y42595D01*
X372902Y42564D01*
X372987Y42523D01*
X373051Y42511D01*
X373112Y42489D01*
X373207Y42481D01*
X373300Y42464D01*
X373364Y42468D01*
X373429Y42462D01*
X373523Y42477D01*
X373617Y42483D01*
X373679Y42503D01*
X373743Y42514D01*
X373830Y42552D01*
X373919Y42581D01*
X373974Y42616D01*
X374034Y42642D01*
X374108Y42701D01*
X374188Y42751D01*
X374233Y42799D01*
X374284Y42839D01*
X374341Y42914D01*
X374406Y42983D01*
X374437Y43040D01*
X374477Y43092D01*
X374514Y43179D01*
X374560Y43262D01*
X374576Y43325D01*
X374601Y43384D01*
X374615Y43478D01*
X374639Y43570D01*
X374646Y43680D01*
X374649Y43699D01*
X374648Y43709D01*
X374649Y43730D01*
X374649Y46518D01*
X375566Y46839D01*
X375570Y46846D01*
X375576Y46843D01*
X376524Y47439D01*
X376527Y47447D01*
X376532Y47446D01*
X377324Y48238D01*
X377325Y48246D01*
X377331Y48246D01*
X377927Y49194D01*
X377926Y49203D01*
X377931Y49204D01*
X378301Y50261D01*
X378300Y50265D01*
X378302Y50267D01*
X378300Y50270D01*
X378304Y50272D01*
X378429Y51385D01*
X378427Y51388D01*
X378429Y51390D01*
X378429Y62390D01*
X378427Y62393D01*
X378429Y62396D01*
X378304Y63508D01*
X378298Y63514D01*
X378301Y63519D01*
X377931Y64576D01*
X377925Y64580D01*
X377927Y64586D01*
X377331Y65534D01*
X377323Y65537D01*
X377324Y65542D01*
X376532Y66334D01*
X376524Y66335D01*
X376524Y66341D01*
X375576Y66937D01*
X375567Y66936D01*
X375566Y66941D01*
X374509Y67311D01*
X374501Y67309D01*
X374498Y67314D01*
X373386Y67439D01*
X373378Y67435D01*
X373375Y67439D01*
X372262Y67314D01*
X372256Y67308D01*
X372251Y67311D01*
X371194Y66941D01*
X371190Y66935D01*
X371184Y66937D01*
X370236Y66341D01*
X370233Y66333D01*
X370228Y66334D01*
X369436Y65542D01*
X369435Y65534D01*
X369429Y65534D01*
X368833Y64586D01*
X368834Y64579D01*
X368830Y64577D01*
X368830Y64576D01*
X368829Y64576D01*
X368459Y63519D01*
X368461Y63511D01*
X368456Y63508D01*
X368331Y62396D01*
X368333Y62392D01*
X368331Y62390D01*
X368331Y58159D01*
X365789Y58159D01*
X365789Y59690D01*
X365774Y59808D01*
X365767Y59927D01*
X365754Y59965D01*
X365749Y60006D01*
X365706Y60116D01*
X365669Y60229D01*
X365647Y60264D01*
X365632Y60301D01*
X365562Y60397D01*
X365499Y60498D01*
X365469Y60526D01*
X365446Y60559D01*
X365354Y60635D01*
X365267Y60716D01*
X365232Y60736D01*
X365201Y60761D01*
X365093Y60812D01*
X364989Y60870D01*
X364949Y60880D01*
X364913Y60897D01*
X364796Y60919D01*
X364681Y60949D01*
X364620Y60953D01*
X364600Y60957D01*
X364580Y60955D01*
X364520Y60959D01*
X295880Y60959D01*
X295762Y60944D01*
X295643Y60937D01*
X295605Y60924D01*
X295564Y60919D01*
X295454Y60876D01*
X295341Y60839D01*
X295306Y60817D01*
X295269Y60802D01*
X295173Y60733D01*
X295072Y60669D01*
X295044Y60639D01*
X295011Y60616D01*
X294935Y60524D01*
X294854Y60437D01*
X294834Y60402D01*
X294809Y60371D01*
X294758Y60263D01*
X294700Y60159D01*
X294690Y60119D01*
X294673Y60083D01*
X294651Y59966D01*
X294621Y59851D01*
X294617Y59791D01*
X294613Y59771D01*
X294615Y59750D01*
X294614Y59746D01*
X294613Y59741D01*
X294614Y59735D01*
X294611Y59690D01*
X294611Y58159D01*
X292069Y58159D01*
X292069Y62390D01*
X292067Y62393D01*
X292069Y62396D01*
X291944Y63508D01*
X291938Y63514D01*
X291941Y63519D01*
X291571Y64576D01*
X291565Y64580D01*
X291567Y64586D01*
X290971Y65534D01*
X290963Y65537D01*
X290964Y65542D01*
X290172Y66334D01*
X290164Y66335D01*
X290164Y66341D01*
X289216Y66937D01*
X289207Y66936D01*
X289206Y66941D01*
X288149Y67311D01*
X288141Y67309D01*
X288138Y67314D01*
X287026Y67439D01*
X287018Y67435D01*
X287015Y67439D01*
X285902Y67314D01*
X285896Y67308D01*
X285891Y67311D01*
X284834Y66941D01*
X284830Y66935D01*
X284824Y66937D01*
X283876Y66341D01*
X283873Y66333D01*
X283868Y66334D01*
X283076Y65542D01*
X283075Y65534D01*
X283069Y65534D01*
X282473Y64586D01*
X282474Y64579D01*
X282470Y64577D01*
X282470Y64576D01*
X282469Y64576D01*
X282099Y63519D01*
X282101Y63511D01*
X282096Y63508D01*
X281971Y62396D01*
X281973Y62392D01*
X281971Y62390D01*
X281971Y51390D01*
X281973Y51387D01*
X281971Y51385D01*
X282096Y50272D01*
X282102Y50266D01*
X282099Y50261D01*
X282469Y49204D01*
X282476Y49200D01*
X282473Y49194D01*
X283069Y48246D01*
X283077Y48243D01*
X283076Y48238D01*
X283868Y47446D01*
X283876Y47445D01*
X283876Y47439D01*
X284824Y46843D01*
X284833Y46844D01*
X284834Y46839D01*
X285751Y46518D01*
X285751Y22962D01*
X284834Y22641D01*
X284830Y22635D01*
X284824Y22637D01*
X283876Y22041D01*
X283873Y22033D01*
X283868Y22034D01*
X283076Y21242D01*
X283075Y21234D01*
X283069Y21234D01*
X282473Y20286D01*
X282474Y20277D01*
X282469Y20276D01*
X282099Y19219D01*
X282101Y19211D01*
X282096Y19208D01*
X281971Y18096D01*
X281973Y18092D01*
X281971Y18090D01*
X281971Y12090D01*
X281973Y12087D01*
X281971Y12085D01*
X282096Y10972D01*
X282102Y10966D01*
X282099Y10961D01*
X282469Y9904D01*
X282476Y9900D01*
X282473Y9894D01*
X283069Y8946D01*
X283077Y8943D01*
X283076Y8938D01*
X283868Y8146D01*
X283876Y8145D01*
X283876Y8139D01*
X284824Y7543D01*
X284833Y7544D01*
X284834Y7539D01*
X285891Y7169D01*
X285899Y7171D01*
X285902Y7166D01*
X287015Y7041D01*
X287022Y7045D01*
X287026Y7041D01*
X288138Y7166D01*
X288144Y7172D01*
X288149Y7169D01*
X289206Y7539D01*
X289210Y7546D01*
X289216Y7543D01*
X290164Y8139D01*
X290167Y8147D01*
X290172Y8146D01*
X290964Y8938D01*
X290965Y8946D01*
X290971Y8946D01*
X291567Y9894D01*
X291566Y9903D01*
X291571Y9904D01*
X291941Y10961D01*
X291940Y10965D01*
X291942Y10967D01*
X291940Y10970D01*
X291944Y10972D01*
X292069Y12085D01*
X292067Y12088D01*
X292069Y12090D01*
X292069Y13821D01*
X294611Y13821D01*
X294611Y11342D01*
X294319Y9876D01*
X294112Y9376D01*
X294099Y9328D01*
X294078Y9283D01*
X294057Y9175D01*
X294028Y9069D01*
X294027Y9019D01*
X294018Y8971D01*
X294025Y8861D01*
X294023Y8751D01*
X294034Y8703D01*
X294038Y8653D01*
X294071Y8549D01*
X294097Y8442D01*
X294120Y8398D01*
X294136Y8351D01*
X294194Y8258D01*
X294246Y8161D01*
X294279Y8124D01*
X294306Y8082D01*
X294386Y8007D01*
X294460Y7925D01*
X294501Y7898D01*
X294537Y7864D01*
X294634Y7811D01*
X294725Y7751D01*
X294772Y7734D01*
X294816Y7710D01*
X294922Y7683D01*
X295026Y7647D01*
X295076Y7643D01*
X295124Y7631D01*
X295285Y7621D01*
X365115Y7621D01*
X365165Y7627D01*
X365214Y7625D01*
X365322Y7647D01*
X365431Y7661D01*
X365477Y7679D01*
X365526Y7689D01*
X365625Y7737D01*
X365727Y7778D01*
X365767Y7807D01*
X365812Y7829D01*
X365895Y7900D01*
X365984Y7964D01*
X366016Y8003D01*
X366054Y8035D01*
X366117Y8125D01*
X366187Y8209D01*
X366208Y8254D01*
X366237Y8295D01*
X366276Y8398D01*
X366322Y8497D01*
X366332Y8546D01*
X366349Y8592D01*
X366362Y8702D01*
X366382Y8810D01*
X366379Y8859D01*
X366385Y8909D01*
X366369Y9017D01*
X366362Y9127D01*
X366347Y9174D01*
X366340Y9223D01*
X366288Y9376D01*
X366081Y9876D01*
X365789Y11343D01*
X365789Y13821D01*
X368331Y13821D01*
X368331Y12090D01*
X368333Y12087D01*
X368331Y12085D01*
X368456Y10972D01*
X368462Y10966D01*
X368459Y10961D01*
X368829Y9904D01*
X368836Y9900D01*
X368833Y9894D01*
X369429Y8946D01*
X369437Y8943D01*
X369436Y8938D01*
X370228Y8146D01*
X370236Y8145D01*
X370236Y8139D01*
X371184Y7543D01*
X371193Y7544D01*
X371194Y7539D01*
X372251Y7169D01*
X372259Y7171D01*
X372262Y7166D01*
X373375Y7041D01*
X373382Y7045D01*
X373386Y7041D01*
X374498Y7166D01*
X374504Y7172D01*
X374509Y7169D01*
X375566Y7539D01*
X375570Y7546D01*
X375576Y7543D01*
X376524Y8139D01*
X376527Y8147D01*
X376532Y8146D01*
X377324Y8938D01*
X377325Y8946D01*
X377331Y8946D01*
X377927Y9894D01*
X377926Y9903D01*
X377931Y9904D01*
X378301Y10961D01*
X378300Y10965D01*
X378302Y10967D01*
X378300Y10970D01*
X378304Y10972D01*
X378429Y12085D01*
X378427Y12088D01*
X378429Y12090D01*
X378429Y18090D01*
X378427Y18093D01*
X378429Y18096D01*
X378304Y19208D01*
X378298Y19214D01*
X378301Y19219D01*
X377931Y20276D01*
X377925Y20280D01*
X377927Y20286D01*
X377331Y21234D01*
X377323Y21237D01*
X377324Y21242D01*
X376532Y22034D01*
X376524Y22035D01*
X376524Y22041D01*
X375576Y22637D01*
X375567Y22636D01*
X375566Y22641D01*
X374509Y23011D01*
X374501Y23009D01*
X374498Y23014D01*
X373386Y23139D01*
X373378Y23135D01*
X373375Y23139D01*
X372262Y23014D01*
X372256Y23008D01*
X372251Y23011D01*
X371194Y22641D01*
X371190Y22635D01*
X371184Y22637D01*
X370236Y22041D01*
X370233Y22033D01*
X370228Y22034D01*
X369436Y21242D01*
X369435Y21234D01*
X369429Y21234D01*
X368833Y20286D01*
X368834Y20277D01*
X368829Y20276D01*
X368459Y19219D01*
X368461Y19211D01*
X368456Y19208D01*
X368331Y18096D01*
X368333Y18092D01*
X368331Y18090D01*
X368331Y16359D01*
X365789Y16359D01*
X365789Y18838D01*
X366081Y20304D01*
X366653Y21686D01*
X367165Y22451D01*
X367165Y22452D01*
X367484Y22929D01*
X367788Y23232D01*
X367873Y23342D01*
X367961Y23449D01*
X367970Y23468D01*
X367982Y23484D01*
X368038Y23611D01*
X368097Y23737D01*
X368101Y23757D01*
X368109Y23776D01*
X368131Y23913D01*
X368157Y24049D01*
X368155Y24070D01*
X368159Y24090D01*
X368146Y24229D01*
X368137Y24367D01*
X368131Y24386D01*
X368129Y24406D01*
X368082Y24538D01*
X368039Y24669D01*
X368028Y24686D01*
X368021Y24706D01*
X367943Y24821D01*
X367869Y24938D01*
X367854Y24952D01*
X367843Y24969D01*
X367738Y25061D01*
X367637Y25156D01*
X367619Y25166D01*
X367604Y25179D01*
X367480Y25243D01*
X367359Y25310D01*
X367339Y25315D01*
X367321Y25324D01*
X367185Y25354D01*
X367051Y25389D01*
X367023Y25391D01*
X367011Y25393D01*
X366990Y25393D01*
X366890Y25399D01*
X364967Y25399D01*
X364194Y25606D01*
X363502Y26006D01*
X362937Y26571D01*
X362537Y27263D01*
X362330Y28036D01*
X362330Y32640D01*
X367792Y32640D01*
X367910Y32655D01*
X368029Y32662D01*
X368067Y32674D01*
X368107Y32680D01*
X368218Y32723D01*
X368331Y32760D01*
X368365Y32782D01*
X368403Y32797D01*
X368499Y32866D01*
X368600Y32930D01*
X368625Y32957D01*
X376937Y32957D01*
X376937Y24765D01*
X376899Y24685D01*
X376836Y24561D01*
X376831Y24541D01*
X376822Y24523D01*
X376796Y24386D01*
X376766Y24251D01*
X376767Y24230D01*
X376763Y24210D01*
X376771Y24072D01*
X376776Y23933D01*
X376781Y23913D01*
X376782Y23893D01*
X376825Y23760D01*
X376864Y23627D01*
X376874Y23610D01*
X376880Y23591D01*
X376955Y23473D01*
X377025Y23353D01*
X377044Y23332D01*
X377051Y23322D01*
X377066Y23308D01*
X377132Y23232D01*
X377225Y23139D01*
X377274Y23101D01*
X377317Y23056D01*
X377447Y22962D01*
X377821Y22727D01*
X377851Y22683D01*
X377855Y22679D01*
X377859Y22674D01*
X377973Y22574D01*
X378012Y22540D01*
X378252Y22157D01*
X378291Y22109D01*
X378323Y22056D01*
X378429Y21935D01*
X378742Y21622D01*
X378761Y21573D01*
X378764Y21568D01*
X378767Y21562D01*
X378856Y21439D01*
X378886Y21398D01*
X379035Y20971D01*
X379063Y20916D01*
X379082Y20856D01*
X379158Y20715D01*
X379394Y20341D01*
X379401Y20289D01*
X379403Y20283D01*
X379404Y20277D01*
X379464Y20136D01*
X379484Y20090D01*
X379534Y19640D01*
X379549Y19580D01*
X379554Y19518D01*
X379598Y19363D01*
X379712Y19037D01*
X379711Y19032D01*
X379701Y18872D01*
X379701Y18236D01*
X379702Y18222D01*
X379709Y18093D01*
X379768Y17566D01*
X379758Y17525D01*
X379719Y17399D01*
X379718Y17371D01*
X379711Y17344D01*
X379701Y17184D01*
X379701Y12996D01*
X379704Y12969D01*
X379702Y12941D01*
X379724Y12811D01*
X379741Y12681D01*
X379751Y12655D01*
X379756Y12627D01*
X379767Y12602D01*
X379709Y12087D01*
X379709Y12073D01*
X379706Y12029D01*
X379703Y12014D01*
X379704Y11999D01*
X379701Y11944D01*
X379701Y11308D01*
X379706Y11264D01*
X379704Y11219D01*
X379716Y11156D01*
X379598Y10817D01*
X379585Y10756D01*
X379563Y10698D01*
X379534Y10540D01*
X379485Y10100D01*
X379458Y10055D01*
X379457Y10049D01*
X379453Y10044D01*
X379413Y9896D01*
X379399Y9848D01*
X379158Y9465D01*
X379132Y9409D01*
X379098Y9357D01*
X379035Y9209D01*
X378889Y8792D01*
X378853Y8753D01*
X378850Y8748D01*
X378846Y8743D01*
X378773Y8608D01*
X378749Y8565D01*
X378429Y8245D01*
X378391Y8196D01*
X378346Y8153D01*
X378252Y8023D01*
X378017Y7649D01*
X377973Y7619D01*
X377969Y7615D01*
X377964Y7611D01*
X377864Y7497D01*
X377830Y7458D01*
X377447Y7218D01*
X377399Y7179D01*
X377346Y7147D01*
X377225Y7041D01*
X376912Y6728D01*
X376863Y6709D01*
X376858Y6705D01*
X376852Y6703D01*
X376729Y6613D01*
X376688Y6584D01*
X376261Y6435D01*
X376206Y6407D01*
X376146Y6388D01*
X376005Y6312D01*
X375631Y6076D01*
X375578Y6069D01*
X375573Y6067D01*
X375567Y6066D01*
X375426Y6005D01*
X375380Y5986D01*
X375154Y5961D01*
X375127Y5954D01*
X375099Y5953D01*
X374973Y5917D01*
X374845Y5886D01*
X374820Y5873D01*
X374793Y5865D01*
X374746Y5837D01*
X374648Y5825D01*
X374516Y5813D01*
X374480Y5803D01*
X374465Y5801D01*
X374444Y5793D01*
X374361Y5770D01*
X374236Y5726D01*
X374183Y5731D01*
X374178Y5730D01*
X374172Y5730D01*
X374022Y5703D01*
X373971Y5694D01*
X373522Y5745D01*
G37*
%LPD*%
%LPC*%
G36*
X226823Y409219D02*
X226823Y409219D01*
X224309Y411733D01*
X224309Y415287D01*
X225688Y416666D01*
X225748Y416744D01*
X225816Y416816D01*
X225845Y416869D01*
X225882Y416917D01*
X225922Y417008D01*
X225970Y417094D01*
X225985Y417153D01*
X226009Y417209D01*
X226024Y417307D01*
X226049Y417402D01*
X226055Y417502D01*
X226059Y417523D01*
X226057Y417535D01*
X226059Y417563D01*
X226059Y422910D01*
X226044Y423028D01*
X226037Y423147D01*
X226024Y423185D01*
X226019Y423226D01*
X225976Y423336D01*
X225939Y423449D01*
X225917Y423484D01*
X225902Y423521D01*
X225833Y423617D01*
X225769Y423718D01*
X225739Y423746D01*
X225716Y423779D01*
X225624Y423855D01*
X225537Y423936D01*
X225502Y423956D01*
X225471Y423981D01*
X225363Y424032D01*
X225259Y424090D01*
X225219Y424100D01*
X225183Y424117D01*
X225110Y424131D01*
X224291Y424951D01*
X224197Y425023D01*
X224107Y425102D01*
X224071Y425121D01*
X224039Y425145D01*
X223930Y425193D01*
X223824Y425247D01*
X223785Y425256D01*
X223747Y425272D01*
X223630Y425291D01*
X223514Y425317D01*
X223473Y425315D01*
X223433Y425322D01*
X223315Y425311D01*
X223196Y425307D01*
X223157Y425296D01*
X223117Y425292D01*
X223004Y425252D01*
X222890Y425218D01*
X222856Y425198D01*
X222817Y425184D01*
X222719Y425117D01*
X222616Y425057D01*
X222571Y425017D01*
X222554Y425006D01*
X222541Y424990D01*
X222496Y424951D01*
X221685Y424140D01*
X221680Y424139D01*
X221570Y424096D01*
X221457Y424059D01*
X221422Y424037D01*
X221385Y424022D01*
X221289Y423953D01*
X221188Y423889D01*
X221160Y423859D01*
X221127Y423836D01*
X221051Y423744D01*
X220970Y423657D01*
X220950Y423622D01*
X220925Y423591D01*
X220874Y423483D01*
X220816Y423379D01*
X220806Y423339D01*
X220789Y423303D01*
X220767Y423186D01*
X220737Y423071D01*
X220733Y423011D01*
X220729Y422991D01*
X220731Y422970D01*
X220727Y422910D01*
X220727Y421604D01*
X220336Y421213D01*
X220276Y421135D01*
X220208Y421063D01*
X220179Y421010D01*
X220142Y420962D01*
X220102Y420871D01*
X220054Y420784D01*
X220039Y420726D01*
X220015Y420670D01*
X220000Y420572D01*
X219975Y420477D01*
X219969Y420376D01*
X219965Y420356D01*
X219967Y420344D01*
X219965Y420316D01*
X219965Y418686D01*
X217584Y416305D01*
X214216Y416305D01*
X211835Y418686D01*
X211835Y422054D01*
X213407Y423625D01*
X213480Y423720D01*
X213559Y423809D01*
X213577Y423845D01*
X213602Y423877D01*
X213649Y423986D01*
X213703Y424092D01*
X213712Y424131D01*
X213728Y424168D01*
X213747Y424286D01*
X213773Y424402D01*
X213772Y424442D01*
X213778Y424482D01*
X213767Y424601D01*
X213763Y424720D01*
X213752Y424759D01*
X213748Y424799D01*
X213708Y424911D01*
X213675Y425026D01*
X213654Y425060D01*
X213641Y425098D01*
X213613Y425139D01*
X213613Y438386D01*
X214648Y439421D01*
X221724Y439421D01*
X222496Y438649D01*
X222590Y438576D01*
X222679Y438498D01*
X222715Y438479D01*
X222747Y438455D01*
X222856Y438407D01*
X222962Y438353D01*
X223001Y438344D01*
X223039Y438328D01*
X223156Y438309D01*
X223272Y438283D01*
X223313Y438285D01*
X223353Y438278D01*
X223471Y438289D01*
X223590Y438293D01*
X223629Y438304D01*
X223669Y438308D01*
X223781Y438348D01*
X223896Y438382D01*
X223931Y438402D01*
X223969Y438416D01*
X224067Y438483D01*
X224170Y438543D01*
X224215Y438583D01*
X224232Y438594D01*
X224245Y438610D01*
X224291Y438649D01*
X225062Y439421D01*
X232138Y439421D01*
X232910Y438649D01*
X233004Y438576D01*
X233093Y438498D01*
X233129Y438479D01*
X233161Y438455D01*
X233270Y438407D01*
X233376Y438353D01*
X233415Y438344D01*
X233453Y438328D01*
X233570Y438309D01*
X233686Y438283D01*
X233727Y438285D01*
X233767Y438278D01*
X233885Y438289D01*
X234004Y438293D01*
X234043Y438304D01*
X234083Y438308D01*
X234195Y438348D01*
X234310Y438382D01*
X234345Y438402D01*
X234383Y438416D01*
X234481Y438483D01*
X234584Y438543D01*
X234629Y438583D01*
X234646Y438594D01*
X234659Y438610D01*
X234705Y438649D01*
X235476Y439421D01*
X242552Y439421D01*
X243587Y438386D01*
X243587Y435610D01*
X243602Y435492D01*
X243609Y435373D01*
X243622Y435335D01*
X243627Y435294D01*
X243670Y435184D01*
X243707Y435071D01*
X243729Y435036D01*
X243744Y434999D01*
X243813Y434903D01*
X243877Y434802D01*
X243907Y434774D01*
X243930Y434741D01*
X244022Y434665D01*
X244109Y434584D01*
X244144Y434564D01*
X244175Y434539D01*
X244283Y434488D01*
X244387Y434430D01*
X244427Y434420D01*
X244463Y434403D01*
X244580Y434381D01*
X244695Y434351D01*
X244755Y434347D01*
X244775Y434343D01*
X244796Y434345D01*
X244856Y434341D01*
X249972Y434341D01*
X256541Y427772D01*
X256541Y426643D01*
X256553Y426545D01*
X256556Y426446D01*
X256573Y426388D01*
X256581Y426328D01*
X256617Y426236D01*
X256645Y426141D01*
X256675Y426089D01*
X256698Y426032D01*
X256756Y425952D01*
X256806Y425867D01*
X256872Y425791D01*
X256884Y425775D01*
X256894Y425767D01*
X256912Y425746D01*
X258065Y424594D01*
X258065Y421226D01*
X255684Y418845D01*
X252316Y418845D01*
X249935Y421226D01*
X249935Y424594D01*
X250337Y424995D01*
X250410Y425089D01*
X250488Y425178D01*
X250507Y425214D01*
X250532Y425246D01*
X250579Y425356D01*
X250633Y425462D01*
X250642Y425501D01*
X250658Y425538D01*
X250677Y425656D01*
X250703Y425772D01*
X250702Y425812D01*
X250708Y425852D01*
X250697Y425971D01*
X250693Y426090D01*
X250682Y426129D01*
X250678Y426169D01*
X250638Y426281D01*
X250605Y426395D01*
X250584Y426430D01*
X250570Y426468D01*
X250504Y426567D01*
X250443Y426669D01*
X250403Y426715D01*
X250392Y426731D01*
X250377Y426745D01*
X250337Y426790D01*
X248239Y428888D01*
X248161Y428948D01*
X248089Y429016D01*
X248036Y429045D01*
X247988Y429082D01*
X247897Y429122D01*
X247810Y429170D01*
X247752Y429185D01*
X247696Y429209D01*
X247598Y429224D01*
X247503Y429249D01*
X247402Y429255D01*
X247382Y429259D01*
X247370Y429257D01*
X247342Y429259D01*
X244856Y429259D01*
X244738Y429244D01*
X244619Y429237D01*
X244581Y429224D01*
X244540Y429219D01*
X244430Y429176D01*
X244317Y429139D01*
X244282Y429117D01*
X244245Y429102D01*
X244149Y429033D01*
X244048Y428969D01*
X244020Y428939D01*
X243987Y428916D01*
X243911Y428824D01*
X243830Y428737D01*
X243810Y428702D01*
X243785Y428671D01*
X243734Y428563D01*
X243676Y428459D01*
X243666Y428419D01*
X243649Y428383D01*
X243627Y428266D01*
X243597Y428151D01*
X243593Y428091D01*
X243589Y428071D01*
X243591Y428050D01*
X243587Y427990D01*
X243587Y425214D01*
X242552Y424179D01*
X235476Y424179D01*
X234705Y424951D01*
X234611Y425023D01*
X234521Y425102D01*
X234485Y425121D01*
X234453Y425145D01*
X234344Y425193D01*
X234238Y425247D01*
X234199Y425256D01*
X234161Y425272D01*
X234044Y425291D01*
X233928Y425317D01*
X233887Y425315D01*
X233847Y425322D01*
X233729Y425311D01*
X233610Y425307D01*
X233571Y425296D01*
X233531Y425292D01*
X233418Y425252D01*
X233304Y425218D01*
X233270Y425198D01*
X233231Y425184D01*
X233133Y425117D01*
X233030Y425057D01*
X232985Y425017D01*
X232968Y425006D01*
X232955Y424990D01*
X232910Y424951D01*
X232099Y424140D01*
X232094Y424139D01*
X231984Y424096D01*
X231871Y424059D01*
X231836Y424037D01*
X231799Y424022D01*
X231703Y423953D01*
X231602Y423889D01*
X231574Y423859D01*
X231541Y423836D01*
X231465Y423744D01*
X231384Y423657D01*
X231364Y423622D01*
X231339Y423591D01*
X231288Y423483D01*
X231230Y423379D01*
X231220Y423339D01*
X231203Y423303D01*
X231181Y423186D01*
X231151Y423071D01*
X231147Y423011D01*
X231143Y422991D01*
X231145Y422970D01*
X231141Y422910D01*
X231141Y417563D01*
X231153Y417465D01*
X231156Y417366D01*
X231173Y417308D01*
X231181Y417247D01*
X231217Y417155D01*
X231245Y417060D01*
X231275Y417008D01*
X231298Y416952D01*
X231356Y416872D01*
X231406Y416786D01*
X231472Y416711D01*
X231484Y416694D01*
X231494Y416687D01*
X231512Y416666D01*
X232891Y415287D01*
X232891Y411733D01*
X230377Y409219D01*
X226823Y409219D01*
G37*
%LPD*%
%LPC*%
G36*
X360266Y237235D02*
X360266Y237235D01*
X357885Y239616D01*
X357885Y242984D01*
X359038Y244136D01*
X359098Y244214D01*
X359166Y244286D01*
X359195Y244339D01*
X359232Y244387D01*
X359272Y244478D01*
X359320Y244565D01*
X359335Y244623D01*
X359359Y244679D01*
X359374Y244777D01*
X359399Y244873D01*
X359405Y244973D01*
X359409Y244993D01*
X359407Y245005D01*
X359409Y245033D01*
X359409Y274102D01*
X371182Y285876D01*
X371201Y285899D01*
X371223Y285918D01*
X371298Y286024D01*
X371377Y286127D01*
X371389Y286154D01*
X371406Y286178D01*
X371452Y286299D01*
X371504Y286419D01*
X371508Y286448D01*
X371519Y286475D01*
X371533Y286604D01*
X371554Y286733D01*
X371551Y286762D01*
X371554Y286792D01*
X371536Y286920D01*
X371524Y287049D01*
X371514Y287077D01*
X371510Y287106D01*
X371458Y287259D01*
X370331Y289978D01*
X370331Y294222D01*
X371955Y298143D01*
X374957Y301145D01*
X378878Y302769D01*
X383122Y302769D01*
X387043Y301145D01*
X390045Y298143D01*
X391669Y294222D01*
X391669Y289978D01*
X390045Y286057D01*
X387043Y283055D01*
X383122Y281431D01*
X378878Y281431D01*
X376159Y282558D01*
X376130Y282565D01*
X376104Y282579D01*
X375977Y282607D01*
X375852Y282641D01*
X375823Y282642D01*
X375794Y282648D01*
X375664Y282644D01*
X375534Y282647D01*
X375505Y282640D01*
X375476Y282639D01*
X375351Y282603D01*
X375225Y282572D01*
X375199Y282559D01*
X375170Y282550D01*
X375059Y282485D01*
X374944Y282424D01*
X374922Y282404D01*
X374896Y282389D01*
X374776Y282282D01*
X364862Y272369D01*
X364802Y272291D01*
X364734Y272219D01*
X364705Y272166D01*
X364668Y272118D01*
X364628Y272027D01*
X364580Y271940D01*
X364565Y271882D01*
X364541Y271826D01*
X364526Y271728D01*
X364501Y271633D01*
X364495Y271532D01*
X364491Y271512D01*
X364493Y271500D01*
X364491Y271472D01*
X364491Y245033D01*
X364503Y244935D01*
X364506Y244836D01*
X364523Y244778D01*
X364531Y244718D01*
X364567Y244626D01*
X364595Y244531D01*
X364625Y244479D01*
X364648Y244422D01*
X364706Y244342D01*
X364756Y244257D01*
X364822Y244181D01*
X364834Y244165D01*
X364844Y244157D01*
X364862Y244136D01*
X366015Y242984D01*
X366015Y239616D01*
X363634Y237235D01*
X360266Y237235D01*
G37*
%LPD*%
%LPC*%
G36*
X120236Y164845D02*
X120236Y164845D01*
X117855Y167226D01*
X117855Y168830D01*
X117840Y168948D01*
X117833Y169067D01*
X117820Y169105D01*
X117815Y169146D01*
X117772Y169256D01*
X117735Y169369D01*
X117713Y169404D01*
X117698Y169441D01*
X117629Y169537D01*
X117565Y169638D01*
X117535Y169666D01*
X117512Y169699D01*
X117420Y169775D01*
X117333Y169856D01*
X117298Y169876D01*
X117267Y169901D01*
X117159Y169952D01*
X117055Y170010D01*
X117015Y170020D01*
X116979Y170037D01*
X116862Y170059D01*
X116747Y170089D01*
X116687Y170093D01*
X116667Y170097D01*
X116646Y170095D01*
X116586Y170099D01*
X113886Y170099D01*
X112908Y171078D01*
X112830Y171138D01*
X112758Y171206D01*
X112705Y171235D01*
X112657Y171272D01*
X112566Y171312D01*
X112479Y171360D01*
X112421Y171375D01*
X112365Y171399D01*
X112267Y171414D01*
X112171Y171439D01*
X112071Y171445D01*
X112051Y171449D01*
X112039Y171447D01*
X112011Y171449D01*
X82473Y171449D01*
X82375Y171437D01*
X82276Y171434D01*
X82218Y171417D01*
X82158Y171409D01*
X82066Y171373D01*
X81971Y171345D01*
X81919Y171315D01*
X81862Y171292D01*
X81782Y171234D01*
X81697Y171184D01*
X81621Y171118D01*
X81605Y171106D01*
X81597Y171096D01*
X81576Y171078D01*
X80424Y169925D01*
X77056Y169925D01*
X74675Y172306D01*
X74675Y175674D01*
X77056Y178055D01*
X80424Y178055D01*
X81576Y176902D01*
X81654Y176842D01*
X81726Y176774D01*
X81779Y176745D01*
X81827Y176708D01*
X81918Y176668D01*
X82005Y176620D01*
X82063Y176605D01*
X82119Y176581D01*
X82217Y176566D01*
X82313Y176541D01*
X82413Y176535D01*
X82433Y176531D01*
X82445Y176533D01*
X82473Y176531D01*
X111663Y176531D01*
X111761Y176543D01*
X111860Y176546D01*
X111918Y176563D01*
X111978Y176571D01*
X112070Y176607D01*
X112165Y176635D01*
X112217Y176665D01*
X112274Y176688D01*
X112354Y176746D01*
X112439Y176796D01*
X112515Y176862D01*
X112531Y176874D01*
X112539Y176884D01*
X112560Y176902D01*
X113773Y178116D01*
X113847Y178210D01*
X113925Y178299D01*
X113944Y178335D01*
X113968Y178367D01*
X114016Y178477D01*
X114070Y178583D01*
X114079Y178622D01*
X114095Y178659D01*
X114113Y178777D01*
X114139Y178893D01*
X114138Y178933D01*
X114145Y178973D01*
X114133Y179092D01*
X114130Y179211D01*
X114119Y179250D01*
X114115Y179290D01*
X114074Y179402D01*
X114041Y179516D01*
X114021Y179551D01*
X114007Y179589D01*
X113940Y179688D01*
X113880Y179790D01*
X113840Y179835D01*
X113829Y179852D01*
X113813Y179866D01*
X113773Y179911D01*
X113717Y179968D01*
X113638Y180028D01*
X113566Y180096D01*
X113513Y180125D01*
X113465Y180163D01*
X113375Y180202D01*
X113288Y180250D01*
X113229Y180265D01*
X113173Y180289D01*
X113076Y180304D01*
X112980Y180329D01*
X112879Y180335D01*
X112859Y180339D01*
X112847Y180337D01*
X112819Y180339D01*
X103088Y180339D01*
X93299Y190128D01*
X93221Y190188D01*
X93149Y190256D01*
X93096Y190285D01*
X93048Y190322D01*
X92957Y190362D01*
X92870Y190410D01*
X92812Y190425D01*
X92756Y190449D01*
X92658Y190464D01*
X92563Y190489D01*
X92462Y190495D01*
X92442Y190499D01*
X92430Y190497D01*
X92402Y190499D01*
X91026Y190499D01*
X88645Y192880D01*
X88645Y196248D01*
X91026Y198629D01*
X94394Y198629D01*
X96775Y196248D01*
X96775Y194364D01*
X96787Y194266D01*
X96790Y194167D01*
X96807Y194109D01*
X96815Y194049D01*
X96851Y193957D01*
X96879Y193861D01*
X96909Y193809D01*
X96932Y193753D01*
X96990Y193673D01*
X97040Y193588D01*
X97106Y193512D01*
X97118Y193496D01*
X97128Y193488D01*
X97146Y193467D01*
X104821Y185792D01*
X104899Y185732D01*
X104971Y185664D01*
X105024Y185635D01*
X105072Y185598D01*
X105163Y185558D01*
X105250Y185510D01*
X105308Y185495D01*
X105364Y185471D01*
X105462Y185456D01*
X105557Y185431D01*
X105658Y185425D01*
X105678Y185421D01*
X105690Y185423D01*
X105718Y185421D01*
X115450Y185421D01*
X123445Y177426D01*
X123445Y173659D01*
X123457Y173561D01*
X123460Y173462D01*
X123477Y173404D01*
X123485Y173344D01*
X123521Y173252D01*
X123549Y173157D01*
X123579Y173105D01*
X123602Y173048D01*
X123660Y172968D01*
X123710Y172883D01*
X123776Y172807D01*
X123788Y172791D01*
X123798Y172783D01*
X123816Y172762D01*
X125985Y170594D01*
X125985Y167226D01*
X123604Y164845D01*
X120236Y164845D01*
G37*
%LPD*%
%LPC*%
G36*
X100170Y97535D02*
X100170Y97535D01*
X97789Y99916D01*
X97789Y103284D01*
X100170Y105665D01*
X103538Y105665D01*
X104690Y104512D01*
X104768Y104452D01*
X104840Y104384D01*
X104893Y104355D01*
X104941Y104318D01*
X105032Y104278D01*
X105119Y104230D01*
X105177Y104215D01*
X105233Y104191D01*
X105331Y104176D01*
X105427Y104151D01*
X105527Y104145D01*
X105547Y104141D01*
X105559Y104143D01*
X105587Y104141D01*
X187967Y104141D01*
X188065Y104153D01*
X188164Y104156D01*
X188222Y104173D01*
X188282Y104181D01*
X188374Y104217D01*
X188469Y104245D01*
X188521Y104275D01*
X188578Y104298D01*
X188658Y104356D01*
X188743Y104406D01*
X188819Y104472D01*
X188835Y104484D01*
X188843Y104494D01*
X188864Y104512D01*
X190016Y105665D01*
X193384Y105665D01*
X195765Y103284D01*
X195765Y99916D01*
X193384Y97535D01*
X190016Y97535D01*
X188864Y98688D01*
X188786Y98748D01*
X188714Y98816D01*
X188661Y98845D01*
X188613Y98882D01*
X188522Y98922D01*
X188435Y98970D01*
X188377Y98985D01*
X188321Y99009D01*
X188223Y99024D01*
X188127Y99049D01*
X188027Y99055D01*
X188007Y99059D01*
X187995Y99057D01*
X187967Y99059D01*
X105587Y99059D01*
X105489Y99047D01*
X105390Y99044D01*
X105332Y99027D01*
X105272Y99019D01*
X105180Y98983D01*
X105085Y98955D01*
X105033Y98925D01*
X104976Y98902D01*
X104896Y98844D01*
X104811Y98794D01*
X104735Y98728D01*
X104719Y98716D01*
X104711Y98706D01*
X104690Y98688D01*
X103538Y97535D01*
X100170Y97535D01*
G37*
%LPD*%
%LPC*%
G36*
X263816Y97535D02*
X263816Y97535D01*
X261435Y99916D01*
X261435Y103284D01*
X263816Y105665D01*
X267184Y105665D01*
X268336Y104512D01*
X268414Y104452D01*
X268486Y104384D01*
X268539Y104355D01*
X268587Y104318D01*
X268678Y104278D01*
X268765Y104230D01*
X268823Y104215D01*
X268879Y104191D01*
X268977Y104176D01*
X269073Y104151D01*
X269173Y104145D01*
X269193Y104141D01*
X269205Y104143D01*
X269233Y104141D01*
X351613Y104141D01*
X351711Y104153D01*
X351810Y104156D01*
X351868Y104173D01*
X351928Y104181D01*
X352020Y104217D01*
X352115Y104245D01*
X352167Y104275D01*
X352224Y104298D01*
X352304Y104356D01*
X352389Y104406D01*
X352465Y104472D01*
X352481Y104484D01*
X352489Y104494D01*
X352510Y104512D01*
X353662Y105665D01*
X357030Y105665D01*
X359411Y103284D01*
X359411Y99916D01*
X357030Y97535D01*
X353662Y97535D01*
X352510Y98688D01*
X352432Y98748D01*
X352360Y98816D01*
X352307Y98845D01*
X352259Y98882D01*
X352168Y98922D01*
X352081Y98970D01*
X352023Y98985D01*
X351967Y99009D01*
X351869Y99024D01*
X351773Y99049D01*
X351673Y99055D01*
X351653Y99059D01*
X351641Y99057D01*
X351613Y99059D01*
X269233Y99059D01*
X269135Y99047D01*
X269036Y99044D01*
X268978Y99027D01*
X268918Y99019D01*
X268826Y98983D01*
X268731Y98955D01*
X268679Y98925D01*
X268622Y98902D01*
X268542Y98844D01*
X268457Y98794D01*
X268381Y98728D01*
X268365Y98716D01*
X268357Y98706D01*
X268336Y98688D01*
X267184Y97535D01*
X263816Y97535D01*
G37*
%LPD*%
%LPC*%
G36*
X49601Y174071D02*
X49601Y174071D01*
X47385Y174989D01*
X45689Y176685D01*
X44771Y178901D01*
X44771Y181299D01*
X45689Y183515D01*
X47385Y185211D01*
X48125Y185517D01*
X48186Y185552D01*
X48250Y185578D01*
X48323Y185630D01*
X48401Y185675D01*
X48451Y185723D01*
X48508Y185764D01*
X48565Y185834D01*
X48630Y185896D01*
X48666Y185956D01*
X48711Y186009D01*
X48749Y186091D01*
X48796Y186167D01*
X48816Y186234D01*
X48846Y186297D01*
X48863Y186385D01*
X48889Y186471D01*
X48893Y186541D01*
X48906Y186610D01*
X48900Y186699D01*
X48905Y186789D01*
X48890Y186857D01*
X48886Y186927D01*
X48859Y187012D01*
X48840Y187100D01*
X48810Y187163D01*
X48788Y187229D01*
X48740Y187305D01*
X48701Y187386D01*
X48655Y187439D01*
X48618Y187498D01*
X48552Y187560D01*
X48494Y187628D01*
X48437Y187668D01*
X48386Y187716D01*
X48308Y187760D01*
X48234Y187811D01*
X48169Y187836D01*
X48108Y187870D01*
X48021Y187892D01*
X47937Y187924D01*
X47868Y187932D01*
X47800Y187949D01*
X47639Y187959D01*
X29518Y187959D01*
X29420Y187947D01*
X29321Y187944D01*
X29263Y187927D01*
X29203Y187919D01*
X29111Y187883D01*
X29015Y187855D01*
X28963Y187825D01*
X28907Y187802D01*
X28827Y187744D01*
X28742Y187694D01*
X28666Y187628D01*
X28650Y187616D01*
X28642Y187606D01*
X28621Y187588D01*
X25772Y184739D01*
X25712Y184661D01*
X25644Y184589D01*
X25615Y184536D01*
X25578Y184488D01*
X25538Y184397D01*
X25490Y184310D01*
X25475Y184252D01*
X25451Y184196D01*
X25436Y184098D01*
X25411Y184003D01*
X25405Y183902D01*
X25401Y183882D01*
X25403Y183870D01*
X25401Y183842D01*
X25401Y182803D01*
X25413Y182705D01*
X25416Y182606D01*
X25433Y182548D01*
X25441Y182488D01*
X25477Y182396D01*
X25505Y182301D01*
X25535Y182249D01*
X25558Y182192D01*
X25616Y182112D01*
X25666Y182027D01*
X25732Y181951D01*
X25744Y181935D01*
X25754Y181927D01*
X25772Y181906D01*
X26925Y180754D01*
X26925Y177386D01*
X24544Y175005D01*
X21176Y175005D01*
X18795Y177386D01*
X18795Y180754D01*
X19948Y181906D01*
X20008Y181984D01*
X20076Y182056D01*
X20105Y182109D01*
X20142Y182157D01*
X20182Y182248D01*
X20230Y182335D01*
X20245Y182393D01*
X20269Y182449D01*
X20284Y182547D01*
X20309Y182643D01*
X20315Y182743D01*
X20319Y182763D01*
X20317Y182775D01*
X20319Y182803D01*
X20319Y186472D01*
X26888Y193041D01*
X64847Y193041D01*
X64945Y193053D01*
X65044Y193056D01*
X65102Y193073D01*
X65162Y193081D01*
X65254Y193117D01*
X65349Y193145D01*
X65401Y193175D01*
X65458Y193198D01*
X65538Y193256D01*
X65623Y193306D01*
X65699Y193372D01*
X65715Y193384D01*
X65723Y193394D01*
X65744Y193412D01*
X66896Y194565D01*
X70264Y194565D01*
X72645Y192184D01*
X72645Y188816D01*
X70264Y186435D01*
X66896Y186435D01*
X65744Y187588D01*
X65666Y187648D01*
X65594Y187716D01*
X65541Y187745D01*
X65493Y187782D01*
X65402Y187822D01*
X65315Y187870D01*
X65257Y187885D01*
X65201Y187909D01*
X65103Y187924D01*
X65007Y187949D01*
X64907Y187955D01*
X64887Y187959D01*
X64875Y187957D01*
X64847Y187959D01*
X53961Y187959D01*
X53892Y187951D01*
X53822Y187952D01*
X53734Y187931D01*
X53645Y187919D01*
X53580Y187894D01*
X53512Y187877D01*
X53433Y187835D01*
X53350Y187802D01*
X53293Y187761D01*
X53231Y187729D01*
X53165Y187668D01*
X53092Y187616D01*
X53048Y187562D01*
X52996Y187515D01*
X52947Y187440D01*
X52889Y187371D01*
X52860Y187307D01*
X52821Y187249D01*
X52792Y187164D01*
X52754Y187083D01*
X52741Y187014D01*
X52718Y186948D01*
X52711Y186859D01*
X52694Y186771D01*
X52698Y186701D01*
X52693Y186631D01*
X52708Y186543D01*
X52714Y186453D01*
X52735Y186387D01*
X52747Y186318D01*
X52784Y186236D01*
X52812Y186151D01*
X52849Y186092D01*
X52878Y186028D01*
X52934Y185958D01*
X52982Y185882D01*
X53033Y185834D01*
X53076Y185780D01*
X53148Y185726D01*
X53214Y185664D01*
X53275Y185630D01*
X53331Y185588D01*
X53475Y185517D01*
X54215Y185211D01*
X55911Y183515D01*
X56829Y181299D01*
X56829Y178901D01*
X55911Y176685D01*
X54215Y174989D01*
X51999Y174071D01*
X49601Y174071D01*
G37*
%LPD*%
%LPC*%
G36*
X213778Y116331D02*
X213778Y116331D01*
X209857Y117955D01*
X206855Y120957D01*
X205231Y124878D01*
X205231Y129122D01*
X206855Y133043D01*
X209857Y136045D01*
X213778Y137669D01*
X218022Y137669D01*
X221943Y136045D01*
X224945Y133043D01*
X226569Y129122D01*
X226569Y124878D01*
X224945Y120957D01*
X221943Y117955D01*
X218022Y116331D01*
X213778Y116331D01*
G37*
%LPD*%
%LPC*%
G36*
X378878Y306831D02*
X378878Y306831D01*
X374957Y308455D01*
X371955Y311457D01*
X370331Y315378D01*
X370331Y319622D01*
X371955Y323543D01*
X374957Y326545D01*
X378878Y328169D01*
X383122Y328169D01*
X387043Y326545D01*
X390045Y323543D01*
X391669Y319622D01*
X391669Y315378D01*
X390045Y311457D01*
X387043Y308455D01*
X383122Y306831D01*
X378878Y306831D01*
G37*
%LPD*%
%LPC*%
G36*
X74078Y306831D02*
X74078Y306831D01*
X70157Y308455D01*
X67155Y311457D01*
X65531Y315378D01*
X65531Y319622D01*
X67155Y323543D01*
X70157Y326545D01*
X74078Y328169D01*
X78322Y328169D01*
X82243Y326545D01*
X85245Y323543D01*
X86869Y319622D01*
X86869Y315378D01*
X85245Y311457D01*
X82243Y308455D01*
X78322Y306831D01*
X74078Y306831D01*
G37*
%LPD*%
%LPC*%
G36*
X378878Y433831D02*
X378878Y433831D01*
X374957Y435455D01*
X371955Y438457D01*
X370331Y442378D01*
X370331Y446622D01*
X371955Y450543D01*
X374957Y453545D01*
X378878Y455169D01*
X383122Y455169D01*
X387043Y453545D01*
X390045Y450543D01*
X391669Y446622D01*
X391669Y442378D01*
X390045Y438457D01*
X387043Y435455D01*
X383122Y433831D01*
X378878Y433831D01*
G37*
%LPD*%
%LPC*%
G36*
X74078Y433831D02*
X74078Y433831D01*
X70157Y435455D01*
X67155Y438457D01*
X65531Y442378D01*
X65531Y446622D01*
X67155Y450543D01*
X70157Y453545D01*
X74078Y455169D01*
X78322Y455169D01*
X82243Y453545D01*
X85245Y450543D01*
X86869Y446622D01*
X86869Y442378D01*
X85245Y438457D01*
X82243Y435455D01*
X78322Y433831D01*
X74078Y433831D01*
G37*
%LPD*%
%LPC*%
G36*
X378878Y205231D02*
X378878Y205231D01*
X374957Y206855D01*
X371955Y209857D01*
X370331Y213778D01*
X370331Y218022D01*
X371955Y221943D01*
X374957Y224945D01*
X378878Y226569D01*
X383122Y226569D01*
X387043Y224945D01*
X390045Y221943D01*
X391669Y218022D01*
X391669Y213778D01*
X390045Y209857D01*
X387043Y206855D01*
X383122Y205231D01*
X378878Y205231D01*
G37*
%LPD*%
%LPC*%
G36*
X74078Y281431D02*
X74078Y281431D01*
X70157Y283055D01*
X67155Y286057D01*
X65531Y289978D01*
X65531Y294222D01*
X67155Y298143D01*
X70157Y301145D01*
X74078Y302769D01*
X78322Y302769D01*
X82243Y301145D01*
X85245Y298143D01*
X86869Y294222D01*
X86869Y289978D01*
X85245Y286057D01*
X82243Y283055D01*
X78322Y281431D01*
X74078Y281431D01*
G37*
%LPD*%
%LPC*%
G36*
X74078Y256031D02*
X74078Y256031D01*
X70157Y257655D01*
X67155Y260657D01*
X65531Y264578D01*
X65531Y268822D01*
X67155Y272743D01*
X70157Y275745D01*
X74078Y277369D01*
X78322Y277369D01*
X82243Y275745D01*
X85245Y272743D01*
X86869Y268822D01*
X86869Y264578D01*
X85245Y260657D01*
X82243Y257655D01*
X78322Y256031D01*
X74078Y256031D01*
G37*
%LPD*%
%LPC*%
G36*
X378878Y408431D02*
X378878Y408431D01*
X374957Y410055D01*
X371955Y413057D01*
X370331Y416978D01*
X370331Y421222D01*
X371955Y425143D01*
X374957Y428145D01*
X378878Y429769D01*
X383122Y429769D01*
X387043Y428145D01*
X390045Y425143D01*
X391669Y421222D01*
X391669Y416978D01*
X390045Y413057D01*
X387043Y410055D01*
X383122Y408431D01*
X378878Y408431D01*
G37*
%LPD*%
%LPC*%
G36*
X74078Y408431D02*
X74078Y408431D01*
X70157Y410055D01*
X67155Y413057D01*
X65531Y416978D01*
X65531Y421222D01*
X67155Y425143D01*
X70157Y428145D01*
X74078Y429769D01*
X78322Y429769D01*
X82243Y428145D01*
X85245Y425143D01*
X86869Y421222D01*
X86869Y416978D01*
X85245Y413057D01*
X82243Y410055D01*
X78322Y408431D01*
X74078Y408431D01*
G37*
%LPD*%
%LPC*%
G36*
X378878Y383031D02*
X378878Y383031D01*
X374957Y384655D01*
X371955Y387657D01*
X370331Y391578D01*
X370331Y395822D01*
X371955Y399743D01*
X374957Y402745D01*
X378878Y404369D01*
X383122Y404369D01*
X387043Y402745D01*
X390045Y399743D01*
X391669Y395822D01*
X391669Y391578D01*
X390045Y387657D01*
X387043Y384655D01*
X383122Y383031D01*
X378878Y383031D01*
G37*
%LPD*%
%LPC*%
G36*
X378878Y256031D02*
X378878Y256031D01*
X374957Y257655D01*
X371955Y260657D01*
X370331Y264578D01*
X370331Y268822D01*
X371955Y272743D01*
X374957Y275745D01*
X378878Y277369D01*
X383122Y277369D01*
X387043Y275745D01*
X390045Y272743D01*
X391669Y268822D01*
X391669Y264578D01*
X390045Y260657D01*
X387043Y257655D01*
X383122Y256031D01*
X378878Y256031D01*
G37*
%LPD*%
%LPC*%
G36*
X378878Y332231D02*
X378878Y332231D01*
X374957Y333855D01*
X371955Y336857D01*
X370331Y340778D01*
X370331Y345022D01*
X371955Y348943D01*
X374957Y351945D01*
X378878Y353569D01*
X383122Y353569D01*
X387043Y351945D01*
X390045Y348943D01*
X391669Y345022D01*
X391669Y340778D01*
X390045Y336857D01*
X387043Y333855D01*
X383122Y332231D01*
X378878Y332231D01*
G37*
%LPD*%
%LPC*%
G36*
X21176Y150875D02*
X21176Y150875D01*
X18795Y153256D01*
X18795Y156624D01*
X21176Y159005D01*
X22806Y159005D01*
X22904Y159017D01*
X23003Y159020D01*
X23061Y159037D01*
X23121Y159045D01*
X23213Y159081D01*
X23309Y159109D01*
X23361Y159139D01*
X23417Y159162D01*
X23497Y159220D01*
X23582Y159270D01*
X23658Y159336D01*
X23674Y159348D01*
X23682Y159358D01*
X23703Y159376D01*
X31968Y167641D01*
X64847Y167641D01*
X64945Y167653D01*
X65044Y167656D01*
X65102Y167673D01*
X65162Y167681D01*
X65254Y167717D01*
X65349Y167745D01*
X65401Y167775D01*
X65458Y167798D01*
X65538Y167856D01*
X65623Y167906D01*
X65699Y167972D01*
X65715Y167984D01*
X65723Y167994D01*
X65744Y168012D01*
X66896Y169165D01*
X70264Y169165D01*
X72645Y166784D01*
X72645Y163416D01*
X70264Y161035D01*
X66896Y161035D01*
X65744Y162188D01*
X65666Y162248D01*
X65594Y162316D01*
X65541Y162345D01*
X65493Y162382D01*
X65402Y162422D01*
X65315Y162470D01*
X65257Y162485D01*
X65201Y162509D01*
X65103Y162524D01*
X65007Y162549D01*
X64907Y162555D01*
X64887Y162559D01*
X64875Y162557D01*
X64847Y162559D01*
X34598Y162559D01*
X34500Y162547D01*
X34401Y162544D01*
X34343Y162527D01*
X34283Y162519D01*
X34191Y162483D01*
X34095Y162455D01*
X34043Y162425D01*
X33987Y162402D01*
X33907Y162344D01*
X33822Y162294D01*
X33746Y162228D01*
X33730Y162216D01*
X33722Y162206D01*
X33701Y162188D01*
X27296Y155783D01*
X27236Y155705D01*
X27168Y155633D01*
X27139Y155580D01*
X27102Y155532D01*
X27062Y155441D01*
X27014Y155354D01*
X26999Y155296D01*
X26975Y155240D01*
X26960Y155142D01*
X26935Y155047D01*
X26929Y154946D01*
X26925Y154926D01*
X26927Y154914D01*
X26925Y154886D01*
X26925Y153256D01*
X24544Y150875D01*
X21176Y150875D01*
G37*
%LPD*%
%LPC*%
G36*
X102456Y267715D02*
X102456Y267715D01*
X100075Y270096D01*
X100075Y273464D01*
X102456Y275845D01*
X105824Y275845D01*
X106976Y274692D01*
X107054Y274632D01*
X107126Y274564D01*
X107179Y274535D01*
X107227Y274498D01*
X107318Y274458D01*
X107405Y274410D01*
X107463Y274395D01*
X107519Y274371D01*
X107617Y274356D01*
X107713Y274331D01*
X107813Y274325D01*
X107833Y274321D01*
X107845Y274323D01*
X107873Y274321D01*
X137237Y274321D01*
X137335Y274333D01*
X137434Y274336D01*
X137492Y274353D01*
X137552Y274361D01*
X137644Y274397D01*
X137739Y274425D01*
X137791Y274455D01*
X137848Y274478D01*
X137928Y274536D01*
X138013Y274586D01*
X138089Y274652D01*
X138105Y274664D01*
X138113Y274674D01*
X138134Y274692D01*
X139286Y275845D01*
X142654Y275845D01*
X145035Y273464D01*
X145035Y270096D01*
X142654Y267715D01*
X139286Y267715D01*
X138134Y268868D01*
X138056Y268928D01*
X137984Y268996D01*
X137931Y269025D01*
X137883Y269062D01*
X137792Y269102D01*
X137705Y269150D01*
X137647Y269165D01*
X137591Y269189D01*
X137493Y269204D01*
X137397Y269229D01*
X137297Y269235D01*
X137277Y269239D01*
X137265Y269237D01*
X137237Y269239D01*
X107873Y269239D01*
X107775Y269227D01*
X107676Y269224D01*
X107618Y269207D01*
X107558Y269199D01*
X107466Y269163D01*
X107371Y269135D01*
X107319Y269105D01*
X107262Y269082D01*
X107182Y269024D01*
X107097Y268974D01*
X107021Y268908D01*
X107005Y268896D01*
X106997Y268886D01*
X106976Y268868D01*
X105824Y267715D01*
X102456Y267715D01*
G37*
%LPD*%
%LPC*%
G36*
X23591Y102869D02*
X23591Y102869D01*
X22818Y103076D01*
X22126Y103476D01*
X21589Y104012D01*
X21495Y104085D01*
X21406Y104164D01*
X21370Y104183D01*
X21338Y104207D01*
X21229Y104255D01*
X21123Y104309D01*
X21084Y104318D01*
X21046Y104334D01*
X20929Y104352D01*
X20813Y104378D01*
X20772Y104377D01*
X20732Y104384D01*
X20614Y104372D01*
X20495Y104369D01*
X20456Y104358D01*
X20416Y104354D01*
X20304Y104314D01*
X20189Y104280D01*
X20154Y104260D01*
X20116Y104246D01*
X20018Y104179D01*
X19950Y104139D01*
X12845Y104139D01*
X11810Y105174D01*
X11810Y116024D01*
X11798Y116122D01*
X11795Y116221D01*
X11788Y116244D01*
X11788Y116249D01*
X11778Y116280D01*
X11770Y116339D01*
X11734Y116431D01*
X11706Y116527D01*
X11676Y116579D01*
X11653Y116635D01*
X11595Y116715D01*
X11545Y116800D01*
X11479Y116876D01*
X11467Y116892D01*
X11457Y116900D01*
X11439Y116921D01*
X10241Y118119D01*
X10163Y118179D01*
X10091Y118247D01*
X10038Y118276D01*
X9990Y118313D01*
X9899Y118353D01*
X9812Y118401D01*
X9754Y118416D01*
X9698Y118440D01*
X9600Y118455D01*
X9505Y118480D01*
X9404Y118486D01*
X9384Y118490D01*
X9372Y118488D01*
X9344Y118490D01*
X9111Y118490D01*
X6730Y120871D01*
X6730Y124239D01*
X9111Y126620D01*
X12479Y126620D01*
X14860Y124239D01*
X14860Y121212D01*
X14872Y121114D01*
X14875Y121015D01*
X14892Y120957D01*
X14900Y120897D01*
X14936Y120805D01*
X14964Y120709D01*
X14994Y120657D01*
X15017Y120601D01*
X15075Y120521D01*
X15125Y120436D01*
X15191Y120360D01*
X15203Y120344D01*
X15213Y120336D01*
X15231Y120315D01*
X15794Y119752D01*
X15872Y119692D01*
X15944Y119624D01*
X15997Y119595D01*
X16045Y119558D01*
X16136Y119518D01*
X16223Y119470D01*
X16281Y119455D01*
X16337Y119431D01*
X16435Y119416D01*
X16530Y119391D01*
X16631Y119385D01*
X16651Y119381D01*
X16663Y119383D01*
X16691Y119381D01*
X19949Y119381D01*
X19978Y119356D01*
X20014Y119337D01*
X20046Y119313D01*
X20155Y119265D01*
X20261Y119211D01*
X20300Y119202D01*
X20338Y119186D01*
X20455Y119168D01*
X20571Y119141D01*
X20612Y119143D01*
X20652Y119136D01*
X20770Y119148D01*
X20889Y119151D01*
X20928Y119162D01*
X20968Y119166D01*
X21080Y119206D01*
X21195Y119240D01*
X21230Y119260D01*
X21268Y119274D01*
X21366Y119341D01*
X21469Y119401D01*
X21514Y119441D01*
X21531Y119452D01*
X21544Y119468D01*
X21589Y119508D01*
X22126Y120044D01*
X22818Y120444D01*
X23591Y120651D01*
X25147Y120651D01*
X25147Y113093D01*
X14605Y113093D01*
X14586Y113081D01*
X14564Y113077D01*
X14557Y113062D01*
X14548Y113056D01*
X14549Y113046D01*
X14542Y113030D01*
X14542Y110490D01*
X14554Y110471D01*
X14558Y110449D01*
X14573Y110442D01*
X14579Y110433D01*
X14589Y110434D01*
X14605Y110427D01*
X25147Y110427D01*
X25147Y102869D01*
X23591Y102869D01*
G37*
%LPD*%
%LPC*%
G36*
X23591Y72389D02*
X23591Y72389D01*
X22818Y72596D01*
X22126Y72996D01*
X21589Y73532D01*
X21495Y73606D01*
X21406Y73684D01*
X21370Y73703D01*
X21338Y73727D01*
X21229Y73775D01*
X21123Y73829D01*
X21083Y73838D01*
X21046Y73854D01*
X20928Y73872D01*
X20812Y73898D01*
X20772Y73897D01*
X20732Y73904D01*
X20613Y73892D01*
X20495Y73889D01*
X20456Y73878D01*
X20416Y73874D01*
X20303Y73833D01*
X20189Y73800D01*
X20154Y73780D01*
X20116Y73766D01*
X20018Y73699D01*
X19950Y73659D01*
X12845Y73659D01*
X11810Y74694D01*
X11810Y84633D01*
X11798Y84731D01*
X11795Y84830D01*
X11778Y84888D01*
X11770Y84949D01*
X11734Y85041D01*
X11706Y85136D01*
X11676Y85188D01*
X11653Y85244D01*
X11595Y85324D01*
X11545Y85410D01*
X11479Y85485D01*
X11467Y85502D01*
X11457Y85509D01*
X11439Y85531D01*
X11236Y85734D01*
X11157Y85794D01*
X11085Y85862D01*
X11032Y85891D01*
X10984Y85928D01*
X10893Y85968D01*
X10807Y86016D01*
X10748Y86031D01*
X10692Y86055D01*
X10594Y86070D01*
X10499Y86095D01*
X10399Y86101D01*
X10378Y86105D01*
X10366Y86103D01*
X10338Y86105D01*
X8476Y86105D01*
X6095Y88486D01*
X6095Y91854D01*
X8476Y94235D01*
X11844Y94235D01*
X14225Y91854D01*
X14225Y90170D01*
X14240Y90052D01*
X14247Y89933D01*
X14260Y89895D01*
X14265Y89854D01*
X14308Y89744D01*
X14345Y89631D01*
X14367Y89596D01*
X14382Y89559D01*
X14451Y89463D01*
X14515Y89362D01*
X14545Y89334D01*
X14568Y89301D01*
X14660Y89225D01*
X14747Y89144D01*
X14782Y89124D01*
X14813Y89099D01*
X14921Y89048D01*
X15025Y88990D01*
X15065Y88980D01*
X15101Y88963D01*
X15218Y88941D01*
X15333Y88911D01*
X15393Y88907D01*
X15413Y88903D01*
X15434Y88905D01*
X15494Y88901D01*
X19949Y88901D01*
X19978Y88876D01*
X20014Y88857D01*
X20046Y88833D01*
X20155Y88785D01*
X20261Y88731D01*
X20300Y88722D01*
X20338Y88706D01*
X20455Y88688D01*
X20571Y88661D01*
X20612Y88663D01*
X20652Y88656D01*
X20770Y88668D01*
X20889Y88671D01*
X20928Y88682D01*
X20968Y88686D01*
X21080Y88726D01*
X21195Y88760D01*
X21230Y88780D01*
X21268Y88794D01*
X21366Y88861D01*
X21469Y88921D01*
X21514Y88961D01*
X21531Y88972D01*
X21544Y88988D01*
X21589Y89028D01*
X22126Y89564D01*
X22818Y89964D01*
X23591Y90171D01*
X25147Y90171D01*
X25147Y82613D01*
X14605Y82613D01*
X14586Y82601D01*
X14564Y82597D01*
X14557Y82582D01*
X14548Y82576D01*
X14549Y82566D01*
X14542Y82550D01*
X14542Y80010D01*
X14554Y79991D01*
X14558Y79969D01*
X14573Y79962D01*
X14579Y79953D01*
X14589Y79954D01*
X14605Y79947D01*
X25147Y79947D01*
X25147Y72389D01*
X23591Y72389D01*
G37*
%LPD*%
%LPC*%
G36*
X289146Y322325D02*
X289146Y322325D01*
X286765Y324706D01*
X286765Y328074D01*
X287994Y329302D01*
X288067Y329397D01*
X288146Y329486D01*
X288164Y329522D01*
X288189Y329554D01*
X288236Y329663D01*
X288290Y329769D01*
X288299Y329808D01*
X288315Y329846D01*
X288334Y329963D01*
X288360Y330079D01*
X288359Y330120D01*
X288365Y330160D01*
X288354Y330278D01*
X288350Y330397D01*
X288339Y330436D01*
X288335Y330476D01*
X288295Y330589D01*
X288262Y330703D01*
X288242Y330737D01*
X288228Y330776D01*
X288161Y330874D01*
X288101Y330977D01*
X288061Y331022D01*
X288049Y331039D01*
X288034Y331052D01*
X287994Y331097D01*
X286765Y332326D01*
X286765Y335694D01*
X289146Y338075D01*
X292514Y338075D01*
X293742Y336846D01*
X293837Y336773D01*
X293926Y336694D01*
X293962Y336676D01*
X293994Y336651D01*
X294103Y336604D01*
X294209Y336550D01*
X294248Y336541D01*
X294286Y336525D01*
X294403Y336506D01*
X294519Y336480D01*
X294560Y336481D01*
X294600Y336475D01*
X294718Y336486D01*
X294837Y336490D01*
X294876Y336501D01*
X294916Y336505D01*
X295029Y336545D01*
X295143Y336578D01*
X295177Y336598D01*
X295216Y336612D01*
X295314Y336679D01*
X295417Y336739D01*
X295462Y336779D01*
X295479Y336791D01*
X295492Y336806D01*
X295537Y336846D01*
X296766Y338075D01*
X300134Y338075D01*
X302515Y335694D01*
X302515Y332326D01*
X301286Y331097D01*
X301213Y331003D01*
X301134Y330914D01*
X301116Y330878D01*
X301091Y330846D01*
X301044Y330737D01*
X300990Y330631D01*
X300981Y330592D01*
X300965Y330554D01*
X300946Y330437D01*
X300920Y330321D01*
X300921Y330280D01*
X300915Y330240D01*
X300926Y330122D01*
X300930Y330003D01*
X300941Y329964D01*
X300945Y329924D01*
X300985Y329812D01*
X301018Y329697D01*
X301038Y329662D01*
X301052Y329624D01*
X301119Y329526D01*
X301180Y329423D01*
X301219Y329378D01*
X301231Y329361D01*
X301246Y329348D01*
X301286Y329302D01*
X302515Y328074D01*
X302515Y324706D01*
X300134Y322325D01*
X296766Y322325D01*
X295537Y323554D01*
X295443Y323627D01*
X295354Y323706D01*
X295318Y323724D01*
X295286Y323749D01*
X295177Y323796D01*
X295071Y323850D01*
X295032Y323859D01*
X294994Y323875D01*
X294877Y323894D01*
X294761Y323920D01*
X294720Y323919D01*
X294680Y323925D01*
X294562Y323914D01*
X294443Y323910D01*
X294404Y323899D01*
X294364Y323895D01*
X294252Y323855D01*
X294137Y323822D01*
X294102Y323802D01*
X294064Y323788D01*
X293966Y323721D01*
X293863Y323660D01*
X293818Y323621D01*
X293801Y323609D01*
X293788Y323594D01*
X293742Y323554D01*
X292514Y322325D01*
X289146Y322325D01*
G37*
%LPD*%
%LPC*%
G36*
X157066Y364235D02*
X157066Y364235D01*
X154685Y366616D01*
X154685Y369984D01*
X155838Y371136D01*
X155898Y371214D01*
X155966Y371286D01*
X155995Y371339D01*
X156032Y371387D01*
X156072Y371478D01*
X156120Y371565D01*
X156135Y371623D01*
X156159Y371679D01*
X156174Y371777D01*
X156199Y371873D01*
X156205Y371973D01*
X156209Y371993D01*
X156207Y372005D01*
X156209Y372033D01*
X156209Y388697D01*
X156197Y388795D01*
X156194Y388894D01*
X156177Y388952D01*
X156169Y389012D01*
X156133Y389104D01*
X156105Y389199D01*
X156075Y389251D01*
X156052Y389308D01*
X155994Y389388D01*
X155944Y389473D01*
X155878Y389549D01*
X155866Y389565D01*
X155856Y389573D01*
X155838Y389594D01*
X154685Y390746D01*
X154685Y394114D01*
X157066Y396495D01*
X160434Y396495D01*
X162815Y394114D01*
X162815Y390746D01*
X161662Y389594D01*
X161602Y389516D01*
X161534Y389444D01*
X161505Y389391D01*
X161468Y389343D01*
X161428Y389252D01*
X161380Y389165D01*
X161365Y389107D01*
X161341Y389051D01*
X161326Y388953D01*
X161301Y388857D01*
X161295Y388757D01*
X161291Y388737D01*
X161293Y388725D01*
X161291Y388697D01*
X161291Y372033D01*
X161303Y371935D01*
X161306Y371836D01*
X161323Y371778D01*
X161331Y371718D01*
X161367Y371626D01*
X161395Y371531D01*
X161425Y371479D01*
X161448Y371422D01*
X161506Y371342D01*
X161556Y371257D01*
X161622Y371181D01*
X161634Y371165D01*
X161644Y371157D01*
X161662Y371136D01*
X162815Y369984D01*
X162815Y366616D01*
X160434Y364235D01*
X157066Y364235D01*
G37*
%LPD*%
%LPC*%
G36*
X299306Y242315D02*
X299306Y242315D01*
X296925Y244696D01*
X296925Y248064D01*
X299424Y250563D01*
X299497Y250657D01*
X299576Y250746D01*
X299594Y250782D01*
X299619Y250814D01*
X299666Y250923D01*
X299720Y251029D01*
X299729Y251068D01*
X299745Y251106D01*
X299764Y251223D01*
X299790Y251339D01*
X299789Y251380D01*
X299795Y251420D01*
X299784Y251538D01*
X299780Y251657D01*
X299769Y251696D01*
X299765Y251736D01*
X299725Y251848D01*
X299692Y251963D01*
X299672Y251998D01*
X299658Y252036D01*
X299591Y252134D01*
X299530Y252237D01*
X299491Y252282D01*
X299479Y252299D01*
X299464Y252312D01*
X299424Y252358D01*
X296925Y254856D01*
X296925Y258224D01*
X298789Y260087D01*
X298862Y260182D01*
X298941Y260271D01*
X298959Y260307D01*
X298984Y260339D01*
X299031Y260448D01*
X299085Y260554D01*
X299094Y260593D01*
X299110Y260631D01*
X299129Y260748D01*
X299155Y260864D01*
X299154Y260905D01*
X299160Y260945D01*
X299149Y261063D01*
X299145Y261182D01*
X299134Y261221D01*
X299130Y261261D01*
X299090Y261374D01*
X299057Y261488D01*
X299037Y261522D01*
X299023Y261561D01*
X298956Y261659D01*
X298896Y261762D01*
X298856Y261807D01*
X298844Y261824D01*
X298829Y261837D01*
X298789Y261882D01*
X296925Y263746D01*
X296925Y267114D01*
X299306Y269495D01*
X302674Y269495D01*
X305055Y267114D01*
X305055Y263746D01*
X303191Y261882D01*
X303118Y261788D01*
X303039Y261699D01*
X303021Y261663D01*
X302996Y261631D01*
X302949Y261522D01*
X302895Y261416D01*
X302886Y261377D01*
X302870Y261339D01*
X302851Y261222D01*
X302825Y261106D01*
X302826Y261065D01*
X302820Y261025D01*
X302831Y260907D01*
X302835Y260788D01*
X302846Y260749D01*
X302850Y260709D01*
X302890Y260597D01*
X302923Y260482D01*
X302943Y260447D01*
X302957Y260409D01*
X303024Y260311D01*
X303085Y260208D01*
X303124Y260163D01*
X303136Y260146D01*
X303151Y260133D01*
X303191Y260087D01*
X305055Y258224D01*
X305055Y254856D01*
X302556Y252358D01*
X302483Y252263D01*
X302404Y252174D01*
X302386Y252138D01*
X302361Y252106D01*
X302314Y251997D01*
X302260Y251891D01*
X302251Y251852D01*
X302235Y251814D01*
X302216Y251697D01*
X302190Y251581D01*
X302191Y251540D01*
X302185Y251500D01*
X302196Y251382D01*
X302200Y251263D01*
X302211Y251224D01*
X302215Y251184D01*
X302255Y251071D01*
X302288Y250957D01*
X302308Y250923D01*
X302322Y250884D01*
X302389Y250786D01*
X302449Y250683D01*
X302489Y250638D01*
X302501Y250621D01*
X302516Y250608D01*
X302556Y250563D01*
X305055Y248064D01*
X305055Y244696D01*
X302674Y242315D01*
X299306Y242315D01*
G37*
%LPD*%
%LPC*%
G36*
X398070Y519429D02*
X398070Y519429D01*
X396507Y520992D01*
X396507Y521490D01*
X396492Y521608D01*
X396485Y521727D01*
X396473Y521766D01*
X396468Y521806D01*
X396424Y521917D01*
X396387Y522030D01*
X396365Y522064D01*
X396351Y522101D01*
X396281Y522198D01*
X396217Y522298D01*
X396187Y522326D01*
X396164Y522359D01*
X396072Y522435D01*
X395985Y522516D01*
X395950Y522536D01*
X395919Y522562D01*
X395811Y522612D01*
X395707Y522670D01*
X395668Y522680D01*
X395638Y522694D01*
X394010Y524322D01*
X394010Y526532D01*
X395651Y528173D01*
X395664Y528179D01*
X395778Y528215D01*
X395812Y528237D01*
X395849Y528252D01*
X395946Y528322D01*
X396046Y528385D01*
X396074Y528415D01*
X396107Y528439D01*
X396183Y528530D01*
X396264Y528617D01*
X396284Y528652D01*
X396310Y528684D01*
X396360Y528791D01*
X396418Y528896D01*
X396428Y528935D01*
X396445Y528971D01*
X396467Y529088D01*
X396497Y529204D01*
X396501Y529264D01*
X396505Y529284D01*
X396504Y529304D01*
X396507Y529364D01*
X396507Y529862D01*
X398070Y531425D01*
X398832Y531425D01*
X398967Y531442D01*
X399103Y531454D01*
X399125Y531462D01*
X399148Y531465D01*
X399274Y531515D01*
X399402Y531561D01*
X399422Y531573D01*
X399443Y531582D01*
X399554Y531662D01*
X399666Y531738D01*
X399682Y531755D01*
X399701Y531769D01*
X399788Y531874D01*
X399878Y531975D01*
X399889Y531996D01*
X399904Y532014D01*
X399961Y532137D01*
X400024Y532258D01*
X400029Y532281D01*
X400039Y532302D01*
X400065Y532435D01*
X400095Y532568D01*
X400094Y532591D01*
X400099Y532614D01*
X400090Y532749D01*
X400087Y532886D01*
X400080Y532918D01*
X400079Y532931D01*
X400073Y532951D01*
X400053Y533043D01*
X398804Y537413D01*
X399877Y539345D01*
X402002Y539952D01*
X403934Y538878D01*
X407288Y527141D01*
X407320Y527066D01*
X407343Y526987D01*
X407382Y526920D01*
X407413Y526849D01*
X407463Y526784D01*
X407504Y526713D01*
X407603Y526601D01*
X407607Y526596D01*
X407608Y526595D01*
X407611Y526592D01*
X407671Y526532D01*
X407671Y525979D01*
X407683Y525883D01*
X407685Y525787D01*
X407692Y525755D01*
X407693Y525743D01*
X407699Y525725D01*
X407708Y525682D01*
X407711Y525663D01*
X407715Y525653D01*
X407720Y525630D01*
X407872Y525098D01*
X407830Y525023D01*
X407800Y524947D01*
X407760Y524876D01*
X407741Y524801D01*
X407712Y524728D01*
X407701Y524647D01*
X407681Y524568D01*
X407671Y524418D01*
X407671Y524413D01*
X407671Y524411D01*
X407671Y524407D01*
X407671Y524322D01*
X407279Y523931D01*
X407220Y523855D01*
X407154Y523785D01*
X407096Y523695D01*
X407084Y523679D01*
X407080Y523670D01*
X407067Y523650D01*
X406798Y523166D01*
X406717Y523142D01*
X406641Y523110D01*
X406563Y523087D01*
X406496Y523048D01*
X406424Y523017D01*
X406359Y522968D01*
X406289Y522926D01*
X406176Y522827D01*
X406172Y522824D01*
X406171Y522822D01*
X406168Y522819D01*
X406108Y522759D01*
X405554Y522759D01*
X405459Y522747D01*
X405363Y522745D01*
X405258Y522722D01*
X405239Y522720D01*
X405229Y522716D01*
X405206Y522711D01*
X404673Y522559D01*
X404599Y522600D01*
X404523Y522630D01*
X404451Y522670D01*
X404376Y522689D01*
X404304Y522718D01*
X404223Y522729D01*
X404143Y522749D01*
X403994Y522759D01*
X403989Y522759D01*
X403987Y522759D01*
X403983Y522759D01*
X403112Y522759D01*
X402994Y522745D01*
X402875Y522737D01*
X402837Y522725D01*
X402797Y522720D01*
X402686Y522676D01*
X402573Y522639D01*
X402538Y522617D01*
X402501Y522603D01*
X402405Y522533D01*
X402304Y522469D01*
X402276Y522440D01*
X402244Y522416D01*
X402168Y522324D01*
X402086Y522237D01*
X402067Y522202D01*
X402041Y522171D01*
X401990Y522063D01*
X401933Y521959D01*
X401922Y521920D01*
X401905Y521883D01*
X401883Y521766D01*
X401853Y521651D01*
X401849Y521591D01*
X401845Y521571D01*
X401847Y521550D01*
X401843Y521490D01*
X401843Y520992D01*
X400280Y519429D01*
X398070Y519429D01*
G37*
%LPD*%
%LPC*%
G36*
X116321Y76961D02*
X116321Y76961D01*
X113791Y79491D01*
X113791Y83069D01*
X116321Y85599D01*
X119899Y85599D01*
X121305Y84192D01*
X121383Y84132D01*
X121456Y84064D01*
X121509Y84035D01*
X121556Y83998D01*
X121647Y83958D01*
X121734Y83910D01*
X121793Y83895D01*
X121848Y83871D01*
X121946Y83856D01*
X122042Y83831D01*
X122142Y83825D01*
X122162Y83821D01*
X122175Y83823D01*
X122203Y83821D01*
X125741Y83821D01*
X125840Y83833D01*
X125939Y83836D01*
X125997Y83853D01*
X126057Y83861D01*
X126149Y83897D01*
X126244Y83925D01*
X126296Y83955D01*
X126353Y83978D01*
X126433Y84036D01*
X126518Y84086D01*
X126593Y84152D01*
X126610Y84164D01*
X126618Y84174D01*
X126639Y84192D01*
X128045Y85599D01*
X131623Y85599D01*
X134153Y83069D01*
X134153Y79491D01*
X131623Y76961D01*
X128045Y76961D01*
X126639Y78368D01*
X126561Y78428D01*
X126488Y78496D01*
X126435Y78525D01*
X126388Y78562D01*
X126297Y78602D01*
X126210Y78650D01*
X126151Y78665D01*
X126096Y78689D01*
X125998Y78704D01*
X125902Y78729D01*
X125802Y78735D01*
X125782Y78739D01*
X125769Y78737D01*
X125741Y78739D01*
X122203Y78739D01*
X122104Y78727D01*
X122005Y78724D01*
X121947Y78707D01*
X121887Y78699D01*
X121795Y78663D01*
X121700Y78635D01*
X121648Y78605D01*
X121591Y78582D01*
X121511Y78524D01*
X121426Y78474D01*
X121351Y78408D01*
X121334Y78396D01*
X121326Y78386D01*
X121305Y78368D01*
X119899Y76961D01*
X116321Y76961D01*
G37*
%LPD*%
%LPC*%
G36*
X320537Y74929D02*
X320537Y74929D01*
X318007Y77459D01*
X318007Y81037D01*
X320537Y83567D01*
X324115Y83567D01*
X325521Y82160D01*
X325599Y82100D01*
X325672Y82032D01*
X325725Y82003D01*
X325772Y81966D01*
X325863Y81926D01*
X325950Y81878D01*
X326009Y81863D01*
X326064Y81839D01*
X326162Y81824D01*
X326258Y81799D01*
X326358Y81793D01*
X326378Y81789D01*
X326391Y81791D01*
X326419Y81789D01*
X328941Y81789D01*
X329040Y81801D01*
X329139Y81804D01*
X329197Y81821D01*
X329257Y81829D01*
X329349Y81865D01*
X329444Y81893D01*
X329496Y81923D01*
X329553Y81946D01*
X329633Y82004D01*
X329718Y82054D01*
X329793Y82120D01*
X329810Y82132D01*
X329818Y82142D01*
X329839Y82160D01*
X331245Y83567D01*
X334823Y83567D01*
X337353Y81037D01*
X337353Y77459D01*
X334823Y74929D01*
X331245Y74929D01*
X329839Y76336D01*
X329761Y76396D01*
X329688Y76464D01*
X329635Y76493D01*
X329588Y76530D01*
X329497Y76570D01*
X329410Y76618D01*
X329351Y76633D01*
X329296Y76657D01*
X329198Y76672D01*
X329102Y76697D01*
X329002Y76703D01*
X328982Y76707D01*
X328969Y76705D01*
X328941Y76707D01*
X326419Y76707D01*
X326320Y76695D01*
X326221Y76692D01*
X326163Y76675D01*
X326103Y76667D01*
X326011Y76631D01*
X325916Y76603D01*
X325864Y76573D01*
X325807Y76550D01*
X325727Y76492D01*
X325642Y76442D01*
X325567Y76376D01*
X325550Y76364D01*
X325542Y76354D01*
X325521Y76336D01*
X324115Y74929D01*
X320537Y74929D01*
G37*
%LPD*%
%LPC*%
G36*
X63523Y511889D02*
X63523Y511889D01*
X61218Y512844D01*
X59454Y514608D01*
X58499Y516913D01*
X58499Y519407D01*
X59454Y521712D01*
X61218Y523476D01*
X63523Y524431D01*
X66017Y524431D01*
X68322Y523476D01*
X70086Y521712D01*
X71041Y519407D01*
X71041Y516913D01*
X70086Y514608D01*
X68322Y512844D01*
X66017Y511889D01*
X63523Y511889D01*
G37*
%LPD*%
%LPC*%
G36*
X392453Y6429D02*
X392453Y6429D01*
X390148Y7384D01*
X388384Y9148D01*
X387429Y11453D01*
X387429Y13947D01*
X388384Y16252D01*
X390148Y18016D01*
X392453Y18971D01*
X394947Y18971D01*
X397252Y18016D01*
X399016Y16252D01*
X399971Y13947D01*
X399971Y11453D01*
X399016Y9148D01*
X397252Y7384D01*
X394947Y6429D01*
X392453Y6429D01*
G37*
%LPD*%
%LPC*%
G36*
X167966Y44091D02*
X167966Y44091D01*
X166584Y44663D01*
X165341Y45494D01*
X164284Y46551D01*
X163453Y47794D01*
X162881Y49176D01*
X162874Y49211D01*
X162841Y49311D01*
X162816Y49412D01*
X162791Y49461D01*
X162773Y49513D01*
X162717Y49601D01*
X162668Y49693D01*
X162631Y49734D01*
X162601Y49780D01*
X162524Y49851D01*
X162454Y49928D01*
X162408Y49959D01*
X162367Y49996D01*
X162275Y50046D01*
X162188Y50103D01*
X162136Y50121D01*
X162087Y50147D01*
X161986Y50173D01*
X161887Y50206D01*
X161832Y50211D01*
X161779Y50224D01*
X161674Y50223D01*
X161570Y50232D01*
X161516Y50222D01*
X161461Y50222D01*
X161360Y50195D01*
X161257Y50177D01*
X161207Y50155D01*
X161153Y50140D01*
X161062Y50090D01*
X160967Y50047D01*
X160924Y50012D01*
X160876Y49985D01*
X160800Y49913D01*
X160719Y49848D01*
X160685Y49804D01*
X160645Y49766D01*
X160590Y49677D01*
X160527Y49594D01*
X160488Y49515D01*
X160477Y49496D01*
X160472Y49482D01*
X160456Y49449D01*
X160163Y48741D01*
X158749Y47327D01*
X156900Y46561D01*
X154900Y46561D01*
X153051Y47327D01*
X151637Y48741D01*
X150871Y50590D01*
X150871Y52590D01*
X151637Y54439D01*
X153051Y55853D01*
X154900Y56619D01*
X156900Y56619D01*
X158749Y55853D01*
X160177Y54425D01*
X160182Y54416D01*
X160208Y54351D01*
X160260Y54279D01*
X160305Y54200D01*
X160353Y54150D01*
X160394Y54094D01*
X160464Y54037D01*
X160526Y53972D01*
X160586Y53936D01*
X160639Y53891D01*
X160721Y53853D01*
X160797Y53806D01*
X160864Y53785D01*
X160927Y53755D01*
X161015Y53739D01*
X161101Y53712D01*
X161171Y53709D01*
X161239Y53696D01*
X161329Y53701D01*
X161419Y53697D01*
X161487Y53711D01*
X161557Y53715D01*
X161642Y53743D01*
X161730Y53761D01*
X161793Y53792D01*
X161859Y53813D01*
X161935Y53861D01*
X162016Y53901D01*
X162069Y53946D01*
X162128Y53984D01*
X162190Y54049D01*
X162258Y54107D01*
X162298Y54164D01*
X162346Y54215D01*
X162389Y54294D01*
X162441Y54367D01*
X162466Y54433D01*
X162500Y54494D01*
X162522Y54581D01*
X162554Y54665D01*
X162562Y54734D01*
X162579Y54802D01*
X162589Y54962D01*
X162589Y55621D01*
X165131Y55621D01*
X165131Y51390D01*
X165133Y51387D01*
X165131Y51385D01*
X165256Y50272D01*
X165262Y50266D01*
X165259Y50261D01*
X165629Y49204D01*
X165636Y49200D01*
X165633Y49194D01*
X166229Y48246D01*
X166237Y48243D01*
X166236Y48238D01*
X167028Y47446D01*
X167036Y47445D01*
X167036Y47439D01*
X167984Y46843D01*
X167993Y46844D01*
X167994Y46839D01*
X168911Y46518D01*
X168911Y43903D01*
X167966Y44091D01*
G37*
%LPD*%
%LPC*%
G36*
X288289Y46518D02*
X288289Y46518D01*
X289206Y46839D01*
X289210Y46846D01*
X289216Y46843D01*
X290164Y47439D01*
X290167Y47447D01*
X290172Y47446D01*
X290964Y48238D01*
X290965Y48246D01*
X290971Y48246D01*
X291567Y49194D01*
X291566Y49203D01*
X291571Y49204D01*
X291941Y50261D01*
X291940Y50265D01*
X291942Y50267D01*
X291940Y50270D01*
X291944Y50272D01*
X292069Y51385D01*
X292067Y51388D01*
X292069Y51390D01*
X292069Y55621D01*
X294611Y55621D01*
X294611Y54962D01*
X294619Y54893D01*
X294618Y54823D01*
X294639Y54736D01*
X294651Y54647D01*
X294676Y54582D01*
X294693Y54514D01*
X294735Y54434D01*
X294768Y54351D01*
X294809Y54295D01*
X294841Y54233D01*
X294902Y54166D01*
X294954Y54094D01*
X295008Y54049D01*
X295055Y53997D01*
X295130Y53948D01*
X295199Y53891D01*
X295263Y53861D01*
X295321Y53823D01*
X295406Y53794D01*
X295487Y53755D01*
X295556Y53742D01*
X295622Y53720D01*
X295711Y53712D01*
X295799Y53696D01*
X295869Y53700D01*
X295939Y53694D01*
X296027Y53710D01*
X296117Y53715D01*
X296183Y53737D01*
X296252Y53749D01*
X296334Y53786D01*
X296419Y53813D01*
X296478Y53851D01*
X296542Y53879D01*
X296612Y53935D01*
X296688Y53983D01*
X296736Y54034D01*
X296790Y54078D01*
X296844Y54150D01*
X296906Y54215D01*
X296940Y54276D01*
X296982Y54332D01*
X297031Y54433D01*
X298451Y55853D01*
X300300Y56619D01*
X302300Y56619D01*
X304149Y55853D01*
X305563Y54439D01*
X306329Y52590D01*
X306329Y50590D01*
X305563Y48741D01*
X304149Y47327D01*
X302300Y46561D01*
X300300Y46561D01*
X298451Y47327D01*
X297037Y48741D01*
X296744Y49449D01*
X296692Y49540D01*
X296648Y49635D01*
X296613Y49678D01*
X296586Y49726D01*
X296513Y49801D01*
X296447Y49882D01*
X296403Y49915D01*
X296365Y49954D01*
X296276Y50009D01*
X296192Y50071D01*
X296141Y50092D01*
X296094Y50120D01*
X295994Y50151D01*
X295897Y50190D01*
X295842Y50198D01*
X295790Y50214D01*
X295685Y50219D01*
X295582Y50233D01*
X295527Y50227D01*
X295472Y50229D01*
X295370Y50208D01*
X295266Y50196D01*
X295215Y50176D01*
X295161Y50165D01*
X295067Y50119D01*
X294969Y50081D01*
X294924Y50049D01*
X294875Y50025D01*
X294795Y49957D01*
X294710Y49897D01*
X294675Y49855D01*
X294633Y49819D01*
X294573Y49733D01*
X294505Y49653D01*
X294482Y49604D01*
X294450Y49559D01*
X294413Y49461D01*
X294367Y49367D01*
X294345Y49282D01*
X294337Y49261D01*
X294335Y49246D01*
X294326Y49211D01*
X294319Y49176D01*
X293747Y47794D01*
X292916Y46551D01*
X291859Y45494D01*
X290616Y44663D01*
X289234Y44091D01*
X288289Y43903D01*
X288289Y46518D01*
G37*
%LPD*%
%LPC*%
G36*
X49601Y144071D02*
X49601Y144071D01*
X47385Y144989D01*
X45689Y146685D01*
X44771Y148901D01*
X44771Y151299D01*
X45689Y153515D01*
X47385Y155211D01*
X49601Y156129D01*
X51999Y156129D01*
X54215Y155211D01*
X55911Y153515D01*
X56829Y151299D01*
X56829Y148901D01*
X55911Y146685D01*
X54215Y144989D01*
X51999Y144071D01*
X49601Y144071D01*
G37*
%LPD*%
G36*
X240938Y430479D02*
X240938Y430479D01*
X240960Y430483D01*
X240967Y430498D01*
X240976Y430504D01*
X240975Y430514D01*
X240982Y430530D01*
X240982Y433070D01*
X240970Y433089D01*
X240966Y433111D01*
X240951Y433118D01*
X240945Y433127D01*
X240935Y433126D01*
X240919Y433133D01*
X216281Y433133D01*
X216262Y433121D01*
X216240Y433117D01*
X216233Y433102D01*
X216224Y433096D01*
X216225Y433086D01*
X216218Y433070D01*
X216218Y430530D01*
X216230Y430511D01*
X216234Y430489D01*
X216249Y430482D01*
X216255Y430473D01*
X216265Y430474D01*
X216281Y430467D01*
X240919Y430467D01*
X240938Y430479D01*
G37*
%LPC*%
G36*
X417323Y478309D02*
X417323Y478309D01*
X414809Y480823D01*
X414809Y484377D01*
X417323Y486891D01*
X420877Y486891D01*
X423391Y484377D01*
X423391Y480823D01*
X420877Y478309D01*
X417323Y478309D01*
G37*
%LPD*%
%LPC*%
G36*
X404623Y440209D02*
X404623Y440209D01*
X402109Y442723D01*
X402109Y446277D01*
X404623Y448791D01*
X408177Y448791D01*
X410691Y446277D01*
X410691Y442723D01*
X408177Y440209D01*
X404623Y440209D01*
G37*
%LPD*%
%LPC*%
G36*
X192533Y432589D02*
X192533Y432589D01*
X190019Y435103D01*
X190019Y438657D01*
X192533Y441171D01*
X196087Y441171D01*
X198601Y438657D01*
X198601Y435103D01*
X196087Y432589D01*
X192533Y432589D01*
G37*
%LPD*%
%LPC*%
G36*
X71883Y116359D02*
X71883Y116359D01*
X69369Y118873D01*
X69369Y122427D01*
X71883Y124941D01*
X75437Y124941D01*
X77951Y122427D01*
X77951Y118873D01*
X75437Y116359D01*
X71883Y116359D01*
G37*
%LPD*%
%LPC*%
G36*
X78739Y243839D02*
X78739Y243839D01*
X78739Y252985D01*
X78996Y252945D01*
X80783Y252364D01*
X82457Y251511D01*
X83978Y250406D01*
X85306Y249078D01*
X86411Y247557D01*
X87264Y245883D01*
X87845Y244096D01*
X87885Y243839D01*
X78739Y243839D01*
G37*
%LPD*%
%LPC*%
G36*
X243839Y129539D02*
X243839Y129539D01*
X243839Y138685D01*
X244096Y138645D01*
X245883Y138064D01*
X247557Y137211D01*
X249078Y136106D01*
X250406Y134778D01*
X251511Y133257D01*
X252364Y131583D01*
X252945Y129796D01*
X252985Y129539D01*
X243839Y129539D01*
G37*
%LPD*%
%LPC*%
G36*
X243839Y124461D02*
X243839Y124461D01*
X252985Y124461D01*
X252945Y124204D01*
X252364Y122417D01*
X251511Y120743D01*
X250406Y119222D01*
X249078Y117894D01*
X247557Y116789D01*
X245883Y115936D01*
X244096Y115355D01*
X243839Y115315D01*
X243839Y124461D01*
G37*
%LPD*%
%LPC*%
G36*
X64515Y243839D02*
X64515Y243839D01*
X64555Y244096D01*
X65136Y245883D01*
X65989Y247557D01*
X67094Y249078D01*
X68422Y250406D01*
X69943Y251511D01*
X71617Y252364D01*
X73404Y252945D01*
X73661Y252985D01*
X73661Y243839D01*
X64515Y243839D01*
G37*
%LPD*%
%LPC*%
G36*
X78739Y238761D02*
X78739Y238761D01*
X87885Y238761D01*
X87845Y238504D01*
X87264Y236717D01*
X86411Y235043D01*
X85306Y233522D01*
X83978Y232194D01*
X82457Y231089D01*
X80783Y230236D01*
X78996Y229655D01*
X78739Y229615D01*
X78739Y238761D01*
G37*
%LPD*%
%LPC*%
G36*
X229615Y129539D02*
X229615Y129539D01*
X229655Y129796D01*
X230236Y131583D01*
X231089Y133257D01*
X232194Y134778D01*
X233522Y136106D01*
X235043Y137211D01*
X236717Y138064D01*
X238504Y138645D01*
X238761Y138685D01*
X238761Y129539D01*
X229615Y129539D01*
G37*
%LPD*%
%LPC*%
G36*
X73404Y229655D02*
X73404Y229655D01*
X71617Y230236D01*
X69943Y231089D01*
X68422Y232194D01*
X67094Y233522D01*
X65989Y235043D01*
X65136Y236717D01*
X64555Y238504D01*
X64515Y238761D01*
X73661Y238761D01*
X73661Y229615D01*
X73404Y229655D01*
G37*
%LPD*%
%LPC*%
G36*
X238504Y115355D02*
X238504Y115355D01*
X236717Y115936D01*
X235043Y116789D01*
X233522Y117894D01*
X232194Y119222D01*
X231089Y120743D01*
X230236Y122417D01*
X229655Y124204D01*
X229615Y124461D01*
X238761Y124461D01*
X238761Y115315D01*
X238504Y115355D01*
G37*
%LPD*%
%LPC*%
G36*
X21176Y233425D02*
X21176Y233425D01*
X18795Y235806D01*
X18795Y239174D01*
X21176Y241555D01*
X24544Y241555D01*
X26925Y239174D01*
X26925Y235806D01*
X24544Y233425D01*
X21176Y233425D01*
G37*
%LPD*%
%LPC*%
G36*
X416226Y92535D02*
X416226Y92535D01*
X413845Y94916D01*
X413845Y98284D01*
X416226Y100665D01*
X419594Y100665D01*
X421975Y98284D01*
X421975Y94916D01*
X419594Y92535D01*
X416226Y92535D01*
G37*
%LPD*%
%LPC*%
G36*
X387816Y134755D02*
X387816Y134755D01*
X385435Y137136D01*
X385435Y140504D01*
X387816Y142885D01*
X391184Y142885D01*
X393565Y140504D01*
X393565Y137136D01*
X391184Y134755D01*
X387816Y134755D01*
G37*
%LPD*%
%LPC*%
G36*
X136746Y171195D02*
X136746Y171195D01*
X134365Y173576D01*
X134365Y176944D01*
X136746Y179325D01*
X140114Y179325D01*
X142495Y176944D01*
X142495Y173576D01*
X140114Y171195D01*
X136746Y171195D01*
G37*
%LPD*%
%LPC*%
G36*
X224376Y299465D02*
X224376Y299465D01*
X221995Y301846D01*
X221995Y305214D01*
X224376Y307595D01*
X227744Y307595D01*
X230125Y305214D01*
X230125Y301846D01*
X227744Y299465D01*
X224376Y299465D01*
G37*
%LPD*%
%LPC*%
G36*
X362330Y35940D02*
X362330Y35940D01*
X362330Y40544D01*
X362537Y41317D01*
X362937Y42009D01*
X363502Y42574D01*
X364194Y42974D01*
X364967Y43181D01*
X366523Y43181D01*
X366523Y35940D01*
X362330Y35940D01*
G37*
%LPD*%
%LPC*%
G36*
X72770Y34670D02*
X72770Y34670D01*
X72770Y39274D01*
X72977Y40047D01*
X73377Y40739D01*
X73942Y41304D01*
X74634Y41704D01*
X75407Y41911D01*
X76963Y41911D01*
X76963Y34670D01*
X72770Y34670D01*
G37*
%LPD*%
%LPC*%
G36*
X28447Y82930D02*
X28447Y82930D01*
X28447Y90171D01*
X30003Y90171D01*
X30776Y89964D01*
X31468Y89564D01*
X32033Y88999D01*
X32433Y88307D01*
X32640Y87534D01*
X32640Y82930D01*
X28447Y82930D01*
G37*
%LPD*%
%LPC*%
G36*
X28447Y113410D02*
X28447Y113410D01*
X28447Y120651D01*
X30003Y120651D01*
X30776Y120444D01*
X31468Y120044D01*
X32033Y119479D01*
X32433Y118787D01*
X32640Y118014D01*
X32640Y113410D01*
X28447Y113410D01*
G37*
%LPD*%
%LPC*%
G36*
X380237Y35940D02*
X380237Y35940D01*
X380237Y43181D01*
X381793Y43181D01*
X382566Y42974D01*
X383258Y42574D01*
X383823Y42009D01*
X384223Y41317D01*
X384430Y40544D01*
X384430Y35940D01*
X380237Y35940D01*
G37*
%LPD*%
%LPC*%
G36*
X380237Y25399D02*
X380237Y25399D01*
X380237Y32640D01*
X384430Y32640D01*
X384430Y28036D01*
X384223Y27263D01*
X383823Y26571D01*
X383258Y26006D01*
X382566Y25606D01*
X381793Y25399D01*
X380237Y25399D01*
G37*
%LPD*%
%LPC*%
G36*
X90677Y34670D02*
X90677Y34670D01*
X90677Y41911D01*
X92233Y41911D01*
X93006Y41704D01*
X93698Y41304D01*
X94263Y40739D01*
X94663Y40047D01*
X94870Y39274D01*
X94870Y34670D01*
X90677Y34670D01*
G37*
%LPD*%
%LPC*%
G36*
X28447Y72389D02*
X28447Y72389D01*
X28447Y79630D01*
X32640Y79630D01*
X32640Y75026D01*
X32433Y74253D01*
X32033Y73561D01*
X31468Y72996D01*
X30776Y72596D01*
X30003Y72389D01*
X28447Y72389D01*
G37*
%LPD*%
%LPC*%
G36*
X28447Y102869D02*
X28447Y102869D01*
X28447Y110110D01*
X32640Y110110D01*
X32640Y105506D01*
X32433Y104733D01*
X32033Y104041D01*
X31468Y103476D01*
X30776Y103076D01*
X30003Y102869D01*
X28447Y102869D01*
G37*
%LPD*%
%LPC*%
G36*
X162589Y16359D02*
X162589Y16359D01*
X162589Y18838D01*
X162881Y20304D01*
X163339Y21410D01*
X163453Y21686D01*
X164171Y22760D01*
X164284Y22929D01*
X165341Y23986D01*
X166584Y24817D01*
X167966Y25389D01*
X168911Y25577D01*
X168911Y22962D01*
X167994Y22641D01*
X167990Y22635D01*
X167984Y22637D01*
X167036Y22041D01*
X167033Y22033D01*
X167028Y22034D01*
X166236Y21242D01*
X166235Y21234D01*
X166229Y21234D01*
X165633Y20286D01*
X165634Y20277D01*
X165629Y20276D01*
X165259Y19219D01*
X165261Y19211D01*
X165256Y19208D01*
X165131Y18096D01*
X165133Y18092D01*
X165131Y18090D01*
X165131Y16359D01*
X162589Y16359D01*
G37*
%LPD*%
%LPC*%
G36*
X292069Y16359D02*
X292069Y16359D01*
X292069Y18090D01*
X292067Y18093D01*
X292069Y18096D01*
X291944Y19208D01*
X291938Y19214D01*
X291941Y19219D01*
X291571Y20276D01*
X291565Y20280D01*
X291567Y20286D01*
X290971Y21234D01*
X290963Y21237D01*
X290964Y21242D01*
X290172Y22034D01*
X290164Y22035D01*
X290164Y22041D01*
X289216Y22637D01*
X289207Y22636D01*
X289206Y22641D01*
X288289Y22962D01*
X288289Y25577D01*
X289234Y25389D01*
X290206Y24986D01*
X290616Y24817D01*
X291587Y24168D01*
X291859Y23986D01*
X292916Y22929D01*
X293747Y21686D01*
X294319Y20304D01*
X294611Y18838D01*
X294611Y16359D01*
X292069Y16359D01*
G37*
%LPD*%
%LPC*%
G36*
X76199Y241299D02*
X76199Y241299D01*
X76199Y241301D01*
X76201Y241301D01*
X76201Y241299D01*
X76199Y241299D01*
G37*
%LPD*%
%LPC*%
G36*
X241299Y126999D02*
X241299Y126999D01*
X241299Y127001D01*
X241301Y127001D01*
X241301Y126999D01*
X241299Y126999D01*
G37*
%LPD*%
D10*
X241554Y27178D02*
X239183Y20066D01*
X236813Y27178D01*
X231860Y25400D02*
X231857Y25610D01*
X231850Y25820D01*
X231837Y26029D01*
X231820Y26238D01*
X231797Y26447D01*
X231770Y26655D01*
X231738Y26862D01*
X231700Y27069D01*
X231658Y27274D01*
X231611Y27479D01*
X231559Y27682D01*
X231502Y27884D01*
X231440Y28085D01*
X231374Y28284D01*
X231302Y28481D01*
X231226Y28677D01*
X231146Y28871D01*
X231061Y29063D01*
X230971Y29252D01*
X230970Y29252D02*
X230939Y29337D01*
X230905Y29421D01*
X230867Y29503D01*
X230825Y29584D01*
X230780Y29663D01*
X230732Y29740D01*
X230681Y29815D01*
X230627Y29887D01*
X230570Y29958D01*
X230510Y30026D01*
X230447Y30091D01*
X230382Y30154D01*
X230314Y30214D01*
X230243Y30271D01*
X230171Y30325D01*
X230096Y30377D01*
X230019Y30425D01*
X229940Y30470D01*
X229859Y30511D01*
X229777Y30549D01*
X229693Y30584D01*
X229608Y30615D01*
X229522Y30643D01*
X229435Y30667D01*
X229346Y30687D01*
X229257Y30704D01*
X229167Y30717D01*
X229077Y30727D01*
X228987Y30732D01*
X228896Y30734D01*
X228805Y30732D01*
X228715Y30727D01*
X228625Y30717D01*
X228535Y30704D01*
X228446Y30687D01*
X228357Y30667D01*
X228270Y30643D01*
X228184Y30615D01*
X228099Y30584D01*
X228015Y30549D01*
X227933Y30511D01*
X227852Y30470D01*
X227773Y30425D01*
X227696Y30377D01*
X227621Y30326D01*
X227549Y30271D01*
X227478Y30214D01*
X227410Y30154D01*
X227345Y30091D01*
X227282Y30026D01*
X227222Y29958D01*
X227165Y29887D01*
X227111Y29815D01*
X227060Y29740D01*
X227012Y29663D01*
X226967Y29584D01*
X226925Y29503D01*
X226887Y29421D01*
X226853Y29337D01*
X226822Y29252D01*
X226732Y29063D01*
X226647Y28871D01*
X226567Y28677D01*
X226491Y28481D01*
X226419Y28284D01*
X226353Y28085D01*
X226291Y27884D01*
X226234Y27682D01*
X226182Y27479D01*
X226135Y27274D01*
X226093Y27069D01*
X226055Y26862D01*
X226023Y26655D01*
X225996Y26447D01*
X225973Y26238D01*
X225956Y26029D01*
X225943Y25820D01*
X225936Y25610D01*
X225933Y25400D01*
X231859Y25400D02*
X231856Y25190D01*
X231849Y24980D01*
X231836Y24771D01*
X231819Y24562D01*
X231796Y24353D01*
X231769Y24145D01*
X231737Y23938D01*
X231699Y23731D01*
X231657Y23526D01*
X231610Y23321D01*
X231558Y23118D01*
X231501Y22916D01*
X231439Y22715D01*
X231373Y22516D01*
X231301Y22319D01*
X231225Y22123D01*
X231145Y21929D01*
X231060Y21738D01*
X230970Y21548D01*
X230939Y21463D01*
X230905Y21379D01*
X230867Y21297D01*
X230825Y21216D01*
X230780Y21137D01*
X230732Y21060D01*
X230681Y20985D01*
X230627Y20913D01*
X230570Y20842D01*
X230510Y20774D01*
X230447Y20709D01*
X230382Y20646D01*
X230314Y20586D01*
X230243Y20529D01*
X230171Y20474D01*
X230096Y20423D01*
X230019Y20375D01*
X229940Y20330D01*
X229859Y20289D01*
X229777Y20251D01*
X229693Y20216D01*
X229608Y20185D01*
X229522Y20157D01*
X229435Y20133D01*
X229346Y20113D01*
X229257Y20096D01*
X229167Y20083D01*
X229077Y20073D01*
X228987Y20068D01*
X228896Y20066D01*
X226822Y21548D02*
X226732Y21738D01*
X226647Y21929D01*
X226567Y22123D01*
X226491Y22319D01*
X226419Y22516D01*
X226353Y22715D01*
X226291Y22916D01*
X226234Y23118D01*
X226182Y23321D01*
X226135Y23526D01*
X226093Y23731D01*
X226055Y23938D01*
X226023Y24145D01*
X225996Y24353D01*
X225973Y24562D01*
X225956Y24771D01*
X225943Y24980D01*
X225936Y25190D01*
X225933Y25400D01*
X226822Y21548D02*
X226853Y21463D01*
X226887Y21379D01*
X226926Y21297D01*
X226967Y21216D01*
X227012Y21137D01*
X227060Y21060D01*
X227111Y20985D01*
X227165Y20913D01*
X227222Y20842D01*
X227282Y20774D01*
X227345Y20709D01*
X227410Y20646D01*
X227478Y20586D01*
X227549Y20529D01*
X227621Y20474D01*
X227696Y20423D01*
X227773Y20375D01*
X227852Y20330D01*
X227933Y20289D01*
X228015Y20251D01*
X228099Y20216D01*
X228184Y20185D01*
X228270Y20157D01*
X228357Y20133D01*
X228446Y20113D01*
X228535Y20096D01*
X228625Y20083D01*
X228715Y20073D01*
X228805Y20068D01*
X228896Y20066D01*
X231267Y22437D02*
X226526Y28363D01*
X220430Y28363D02*
X217466Y30734D01*
X217466Y20066D01*
X214503Y20066D02*
X220430Y20066D01*
D11*
X405003Y525427D02*
X401673Y537083D01*
X405003Y525427D02*
X396677Y525427D01*
X399175Y528757D02*
X399175Y522097D01*
D12*
X241300Y127000D03*
X215900Y127000D03*
D13*
X236207Y437655D02*
X241821Y437655D01*
X241821Y425945D01*
X236207Y425945D01*
X236207Y437655D01*
X236207Y426886D02*
X241821Y426886D01*
X241821Y427827D02*
X236207Y427827D01*
X236207Y428768D02*
X241821Y428768D01*
X241821Y429709D02*
X236207Y429709D01*
X236207Y430650D02*
X241821Y430650D01*
X241821Y431591D02*
X236207Y431591D01*
X236207Y432532D02*
X241821Y432532D01*
X241821Y433473D02*
X236207Y433473D01*
X236207Y434414D02*
X241821Y434414D01*
X241821Y435355D02*
X236207Y435355D01*
X236207Y436296D02*
X241821Y436296D01*
X241821Y437237D02*
X236207Y437237D01*
X231407Y437655D02*
X225793Y437655D01*
X231407Y437655D02*
X231407Y425945D01*
X225793Y425945D01*
X225793Y437655D01*
X225793Y426886D02*
X231407Y426886D01*
X231407Y427827D02*
X225793Y427827D01*
X225793Y428768D02*
X231407Y428768D01*
X231407Y429709D02*
X225793Y429709D01*
X225793Y430650D02*
X231407Y430650D01*
X231407Y431591D02*
X225793Y431591D01*
X225793Y432532D02*
X231407Y432532D01*
X231407Y433473D02*
X225793Y433473D01*
X225793Y434414D02*
X231407Y434414D01*
X231407Y435355D02*
X225793Y435355D01*
X225793Y436296D02*
X231407Y436296D01*
X231407Y437237D02*
X225793Y437237D01*
X220993Y437655D02*
X215379Y437655D01*
X220993Y437655D02*
X220993Y425945D01*
X215379Y425945D01*
X215379Y437655D01*
X215379Y426886D02*
X220993Y426886D01*
X220993Y427827D02*
X215379Y427827D01*
X215379Y428768D02*
X220993Y428768D01*
X220993Y429709D02*
X215379Y429709D01*
X215379Y430650D02*
X220993Y430650D01*
X220993Y431591D02*
X215379Y431591D01*
X215379Y432532D02*
X220993Y432532D01*
X220993Y433473D02*
X215379Y433473D01*
X215379Y434414D02*
X220993Y434414D01*
X220993Y435355D02*
X215379Y435355D01*
X215379Y436296D02*
X220993Y436296D01*
X220993Y437237D02*
X215379Y437237D01*
D14*
X287020Y18360D02*
X287020Y11820D01*
X373380Y11820D02*
X373380Y18360D01*
X373380Y53620D02*
X373380Y60160D01*
X287020Y60160D02*
X287020Y53620D01*
D13*
X375780Y40145D02*
X381394Y40145D01*
X381394Y28435D01*
X375780Y28435D01*
X375780Y40145D01*
X375780Y29376D02*
X381394Y29376D01*
X381394Y30317D02*
X375780Y30317D01*
X375780Y31258D02*
X381394Y31258D01*
X381394Y32199D02*
X375780Y32199D01*
X375780Y33140D02*
X381394Y33140D01*
X381394Y34081D02*
X375780Y34081D01*
X375780Y35022D02*
X381394Y35022D01*
X381394Y35963D02*
X375780Y35963D01*
X375780Y36904D02*
X381394Y36904D01*
X381394Y37845D02*
X375780Y37845D01*
X375780Y38786D02*
X381394Y38786D01*
X381394Y39727D02*
X375780Y39727D01*
X370980Y40145D02*
X365366Y40145D01*
X370980Y40145D02*
X370980Y28435D01*
X365366Y28435D01*
X365366Y40145D01*
X365366Y29376D02*
X370980Y29376D01*
X370980Y30317D02*
X365366Y30317D01*
X365366Y31258D02*
X370980Y31258D01*
X370980Y32199D02*
X365366Y32199D01*
X365366Y33140D02*
X370980Y33140D01*
X370980Y34081D02*
X365366Y34081D01*
X365366Y35022D02*
X370980Y35022D01*
X370980Y35963D02*
X365366Y35963D01*
X365366Y36904D02*
X370980Y36904D01*
X370980Y37845D02*
X365366Y37845D01*
X365366Y38786D02*
X370980Y38786D01*
X370980Y39727D02*
X365366Y39727D01*
D15*
X64770Y518160D03*
X393700Y12700D03*
D12*
X381000Y444500D03*
X381000Y419100D03*
X381000Y393700D03*
X381000Y368300D03*
X381000Y342900D03*
X381000Y317500D03*
X381000Y292100D03*
X381000Y266700D03*
X381000Y241300D03*
X381000Y215900D03*
X76200Y444500D03*
X76200Y419100D03*
X76200Y393700D03*
X76200Y368300D03*
X76200Y342900D03*
X76200Y317500D03*
X76200Y292100D03*
X76200Y266700D03*
X76200Y241300D03*
X76200Y215900D03*
D14*
X83820Y18360D02*
X83820Y11820D01*
X170180Y11820D02*
X170180Y18360D01*
X170180Y53620D02*
X170180Y60160D01*
X83820Y60160D02*
X83820Y53620D01*
D13*
X81420Y27165D02*
X75806Y27165D01*
X75806Y38875D01*
X81420Y38875D01*
X81420Y27165D01*
X81420Y28106D02*
X75806Y28106D01*
X75806Y29047D02*
X81420Y29047D01*
X81420Y29988D02*
X75806Y29988D01*
X75806Y30929D02*
X81420Y30929D01*
X81420Y31870D02*
X75806Y31870D01*
X75806Y32811D02*
X81420Y32811D01*
X81420Y33752D02*
X75806Y33752D01*
X75806Y34693D02*
X81420Y34693D01*
X81420Y35634D02*
X75806Y35634D01*
X75806Y36575D02*
X81420Y36575D01*
X81420Y37516D02*
X75806Y37516D01*
X75806Y38457D02*
X81420Y38457D01*
X86220Y27165D02*
X91834Y27165D01*
X86220Y27165D02*
X86220Y38875D01*
X91834Y38875D01*
X91834Y27165D01*
X91834Y28106D02*
X86220Y28106D01*
X86220Y29047D02*
X91834Y29047D01*
X91834Y29988D02*
X86220Y29988D01*
X86220Y30929D02*
X91834Y30929D01*
X91834Y31870D02*
X86220Y31870D01*
X86220Y32811D02*
X91834Y32811D01*
X91834Y33752D02*
X86220Y33752D01*
X86220Y34693D02*
X91834Y34693D01*
X91834Y35634D02*
X86220Y35634D01*
X86220Y36575D02*
X91834Y36575D01*
X91834Y37516D02*
X86220Y37516D01*
X86220Y38457D02*
X91834Y38457D01*
X29604Y87135D02*
X23990Y87135D01*
X29604Y87135D02*
X29604Y75425D01*
X23990Y75425D01*
X23990Y87135D01*
X23990Y76366D02*
X29604Y76366D01*
X29604Y77307D02*
X23990Y77307D01*
X23990Y78248D02*
X29604Y78248D01*
X29604Y79189D02*
X23990Y79189D01*
X23990Y80130D02*
X29604Y80130D01*
X29604Y81071D02*
X23990Y81071D01*
X23990Y82012D02*
X29604Y82012D01*
X29604Y82953D02*
X23990Y82953D01*
X23990Y83894D02*
X29604Y83894D01*
X29604Y84835D02*
X23990Y84835D01*
X23990Y85776D02*
X29604Y85776D01*
X29604Y86717D02*
X23990Y86717D01*
X19190Y87135D02*
X13576Y87135D01*
X19190Y87135D02*
X19190Y75425D01*
X13576Y75425D01*
X13576Y87135D01*
X13576Y76366D02*
X19190Y76366D01*
X19190Y77307D02*
X13576Y77307D01*
X13576Y78248D02*
X19190Y78248D01*
X19190Y79189D02*
X13576Y79189D01*
X13576Y80130D02*
X19190Y80130D01*
X19190Y81071D02*
X13576Y81071D01*
X13576Y82012D02*
X19190Y82012D01*
X19190Y82953D02*
X13576Y82953D01*
X13576Y83894D02*
X19190Y83894D01*
X19190Y84835D02*
X13576Y84835D01*
X13576Y85776D02*
X19190Y85776D01*
X19190Y86717D02*
X13576Y86717D01*
X23990Y117615D02*
X29604Y117615D01*
X29604Y105905D01*
X23990Y105905D01*
X23990Y117615D01*
X23990Y106846D02*
X29604Y106846D01*
X29604Y107787D02*
X23990Y107787D01*
X23990Y108728D02*
X29604Y108728D01*
X29604Y109669D02*
X23990Y109669D01*
X23990Y110610D02*
X29604Y110610D01*
X29604Y111551D02*
X23990Y111551D01*
X23990Y112492D02*
X29604Y112492D01*
X29604Y113433D02*
X23990Y113433D01*
X23990Y114374D02*
X29604Y114374D01*
X29604Y115315D02*
X23990Y115315D01*
X23990Y116256D02*
X29604Y116256D01*
X29604Y117197D02*
X23990Y117197D01*
X19190Y117615D02*
X13576Y117615D01*
X19190Y117615D02*
X19190Y105905D01*
X13576Y105905D01*
X13576Y117615D01*
X13576Y106846D02*
X19190Y106846D01*
X19190Y107787D02*
X13576Y107787D01*
X13576Y108728D02*
X19190Y108728D01*
X19190Y109669D02*
X13576Y109669D01*
X13576Y110610D02*
X19190Y110610D01*
X19190Y111551D02*
X13576Y111551D01*
X13576Y112492D02*
X19190Y112492D01*
X19190Y113433D02*
X13576Y113433D01*
X13576Y114374D02*
X19190Y114374D01*
X19190Y115315D02*
X13576Y115315D01*
X13576Y116256D02*
X19190Y116256D01*
X19190Y117197D02*
X13576Y117197D01*
D16*
X121920Y168910D03*
D17*
X120904Y169926D01*
X120904Y176373D01*
X114397Y182880D01*
X104140Y182880D01*
X92710Y194310D01*
X92710Y194564D01*
D16*
X92710Y194564D03*
D18*
X378587Y34290D02*
X386080Y34290D01*
D16*
X386080Y34290D03*
D17*
X46990Y111760D02*
X26797Y111760D01*
D16*
X46990Y111760D03*
X71120Y33020D03*
X194310Y241300D03*
X368300Y120650D03*
X152400Y411480D03*
X304800Y533400D03*
D19*
X78613Y33020D02*
X71120Y33020D01*
D16*
X88900Y120650D03*
D10*
X46990Y81280D02*
X26797Y81280D01*
D16*
X46990Y81280D03*
D20*
X259080Y259080D03*
X259080Y245110D03*
D16*
X134620Y166370D03*
D20*
X287020Y184150D03*
X289560Y151130D03*
X340360Y81280D03*
X292100Y121920D03*
X419100Y86360D03*
X393700Y86360D03*
X165100Y121920D03*
X66040Y139700D03*
X67310Y173990D03*
X30480Y176530D03*
X194310Y199390D03*
X176530Y271780D03*
X346710Y234950D03*
D16*
X167640Y411480D03*
X184150Y411480D03*
X165100Y388620D03*
X167640Y363220D03*
D20*
X320040Y133350D03*
X321310Y234950D03*
X238760Y57150D03*
X374650Y184150D03*
X389890Y184150D03*
X262890Y185420D03*
X365760Y214630D03*
D16*
X304800Y457200D03*
X367030Y438150D03*
D20*
X444500Y457200D03*
X444500Y393700D03*
X444500Y330200D03*
X444500Y266700D03*
X444500Y203200D03*
X444500Y140970D03*
X25400Y457200D03*
D16*
X152400Y533400D03*
X228600Y533400D03*
X228600Y38100D03*
X279400Y38100D03*
X177800Y38100D03*
D20*
X12700Y393700D03*
X12700Y330200D03*
X12700Y266700D03*
X12700Y203200D03*
X12700Y153670D03*
X417830Y424180D03*
X365760Y412750D03*
X134620Y250190D03*
X330200Y165100D03*
D16*
X138430Y175260D03*
X389500Y138820D03*
X417910Y96600D03*
X22860Y237490D03*
X226060Y303530D03*
X300990Y256540D03*
X300990Y265430D03*
X300990Y246380D03*
X313690Y234950D03*
X290830Y326390D03*
X298450Y326390D03*
X290830Y334010D03*
X298450Y334010D03*
D17*
X228600Y413510D02*
X228600Y431800D01*
D20*
X228600Y413510D03*
X73660Y120650D03*
X194310Y436880D03*
D16*
X355346Y101600D03*
D17*
X265500Y101600D01*
D16*
X265500Y101600D03*
X215900Y420370D03*
D17*
X218186Y422656D01*
X218186Y431800D01*
D16*
X254000Y422910D03*
D17*
X254000Y426720D01*
X248920Y431800D01*
X239014Y431800D01*
D16*
X333034Y79248D03*
X322326Y79248D03*
D10*
X333034Y79248D01*
D16*
X288290Y175260D03*
D17*
X190500Y175260D01*
X187960Y177800D01*
X187960Y194310D01*
D16*
X187960Y194310D03*
X158750Y368300D03*
D17*
X158750Y392430D01*
D16*
X158750Y392430D03*
X285750Y167640D03*
D17*
X177800Y167640D01*
D16*
X177800Y167640D03*
X58420Y393700D03*
D17*
X58420Y444500D01*
X58420Y393700D02*
X76200Y393700D01*
D20*
X12700Y469900D03*
D17*
X33020Y469900D02*
X58420Y444500D01*
X33020Y469900D02*
X12700Y469900D01*
D16*
X294640Y157480D03*
D17*
X171450Y157480D01*
D16*
X171450Y157480D03*
X140970Y271780D03*
D17*
X104140Y271780D01*
D16*
X104140Y271780D03*
D17*
X361950Y222250D02*
X381000Y241300D01*
X361950Y222250D02*
X298450Y222250D01*
X294640Y218440D01*
X294640Y157480D01*
D16*
X337820Y261620D03*
D17*
X342900Y368300D02*
X381000Y368300D01*
X342900Y368300D02*
X337820Y363220D01*
X337820Y261620D01*
D16*
X177800Y355600D03*
D17*
X21590Y355600D01*
X19050Y353060D01*
D16*
X19050Y353060D03*
X361950Y241300D03*
D17*
X361950Y273050D01*
X381000Y292100D01*
D16*
X303530Y214630D03*
D17*
X358140Y214630D01*
D16*
X358140Y214630D03*
D20*
X406400Y444500D03*
X419100Y482600D03*
D16*
X118110Y81280D03*
D10*
X129834Y81280D01*
D16*
X129834Y81280D03*
X115570Y174164D03*
D17*
X115396Y173990D01*
X78740Y173990D01*
D16*
X78740Y173990D03*
X68580Y165100D03*
D17*
X33020Y165100D01*
X22860Y154940D01*
D16*
X22860Y154940D03*
X101854Y101600D03*
X191700Y101600D03*
D17*
X101854Y101600D01*
D16*
X330200Y234950D03*
D17*
X323850Y228600D01*
X292100Y228600D01*
X278130Y214630D01*
X256540Y214630D01*
D21*
X241300Y215900D02*
X76200Y215900D01*
D20*
X245110Y194310D03*
X245110Y203200D03*
X252730Y203200D03*
X252730Y195580D03*
D16*
X10795Y122555D03*
D17*
X16383Y115570D02*
X16383Y111760D01*
X16383Y115570D02*
X10795Y121158D01*
X10795Y122555D01*
D16*
X10160Y90170D03*
D10*
X10160Y90043D01*
X16383Y83820D02*
X16383Y81280D01*
X16383Y83820D02*
X10160Y90043D01*
D16*
X190500Y311150D03*
D17*
X190500Y322580D01*
X180340Y332740D01*
X86360Y332740D01*
X76200Y342900D01*
D16*
X68580Y190500D03*
D17*
X27940Y190500D01*
X22860Y185420D01*
X22860Y179070D01*
D16*
X22860Y179070D03*
M02*
