G04 EAGLE Gerber RS-274X export*
G75*
%MOMM*%
%FSLAX34Y34*%
%LPD*%
%INSolderpaste Top*%
%IPPOS*%
%AMOC8*
5,1,8,0,0,1.08239X$1,22.5*%
G01*
%ADD10C,0.100000*%
%ADD11C,0.096000*%
%ADD12C,0.102000*%
%ADD13C,0.099059*%
%ADD14C,0.300000*%
%ADD15R,0.875000X0.250000*%
%ADD16C,0.101600*%
%ADD17C,0.104000*%
%ADD18C,0.100800*%
%ADD19C,0.099000*%
%ADD20C,0.102869*%

G36*
X373200Y46491D02*
X373200Y46491D01*
X373201Y46491D01*
X374269Y46510D01*
X374276Y46515D01*
X374280Y46511D01*
X375317Y46767D01*
X375322Y46774D01*
X375328Y46771D01*
X376282Y47252D01*
X376286Y47259D01*
X376291Y47258D01*
X377115Y47939D01*
X377116Y47947D01*
X377122Y47947D01*
X377773Y48794D01*
X377773Y48802D01*
X377779Y48803D01*
X378226Y49774D01*
X378224Y49782D01*
X378229Y49784D01*
X378448Y50830D01*
X378445Y50837D01*
X378449Y50840D01*
X378449Y62840D01*
X378446Y62845D01*
X378449Y62848D01*
X378269Y63943D01*
X378263Y63949D01*
X378266Y63954D01*
X377847Y64982D01*
X377840Y64986D01*
X377842Y64991D01*
X377205Y65900D01*
X377197Y65903D01*
X377197Y65908D01*
X376374Y66652D01*
X376366Y66653D01*
X376365Y66659D01*
X375397Y67201D01*
X375388Y67200D01*
X375386Y67206D01*
X374322Y67519D01*
X374317Y67517D01*
X374313Y67517D01*
X374311Y67521D01*
X373203Y67589D01*
X373197Y67585D01*
X373193Y67589D01*
X372085Y67419D01*
X372079Y67413D01*
X372074Y67416D01*
X371032Y67004D01*
X371028Y66997D01*
X371023Y66999D01*
X370098Y66365D01*
X370096Y66357D01*
X370090Y66358D01*
X369330Y65535D01*
X369329Y65526D01*
X369323Y65526D01*
X368766Y64554D01*
X368767Y64546D01*
X368761Y64544D01*
X368434Y63472D01*
X368437Y63464D01*
X368432Y63461D01*
X368351Y62344D01*
X368352Y62341D01*
X368351Y62340D01*
X368351Y50340D01*
X368356Y50333D01*
X368352Y50329D01*
X368571Y49385D01*
X368577Y49379D01*
X368575Y49374D01*
X368999Y48502D01*
X369006Y48499D01*
X369004Y48493D01*
X369611Y47737D01*
X369619Y47735D01*
X369619Y47729D01*
X370379Y47128D01*
X370388Y47128D01*
X370389Y47122D01*
X371264Y46704D01*
X371272Y46706D01*
X371274Y46701D01*
X372220Y46489D01*
X372227Y46492D01*
X372231Y46487D01*
X373200Y46491D01*
G37*
G36*
X170000Y46491D02*
X170000Y46491D01*
X170001Y46491D01*
X171069Y46510D01*
X171076Y46515D01*
X171080Y46511D01*
X172117Y46767D01*
X172122Y46774D01*
X172128Y46771D01*
X173082Y47252D01*
X173086Y47259D01*
X173091Y47258D01*
X173915Y47939D01*
X173916Y47947D01*
X173922Y47947D01*
X174573Y48794D01*
X174573Y48802D01*
X174579Y48803D01*
X175026Y49774D01*
X175024Y49782D01*
X175029Y49784D01*
X175248Y50830D01*
X175245Y50837D01*
X175249Y50840D01*
X175249Y62840D01*
X175246Y62845D01*
X175249Y62848D01*
X175069Y63943D01*
X175063Y63949D01*
X175066Y63954D01*
X174647Y64982D01*
X174640Y64986D01*
X174642Y64991D01*
X174005Y65900D01*
X173997Y65903D01*
X173997Y65908D01*
X173174Y66652D01*
X173166Y66653D01*
X173165Y66659D01*
X172197Y67201D01*
X172188Y67200D01*
X172186Y67206D01*
X171122Y67519D01*
X171117Y67517D01*
X171113Y67517D01*
X171111Y67521D01*
X170003Y67589D01*
X169997Y67585D01*
X169993Y67589D01*
X168885Y67419D01*
X168879Y67413D01*
X168874Y67416D01*
X167832Y67004D01*
X167828Y66997D01*
X167823Y66999D01*
X166898Y66365D01*
X166896Y66357D01*
X166890Y66358D01*
X166130Y65535D01*
X166129Y65526D01*
X166123Y65526D01*
X165566Y64554D01*
X165567Y64546D01*
X165561Y64544D01*
X165234Y63472D01*
X165237Y63464D01*
X165232Y63461D01*
X165151Y62344D01*
X165152Y62341D01*
X165151Y62340D01*
X165151Y50340D01*
X165156Y50333D01*
X165152Y50329D01*
X165371Y49385D01*
X165377Y49379D01*
X165375Y49374D01*
X165799Y48502D01*
X165806Y48499D01*
X165804Y48493D01*
X166411Y47737D01*
X166419Y47735D01*
X166419Y47729D01*
X167179Y47128D01*
X167188Y47128D01*
X167189Y47122D01*
X168064Y46704D01*
X168072Y46706D01*
X168074Y46701D01*
X169020Y46489D01*
X169027Y46492D01*
X169031Y46487D01*
X170000Y46491D01*
G37*
G36*
X287781Y46500D02*
X287781Y46500D01*
X287788Y46505D01*
X287792Y46501D01*
X288844Y46751D01*
X288849Y46757D01*
X288854Y46754D01*
X289824Y47231D01*
X289827Y47239D01*
X289833Y47237D01*
X290672Y47918D01*
X290674Y47926D01*
X290680Y47926D01*
X291346Y48777D01*
X291347Y48785D01*
X291352Y48786D01*
X291813Y49763D01*
X291811Y49771D01*
X291817Y49774D01*
X292048Y50829D01*
X292045Y50837D01*
X292049Y50840D01*
X292049Y62840D01*
X292045Y62845D01*
X292049Y62848D01*
X291856Y63954D01*
X291850Y63959D01*
X291853Y63964D01*
X291420Y64999D01*
X291413Y65003D01*
X291415Y65008D01*
X290762Y65921D01*
X290754Y65923D01*
X290755Y65929D01*
X289916Y66673D01*
X289907Y66674D01*
X289907Y66679D01*
X288923Y67218D01*
X288915Y67217D01*
X288913Y67222D01*
X287834Y67529D01*
X287826Y67526D01*
X287823Y67531D01*
X286703Y67589D01*
X286698Y67586D01*
X286695Y67589D01*
X285649Y67471D01*
X285643Y67465D01*
X285638Y67469D01*
X284644Y67121D01*
X284640Y67114D01*
X284635Y67116D01*
X283743Y66556D01*
X283741Y66549D01*
X283735Y66549D01*
X282991Y65805D01*
X282989Y65797D01*
X282984Y65797D01*
X282424Y64905D01*
X282424Y64897D01*
X282419Y64896D01*
X282071Y63902D01*
X282074Y63894D01*
X282069Y63891D01*
X281951Y62846D01*
X281953Y62842D01*
X281951Y62840D01*
X281951Y50840D01*
X281954Y50835D01*
X281951Y50832D01*
X282109Y49836D01*
X282115Y49830D01*
X282112Y49825D01*
X282487Y48889D01*
X282494Y48885D01*
X282492Y48879D01*
X283066Y48050D01*
X283074Y48047D01*
X283073Y48042D01*
X283817Y47361D01*
X283826Y47360D01*
X283826Y47354D01*
X284703Y46856D01*
X284712Y46857D01*
X284714Y46852D01*
X285679Y46561D01*
X285687Y46564D01*
X285690Y46559D01*
X286697Y46491D01*
X286699Y46492D01*
X286700Y46491D01*
X287781Y46500D01*
G37*
G36*
X84581Y46500D02*
X84581Y46500D01*
X84588Y46505D01*
X84592Y46501D01*
X85644Y46751D01*
X85649Y46757D01*
X85654Y46754D01*
X86624Y47231D01*
X86627Y47239D01*
X86633Y47237D01*
X87472Y47918D01*
X87474Y47926D01*
X87480Y47926D01*
X88146Y48777D01*
X88147Y48785D01*
X88152Y48786D01*
X88613Y49763D01*
X88611Y49771D01*
X88617Y49774D01*
X88848Y50829D01*
X88845Y50837D01*
X88849Y50840D01*
X88849Y62840D01*
X88845Y62845D01*
X88849Y62848D01*
X88656Y63954D01*
X88650Y63959D01*
X88653Y63964D01*
X88220Y64999D01*
X88213Y65003D01*
X88215Y65008D01*
X87562Y65921D01*
X87554Y65923D01*
X87555Y65929D01*
X86716Y66673D01*
X86707Y66674D01*
X86707Y66679D01*
X85723Y67218D01*
X85715Y67217D01*
X85713Y67222D01*
X84634Y67529D01*
X84626Y67526D01*
X84623Y67531D01*
X83503Y67589D01*
X83498Y67586D01*
X83495Y67589D01*
X82449Y67471D01*
X82443Y67465D01*
X82438Y67469D01*
X81444Y67121D01*
X81440Y67114D01*
X81435Y67116D01*
X80543Y66556D01*
X80541Y66549D01*
X80535Y66549D01*
X79791Y65805D01*
X79789Y65797D01*
X79784Y65797D01*
X79224Y64905D01*
X79224Y64897D01*
X79219Y64896D01*
X78871Y63902D01*
X78874Y63894D01*
X78869Y63891D01*
X78751Y62846D01*
X78753Y62842D01*
X78751Y62840D01*
X78751Y50840D01*
X78754Y50835D01*
X78751Y50832D01*
X78909Y49836D01*
X78915Y49830D01*
X78912Y49825D01*
X79287Y48889D01*
X79294Y48885D01*
X79292Y48879D01*
X79866Y48050D01*
X79874Y48047D01*
X79873Y48042D01*
X80617Y47361D01*
X80626Y47360D01*
X80626Y47354D01*
X81503Y46856D01*
X81512Y46857D01*
X81514Y46852D01*
X82479Y46561D01*
X82487Y46564D01*
X82490Y46559D01*
X83497Y46491D01*
X83499Y46492D01*
X83500Y46491D01*
X84581Y46500D01*
G37*
G36*
X373704Y6995D02*
X373704Y6995D01*
X373707Y6991D01*
X374783Y7146D01*
X374788Y7152D01*
X374793Y7149D01*
X375807Y7539D01*
X375811Y7546D01*
X375817Y7545D01*
X376719Y8151D01*
X376721Y8159D01*
X376727Y8158D01*
X377471Y8950D01*
X377472Y8958D01*
X377478Y8958D01*
X378027Y9896D01*
X378026Y9904D01*
X378032Y9906D01*
X378359Y10942D01*
X378356Y10950D01*
X378361Y10953D01*
X378449Y12036D01*
X378447Y12039D01*
X378449Y12040D01*
X378449Y18040D01*
X378446Y18044D01*
X378449Y18046D01*
X378299Y19179D01*
X378293Y19185D01*
X378296Y19190D01*
X377898Y20260D01*
X377891Y20264D01*
X377893Y20270D01*
X377266Y21225D01*
X377258Y21228D01*
X377259Y21233D01*
X376436Y22025D01*
X376428Y22026D01*
X376427Y22032D01*
X375448Y22621D01*
X375440Y22620D01*
X375438Y22625D01*
X374353Y22981D01*
X374345Y22979D01*
X374342Y22983D01*
X373205Y23089D01*
X373196Y23084D01*
X373191Y23088D01*
X372054Y22881D01*
X372048Y22875D01*
X372043Y22878D01*
X370981Y22423D01*
X370977Y22416D01*
X370971Y22418D01*
X370036Y21738D01*
X370034Y21730D01*
X370028Y21731D01*
X369268Y20860D01*
X369268Y20852D01*
X369262Y20851D01*
X368715Y19832D01*
X368716Y19824D01*
X368711Y19822D01*
X368707Y19809D01*
X368694Y19760D01*
X368693Y19760D01*
X368694Y19760D01*
X368680Y19711D01*
X368666Y19661D01*
X368653Y19612D01*
X368639Y19563D01*
X368626Y19514D01*
X368612Y19464D01*
X368599Y19415D01*
X368585Y19366D01*
X368571Y19317D01*
X368558Y19267D01*
X368544Y19218D01*
X368531Y19169D01*
X368517Y19120D01*
X368504Y19070D01*
X368490Y19021D01*
X368477Y18972D01*
X368476Y18972D01*
X368463Y18923D01*
X368449Y18873D01*
X368404Y18708D01*
X368407Y18700D01*
X368402Y18697D01*
X368351Y17542D01*
X368352Y17541D01*
X368351Y17540D01*
X368351Y11540D01*
X368355Y11534D01*
X368352Y11531D01*
X368564Y10450D01*
X368570Y10445D01*
X368567Y10440D01*
X369014Y9434D01*
X369021Y9430D01*
X369019Y9424D01*
X369679Y8543D01*
X369687Y8540D01*
X369687Y8535D01*
X370526Y7822D01*
X370534Y7822D01*
X370535Y7816D01*
X371512Y7308D01*
X371520Y7309D01*
X371522Y7304D01*
X372587Y7026D01*
X372595Y7029D01*
X372598Y7025D01*
X373699Y6991D01*
X373704Y6995D01*
G37*
G36*
X170504Y6995D02*
X170504Y6995D01*
X170507Y6991D01*
X171583Y7146D01*
X171588Y7152D01*
X171593Y7149D01*
X172607Y7539D01*
X172611Y7546D01*
X172617Y7545D01*
X173519Y8151D01*
X173521Y8159D01*
X173527Y8158D01*
X174271Y8950D01*
X174272Y8958D01*
X174278Y8958D01*
X174827Y9896D01*
X174826Y9904D01*
X174832Y9906D01*
X175159Y10942D01*
X175156Y10950D01*
X175161Y10953D01*
X175249Y12036D01*
X175247Y12039D01*
X175249Y12040D01*
X175249Y18040D01*
X175246Y18044D01*
X175249Y18046D01*
X175099Y19179D01*
X175093Y19185D01*
X175096Y19190D01*
X174698Y20260D01*
X174691Y20264D01*
X174693Y20270D01*
X174066Y21225D01*
X174058Y21228D01*
X174059Y21233D01*
X173236Y22025D01*
X173228Y22026D01*
X173227Y22032D01*
X172248Y22621D01*
X172240Y22620D01*
X172238Y22625D01*
X171153Y22981D01*
X171145Y22979D01*
X171142Y22983D01*
X170005Y23089D01*
X169996Y23084D01*
X169991Y23088D01*
X168854Y22881D01*
X168848Y22875D01*
X168843Y22878D01*
X167781Y22423D01*
X167777Y22416D01*
X167771Y22418D01*
X166836Y21738D01*
X166834Y21730D01*
X166828Y21731D01*
X166068Y20860D01*
X166068Y20852D01*
X166062Y20851D01*
X165515Y19832D01*
X165516Y19824D01*
X165511Y19822D01*
X165507Y19809D01*
X165494Y19760D01*
X165493Y19760D01*
X165494Y19760D01*
X165480Y19711D01*
X165466Y19661D01*
X165453Y19612D01*
X165439Y19563D01*
X165426Y19514D01*
X165412Y19464D01*
X165399Y19415D01*
X165385Y19366D01*
X165371Y19317D01*
X165358Y19267D01*
X165344Y19218D01*
X165331Y19169D01*
X165317Y19120D01*
X165304Y19070D01*
X165290Y19021D01*
X165277Y18972D01*
X165276Y18972D01*
X165263Y18923D01*
X165249Y18873D01*
X165204Y18708D01*
X165207Y18700D01*
X165202Y18697D01*
X165151Y17542D01*
X165152Y17541D01*
X165151Y17540D01*
X165151Y11540D01*
X165155Y11534D01*
X165152Y11531D01*
X165364Y10450D01*
X165370Y10445D01*
X165367Y10440D01*
X165814Y9434D01*
X165821Y9430D01*
X165819Y9424D01*
X166479Y8543D01*
X166487Y8540D01*
X166487Y8535D01*
X167326Y7822D01*
X167334Y7822D01*
X167335Y7816D01*
X168312Y7308D01*
X168320Y7309D01*
X168322Y7304D01*
X169387Y7026D01*
X169395Y7029D01*
X169398Y7025D01*
X170499Y6991D01*
X170504Y6995D01*
G37*
G36*
X84002Y6995D02*
X84002Y6995D01*
X84007Y6991D01*
X85094Y7136D01*
X85100Y7142D01*
X85105Y7139D01*
X86133Y7523D01*
X86138Y7529D01*
X86143Y7528D01*
X87060Y8130D01*
X87063Y8138D01*
X87069Y8137D01*
X87829Y8929D01*
X87830Y8937D01*
X87836Y8938D01*
X88400Y9879D01*
X88400Y9882D01*
X88401Y9883D01*
X88400Y9885D01*
X88399Y9887D01*
X88405Y9889D01*
X88746Y10932D01*
X88744Y10940D01*
X88748Y10943D01*
X88849Y12036D01*
X88847Y12038D01*
X88849Y12040D01*
X88849Y18040D01*
X88847Y18043D01*
X88849Y18045D01*
X88748Y19137D01*
X88743Y19143D01*
X88746Y19148D01*
X88405Y20191D01*
X88398Y20196D01*
X88400Y20201D01*
X87836Y21142D01*
X87828Y21145D01*
X87829Y21151D01*
X87069Y21943D01*
X87061Y21944D01*
X87060Y21950D01*
X86143Y22553D01*
X86135Y22552D01*
X86133Y22558D01*
X85105Y22941D01*
X85097Y22939D01*
X85094Y22944D01*
X84007Y23089D01*
X83999Y23085D01*
X83995Y23089D01*
X82858Y22983D01*
X82852Y22978D01*
X82847Y22981D01*
X81762Y22625D01*
X81757Y22618D01*
X81752Y22621D01*
X80773Y22032D01*
X80770Y22024D01*
X80764Y22025D01*
X79941Y21233D01*
X79940Y21225D01*
X79934Y21225D01*
X79307Y20270D01*
X79308Y20262D01*
X79302Y20260D01*
X78904Y19190D01*
X78906Y19182D01*
X78901Y19179D01*
X78751Y18046D01*
X78754Y18042D01*
X78751Y18040D01*
X78751Y12040D01*
X78754Y12036D01*
X78751Y12034D01*
X78901Y10901D01*
X78907Y10895D01*
X78904Y10890D01*
X79302Y9820D01*
X79309Y9816D01*
X79307Y9810D01*
X79934Y8855D01*
X79942Y8852D01*
X79941Y8847D01*
X80764Y8055D01*
X80772Y8054D01*
X80773Y8048D01*
X81752Y7459D01*
X81760Y7460D01*
X81762Y7455D01*
X82847Y7099D01*
X82855Y7102D01*
X82858Y7097D01*
X83995Y6991D01*
X84002Y6995D01*
G37*
G36*
X287202Y6995D02*
X287202Y6995D01*
X287207Y6991D01*
X288294Y7136D01*
X288300Y7142D01*
X288305Y7139D01*
X289333Y7523D01*
X289338Y7529D01*
X289343Y7528D01*
X290260Y8130D01*
X290263Y8138D01*
X290269Y8137D01*
X291029Y8929D01*
X291030Y8937D01*
X291036Y8938D01*
X291600Y9879D01*
X291600Y9882D01*
X291601Y9883D01*
X291600Y9885D01*
X291599Y9887D01*
X291605Y9889D01*
X291946Y10932D01*
X291944Y10940D01*
X291948Y10943D01*
X292049Y12036D01*
X292047Y12038D01*
X292049Y12040D01*
X292049Y18040D01*
X292047Y18043D01*
X292049Y18045D01*
X291948Y19137D01*
X291943Y19143D01*
X291946Y19148D01*
X291605Y20191D01*
X291598Y20196D01*
X291600Y20201D01*
X291036Y21142D01*
X291028Y21145D01*
X291029Y21151D01*
X290269Y21943D01*
X290261Y21944D01*
X290260Y21950D01*
X289343Y22553D01*
X289335Y22552D01*
X289333Y22558D01*
X288305Y22941D01*
X288297Y22939D01*
X288294Y22944D01*
X287207Y23089D01*
X287199Y23085D01*
X287195Y23089D01*
X286058Y22983D01*
X286052Y22978D01*
X286047Y22981D01*
X284962Y22625D01*
X284957Y22618D01*
X284952Y22621D01*
X283973Y22032D01*
X283970Y22024D01*
X283964Y22025D01*
X283141Y21233D01*
X283140Y21225D01*
X283134Y21225D01*
X282507Y20270D01*
X282508Y20262D01*
X282502Y20260D01*
X282104Y19190D01*
X282106Y19182D01*
X282101Y19179D01*
X281951Y18046D01*
X281954Y18042D01*
X281951Y18040D01*
X281951Y12040D01*
X281954Y12036D01*
X281951Y12034D01*
X282101Y10901D01*
X282107Y10895D01*
X282104Y10890D01*
X282502Y9820D01*
X282509Y9816D01*
X282507Y9810D01*
X283134Y8855D01*
X283142Y8852D01*
X283141Y8847D01*
X283964Y8055D01*
X283972Y8054D01*
X283973Y8048D01*
X284952Y7459D01*
X284960Y7460D01*
X284962Y7455D01*
X286047Y7099D01*
X286055Y7102D01*
X286058Y7097D01*
X287195Y6991D01*
X287202Y6995D01*
G37*
G36*
X327765Y166977D02*
X327765Y166977D01*
X327831Y166979D01*
X327874Y166997D01*
X327921Y167005D01*
X327978Y167039D01*
X328038Y167064D01*
X328073Y167095D01*
X328114Y167120D01*
X328156Y167171D01*
X328204Y167215D01*
X328226Y167257D01*
X328255Y167294D01*
X328276Y167356D01*
X328307Y167415D01*
X328315Y167469D01*
X328327Y167506D01*
X328326Y167546D01*
X328334Y167600D01*
X328334Y175100D01*
X328323Y175165D01*
X328321Y175231D01*
X328303Y175274D01*
X328295Y175321D01*
X328261Y175378D01*
X328236Y175438D01*
X328205Y175473D01*
X328180Y175514D01*
X328129Y175556D01*
X328085Y175604D01*
X328043Y175626D01*
X328006Y175655D01*
X327944Y175676D01*
X327885Y175707D01*
X327831Y175715D01*
X327794Y175727D01*
X327754Y175726D01*
X327700Y175734D01*
X320200Y175734D01*
X320135Y175723D01*
X320069Y175721D01*
X320026Y175703D01*
X319979Y175695D01*
X319922Y175661D01*
X319862Y175636D01*
X319827Y175605D01*
X319786Y175580D01*
X319745Y175529D01*
X319696Y175485D01*
X319674Y175443D01*
X319645Y175406D01*
X319624Y175344D01*
X319593Y175285D01*
X319585Y175231D01*
X319573Y175194D01*
X319574Y175154D01*
X319566Y175100D01*
X319566Y167600D01*
X319577Y167535D01*
X319579Y167469D01*
X319597Y167426D01*
X319605Y167379D01*
X319639Y167322D01*
X319664Y167262D01*
X319695Y167227D01*
X319720Y167186D01*
X319771Y167145D01*
X319815Y167096D01*
X319857Y167074D01*
X319894Y167045D01*
X319956Y167024D01*
X320015Y166993D01*
X320069Y166985D01*
X320106Y166973D01*
X320146Y166974D01*
X320200Y166966D01*
X327700Y166966D01*
X327765Y166977D01*
G37*
G36*
X340265Y154477D02*
X340265Y154477D01*
X340331Y154479D01*
X340374Y154497D01*
X340421Y154505D01*
X340478Y154539D01*
X340538Y154564D01*
X340573Y154595D01*
X340614Y154620D01*
X340656Y154671D01*
X340704Y154715D01*
X340726Y154757D01*
X340755Y154794D01*
X340776Y154856D01*
X340807Y154915D01*
X340815Y154969D01*
X340827Y155006D01*
X340826Y155046D01*
X340834Y155100D01*
X340834Y162600D01*
X340823Y162665D01*
X340821Y162731D01*
X340803Y162774D01*
X340795Y162821D01*
X340761Y162878D01*
X340736Y162938D01*
X340705Y162973D01*
X340680Y163014D01*
X340629Y163056D01*
X340585Y163104D01*
X340543Y163126D01*
X340506Y163155D01*
X340444Y163176D01*
X340385Y163207D01*
X340331Y163215D01*
X340294Y163227D01*
X340254Y163226D01*
X340200Y163234D01*
X332700Y163234D01*
X332635Y163223D01*
X332569Y163221D01*
X332526Y163203D01*
X332479Y163195D01*
X332422Y163161D01*
X332362Y163136D01*
X332327Y163105D01*
X332286Y163080D01*
X332245Y163029D01*
X332196Y162985D01*
X332174Y162943D01*
X332145Y162906D01*
X332124Y162844D01*
X332093Y162785D01*
X332085Y162731D01*
X332073Y162694D01*
X332074Y162654D01*
X332066Y162600D01*
X332066Y155100D01*
X332077Y155035D01*
X332079Y154969D01*
X332097Y154926D01*
X332105Y154879D01*
X332139Y154822D01*
X332164Y154762D01*
X332195Y154727D01*
X332220Y154686D01*
X332271Y154645D01*
X332315Y154596D01*
X332357Y154574D01*
X332394Y154545D01*
X332456Y154524D01*
X332515Y154493D01*
X332569Y154485D01*
X332606Y154473D01*
X332646Y154474D01*
X332700Y154466D01*
X340200Y154466D01*
X340265Y154477D01*
G37*
G36*
X327765Y154477D02*
X327765Y154477D01*
X327831Y154479D01*
X327874Y154497D01*
X327921Y154505D01*
X327978Y154539D01*
X328038Y154564D01*
X328073Y154595D01*
X328114Y154620D01*
X328156Y154671D01*
X328204Y154715D01*
X328226Y154757D01*
X328255Y154794D01*
X328276Y154856D01*
X328307Y154915D01*
X328315Y154969D01*
X328327Y155006D01*
X328326Y155046D01*
X328334Y155100D01*
X328334Y162600D01*
X328323Y162665D01*
X328321Y162731D01*
X328303Y162774D01*
X328295Y162821D01*
X328261Y162878D01*
X328236Y162938D01*
X328205Y162973D01*
X328180Y163014D01*
X328129Y163056D01*
X328085Y163104D01*
X328043Y163126D01*
X328006Y163155D01*
X327944Y163176D01*
X327885Y163207D01*
X327831Y163215D01*
X327794Y163227D01*
X327754Y163226D01*
X327700Y163234D01*
X320200Y163234D01*
X320135Y163223D01*
X320069Y163221D01*
X320026Y163203D01*
X319979Y163195D01*
X319922Y163161D01*
X319862Y163136D01*
X319827Y163105D01*
X319786Y163080D01*
X319745Y163029D01*
X319696Y162985D01*
X319674Y162943D01*
X319645Y162906D01*
X319624Y162844D01*
X319593Y162785D01*
X319585Y162731D01*
X319573Y162694D01*
X319574Y162654D01*
X319566Y162600D01*
X319566Y155100D01*
X319577Y155035D01*
X319579Y154969D01*
X319597Y154926D01*
X319605Y154879D01*
X319639Y154822D01*
X319664Y154762D01*
X319695Y154727D01*
X319720Y154686D01*
X319771Y154645D01*
X319815Y154596D01*
X319857Y154574D01*
X319894Y154545D01*
X319956Y154524D01*
X320015Y154493D01*
X320069Y154485D01*
X320106Y154473D01*
X320146Y154474D01*
X320200Y154466D01*
X327700Y154466D01*
X327765Y154477D01*
G37*
G36*
X340265Y166977D02*
X340265Y166977D01*
X340331Y166979D01*
X340374Y166997D01*
X340421Y167005D01*
X340478Y167039D01*
X340538Y167064D01*
X340573Y167095D01*
X340614Y167120D01*
X340656Y167171D01*
X340704Y167215D01*
X340726Y167257D01*
X340755Y167294D01*
X340776Y167356D01*
X340807Y167415D01*
X340815Y167469D01*
X340827Y167506D01*
X340826Y167546D01*
X340834Y167600D01*
X340834Y175100D01*
X340823Y175165D01*
X340821Y175231D01*
X340803Y175274D01*
X340795Y175321D01*
X340761Y175378D01*
X340736Y175438D01*
X340705Y175473D01*
X340680Y175514D01*
X340629Y175556D01*
X340585Y175604D01*
X340543Y175626D01*
X340506Y175655D01*
X340444Y175676D01*
X340385Y175707D01*
X340331Y175715D01*
X340294Y175727D01*
X340254Y175726D01*
X340200Y175734D01*
X332700Y175734D01*
X332635Y175723D01*
X332569Y175721D01*
X332526Y175703D01*
X332479Y175695D01*
X332422Y175661D01*
X332362Y175636D01*
X332327Y175605D01*
X332286Y175580D01*
X332245Y175529D01*
X332196Y175485D01*
X332174Y175443D01*
X332145Y175406D01*
X332124Y175344D01*
X332093Y175285D01*
X332085Y175231D01*
X332073Y175194D01*
X332074Y175154D01*
X332066Y175100D01*
X332066Y167600D01*
X332077Y167535D01*
X332079Y167469D01*
X332097Y167426D01*
X332105Y167379D01*
X332139Y167322D01*
X332164Y167262D01*
X332195Y167227D01*
X332220Y167186D01*
X332271Y167145D01*
X332315Y167096D01*
X332357Y167074D01*
X332394Y167045D01*
X332456Y167024D01*
X332515Y166993D01*
X332569Y166985D01*
X332606Y166973D01*
X332646Y166974D01*
X332700Y166966D01*
X340200Y166966D01*
X340265Y166977D01*
G37*
G36*
X354647Y171387D02*
X354647Y171387D01*
X354642Y171394D01*
X354649Y171400D01*
X354649Y173800D01*
X354613Y173847D01*
X354606Y173842D01*
X354600Y173849D01*
X346800Y173849D01*
X346753Y173813D01*
X346758Y173806D01*
X346751Y173800D01*
X346751Y171400D01*
X346787Y171353D01*
X346794Y171358D01*
X346800Y171351D01*
X354600Y171351D01*
X354647Y171387D01*
G37*
G36*
X313647Y171387D02*
X313647Y171387D01*
X313642Y171394D01*
X313649Y171400D01*
X313649Y173800D01*
X313613Y173847D01*
X313606Y173842D01*
X313600Y173849D01*
X305800Y173849D01*
X305753Y173813D01*
X305758Y173806D01*
X305751Y173800D01*
X305751Y171400D01*
X305787Y171353D01*
X305794Y171358D01*
X305800Y171351D01*
X313600Y171351D01*
X313647Y171387D01*
G37*
G36*
X313647Y166387D02*
X313647Y166387D01*
X313642Y166394D01*
X313649Y166400D01*
X313649Y168800D01*
X313613Y168847D01*
X313606Y168842D01*
X313600Y168849D01*
X305800Y168849D01*
X305753Y168813D01*
X305758Y168806D01*
X305751Y168800D01*
X305751Y166400D01*
X305787Y166353D01*
X305794Y166358D01*
X305800Y166351D01*
X313600Y166351D01*
X313647Y166387D01*
G37*
G36*
X354647Y166387D02*
X354647Y166387D01*
X354642Y166394D01*
X354649Y166400D01*
X354649Y168800D01*
X354613Y168847D01*
X354606Y168842D01*
X354600Y168849D01*
X346800Y168849D01*
X346753Y168813D01*
X346758Y168806D01*
X346751Y168800D01*
X346751Y166400D01*
X346787Y166353D01*
X346794Y166358D01*
X346800Y166351D01*
X354600Y166351D01*
X354647Y166387D01*
G37*
G36*
X354647Y161387D02*
X354647Y161387D01*
X354642Y161394D01*
X354649Y161400D01*
X354649Y163800D01*
X354613Y163847D01*
X354606Y163842D01*
X354600Y163849D01*
X346800Y163849D01*
X346753Y163813D01*
X346758Y163806D01*
X346751Y163800D01*
X346751Y161400D01*
X346787Y161353D01*
X346794Y161358D01*
X346800Y161351D01*
X354600Y161351D01*
X354647Y161387D01*
G37*
G36*
X313647Y161387D02*
X313647Y161387D01*
X313642Y161394D01*
X313649Y161400D01*
X313649Y163800D01*
X313613Y163847D01*
X313606Y163842D01*
X313600Y163849D01*
X305800Y163849D01*
X305753Y163813D01*
X305758Y163806D01*
X305751Y163800D01*
X305751Y161400D01*
X305787Y161353D01*
X305794Y161358D01*
X305800Y161351D01*
X313600Y161351D01*
X313647Y161387D01*
G37*
G36*
X333947Y181687D02*
X333947Y181687D01*
X333942Y181694D01*
X333949Y181700D01*
X333949Y189500D01*
X333913Y189547D01*
X333906Y189542D01*
X333900Y189549D01*
X331500Y189549D01*
X331453Y189513D01*
X331458Y189506D01*
X331451Y189500D01*
X331451Y181700D01*
X331487Y181653D01*
X331494Y181658D01*
X331500Y181651D01*
X333900Y181651D01*
X333947Y181687D01*
G37*
G36*
X354647Y156387D02*
X354647Y156387D01*
X354642Y156394D01*
X354649Y156400D01*
X354649Y158800D01*
X354613Y158847D01*
X354606Y158842D01*
X354600Y158849D01*
X346800Y158849D01*
X346753Y158813D01*
X346758Y158806D01*
X346751Y158800D01*
X346751Y156400D01*
X346787Y156353D01*
X346794Y156358D01*
X346800Y156351D01*
X354600Y156351D01*
X354647Y156387D01*
G37*
G36*
X313647Y151387D02*
X313647Y151387D01*
X313642Y151394D01*
X313649Y151400D01*
X313649Y153800D01*
X313613Y153847D01*
X313606Y153842D01*
X313600Y153849D01*
X305800Y153849D01*
X305753Y153813D01*
X305758Y153806D01*
X305751Y153800D01*
X305751Y151400D01*
X305787Y151353D01*
X305794Y151358D01*
X305800Y151351D01*
X313600Y151351D01*
X313647Y151387D01*
G37*
G36*
X354647Y151387D02*
X354647Y151387D01*
X354642Y151394D01*
X354649Y151400D01*
X354649Y153800D01*
X354613Y153847D01*
X354606Y153842D01*
X354600Y153849D01*
X346800Y153849D01*
X346753Y153813D01*
X346758Y153806D01*
X346751Y153800D01*
X346751Y151400D01*
X346787Y151353D01*
X346794Y151358D01*
X346800Y151351D01*
X354600Y151351D01*
X354647Y151387D01*
G37*
G36*
X323947Y140687D02*
X323947Y140687D01*
X323942Y140694D01*
X323949Y140700D01*
X323949Y148500D01*
X323913Y148547D01*
X323906Y148542D01*
X323900Y148549D01*
X321500Y148549D01*
X321453Y148513D01*
X321458Y148506D01*
X321451Y148500D01*
X321451Y140700D01*
X321487Y140653D01*
X321494Y140658D01*
X321500Y140651D01*
X323900Y140651D01*
X323947Y140687D01*
G37*
G36*
X318947Y140687D02*
X318947Y140687D01*
X318942Y140694D01*
X318949Y140700D01*
X318949Y148500D01*
X318913Y148547D01*
X318906Y148542D01*
X318900Y148549D01*
X316500Y148549D01*
X316453Y148513D01*
X316458Y148506D01*
X316451Y148500D01*
X316451Y140700D01*
X316487Y140653D01*
X316494Y140658D01*
X316500Y140651D01*
X318900Y140651D01*
X318947Y140687D01*
G37*
G36*
X343947Y140687D02*
X343947Y140687D01*
X343942Y140694D01*
X343949Y140700D01*
X343949Y148500D01*
X343913Y148547D01*
X343906Y148542D01*
X343900Y148549D01*
X341500Y148549D01*
X341453Y148513D01*
X341458Y148506D01*
X341451Y148500D01*
X341451Y140700D01*
X341487Y140653D01*
X341494Y140658D01*
X341500Y140651D01*
X343900Y140651D01*
X343947Y140687D01*
G37*
G36*
X328947Y140687D02*
X328947Y140687D01*
X328942Y140694D01*
X328949Y140700D01*
X328949Y148500D01*
X328913Y148547D01*
X328906Y148542D01*
X328900Y148549D01*
X326500Y148549D01*
X326453Y148513D01*
X326458Y148506D01*
X326451Y148500D01*
X326451Y140700D01*
X326487Y140653D01*
X326494Y140658D01*
X326500Y140651D01*
X328900Y140651D01*
X328947Y140687D01*
G37*
G36*
X338947Y140687D02*
X338947Y140687D01*
X338942Y140694D01*
X338949Y140700D01*
X338949Y148500D01*
X338913Y148547D01*
X338906Y148542D01*
X338900Y148549D01*
X336500Y148549D01*
X336453Y148513D01*
X336458Y148506D01*
X336451Y148500D01*
X336451Y140700D01*
X336487Y140653D01*
X336494Y140658D01*
X336500Y140651D01*
X338900Y140651D01*
X338947Y140687D01*
G37*
G36*
X333947Y140687D02*
X333947Y140687D01*
X333942Y140694D01*
X333949Y140700D01*
X333949Y148500D01*
X333913Y148547D01*
X333906Y148542D01*
X333900Y148549D01*
X331500Y148549D01*
X331453Y148513D01*
X331458Y148506D01*
X331451Y148500D01*
X331451Y140700D01*
X331487Y140653D01*
X331494Y140658D01*
X331500Y140651D01*
X333900Y140651D01*
X333947Y140687D01*
G37*
G36*
X343947Y181687D02*
X343947Y181687D01*
X343942Y181694D01*
X343949Y181700D01*
X343949Y189500D01*
X343913Y189547D01*
X343906Y189542D01*
X343900Y189549D01*
X341500Y189549D01*
X341453Y189513D01*
X341458Y189506D01*
X341451Y189500D01*
X341451Y181700D01*
X341487Y181653D01*
X341494Y181658D01*
X341500Y181651D01*
X343900Y181651D01*
X343947Y181687D01*
G37*
G36*
X323947Y181687D02*
X323947Y181687D01*
X323942Y181694D01*
X323949Y181700D01*
X323949Y189500D01*
X323913Y189547D01*
X323906Y189542D01*
X323900Y189549D01*
X321500Y189549D01*
X321453Y189513D01*
X321458Y189506D01*
X321451Y189500D01*
X321451Y181700D01*
X321487Y181653D01*
X321494Y181658D01*
X321500Y181651D01*
X323900Y181651D01*
X323947Y181687D01*
G37*
G36*
X338947Y181687D02*
X338947Y181687D01*
X338942Y181694D01*
X338949Y181700D01*
X338949Y189500D01*
X338913Y189547D01*
X338906Y189542D01*
X338900Y189549D01*
X336500Y189549D01*
X336453Y189513D01*
X336458Y189506D01*
X336451Y189500D01*
X336451Y181700D01*
X336487Y181653D01*
X336494Y181658D01*
X336500Y181651D01*
X338900Y181651D01*
X338947Y181687D01*
G37*
G36*
X318947Y181687D02*
X318947Y181687D01*
X318942Y181694D01*
X318949Y181700D01*
X318949Y189500D01*
X318913Y189547D01*
X318906Y189542D01*
X318900Y189549D01*
X316500Y189549D01*
X316453Y189513D01*
X316458Y189506D01*
X316451Y189500D01*
X316451Y181700D01*
X316487Y181653D01*
X316494Y181658D01*
X316500Y181651D01*
X318900Y181651D01*
X318947Y181687D01*
G37*
G36*
X328947Y181687D02*
X328947Y181687D01*
X328942Y181694D01*
X328949Y181700D01*
X328949Y189500D01*
X328913Y189547D01*
X328906Y189542D01*
X328900Y189549D01*
X326500Y189549D01*
X326453Y189513D01*
X326458Y189506D01*
X326451Y189500D01*
X326451Y181700D01*
X326487Y181653D01*
X326494Y181658D01*
X326500Y181651D01*
X328900Y181651D01*
X328947Y181687D01*
G37*
G36*
X313647Y176387D02*
X313647Y176387D01*
X313642Y176394D01*
X313649Y176400D01*
X313649Y178800D01*
X313613Y178847D01*
X313606Y178842D01*
X313600Y178849D01*
X305800Y178849D01*
X305753Y178813D01*
X305758Y178806D01*
X305751Y178800D01*
X305751Y176400D01*
X305787Y176353D01*
X305794Y176358D01*
X305800Y176351D01*
X313600Y176351D01*
X313647Y176387D01*
G37*
G36*
X354647Y176387D02*
X354647Y176387D01*
X354642Y176394D01*
X354649Y176400D01*
X354649Y178800D01*
X354613Y178847D01*
X354606Y178842D01*
X354600Y178849D01*
X346800Y178849D01*
X346753Y178813D01*
X346758Y178806D01*
X346751Y178800D01*
X346751Y176400D01*
X346787Y176353D01*
X346794Y176358D01*
X346800Y176351D01*
X354600Y176351D01*
X354647Y176387D01*
G37*
G36*
X313647Y156387D02*
X313647Y156387D01*
X313642Y156394D01*
X313649Y156400D01*
X313649Y158800D01*
X313613Y158847D01*
X313606Y158842D01*
X313600Y158849D01*
X305800Y158849D01*
X305753Y158813D01*
X305758Y158806D01*
X305751Y158800D01*
X305751Y156400D01*
X305787Y156353D01*
X305794Y156358D01*
X305800Y156351D01*
X313600Y156351D01*
X313647Y156387D01*
G37*
D10*
X234100Y110300D02*
X243100Y110300D01*
X243100Y65300D01*
X234100Y65300D01*
X234100Y110300D01*
X234100Y66250D02*
X243100Y66250D01*
X243100Y67200D02*
X234100Y67200D01*
X234100Y68150D02*
X243100Y68150D01*
X243100Y69100D02*
X234100Y69100D01*
X234100Y70050D02*
X243100Y70050D01*
X243100Y71000D02*
X234100Y71000D01*
X234100Y71950D02*
X243100Y71950D01*
X243100Y72900D02*
X234100Y72900D01*
X234100Y73850D02*
X243100Y73850D01*
X243100Y74800D02*
X234100Y74800D01*
X234100Y75750D02*
X243100Y75750D01*
X243100Y76700D02*
X234100Y76700D01*
X234100Y77650D02*
X243100Y77650D01*
X243100Y78600D02*
X234100Y78600D01*
X234100Y79550D02*
X243100Y79550D01*
X243100Y80500D02*
X234100Y80500D01*
X234100Y81450D02*
X243100Y81450D01*
X243100Y82400D02*
X234100Y82400D01*
X234100Y83350D02*
X243100Y83350D01*
X243100Y84300D02*
X234100Y84300D01*
X234100Y85250D02*
X243100Y85250D01*
X243100Y86200D02*
X234100Y86200D01*
X234100Y87150D02*
X243100Y87150D01*
X243100Y88100D02*
X234100Y88100D01*
X234100Y89050D02*
X243100Y89050D01*
X243100Y90000D02*
X234100Y90000D01*
X234100Y90950D02*
X243100Y90950D01*
X243100Y91900D02*
X234100Y91900D01*
X234100Y92850D02*
X243100Y92850D01*
X243100Y93800D02*
X234100Y93800D01*
X234100Y94750D02*
X243100Y94750D01*
X243100Y95700D02*
X234100Y95700D01*
X234100Y96650D02*
X243100Y96650D01*
X243100Y97600D02*
X234100Y97600D01*
X234100Y98550D02*
X243100Y98550D01*
X243100Y99500D02*
X234100Y99500D01*
X234100Y100450D02*
X243100Y100450D01*
X243100Y101400D02*
X234100Y101400D01*
X234100Y102350D02*
X243100Y102350D01*
X243100Y103300D02*
X234100Y103300D01*
X234100Y104250D02*
X243100Y104250D01*
X243100Y105200D02*
X234100Y105200D01*
X234100Y106150D02*
X243100Y106150D01*
X243100Y107100D02*
X234100Y107100D01*
X234100Y108050D02*
X243100Y108050D01*
X243100Y109000D02*
X234100Y109000D01*
X234100Y109950D02*
X243100Y109950D01*
X223100Y110300D02*
X214100Y110300D01*
X223100Y110300D02*
X223100Y65300D01*
X214100Y65300D01*
X214100Y110300D01*
X214100Y66250D02*
X223100Y66250D01*
X223100Y67200D02*
X214100Y67200D01*
X214100Y68150D02*
X223100Y68150D01*
X223100Y69100D02*
X214100Y69100D01*
X214100Y70050D02*
X223100Y70050D01*
X223100Y71000D02*
X214100Y71000D01*
X214100Y71950D02*
X223100Y71950D01*
X223100Y72900D02*
X214100Y72900D01*
X214100Y73850D02*
X223100Y73850D01*
X223100Y74800D02*
X214100Y74800D01*
X214100Y75750D02*
X223100Y75750D01*
X223100Y76700D02*
X214100Y76700D01*
X214100Y77650D02*
X223100Y77650D01*
X223100Y78600D02*
X214100Y78600D01*
X214100Y79550D02*
X223100Y79550D01*
X223100Y80500D02*
X214100Y80500D01*
X214100Y81450D02*
X223100Y81450D01*
X223100Y82400D02*
X214100Y82400D01*
X214100Y83350D02*
X223100Y83350D01*
X223100Y84300D02*
X214100Y84300D01*
X214100Y85250D02*
X223100Y85250D01*
X223100Y86200D02*
X214100Y86200D01*
X214100Y87150D02*
X223100Y87150D01*
X223100Y88100D02*
X214100Y88100D01*
X214100Y89050D02*
X223100Y89050D01*
X223100Y90000D02*
X214100Y90000D01*
X214100Y90950D02*
X223100Y90950D01*
X223100Y91900D02*
X214100Y91900D01*
X214100Y92850D02*
X223100Y92850D01*
X223100Y93800D02*
X214100Y93800D01*
X214100Y94750D02*
X223100Y94750D01*
X223100Y95700D02*
X214100Y95700D01*
X214100Y96650D02*
X223100Y96650D01*
X223100Y97600D02*
X214100Y97600D01*
X214100Y98550D02*
X223100Y98550D01*
X223100Y99500D02*
X214100Y99500D01*
X214100Y100450D02*
X223100Y100450D01*
X223100Y101400D02*
X214100Y101400D01*
X214100Y102350D02*
X223100Y102350D01*
X223100Y103300D02*
X214100Y103300D01*
X214100Y104250D02*
X223100Y104250D01*
X223100Y105200D02*
X214100Y105200D01*
X214100Y106150D02*
X223100Y106150D01*
X223100Y107100D02*
X214100Y107100D01*
X214100Y108050D02*
X223100Y108050D01*
X223100Y109000D02*
X214100Y109000D01*
X214100Y109950D02*
X223100Y109950D01*
D11*
X255080Y52320D02*
X255080Y19280D01*
X255080Y52320D02*
X270120Y52320D01*
X270120Y19280D01*
X255080Y19280D01*
X255080Y20192D02*
X270120Y20192D01*
X270120Y21104D02*
X255080Y21104D01*
X255080Y22016D02*
X270120Y22016D01*
X270120Y22928D02*
X255080Y22928D01*
X255080Y23840D02*
X270120Y23840D01*
X270120Y24752D02*
X255080Y24752D01*
X255080Y25664D02*
X270120Y25664D01*
X270120Y26576D02*
X255080Y26576D01*
X255080Y27488D02*
X270120Y27488D01*
X270120Y28400D02*
X255080Y28400D01*
X255080Y29312D02*
X270120Y29312D01*
X270120Y30224D02*
X255080Y30224D01*
X255080Y31136D02*
X270120Y31136D01*
X270120Y32048D02*
X255080Y32048D01*
X255080Y32960D02*
X270120Y32960D01*
X270120Y33872D02*
X255080Y33872D01*
X255080Y34784D02*
X270120Y34784D01*
X270120Y35696D02*
X255080Y35696D01*
X255080Y36608D02*
X270120Y36608D01*
X270120Y37520D02*
X255080Y37520D01*
X255080Y38432D02*
X270120Y38432D01*
X270120Y39344D02*
X255080Y39344D01*
X255080Y40256D02*
X270120Y40256D01*
X270120Y41168D02*
X255080Y41168D01*
X255080Y42080D02*
X270120Y42080D01*
X270120Y42992D02*
X255080Y42992D01*
X255080Y43904D02*
X270120Y43904D01*
X270120Y44816D02*
X255080Y44816D01*
X255080Y45728D02*
X270120Y45728D01*
X270120Y46640D02*
X255080Y46640D01*
X255080Y47552D02*
X270120Y47552D01*
X270120Y48464D02*
X255080Y48464D01*
X255080Y49376D02*
X270120Y49376D01*
X270120Y50288D02*
X255080Y50288D01*
X255080Y51200D02*
X270120Y51200D01*
X270120Y52112D02*
X255080Y52112D01*
X187080Y52320D02*
X187080Y19280D01*
X187080Y52320D02*
X202120Y52320D01*
X202120Y19280D01*
X187080Y19280D01*
X187080Y20192D02*
X202120Y20192D01*
X202120Y21104D02*
X187080Y21104D01*
X187080Y22016D02*
X202120Y22016D01*
X202120Y22928D02*
X187080Y22928D01*
X187080Y23840D02*
X202120Y23840D01*
X202120Y24752D02*
X187080Y24752D01*
X187080Y25664D02*
X202120Y25664D01*
X202120Y26576D02*
X187080Y26576D01*
X187080Y27488D02*
X202120Y27488D01*
X202120Y28400D02*
X187080Y28400D01*
X187080Y29312D02*
X202120Y29312D01*
X202120Y30224D02*
X187080Y30224D01*
X187080Y31136D02*
X202120Y31136D01*
X202120Y32048D02*
X187080Y32048D01*
X187080Y32960D02*
X202120Y32960D01*
X202120Y33872D02*
X187080Y33872D01*
X187080Y34784D02*
X202120Y34784D01*
X202120Y35696D02*
X187080Y35696D01*
X187080Y36608D02*
X202120Y36608D01*
X202120Y37520D02*
X187080Y37520D01*
X187080Y38432D02*
X202120Y38432D01*
X202120Y39344D02*
X187080Y39344D01*
X187080Y40256D02*
X202120Y40256D01*
X202120Y41168D02*
X187080Y41168D01*
X187080Y42080D02*
X202120Y42080D01*
X202120Y42992D02*
X187080Y42992D01*
X187080Y43904D02*
X202120Y43904D01*
X202120Y44816D02*
X187080Y44816D01*
X187080Y45728D02*
X202120Y45728D01*
X202120Y46640D02*
X187080Y46640D01*
X187080Y47552D02*
X202120Y47552D01*
X202120Y48464D02*
X187080Y48464D01*
X187080Y49376D02*
X202120Y49376D01*
X202120Y50288D02*
X187080Y50288D01*
X187080Y51200D02*
X202120Y51200D01*
X202120Y52112D02*
X187080Y52112D01*
X452670Y68080D02*
X452670Y79120D01*
X452670Y68080D02*
X433630Y68080D01*
X433630Y79120D01*
X452670Y79120D01*
X452670Y68992D02*
X433630Y68992D01*
X433630Y69904D02*
X452670Y69904D01*
X452670Y70816D02*
X433630Y70816D01*
X433630Y71728D02*
X452670Y71728D01*
X452670Y72640D02*
X433630Y72640D01*
X433630Y73552D02*
X452670Y73552D01*
X452670Y74464D02*
X433630Y74464D01*
X433630Y75376D02*
X452670Y75376D01*
X452670Y76288D02*
X433630Y76288D01*
X433630Y77200D02*
X452670Y77200D01*
X452670Y78112D02*
X433630Y78112D01*
X433630Y79024D02*
X452670Y79024D01*
X452670Y124080D02*
X452670Y135120D01*
X452670Y124080D02*
X433630Y124080D01*
X433630Y135120D01*
X452670Y135120D01*
X452670Y124992D02*
X433630Y124992D01*
X433630Y125904D02*
X452670Y125904D01*
X452670Y126816D02*
X433630Y126816D01*
X433630Y127728D02*
X452670Y127728D01*
X452670Y128640D02*
X433630Y128640D01*
X433630Y129552D02*
X452670Y129552D01*
X452670Y130464D02*
X433630Y130464D01*
X433630Y131376D02*
X452670Y131376D01*
X452670Y132288D02*
X433630Y132288D01*
X433630Y133200D02*
X452670Y133200D01*
X452670Y134112D02*
X433630Y134112D01*
X433630Y135024D02*
X452670Y135024D01*
D12*
X412640Y89090D02*
X412640Y84110D01*
X400160Y84110D01*
X400160Y89090D01*
X412640Y89090D01*
X412640Y85079D02*
X400160Y85079D01*
X400160Y86048D02*
X412640Y86048D01*
X412640Y87017D02*
X400160Y87017D01*
X400160Y87986D02*
X412640Y87986D01*
X412640Y88955D02*
X400160Y88955D01*
X412640Y94110D02*
X412640Y99090D01*
X412640Y94110D02*
X400160Y94110D01*
X400160Y99090D01*
X412640Y99090D01*
X412640Y95079D02*
X400160Y95079D01*
X400160Y96048D02*
X412640Y96048D01*
X412640Y97017D02*
X400160Y97017D01*
X400160Y97986D02*
X412640Y97986D01*
X412640Y98955D02*
X400160Y98955D01*
X412640Y104110D02*
X412640Y109090D01*
X412640Y104110D02*
X400160Y104110D01*
X400160Y109090D01*
X412640Y109090D01*
X412640Y105079D02*
X400160Y105079D01*
X400160Y106048D02*
X412640Y106048D01*
X412640Y107017D02*
X400160Y107017D01*
X400160Y107986D02*
X412640Y107986D01*
X412640Y108955D02*
X400160Y108955D01*
X412640Y114110D02*
X412640Y119090D01*
X412640Y114110D02*
X400160Y114110D01*
X400160Y119090D01*
X412640Y119090D01*
X412640Y115079D02*
X400160Y115079D01*
X400160Y116048D02*
X412640Y116048D01*
X412640Y117017D02*
X400160Y117017D01*
X400160Y117986D02*
X412640Y117986D01*
X412640Y118955D02*
X400160Y118955D01*
D10*
X221560Y435300D02*
X221560Y445300D01*
X230560Y445300D01*
X230560Y435300D01*
X221560Y435300D01*
X221560Y436250D02*
X230560Y436250D01*
X230560Y437200D02*
X221560Y437200D01*
X221560Y438150D02*
X230560Y438150D01*
X230560Y439100D02*
X221560Y439100D01*
X221560Y440050D02*
X230560Y440050D01*
X230560Y441000D02*
X221560Y441000D01*
X221560Y441950D02*
X230560Y441950D01*
X230560Y442900D02*
X221560Y442900D01*
X221560Y443850D02*
X230560Y443850D01*
X230560Y444800D02*
X221560Y444800D01*
X221560Y428300D02*
X221560Y418300D01*
X221560Y428300D02*
X230560Y428300D01*
X230560Y418300D01*
X221560Y418300D01*
X221560Y419250D02*
X230560Y419250D01*
X230560Y420200D02*
X221560Y420200D01*
X221560Y421150D02*
X230560Y421150D01*
X230560Y422100D02*
X221560Y422100D01*
X221560Y423050D02*
X230560Y423050D01*
X230560Y424000D02*
X221560Y424000D01*
X221560Y424950D02*
X230560Y424950D01*
X230560Y425900D02*
X221560Y425900D01*
X221560Y426850D02*
X230560Y426850D01*
X230560Y427800D02*
X221560Y427800D01*
X236800Y435300D02*
X236800Y445300D01*
X245800Y445300D01*
X245800Y435300D01*
X236800Y435300D01*
X236800Y436250D02*
X245800Y436250D01*
X245800Y437200D02*
X236800Y437200D01*
X236800Y438150D02*
X245800Y438150D01*
X245800Y439100D02*
X236800Y439100D01*
X236800Y440050D02*
X245800Y440050D01*
X245800Y441000D02*
X236800Y441000D01*
X236800Y441950D02*
X245800Y441950D01*
X245800Y442900D02*
X236800Y442900D01*
X236800Y443850D02*
X245800Y443850D01*
X245800Y444800D02*
X236800Y444800D01*
X236800Y428300D02*
X236800Y418300D01*
X236800Y428300D02*
X245800Y428300D01*
X245800Y418300D01*
X236800Y418300D01*
X236800Y419250D02*
X245800Y419250D01*
X245800Y420200D02*
X236800Y420200D01*
X236800Y421150D02*
X245800Y421150D01*
X245800Y422100D02*
X236800Y422100D01*
X236800Y423050D02*
X245800Y423050D01*
X245800Y424000D02*
X236800Y424000D01*
X236800Y424950D02*
X245800Y424950D01*
X245800Y425900D02*
X236800Y425900D01*
X236800Y426850D02*
X245800Y426850D01*
X245800Y427800D02*
X236800Y427800D01*
D12*
X336710Y58150D02*
X338690Y58150D01*
X336710Y58150D02*
X336710Y67130D01*
X338690Y67130D01*
X338690Y58150D01*
X338690Y59119D02*
X336710Y59119D01*
X336710Y60088D02*
X338690Y60088D01*
X338690Y61057D02*
X336710Y61057D01*
X336710Y62026D02*
X338690Y62026D01*
X338690Y62995D02*
X336710Y62995D01*
X336710Y63964D02*
X338690Y63964D01*
X338690Y64933D02*
X336710Y64933D01*
X336710Y65902D02*
X338690Y65902D01*
X338690Y66871D02*
X336710Y66871D01*
X333690Y58150D02*
X331710Y58150D01*
X331710Y67130D01*
X333690Y67130D01*
X333690Y58150D01*
X333690Y59119D02*
X331710Y59119D01*
X331710Y60088D02*
X333690Y60088D01*
X333690Y61057D02*
X331710Y61057D01*
X331710Y62026D02*
X333690Y62026D01*
X333690Y62995D02*
X331710Y62995D01*
X331710Y63964D02*
X333690Y63964D01*
X333690Y64933D02*
X331710Y64933D01*
X331710Y65902D02*
X333690Y65902D01*
X333690Y66871D02*
X331710Y66871D01*
X359960Y58150D02*
X364940Y58150D01*
X359960Y58150D02*
X359960Y67130D01*
X364940Y67130D01*
X364940Y58150D01*
X364940Y59119D02*
X359960Y59119D01*
X359960Y60088D02*
X364940Y60088D01*
X364940Y61057D02*
X359960Y61057D01*
X359960Y62026D02*
X364940Y62026D01*
X364940Y62995D02*
X359960Y62995D01*
X359960Y63964D02*
X364940Y63964D01*
X364940Y64933D02*
X359960Y64933D01*
X359960Y65902D02*
X364940Y65902D01*
X364940Y66871D02*
X359960Y66871D01*
X357190Y58150D02*
X352210Y58150D01*
X352210Y67130D01*
X357190Y67130D01*
X357190Y58150D01*
X357190Y59119D02*
X352210Y59119D01*
X352210Y60088D02*
X357190Y60088D01*
X357190Y61057D02*
X352210Y61057D01*
X352210Y62026D02*
X357190Y62026D01*
X357190Y62995D02*
X352210Y62995D01*
X352210Y63964D02*
X357190Y63964D01*
X357190Y64933D02*
X352210Y64933D01*
X352210Y65902D02*
X357190Y65902D01*
X357190Y66871D02*
X352210Y66871D01*
X348690Y58150D02*
X346710Y58150D01*
X346710Y67130D01*
X348690Y67130D01*
X348690Y58150D01*
X348690Y59119D02*
X346710Y59119D01*
X346710Y60088D02*
X348690Y60088D01*
X348690Y61057D02*
X346710Y61057D01*
X346710Y62026D02*
X348690Y62026D01*
X348690Y62995D02*
X346710Y62995D01*
X346710Y63964D02*
X348690Y63964D01*
X348690Y64933D02*
X346710Y64933D01*
X346710Y65902D02*
X348690Y65902D01*
X348690Y66871D02*
X346710Y66871D01*
X343690Y58150D02*
X341710Y58150D01*
X341710Y67130D01*
X343690Y67130D01*
X343690Y58150D01*
X343690Y59119D02*
X341710Y59119D01*
X341710Y60088D02*
X343690Y60088D01*
X343690Y61057D02*
X341710Y61057D01*
X341710Y62026D02*
X343690Y62026D01*
X343690Y62995D02*
X341710Y62995D01*
X341710Y63964D02*
X343690Y63964D01*
X343690Y64933D02*
X341710Y64933D01*
X341710Y65902D02*
X343690Y65902D01*
X343690Y66871D02*
X341710Y66871D01*
X323690Y67130D02*
X321710Y67130D01*
X323690Y67130D02*
X323690Y58150D01*
X321710Y58150D01*
X321710Y67130D01*
X321710Y59119D02*
X323690Y59119D01*
X323690Y60088D02*
X321710Y60088D01*
X321710Y61057D02*
X323690Y61057D01*
X323690Y62026D02*
X321710Y62026D01*
X321710Y62995D02*
X323690Y62995D01*
X323690Y63964D02*
X321710Y63964D01*
X321710Y64933D02*
X323690Y64933D01*
X323690Y65902D02*
X321710Y65902D01*
X321710Y66871D02*
X323690Y66871D01*
X326710Y67130D02*
X328690Y67130D01*
X328690Y58150D01*
X326710Y58150D01*
X326710Y67130D01*
X326710Y59119D02*
X328690Y59119D01*
X328690Y60088D02*
X326710Y60088D01*
X326710Y61057D02*
X328690Y61057D01*
X328690Y62026D02*
X326710Y62026D01*
X326710Y62995D02*
X328690Y62995D01*
X328690Y63964D02*
X326710Y63964D01*
X326710Y64933D02*
X328690Y64933D01*
X328690Y65902D02*
X326710Y65902D01*
X326710Y66871D02*
X328690Y66871D01*
X300440Y67130D02*
X295460Y67130D01*
X300440Y67130D02*
X300440Y58150D01*
X295460Y58150D01*
X295460Y67130D01*
X295460Y59119D02*
X300440Y59119D01*
X300440Y60088D02*
X295460Y60088D01*
X295460Y61057D02*
X300440Y61057D01*
X300440Y62026D02*
X295460Y62026D01*
X295460Y62995D02*
X300440Y62995D01*
X300440Y63964D02*
X295460Y63964D01*
X295460Y64933D02*
X300440Y64933D01*
X300440Y65902D02*
X295460Y65902D01*
X295460Y66871D02*
X300440Y66871D01*
X303210Y67130D02*
X308190Y67130D01*
X308190Y58150D01*
X303210Y58150D01*
X303210Y67130D01*
X303210Y59119D02*
X308190Y59119D01*
X308190Y60088D02*
X303210Y60088D01*
X303210Y61057D02*
X308190Y61057D01*
X308190Y62026D02*
X303210Y62026D01*
X303210Y62995D02*
X308190Y62995D01*
X308190Y63964D02*
X303210Y63964D01*
X303210Y64933D02*
X308190Y64933D01*
X308190Y65902D02*
X303210Y65902D01*
X303210Y66871D02*
X308190Y66871D01*
X311710Y67130D02*
X313690Y67130D01*
X313690Y58150D01*
X311710Y58150D01*
X311710Y67130D01*
X311710Y59119D02*
X313690Y59119D01*
X313690Y60088D02*
X311710Y60088D01*
X311710Y61057D02*
X313690Y61057D01*
X313690Y62026D02*
X311710Y62026D01*
X311710Y62995D02*
X313690Y62995D01*
X313690Y63964D02*
X311710Y63964D01*
X311710Y64933D02*
X313690Y64933D01*
X313690Y65902D02*
X311710Y65902D01*
X311710Y66871D02*
X313690Y66871D01*
X316710Y67130D02*
X318690Y67130D01*
X318690Y58150D01*
X316710Y58150D01*
X316710Y67130D01*
X316710Y59119D02*
X318690Y59119D01*
X318690Y60088D02*
X316710Y60088D01*
X316710Y61057D02*
X318690Y61057D01*
X318690Y62026D02*
X316710Y62026D01*
X316710Y62995D02*
X318690Y62995D01*
X318690Y63964D02*
X316710Y63964D01*
X316710Y64933D02*
X318690Y64933D01*
X318690Y65902D02*
X316710Y65902D01*
X316710Y66871D02*
X318690Y66871D01*
D10*
X287600Y105100D02*
X287600Y115100D01*
X296600Y115100D01*
X296600Y105100D01*
X287600Y105100D01*
X287600Y106050D02*
X296600Y106050D01*
X296600Y107000D02*
X287600Y107000D01*
X287600Y107950D02*
X296600Y107950D01*
X296600Y108900D02*
X287600Y108900D01*
X287600Y109850D02*
X296600Y109850D01*
X296600Y110800D02*
X287600Y110800D01*
X287600Y111750D02*
X296600Y111750D01*
X296600Y112700D02*
X287600Y112700D01*
X287600Y113650D02*
X296600Y113650D01*
X296600Y114600D02*
X287600Y114600D01*
X287600Y98100D02*
X287600Y88100D01*
X287600Y98100D02*
X296600Y98100D01*
X296600Y88100D01*
X287600Y88100D01*
X287600Y89050D02*
X296600Y89050D01*
X296600Y90000D02*
X287600Y90000D01*
X287600Y90950D02*
X296600Y90950D01*
X296600Y91900D02*
X287600Y91900D01*
X287600Y92850D02*
X296600Y92850D01*
X296600Y93800D02*
X287600Y93800D01*
X287600Y94750D02*
X296600Y94750D01*
X296600Y95700D02*
X287600Y95700D01*
X287600Y96650D02*
X296600Y96650D01*
X296600Y97600D02*
X287600Y97600D01*
X363800Y105100D02*
X363800Y115100D01*
X372800Y115100D01*
X372800Y105100D01*
X363800Y105100D01*
X363800Y106050D02*
X372800Y106050D01*
X372800Y107000D02*
X363800Y107000D01*
X363800Y107950D02*
X372800Y107950D01*
X372800Y108900D02*
X363800Y108900D01*
X363800Y109850D02*
X372800Y109850D01*
X372800Y110800D02*
X363800Y110800D01*
X363800Y111750D02*
X372800Y111750D01*
X372800Y112700D02*
X363800Y112700D01*
X363800Y113650D02*
X372800Y113650D01*
X372800Y114600D02*
X363800Y114600D01*
X363800Y98100D02*
X363800Y88100D01*
X363800Y98100D02*
X372800Y98100D01*
X372800Y88100D01*
X363800Y88100D01*
X363800Y89050D02*
X372800Y89050D01*
X372800Y90000D02*
X363800Y90000D01*
X363800Y90950D02*
X372800Y90950D01*
X372800Y91900D02*
X363800Y91900D01*
X363800Y92850D02*
X372800Y92850D01*
X372800Y93800D02*
X363800Y93800D01*
X363800Y94750D02*
X372800Y94750D01*
X372800Y95700D02*
X363800Y95700D01*
X363800Y96650D02*
X372800Y96650D01*
X372800Y97600D02*
X363800Y97600D01*
D13*
X16015Y436385D02*
X9385Y436385D01*
X16015Y436385D02*
X16015Y422135D01*
X9385Y422135D01*
X9385Y436385D01*
X9385Y423076D02*
X16015Y423076D01*
X16015Y424017D02*
X9385Y424017D01*
X9385Y424958D02*
X16015Y424958D01*
X16015Y425899D02*
X9385Y425899D01*
X9385Y426840D02*
X16015Y426840D01*
X16015Y427781D02*
X9385Y427781D01*
X9385Y428722D02*
X16015Y428722D01*
X16015Y429663D02*
X9385Y429663D01*
X9385Y430604D02*
X16015Y430604D01*
X16015Y431545D02*
X9385Y431545D01*
X9385Y432486D02*
X16015Y432486D01*
X16015Y433427D02*
X9385Y433427D01*
X9385Y434368D02*
X16015Y434368D01*
X16015Y435309D02*
X9385Y435309D01*
X9385Y436250D02*
X16015Y436250D01*
X16015Y492265D02*
X9385Y492265D01*
X16015Y492265D02*
X16015Y478015D01*
X9385Y478015D01*
X9385Y492265D01*
X9385Y478956D02*
X16015Y478956D01*
X16015Y479897D02*
X9385Y479897D01*
X9385Y480838D02*
X16015Y480838D01*
X16015Y481779D02*
X9385Y481779D01*
X9385Y482720D02*
X16015Y482720D01*
X16015Y483661D02*
X9385Y483661D01*
X9385Y484602D02*
X16015Y484602D01*
X16015Y485543D02*
X9385Y485543D01*
X9385Y486484D02*
X16015Y486484D01*
X16015Y487425D02*
X9385Y487425D01*
X9385Y488366D02*
X16015Y488366D01*
X16015Y489307D02*
X9385Y489307D01*
X9385Y490248D02*
X16015Y490248D01*
X16015Y491189D02*
X9385Y491189D01*
X9385Y492130D02*
X16015Y492130D01*
X47485Y436385D02*
X54115Y436385D01*
X54115Y422135D01*
X47485Y422135D01*
X47485Y436385D01*
X47485Y423076D02*
X54115Y423076D01*
X54115Y424017D02*
X47485Y424017D01*
X47485Y424958D02*
X54115Y424958D01*
X54115Y425899D02*
X47485Y425899D01*
X47485Y426840D02*
X54115Y426840D01*
X54115Y427781D02*
X47485Y427781D01*
X47485Y428722D02*
X54115Y428722D01*
X54115Y429663D02*
X47485Y429663D01*
X47485Y430604D02*
X54115Y430604D01*
X54115Y431545D02*
X47485Y431545D01*
X47485Y432486D02*
X54115Y432486D01*
X54115Y433427D02*
X47485Y433427D01*
X47485Y434368D02*
X54115Y434368D01*
X54115Y435309D02*
X47485Y435309D01*
X47485Y436250D02*
X54115Y436250D01*
X54115Y492265D02*
X47485Y492265D01*
X54115Y492265D02*
X54115Y478015D01*
X47485Y478015D01*
X47485Y492265D01*
X47485Y478956D02*
X54115Y478956D01*
X54115Y479897D02*
X47485Y479897D01*
X47485Y480838D02*
X54115Y480838D01*
X54115Y481779D02*
X47485Y481779D01*
X47485Y482720D02*
X54115Y482720D01*
X54115Y483661D02*
X47485Y483661D01*
X47485Y484602D02*
X54115Y484602D01*
X54115Y485543D02*
X47485Y485543D01*
X47485Y486484D02*
X54115Y486484D01*
X54115Y487425D02*
X47485Y487425D01*
X47485Y488366D02*
X54115Y488366D01*
X54115Y489307D02*
X47485Y489307D01*
X47485Y490248D02*
X54115Y490248D01*
X54115Y491189D02*
X47485Y491189D01*
X47485Y492130D02*
X54115Y492130D01*
X403085Y436385D02*
X409715Y436385D01*
X409715Y422135D01*
X403085Y422135D01*
X403085Y436385D01*
X403085Y423076D02*
X409715Y423076D01*
X409715Y424017D02*
X403085Y424017D01*
X403085Y424958D02*
X409715Y424958D01*
X409715Y425899D02*
X403085Y425899D01*
X403085Y426840D02*
X409715Y426840D01*
X409715Y427781D02*
X403085Y427781D01*
X403085Y428722D02*
X409715Y428722D01*
X409715Y429663D02*
X403085Y429663D01*
X403085Y430604D02*
X409715Y430604D01*
X409715Y431545D02*
X403085Y431545D01*
X403085Y432486D02*
X409715Y432486D01*
X409715Y433427D02*
X403085Y433427D01*
X403085Y434368D02*
X409715Y434368D01*
X409715Y435309D02*
X403085Y435309D01*
X403085Y436250D02*
X409715Y436250D01*
X409715Y492265D02*
X403085Y492265D01*
X409715Y492265D02*
X409715Y478015D01*
X403085Y478015D01*
X403085Y492265D01*
X403085Y478956D02*
X409715Y478956D01*
X409715Y479897D02*
X403085Y479897D01*
X403085Y480838D02*
X409715Y480838D01*
X409715Y481779D02*
X403085Y481779D01*
X403085Y482720D02*
X409715Y482720D01*
X409715Y483661D02*
X403085Y483661D01*
X403085Y484602D02*
X409715Y484602D01*
X409715Y485543D02*
X403085Y485543D01*
X403085Y486484D02*
X409715Y486484D01*
X409715Y487425D02*
X403085Y487425D01*
X403085Y488366D02*
X409715Y488366D01*
X409715Y489307D02*
X403085Y489307D01*
X403085Y490248D02*
X409715Y490248D01*
X409715Y491189D02*
X403085Y491189D01*
X403085Y492130D02*
X409715Y492130D01*
X441185Y436385D02*
X447815Y436385D01*
X447815Y422135D01*
X441185Y422135D01*
X441185Y436385D01*
X441185Y423076D02*
X447815Y423076D01*
X447815Y424017D02*
X441185Y424017D01*
X441185Y424958D02*
X447815Y424958D01*
X447815Y425899D02*
X441185Y425899D01*
X441185Y426840D02*
X447815Y426840D01*
X447815Y427781D02*
X441185Y427781D01*
X441185Y428722D02*
X447815Y428722D01*
X447815Y429663D02*
X441185Y429663D01*
X441185Y430604D02*
X447815Y430604D01*
X447815Y431545D02*
X441185Y431545D01*
X441185Y432486D02*
X447815Y432486D01*
X447815Y433427D02*
X441185Y433427D01*
X441185Y434368D02*
X447815Y434368D01*
X447815Y435309D02*
X441185Y435309D01*
X441185Y436250D02*
X447815Y436250D01*
X447815Y492265D02*
X441185Y492265D01*
X447815Y492265D02*
X447815Y478015D01*
X441185Y478015D01*
X441185Y492265D01*
X441185Y478956D02*
X447815Y478956D01*
X447815Y479897D02*
X441185Y479897D01*
X441185Y480838D02*
X447815Y480838D01*
X447815Y481779D02*
X441185Y481779D01*
X441185Y482720D02*
X447815Y482720D01*
X447815Y483661D02*
X441185Y483661D01*
X441185Y484602D02*
X447815Y484602D01*
X447815Y485543D02*
X441185Y485543D01*
X441185Y486484D02*
X447815Y486484D01*
X447815Y487425D02*
X441185Y487425D01*
X441185Y488366D02*
X447815Y488366D01*
X447815Y489307D02*
X441185Y489307D01*
X441185Y490248D02*
X447815Y490248D01*
X447815Y491189D02*
X441185Y491189D01*
X441185Y492130D02*
X447815Y492130D01*
D10*
X69160Y115100D02*
X69160Y105100D01*
X69160Y115100D02*
X78160Y115100D01*
X78160Y105100D01*
X69160Y105100D01*
X69160Y106050D02*
X78160Y106050D01*
X78160Y107000D02*
X69160Y107000D01*
X69160Y107950D02*
X78160Y107950D01*
X78160Y108900D02*
X69160Y108900D01*
X69160Y109850D02*
X78160Y109850D01*
X78160Y110800D02*
X69160Y110800D01*
X69160Y111750D02*
X78160Y111750D01*
X78160Y112700D02*
X69160Y112700D01*
X69160Y113650D02*
X78160Y113650D01*
X78160Y114600D02*
X69160Y114600D01*
X69160Y98100D02*
X69160Y88100D01*
X69160Y98100D02*
X78160Y98100D01*
X78160Y88100D01*
X69160Y88100D01*
X69160Y89050D02*
X78160Y89050D01*
X78160Y90000D02*
X69160Y90000D01*
X69160Y90950D02*
X78160Y90950D01*
X78160Y91900D02*
X69160Y91900D01*
X69160Y92850D02*
X78160Y92850D01*
X78160Y93800D02*
X69160Y93800D01*
X69160Y94750D02*
X78160Y94750D01*
X78160Y95700D02*
X69160Y95700D01*
X69160Y96650D02*
X78160Y96650D01*
X78160Y97600D02*
X69160Y97600D01*
D14*
X16320Y68270D02*
X16320Y61270D01*
X9320Y61270D01*
X9320Y68270D01*
X16320Y68270D01*
X16320Y64120D02*
X9320Y64120D01*
X9320Y66970D02*
X16320Y66970D01*
X33860Y68270D02*
X33860Y61270D01*
X26860Y61270D01*
X26860Y68270D01*
X33860Y68270D01*
X33860Y64120D02*
X26860Y64120D01*
X26860Y66970D02*
X33860Y66970D01*
X16320Y96830D02*
X16320Y103830D01*
X16320Y96830D02*
X9320Y96830D01*
X9320Y103830D01*
X16320Y103830D01*
X16320Y99680D02*
X9320Y99680D01*
X9320Y102530D02*
X16320Y102530D01*
X33860Y103830D02*
X33860Y96830D01*
X26860Y96830D01*
X26860Y103830D01*
X33860Y103830D01*
X33860Y99680D02*
X26860Y99680D01*
X26860Y102530D02*
X33860Y102530D01*
D10*
X53920Y105100D02*
X53920Y115100D01*
X62920Y115100D01*
X62920Y105100D01*
X53920Y105100D01*
X53920Y106050D02*
X62920Y106050D01*
X62920Y107000D02*
X53920Y107000D01*
X53920Y107950D02*
X62920Y107950D01*
X62920Y108900D02*
X53920Y108900D01*
X53920Y109850D02*
X62920Y109850D01*
X62920Y110800D02*
X53920Y110800D01*
X53920Y111750D02*
X62920Y111750D01*
X62920Y112700D02*
X53920Y112700D01*
X53920Y113650D02*
X62920Y113650D01*
X62920Y114600D02*
X53920Y114600D01*
X53920Y98100D02*
X53920Y88100D01*
X53920Y98100D02*
X62920Y98100D01*
X62920Y88100D01*
X53920Y88100D01*
X53920Y89050D02*
X62920Y89050D01*
X62920Y90000D02*
X53920Y90000D01*
X53920Y90950D02*
X62920Y90950D01*
X62920Y91900D02*
X53920Y91900D01*
X53920Y92850D02*
X62920Y92850D01*
X62920Y93800D02*
X53920Y93800D01*
X53920Y94750D02*
X62920Y94750D01*
X62920Y95700D02*
X53920Y95700D01*
X53920Y96650D02*
X62920Y96650D01*
X62920Y97600D02*
X53920Y97600D01*
D15*
X104375Y173830D03*
X104375Y168830D03*
X104375Y163830D03*
X104375Y158830D03*
X104375Y153830D03*
X149625Y153830D03*
X149625Y158830D03*
X149625Y163830D03*
X149625Y168830D03*
X149625Y173830D03*
D12*
X135490Y58150D02*
X133510Y58150D01*
X133510Y67130D01*
X135490Y67130D01*
X135490Y58150D01*
X135490Y59119D02*
X133510Y59119D01*
X133510Y60088D02*
X135490Y60088D01*
X135490Y61057D02*
X133510Y61057D01*
X133510Y62026D02*
X135490Y62026D01*
X135490Y62995D02*
X133510Y62995D01*
X133510Y63964D02*
X135490Y63964D01*
X135490Y64933D02*
X133510Y64933D01*
X133510Y65902D02*
X135490Y65902D01*
X135490Y66871D02*
X133510Y66871D01*
X130490Y58150D02*
X128510Y58150D01*
X128510Y67130D01*
X130490Y67130D01*
X130490Y58150D01*
X130490Y59119D02*
X128510Y59119D01*
X128510Y60088D02*
X130490Y60088D01*
X130490Y61057D02*
X128510Y61057D01*
X128510Y62026D02*
X130490Y62026D01*
X130490Y62995D02*
X128510Y62995D01*
X128510Y63964D02*
X130490Y63964D01*
X130490Y64933D02*
X128510Y64933D01*
X128510Y65902D02*
X130490Y65902D01*
X130490Y66871D02*
X128510Y66871D01*
X156760Y58150D02*
X161740Y58150D01*
X156760Y58150D02*
X156760Y67130D01*
X161740Y67130D01*
X161740Y58150D01*
X161740Y59119D02*
X156760Y59119D01*
X156760Y60088D02*
X161740Y60088D01*
X161740Y61057D02*
X156760Y61057D01*
X156760Y62026D02*
X161740Y62026D01*
X161740Y62995D02*
X156760Y62995D01*
X156760Y63964D02*
X161740Y63964D01*
X161740Y64933D02*
X156760Y64933D01*
X156760Y65902D02*
X161740Y65902D01*
X161740Y66871D02*
X156760Y66871D01*
X153990Y58150D02*
X149010Y58150D01*
X149010Y67130D01*
X153990Y67130D01*
X153990Y58150D01*
X153990Y59119D02*
X149010Y59119D01*
X149010Y60088D02*
X153990Y60088D01*
X153990Y61057D02*
X149010Y61057D01*
X149010Y62026D02*
X153990Y62026D01*
X153990Y62995D02*
X149010Y62995D01*
X149010Y63964D02*
X153990Y63964D01*
X153990Y64933D02*
X149010Y64933D01*
X149010Y65902D02*
X153990Y65902D01*
X153990Y66871D02*
X149010Y66871D01*
X145490Y58150D02*
X143510Y58150D01*
X143510Y67130D01*
X145490Y67130D01*
X145490Y58150D01*
X145490Y59119D02*
X143510Y59119D01*
X143510Y60088D02*
X145490Y60088D01*
X145490Y61057D02*
X143510Y61057D01*
X143510Y62026D02*
X145490Y62026D01*
X145490Y62995D02*
X143510Y62995D01*
X143510Y63964D02*
X145490Y63964D01*
X145490Y64933D02*
X143510Y64933D01*
X143510Y65902D02*
X145490Y65902D01*
X145490Y66871D02*
X143510Y66871D01*
X140490Y58150D02*
X138510Y58150D01*
X138510Y67130D01*
X140490Y67130D01*
X140490Y58150D01*
X140490Y59119D02*
X138510Y59119D01*
X138510Y60088D02*
X140490Y60088D01*
X140490Y61057D02*
X138510Y61057D01*
X138510Y62026D02*
X140490Y62026D01*
X140490Y62995D02*
X138510Y62995D01*
X138510Y63964D02*
X140490Y63964D01*
X140490Y64933D02*
X138510Y64933D01*
X138510Y65902D02*
X140490Y65902D01*
X140490Y66871D02*
X138510Y66871D01*
X120490Y67130D02*
X118510Y67130D01*
X120490Y67130D02*
X120490Y58150D01*
X118510Y58150D01*
X118510Y67130D01*
X118510Y59119D02*
X120490Y59119D01*
X120490Y60088D02*
X118510Y60088D01*
X118510Y61057D02*
X120490Y61057D01*
X120490Y62026D02*
X118510Y62026D01*
X118510Y62995D02*
X120490Y62995D01*
X120490Y63964D02*
X118510Y63964D01*
X118510Y64933D02*
X120490Y64933D01*
X120490Y65902D02*
X118510Y65902D01*
X118510Y66871D02*
X120490Y66871D01*
X123510Y67130D02*
X125490Y67130D01*
X125490Y58150D01*
X123510Y58150D01*
X123510Y67130D01*
X123510Y59119D02*
X125490Y59119D01*
X125490Y60088D02*
X123510Y60088D01*
X123510Y61057D02*
X125490Y61057D01*
X125490Y62026D02*
X123510Y62026D01*
X123510Y62995D02*
X125490Y62995D01*
X125490Y63964D02*
X123510Y63964D01*
X123510Y64933D02*
X125490Y64933D01*
X125490Y65902D02*
X123510Y65902D01*
X123510Y66871D02*
X125490Y66871D01*
X97240Y67130D02*
X92260Y67130D01*
X97240Y67130D02*
X97240Y58150D01*
X92260Y58150D01*
X92260Y67130D01*
X92260Y59119D02*
X97240Y59119D01*
X97240Y60088D02*
X92260Y60088D01*
X92260Y61057D02*
X97240Y61057D01*
X97240Y62026D02*
X92260Y62026D01*
X92260Y62995D02*
X97240Y62995D01*
X97240Y63964D02*
X92260Y63964D01*
X92260Y64933D02*
X97240Y64933D01*
X97240Y65902D02*
X92260Y65902D01*
X92260Y66871D02*
X97240Y66871D01*
X100010Y67130D02*
X104990Y67130D01*
X104990Y58150D01*
X100010Y58150D01*
X100010Y67130D01*
X100010Y59119D02*
X104990Y59119D01*
X104990Y60088D02*
X100010Y60088D01*
X100010Y61057D02*
X104990Y61057D01*
X104990Y62026D02*
X100010Y62026D01*
X100010Y62995D02*
X104990Y62995D01*
X104990Y63964D02*
X100010Y63964D01*
X100010Y64933D02*
X104990Y64933D01*
X104990Y65902D02*
X100010Y65902D01*
X100010Y66871D02*
X104990Y66871D01*
X108510Y67130D02*
X110490Y67130D01*
X110490Y58150D01*
X108510Y58150D01*
X108510Y67130D01*
X108510Y59119D02*
X110490Y59119D01*
X110490Y60088D02*
X108510Y60088D01*
X108510Y61057D02*
X110490Y61057D01*
X110490Y62026D02*
X108510Y62026D01*
X108510Y62995D02*
X110490Y62995D01*
X110490Y63964D02*
X108510Y63964D01*
X108510Y64933D02*
X110490Y64933D01*
X110490Y65902D02*
X108510Y65902D01*
X108510Y66871D02*
X110490Y66871D01*
X113510Y67130D02*
X115490Y67130D01*
X115490Y58150D01*
X113510Y58150D01*
X113510Y67130D01*
X113510Y59119D02*
X115490Y59119D01*
X115490Y60088D02*
X113510Y60088D01*
X113510Y61057D02*
X115490Y61057D01*
X115490Y62026D02*
X113510Y62026D01*
X113510Y62995D02*
X115490Y62995D01*
X115490Y63964D02*
X113510Y63964D01*
X113510Y64933D02*
X115490Y64933D01*
X115490Y65902D02*
X113510Y65902D01*
X113510Y66871D02*
X115490Y66871D01*
D10*
X84400Y105100D02*
X84400Y115100D01*
X93400Y115100D01*
X93400Y105100D01*
X84400Y105100D01*
X84400Y106050D02*
X93400Y106050D01*
X93400Y107000D02*
X84400Y107000D01*
X84400Y107950D02*
X93400Y107950D01*
X93400Y108900D02*
X84400Y108900D01*
X84400Y109850D02*
X93400Y109850D01*
X93400Y110800D02*
X84400Y110800D01*
X84400Y111750D02*
X93400Y111750D01*
X93400Y112700D02*
X84400Y112700D01*
X84400Y113650D02*
X93400Y113650D01*
X93400Y114600D02*
X84400Y114600D01*
X84400Y98100D02*
X84400Y88100D01*
X84400Y98100D02*
X93400Y98100D01*
X93400Y88100D01*
X84400Y88100D01*
X84400Y89050D02*
X93400Y89050D01*
X93400Y90000D02*
X84400Y90000D01*
X84400Y90950D02*
X93400Y90950D01*
X93400Y91900D02*
X84400Y91900D01*
X84400Y92850D02*
X93400Y92850D01*
X93400Y93800D02*
X84400Y93800D01*
X84400Y94750D02*
X93400Y94750D01*
X93400Y95700D02*
X84400Y95700D01*
X84400Y96650D02*
X93400Y96650D01*
X93400Y97600D02*
X84400Y97600D01*
X160600Y105100D02*
X160600Y115100D01*
X169600Y115100D01*
X169600Y105100D01*
X160600Y105100D01*
X160600Y106050D02*
X169600Y106050D01*
X169600Y107000D02*
X160600Y107000D01*
X160600Y107950D02*
X169600Y107950D01*
X169600Y108900D02*
X160600Y108900D01*
X160600Y109850D02*
X169600Y109850D01*
X169600Y110800D02*
X160600Y110800D01*
X160600Y111750D02*
X169600Y111750D01*
X169600Y112700D02*
X160600Y112700D01*
X160600Y113650D02*
X169600Y113650D01*
X169600Y114600D02*
X160600Y114600D01*
X160600Y98100D02*
X160600Y88100D01*
X160600Y98100D02*
X169600Y98100D01*
X169600Y88100D01*
X160600Y88100D01*
X160600Y89050D02*
X169600Y89050D01*
X169600Y90000D02*
X160600Y90000D01*
X160600Y90950D02*
X169600Y90950D01*
X169600Y91900D02*
X160600Y91900D01*
X160600Y92850D02*
X169600Y92850D01*
X169600Y93800D02*
X160600Y93800D01*
X160600Y94750D02*
X169600Y94750D01*
X169600Y95700D02*
X160600Y95700D01*
X160600Y96650D02*
X169600Y96650D01*
X169600Y97600D02*
X160600Y97600D01*
D16*
X244258Y209058D02*
X255942Y209058D01*
X244258Y209058D02*
X244258Y222742D01*
X255942Y222742D01*
X255942Y209058D01*
X255942Y210023D02*
X244258Y210023D01*
X244258Y210988D02*
X255942Y210988D01*
X255942Y211953D02*
X244258Y211953D01*
X244258Y212918D02*
X255942Y212918D01*
X255942Y213883D02*
X244258Y213883D01*
X244258Y214848D02*
X255942Y214848D01*
X255942Y215813D02*
X244258Y215813D01*
X244258Y216778D02*
X255942Y216778D01*
X255942Y217743D02*
X244258Y217743D01*
X244258Y218708D02*
X255942Y218708D01*
X255942Y219673D02*
X244258Y219673D01*
X244258Y220638D02*
X255942Y220638D01*
X255942Y221603D02*
X244258Y221603D01*
X244258Y222568D02*
X255942Y222568D01*
X212942Y222742D02*
X201258Y222742D01*
X212942Y222742D02*
X212942Y209058D01*
X201258Y209058D01*
X201258Y222742D01*
X201258Y210023D02*
X212942Y210023D01*
X212942Y210988D02*
X201258Y210988D01*
X201258Y211953D02*
X212942Y211953D01*
X212942Y212918D02*
X201258Y212918D01*
X201258Y213883D02*
X212942Y213883D01*
X212942Y214848D02*
X201258Y214848D01*
X201258Y215813D02*
X212942Y215813D01*
X212942Y216778D02*
X201258Y216778D01*
X201258Y217743D02*
X212942Y217743D01*
X212942Y218708D02*
X201258Y218708D01*
X201258Y219673D02*
X212942Y219673D01*
X212942Y220638D02*
X201258Y220638D01*
X201258Y221603D02*
X212942Y221603D01*
X212942Y222568D02*
X201258Y222568D01*
D17*
X217180Y171780D02*
X217180Y164820D01*
X209220Y164820D01*
X209220Y171780D01*
X217180Y171780D01*
X217180Y165808D02*
X209220Y165808D01*
X209220Y166796D02*
X217180Y166796D01*
X217180Y167784D02*
X209220Y167784D01*
X209220Y168772D02*
X217180Y168772D01*
X217180Y169760D02*
X209220Y169760D01*
X209220Y170748D02*
X217180Y170748D01*
X217180Y171736D02*
X209220Y171736D01*
X217180Y183820D02*
X217180Y190780D01*
X217180Y183820D02*
X209220Y183820D01*
X209220Y190780D01*
X217180Y190780D01*
X217180Y184808D02*
X209220Y184808D01*
X209220Y185796D02*
X217180Y185796D01*
X217180Y186784D02*
X209220Y186784D01*
X209220Y187772D02*
X217180Y187772D01*
X217180Y188760D02*
X209220Y188760D01*
X209220Y189748D02*
X217180Y189748D01*
X217180Y190736D02*
X209220Y190736D01*
X196180Y181280D02*
X196180Y174320D01*
X188220Y174320D01*
X188220Y181280D01*
X196180Y181280D01*
X196180Y175308D02*
X188220Y175308D01*
X188220Y176296D02*
X196180Y176296D01*
X196180Y177284D02*
X188220Y177284D01*
X188220Y178272D02*
X196180Y178272D01*
X196180Y179260D02*
X188220Y179260D01*
X188220Y180248D02*
X196180Y180248D01*
X196180Y181236D02*
X188220Y181236D01*
D10*
X257500Y179760D02*
X267500Y179760D01*
X267500Y170760D01*
X257500Y170760D01*
X257500Y179760D01*
X257500Y171710D02*
X267500Y171710D01*
X267500Y172660D02*
X257500Y172660D01*
X257500Y173610D02*
X267500Y173610D01*
X267500Y174560D02*
X257500Y174560D01*
X257500Y175510D02*
X267500Y175510D01*
X267500Y176460D02*
X257500Y176460D01*
X257500Y177410D02*
X267500Y177410D01*
X267500Y178360D02*
X257500Y178360D01*
X257500Y179310D02*
X267500Y179310D01*
X250500Y179760D02*
X240500Y179760D01*
X250500Y179760D02*
X250500Y170760D01*
X240500Y170760D01*
X240500Y179760D01*
X240500Y171710D02*
X250500Y171710D01*
X250500Y172660D02*
X240500Y172660D01*
X240500Y173610D02*
X250500Y173610D01*
X250500Y174560D02*
X240500Y174560D01*
X240500Y175510D02*
X250500Y175510D01*
X250500Y176460D02*
X240500Y176460D01*
X240500Y177410D02*
X250500Y177410D01*
X250500Y178360D02*
X240500Y178360D01*
X240500Y179310D02*
X250500Y179310D01*
D18*
X217346Y156046D02*
X212054Y156046D01*
X217346Y156046D02*
X217346Y148754D01*
X212054Y148754D01*
X212054Y156046D01*
X212054Y149712D02*
X217346Y149712D01*
X217346Y150670D02*
X212054Y150670D01*
X212054Y151628D02*
X217346Y151628D01*
X217346Y152586D02*
X212054Y152586D01*
X212054Y153544D02*
X217346Y153544D01*
X217346Y154502D02*
X212054Y154502D01*
X212054Y155460D02*
X217346Y155460D01*
X194346Y156046D02*
X189054Y156046D01*
X194346Y156046D02*
X194346Y148754D01*
X189054Y148754D01*
X189054Y156046D01*
X189054Y149712D02*
X194346Y149712D01*
X194346Y150670D02*
X189054Y150670D01*
X189054Y151628D02*
X194346Y151628D01*
X194346Y152586D02*
X189054Y152586D01*
X189054Y153544D02*
X194346Y153544D01*
X194346Y154502D02*
X189054Y154502D01*
X189054Y155460D02*
X194346Y155460D01*
X239854Y148754D02*
X245146Y148754D01*
X239854Y148754D02*
X239854Y156046D01*
X245146Y156046D01*
X245146Y148754D01*
X245146Y149712D02*
X239854Y149712D01*
X239854Y150670D02*
X245146Y150670D01*
X245146Y151628D02*
X239854Y151628D01*
X239854Y152586D02*
X245146Y152586D01*
X245146Y153544D02*
X239854Y153544D01*
X239854Y154502D02*
X245146Y154502D01*
X245146Y155460D02*
X239854Y155460D01*
X262854Y148754D02*
X268146Y148754D01*
X262854Y148754D02*
X262854Y156046D01*
X268146Y156046D01*
X268146Y148754D01*
X268146Y149712D02*
X262854Y149712D01*
X262854Y150670D02*
X268146Y150670D01*
X268146Y151628D02*
X262854Y151628D01*
X262854Y152586D02*
X268146Y152586D01*
X268146Y153544D02*
X262854Y153544D01*
X262854Y154502D02*
X268146Y154502D01*
X268146Y155460D02*
X262854Y155460D01*
D19*
X208594Y299345D02*
X208594Y303855D01*
X221104Y303855D01*
X221104Y299345D01*
X208594Y299345D01*
X208594Y300285D02*
X221104Y300285D01*
X221104Y301225D02*
X208594Y301225D01*
X208594Y302165D02*
X221104Y302165D01*
X221104Y303105D02*
X208594Y303105D01*
X208594Y294355D02*
X208594Y289845D01*
X208594Y294355D02*
X221104Y294355D01*
X221104Y289845D01*
X208594Y289845D01*
X208594Y290785D02*
X221104Y290785D01*
X221104Y291725D02*
X208594Y291725D01*
X208594Y292665D02*
X221104Y292665D01*
X221104Y293605D02*
X208594Y293605D01*
X208594Y284855D02*
X208594Y280345D01*
X208594Y284855D02*
X221104Y284855D01*
X221104Y280345D01*
X208594Y280345D01*
X208594Y281285D02*
X221104Y281285D01*
X221104Y282225D02*
X208594Y282225D01*
X208594Y283165D02*
X221104Y283165D01*
X221104Y284105D02*
X208594Y284105D01*
X236096Y284855D02*
X236096Y280345D01*
X236096Y284855D02*
X248606Y284855D01*
X248606Y280345D01*
X236096Y280345D01*
X236096Y281285D02*
X248606Y281285D01*
X248606Y282225D02*
X236096Y282225D01*
X236096Y283165D02*
X248606Y283165D01*
X248606Y284105D02*
X236096Y284105D01*
X236096Y289845D02*
X236096Y294355D01*
X248606Y294355D01*
X248606Y289845D01*
X236096Y289845D01*
X236096Y290785D02*
X248606Y290785D01*
X248606Y291725D02*
X236096Y291725D01*
X236096Y292665D02*
X248606Y292665D01*
X248606Y293605D02*
X236096Y293605D01*
X236096Y299345D02*
X236096Y303855D01*
X248606Y303855D01*
X248606Y299345D01*
X236096Y299345D01*
X236096Y300285D02*
X248606Y300285D01*
X248606Y301225D02*
X236096Y301225D01*
X236096Y302165D02*
X248606Y302165D01*
X248606Y303105D02*
X236096Y303105D01*
D20*
X269869Y312033D02*
X269869Y272167D01*
X259467Y272167D01*
X259467Y312033D01*
X269869Y312033D01*
X269869Y273145D02*
X259467Y273145D01*
X259467Y274123D02*
X269869Y274123D01*
X269869Y275101D02*
X259467Y275101D01*
X259467Y276079D02*
X269869Y276079D01*
X269869Y277057D02*
X259467Y277057D01*
X259467Y278035D02*
X269869Y278035D01*
X269869Y279013D02*
X259467Y279013D01*
X259467Y279991D02*
X269869Y279991D01*
X269869Y280969D02*
X259467Y280969D01*
X259467Y281947D02*
X269869Y281947D01*
X269869Y282925D02*
X259467Y282925D01*
X259467Y283903D02*
X269869Y283903D01*
X269869Y284881D02*
X259467Y284881D01*
X259467Y285859D02*
X269869Y285859D01*
X269869Y286837D02*
X259467Y286837D01*
X259467Y287815D02*
X269869Y287815D01*
X269869Y288793D02*
X259467Y288793D01*
X259467Y289771D02*
X269869Y289771D01*
X269869Y290749D02*
X259467Y290749D01*
X259467Y291727D02*
X269869Y291727D01*
X269869Y292705D02*
X259467Y292705D01*
X259467Y293683D02*
X269869Y293683D01*
X269869Y294661D02*
X259467Y294661D01*
X259467Y295639D02*
X269869Y295639D01*
X269869Y296617D02*
X259467Y296617D01*
X259467Y297595D02*
X269869Y297595D01*
X269869Y298573D02*
X259467Y298573D01*
X259467Y299551D02*
X269869Y299551D01*
X269869Y300529D02*
X259467Y300529D01*
X259467Y301507D02*
X269869Y301507D01*
X269869Y302485D02*
X259467Y302485D01*
X259467Y303463D02*
X269869Y303463D01*
X269869Y304441D02*
X259467Y304441D01*
X259467Y305419D02*
X269869Y305419D01*
X269869Y306397D02*
X259467Y306397D01*
X259467Y307375D02*
X269869Y307375D01*
X269869Y308353D02*
X259467Y308353D01*
X259467Y309331D02*
X269869Y309331D01*
X269869Y310309D02*
X259467Y310309D01*
X259467Y311287D02*
X269869Y311287D01*
X299333Y312033D02*
X299333Y272167D01*
X288931Y272167D01*
X288931Y312033D01*
X299333Y312033D01*
X299333Y273145D02*
X288931Y273145D01*
X288931Y274123D02*
X299333Y274123D01*
X299333Y275101D02*
X288931Y275101D01*
X288931Y276079D02*
X299333Y276079D01*
X299333Y277057D02*
X288931Y277057D01*
X288931Y278035D02*
X299333Y278035D01*
X299333Y279013D02*
X288931Y279013D01*
X288931Y279991D02*
X299333Y279991D01*
X299333Y280969D02*
X288931Y280969D01*
X288931Y281947D02*
X299333Y281947D01*
X299333Y282925D02*
X288931Y282925D01*
X288931Y283903D02*
X299333Y283903D01*
X299333Y284881D02*
X288931Y284881D01*
X288931Y285859D02*
X299333Y285859D01*
X299333Y286837D02*
X288931Y286837D01*
X288931Y287815D02*
X299333Y287815D01*
X299333Y288793D02*
X288931Y288793D01*
X288931Y289771D02*
X299333Y289771D01*
X299333Y290749D02*
X288931Y290749D01*
X288931Y291727D02*
X299333Y291727D01*
X299333Y292705D02*
X288931Y292705D01*
X288931Y293683D02*
X299333Y293683D01*
X299333Y294661D02*
X288931Y294661D01*
X288931Y295639D02*
X299333Y295639D01*
X299333Y296617D02*
X288931Y296617D01*
X288931Y297595D02*
X299333Y297595D01*
X299333Y298573D02*
X288931Y298573D01*
X288931Y299551D02*
X299333Y299551D01*
X299333Y300529D02*
X288931Y300529D01*
X288931Y301507D02*
X299333Y301507D01*
X299333Y302485D02*
X288931Y302485D01*
X288931Y303463D02*
X299333Y303463D01*
X299333Y304441D02*
X288931Y304441D01*
X288931Y305419D02*
X299333Y305419D01*
X299333Y306397D02*
X288931Y306397D01*
X288931Y307375D02*
X299333Y307375D01*
X299333Y308353D02*
X288931Y308353D01*
X288931Y309331D02*
X299333Y309331D01*
X299333Y310309D02*
X288931Y310309D01*
X288931Y311287D02*
X299333Y311287D01*
D10*
X250500Y319350D02*
X240500Y319350D01*
X240500Y328350D01*
X250500Y328350D01*
X250500Y319350D01*
X250500Y320300D02*
X240500Y320300D01*
X240500Y321250D02*
X250500Y321250D01*
X250500Y322200D02*
X240500Y322200D01*
X240500Y323150D02*
X250500Y323150D01*
X250500Y324100D02*
X240500Y324100D01*
X240500Y325050D02*
X250500Y325050D01*
X250500Y326000D02*
X240500Y326000D01*
X240500Y326950D02*
X250500Y326950D01*
X250500Y327900D02*
X240500Y327900D01*
X257500Y319350D02*
X267500Y319350D01*
X257500Y319350D02*
X257500Y328350D01*
X267500Y328350D01*
X267500Y319350D01*
X267500Y320300D02*
X257500Y320300D01*
X257500Y321250D02*
X267500Y321250D01*
X267500Y322200D02*
X257500Y322200D01*
X257500Y323150D02*
X267500Y323150D01*
X267500Y324100D02*
X257500Y324100D01*
X257500Y325050D02*
X267500Y325050D01*
X267500Y326000D02*
X257500Y326000D01*
X257500Y326950D02*
X267500Y326950D01*
X267500Y327900D02*
X257500Y327900D01*
X284170Y249610D02*
X294170Y249610D01*
X294170Y240610D01*
X284170Y240610D01*
X284170Y249610D01*
X284170Y241560D02*
X294170Y241560D01*
X294170Y242510D02*
X284170Y242510D01*
X284170Y243460D02*
X294170Y243460D01*
X294170Y244410D02*
X284170Y244410D01*
X284170Y245360D02*
X294170Y245360D01*
X294170Y246310D02*
X284170Y246310D01*
X284170Y247260D02*
X294170Y247260D01*
X294170Y248210D02*
X284170Y248210D01*
X284170Y249160D02*
X294170Y249160D01*
X277170Y249610D02*
X267170Y249610D01*
X277170Y249610D02*
X277170Y240610D01*
X267170Y240610D01*
X267170Y249610D01*
X267170Y241560D02*
X277170Y241560D01*
X277170Y242510D02*
X267170Y242510D01*
X267170Y243460D02*
X277170Y243460D01*
X277170Y244410D02*
X267170Y244410D01*
X267170Y245360D02*
X277170Y245360D01*
X277170Y246310D02*
X267170Y246310D01*
X267170Y247260D02*
X277170Y247260D01*
X277170Y248210D02*
X267170Y248210D01*
X267170Y249160D02*
X277170Y249160D01*
X284170Y264850D02*
X294170Y264850D01*
X294170Y255850D01*
X284170Y255850D01*
X284170Y264850D01*
X284170Y256800D02*
X294170Y256800D01*
X294170Y257750D02*
X284170Y257750D01*
X284170Y258700D02*
X294170Y258700D01*
X294170Y259650D02*
X284170Y259650D01*
X284170Y260600D02*
X294170Y260600D01*
X294170Y261550D02*
X284170Y261550D01*
X284170Y262500D02*
X294170Y262500D01*
X294170Y263450D02*
X284170Y263450D01*
X284170Y264400D02*
X294170Y264400D01*
X277170Y264850D02*
X267170Y264850D01*
X277170Y264850D02*
X277170Y255850D01*
X267170Y255850D01*
X267170Y264850D01*
X267170Y256800D02*
X277170Y256800D01*
X277170Y257750D02*
X267170Y257750D01*
X267170Y258700D02*
X277170Y258700D01*
X277170Y259650D02*
X267170Y259650D01*
X267170Y260600D02*
X277170Y260600D01*
X277170Y261550D02*
X267170Y261550D01*
X267170Y262500D02*
X277170Y262500D01*
X277170Y263450D02*
X267170Y263450D01*
X267170Y264400D02*
X277170Y264400D01*
D16*
X216892Y244208D02*
X205208Y244208D01*
X205208Y263792D01*
X216892Y263792D01*
X216892Y244208D01*
X216892Y245173D02*
X205208Y245173D01*
X205208Y246138D02*
X216892Y246138D01*
X216892Y247103D02*
X205208Y247103D01*
X205208Y248068D02*
X216892Y248068D01*
X216892Y249033D02*
X205208Y249033D01*
X205208Y249998D02*
X216892Y249998D01*
X216892Y250963D02*
X205208Y250963D01*
X205208Y251928D02*
X216892Y251928D01*
X216892Y252893D02*
X205208Y252893D01*
X205208Y253858D02*
X216892Y253858D01*
X216892Y254823D02*
X205208Y254823D01*
X205208Y255788D02*
X216892Y255788D01*
X216892Y256753D02*
X205208Y256753D01*
X205208Y257718D02*
X216892Y257718D01*
X216892Y258683D02*
X205208Y258683D01*
X205208Y259648D02*
X216892Y259648D01*
X216892Y260613D02*
X205208Y260613D01*
X205208Y261578D02*
X216892Y261578D01*
X216892Y262543D02*
X205208Y262543D01*
X205208Y263508D02*
X216892Y263508D01*
X240308Y244208D02*
X251992Y244208D01*
X240308Y244208D02*
X240308Y263792D01*
X251992Y263792D01*
X251992Y244208D01*
X251992Y245173D02*
X240308Y245173D01*
X240308Y246138D02*
X251992Y246138D01*
X251992Y247103D02*
X240308Y247103D01*
X240308Y248068D02*
X251992Y248068D01*
X251992Y249033D02*
X240308Y249033D01*
X240308Y249998D02*
X251992Y249998D01*
X251992Y250963D02*
X240308Y250963D01*
X240308Y251928D02*
X251992Y251928D01*
X251992Y252893D02*
X240308Y252893D01*
X240308Y253858D02*
X251992Y253858D01*
X251992Y254823D02*
X240308Y254823D01*
X240308Y255788D02*
X251992Y255788D01*
X251992Y256753D02*
X240308Y256753D01*
X240308Y257718D02*
X251992Y257718D01*
X251992Y258683D02*
X240308Y258683D01*
X240308Y259648D02*
X251992Y259648D01*
X251992Y260613D02*
X240308Y260613D01*
X240308Y261578D02*
X251992Y261578D01*
X251992Y262543D02*
X240308Y262543D01*
X240308Y263508D02*
X251992Y263508D01*
D10*
X186000Y295600D02*
X186000Y305600D01*
X195000Y305600D01*
X195000Y295600D01*
X186000Y295600D01*
X186000Y296550D02*
X195000Y296550D01*
X195000Y297500D02*
X186000Y297500D01*
X186000Y298450D02*
X195000Y298450D01*
X195000Y299400D02*
X186000Y299400D01*
X186000Y300350D02*
X195000Y300350D01*
X195000Y301300D02*
X186000Y301300D01*
X186000Y302250D02*
X195000Y302250D01*
X195000Y303200D02*
X186000Y303200D01*
X186000Y304150D02*
X195000Y304150D01*
X195000Y305100D02*
X186000Y305100D01*
X186000Y288600D02*
X186000Y278600D01*
X186000Y288600D02*
X195000Y288600D01*
X195000Y278600D01*
X186000Y278600D01*
X186000Y279550D02*
X195000Y279550D01*
X195000Y280500D02*
X186000Y280500D01*
X186000Y281450D02*
X195000Y281450D01*
X195000Y282400D02*
X186000Y282400D01*
X186000Y283350D02*
X195000Y283350D01*
X195000Y284300D02*
X186000Y284300D01*
X186000Y285250D02*
X195000Y285250D01*
X195000Y286200D02*
X186000Y286200D01*
X186000Y287150D02*
X195000Y287150D01*
X195000Y288100D02*
X186000Y288100D01*
D19*
X147006Y94355D02*
X147006Y89845D01*
X134496Y89845D01*
X134496Y94355D01*
X147006Y94355D01*
X147006Y90785D02*
X134496Y90785D01*
X134496Y91725D02*
X147006Y91725D01*
X147006Y92665D02*
X134496Y92665D01*
X134496Y93605D02*
X147006Y93605D01*
X147006Y99345D02*
X147006Y103855D01*
X147006Y99345D02*
X134496Y99345D01*
X134496Y103855D01*
X147006Y103855D01*
X147006Y100285D02*
X134496Y100285D01*
X134496Y101225D02*
X147006Y101225D01*
X147006Y102165D02*
X134496Y102165D01*
X134496Y103105D02*
X147006Y103105D01*
X147006Y108845D02*
X147006Y113355D01*
X147006Y108845D02*
X134496Y108845D01*
X134496Y113355D01*
X147006Y113355D01*
X147006Y109785D02*
X134496Y109785D01*
X134496Y110725D02*
X147006Y110725D01*
X147006Y111665D02*
X134496Y111665D01*
X134496Y112605D02*
X147006Y112605D01*
X119504Y113355D02*
X119504Y108845D01*
X106994Y108845D01*
X106994Y113355D01*
X119504Y113355D01*
X119504Y109785D02*
X106994Y109785D01*
X106994Y110725D02*
X119504Y110725D01*
X119504Y111665D02*
X106994Y111665D01*
X106994Y112605D02*
X119504Y112605D01*
X119504Y103855D02*
X119504Y99345D01*
X106994Y99345D01*
X106994Y103855D01*
X119504Y103855D01*
X119504Y100285D02*
X106994Y100285D01*
X106994Y101225D02*
X119504Y101225D01*
X119504Y102165D02*
X106994Y102165D01*
X106994Y103105D02*
X119504Y103105D01*
X119504Y94355D02*
X119504Y89845D01*
X106994Y89845D01*
X106994Y94355D01*
X119504Y94355D01*
X119504Y90785D02*
X106994Y90785D01*
X106994Y91725D02*
X119504Y91725D01*
X119504Y92665D02*
X106994Y92665D01*
X106994Y93605D02*
X119504Y93605D01*
X310194Y108845D02*
X310194Y113355D01*
X322704Y113355D01*
X322704Y108845D01*
X310194Y108845D01*
X310194Y109785D02*
X322704Y109785D01*
X322704Y110725D02*
X310194Y110725D01*
X310194Y111665D02*
X322704Y111665D01*
X322704Y112605D02*
X310194Y112605D01*
X310194Y103855D02*
X310194Y99345D01*
X310194Y103855D02*
X322704Y103855D01*
X322704Y99345D01*
X310194Y99345D01*
X310194Y100285D02*
X322704Y100285D01*
X322704Y101225D02*
X310194Y101225D01*
X310194Y102165D02*
X322704Y102165D01*
X322704Y103105D02*
X310194Y103105D01*
X310194Y94355D02*
X310194Y89845D01*
X310194Y94355D02*
X322704Y94355D01*
X322704Y89845D01*
X310194Y89845D01*
X310194Y90785D02*
X322704Y90785D01*
X322704Y91725D02*
X310194Y91725D01*
X310194Y92665D02*
X322704Y92665D01*
X322704Y93605D02*
X310194Y93605D01*
X337696Y94355D02*
X337696Y89845D01*
X337696Y94355D02*
X350206Y94355D01*
X350206Y89845D01*
X337696Y89845D01*
X337696Y90785D02*
X350206Y90785D01*
X350206Y91725D02*
X337696Y91725D01*
X337696Y92665D02*
X350206Y92665D01*
X350206Y93605D02*
X337696Y93605D01*
X337696Y99345D02*
X337696Y103855D01*
X350206Y103855D01*
X350206Y99345D01*
X337696Y99345D01*
X337696Y100285D02*
X350206Y100285D01*
X350206Y101225D02*
X337696Y101225D01*
X337696Y102165D02*
X350206Y102165D01*
X350206Y103105D02*
X337696Y103105D01*
X337696Y108845D02*
X337696Y113355D01*
X350206Y113355D01*
X350206Y108845D01*
X337696Y108845D01*
X337696Y109785D02*
X350206Y109785D01*
X350206Y110725D02*
X337696Y110725D01*
X337696Y111665D02*
X350206Y111665D01*
X350206Y112605D02*
X337696Y112605D01*
D12*
X111590Y437560D02*
X111590Y445040D01*
X111590Y437560D02*
X95610Y437560D01*
X95610Y445040D01*
X111590Y445040D01*
X111590Y438529D02*
X95610Y438529D01*
X95610Y439498D02*
X111590Y439498D01*
X111590Y440467D02*
X95610Y440467D01*
X95610Y441436D02*
X111590Y441436D01*
X111590Y442405D02*
X95610Y442405D01*
X95610Y443374D02*
X111590Y443374D01*
X111590Y444343D02*
X95610Y444343D01*
X141590Y425040D02*
X141590Y417560D01*
X125610Y417560D01*
X125610Y425040D01*
X141590Y425040D01*
X141590Y418529D02*
X125610Y418529D01*
X125610Y419498D02*
X141590Y419498D01*
X141590Y420467D02*
X125610Y420467D01*
X125610Y421436D02*
X141590Y421436D01*
X141590Y422405D02*
X125610Y422405D01*
X125610Y423374D02*
X141590Y423374D01*
X141590Y424343D02*
X125610Y424343D01*
X111590Y405040D02*
X111590Y397560D01*
X95610Y397560D01*
X95610Y405040D01*
X111590Y405040D01*
X111590Y398529D02*
X95610Y398529D01*
X95610Y399498D02*
X111590Y399498D01*
X111590Y400467D02*
X95610Y400467D01*
X95610Y401436D02*
X111590Y401436D01*
X111590Y402405D02*
X95610Y402405D01*
X95610Y403374D02*
X111590Y403374D01*
X111590Y404343D02*
X95610Y404343D01*
X141590Y385040D02*
X141590Y377560D01*
X125610Y377560D01*
X125610Y385040D01*
X141590Y385040D01*
X141590Y378529D02*
X125610Y378529D01*
X125610Y379498D02*
X141590Y379498D01*
X141590Y380467D02*
X125610Y380467D01*
X125610Y381436D02*
X141590Y381436D01*
X141590Y382405D02*
X125610Y382405D01*
X125610Y383374D02*
X141590Y383374D01*
X141590Y384343D02*
X125610Y384343D01*
X111590Y365040D02*
X111590Y357560D01*
X95610Y357560D01*
X95610Y365040D01*
X111590Y365040D01*
X111590Y358529D02*
X95610Y358529D01*
X95610Y359498D02*
X111590Y359498D01*
X111590Y360467D02*
X95610Y360467D01*
X95610Y361436D02*
X111590Y361436D01*
X111590Y362405D02*
X95610Y362405D01*
X95610Y363374D02*
X111590Y363374D01*
X111590Y364343D02*
X95610Y364343D01*
X141590Y345040D02*
X141590Y337560D01*
X125610Y337560D01*
X125610Y345040D01*
X141590Y345040D01*
X141590Y338529D02*
X125610Y338529D01*
X125610Y339498D02*
X141590Y339498D01*
X141590Y340467D02*
X125610Y340467D01*
X125610Y341436D02*
X141590Y341436D01*
X141590Y342405D02*
X125610Y342405D01*
X125610Y343374D02*
X141590Y343374D01*
X141590Y344343D02*
X125610Y344343D01*
X111590Y325040D02*
X111590Y317560D01*
X95610Y317560D01*
X95610Y325040D01*
X111590Y325040D01*
X111590Y318529D02*
X95610Y318529D01*
X95610Y319498D02*
X111590Y319498D01*
X111590Y320467D02*
X95610Y320467D01*
X95610Y321436D02*
X111590Y321436D01*
X111590Y322405D02*
X95610Y322405D01*
X95610Y323374D02*
X111590Y323374D01*
X111590Y324343D02*
X95610Y324343D01*
X141590Y305040D02*
X141590Y297560D01*
X125610Y297560D01*
X125610Y305040D01*
X141590Y305040D01*
X141590Y298529D02*
X125610Y298529D01*
X125610Y299498D02*
X141590Y299498D01*
X141590Y300467D02*
X125610Y300467D01*
X125610Y301436D02*
X141590Y301436D01*
X141590Y302405D02*
X125610Y302405D01*
X125610Y303374D02*
X141590Y303374D01*
X141590Y304343D02*
X125610Y304343D01*
X111590Y285040D02*
X111590Y277560D01*
X95610Y277560D01*
X95610Y285040D01*
X111590Y285040D01*
X111590Y278529D02*
X95610Y278529D01*
X95610Y279498D02*
X111590Y279498D01*
X111590Y280467D02*
X95610Y280467D01*
X95610Y281436D02*
X111590Y281436D01*
X111590Y282405D02*
X95610Y282405D01*
X95610Y283374D02*
X111590Y283374D01*
X111590Y284343D02*
X95610Y284343D01*
X141590Y265040D02*
X141590Y257560D01*
X125610Y257560D01*
X125610Y265040D01*
X141590Y265040D01*
X141590Y258529D02*
X125610Y258529D01*
X125610Y259498D02*
X141590Y259498D01*
X141590Y260467D02*
X125610Y260467D01*
X125610Y261436D02*
X141590Y261436D01*
X141590Y262405D02*
X125610Y262405D01*
X125610Y263374D02*
X141590Y263374D01*
X141590Y264343D02*
X125610Y264343D01*
X361590Y265040D02*
X361590Y257560D01*
X345610Y257560D01*
X345610Y265040D01*
X361590Y265040D01*
X361590Y258529D02*
X345610Y258529D01*
X345610Y259498D02*
X361590Y259498D01*
X361590Y260467D02*
X345610Y260467D01*
X345610Y261436D02*
X361590Y261436D01*
X361590Y262405D02*
X345610Y262405D01*
X345610Y263374D02*
X361590Y263374D01*
X361590Y264343D02*
X345610Y264343D01*
X331590Y277560D02*
X331590Y285040D01*
X331590Y277560D02*
X315610Y277560D01*
X315610Y285040D01*
X331590Y285040D01*
X331590Y278529D02*
X315610Y278529D01*
X315610Y279498D02*
X331590Y279498D01*
X331590Y280467D02*
X315610Y280467D01*
X315610Y281436D02*
X331590Y281436D01*
X331590Y282405D02*
X315610Y282405D01*
X315610Y283374D02*
X331590Y283374D01*
X331590Y284343D02*
X315610Y284343D01*
X361590Y297560D02*
X361590Y305040D01*
X361590Y297560D02*
X345610Y297560D01*
X345610Y305040D01*
X361590Y305040D01*
X361590Y298529D02*
X345610Y298529D01*
X345610Y299498D02*
X361590Y299498D01*
X361590Y300467D02*
X345610Y300467D01*
X345610Y301436D02*
X361590Y301436D01*
X361590Y302405D02*
X345610Y302405D01*
X345610Y303374D02*
X361590Y303374D01*
X361590Y304343D02*
X345610Y304343D01*
X331590Y317560D02*
X331590Y325040D01*
X331590Y317560D02*
X315610Y317560D01*
X315610Y325040D01*
X331590Y325040D01*
X331590Y318529D02*
X315610Y318529D01*
X315610Y319498D02*
X331590Y319498D01*
X331590Y320467D02*
X315610Y320467D01*
X315610Y321436D02*
X331590Y321436D01*
X331590Y322405D02*
X315610Y322405D01*
X315610Y323374D02*
X331590Y323374D01*
X331590Y324343D02*
X315610Y324343D01*
X361590Y337560D02*
X361590Y345040D01*
X361590Y337560D02*
X345610Y337560D01*
X345610Y345040D01*
X361590Y345040D01*
X361590Y338529D02*
X345610Y338529D01*
X345610Y339498D02*
X361590Y339498D01*
X361590Y340467D02*
X345610Y340467D01*
X345610Y341436D02*
X361590Y341436D01*
X361590Y342405D02*
X345610Y342405D01*
X345610Y343374D02*
X361590Y343374D01*
X361590Y344343D02*
X345610Y344343D01*
X331590Y357560D02*
X331590Y365040D01*
X331590Y357560D02*
X315610Y357560D01*
X315610Y365040D01*
X331590Y365040D01*
X331590Y358529D02*
X315610Y358529D01*
X315610Y359498D02*
X331590Y359498D01*
X331590Y360467D02*
X315610Y360467D01*
X315610Y361436D02*
X331590Y361436D01*
X331590Y362405D02*
X315610Y362405D01*
X315610Y363374D02*
X331590Y363374D01*
X331590Y364343D02*
X315610Y364343D01*
X361590Y377560D02*
X361590Y385040D01*
X361590Y377560D02*
X345610Y377560D01*
X345610Y385040D01*
X361590Y385040D01*
X361590Y378529D02*
X345610Y378529D01*
X345610Y379498D02*
X361590Y379498D01*
X361590Y380467D02*
X345610Y380467D01*
X345610Y381436D02*
X361590Y381436D01*
X361590Y382405D02*
X345610Y382405D01*
X345610Y383374D02*
X361590Y383374D01*
X361590Y384343D02*
X345610Y384343D01*
X331590Y397560D02*
X331590Y405040D01*
X331590Y397560D02*
X315610Y397560D01*
X315610Y405040D01*
X331590Y405040D01*
X331590Y398529D02*
X315610Y398529D01*
X315610Y399498D02*
X331590Y399498D01*
X331590Y400467D02*
X315610Y400467D01*
X315610Y401436D02*
X331590Y401436D01*
X331590Y402405D02*
X315610Y402405D01*
X315610Y403374D02*
X331590Y403374D01*
X331590Y404343D02*
X315610Y404343D01*
X361590Y417560D02*
X361590Y425040D01*
X361590Y417560D02*
X345610Y417560D01*
X345610Y425040D01*
X361590Y425040D01*
X361590Y418529D02*
X345610Y418529D01*
X345610Y419498D02*
X361590Y419498D01*
X361590Y420467D02*
X345610Y420467D01*
X345610Y421436D02*
X361590Y421436D01*
X361590Y422405D02*
X345610Y422405D01*
X345610Y423374D02*
X361590Y423374D01*
X361590Y424343D02*
X345610Y424343D01*
X331590Y437560D02*
X331590Y445040D01*
X331590Y437560D02*
X315610Y437560D01*
X315610Y445040D01*
X331590Y445040D01*
X331590Y438529D02*
X315610Y438529D01*
X315610Y439498D02*
X331590Y439498D01*
X331590Y440467D02*
X315610Y440467D01*
X315610Y441436D02*
X331590Y441436D01*
X331590Y442405D02*
X315610Y442405D01*
X315610Y443374D02*
X331590Y443374D01*
X331590Y444343D02*
X315610Y444343D01*
D10*
X309190Y229400D02*
X309190Y219400D01*
X309190Y229400D02*
X318190Y229400D01*
X318190Y219400D01*
X309190Y219400D01*
X309190Y220350D02*
X318190Y220350D01*
X318190Y221300D02*
X309190Y221300D01*
X309190Y222250D02*
X318190Y222250D01*
X318190Y223200D02*
X309190Y223200D01*
X309190Y224150D02*
X318190Y224150D01*
X318190Y225100D02*
X309190Y225100D01*
X309190Y226050D02*
X318190Y226050D01*
X318190Y227000D02*
X309190Y227000D01*
X309190Y227950D02*
X318190Y227950D01*
X318190Y228900D02*
X309190Y228900D01*
X309190Y212400D02*
X309190Y202400D01*
X309190Y212400D02*
X318190Y212400D01*
X318190Y202400D01*
X309190Y202400D01*
X309190Y203350D02*
X318190Y203350D01*
X318190Y204300D02*
X309190Y204300D01*
X309190Y205250D02*
X318190Y205250D01*
X318190Y206200D02*
X309190Y206200D01*
X309190Y207150D02*
X318190Y207150D01*
X318190Y208100D02*
X309190Y208100D01*
X309190Y209050D02*
X318190Y209050D01*
X318190Y210000D02*
X309190Y210000D01*
X309190Y210950D02*
X318190Y210950D01*
X318190Y211900D02*
X309190Y211900D01*
X334700Y212400D02*
X334700Y202400D01*
X325700Y202400D01*
X325700Y212400D01*
X334700Y212400D01*
X334700Y203350D02*
X325700Y203350D01*
X325700Y204300D02*
X334700Y204300D01*
X334700Y205250D02*
X325700Y205250D01*
X325700Y206200D02*
X334700Y206200D01*
X334700Y207150D02*
X325700Y207150D01*
X325700Y208100D02*
X334700Y208100D01*
X334700Y209050D02*
X325700Y209050D01*
X325700Y210000D02*
X334700Y210000D01*
X334700Y210950D02*
X325700Y210950D01*
X325700Y211900D02*
X334700Y211900D01*
X334700Y219400D02*
X334700Y229400D01*
X334700Y219400D02*
X325700Y219400D01*
X325700Y229400D01*
X334700Y229400D01*
X334700Y220350D02*
X325700Y220350D01*
X325700Y221300D02*
X334700Y221300D01*
X334700Y222250D02*
X325700Y222250D01*
X325700Y223200D02*
X334700Y223200D01*
X334700Y224150D02*
X325700Y224150D01*
X325700Y225100D02*
X334700Y225100D01*
X334700Y226050D02*
X325700Y226050D01*
X325700Y227000D02*
X334700Y227000D01*
X334700Y227950D02*
X325700Y227950D01*
X325700Y228900D02*
X334700Y228900D01*
X342210Y229400D02*
X342210Y219400D01*
X342210Y229400D02*
X351210Y229400D01*
X351210Y219400D01*
X342210Y219400D01*
X342210Y220350D02*
X351210Y220350D01*
X351210Y221300D02*
X342210Y221300D01*
X342210Y222250D02*
X351210Y222250D01*
X351210Y223200D02*
X342210Y223200D01*
X342210Y224150D02*
X351210Y224150D01*
X351210Y225100D02*
X342210Y225100D01*
X342210Y226050D02*
X351210Y226050D01*
X351210Y227000D02*
X342210Y227000D01*
X342210Y227950D02*
X351210Y227950D01*
X351210Y228900D02*
X342210Y228900D01*
X342210Y212400D02*
X342210Y202400D01*
X342210Y212400D02*
X351210Y212400D01*
X351210Y202400D01*
X342210Y202400D01*
X342210Y203350D02*
X351210Y203350D01*
X351210Y204300D02*
X342210Y204300D01*
X342210Y205250D02*
X351210Y205250D01*
X351210Y206200D02*
X342210Y206200D01*
X342210Y207150D02*
X351210Y207150D01*
X351210Y208100D02*
X342210Y208100D01*
X342210Y209050D02*
X351210Y209050D01*
X351210Y210000D02*
X342210Y210000D01*
X342210Y210950D02*
X351210Y210950D01*
X351210Y211900D02*
X342210Y211900D01*
X394390Y160330D02*
X394390Y150330D01*
X385390Y150330D01*
X385390Y160330D01*
X394390Y160330D01*
X394390Y151280D02*
X385390Y151280D01*
X385390Y152230D02*
X394390Y152230D01*
X394390Y153180D02*
X385390Y153180D01*
X385390Y154130D02*
X394390Y154130D01*
X394390Y155080D02*
X385390Y155080D01*
X385390Y156030D02*
X394390Y156030D01*
X394390Y156980D02*
X385390Y156980D01*
X385390Y157930D02*
X394390Y157930D01*
X394390Y158880D02*
X385390Y158880D01*
X385390Y159830D02*
X394390Y159830D01*
X394390Y167330D02*
X394390Y177330D01*
X394390Y167330D02*
X385390Y167330D01*
X385390Y177330D01*
X394390Y177330D01*
X394390Y168280D02*
X385390Y168280D01*
X385390Y169230D02*
X394390Y169230D01*
X394390Y170180D02*
X385390Y170180D01*
X385390Y171130D02*
X394390Y171130D01*
X394390Y172080D02*
X385390Y172080D01*
X385390Y173030D02*
X394390Y173030D01*
X394390Y173980D02*
X385390Y173980D01*
X385390Y174930D02*
X394390Y174930D01*
X394390Y175880D02*
X385390Y175880D01*
X385390Y176830D02*
X394390Y176830D01*
X379150Y160330D02*
X379150Y150330D01*
X370150Y150330D01*
X370150Y160330D01*
X379150Y160330D01*
X379150Y151280D02*
X370150Y151280D01*
X370150Y152230D02*
X379150Y152230D01*
X379150Y153180D02*
X370150Y153180D01*
X370150Y154130D02*
X379150Y154130D01*
X379150Y155080D02*
X370150Y155080D01*
X370150Y156030D02*
X379150Y156030D01*
X379150Y156980D02*
X370150Y156980D01*
X370150Y157930D02*
X379150Y157930D01*
X379150Y158880D02*
X370150Y158880D01*
X370150Y159830D02*
X379150Y159830D01*
X379150Y167330D02*
X379150Y177330D01*
X379150Y167330D02*
X370150Y167330D01*
X370150Y177330D01*
X379150Y177330D01*
X379150Y168280D02*
X370150Y168280D01*
X370150Y169230D02*
X379150Y169230D01*
X379150Y170180D02*
X370150Y170180D01*
X370150Y171130D02*
X379150Y171130D01*
X379150Y172080D02*
X370150Y172080D01*
X370150Y173030D02*
X379150Y173030D01*
X379150Y173980D02*
X370150Y173980D01*
X370150Y174930D02*
X379150Y174930D01*
X379150Y175880D02*
X370150Y175880D01*
X370150Y176830D02*
X379150Y176830D01*
X48570Y376500D02*
X38570Y376500D01*
X38570Y385500D01*
X48570Y385500D01*
X48570Y376500D01*
X48570Y377450D02*
X38570Y377450D01*
X38570Y378400D02*
X48570Y378400D01*
X48570Y379350D02*
X38570Y379350D01*
X38570Y380300D02*
X48570Y380300D01*
X48570Y381250D02*
X38570Y381250D01*
X38570Y382200D02*
X48570Y382200D01*
X48570Y383150D02*
X38570Y383150D01*
X38570Y384100D02*
X48570Y384100D01*
X48570Y385050D02*
X38570Y385050D01*
X55570Y376500D02*
X65570Y376500D01*
X55570Y376500D02*
X55570Y385500D01*
X65570Y385500D01*
X65570Y376500D01*
X65570Y377450D02*
X55570Y377450D01*
X55570Y378400D02*
X65570Y378400D01*
X65570Y379350D02*
X55570Y379350D01*
X55570Y380300D02*
X65570Y380300D01*
X65570Y381250D02*
X55570Y381250D01*
X55570Y382200D02*
X65570Y382200D01*
X65570Y383150D02*
X55570Y383150D01*
X55570Y384100D02*
X65570Y384100D01*
X65570Y385050D02*
X55570Y385050D01*
X147900Y435300D02*
X147900Y445300D01*
X156900Y445300D01*
X156900Y435300D01*
X147900Y435300D01*
X147900Y436250D02*
X156900Y436250D01*
X156900Y437200D02*
X147900Y437200D01*
X147900Y438150D02*
X156900Y438150D01*
X156900Y439100D02*
X147900Y439100D01*
X147900Y440050D02*
X156900Y440050D01*
X156900Y441000D02*
X147900Y441000D01*
X147900Y441950D02*
X156900Y441950D01*
X156900Y442900D02*
X147900Y442900D01*
X147900Y443850D02*
X156900Y443850D01*
X156900Y444800D02*
X147900Y444800D01*
X147900Y428300D02*
X147900Y418300D01*
X147900Y428300D02*
X156900Y428300D01*
X156900Y418300D01*
X147900Y418300D01*
X147900Y419250D02*
X156900Y419250D01*
X156900Y420200D02*
X147900Y420200D01*
X147900Y421150D02*
X156900Y421150D01*
X156900Y422100D02*
X147900Y422100D01*
X147900Y423050D02*
X156900Y423050D01*
X156900Y424000D02*
X147900Y424000D01*
X147900Y424950D02*
X156900Y424950D01*
X156900Y425900D02*
X147900Y425900D01*
X147900Y426850D02*
X156900Y426850D01*
X156900Y427800D02*
X147900Y427800D01*
X163140Y435300D02*
X163140Y445300D01*
X172140Y445300D01*
X172140Y435300D01*
X163140Y435300D01*
X163140Y436250D02*
X172140Y436250D01*
X172140Y437200D02*
X163140Y437200D01*
X163140Y438150D02*
X172140Y438150D01*
X172140Y439100D02*
X163140Y439100D01*
X163140Y440050D02*
X172140Y440050D01*
X172140Y441000D02*
X163140Y441000D01*
X163140Y441950D02*
X172140Y441950D01*
X172140Y442900D02*
X163140Y442900D01*
X163140Y443850D02*
X172140Y443850D01*
X172140Y444800D02*
X163140Y444800D01*
X163140Y428300D02*
X163140Y418300D01*
X163140Y428300D02*
X172140Y428300D01*
X172140Y418300D01*
X163140Y418300D01*
X163140Y419250D02*
X172140Y419250D01*
X172140Y420200D02*
X163140Y420200D01*
X163140Y421150D02*
X172140Y421150D01*
X172140Y422100D02*
X163140Y422100D01*
X163140Y423050D02*
X172140Y423050D01*
X172140Y424000D02*
X163140Y424000D01*
X163140Y424950D02*
X172140Y424950D01*
X172140Y425900D02*
X163140Y425900D01*
X163140Y426850D02*
X172140Y426850D01*
X172140Y427800D02*
X163140Y427800D01*
X178380Y435300D02*
X178380Y445300D01*
X187380Y445300D01*
X187380Y435300D01*
X178380Y435300D01*
X178380Y436250D02*
X187380Y436250D01*
X187380Y437200D02*
X178380Y437200D01*
X178380Y438150D02*
X187380Y438150D01*
X187380Y439100D02*
X178380Y439100D01*
X178380Y440050D02*
X187380Y440050D01*
X187380Y441000D02*
X178380Y441000D01*
X178380Y441950D02*
X187380Y441950D01*
X187380Y442900D02*
X178380Y442900D01*
X178380Y443850D02*
X187380Y443850D01*
X187380Y444800D02*
X178380Y444800D01*
X178380Y428300D02*
X178380Y418300D01*
X178380Y428300D02*
X187380Y428300D01*
X187380Y418300D01*
X178380Y418300D01*
X178380Y419250D02*
X187380Y419250D01*
X187380Y420200D02*
X178380Y420200D01*
X178380Y421150D02*
X187380Y421150D01*
X187380Y422100D02*
X178380Y422100D01*
X178380Y423050D02*
X187380Y423050D01*
X187380Y424000D02*
X178380Y424000D01*
X178380Y424950D02*
X187380Y424950D01*
X187380Y425900D02*
X178380Y425900D01*
X178380Y426850D02*
X187380Y426850D01*
X187380Y427800D02*
X178380Y427800D01*
X73800Y144600D02*
X73800Y135600D01*
X73800Y144600D02*
X84300Y144600D01*
X84300Y135600D01*
X73800Y135600D01*
X73800Y136550D02*
X84300Y136550D01*
X84300Y137500D02*
X73800Y137500D01*
X73800Y138450D02*
X84300Y138450D01*
X84300Y139400D02*
X73800Y139400D01*
X73800Y140350D02*
X84300Y140350D01*
X84300Y141300D02*
X73800Y141300D01*
X73800Y142250D02*
X84300Y142250D01*
X84300Y143200D02*
X73800Y143200D01*
X73800Y144150D02*
X84300Y144150D01*
X73800Y160600D02*
X73800Y169600D01*
X84300Y169600D01*
X84300Y160600D01*
X73800Y160600D01*
X73800Y161550D02*
X84300Y161550D01*
X84300Y162500D02*
X73800Y162500D01*
X73800Y163450D02*
X84300Y163450D01*
X84300Y164400D02*
X73800Y164400D01*
X73800Y165350D02*
X84300Y165350D01*
X84300Y166300D02*
X73800Y166300D01*
X73800Y167250D02*
X84300Y167250D01*
X84300Y168200D02*
X73800Y168200D01*
X73800Y169150D02*
X84300Y169150D01*
X73800Y185600D02*
X73800Y194600D01*
X84300Y194600D01*
X84300Y185600D01*
X73800Y185600D01*
X73800Y186550D02*
X84300Y186550D01*
X84300Y187500D02*
X73800Y187500D01*
X73800Y188450D02*
X84300Y188450D01*
X84300Y189400D02*
X73800Y189400D01*
X73800Y190350D02*
X84300Y190350D01*
X84300Y191300D02*
X73800Y191300D01*
X73800Y192250D02*
X84300Y192250D01*
X84300Y193200D02*
X73800Y193200D01*
X73800Y194150D02*
X84300Y194150D01*
X17300Y144600D02*
X17300Y135600D01*
X17300Y144600D02*
X27800Y144600D01*
X27800Y135600D01*
X17300Y135600D01*
X17300Y136550D02*
X27800Y136550D01*
X27800Y137500D02*
X17300Y137500D01*
X17300Y138450D02*
X27800Y138450D01*
X27800Y139400D02*
X17300Y139400D01*
X17300Y140350D02*
X27800Y140350D01*
X27800Y141300D02*
X17300Y141300D01*
X17300Y142250D02*
X27800Y142250D01*
X27800Y143200D02*
X17300Y143200D01*
X17300Y144150D02*
X27800Y144150D01*
X17300Y160600D02*
X17300Y169600D01*
X27800Y169600D01*
X27800Y160600D01*
X17300Y160600D01*
X17300Y161550D02*
X27800Y161550D01*
X27800Y162500D02*
X17300Y162500D01*
X17300Y163450D02*
X27800Y163450D01*
X27800Y164400D02*
X17300Y164400D01*
X17300Y165350D02*
X27800Y165350D01*
X27800Y166300D02*
X17300Y166300D01*
X17300Y167250D02*
X27800Y167250D01*
X27800Y168200D02*
X17300Y168200D01*
X17300Y169150D02*
X27800Y169150D01*
X17300Y185600D02*
X17300Y194600D01*
X27800Y194600D01*
X27800Y185600D01*
X17300Y185600D01*
X17300Y186550D02*
X27800Y186550D01*
X27800Y187500D02*
X17300Y187500D01*
X17300Y188450D02*
X27800Y188450D01*
X27800Y189400D02*
X17300Y189400D01*
X17300Y190350D02*
X27800Y190350D01*
X27800Y191300D02*
X17300Y191300D01*
X17300Y192250D02*
X27800Y192250D01*
X27800Y193200D02*
X17300Y193200D01*
X17300Y194150D02*
X27800Y194150D01*
X18360Y221940D02*
X18360Y231940D01*
X27360Y231940D01*
X27360Y221940D01*
X18360Y221940D01*
X18360Y222890D02*
X27360Y222890D01*
X27360Y223840D02*
X18360Y223840D01*
X18360Y224790D02*
X27360Y224790D01*
X27360Y225740D02*
X18360Y225740D01*
X18360Y226690D02*
X27360Y226690D01*
X27360Y227640D02*
X18360Y227640D01*
X18360Y228590D02*
X27360Y228590D01*
X27360Y229540D02*
X18360Y229540D01*
X18360Y230490D02*
X27360Y230490D01*
X27360Y231440D02*
X18360Y231440D01*
X18360Y214940D02*
X18360Y204940D01*
X18360Y214940D02*
X27360Y214940D01*
X27360Y204940D01*
X18360Y204940D01*
X18360Y205890D02*
X27360Y205890D01*
X27360Y206840D02*
X18360Y206840D01*
X18360Y207790D02*
X27360Y207790D01*
X27360Y208740D02*
X18360Y208740D01*
X18360Y209690D02*
X27360Y209690D01*
X27360Y210640D02*
X18360Y210640D01*
X18360Y211590D02*
X27360Y211590D01*
X27360Y212540D02*
X18360Y212540D01*
X18360Y213490D02*
X27360Y213490D01*
X27360Y214440D02*
X18360Y214440D01*
M02*
