G04 EAGLE Gerber RS-274X export*
G75*
%MOMM*%
%FSLAX34Y34*%
%LPD*%
%INInner Layer 15*%
%IPPOS*%
%AMOC8*
5,1,8,0,0,1.08239X$1,22.5*%
G01*
%ADD10C,0.279400*%
%ADD11C,1.524000*%
%ADD12C,0.654000*%
%ADD13C,0.558800*%
%ADD14C,0.604000*%
%ADD15C,0.254000*%

G36*
X186663Y3052D02*
X186663Y3052D01*
X186693Y3050D01*
X186821Y3072D01*
X186950Y3089D01*
X186977Y3099D01*
X187006Y3104D01*
X187125Y3158D01*
X187245Y3206D01*
X187269Y3223D01*
X187296Y3235D01*
X187397Y3316D01*
X187503Y3392D01*
X187522Y3415D01*
X187545Y3434D01*
X187622Y3537D01*
X187705Y3637D01*
X187718Y3664D01*
X187736Y3688D01*
X187807Y3832D01*
X190451Y10216D01*
X195524Y15289D01*
X202153Y18035D01*
X255047Y18035D01*
X261676Y15289D01*
X266749Y10216D01*
X269393Y3832D01*
X269408Y3807D01*
X269417Y3779D01*
X269486Y3669D01*
X269551Y3556D01*
X269571Y3535D01*
X269587Y3510D01*
X269682Y3421D01*
X269772Y3328D01*
X269797Y3312D01*
X269819Y3292D01*
X269932Y3229D01*
X270043Y3161D01*
X270071Y3153D01*
X270097Y3138D01*
X270223Y3106D01*
X270347Y3068D01*
X270377Y3066D01*
X270405Y3059D01*
X270566Y3049D01*
X452882Y3049D01*
X453000Y3064D01*
X453119Y3071D01*
X453157Y3084D01*
X453198Y3089D01*
X453308Y3132D01*
X453421Y3169D01*
X453456Y3191D01*
X453493Y3206D01*
X453589Y3275D01*
X453690Y3339D01*
X453718Y3369D01*
X453751Y3392D01*
X453827Y3484D01*
X453908Y3571D01*
X453928Y3606D01*
X453953Y3637D01*
X454004Y3745D01*
X454062Y3849D01*
X454072Y3889D01*
X454089Y3925D01*
X454111Y4042D01*
X454141Y4157D01*
X454145Y4217D01*
X454149Y4237D01*
X454147Y4258D01*
X454151Y4318D01*
X454151Y541782D01*
X454136Y541900D01*
X454129Y542019D01*
X454116Y542057D01*
X454111Y542098D01*
X454068Y542208D01*
X454031Y542321D01*
X454009Y542356D01*
X453994Y542393D01*
X453925Y542489D01*
X453861Y542590D01*
X453831Y542618D01*
X453808Y542651D01*
X453716Y542727D01*
X453629Y542808D01*
X453594Y542828D01*
X453563Y542853D01*
X453455Y542904D01*
X453351Y542962D01*
X453311Y542972D01*
X453275Y542989D01*
X453158Y543011D01*
X453043Y543041D01*
X452983Y543045D01*
X452963Y543049D01*
X452942Y543047D01*
X452882Y543051D01*
X4318Y543051D01*
X4200Y543036D01*
X4081Y543029D01*
X4043Y543016D01*
X4002Y543011D01*
X3892Y542968D01*
X3779Y542931D01*
X3744Y542909D01*
X3707Y542894D01*
X3611Y542825D01*
X3510Y542761D01*
X3482Y542731D01*
X3449Y542708D01*
X3373Y542616D01*
X3292Y542529D01*
X3272Y542494D01*
X3247Y542463D01*
X3196Y542355D01*
X3138Y542251D01*
X3128Y542211D01*
X3111Y542175D01*
X3089Y542058D01*
X3059Y541943D01*
X3055Y541883D01*
X3051Y541863D01*
X3053Y541842D01*
X3049Y541782D01*
X3049Y4318D01*
X3064Y4200D01*
X3071Y4081D01*
X3084Y4043D01*
X3089Y4002D01*
X3132Y3892D01*
X3169Y3779D01*
X3191Y3744D01*
X3206Y3707D01*
X3275Y3611D01*
X3339Y3510D01*
X3369Y3482D01*
X3392Y3449D01*
X3484Y3373D01*
X3571Y3292D01*
X3606Y3272D01*
X3637Y3247D01*
X3745Y3196D01*
X3849Y3138D01*
X3889Y3128D01*
X3925Y3111D01*
X4042Y3089D01*
X4157Y3059D01*
X4217Y3055D01*
X4237Y3051D01*
X4258Y3053D01*
X4318Y3049D01*
X186634Y3049D01*
X186663Y3052D01*
G37*
%LPC*%
G36*
X428415Y503681D02*
X428415Y503681D01*
X422160Y506272D01*
X417372Y511060D01*
X414781Y517315D01*
X414781Y524085D01*
X417372Y530340D01*
X422160Y535128D01*
X428415Y537719D01*
X435185Y537719D01*
X441440Y535128D01*
X446228Y530340D01*
X448819Y524085D01*
X448819Y517315D01*
X446228Y511060D01*
X441440Y506272D01*
X435185Y503681D01*
X428415Y503681D01*
G37*
%LPD*%
%LPC*%
G36*
X22015Y503681D02*
X22015Y503681D01*
X15760Y506272D01*
X10972Y511060D01*
X8381Y517315D01*
X8381Y524085D01*
X10972Y530340D01*
X15760Y535128D01*
X22015Y537719D01*
X28785Y537719D01*
X35040Y535128D01*
X39828Y530340D01*
X42419Y524085D01*
X42419Y517315D01*
X39828Y511060D01*
X35040Y506272D01*
X28785Y503681D01*
X22015Y503681D01*
G37*
%LPD*%
%LPC*%
G36*
X22015Y8381D02*
X22015Y8381D01*
X15760Y10972D01*
X10972Y15760D01*
X8381Y22015D01*
X8381Y28785D01*
X10972Y35040D01*
X15760Y39828D01*
X22015Y42419D01*
X28785Y42419D01*
X35040Y39828D01*
X39828Y35040D01*
X42419Y28785D01*
X42419Y22015D01*
X39828Y15760D01*
X35040Y10972D01*
X28785Y8381D01*
X22015Y8381D01*
G37*
%LPD*%
%LPC*%
G36*
X428415Y8381D02*
X428415Y8381D01*
X422160Y10972D01*
X417372Y15760D01*
X414781Y22015D01*
X414781Y28785D01*
X417372Y35040D01*
X422160Y39828D01*
X428415Y42419D01*
X435185Y42419D01*
X441440Y39828D01*
X446228Y35040D01*
X448819Y28785D01*
X448819Y22015D01*
X446228Y15760D01*
X441440Y10972D01*
X435185Y8381D01*
X428415Y8381D01*
G37*
%LPD*%
%LPC*%
G36*
X379231Y207009D02*
X379231Y207009D01*
X375964Y208363D01*
X373463Y210864D01*
X372493Y213206D01*
X372458Y213267D01*
X372432Y213332D01*
X372380Y213404D01*
X372335Y213482D01*
X372287Y213532D01*
X372246Y213589D01*
X372176Y213646D01*
X372114Y213711D01*
X372054Y213747D01*
X372001Y213792D01*
X371919Y213830D01*
X371843Y213877D01*
X371776Y213898D01*
X371713Y213927D01*
X371625Y213944D01*
X371539Y213971D01*
X371469Y213974D01*
X371400Y213987D01*
X371311Y213981D01*
X371221Y213986D01*
X371153Y213972D01*
X371083Y213967D01*
X370998Y213940D01*
X370910Y213921D01*
X370847Y213891D01*
X370781Y213869D01*
X370705Y213821D01*
X370624Y213782D01*
X370571Y213736D01*
X370512Y213699D01*
X370450Y213634D01*
X370382Y213575D01*
X370342Y213518D01*
X370294Y213467D01*
X370251Y213389D01*
X370199Y213315D01*
X370174Y213250D01*
X370140Y213189D01*
X370118Y213102D01*
X370086Y213018D01*
X370078Y212948D01*
X370061Y212881D01*
X370060Y212862D01*
X367537Y210339D01*
X363983Y210339D01*
X362688Y211634D01*
X362594Y211707D01*
X362504Y211786D01*
X362468Y211804D01*
X362436Y211829D01*
X362327Y211877D01*
X362221Y211931D01*
X362182Y211940D01*
X362145Y211956D01*
X362027Y211974D01*
X361911Y212000D01*
X361870Y211999D01*
X361830Y212005D01*
X361712Y211994D01*
X361593Y211991D01*
X361554Y211979D01*
X361514Y211976D01*
X361402Y211935D01*
X361287Y211902D01*
X361253Y211882D01*
X361215Y211868D01*
X361116Y211801D01*
X361014Y211741D01*
X360968Y211701D01*
X360951Y211689D01*
X360938Y211674D01*
X360893Y211634D01*
X359824Y210565D01*
X356456Y210565D01*
X354075Y212946D01*
X354075Y216314D01*
X356456Y218695D01*
X359824Y218695D01*
X360893Y217626D01*
X360987Y217553D01*
X361076Y217474D01*
X361112Y217456D01*
X361144Y217431D01*
X361253Y217383D01*
X361359Y217329D01*
X361399Y217320D01*
X361436Y217304D01*
X361554Y217286D01*
X361670Y217260D01*
X361710Y217261D01*
X361750Y217255D01*
X361869Y217266D01*
X361987Y217269D01*
X362026Y217281D01*
X362067Y217284D01*
X362179Y217325D01*
X362293Y217358D01*
X362328Y217378D01*
X362366Y217392D01*
X362464Y217459D01*
X362567Y217519D01*
X362612Y217559D01*
X362629Y217571D01*
X362642Y217586D01*
X362688Y217626D01*
X363983Y218921D01*
X367537Y218921D01*
X369943Y216515D01*
X370052Y216430D01*
X370159Y216342D01*
X370178Y216333D01*
X370194Y216321D01*
X370322Y216265D01*
X370447Y216206D01*
X370467Y216202D01*
X370486Y216194D01*
X370624Y216172D01*
X370760Y216146D01*
X370780Y216148D01*
X370800Y216144D01*
X370939Y216157D01*
X371077Y216166D01*
X371096Y216172D01*
X371116Y216174D01*
X371248Y216221D01*
X371379Y216264D01*
X371397Y216275D01*
X371416Y216282D01*
X371531Y216360D01*
X371648Y216434D01*
X371662Y216449D01*
X371679Y216460D01*
X371771Y216565D01*
X371866Y216666D01*
X371876Y216684D01*
X371889Y216699D01*
X371953Y216823D01*
X372020Y216944D01*
X372025Y216964D01*
X372034Y216982D01*
X372064Y217118D01*
X372099Y217252D01*
X372101Y217280D01*
X372104Y217292D01*
X372103Y217313D01*
X372109Y217413D01*
X372109Y217669D01*
X373463Y220936D01*
X375964Y223437D01*
X379231Y224791D01*
X382769Y224791D01*
X386036Y223437D01*
X388537Y220936D01*
X389891Y217669D01*
X389891Y214131D01*
X388537Y210864D01*
X386036Y208363D01*
X382769Y207009D01*
X379231Y207009D01*
G37*
%LPD*%
%LPC*%
G36*
X365346Y434085D02*
X365346Y434085D01*
X362965Y436466D01*
X362965Y439834D01*
X365346Y442215D01*
X368714Y442215D01*
X370364Y440565D01*
X370419Y440522D01*
X370467Y440472D01*
X370544Y440425D01*
X370615Y440370D01*
X370679Y440342D01*
X370739Y440306D01*
X370824Y440279D01*
X370907Y440243D01*
X370976Y440232D01*
X371042Y440212D01*
X371132Y440208D01*
X371221Y440194D01*
X371291Y440200D01*
X371360Y440197D01*
X371448Y440215D01*
X371538Y440223D01*
X371603Y440247D01*
X371672Y440261D01*
X371752Y440301D01*
X371837Y440331D01*
X371895Y440370D01*
X371957Y440401D01*
X372026Y440459D01*
X372100Y440510D01*
X372146Y440562D01*
X372199Y440607D01*
X372251Y440681D01*
X372310Y440748D01*
X372342Y440810D01*
X372382Y440867D01*
X372414Y440951D01*
X372455Y441031D01*
X372470Y441099D01*
X372495Y441165D01*
X372505Y441254D01*
X372525Y441341D01*
X372523Y441411D01*
X372530Y441481D01*
X372518Y441570D01*
X372515Y441659D01*
X372496Y441726D01*
X372486Y441796D01*
X372434Y441948D01*
X372109Y442731D01*
X372109Y446269D01*
X373463Y449536D01*
X375964Y452037D01*
X379231Y453391D01*
X382769Y453391D01*
X386036Y452037D01*
X388537Y449536D01*
X389891Y446269D01*
X389891Y442731D01*
X388537Y439464D01*
X386036Y436963D01*
X382769Y435609D01*
X379231Y435609D01*
X375964Y436963D01*
X373398Y439528D01*
X373379Y439561D01*
X373331Y439612D01*
X373290Y439668D01*
X373221Y439726D01*
X373158Y439790D01*
X373099Y439827D01*
X373045Y439871D01*
X372963Y439909D01*
X372887Y439956D01*
X372820Y439977D01*
X372757Y440007D01*
X372669Y440024D01*
X372583Y440050D01*
X372513Y440053D01*
X372444Y440067D01*
X372355Y440061D01*
X372266Y440065D01*
X372197Y440051D01*
X372127Y440047D01*
X372042Y440019D01*
X371954Y440001D01*
X371891Y439970D01*
X371825Y439949D01*
X371749Y439901D01*
X371668Y439862D01*
X371615Y439816D01*
X371556Y439779D01*
X371495Y439713D01*
X371426Y439655D01*
X371386Y439598D01*
X371338Y439547D01*
X371295Y439469D01*
X371243Y439395D01*
X371218Y439330D01*
X371184Y439269D01*
X371162Y439182D01*
X371130Y439098D01*
X371122Y439028D01*
X371105Y438961D01*
X371095Y438800D01*
X371095Y436466D01*
X368714Y434085D01*
X365346Y434085D01*
G37*
%LPD*%
%LPC*%
G36*
X404623Y440209D02*
X404623Y440209D01*
X402109Y442723D01*
X402109Y446277D01*
X403488Y447656D01*
X403548Y447734D01*
X403616Y447806D01*
X403640Y447849D01*
X403661Y447875D01*
X403667Y447887D01*
X403682Y447907D01*
X403722Y447998D01*
X403770Y448084D01*
X403781Y448129D01*
X403797Y448163D01*
X403800Y448178D01*
X403809Y448199D01*
X403824Y448297D01*
X403849Y448392D01*
X403853Y448456D01*
X403857Y448475D01*
X403856Y448493D01*
X403859Y448513D01*
X403857Y448525D01*
X403859Y448553D01*
X403859Y473492D01*
X415681Y485314D01*
X415738Y485356D01*
X415824Y485406D01*
X415899Y485472D01*
X415916Y485484D01*
X415923Y485494D01*
X415944Y485512D01*
X417323Y486891D01*
X420877Y486891D01*
X423391Y484377D01*
X423391Y480823D01*
X420877Y478309D01*
X417276Y478309D01*
X417271Y478312D01*
X417239Y478337D01*
X417129Y478384D01*
X417024Y478438D01*
X416984Y478447D01*
X416947Y478463D01*
X416829Y478482D01*
X416713Y478508D01*
X416673Y478507D01*
X416633Y478513D01*
X416515Y478502D01*
X416395Y478498D01*
X416356Y478487D01*
X416316Y478483D01*
X416204Y478443D01*
X416090Y478410D01*
X416055Y478389D01*
X416017Y478376D01*
X415918Y478309D01*
X415816Y478248D01*
X415771Y478209D01*
X415754Y478197D01*
X415740Y478182D01*
X415695Y478142D01*
X409312Y471759D01*
X409252Y471681D01*
X409184Y471609D01*
X409155Y471556D01*
X409118Y471508D01*
X409078Y471417D01*
X409030Y471330D01*
X409015Y471272D01*
X408991Y471216D01*
X408976Y471118D01*
X408951Y471023D01*
X408945Y470922D01*
X408941Y470902D01*
X408943Y470890D01*
X408941Y470862D01*
X408941Y448553D01*
X408953Y448455D01*
X408956Y448356D01*
X408962Y448336D01*
X408963Y448319D01*
X408975Y448282D01*
X408981Y448237D01*
X409017Y448145D01*
X409045Y448050D01*
X409057Y448030D01*
X409061Y448016D01*
X409080Y447986D01*
X409098Y447942D01*
X409156Y447862D01*
X409206Y447776D01*
X409230Y447749D01*
X409231Y447747D01*
X409233Y447745D01*
X409272Y447701D01*
X409284Y447684D01*
X409294Y447677D01*
X409312Y447656D01*
X410691Y446277D01*
X410691Y442723D01*
X408177Y440209D01*
X404623Y440209D01*
G37*
%LPD*%
%LPC*%
G36*
X214131Y118109D02*
X214131Y118109D01*
X210864Y119463D01*
X208363Y121964D01*
X207009Y125231D01*
X207009Y128769D01*
X208363Y132036D01*
X210864Y134537D01*
X214131Y135891D01*
X217669Y135891D01*
X220936Y134537D01*
X223437Y132036D01*
X224791Y128769D01*
X224791Y125231D01*
X223437Y121964D01*
X220936Y119463D01*
X217669Y118109D01*
X214131Y118109D01*
G37*
%LPD*%
%LPC*%
G36*
X379231Y257809D02*
X379231Y257809D01*
X375964Y259163D01*
X373463Y261664D01*
X372109Y264931D01*
X372109Y268469D01*
X373463Y271736D01*
X375964Y274237D01*
X379231Y275591D01*
X382769Y275591D01*
X386036Y274237D01*
X388537Y271736D01*
X389891Y268469D01*
X389891Y264931D01*
X388537Y261664D01*
X386036Y259163D01*
X382769Y257809D01*
X379231Y257809D01*
G37*
%LPD*%
%LPC*%
G36*
X74431Y207009D02*
X74431Y207009D01*
X71164Y208363D01*
X68663Y210864D01*
X67309Y214131D01*
X67309Y217669D01*
X68663Y220936D01*
X71164Y223437D01*
X74431Y224791D01*
X77969Y224791D01*
X81236Y223437D01*
X83737Y220936D01*
X85091Y217669D01*
X85091Y214131D01*
X83737Y210864D01*
X81236Y208363D01*
X77969Y207009D01*
X74431Y207009D01*
G37*
%LPD*%
%LPC*%
G36*
X239531Y118109D02*
X239531Y118109D01*
X236264Y119463D01*
X233763Y121964D01*
X232409Y125231D01*
X232409Y128769D01*
X233763Y132036D01*
X236264Y134537D01*
X239531Y135891D01*
X243069Y135891D01*
X246336Y134537D01*
X248837Y132036D01*
X250191Y128769D01*
X250191Y125231D01*
X248837Y121964D01*
X246336Y119463D01*
X243069Y118109D01*
X239531Y118109D01*
G37*
%LPD*%
%LPC*%
G36*
X74431Y359409D02*
X74431Y359409D01*
X71164Y360763D01*
X68663Y363264D01*
X67309Y366531D01*
X67309Y370069D01*
X68663Y373336D01*
X71164Y375837D01*
X74431Y377191D01*
X77969Y377191D01*
X81236Y375837D01*
X83737Y373336D01*
X85091Y370069D01*
X85091Y366531D01*
X83737Y363264D01*
X81236Y360763D01*
X77969Y359409D01*
X74431Y359409D01*
G37*
%LPD*%
%LPC*%
G36*
X74431Y435609D02*
X74431Y435609D01*
X71164Y436963D01*
X68663Y439464D01*
X67309Y442731D01*
X67309Y446269D01*
X68663Y449536D01*
X71164Y452037D01*
X74431Y453391D01*
X77969Y453391D01*
X81236Y452037D01*
X83737Y449536D01*
X85091Y446269D01*
X85091Y442731D01*
X83737Y439464D01*
X81236Y436963D01*
X77969Y435609D01*
X74431Y435609D01*
G37*
%LPD*%
%LPC*%
G36*
X379231Y359409D02*
X379231Y359409D01*
X375964Y360763D01*
X373463Y363264D01*
X372109Y366531D01*
X372109Y370069D01*
X373463Y373336D01*
X375964Y375837D01*
X379231Y377191D01*
X382769Y377191D01*
X386036Y375837D01*
X388537Y373336D01*
X389891Y370069D01*
X389891Y366531D01*
X388537Y363264D01*
X386036Y360763D01*
X382769Y359409D01*
X379231Y359409D01*
G37*
%LPD*%
%LPC*%
G36*
X379231Y410209D02*
X379231Y410209D01*
X375964Y411563D01*
X373463Y414064D01*
X372109Y417331D01*
X372109Y420869D01*
X373463Y424136D01*
X375964Y426637D01*
X379231Y427991D01*
X382769Y427991D01*
X386036Y426637D01*
X388537Y424136D01*
X389891Y420869D01*
X389891Y417331D01*
X388537Y414064D01*
X386036Y411563D01*
X382769Y410209D01*
X379231Y410209D01*
G37*
%LPD*%
%LPC*%
G36*
X74431Y410209D02*
X74431Y410209D01*
X71164Y411563D01*
X68663Y414064D01*
X67309Y417331D01*
X67309Y420869D01*
X68663Y424136D01*
X71164Y426637D01*
X74431Y427991D01*
X77969Y427991D01*
X81236Y426637D01*
X83737Y424136D01*
X85091Y420869D01*
X85091Y417331D01*
X83737Y414064D01*
X81236Y411563D01*
X77969Y410209D01*
X74431Y410209D01*
G37*
%LPD*%
%LPC*%
G36*
X379231Y384809D02*
X379231Y384809D01*
X375964Y386163D01*
X373463Y388664D01*
X372109Y391931D01*
X372109Y395469D01*
X373463Y398736D01*
X375964Y401237D01*
X379231Y402591D01*
X382769Y402591D01*
X386036Y401237D01*
X388537Y398736D01*
X389891Y395469D01*
X389891Y391931D01*
X388537Y388664D01*
X386036Y386163D01*
X382769Y384809D01*
X379231Y384809D01*
G37*
%LPD*%
%LPC*%
G36*
X379231Y232409D02*
X379231Y232409D01*
X375964Y233763D01*
X373463Y236264D01*
X372109Y239531D01*
X372109Y243069D01*
X373463Y246336D01*
X375964Y248837D01*
X379231Y250191D01*
X382769Y250191D01*
X386036Y248837D01*
X388537Y246336D01*
X389891Y243069D01*
X389891Y239531D01*
X388537Y236264D01*
X386036Y233763D01*
X382769Y232409D01*
X379231Y232409D01*
G37*
%LPD*%
%LPC*%
G36*
X74431Y232409D02*
X74431Y232409D01*
X71164Y233763D01*
X68663Y236264D01*
X67309Y239531D01*
X67309Y243069D01*
X68663Y246336D01*
X71164Y248837D01*
X74431Y250191D01*
X77969Y250191D01*
X81236Y248837D01*
X83737Y246336D01*
X85091Y243069D01*
X85091Y239531D01*
X83737Y236264D01*
X81236Y233763D01*
X77969Y232409D01*
X74431Y232409D01*
G37*
%LPD*%
%LPC*%
G36*
X74431Y384809D02*
X74431Y384809D01*
X71164Y386163D01*
X68663Y388664D01*
X67309Y391931D01*
X67309Y395469D01*
X68663Y398736D01*
X71164Y401237D01*
X74431Y402591D01*
X77969Y402591D01*
X81236Y401237D01*
X83737Y398736D01*
X85091Y395469D01*
X85091Y391931D01*
X83737Y388664D01*
X81236Y386163D01*
X77969Y384809D01*
X74431Y384809D01*
G37*
%LPD*%
%LPC*%
G36*
X379231Y334009D02*
X379231Y334009D01*
X375964Y335363D01*
X373463Y337864D01*
X372109Y341131D01*
X372109Y344669D01*
X373463Y347936D01*
X375964Y350437D01*
X379231Y351791D01*
X382769Y351791D01*
X386036Y350437D01*
X388537Y347936D01*
X389891Y344669D01*
X389891Y341131D01*
X388537Y337864D01*
X386036Y335363D01*
X382769Y334009D01*
X379231Y334009D01*
G37*
%LPD*%
%LPC*%
G36*
X74431Y334009D02*
X74431Y334009D01*
X71164Y335363D01*
X68663Y337864D01*
X67309Y341131D01*
X67309Y344669D01*
X68663Y347936D01*
X71164Y350437D01*
X74431Y351791D01*
X77969Y351791D01*
X81236Y350437D01*
X83737Y347936D01*
X85091Y344669D01*
X85091Y341131D01*
X83737Y337864D01*
X81236Y335363D01*
X77969Y334009D01*
X74431Y334009D01*
G37*
%LPD*%
%LPC*%
G36*
X379231Y308609D02*
X379231Y308609D01*
X375964Y309963D01*
X373463Y312464D01*
X372109Y315731D01*
X372109Y319269D01*
X373463Y322536D01*
X375964Y325037D01*
X379231Y326391D01*
X382769Y326391D01*
X386036Y325037D01*
X388537Y322536D01*
X389891Y319269D01*
X389891Y315731D01*
X388537Y312464D01*
X386036Y309963D01*
X382769Y308609D01*
X379231Y308609D01*
G37*
%LPD*%
%LPC*%
G36*
X74431Y308609D02*
X74431Y308609D01*
X71164Y309963D01*
X68663Y312464D01*
X67309Y315731D01*
X67309Y319269D01*
X68663Y322536D01*
X71164Y325037D01*
X74431Y326391D01*
X77969Y326391D01*
X81236Y325037D01*
X83737Y322536D01*
X85091Y319269D01*
X85091Y315731D01*
X83737Y312464D01*
X81236Y309963D01*
X77969Y308609D01*
X74431Y308609D01*
G37*
%LPD*%
%LPC*%
G36*
X379231Y283209D02*
X379231Y283209D01*
X375964Y284563D01*
X373463Y287064D01*
X372109Y290331D01*
X372109Y293869D01*
X373463Y297136D01*
X375964Y299637D01*
X379231Y300991D01*
X382769Y300991D01*
X386036Y299637D01*
X388537Y297136D01*
X389891Y293869D01*
X389891Y290331D01*
X388537Y287064D01*
X386036Y284563D01*
X382769Y283209D01*
X379231Y283209D01*
G37*
%LPD*%
%LPC*%
G36*
X74431Y283209D02*
X74431Y283209D01*
X71164Y284563D01*
X68663Y287064D01*
X67309Y290331D01*
X67309Y293869D01*
X68663Y297136D01*
X71164Y299637D01*
X74431Y300991D01*
X77969Y300991D01*
X81236Y299637D01*
X83737Y297136D01*
X85091Y293869D01*
X85091Y290331D01*
X83737Y287064D01*
X81236Y284563D01*
X77969Y283209D01*
X74431Y283209D01*
G37*
%LPD*%
%LPC*%
G36*
X243333Y190019D02*
X243333Y190019D01*
X240819Y192533D01*
X240819Y196087D01*
X242590Y197857D01*
X242663Y197952D01*
X242741Y198041D01*
X242760Y198077D01*
X242784Y198109D01*
X242832Y198218D01*
X242886Y198324D01*
X242895Y198363D01*
X242911Y198401D01*
X242929Y198518D01*
X242956Y198634D01*
X242954Y198675D01*
X242961Y198715D01*
X242949Y198833D01*
X242946Y198952D01*
X242935Y198991D01*
X242931Y199031D01*
X242891Y199144D01*
X242857Y199258D01*
X242837Y199292D01*
X242823Y199331D01*
X242756Y199429D01*
X242696Y199532D01*
X242656Y199577D01*
X242645Y199594D01*
X242629Y199607D01*
X242590Y199652D01*
X240819Y201423D01*
X240819Y204977D01*
X243333Y207491D01*
X246887Y207491D01*
X248022Y206355D01*
X248117Y206283D01*
X248206Y206204D01*
X248242Y206185D01*
X248274Y206161D01*
X248383Y206113D01*
X248489Y206059D01*
X248528Y206050D01*
X248566Y206034D01*
X248683Y206016D01*
X248799Y205989D01*
X248840Y205991D01*
X248880Y205984D01*
X248998Y205996D01*
X249117Y205999D01*
X249156Y206010D01*
X249196Y206014D01*
X249309Y206054D01*
X249423Y206088D01*
X249457Y206108D01*
X249496Y206122D01*
X249594Y206189D01*
X249697Y206249D01*
X249742Y206289D01*
X249759Y206300D01*
X249772Y206316D01*
X249817Y206355D01*
X250953Y207491D01*
X254507Y207491D01*
X257021Y204977D01*
X257021Y201423D01*
X255885Y200288D01*
X255813Y200193D01*
X255734Y200104D01*
X255715Y200068D01*
X255691Y200036D01*
X255643Y199927D01*
X255589Y199821D01*
X255580Y199782D01*
X255564Y199744D01*
X255546Y199627D01*
X255519Y199511D01*
X255521Y199470D01*
X255514Y199430D01*
X255526Y199312D01*
X255529Y199193D01*
X255540Y199154D01*
X255544Y199114D01*
X255584Y199001D01*
X255618Y198887D01*
X255638Y198853D01*
X255652Y198814D01*
X255719Y198716D01*
X255779Y198613D01*
X255819Y198568D01*
X255830Y198551D01*
X255846Y198538D01*
X255885Y198493D01*
X257021Y197357D01*
X257021Y193803D01*
X254507Y191289D01*
X250953Y191289D01*
X250452Y191790D01*
X250358Y191863D01*
X250269Y191941D01*
X250233Y191960D01*
X250201Y191984D01*
X250092Y192032D01*
X249986Y192086D01*
X249947Y192095D01*
X249909Y192111D01*
X249792Y192129D01*
X249676Y192156D01*
X249635Y192154D01*
X249595Y192161D01*
X249477Y192149D01*
X249358Y192146D01*
X249319Y192135D01*
X249279Y192131D01*
X249167Y192091D01*
X249052Y192057D01*
X249017Y192037D01*
X248979Y192023D01*
X248881Y191956D01*
X248778Y191896D01*
X248733Y191856D01*
X248716Y191845D01*
X248703Y191829D01*
X248657Y191790D01*
X246887Y190019D01*
X243333Y190019D01*
G37*
%LPD*%
%LPC*%
G36*
X381292Y519429D02*
X381292Y519429D01*
X379729Y520992D01*
X379729Y523202D01*
X381292Y524765D01*
X386560Y524765D01*
X386562Y524765D01*
X386565Y524765D01*
X386725Y524776D01*
X386784Y524783D01*
X386793Y524786D01*
X386802Y524786D01*
X386865Y524803D01*
X386875Y524805D01*
X386889Y524810D01*
X386945Y524826D01*
X387091Y524864D01*
X387100Y524869D01*
X387109Y524871D01*
X387253Y524942D01*
X387354Y525001D01*
X387428Y525057D01*
X387507Y525104D01*
X387554Y525153D01*
X387607Y525193D01*
X387665Y525265D01*
X387729Y525331D01*
X387794Y525429D01*
X387805Y525442D01*
X387808Y525450D01*
X387819Y525465D01*
X387877Y525567D01*
X387913Y525652D01*
X387957Y525733D01*
X387974Y525798D01*
X388000Y525860D01*
X388014Y525951D01*
X388037Y526041D01*
X388044Y526158D01*
X388047Y526174D01*
X388046Y526183D01*
X388047Y526201D01*
X388047Y526318D01*
X388036Y526410D01*
X388034Y526502D01*
X388016Y526567D01*
X388007Y526634D01*
X387973Y526720D01*
X387949Y526809D01*
X387896Y526914D01*
X387890Y526929D01*
X387885Y526936D01*
X387877Y526953D01*
X387819Y527054D01*
X387763Y527128D01*
X387715Y527207D01*
X387667Y527254D01*
X387626Y527307D01*
X387554Y527365D01*
X387488Y527429D01*
X387390Y527494D01*
X387377Y527505D01*
X387369Y527508D01*
X387354Y527519D01*
X387253Y527577D01*
X387244Y527581D01*
X387237Y527586D01*
X387098Y527642D01*
X386960Y527700D01*
X386950Y527702D01*
X386942Y527705D01*
X386784Y527736D01*
X386725Y527744D01*
X386723Y527744D01*
X386720Y527745D01*
X386560Y527755D01*
X384929Y527755D01*
X382957Y527755D01*
X381394Y529318D01*
X381394Y531528D01*
X382115Y532249D01*
X382200Y532358D01*
X382289Y532465D01*
X382298Y532484D01*
X382310Y532500D01*
X382366Y532627D01*
X382425Y532753D01*
X382429Y532773D01*
X382437Y532792D01*
X382459Y532930D01*
X382485Y533066D01*
X382483Y533086D01*
X382486Y533106D01*
X382473Y533245D01*
X382465Y533383D01*
X382459Y533402D01*
X382457Y533422D01*
X382409Y533554D01*
X382367Y533685D01*
X382356Y533703D01*
X382349Y533722D01*
X382271Y533837D01*
X382197Y533954D01*
X382182Y533968D01*
X382170Y533985D01*
X382066Y534077D01*
X381965Y534172D01*
X381947Y534182D01*
X381932Y534195D01*
X381808Y534258D01*
X381686Y534326D01*
X381667Y534331D01*
X381649Y534340D01*
X381513Y534370D01*
X381379Y534405D01*
X381350Y534407D01*
X381339Y534410D01*
X381318Y534409D01*
X381297Y534410D01*
X379729Y535978D01*
X379729Y538188D01*
X381292Y539751D01*
X389341Y539751D01*
X392495Y537460D01*
X393699Y533753D01*
X392585Y530324D01*
X392560Y530195D01*
X392530Y530066D01*
X392531Y530039D01*
X392525Y530012D01*
X392534Y529880D01*
X392536Y529748D01*
X392544Y529722D01*
X392545Y529695D01*
X392586Y529569D01*
X392621Y529442D01*
X392639Y529407D01*
X392644Y529392D01*
X392655Y529374D01*
X392693Y529298D01*
X393390Y528090D01*
X393390Y524429D01*
X391560Y521259D01*
X388390Y519429D01*
X381292Y519429D01*
G37*
%LPD*%
%LPC*%
G36*
X320537Y74929D02*
X320537Y74929D01*
X318007Y77459D01*
X318007Y81037D01*
X320537Y83567D01*
X324115Y83567D01*
X326783Y80899D01*
X326877Y80826D01*
X326966Y80747D01*
X327002Y80729D01*
X327034Y80704D01*
X327143Y80657D01*
X327249Y80603D01*
X327288Y80594D01*
X327326Y80578D01*
X327443Y80559D01*
X327559Y80533D01*
X327600Y80534D01*
X327640Y80528D01*
X327758Y80539D01*
X327877Y80543D01*
X327916Y80554D01*
X327956Y80558D01*
X328069Y80598D01*
X328183Y80631D01*
X328218Y80652D01*
X328256Y80665D01*
X328354Y80732D01*
X328457Y80793D01*
X328502Y80833D01*
X328519Y80844D01*
X328532Y80859D01*
X328578Y80899D01*
X331245Y83567D01*
X334829Y83567D01*
X334897Y83513D01*
X334987Y83435D01*
X335023Y83416D01*
X335055Y83391D01*
X335164Y83344D01*
X335270Y83290D01*
X335309Y83281D01*
X335346Y83265D01*
X335464Y83246D01*
X335580Y83220D01*
X335621Y83222D01*
X335660Y83215D01*
X335779Y83226D01*
X335898Y83230D01*
X335937Y83241D01*
X335977Y83245D01*
X336089Y83285D01*
X336204Y83318D01*
X336238Y83339D01*
X336276Y83353D01*
X336375Y83419D01*
X336477Y83480D01*
X336523Y83520D01*
X336540Y83531D01*
X336553Y83546D01*
X336598Y83586D01*
X338583Y85571D01*
X342137Y85571D01*
X344651Y83057D01*
X344651Y79503D01*
X342137Y76989D01*
X338569Y76989D01*
X338536Y77015D01*
X338447Y77093D01*
X338411Y77112D01*
X338379Y77137D01*
X338270Y77184D01*
X338164Y77238D01*
X338124Y77247D01*
X338087Y77263D01*
X337969Y77282D01*
X337853Y77308D01*
X337813Y77306D01*
X337773Y77313D01*
X337654Y77302D01*
X337536Y77298D01*
X337497Y77287D01*
X337456Y77283D01*
X337344Y77243D01*
X337230Y77210D01*
X337195Y77189D01*
X337157Y77175D01*
X337058Y77108D01*
X336956Y77048D01*
X336911Y77008D01*
X336894Y76997D01*
X336881Y76982D01*
X336835Y76942D01*
X334823Y74929D01*
X331245Y74929D01*
X328578Y77597D01*
X328487Y77667D01*
X328461Y77691D01*
X328456Y77694D01*
X328394Y77749D01*
X328358Y77767D01*
X328326Y77792D01*
X328217Y77839D01*
X328111Y77893D01*
X328072Y77902D01*
X328034Y77918D01*
X327917Y77937D01*
X327801Y77963D01*
X327760Y77962D01*
X327720Y77968D01*
X327602Y77957D01*
X327483Y77953D01*
X327444Y77942D01*
X327404Y77938D01*
X327291Y77898D01*
X327177Y77865D01*
X327143Y77844D01*
X327104Y77831D01*
X327006Y77764D01*
X326903Y77703D01*
X326858Y77663D01*
X326841Y77652D01*
X326828Y77637D01*
X326783Y77597D01*
X324115Y74929D01*
X320537Y74929D01*
G37*
%LPD*%
%LPC*%
G36*
X284066Y163575D02*
X284066Y163575D01*
X281685Y165956D01*
X281685Y169324D01*
X284184Y171823D01*
X284257Y171917D01*
X284336Y172006D01*
X284354Y172042D01*
X284379Y172074D01*
X284426Y172183D01*
X284480Y172289D01*
X284489Y172329D01*
X284505Y172366D01*
X284524Y172483D01*
X284550Y172599D01*
X284549Y172640D01*
X284555Y172680D01*
X284544Y172799D01*
X284540Y172917D01*
X284529Y172956D01*
X284525Y172996D01*
X284485Y173108D01*
X284452Y173223D01*
X284431Y173258D01*
X284418Y173296D01*
X284351Y173394D01*
X284290Y173497D01*
X284251Y173542D01*
X284239Y173559D01*
X284225Y173571D01*
X284225Y176944D01*
X285294Y178013D01*
X285367Y178107D01*
X285446Y178196D01*
X285464Y178232D01*
X285489Y178264D01*
X285537Y178373D01*
X285591Y178479D01*
X285600Y178519D01*
X285616Y178556D01*
X285634Y178674D01*
X285660Y178790D01*
X285659Y178830D01*
X285665Y178870D01*
X285654Y178989D01*
X285651Y179107D01*
X285639Y179146D01*
X285636Y179187D01*
X285595Y179299D01*
X285562Y179413D01*
X285542Y179448D01*
X285528Y179486D01*
X285461Y179585D01*
X285401Y179687D01*
X285361Y179732D01*
X285349Y179749D01*
X285334Y179762D01*
X285294Y179808D01*
X282729Y182373D01*
X282729Y185927D01*
X285243Y188441D01*
X288797Y188441D01*
X291311Y185927D01*
X291311Y182373D01*
X290016Y181078D01*
X289943Y180984D01*
X289864Y180894D01*
X289846Y180858D01*
X289821Y180826D01*
X289773Y180717D01*
X289719Y180611D01*
X289710Y180572D01*
X289694Y180535D01*
X289676Y180417D01*
X289650Y180301D01*
X289651Y180261D01*
X289645Y180220D01*
X289656Y180102D01*
X289659Y179983D01*
X289671Y179944D01*
X289674Y179904D01*
X289715Y179792D01*
X289748Y179677D01*
X289768Y179643D01*
X289782Y179605D01*
X289849Y179506D01*
X289909Y179404D01*
X289949Y179358D01*
X289961Y179341D01*
X289976Y179328D01*
X290016Y179283D01*
X292355Y176944D01*
X292355Y173576D01*
X289856Y171078D01*
X289783Y170983D01*
X289704Y170894D01*
X289686Y170858D01*
X289661Y170826D01*
X289614Y170717D01*
X289560Y170611D01*
X289551Y170572D01*
X289535Y170534D01*
X289516Y170417D01*
X289490Y170301D01*
X289491Y170260D01*
X289485Y170220D01*
X289496Y170102D01*
X289500Y169983D01*
X289511Y169944D01*
X289515Y169904D01*
X289555Y169791D01*
X289588Y169677D01*
X289608Y169643D01*
X289622Y169604D01*
X289689Y169506D01*
X289749Y169403D01*
X289789Y169358D01*
X289801Y169341D01*
X289815Y169329D01*
X289815Y165956D01*
X287434Y163575D01*
X284066Y163575D01*
G37*
%LPD*%
%LPC*%
G36*
X10923Y149379D02*
X10923Y149379D01*
X8409Y151893D01*
X8409Y155447D01*
X10923Y157961D01*
X14477Y157961D01*
X16629Y155809D01*
X16738Y155724D01*
X16845Y155636D01*
X16864Y155627D01*
X16880Y155615D01*
X17008Y155559D01*
X17133Y155500D01*
X17153Y155496D01*
X17172Y155488D01*
X17310Y155466D01*
X17446Y155440D01*
X17466Y155442D01*
X17486Y155438D01*
X17625Y155451D01*
X17763Y155460D01*
X17782Y155466D01*
X17802Y155468D01*
X17934Y155515D01*
X18065Y155558D01*
X18083Y155569D01*
X18102Y155576D01*
X18217Y155654D01*
X18334Y155728D01*
X18348Y155743D01*
X18365Y155754D01*
X18457Y155859D01*
X18552Y155960D01*
X18562Y155978D01*
X18575Y155993D01*
X18639Y156117D01*
X18706Y156238D01*
X18711Y156258D01*
X18720Y156276D01*
X18750Y156412D01*
X18785Y156546D01*
X18787Y156574D01*
X18790Y156586D01*
X18789Y156607D01*
X18790Y156618D01*
X21176Y159005D01*
X24544Y159005D01*
X26925Y156624D01*
X26925Y153256D01*
X24544Y150875D01*
X21176Y150875D01*
X19157Y152894D01*
X19048Y152979D01*
X18941Y153068D01*
X18922Y153077D01*
X18906Y153089D01*
X18778Y153145D01*
X18653Y153204D01*
X18633Y153207D01*
X18614Y153215D01*
X18476Y153237D01*
X18340Y153263D01*
X18320Y153262D01*
X18300Y153265D01*
X18161Y153252D01*
X18023Y153244D01*
X18004Y153237D01*
X17984Y153235D01*
X17852Y153188D01*
X17721Y153146D01*
X17703Y153135D01*
X17684Y153128D01*
X17569Y153050D01*
X17452Y152975D01*
X17438Y152961D01*
X17421Y152949D01*
X17329Y152845D01*
X17234Y152744D01*
X17224Y152726D01*
X17211Y152711D01*
X17147Y152587D01*
X17080Y152465D01*
X17075Y152446D01*
X17066Y152428D01*
X17036Y152292D01*
X17001Y152157D01*
X16999Y152129D01*
X16996Y152117D01*
X16997Y152097D01*
X16991Y151997D01*
X16991Y151893D01*
X14477Y149379D01*
X10923Y149379D01*
G37*
%LPD*%
%LPC*%
G36*
X66896Y161035D02*
X66896Y161035D01*
X64515Y163416D01*
X64515Y166784D01*
X65584Y167853D01*
X65657Y167947D01*
X65736Y168036D01*
X65754Y168072D01*
X65779Y168104D01*
X65827Y168213D01*
X65881Y168319D01*
X65890Y168359D01*
X65906Y168396D01*
X65924Y168514D01*
X65950Y168630D01*
X65949Y168670D01*
X65955Y168710D01*
X65944Y168829D01*
X65941Y168947D01*
X65929Y168986D01*
X65926Y169027D01*
X65885Y169139D01*
X65852Y169253D01*
X65832Y169288D01*
X65818Y169326D01*
X65751Y169425D01*
X65691Y169527D01*
X65651Y169572D01*
X65639Y169589D01*
X65624Y169602D01*
X65584Y169648D01*
X63019Y172213D01*
X63019Y175767D01*
X65533Y178281D01*
X69087Y178281D01*
X71601Y175767D01*
X71601Y172213D01*
X70306Y170918D01*
X70233Y170824D01*
X70154Y170734D01*
X70136Y170698D01*
X70111Y170666D01*
X70063Y170557D01*
X70009Y170451D01*
X70000Y170412D01*
X69984Y170375D01*
X69966Y170257D01*
X69940Y170141D01*
X69941Y170101D01*
X69935Y170060D01*
X69946Y169942D01*
X69949Y169823D01*
X69961Y169784D01*
X69964Y169744D01*
X70005Y169632D01*
X70038Y169517D01*
X70058Y169483D01*
X70072Y169445D01*
X70139Y169346D01*
X70199Y169244D01*
X70239Y169198D01*
X70251Y169181D01*
X70266Y169168D01*
X70306Y169123D01*
X72645Y166784D01*
X72645Y163416D01*
X70264Y161035D01*
X66896Y161035D01*
G37*
%LPD*%
%LPC*%
G36*
X319533Y230659D02*
X319533Y230659D01*
X317019Y233173D01*
X317019Y236727D01*
X319533Y239241D01*
X323087Y239241D01*
X325017Y237311D01*
X325111Y237238D01*
X325201Y237159D01*
X325237Y237141D01*
X325269Y237116D01*
X325378Y237068D01*
X325484Y237014D01*
X325523Y237005D01*
X325560Y236989D01*
X325678Y236971D01*
X325794Y236945D01*
X325834Y236946D01*
X325875Y236940D01*
X325993Y236951D01*
X326112Y236954D01*
X326151Y236966D01*
X326191Y236969D01*
X326303Y237010D01*
X326418Y237043D01*
X326452Y237063D01*
X326490Y237077D01*
X326589Y237144D01*
X326691Y237204D01*
X326737Y237244D01*
X326754Y237256D01*
X326767Y237271D01*
X326812Y237311D01*
X328516Y239015D01*
X331884Y239015D01*
X334265Y236634D01*
X334265Y233266D01*
X331884Y230885D01*
X328516Y230885D01*
X326812Y232589D01*
X326718Y232662D01*
X326629Y232741D01*
X326593Y232759D01*
X326561Y232784D01*
X326452Y232832D01*
X326346Y232886D01*
X326306Y232895D01*
X326269Y232911D01*
X326151Y232929D01*
X326035Y232955D01*
X325995Y232954D01*
X325955Y232960D01*
X325836Y232949D01*
X325718Y232946D01*
X325679Y232934D01*
X325638Y232931D01*
X325526Y232890D01*
X325412Y232857D01*
X325377Y232837D01*
X325339Y232823D01*
X325240Y232756D01*
X325138Y232696D01*
X325093Y232656D01*
X325076Y232644D01*
X325063Y232629D01*
X325017Y232589D01*
X323087Y230659D01*
X319533Y230659D01*
G37*
%LPD*%
%LPC*%
G36*
X28703Y172239D02*
X28703Y172239D01*
X26138Y174804D01*
X26043Y174877D01*
X25954Y174956D01*
X25918Y174974D01*
X25886Y174999D01*
X25777Y175047D01*
X25671Y175101D01*
X25632Y175110D01*
X25595Y175126D01*
X25477Y175144D01*
X25361Y175170D01*
X25321Y175169D01*
X25280Y175175D01*
X25162Y175164D01*
X25043Y175161D01*
X25004Y175149D01*
X24964Y175146D01*
X24852Y175105D01*
X24737Y175072D01*
X24703Y175052D01*
X24665Y175038D01*
X24616Y175005D01*
X21176Y175005D01*
X18795Y177386D01*
X18795Y180754D01*
X21176Y183135D01*
X24544Y183135D01*
X26883Y180796D01*
X26977Y180723D01*
X27066Y180644D01*
X27102Y180626D01*
X27134Y180601D01*
X27243Y180553D01*
X27349Y180499D01*
X27389Y180490D01*
X27426Y180474D01*
X27544Y180456D01*
X27660Y180430D01*
X27700Y180431D01*
X27740Y180425D01*
X27859Y180436D01*
X27977Y180439D01*
X28016Y180451D01*
X28057Y180454D01*
X28169Y180495D01*
X28283Y180528D01*
X28318Y180548D01*
X28356Y180562D01*
X28454Y180629D01*
X28557Y180689D01*
X28602Y180729D01*
X28619Y180741D01*
X28632Y180756D01*
X28678Y180796D01*
X28703Y180821D01*
X32257Y180821D01*
X34771Y178307D01*
X34771Y174753D01*
X32257Y172239D01*
X28703Y172239D01*
G37*
%LPD*%
%LPC*%
G36*
X186276Y190245D02*
X186276Y190245D01*
X183895Y192626D01*
X183895Y195994D01*
X186276Y198375D01*
X188750Y198375D01*
X188868Y198390D01*
X188987Y198397D01*
X189025Y198410D01*
X189066Y198415D01*
X189176Y198458D01*
X189289Y198495D01*
X189324Y198517D01*
X189361Y198532D01*
X189457Y198601D01*
X189558Y198665D01*
X189586Y198695D01*
X189619Y198718D01*
X189695Y198810D01*
X189776Y198897D01*
X189796Y198932D01*
X189821Y198963D01*
X189872Y199071D01*
X189930Y199175D01*
X189940Y199215D01*
X189957Y199251D01*
X189979Y199368D01*
X190009Y199483D01*
X190013Y199543D01*
X190017Y199563D01*
X190015Y199584D01*
X190019Y199644D01*
X190019Y201167D01*
X192533Y203681D01*
X196087Y203681D01*
X198601Y201167D01*
X198601Y197613D01*
X196087Y195099D01*
X193294Y195099D01*
X193176Y195084D01*
X193057Y195077D01*
X193019Y195064D01*
X192978Y195059D01*
X192868Y195016D01*
X192755Y194979D01*
X192720Y194957D01*
X192683Y194942D01*
X192587Y194873D01*
X192486Y194809D01*
X192458Y194779D01*
X192425Y194756D01*
X192349Y194664D01*
X192268Y194577D01*
X192248Y194542D01*
X192223Y194511D01*
X192172Y194403D01*
X192114Y194299D01*
X192104Y194259D01*
X192087Y194223D01*
X192065Y194106D01*
X192035Y193991D01*
X192031Y193931D01*
X192027Y193911D01*
X192029Y193890D01*
X192025Y193830D01*
X192025Y192626D01*
X189644Y190245D01*
X186276Y190245D01*
G37*
%LPD*%
%LPC*%
G36*
X287783Y146839D02*
X287783Y146839D01*
X285269Y149353D01*
X285269Y152907D01*
X287783Y155421D01*
X289306Y155421D01*
X289424Y155436D01*
X289543Y155443D01*
X289581Y155456D01*
X289622Y155461D01*
X289732Y155504D01*
X289845Y155541D01*
X289880Y155563D01*
X289917Y155578D01*
X290013Y155647D01*
X290114Y155711D01*
X290142Y155741D01*
X290175Y155764D01*
X290251Y155856D01*
X290332Y155943D01*
X290352Y155978D01*
X290377Y156009D01*
X290428Y156117D01*
X290486Y156221D01*
X290496Y156261D01*
X290513Y156297D01*
X290535Y156414D01*
X290565Y156529D01*
X290569Y156589D01*
X290573Y156609D01*
X290571Y156630D01*
X290575Y156690D01*
X290575Y159164D01*
X292956Y161545D01*
X296324Y161545D01*
X298705Y159164D01*
X298705Y155796D01*
X296324Y153415D01*
X295120Y153415D01*
X295002Y153400D01*
X294883Y153393D01*
X294845Y153380D01*
X294804Y153375D01*
X294694Y153332D01*
X294581Y153295D01*
X294546Y153273D01*
X294509Y153258D01*
X294413Y153189D01*
X294312Y153125D01*
X294284Y153095D01*
X294251Y153072D01*
X294175Y152980D01*
X294094Y152893D01*
X294074Y152858D01*
X294049Y152827D01*
X293998Y152719D01*
X293940Y152615D01*
X293930Y152575D01*
X293913Y152539D01*
X293891Y152422D01*
X293861Y152307D01*
X293857Y152247D01*
X293853Y152227D01*
X293855Y152206D01*
X293851Y152146D01*
X293851Y149353D01*
X291337Y146839D01*
X287783Y146839D01*
G37*
%LPD*%
%LPC*%
G36*
X49601Y174071D02*
X49601Y174071D01*
X47385Y174989D01*
X45689Y176685D01*
X44771Y178901D01*
X44771Y181299D01*
X45689Y183515D01*
X47385Y185211D01*
X49601Y186129D01*
X51999Y186129D01*
X54215Y185211D01*
X55911Y183515D01*
X56829Y181299D01*
X56829Y178901D01*
X55911Y176685D01*
X54215Y174989D01*
X51999Y174071D01*
X49601Y174071D01*
G37*
%LPD*%
%LPC*%
G36*
X49601Y144071D02*
X49601Y144071D01*
X47385Y144989D01*
X45689Y146685D01*
X44771Y148901D01*
X44771Y151299D01*
X45689Y153515D01*
X47385Y155211D01*
X49601Y156129D01*
X51999Y156129D01*
X54215Y155211D01*
X55911Y153515D01*
X56829Y151299D01*
X56829Y148901D01*
X55911Y146685D01*
X54215Y144989D01*
X51999Y144071D01*
X49601Y144071D01*
G37*
%LPD*%
%LPC*%
G36*
X165956Y359155D02*
X165956Y359155D01*
X163575Y361536D01*
X163575Y364313D01*
X163558Y364451D01*
X163545Y364589D01*
X163538Y364608D01*
X163535Y364628D01*
X163484Y364757D01*
X163437Y364888D01*
X163426Y364905D01*
X163418Y364924D01*
X163337Y365036D01*
X163259Y365151D01*
X163243Y365165D01*
X163232Y365181D01*
X163124Y365270D01*
X163020Y365362D01*
X163002Y365371D01*
X162987Y365384D01*
X162861Y365443D01*
X162737Y365506D01*
X162717Y365511D01*
X162699Y365520D01*
X162562Y365546D01*
X162427Y365576D01*
X162406Y365576D01*
X162387Y365579D01*
X162248Y365571D01*
X162109Y365566D01*
X162089Y365561D01*
X162069Y365560D01*
X161937Y365517D01*
X161803Y365478D01*
X161786Y365468D01*
X161767Y365462D01*
X161649Y365387D01*
X161529Y365317D01*
X161508Y365298D01*
X161498Y365291D01*
X161484Y365276D01*
X161409Y365210D01*
X160434Y364235D01*
X157066Y364235D01*
X154685Y366616D01*
X154685Y369984D01*
X157066Y372365D01*
X160434Y372365D01*
X162815Y369984D01*
X162815Y367207D01*
X162832Y367069D01*
X162845Y366931D01*
X162852Y366912D01*
X162855Y366892D01*
X162906Y366763D01*
X162953Y366632D01*
X162964Y366615D01*
X162972Y366596D01*
X163053Y366484D01*
X163131Y366369D01*
X163147Y366355D01*
X163158Y366339D01*
X163266Y366250D01*
X163370Y366158D01*
X163388Y366149D01*
X163403Y366136D01*
X163529Y366077D01*
X163653Y366014D01*
X163673Y366009D01*
X163691Y366000D01*
X163828Y365974D01*
X163963Y365944D01*
X163984Y365944D01*
X164003Y365941D01*
X164142Y365949D01*
X164281Y365954D01*
X164301Y365959D01*
X164321Y365960D01*
X164453Y366003D01*
X164587Y366042D01*
X164604Y366052D01*
X164623Y366058D01*
X164741Y366133D01*
X164861Y366203D01*
X164882Y366222D01*
X164892Y366229D01*
X164906Y366244D01*
X164981Y366310D01*
X165956Y367285D01*
X169324Y367285D01*
X171705Y364904D01*
X171705Y361536D01*
X169324Y359155D01*
X165956Y359155D01*
G37*
%LPD*%
%LPC*%
G36*
X120236Y164845D02*
X120236Y164845D01*
X117855Y167226D01*
X117855Y168830D01*
X117840Y168948D01*
X117833Y169067D01*
X117820Y169105D01*
X117815Y169146D01*
X117772Y169256D01*
X117735Y169369D01*
X117713Y169404D01*
X117698Y169441D01*
X117629Y169537D01*
X117565Y169638D01*
X117535Y169666D01*
X117512Y169699D01*
X117420Y169775D01*
X117333Y169856D01*
X117298Y169876D01*
X117267Y169901D01*
X117159Y169952D01*
X117055Y170010D01*
X117015Y170020D01*
X116979Y170037D01*
X116862Y170059D01*
X116747Y170089D01*
X116687Y170093D01*
X116667Y170097D01*
X116646Y170095D01*
X116586Y170099D01*
X113886Y170099D01*
X111505Y172480D01*
X111505Y175848D01*
X113886Y178229D01*
X117254Y178229D01*
X119635Y175848D01*
X119635Y174244D01*
X119650Y174126D01*
X119657Y174007D01*
X119670Y173969D01*
X119675Y173928D01*
X119718Y173818D01*
X119755Y173705D01*
X119777Y173670D01*
X119792Y173633D01*
X119861Y173537D01*
X119925Y173436D01*
X119955Y173408D01*
X119978Y173375D01*
X120070Y173299D01*
X120157Y173218D01*
X120192Y173198D01*
X120223Y173173D01*
X120331Y173122D01*
X120435Y173064D01*
X120475Y173054D01*
X120511Y173037D01*
X120628Y173015D01*
X120743Y172985D01*
X120803Y172981D01*
X120823Y172977D01*
X120844Y172979D01*
X120904Y172975D01*
X123604Y172975D01*
X125985Y170594D01*
X125985Y167226D01*
X123604Y164845D01*
X120236Y164845D01*
G37*
%LPD*%
%LPC*%
G36*
X163416Y384555D02*
X163416Y384555D01*
X161035Y386936D01*
X161035Y387096D01*
X161020Y387214D01*
X161013Y387333D01*
X161000Y387371D01*
X160995Y387412D01*
X160952Y387522D01*
X160915Y387635D01*
X160893Y387670D01*
X160878Y387707D01*
X160809Y387803D01*
X160745Y387904D01*
X160715Y387932D01*
X160692Y387965D01*
X160600Y388041D01*
X160513Y388122D01*
X160478Y388142D01*
X160447Y388167D01*
X160339Y388218D01*
X160235Y388276D01*
X160195Y388286D01*
X160159Y388303D01*
X160042Y388325D01*
X159927Y388355D01*
X159867Y388359D01*
X159847Y388363D01*
X159826Y388361D01*
X159766Y388365D01*
X157066Y388365D01*
X154685Y390746D01*
X154685Y394114D01*
X157066Y396495D01*
X160434Y396495D01*
X162815Y394114D01*
X162815Y393954D01*
X162830Y393836D01*
X162837Y393717D01*
X162850Y393679D01*
X162855Y393638D01*
X162898Y393528D01*
X162935Y393415D01*
X162957Y393380D01*
X162972Y393343D01*
X163041Y393247D01*
X163105Y393146D01*
X163135Y393118D01*
X163158Y393085D01*
X163250Y393009D01*
X163337Y392928D01*
X163372Y392908D01*
X163403Y392883D01*
X163511Y392832D01*
X163615Y392774D01*
X163655Y392764D01*
X163691Y392747D01*
X163808Y392725D01*
X163923Y392695D01*
X163983Y392691D01*
X164003Y392687D01*
X164024Y392689D01*
X164084Y392685D01*
X166784Y392685D01*
X169165Y390304D01*
X169165Y386936D01*
X166784Y384555D01*
X163416Y384555D01*
G37*
%LPD*%
%LPC*%
G36*
X97100Y46561D02*
X97100Y46561D01*
X95251Y47327D01*
X93837Y48741D01*
X93071Y50590D01*
X93071Y52590D01*
X93837Y54439D01*
X95251Y55853D01*
X97100Y56619D01*
X99100Y56619D01*
X100949Y55853D01*
X102363Y54439D01*
X103129Y52590D01*
X103129Y50590D01*
X102363Y48741D01*
X100949Y47327D01*
X99100Y46561D01*
X97100Y46561D01*
G37*
%LPD*%
%LPC*%
G36*
X154900Y46561D02*
X154900Y46561D01*
X153051Y47327D01*
X151637Y48741D01*
X150871Y50590D01*
X150871Y52590D01*
X151637Y54439D01*
X153051Y55853D01*
X154900Y56619D01*
X156900Y56619D01*
X158749Y55853D01*
X160163Y54439D01*
X160929Y52590D01*
X160929Y50590D01*
X160163Y48741D01*
X158749Y47327D01*
X156900Y46561D01*
X154900Y46561D01*
G37*
%LPD*%
%LPC*%
G36*
X300300Y46561D02*
X300300Y46561D01*
X298451Y47327D01*
X297037Y48741D01*
X296271Y50590D01*
X296271Y52590D01*
X297037Y54439D01*
X298451Y55853D01*
X300300Y56619D01*
X302300Y56619D01*
X304149Y55853D01*
X305563Y54439D01*
X306329Y52590D01*
X306329Y50590D01*
X305563Y48741D01*
X304149Y47327D01*
X302300Y46561D01*
X300300Y46561D01*
G37*
%LPD*%
%LPC*%
G36*
X358100Y46561D02*
X358100Y46561D01*
X356251Y47327D01*
X354837Y48741D01*
X354071Y50590D01*
X354071Y52590D01*
X354837Y54439D01*
X356251Y55853D01*
X358100Y56619D01*
X360100Y56619D01*
X361949Y55853D01*
X363363Y54439D01*
X364129Y52590D01*
X364129Y50590D01*
X363363Y48741D01*
X361949Y47327D01*
X360100Y46561D01*
X358100Y46561D01*
G37*
%LPD*%
%LPC*%
G36*
X371499Y10549D02*
X371499Y10549D01*
X368839Y13209D01*
X368839Y16971D01*
X371499Y19631D01*
X375261Y19631D01*
X377921Y16971D01*
X377921Y13209D01*
X375261Y10549D01*
X371499Y10549D01*
G37*
%LPD*%
%LPC*%
G36*
X285139Y10549D02*
X285139Y10549D01*
X282479Y13209D01*
X282479Y16971D01*
X285139Y19631D01*
X288901Y19631D01*
X291561Y16971D01*
X291561Y13209D01*
X288901Y10549D01*
X285139Y10549D01*
G37*
%LPD*%
%LPC*%
G36*
X168299Y10549D02*
X168299Y10549D01*
X165639Y13209D01*
X165639Y16971D01*
X168299Y19631D01*
X172061Y19631D01*
X174721Y16971D01*
X174721Y13209D01*
X172061Y10549D01*
X168299Y10549D01*
G37*
%LPD*%
%LPC*%
G36*
X81939Y10549D02*
X81939Y10549D01*
X79279Y13209D01*
X79279Y16971D01*
X81939Y19631D01*
X85701Y19631D01*
X88361Y16971D01*
X88361Y13209D01*
X85701Y10549D01*
X81939Y10549D01*
G37*
%LPD*%
%LPC*%
G36*
X168299Y52349D02*
X168299Y52349D01*
X165639Y55009D01*
X165639Y58771D01*
X168299Y61431D01*
X172061Y61431D01*
X174721Y58771D01*
X174721Y55009D01*
X172061Y52349D01*
X168299Y52349D01*
G37*
%LPD*%
%LPC*%
G36*
X371499Y52349D02*
X371499Y52349D01*
X368839Y55009D01*
X368839Y58771D01*
X371499Y61431D01*
X375261Y61431D01*
X377921Y58771D01*
X377921Y55009D01*
X375261Y52349D01*
X371499Y52349D01*
G37*
%LPD*%
%LPC*%
G36*
X285139Y52349D02*
X285139Y52349D01*
X282479Y55009D01*
X282479Y58771D01*
X285139Y61431D01*
X288901Y61431D01*
X291561Y58771D01*
X291561Y55009D01*
X288901Y52349D01*
X285139Y52349D01*
G37*
%LPD*%
%LPC*%
G36*
X81939Y52349D02*
X81939Y52349D01*
X79279Y55009D01*
X79279Y58771D01*
X81939Y61431D01*
X85701Y61431D01*
X88361Y58771D01*
X88361Y55009D01*
X85701Y52349D01*
X81939Y52349D01*
G37*
%LPD*%
%LPC*%
G36*
X128045Y76961D02*
X128045Y76961D01*
X125515Y79491D01*
X125515Y83069D01*
X128045Y85599D01*
X131623Y85599D01*
X134153Y83069D01*
X134153Y79491D01*
X131623Y76961D01*
X128045Y76961D01*
G37*
%LPD*%
%LPC*%
G36*
X116321Y76961D02*
X116321Y76961D01*
X113791Y79491D01*
X113791Y83069D01*
X116321Y85599D01*
X119899Y85599D01*
X122429Y83069D01*
X122429Y79491D01*
X119899Y76961D01*
X116321Y76961D01*
G37*
%LPD*%
%LPC*%
G36*
X388113Y179859D02*
X388113Y179859D01*
X385599Y182373D01*
X385599Y185927D01*
X388113Y188441D01*
X391667Y188441D01*
X394181Y185927D01*
X394181Y182373D01*
X391667Y179859D01*
X388113Y179859D01*
G37*
%LPD*%
%LPC*%
G36*
X257303Y240819D02*
X257303Y240819D01*
X254789Y243333D01*
X254789Y246887D01*
X257303Y249401D01*
X260857Y249401D01*
X263371Y246887D01*
X263371Y243333D01*
X260857Y240819D01*
X257303Y240819D01*
G37*
%LPD*%
%LPC*%
G36*
X132843Y245899D02*
X132843Y245899D01*
X130329Y248413D01*
X130329Y251967D01*
X132843Y254481D01*
X136397Y254481D01*
X138911Y251967D01*
X138911Y248413D01*
X136397Y245899D01*
X132843Y245899D01*
G37*
%LPD*%
%LPC*%
G36*
X10923Y465609D02*
X10923Y465609D01*
X8409Y468123D01*
X8409Y471677D01*
X10923Y474191D01*
X14477Y474191D01*
X16991Y471677D01*
X16991Y468123D01*
X14477Y465609D01*
X10923Y465609D01*
G37*
%LPD*%
%LPC*%
G36*
X442723Y452909D02*
X442723Y452909D01*
X440209Y455423D01*
X440209Y458977D01*
X442723Y461491D01*
X446277Y461491D01*
X448791Y458977D01*
X448791Y455423D01*
X446277Y452909D01*
X442723Y452909D01*
G37*
%LPD*%
%LPC*%
G36*
X23623Y452909D02*
X23623Y452909D01*
X21109Y455423D01*
X21109Y458977D01*
X23623Y461491D01*
X27177Y461491D01*
X29691Y458977D01*
X29691Y455423D01*
X27177Y452909D01*
X23623Y452909D01*
G37*
%LPD*%
%LPC*%
G36*
X257303Y254789D02*
X257303Y254789D01*
X254789Y257303D01*
X254789Y260857D01*
X257303Y263371D01*
X260857Y263371D01*
X263371Y260857D01*
X263371Y257303D01*
X260857Y254789D01*
X257303Y254789D01*
G37*
%LPD*%
%LPC*%
G36*
X416053Y419889D02*
X416053Y419889D01*
X413539Y422403D01*
X413539Y425957D01*
X416053Y428471D01*
X419607Y428471D01*
X422121Y425957D01*
X422121Y422403D01*
X419607Y419889D01*
X416053Y419889D01*
G37*
%LPD*%
%LPC*%
G36*
X417323Y82069D02*
X417323Y82069D01*
X414809Y84583D01*
X414809Y88137D01*
X417323Y90651D01*
X420877Y90651D01*
X423391Y88137D01*
X423391Y84583D01*
X420877Y82069D01*
X417323Y82069D01*
G37*
%LPD*%
%LPC*%
G36*
X10923Y325909D02*
X10923Y325909D01*
X8409Y328423D01*
X8409Y331977D01*
X10923Y334491D01*
X14477Y334491D01*
X16991Y331977D01*
X16991Y328423D01*
X14477Y325909D01*
X10923Y325909D01*
G37*
%LPD*%
%LPC*%
G36*
X363983Y408459D02*
X363983Y408459D01*
X361469Y410973D01*
X361469Y414527D01*
X363983Y417041D01*
X367537Y417041D01*
X370051Y414527D01*
X370051Y410973D01*
X367537Y408459D01*
X363983Y408459D01*
G37*
%LPD*%
%LPC*%
G36*
X290323Y117629D02*
X290323Y117629D01*
X287809Y120143D01*
X287809Y123697D01*
X290323Y126211D01*
X293877Y126211D01*
X296391Y123697D01*
X296391Y120143D01*
X293877Y117629D01*
X290323Y117629D01*
G37*
%LPD*%
%LPC*%
G36*
X442723Y136679D02*
X442723Y136679D01*
X440209Y139193D01*
X440209Y142747D01*
X442723Y145261D01*
X446277Y145261D01*
X448791Y142747D01*
X448791Y139193D01*
X446277Y136679D01*
X442723Y136679D01*
G37*
%LPD*%
%LPC*%
G36*
X10923Y262409D02*
X10923Y262409D01*
X8409Y264923D01*
X8409Y268477D01*
X10923Y270991D01*
X14477Y270991D01*
X16991Y268477D01*
X16991Y264923D01*
X14477Y262409D01*
X10923Y262409D01*
G37*
%LPD*%
%LPC*%
G36*
X442723Y389409D02*
X442723Y389409D01*
X440209Y391923D01*
X440209Y395477D01*
X442723Y397991D01*
X446277Y397991D01*
X448791Y395477D01*
X448791Y391923D01*
X446277Y389409D01*
X442723Y389409D01*
G37*
%LPD*%
%LPC*%
G36*
X10923Y389409D02*
X10923Y389409D01*
X8409Y391923D01*
X8409Y395477D01*
X10923Y397991D01*
X14477Y397991D01*
X16991Y395477D01*
X16991Y391923D01*
X14477Y389409D01*
X10923Y389409D01*
G37*
%LPD*%
%LPC*%
G36*
X328423Y160809D02*
X328423Y160809D01*
X325909Y163323D01*
X325909Y166877D01*
X328423Y169391D01*
X331977Y169391D01*
X334491Y166877D01*
X334491Y163323D01*
X331977Y160809D01*
X328423Y160809D01*
G37*
%LPD*%
%LPC*%
G36*
X163323Y117629D02*
X163323Y117629D01*
X160809Y120143D01*
X160809Y123697D01*
X163323Y126211D01*
X166877Y126211D01*
X169391Y123697D01*
X169391Y120143D01*
X166877Y117629D01*
X163323Y117629D01*
G37*
%LPD*%
%LPC*%
G36*
X64263Y135409D02*
X64263Y135409D01*
X61749Y137923D01*
X61749Y141477D01*
X64263Y143991D01*
X67817Y143991D01*
X70331Y141477D01*
X70331Y137923D01*
X67817Y135409D01*
X64263Y135409D01*
G37*
%LPD*%
%LPC*%
G36*
X261113Y181129D02*
X261113Y181129D01*
X258599Y183643D01*
X258599Y187197D01*
X261113Y189711D01*
X264667Y189711D01*
X267181Y187197D01*
X267181Y183643D01*
X264667Y181129D01*
X261113Y181129D01*
G37*
%LPD*%
%LPC*%
G36*
X372873Y179859D02*
X372873Y179859D01*
X370359Y182373D01*
X370359Y185927D01*
X372873Y188441D01*
X376427Y188441D01*
X378941Y185927D01*
X378941Y182373D01*
X376427Y179859D01*
X372873Y179859D01*
G37*
%LPD*%
%LPC*%
G36*
X318263Y129059D02*
X318263Y129059D01*
X315749Y131573D01*
X315749Y135127D01*
X318263Y137641D01*
X321817Y137641D01*
X324331Y135127D01*
X324331Y131573D01*
X321817Y129059D01*
X318263Y129059D01*
G37*
%LPD*%
%LPC*%
G36*
X391923Y82069D02*
X391923Y82069D01*
X389409Y84583D01*
X389409Y88137D01*
X391923Y90651D01*
X395477Y90651D01*
X397991Y88137D01*
X397991Y84583D01*
X395477Y82069D01*
X391923Y82069D01*
G37*
%LPD*%
%LPC*%
G36*
X236983Y52859D02*
X236983Y52859D01*
X234469Y55373D01*
X234469Y58927D01*
X236983Y61441D01*
X240537Y61441D01*
X243051Y58927D01*
X243051Y55373D01*
X240537Y52859D01*
X236983Y52859D01*
G37*
%LPD*%
%LPC*%
G36*
X344933Y230659D02*
X344933Y230659D01*
X342419Y233173D01*
X342419Y236727D01*
X344933Y239241D01*
X348487Y239241D01*
X351001Y236727D01*
X351001Y233173D01*
X348487Y230659D01*
X344933Y230659D01*
G37*
%LPD*%
%LPC*%
G36*
X442723Y198909D02*
X442723Y198909D01*
X440209Y201423D01*
X440209Y204977D01*
X442723Y207491D01*
X446277Y207491D01*
X448791Y204977D01*
X448791Y201423D01*
X446277Y198909D01*
X442723Y198909D01*
G37*
%LPD*%
%LPC*%
G36*
X442723Y262409D02*
X442723Y262409D01*
X440209Y264923D01*
X440209Y268477D01*
X442723Y270991D01*
X446277Y270991D01*
X448791Y268477D01*
X448791Y264923D01*
X446277Y262409D01*
X442723Y262409D01*
G37*
%LPD*%
%LPC*%
G36*
X10923Y198909D02*
X10923Y198909D01*
X8409Y201423D01*
X8409Y204977D01*
X10923Y207491D01*
X14477Y207491D01*
X16991Y204977D01*
X16991Y201423D01*
X14477Y198909D01*
X10923Y198909D01*
G37*
%LPD*%
%LPC*%
G36*
X174753Y267489D02*
X174753Y267489D01*
X172239Y270003D01*
X172239Y273557D01*
X174753Y276071D01*
X178307Y276071D01*
X180821Y273557D01*
X180821Y270003D01*
X178307Y267489D01*
X174753Y267489D01*
G37*
%LPD*%
%LPC*%
G36*
X442723Y325909D02*
X442723Y325909D01*
X440209Y328423D01*
X440209Y331977D01*
X442723Y334491D01*
X446277Y334491D01*
X448791Y331977D01*
X448791Y328423D01*
X446277Y325909D01*
X442723Y325909D01*
G37*
%LPD*%
%LPC*%
G36*
X17366Y348995D02*
X17366Y348995D01*
X14985Y351376D01*
X14985Y354744D01*
X17366Y357125D01*
X20734Y357125D01*
X23115Y354744D01*
X23115Y351376D01*
X20734Y348995D01*
X17366Y348995D01*
G37*
%LPD*%
%LPC*%
G36*
X360266Y237235D02*
X360266Y237235D01*
X357885Y239616D01*
X357885Y242984D01*
X360266Y245365D01*
X363634Y245365D01*
X366015Y242984D01*
X366015Y239616D01*
X363634Y237235D01*
X360266Y237235D01*
G37*
%LPD*%
%LPC*%
G36*
X77056Y169925D02*
X77056Y169925D01*
X74675Y172306D01*
X74675Y175674D01*
X77056Y178055D01*
X80424Y178055D01*
X82805Y175674D01*
X82805Y172306D01*
X80424Y169925D01*
X77056Y169925D01*
G37*
%LPD*%
%LPC*%
G36*
X176116Y163575D02*
X176116Y163575D01*
X173735Y165956D01*
X173735Y169324D01*
X176116Y171705D01*
X179484Y171705D01*
X181865Y169324D01*
X181865Y165956D01*
X179484Y163575D01*
X176116Y163575D01*
G37*
%LPD*%
%LPC*%
G36*
X169766Y153415D02*
X169766Y153415D01*
X167385Y155796D01*
X167385Y159164D01*
X169766Y161545D01*
X173134Y161545D01*
X175515Y159164D01*
X175515Y155796D01*
X173134Y153415D01*
X169766Y153415D01*
G37*
%LPD*%
%LPC*%
G36*
X336136Y257555D02*
X336136Y257555D01*
X333755Y259936D01*
X333755Y263304D01*
X336136Y265685D01*
X339504Y265685D01*
X341885Y263304D01*
X341885Y259936D01*
X339504Y257555D01*
X336136Y257555D01*
G37*
%LPD*%
%LPC*%
G36*
X214216Y416305D02*
X214216Y416305D01*
X211835Y418686D01*
X211835Y422054D01*
X214216Y424435D01*
X217584Y424435D01*
X219965Y422054D01*
X219965Y418686D01*
X217584Y416305D01*
X214216Y416305D01*
G37*
%LPD*%
%LPC*%
G36*
X139286Y267715D02*
X139286Y267715D01*
X136905Y270096D01*
X136905Y273464D01*
X139286Y275845D01*
X142654Y275845D01*
X145035Y273464D01*
X145035Y270096D01*
X142654Y267715D01*
X139286Y267715D01*
G37*
%LPD*%
%LPC*%
G36*
X9111Y118490D02*
X9111Y118490D01*
X6730Y120871D01*
X6730Y124239D01*
X9111Y126620D01*
X12479Y126620D01*
X14860Y124239D01*
X14860Y120871D01*
X12479Y118490D01*
X9111Y118490D01*
G37*
%LPD*%
%LPC*%
G36*
X366616Y116585D02*
X366616Y116585D01*
X364235Y118966D01*
X364235Y122334D01*
X366616Y124715D01*
X369984Y124715D01*
X372365Y122334D01*
X372365Y118966D01*
X369984Y116585D01*
X366616Y116585D01*
G37*
%LPD*%
%LPC*%
G36*
X301846Y210565D02*
X301846Y210565D01*
X299465Y212946D01*
X299465Y216314D01*
X301846Y218695D01*
X305214Y218695D01*
X307595Y216314D01*
X307595Y212946D01*
X305214Y210565D01*
X301846Y210565D01*
G37*
%LPD*%
%LPC*%
G36*
X45306Y107695D02*
X45306Y107695D01*
X42925Y110076D01*
X42925Y113444D01*
X45306Y115825D01*
X48674Y115825D01*
X51055Y113444D01*
X51055Y110076D01*
X48674Y107695D01*
X45306Y107695D01*
G37*
%LPD*%
%LPC*%
G36*
X190016Y97535D02*
X190016Y97535D01*
X187635Y99916D01*
X187635Y103284D01*
X190016Y105665D01*
X193384Y105665D01*
X195765Y103284D01*
X195765Y99916D01*
X193384Y97535D01*
X190016Y97535D01*
G37*
%LPD*%
%LPC*%
G36*
X100170Y97535D02*
X100170Y97535D01*
X97789Y99916D01*
X97789Y103284D01*
X100170Y105665D01*
X103538Y105665D01*
X105919Y103284D01*
X105919Y99916D01*
X103538Y97535D01*
X100170Y97535D01*
G37*
%LPD*%
%LPC*%
G36*
X353662Y97535D02*
X353662Y97535D01*
X351281Y99916D01*
X351281Y103284D01*
X353662Y105665D01*
X357030Y105665D01*
X359411Y103284D01*
X359411Y99916D01*
X357030Y97535D01*
X353662Y97535D01*
G37*
%LPD*%
%LPC*%
G36*
X263816Y97535D02*
X263816Y97535D01*
X261435Y99916D01*
X261435Y103284D01*
X263816Y105665D01*
X267184Y105665D01*
X269565Y103284D01*
X269565Y99916D01*
X267184Y97535D01*
X263816Y97535D01*
G37*
%LPD*%
%LPC*%
G36*
X8476Y86105D02*
X8476Y86105D01*
X6095Y88486D01*
X6095Y91854D01*
X8476Y94235D01*
X11844Y94235D01*
X14225Y91854D01*
X14225Y88486D01*
X11844Y86105D01*
X8476Y86105D01*
G37*
%LPD*%
%LPC*%
G36*
X226916Y529335D02*
X226916Y529335D01*
X224535Y531716D01*
X224535Y535084D01*
X226916Y537465D01*
X230284Y537465D01*
X232665Y535084D01*
X232665Y531716D01*
X230284Y529335D01*
X226916Y529335D01*
G37*
%LPD*%
%LPC*%
G36*
X150716Y529335D02*
X150716Y529335D01*
X148335Y531716D01*
X148335Y535084D01*
X150716Y537465D01*
X154084Y537465D01*
X156465Y535084D01*
X156465Y531716D01*
X154084Y529335D01*
X150716Y529335D01*
G37*
%LPD*%
%LPC*%
G36*
X303116Y529335D02*
X303116Y529335D01*
X300735Y531716D01*
X300735Y535084D01*
X303116Y537465D01*
X306484Y537465D01*
X308865Y535084D01*
X308865Y531716D01*
X306484Y529335D01*
X303116Y529335D01*
G37*
%LPD*%
%LPC*%
G36*
X102456Y267715D02*
X102456Y267715D01*
X100075Y270096D01*
X100075Y273464D01*
X102456Y275845D01*
X105824Y275845D01*
X108205Y273464D01*
X108205Y270096D01*
X105824Y267715D01*
X102456Y267715D01*
G37*
%LPD*%
%LPC*%
G36*
X45306Y77215D02*
X45306Y77215D01*
X42925Y79596D01*
X42925Y82964D01*
X45306Y85345D01*
X48674Y85345D01*
X51055Y82964D01*
X51055Y79596D01*
X48674Y77215D01*
X45306Y77215D01*
G37*
%LPD*%
%LPC*%
G36*
X303116Y453135D02*
X303116Y453135D01*
X300735Y455516D01*
X300735Y458884D01*
X303116Y461265D01*
X306484Y461265D01*
X308865Y458884D01*
X308865Y455516D01*
X306484Y453135D01*
X303116Y453135D01*
G37*
%LPD*%
%LPC*%
G36*
X252316Y418845D02*
X252316Y418845D01*
X249935Y421226D01*
X249935Y424594D01*
X252316Y426975D01*
X255684Y426975D01*
X258065Y424594D01*
X258065Y421226D01*
X255684Y418845D01*
X252316Y418845D01*
G37*
%LPD*%
%LPC*%
G36*
X182466Y407415D02*
X182466Y407415D01*
X180085Y409796D01*
X180085Y413164D01*
X182466Y415545D01*
X185834Y415545D01*
X188215Y413164D01*
X188215Y409796D01*
X185834Y407415D01*
X182466Y407415D01*
G37*
%LPD*%
%LPC*%
G36*
X165956Y407415D02*
X165956Y407415D01*
X163575Y409796D01*
X163575Y413164D01*
X165956Y415545D01*
X169324Y415545D01*
X171705Y413164D01*
X171705Y409796D01*
X169324Y407415D01*
X165956Y407415D01*
G37*
%LPD*%
%LPC*%
G36*
X150716Y407415D02*
X150716Y407415D01*
X148335Y409796D01*
X148335Y413164D01*
X150716Y415545D01*
X154084Y415545D01*
X156465Y413164D01*
X156465Y409796D01*
X154084Y407415D01*
X150716Y407415D01*
G37*
%LPD*%
%LPC*%
G36*
X56736Y389635D02*
X56736Y389635D01*
X54355Y392016D01*
X54355Y395384D01*
X56736Y397765D01*
X60104Y397765D01*
X62485Y395384D01*
X62485Y392016D01*
X60104Y389635D01*
X56736Y389635D01*
G37*
%LPD*%
%LPC*%
G36*
X188816Y307085D02*
X188816Y307085D01*
X186435Y309466D01*
X186435Y312834D01*
X188816Y315215D01*
X192184Y315215D01*
X194565Y312834D01*
X194565Y309466D01*
X192184Y307085D01*
X188816Y307085D01*
G37*
%LPD*%
%LPC*%
G36*
X176116Y351535D02*
X176116Y351535D01*
X173735Y353916D01*
X173735Y357284D01*
X176116Y359665D01*
X179484Y359665D01*
X181865Y357284D01*
X181865Y353916D01*
X179484Y351535D01*
X176116Y351535D01*
G37*
%LPD*%
%LPC*%
G36*
X132936Y162305D02*
X132936Y162305D01*
X130555Y164686D01*
X130555Y168054D01*
X132936Y170435D01*
X136304Y170435D01*
X138685Y168054D01*
X138685Y164686D01*
X136304Y162305D01*
X132936Y162305D01*
G37*
%LPD*%
%LPC*%
G36*
X277716Y34035D02*
X277716Y34035D01*
X275335Y36416D01*
X275335Y39784D01*
X277716Y42165D01*
X281084Y42165D01*
X283465Y39784D01*
X283465Y36416D01*
X281084Y34035D01*
X277716Y34035D01*
G37*
%LPD*%
%LPC*%
G36*
X226916Y34035D02*
X226916Y34035D01*
X224535Y36416D01*
X224535Y39784D01*
X226916Y42165D01*
X230284Y42165D01*
X232665Y39784D01*
X232665Y36416D01*
X230284Y34035D01*
X226916Y34035D01*
G37*
%LPD*%
%LPC*%
G36*
X176116Y34035D02*
X176116Y34035D01*
X173735Y36416D01*
X173735Y39784D01*
X176116Y42165D01*
X179484Y42165D01*
X181865Y39784D01*
X181865Y36416D01*
X179484Y34035D01*
X176116Y34035D01*
G37*
%LPD*%
%LPC*%
G36*
X384396Y30225D02*
X384396Y30225D01*
X382015Y32606D01*
X382015Y35974D01*
X384396Y38355D01*
X387764Y38355D01*
X390145Y35974D01*
X390145Y32606D01*
X387764Y30225D01*
X384396Y30225D01*
G37*
%LPD*%
%LPC*%
G36*
X69436Y28955D02*
X69436Y28955D01*
X67055Y31336D01*
X67055Y34704D01*
X69436Y37085D01*
X72804Y37085D01*
X75185Y34704D01*
X75185Y31336D01*
X72804Y28955D01*
X69436Y28955D01*
G37*
%LPD*%
%LPC*%
G36*
X192626Y237235D02*
X192626Y237235D01*
X190245Y239616D01*
X190245Y242984D01*
X192626Y245365D01*
X195994Y245365D01*
X198375Y242984D01*
X198375Y239616D01*
X195994Y237235D01*
X192626Y237235D01*
G37*
%LPD*%
%LPC*%
G36*
X91026Y190499D02*
X91026Y190499D01*
X88645Y192880D01*
X88645Y196248D01*
X91026Y198629D01*
X94394Y198629D01*
X96775Y196248D01*
X96775Y192880D01*
X94394Y190499D01*
X91026Y190499D01*
G37*
%LPD*%
%LPC*%
G36*
X66896Y186435D02*
X66896Y186435D01*
X64515Y188816D01*
X64515Y192184D01*
X66896Y194565D01*
X70264Y194565D01*
X72645Y192184D01*
X72645Y188816D01*
X70264Y186435D01*
X66896Y186435D01*
G37*
%LPD*%
%LPC*%
G36*
X87216Y116585D02*
X87216Y116585D01*
X84835Y118966D01*
X84835Y122334D01*
X87216Y124715D01*
X90584Y124715D01*
X92965Y122334D01*
X92965Y118966D01*
X90584Y116585D01*
X87216Y116585D01*
G37*
%LPD*%
%LPC*%
G36*
X78739Y269239D02*
X78739Y269239D01*
X78739Y276559D01*
X80100Y276116D01*
X81525Y275390D01*
X82819Y274450D01*
X83950Y273319D01*
X84890Y272025D01*
X85616Y270600D01*
X86059Y269239D01*
X78739Y269239D01*
G37*
%LPD*%
%LPC*%
G36*
X78739Y264161D02*
X78739Y264161D01*
X86059Y264161D01*
X85616Y262800D01*
X84890Y261375D01*
X83950Y260081D01*
X82819Y258950D01*
X81525Y258010D01*
X80100Y257284D01*
X78739Y256841D01*
X78739Y264161D01*
G37*
%LPD*%
%LPC*%
G36*
X66341Y269239D02*
X66341Y269239D01*
X66784Y270600D01*
X67510Y272025D01*
X68450Y273319D01*
X69581Y274450D01*
X70875Y275390D01*
X72300Y276116D01*
X73661Y276559D01*
X73661Y269239D01*
X66341Y269239D01*
G37*
%LPD*%
%LPC*%
G36*
X72300Y257284D02*
X72300Y257284D01*
X70875Y258010D01*
X69581Y258950D01*
X68450Y260081D01*
X67510Y261375D01*
X66784Y262800D01*
X66341Y264161D01*
X73661Y264161D01*
X73661Y256841D01*
X72300Y257284D01*
G37*
%LPD*%
%LPC*%
G36*
X76199Y266699D02*
X76199Y266699D01*
X76199Y266701D01*
X76201Y266701D01*
X76201Y266699D01*
X76199Y266699D01*
G37*
%LPD*%
D10*
X382397Y522097D02*
X386560Y522097D01*
X386688Y522099D01*
X386816Y522105D01*
X386944Y522115D01*
X387072Y522129D01*
X387199Y522146D01*
X387325Y522168D01*
X387451Y522193D01*
X387575Y522223D01*
X387699Y522256D01*
X387822Y522293D01*
X387944Y522334D01*
X388064Y522378D01*
X388183Y522426D01*
X388300Y522478D01*
X388416Y522533D01*
X388529Y522592D01*
X388642Y522655D01*
X388752Y522721D01*
X388859Y522790D01*
X388965Y522862D01*
X389069Y522938D01*
X389170Y523017D01*
X389269Y523099D01*
X389365Y523184D01*
X389458Y523271D01*
X389549Y523362D01*
X389636Y523455D01*
X389721Y523551D01*
X389803Y523650D01*
X389882Y523751D01*
X389958Y523855D01*
X390030Y523961D01*
X390099Y524068D01*
X390165Y524179D01*
X390228Y524291D01*
X390287Y524404D01*
X390342Y524520D01*
X390394Y524637D01*
X390442Y524756D01*
X390486Y524876D01*
X390527Y524998D01*
X390564Y525121D01*
X390597Y525245D01*
X390627Y525369D01*
X390652Y525495D01*
X390674Y525621D01*
X390691Y525748D01*
X390705Y525876D01*
X390715Y526004D01*
X390721Y526132D01*
X390723Y526260D01*
X390721Y526388D01*
X390715Y526516D01*
X390705Y526644D01*
X390691Y526772D01*
X390674Y526899D01*
X390652Y527025D01*
X390627Y527151D01*
X390597Y527275D01*
X390564Y527399D01*
X390527Y527522D01*
X390486Y527644D01*
X390442Y527764D01*
X390394Y527883D01*
X390342Y528000D01*
X390287Y528116D01*
X390228Y528229D01*
X390165Y528342D01*
X390099Y528452D01*
X390030Y528559D01*
X389958Y528665D01*
X389882Y528769D01*
X389803Y528870D01*
X389721Y528969D01*
X389636Y529065D01*
X389549Y529158D01*
X389458Y529249D01*
X389365Y529336D01*
X389269Y529421D01*
X389170Y529503D01*
X389069Y529582D01*
X388965Y529658D01*
X388859Y529730D01*
X388752Y529799D01*
X388642Y529865D01*
X388529Y529928D01*
X388416Y529987D01*
X388300Y530042D01*
X388183Y530094D01*
X388064Y530142D01*
X387944Y530186D01*
X387822Y530227D01*
X387699Y530264D01*
X387575Y530297D01*
X387451Y530327D01*
X387325Y530352D01*
X387199Y530374D01*
X387072Y530391D01*
X386944Y530405D01*
X386816Y530415D01*
X386688Y530421D01*
X386560Y530423D01*
X387392Y537083D02*
X382397Y537083D01*
X387392Y537083D02*
X387506Y537081D01*
X387619Y537075D01*
X387733Y537066D01*
X387845Y537052D01*
X387958Y537035D01*
X388070Y537013D01*
X388180Y536988D01*
X388290Y536960D01*
X388399Y536927D01*
X388507Y536891D01*
X388614Y536851D01*
X388719Y536807D01*
X388822Y536760D01*
X388924Y536710D01*
X389024Y536656D01*
X389122Y536598D01*
X389218Y536537D01*
X389312Y536474D01*
X389404Y536406D01*
X389494Y536336D01*
X389580Y536263D01*
X389665Y536187D01*
X389747Y536108D01*
X389826Y536026D01*
X389902Y535941D01*
X389975Y535855D01*
X390045Y535765D01*
X390113Y535673D01*
X390176Y535579D01*
X390237Y535483D01*
X390295Y535385D01*
X390349Y535285D01*
X390399Y535183D01*
X390446Y535080D01*
X390490Y534975D01*
X390530Y534868D01*
X390566Y534760D01*
X390599Y534651D01*
X390627Y534541D01*
X390652Y534431D01*
X390674Y534319D01*
X390691Y534206D01*
X390705Y534094D01*
X390714Y533980D01*
X390720Y533867D01*
X390722Y533753D01*
X390720Y533639D01*
X390714Y533526D01*
X390705Y533412D01*
X390691Y533300D01*
X390674Y533187D01*
X390652Y533075D01*
X390627Y532965D01*
X390599Y532855D01*
X390566Y532746D01*
X390530Y532638D01*
X390490Y532531D01*
X390446Y532426D01*
X390399Y532323D01*
X390349Y532221D01*
X390295Y532121D01*
X390237Y532023D01*
X390176Y531927D01*
X390113Y531833D01*
X390045Y531741D01*
X389975Y531651D01*
X389902Y531565D01*
X389826Y531480D01*
X389747Y531398D01*
X389665Y531319D01*
X389580Y531243D01*
X389494Y531170D01*
X389404Y531100D01*
X389312Y531032D01*
X389218Y530969D01*
X389122Y530908D01*
X389024Y530850D01*
X388924Y530796D01*
X388822Y530746D01*
X388719Y530699D01*
X388614Y530655D01*
X388507Y530615D01*
X388399Y530579D01*
X388290Y530546D01*
X388180Y530518D01*
X388070Y530493D01*
X387958Y530471D01*
X387845Y530454D01*
X387733Y530440D01*
X387619Y530431D01*
X387506Y530425D01*
X387392Y530423D01*
X384062Y530423D01*
D11*
X241300Y127000D03*
X215900Y127000D03*
D12*
X287020Y15090D03*
X373380Y15090D03*
X373380Y56890D03*
X287020Y56890D03*
D11*
X381000Y444500D03*
X381000Y419100D03*
X381000Y393700D03*
X381000Y368300D03*
X381000Y342900D03*
X381000Y317500D03*
X381000Y292100D03*
X381000Y266700D03*
X381000Y241300D03*
X381000Y215900D03*
X76200Y444500D03*
X76200Y419100D03*
X76200Y393700D03*
X76200Y368300D03*
X76200Y342900D03*
X76200Y317500D03*
X76200Y292100D03*
X76200Y266700D03*
X76200Y241300D03*
X76200Y215900D03*
D12*
X83820Y15090D03*
X170180Y15090D03*
X170180Y56890D03*
X83820Y56890D03*
D13*
X121920Y168910D03*
X92710Y194564D03*
X386080Y34290D03*
X46990Y111760D03*
X71120Y33020D03*
X194310Y241300D03*
X368300Y120650D03*
X152400Y411480D03*
X304800Y533400D03*
X88900Y120650D03*
X46990Y81280D03*
D14*
X259080Y259080D03*
X259080Y245110D03*
D13*
X134620Y166370D03*
D14*
X287020Y184150D03*
X289560Y151130D03*
X340360Y81280D03*
X292100Y121920D03*
X419100Y86360D03*
X393700Y86360D03*
X165100Y121920D03*
X66040Y139700D03*
X67310Y173990D03*
X30480Y176530D03*
X194310Y199390D03*
X176530Y271780D03*
X346710Y234950D03*
D13*
X167640Y411480D03*
X184150Y411480D03*
X165100Y388620D03*
X167640Y363220D03*
D14*
X320040Y133350D03*
X321310Y234950D03*
X238760Y57150D03*
X374650Y184150D03*
X389890Y184150D03*
X262890Y185420D03*
X365760Y214630D03*
D13*
X304800Y457200D03*
X367030Y438150D03*
D14*
X444500Y457200D03*
X444500Y393700D03*
X444500Y330200D03*
X444500Y266700D03*
X444500Y203200D03*
X444500Y140970D03*
X25400Y457200D03*
D13*
X152400Y533400D03*
X228600Y533400D03*
X228600Y38100D03*
X279400Y38100D03*
X177800Y38100D03*
D14*
X12700Y393700D03*
X12700Y330200D03*
X12700Y266700D03*
X12700Y203200D03*
X12700Y153670D03*
X417830Y424180D03*
X365760Y412750D03*
X134620Y250190D03*
X330200Y165100D03*
D13*
X138430Y175260D03*
X389500Y138820D03*
X417910Y96600D03*
X22860Y237490D03*
X226060Y303530D03*
X300990Y256540D03*
X300990Y265430D03*
X300990Y246380D03*
X313690Y234950D03*
X290830Y326390D03*
X298450Y326390D03*
X290830Y334010D03*
X298450Y334010D03*
D14*
X228600Y413510D03*
X73660Y120650D03*
X194310Y436880D03*
D13*
X355346Y101600D03*
X265500Y101600D03*
X215900Y420370D03*
X254000Y422910D03*
X333034Y79248D03*
X322326Y79248D03*
X288290Y175260D03*
X187960Y194310D03*
X158750Y368300D03*
X158750Y392430D03*
X285750Y167640D03*
X177800Y167640D03*
X58420Y393700D03*
D14*
X12700Y469900D03*
D13*
X294640Y157480D03*
X171450Y157480D03*
X140970Y271780D03*
X104140Y271780D03*
X337820Y261620D03*
X177800Y355600D03*
X19050Y353060D03*
X361950Y241300D03*
X303530Y214630D03*
X358140Y214630D03*
D14*
X406400Y444500D03*
D15*
X406400Y472440D01*
X416560Y482600D01*
X419100Y482600D01*
D14*
X419100Y482600D03*
D13*
X118110Y81280D03*
X129834Y81280D03*
X115570Y174164D03*
X78740Y173990D03*
X68580Y165100D03*
X22860Y154940D03*
X101854Y101600D03*
X191700Y101600D03*
X330200Y234950D03*
D14*
X245110Y194310D03*
X245110Y203200D03*
X252730Y203200D03*
X252730Y195580D03*
D13*
X10795Y122555D03*
X10160Y90170D03*
X190500Y311150D03*
X68580Y190500D03*
X22860Y179070D03*
M02*
