M48
;GenerationSoftware,Autodesk,EAGLE,9.6.2*%
;CreationDate,2023-02-28T14:50:52Z*%
FMAT,2
ICI,OFF
METRIC,TZ,000.000
T5C0.305
T4C0.650
T3C0.850
T2C1.016
T1C3.048
%
G90
M71
T1
X2540Y194056
X2540Y135636
X43180Y127508
X43180Y69088
X2540Y127508
X2540Y69088
X43180Y60960
X43180Y2540
X2540Y60960
X2540Y2540
X48768Y194056
X48768Y135636
X89408Y194056
X89408Y135636
X43180Y194056
X43180Y135636
X89408Y60960
X89408Y2540
X48768Y60960
X48768Y2540
X89408Y127508
X89408Y69088
X48768Y127508
X48768Y69088
T2
X84328Y152146
X38100Y26670
X38100Y154686
X7620Y177546
X7620Y175006
X7620Y172466
X7620Y169926
X7620Y167386
X7620Y164846
X7620Y162306
X7620Y159766
X7620Y157226
X7620Y152146
X38100Y152146
X70358Y145796
X67818Y145796
X84328Y177546
X53848Y31750
X84328Y175006
X84328Y172466
X84328Y169926
X84328Y167386
X84328Y164846
X84328Y162306
X84328Y159766
X84328Y157226
X84328Y154686
X53848Y177546
X53848Y175006
X53848Y172466
X53848Y169926
X53848Y167386
X53848Y164846
X53848Y162306
X53848Y159766
X53848Y157226
X53848Y154686
X53848Y152146
X24130Y12700
X21590Y12700
X38100Y44450
X38100Y41910
X38100Y39370
X38100Y36830
X38100Y34290
X38100Y31750
X38100Y29210
X38100Y24130
X38100Y21590
X7620Y44450
X7620Y41910
X7620Y39370
X7620Y36830
X7620Y34290
X7620Y31750
X7620Y29210
X7620Y26670
X7620Y24130
X7620Y21590
X7620Y19050
X38100Y19050
X70358Y12700
X67818Y12700
X84328Y44450
X84328Y41910
X84328Y39370
X84328Y36830
X84328Y34290
X84328Y31750
X84328Y29210
X84328Y26670
X84328Y24130
X84328Y21590
X53848Y44450
X53848Y41910
X53848Y39370
X53848Y36830
X53848Y34290
X7620Y154686
X53848Y29210
X53848Y26670
X53848Y24130
X53848Y21590
X53848Y19050
X84328Y19050
X24130Y79248
X21590Y79248
X38100Y110998
X38100Y108458
X38100Y105918
X38100Y103378
X38100Y100838
X38100Y98298
X38100Y95758
X38100Y93218
X38100Y90678
X38100Y88138
X7620Y110998
X7620Y108458
X7620Y105918
X7620Y103378
X7620Y100838
X7620Y98298
X7620Y95758
X7620Y93218
X7620Y90678
X7620Y88138
X7620Y85598
X38100Y85598
X70358Y79248
X67818Y79248
X84328Y110998
X84328Y108458
X84328Y105918
X84328Y103378
X84328Y100838
X84328Y98298
X84328Y95758
X84328Y93218
X84328Y90678
X84328Y88138
X53848Y110998
X53848Y108458
X53848Y105918
X53848Y103378
X53848Y100838
X53848Y98298
X53848Y95758
X53848Y93218
X53848Y90678
X53848Y88138
X53848Y85598
X84328Y85598
X24130Y145796
X21590Y145796
X38100Y177546
X38100Y175006
X38100Y172466
X38100Y169926
X38100Y167386
X38100Y164846
X38100Y162306
X38100Y159766
X38100Y157226
T3
X3810Y145287
X50038Y15191
X3810Y81739
X3810Y78739
X3810Y12191
X3810Y15191
X50038Y12191
X50038Y78739
X50038Y81739
X3810Y148287
X50038Y145287
X50038Y148287
T4
X56038Y5159
X61818Y5159
X30130Y71707
X35910Y71707
X9810Y71707
X76358Y71707
X30130Y5159
X56038Y71707
X61818Y71707
X35910Y5159
X9810Y5159
X30130Y138255
X35910Y138255
X9810Y138255
X15590Y138255
X15590Y71707
X15590Y5159
X76358Y138255
X82138Y138255
X56038Y138255
X61818Y138255
X76358Y5159
X82138Y5159
X82138Y71707
T5
X73279Y23241
X69215Y25400
X69215Y27178
X69215Y23495
X74549Y23241
X52578Y38100
X52578Y40640
X76581Y21844
X73508Y17501
X77648Y19380
X78334Y16256
X79959Y17653
X81585Y22454
X60960Y20447
X59309Y12827
X79248Y12624
X73914Y11074
X77495Y8992
X82423Y7366
X74016Y7010
X55651Y7290
X83083Y14986
X63348Y15037
X74143Y15062
X73889Y13691
X76276Y12649
X57302Y26441
X49022Y35560
X57175Y30251
X88019Y9660
X68809Y30201
X76327Y25654
X76327Y26543
X76327Y24638
X75082Y32639
X75921Y32639
X76733Y32639
X52070Y20879
X47498Y20955
X89027Y18288
X68834Y44196
X76708Y13589
X79375Y23114
X59309Y20447
X79248Y9881
X72778Y9754
X87122Y18288
X88265Y14478
X76708Y1270
X81788Y1270
X74587Y13335
X75692Y13335
X65227Y19431
X78943Y18085
X64262Y16891
X80721Y16942
X50597Y31166
X60325Y27178
X56642Y27178
X80899Y22479
X63094Y22377
X63754Y33909
X48997Y32868
X83007Y22936
X80264Y23012
X86868Y43180
X86868Y40386
X57150Y13081
X58540Y13082
X56388Y1270
X61468Y1270
X57861Y15900
X47244Y14605
X53958Y14461
X58928Y9881
X65398Y9703
X70739Y19431
X70739Y20320
X46863Y9779
X47600Y5055
X65278Y31115
X48285Y16180
X53848Y16180
X46838Y8076
X60325Y16002
X62103Y17755
X12751Y81890
X9296Y86792
X40386Y80772
X38862Y69977
X19558Y90678
X36830Y78613
X15240Y107696
X8915Y78664
X25908Y92456
X25908Y91059
X13716Y81915
X41910Y75184
X39370Y75184
X16510Y78740
X19558Y86614
X17653Y93726
X34341Y90221
X16764Y107696
X18415Y107696
X23876Y72263
X39751Y84734
X36703Y110363
X44450Y99568
X44450Y93218
X44450Y86868
X44450Y80645
X22860Y70358
X27940Y70358
X1270Y93218
X36576Y107823
X13462Y91567
X29718Y89789
X31674Y91948
X34798Y93980
X2540Y110998
X6629Y76759
X1168Y78791
X1803Y81839
X7645Y81839
X44450Y75565
X1295Y97053
X29210Y110998
X24130Y110998
X3708Y83261
X41504Y79273
X43180Y110998
X17780Y70358
X17983Y73660
X19812Y107696
X21336Y107696
X16510Y104648
X16510Y98298
X31750Y104648
X31750Y99568
X31750Y95758
X13970Y98298
X13970Y103378
X24765Y93726
X24765Y90043
X27051Y89789
X22987Y91948
X22987Y93726
X22987Y90043
X28321Y89789
X6350Y104648
X6350Y107188
X30353Y88392
X27280Y84049
X31420Y85928
X32106Y82804
X33731Y84201
X35357Y89002
X14732Y86995
X13081Y79375
X33020Y79172
X27686Y77622
X31267Y75540
X36195Y73914
X27788Y73558
X9423Y73838
X36855Y81534
X17120Y81585
X27915Y81610
X27661Y80239
X30048Y79197
X11074Y92989
X2794Y102108
X10947Y96799
X41791Y76208
X22581Y96749
X30099Y92202
X30099Y93091
X30099Y91186
X28854Y99187
X29693Y99187
X30505Y99187
X5842Y87427
X1270Y87503
X42799Y84836
X22606Y110744
X30480Y80137
X33147Y89662
X13081Y86995
X33020Y76429
X26550Y76302
X40894Y84836
X42037Y81026
X30480Y67818
X35560Y67818
X28359Y79883
X29464Y79883
X18999Y85979
X32715Y84633
X18034Y83439
X34493Y83490
X4369Y97714
X14097Y93726
X10414Y93726
X34671Y89027
X16866Y88925
X17526Y100457
X2769Y99416
X36779Y89484
X34036Y89560
X40640Y109728
X40640Y106934
X10922Y79629
X12312Y79630
X10160Y67818
X15240Y67818
X11633Y82448
X1016Y81153
X7730Y81009
X12700Y76429
X19170Y76251
X24511Y85979
X24511Y86868
X635Y76327
X1372Y71603
X19050Y97663
X2057Y82728
X7620Y82728
X610Y74624
X14097Y82550
X15875Y84303
X58979Y81890
X55524Y86792
X86614Y80772
X85090Y69977
X65786Y90678
X83058Y78613
X61468Y107696
X55143Y78664
X72136Y92456
X72136Y91059
X59944Y81915
X88138Y75184
X85598Y75184
X62738Y78740
X65786Y86614
X63881Y93726
X80569Y90221
X62992Y107696
X64643Y107696
X70104Y72263
X85979Y84734
X82931Y110363
X90678Y99568
X90678Y93218
X90678Y86868
X90678Y80645
X69088Y70358
X74168Y70358
X47498Y93218
X82804Y107823
X59690Y91567
X75946Y89789
X77902Y91948
X81026Y93980
X48768Y110998
X52857Y76759
X47396Y78791
X48031Y81839
X53873Y81839
X90678Y75565
X47523Y97053
X75438Y110998
X70358Y110998
X49936Y83261
X87732Y79273
X89408Y110998
X64008Y70358
X64211Y73660
X66040Y107696
X67564Y107696
X62738Y104648
X62738Y98298
X77978Y104648
X77978Y99568
X77978Y95758
X60198Y98298
X60198Y103378
X70993Y93726
X70993Y90043
X73279Y89789
X69215Y91948
X69215Y93726
X69215Y90043
X74549Y89789
X52578Y104648
X52578Y107188
X76581Y88392
X73508Y84049
X77648Y85928
X78334Y82804
X79959Y84201
X81585Y89002
X60960Y86995
X59309Y79375
X79248Y79172
X73914Y77622
X77495Y75540
X82423Y73914
X74016Y73558
X55651Y73838
X83083Y81534
X63348Y81585
X74143Y81610
X73889Y80239
X76276Y79197
X57302Y92989
X49022Y102108
X57175Y96799
X88019Y76208
X68809Y96749
X76327Y92202
X76327Y93091
X76327Y91186
X75082Y99187
X75921Y99187
X76733Y99187
X52070Y87427
X47498Y87503
X89027Y84836
X68834Y110744
X76708Y80137
X79375Y89662
X19170Y9703
X79248Y76429
X72778Y76302
X87122Y84836
X88265Y81026
X76708Y67818
X81788Y67818
X74587Y79883
X75692Y79883
X65227Y85979
X78943Y84633
X64262Y83439
X80721Y83490
X50597Y97714
X60325Y93726
X56642Y93726
X80899Y89027
X63094Y88925
X63754Y100457
X48997Y99416
X83007Y89484
X80264Y89560
X86868Y109728
X86868Y106934
X57150Y79629
X58540Y79630
X56388Y67818
X61468Y67818
X57861Y82448
X47244Y81153
X53958Y81009
X58928Y76429
X65398Y76251
X70739Y85979
X70739Y86868
X46863Y76327
X47600Y71603
X65278Y97663
X48285Y82728
X53848Y82728
X46838Y74624
X60325Y82550
X62103Y84303
X12751Y148438
X9296Y153340
X40386Y147320
X38862Y136525
X19558Y157226
X36830Y145161
X15240Y174244
X8915Y145212
X25908Y159004
X25908Y157607
X13716Y148463
X41910Y141732
X39370Y141732
X16510Y145288
X19558Y153162
X17653Y160274
X34341Y156769
X16764Y174244
X18415Y174244
X23876Y138811
X39751Y151282
X36703Y176911
X44450Y166116
X44450Y159766
X44450Y153416
X44450Y147193
X22860Y136906
X27940Y136906
X1270Y159766
X36576Y174371
X13462Y158115
X29718Y156337
X31674Y158496
X34798Y160528
X2540Y177546
X6629Y143307
X1168Y145339
X1803Y148387
X7645Y148387
X44450Y142113
X1295Y163601
X29210Y177546
X24130Y177546
X3708Y149809
X41504Y145821
X43180Y177546
X17780Y136906
X17983Y140208
X19812Y174244
X21336Y174244
X16510Y171196
X16510Y164846
X31750Y171196
X31750Y166116
X31750Y162306
X13970Y164846
X13970Y169926
X24765Y160274
X24765Y156591
X27051Y156337
X22987Y158496
X22987Y160274
X22987Y156591
X28321Y156337
X6350Y171196
X6350Y173736
X30353Y154940
X27280Y150597
X31420Y152476
X32106Y149352
X33731Y150749
X35357Y155550
X14732Y153543
X13081Y145923
X33020Y145720
X27686Y144170
X31267Y142088
X36195Y140462
X27788Y140106
X9423Y140386
X36855Y148082
X17120Y148133
X27915Y148158
X27661Y146787
X30048Y145745
X11074Y159537
X2794Y168656
X10947Y163347
X41791Y142756
X22581Y163297
X30099Y158750
X30099Y159639
X30099Y157734
X28854Y165735
X29693Y165735
X30505Y165735
X5842Y153975
X1270Y154051
X42799Y151384
X22606Y177292
X30480Y146685
X33147Y156210
X13081Y153543
X33020Y142977
X26550Y142850
X40894Y151384
X42037Y147574
X30480Y134366
X35560Y134366
X28359Y146431
X29464Y146431
X18999Y152527
X32715Y151181
X18034Y149987
X34493Y150038
X4369Y164262
X14097Y160274
X10414Y160274
X34671Y155575
X16866Y155473
X17526Y167005
X2769Y165964
X36779Y156032
X34036Y156108
X40640Y176276
X40640Y173482
X10922Y146177
X12312Y146178
X10160Y134366
X15240Y134366
X11633Y148996
X1016Y147701
X7730Y147557
X12700Y142977
X19170Y142799
X24511Y152527
X24511Y153416
X635Y142875
X1372Y138151
X19050Y164211
X2057Y149276
X7620Y149276
X610Y141172
X14097Y149098
X15875Y150851
X58979Y148438
X55524Y153340
X86614Y147320
X85090Y136525
X65786Y157226
X83058Y145161
X61468Y174244
X55143Y145212
X72136Y159004
X72136Y157607
X59944Y148463
X88138Y141732
X85598Y141732
X62738Y145288
X65786Y153162
X63881Y160274
X80569Y156769
X62992Y174244
X64643Y174244
X70104Y138811
X85979Y151282
X82931Y176911
X90678Y166116
X90678Y159766
X90678Y153416
X90678Y147193
X69088Y136906
X74168Y136906
X47498Y159766
X82804Y174371
X59690Y158115
X75946Y156337
X77902Y158496
X81026Y160528
X48768Y177546
X52857Y143307
X47396Y145339
X48031Y148387
X53873Y148387
X90678Y142113
X47523Y163601
X75438Y177546
X70358Y177546
X49936Y149809
X87732Y145821
X89408Y177546
X64008Y136906
X64211Y140208
X66040Y174244
X67564Y174244
X62738Y171196
X62738Y164846
X77978Y171196
X77978Y166116
X77978Y162306
X60198Y164846
X60198Y169926
X70993Y160274
X70993Y156591
X73279Y156337
X69215Y158496
X69215Y160274
X69215Y156591
X74549Y156337
X52578Y171196
X52578Y173736
X76581Y154940
X73508Y150597
X77648Y152476
X78334Y149352
X79959Y150749
X81585Y155550
X60960Y153543
X59309Y145923
X79248Y145720
X73914Y144170
X77495Y142088
X82423Y140462
X74016Y140106
X55651Y140386
X12751Y15342
X63348Y148133
X74143Y148158
X73889Y146787
X76276Y145745
X57302Y159537
X49022Y168656
X57175Y163347
X88019Y142756
X68809Y163297
X76327Y158750
X76327Y159639
X76327Y157734
X75082Y165735
X75921Y165735
X76733Y165735
X52070Y153975
X47498Y154051
X89027Y151384
X68834Y177292
X76708Y146685
X79375Y156210
X59309Y153543
X79248Y142977
X72778Y142850
X87122Y151384
X88265Y147574
X76708Y134366
X81788Y134366
X74587Y146431
X75692Y146431
X65227Y152527
X78943Y151181
X64262Y149987
X80721Y150038
X50597Y164262
X60325Y160274
X56642Y160274
X80899Y155575
X63094Y155473
X63754Y167005
X48997Y165964
X83007Y156032
X80264Y156108
X86868Y176276
X86868Y173482
X57150Y146177
X58540Y146178
X56388Y134366
X61468Y134366
X57861Y148996
X47244Y147701
X53958Y147557
X58928Y142977
X65398Y142799
X70739Y152527
X70739Y153416
X46863Y142875
X47600Y138151
X65278Y164211
X48285Y149276
X53848Y149276
X46838Y141172
X60325Y149098
X62103Y150851
X9296Y20244
X40386Y14224
X38862Y3429
X19558Y24130
X36830Y12065
X15240Y41148
X8915Y12116
X25908Y25908
X25908Y24511
X13716Y15367
X41910Y8636
X39370Y8636
X16510Y12192
X19558Y20066
X17653Y27178
X34341Y23673
X16764Y41148
X18415Y41148
X23876Y5715
X39751Y18186
X36703Y43815
X44450Y33020
X44450Y26670
X44450Y20320
X44450Y14097
X22860Y3810
X27940Y3810
X1270Y26670
X36576Y41275
X13462Y25019
X29718Y23241
X31674Y25400
X34798Y27432
X2540Y44450
X6629Y10211
X1168Y12243
X1803Y15291
X7645Y15291
X44450Y9017
X1295Y30505
X29210Y44450
X24130Y44450
X3708Y16713
X41504Y12725
X43180Y44450
X17780Y3810
X17983Y7112
X19812Y41148
X21336Y41148
X16510Y38100
X16510Y31750
X31750Y38100
X31750Y33020
X31750Y29210
X13970Y31750
X13970Y36830
X24765Y27178
X24765Y23495
X27051Y23241
X22987Y25400
X22987Y27178
X22987Y23495
X28321Y23241
X6350Y38100
X6350Y40640
X30353Y21844
X27280Y17501
X31420Y19380
X32106Y16256
X59309Y86995
X33731Y17653
X35357Y22454
X14732Y20447
X13081Y12827
X33020Y12624
X27686Y11074
X31267Y8992
X36195Y7366
X27788Y7010
X9423Y7290
X36855Y14986
X17120Y15037
X27915Y15062
X27661Y13691
X30048Y12649
X11074Y26441
X2794Y35560
X10947Y30251
X41791Y9660
X22581Y30201
X30099Y25654
X30099Y26543
X30099Y24638
X28854Y32639
X29693Y32639
X30505Y32639
X5842Y20879
X1270Y20955
X42799Y18288
X22606Y44196
X30480Y13589
X33147Y23114
X13081Y20447
X33020Y9881
X26550Y9754
X40894Y18288
X42037Y14478
X30480Y1270
X35560Y1270
X28359Y13335
X29464Y13335
X18999Y19431
X32715Y18085
X18034Y16891
X34493Y16942
X4369Y31166
X14097Y27178
X10414Y27178
X34671Y22479
X16866Y22377
X17526Y33909
X2769Y32868
X36779Y22936
X34036Y23012
X40640Y43180
X40640Y40386
X10922Y13081
X12312Y13082
X10160Y1270
X15240Y1270
X11633Y15900
X1016Y14605
X7730Y14461
X12700Y9881
X24511Y19431
X24511Y20320
X635Y9779
X1372Y5055
X19050Y31115
X2057Y16180
X7620Y16180
X610Y8076
X14097Y16002
X15875Y17755
X58979Y15342
X55524Y20244
X86614Y14224
X85090Y3429
X65786Y24130
X83058Y12065
X61468Y41148
X55143Y12116
X72136Y25908
X72136Y24511
X59944Y15367
X88138Y8636
X85598Y8636
X62738Y12192
X65786Y20066
X63881Y27178
X80569Y23673
X62992Y41148
X64643Y41148
X70104Y5715
X85979Y18186
X82931Y43815
X90678Y33020
X90678Y26670
X90678Y20320
X90678Y14097
X69088Y3810
X74168Y3810
X47498Y26670
X82804Y41275
X59690Y25019
X75946Y23241
X77902Y25400
X81026Y27432
X48768Y44450
X52857Y10211
X47396Y12243
X48031Y15291
X53873Y15291
X90678Y9017
X47523Y30505
X75438Y44450
X70358Y44450
X49936Y16713
X87732Y12725
X89408Y44450
X64008Y3810
X64211Y7112
X66040Y41148
X67564Y41148
X62738Y38100
X62738Y31750
X77978Y38100
X77978Y33020
X77978Y29210
X60198Y31750
X60198Y36830
X70993Y27178
X70993Y23495
X83083Y148082
M30