G04 EAGLE Gerber RS-274X export*
G75*
%MOMM*%
%FSLAX34Y34*%
%LPD*%
%INSoldermask Bottom*%
%IPPOS*%
%AMOC8*
5,1,8,0,0,1.08239X$1,22.5*%
G01*
%ADD10C,2.006600*%
%ADD11C,0.228344*%
%ADD12C,0.777000*%
%ADD13C,1.127000*%
%ADD14C,3.175000*%
%ADD15C,0.977000*%
%ADD16C,1.270000*%
%ADD17C,1.627000*%

G36*
X415990Y826147D02*
X415990Y826147D01*
X416056Y826149D01*
X416099Y826167D01*
X416146Y826175D01*
X416203Y826209D01*
X416263Y826234D01*
X416298Y826265D01*
X416339Y826290D01*
X416381Y826341D01*
X416429Y826385D01*
X416451Y826427D01*
X416480Y826464D01*
X416501Y826526D01*
X416532Y826585D01*
X416540Y826639D01*
X416552Y826676D01*
X416551Y826716D01*
X416559Y826770D01*
X416559Y829310D01*
X416548Y829375D01*
X416546Y829441D01*
X416528Y829484D01*
X416520Y829531D01*
X416486Y829588D01*
X416461Y829648D01*
X416430Y829683D01*
X416405Y829724D01*
X416354Y829766D01*
X416310Y829814D01*
X416268Y829836D01*
X416231Y829865D01*
X416169Y829886D01*
X416110Y829917D01*
X416056Y829925D01*
X416019Y829937D01*
X415979Y829936D01*
X415925Y829944D01*
X412115Y829944D01*
X412050Y829933D01*
X411984Y829931D01*
X411941Y829913D01*
X411894Y829905D01*
X411837Y829871D01*
X411777Y829846D01*
X411742Y829815D01*
X411701Y829790D01*
X411660Y829739D01*
X411611Y829695D01*
X411589Y829653D01*
X411560Y829616D01*
X411539Y829554D01*
X411508Y829495D01*
X411500Y829441D01*
X411488Y829404D01*
X411488Y829401D01*
X411489Y829364D01*
X411481Y829310D01*
X411481Y826770D01*
X411492Y826705D01*
X411494Y826639D01*
X411512Y826596D01*
X411520Y826549D01*
X411554Y826492D01*
X411579Y826432D01*
X411610Y826397D01*
X411635Y826356D01*
X411686Y826315D01*
X411730Y826266D01*
X411772Y826244D01*
X411809Y826215D01*
X411871Y826194D01*
X411930Y826163D01*
X411984Y826155D01*
X412021Y826143D01*
X412061Y826144D01*
X412115Y826136D01*
X415925Y826136D01*
X415990Y826147D01*
G37*
G36*
X1350710Y826147D02*
X1350710Y826147D01*
X1350776Y826149D01*
X1350819Y826167D01*
X1350866Y826175D01*
X1350923Y826209D01*
X1350983Y826234D01*
X1351018Y826265D01*
X1351059Y826290D01*
X1351101Y826341D01*
X1351149Y826385D01*
X1351171Y826427D01*
X1351200Y826464D01*
X1351221Y826526D01*
X1351252Y826585D01*
X1351260Y826639D01*
X1351272Y826676D01*
X1351271Y826716D01*
X1351279Y826770D01*
X1351279Y829310D01*
X1351268Y829375D01*
X1351266Y829441D01*
X1351248Y829484D01*
X1351240Y829531D01*
X1351206Y829588D01*
X1351181Y829648D01*
X1351150Y829683D01*
X1351125Y829724D01*
X1351074Y829766D01*
X1351030Y829814D01*
X1350988Y829836D01*
X1350951Y829865D01*
X1350889Y829886D01*
X1350830Y829917D01*
X1350776Y829925D01*
X1350739Y829937D01*
X1350699Y829936D01*
X1350645Y829944D01*
X1346835Y829944D01*
X1346770Y829933D01*
X1346704Y829931D01*
X1346661Y829913D01*
X1346614Y829905D01*
X1346557Y829871D01*
X1346497Y829846D01*
X1346462Y829815D01*
X1346421Y829790D01*
X1346380Y829739D01*
X1346331Y829695D01*
X1346309Y829653D01*
X1346280Y829616D01*
X1346259Y829554D01*
X1346228Y829495D01*
X1346220Y829441D01*
X1346208Y829404D01*
X1346208Y829401D01*
X1346209Y829364D01*
X1346201Y829310D01*
X1346201Y826770D01*
X1346212Y826705D01*
X1346214Y826639D01*
X1346232Y826596D01*
X1346240Y826549D01*
X1346274Y826492D01*
X1346299Y826432D01*
X1346330Y826397D01*
X1346355Y826356D01*
X1346406Y826315D01*
X1346450Y826266D01*
X1346492Y826244D01*
X1346529Y826215D01*
X1346591Y826194D01*
X1346650Y826163D01*
X1346704Y826155D01*
X1346741Y826143D01*
X1346781Y826144D01*
X1346835Y826136D01*
X1350645Y826136D01*
X1350710Y826147D01*
G37*
G36*
X878270Y826147D02*
X878270Y826147D01*
X878336Y826149D01*
X878379Y826167D01*
X878426Y826175D01*
X878483Y826209D01*
X878543Y826234D01*
X878578Y826265D01*
X878619Y826290D01*
X878661Y826341D01*
X878709Y826385D01*
X878731Y826427D01*
X878760Y826464D01*
X878781Y826526D01*
X878812Y826585D01*
X878820Y826639D01*
X878832Y826676D01*
X878831Y826716D01*
X878839Y826770D01*
X878839Y829310D01*
X878828Y829375D01*
X878826Y829441D01*
X878808Y829484D01*
X878800Y829531D01*
X878766Y829588D01*
X878741Y829648D01*
X878710Y829683D01*
X878685Y829724D01*
X878634Y829766D01*
X878590Y829814D01*
X878548Y829836D01*
X878511Y829865D01*
X878449Y829886D01*
X878390Y829917D01*
X878336Y829925D01*
X878299Y829937D01*
X878259Y829936D01*
X878205Y829944D01*
X874395Y829944D01*
X874330Y829933D01*
X874264Y829931D01*
X874221Y829913D01*
X874174Y829905D01*
X874117Y829871D01*
X874057Y829846D01*
X874022Y829815D01*
X873981Y829790D01*
X873940Y829739D01*
X873891Y829695D01*
X873869Y829653D01*
X873840Y829616D01*
X873819Y829554D01*
X873788Y829495D01*
X873780Y829441D01*
X873768Y829404D01*
X873768Y829401D01*
X873769Y829364D01*
X873761Y829310D01*
X873761Y826770D01*
X873772Y826705D01*
X873774Y826639D01*
X873792Y826596D01*
X873800Y826549D01*
X873834Y826492D01*
X873859Y826432D01*
X873890Y826397D01*
X873915Y826356D01*
X873966Y826315D01*
X874010Y826266D01*
X874052Y826244D01*
X874089Y826215D01*
X874151Y826194D01*
X874210Y826163D01*
X874264Y826155D01*
X874301Y826143D01*
X874341Y826144D01*
X874395Y826136D01*
X878205Y826136D01*
X878270Y826147D01*
G37*
G36*
X426150Y826147D02*
X426150Y826147D01*
X426216Y826149D01*
X426259Y826167D01*
X426306Y826175D01*
X426363Y826209D01*
X426423Y826234D01*
X426458Y826265D01*
X426499Y826290D01*
X426541Y826341D01*
X426589Y826385D01*
X426611Y826427D01*
X426640Y826464D01*
X426661Y826526D01*
X426692Y826585D01*
X426700Y826639D01*
X426712Y826676D01*
X426711Y826716D01*
X426719Y826770D01*
X426719Y829310D01*
X426708Y829375D01*
X426706Y829441D01*
X426688Y829484D01*
X426680Y829531D01*
X426646Y829588D01*
X426621Y829648D01*
X426590Y829683D01*
X426565Y829724D01*
X426514Y829766D01*
X426470Y829814D01*
X426428Y829836D01*
X426391Y829865D01*
X426329Y829886D01*
X426270Y829917D01*
X426216Y829925D01*
X426179Y829937D01*
X426139Y829936D01*
X426085Y829944D01*
X422275Y829944D01*
X422210Y829933D01*
X422144Y829931D01*
X422101Y829913D01*
X422054Y829905D01*
X421997Y829871D01*
X421937Y829846D01*
X421902Y829815D01*
X421861Y829790D01*
X421820Y829739D01*
X421771Y829695D01*
X421749Y829653D01*
X421720Y829616D01*
X421699Y829554D01*
X421668Y829495D01*
X421660Y829441D01*
X421648Y829404D01*
X421648Y829401D01*
X421649Y829364D01*
X421641Y829310D01*
X421641Y826770D01*
X421652Y826705D01*
X421654Y826639D01*
X421672Y826596D01*
X421680Y826549D01*
X421714Y826492D01*
X421739Y826432D01*
X421770Y826397D01*
X421795Y826356D01*
X421846Y826315D01*
X421890Y826266D01*
X421932Y826244D01*
X421969Y826215D01*
X422031Y826194D01*
X422090Y826163D01*
X422144Y826155D01*
X422181Y826143D01*
X422221Y826144D01*
X422275Y826136D01*
X426085Y826136D01*
X426150Y826147D01*
G37*
G36*
X888430Y826147D02*
X888430Y826147D01*
X888496Y826149D01*
X888539Y826167D01*
X888586Y826175D01*
X888643Y826209D01*
X888703Y826234D01*
X888738Y826265D01*
X888779Y826290D01*
X888821Y826341D01*
X888869Y826385D01*
X888891Y826427D01*
X888920Y826464D01*
X888941Y826526D01*
X888972Y826585D01*
X888980Y826639D01*
X888992Y826676D01*
X888991Y826716D01*
X888999Y826770D01*
X888999Y829310D01*
X888988Y829375D01*
X888986Y829441D01*
X888968Y829484D01*
X888960Y829531D01*
X888926Y829588D01*
X888901Y829648D01*
X888870Y829683D01*
X888845Y829724D01*
X888794Y829766D01*
X888750Y829814D01*
X888708Y829836D01*
X888671Y829865D01*
X888609Y829886D01*
X888550Y829917D01*
X888496Y829925D01*
X888459Y829937D01*
X888419Y829936D01*
X888365Y829944D01*
X884555Y829944D01*
X884490Y829933D01*
X884424Y829931D01*
X884381Y829913D01*
X884334Y829905D01*
X884277Y829871D01*
X884217Y829846D01*
X884182Y829815D01*
X884141Y829790D01*
X884100Y829739D01*
X884051Y829695D01*
X884029Y829653D01*
X884000Y829616D01*
X883979Y829554D01*
X883948Y829495D01*
X883940Y829441D01*
X883928Y829404D01*
X883928Y829401D01*
X883929Y829364D01*
X883921Y829310D01*
X883921Y826770D01*
X883932Y826705D01*
X883934Y826639D01*
X883952Y826596D01*
X883960Y826549D01*
X883994Y826492D01*
X884019Y826432D01*
X884050Y826397D01*
X884075Y826356D01*
X884126Y826315D01*
X884170Y826266D01*
X884212Y826244D01*
X884249Y826215D01*
X884311Y826194D01*
X884370Y826163D01*
X884424Y826155D01*
X884461Y826143D01*
X884501Y826144D01*
X884555Y826136D01*
X888365Y826136D01*
X888430Y826147D01*
G37*
G36*
X1340550Y826147D02*
X1340550Y826147D01*
X1340616Y826149D01*
X1340659Y826167D01*
X1340706Y826175D01*
X1340763Y826209D01*
X1340823Y826234D01*
X1340858Y826265D01*
X1340899Y826290D01*
X1340941Y826341D01*
X1340989Y826385D01*
X1341011Y826427D01*
X1341040Y826464D01*
X1341061Y826526D01*
X1341092Y826585D01*
X1341100Y826639D01*
X1341112Y826676D01*
X1341111Y826716D01*
X1341119Y826770D01*
X1341119Y829310D01*
X1341108Y829375D01*
X1341106Y829441D01*
X1341088Y829484D01*
X1341080Y829531D01*
X1341046Y829588D01*
X1341021Y829648D01*
X1340990Y829683D01*
X1340965Y829724D01*
X1340914Y829766D01*
X1340870Y829814D01*
X1340828Y829836D01*
X1340791Y829865D01*
X1340729Y829886D01*
X1340670Y829917D01*
X1340616Y829925D01*
X1340579Y829937D01*
X1340539Y829936D01*
X1340485Y829944D01*
X1336675Y829944D01*
X1336610Y829933D01*
X1336544Y829931D01*
X1336501Y829913D01*
X1336454Y829905D01*
X1336397Y829871D01*
X1336337Y829846D01*
X1336302Y829815D01*
X1336261Y829790D01*
X1336220Y829739D01*
X1336171Y829695D01*
X1336149Y829653D01*
X1336120Y829616D01*
X1336099Y829554D01*
X1336068Y829495D01*
X1336060Y829441D01*
X1336048Y829404D01*
X1336048Y829401D01*
X1336049Y829364D01*
X1336041Y829310D01*
X1336041Y826770D01*
X1336052Y826705D01*
X1336054Y826639D01*
X1336072Y826596D01*
X1336080Y826549D01*
X1336114Y826492D01*
X1336139Y826432D01*
X1336170Y826397D01*
X1336195Y826356D01*
X1336246Y826315D01*
X1336290Y826266D01*
X1336332Y826244D01*
X1336369Y826215D01*
X1336431Y826194D01*
X1336490Y826163D01*
X1336544Y826155D01*
X1336581Y826143D01*
X1336621Y826144D01*
X1336675Y826136D01*
X1340485Y826136D01*
X1340550Y826147D01*
G37*
G36*
X1812990Y826147D02*
X1812990Y826147D01*
X1813056Y826149D01*
X1813099Y826167D01*
X1813146Y826175D01*
X1813203Y826209D01*
X1813263Y826234D01*
X1813298Y826265D01*
X1813339Y826290D01*
X1813381Y826341D01*
X1813429Y826385D01*
X1813451Y826427D01*
X1813480Y826464D01*
X1813501Y826526D01*
X1813532Y826585D01*
X1813540Y826639D01*
X1813552Y826676D01*
X1813551Y826716D01*
X1813559Y826770D01*
X1813559Y829310D01*
X1813548Y829375D01*
X1813546Y829441D01*
X1813528Y829484D01*
X1813520Y829531D01*
X1813486Y829588D01*
X1813461Y829648D01*
X1813430Y829683D01*
X1813405Y829724D01*
X1813354Y829766D01*
X1813310Y829814D01*
X1813268Y829836D01*
X1813231Y829865D01*
X1813169Y829886D01*
X1813110Y829917D01*
X1813056Y829925D01*
X1813019Y829937D01*
X1812979Y829936D01*
X1812925Y829944D01*
X1809115Y829944D01*
X1809050Y829933D01*
X1808984Y829931D01*
X1808941Y829913D01*
X1808894Y829905D01*
X1808837Y829871D01*
X1808777Y829846D01*
X1808742Y829815D01*
X1808701Y829790D01*
X1808660Y829739D01*
X1808611Y829695D01*
X1808589Y829653D01*
X1808560Y829616D01*
X1808539Y829554D01*
X1808508Y829495D01*
X1808500Y829441D01*
X1808488Y829404D01*
X1808488Y829401D01*
X1808489Y829364D01*
X1808481Y829310D01*
X1808481Y826770D01*
X1808492Y826705D01*
X1808494Y826639D01*
X1808512Y826596D01*
X1808520Y826549D01*
X1808554Y826492D01*
X1808579Y826432D01*
X1808610Y826397D01*
X1808635Y826356D01*
X1808686Y826315D01*
X1808730Y826266D01*
X1808772Y826244D01*
X1808809Y826215D01*
X1808871Y826194D01*
X1808930Y826163D01*
X1808984Y826155D01*
X1809021Y826143D01*
X1809061Y826144D01*
X1809115Y826136D01*
X1812925Y826136D01*
X1812990Y826147D01*
G37*
G36*
X1802830Y826147D02*
X1802830Y826147D01*
X1802896Y826149D01*
X1802939Y826167D01*
X1802986Y826175D01*
X1803043Y826209D01*
X1803103Y826234D01*
X1803138Y826265D01*
X1803179Y826290D01*
X1803221Y826341D01*
X1803269Y826385D01*
X1803291Y826427D01*
X1803320Y826464D01*
X1803341Y826526D01*
X1803372Y826585D01*
X1803380Y826639D01*
X1803392Y826676D01*
X1803391Y826716D01*
X1803399Y826770D01*
X1803399Y829310D01*
X1803388Y829375D01*
X1803386Y829441D01*
X1803368Y829484D01*
X1803360Y829531D01*
X1803326Y829588D01*
X1803301Y829648D01*
X1803270Y829683D01*
X1803245Y829724D01*
X1803194Y829766D01*
X1803150Y829814D01*
X1803108Y829836D01*
X1803071Y829865D01*
X1803009Y829886D01*
X1802950Y829917D01*
X1802896Y829925D01*
X1802859Y829937D01*
X1802819Y829936D01*
X1802765Y829944D01*
X1798955Y829944D01*
X1798890Y829933D01*
X1798824Y829931D01*
X1798781Y829913D01*
X1798734Y829905D01*
X1798677Y829871D01*
X1798617Y829846D01*
X1798582Y829815D01*
X1798541Y829790D01*
X1798500Y829739D01*
X1798451Y829695D01*
X1798429Y829653D01*
X1798400Y829616D01*
X1798379Y829554D01*
X1798348Y829495D01*
X1798340Y829441D01*
X1798328Y829404D01*
X1798328Y829401D01*
X1798329Y829364D01*
X1798321Y829310D01*
X1798321Y826770D01*
X1798332Y826705D01*
X1798334Y826639D01*
X1798352Y826596D01*
X1798360Y826549D01*
X1798394Y826492D01*
X1798419Y826432D01*
X1798450Y826397D01*
X1798475Y826356D01*
X1798526Y826315D01*
X1798570Y826266D01*
X1798612Y826244D01*
X1798649Y826215D01*
X1798711Y826194D01*
X1798770Y826163D01*
X1798824Y826155D01*
X1798861Y826143D01*
X1798901Y826144D01*
X1798955Y826136D01*
X1802765Y826136D01*
X1802830Y826147D01*
G37*
G36*
X489650Y800747D02*
X489650Y800747D01*
X489716Y800749D01*
X489759Y800767D01*
X489806Y800775D01*
X489863Y800809D01*
X489923Y800834D01*
X489958Y800865D01*
X489999Y800890D01*
X490041Y800941D01*
X490089Y800985D01*
X490111Y801027D01*
X490140Y801064D01*
X490161Y801126D01*
X490192Y801185D01*
X490200Y801239D01*
X490212Y801276D01*
X490211Y801316D01*
X490219Y801370D01*
X490219Y803910D01*
X490208Y803975D01*
X490206Y804041D01*
X490188Y804084D01*
X490180Y804131D01*
X490146Y804188D01*
X490121Y804248D01*
X490090Y804283D01*
X490065Y804324D01*
X490014Y804366D01*
X489970Y804414D01*
X489928Y804436D01*
X489891Y804465D01*
X489829Y804486D01*
X489770Y804517D01*
X489716Y804525D01*
X489679Y804537D01*
X489639Y804536D01*
X489585Y804544D01*
X485775Y804544D01*
X485710Y804533D01*
X485644Y804531D01*
X485601Y804513D01*
X485554Y804505D01*
X485497Y804471D01*
X485437Y804446D01*
X485402Y804415D01*
X485361Y804390D01*
X485320Y804339D01*
X485271Y804295D01*
X485249Y804253D01*
X485220Y804216D01*
X485199Y804154D01*
X485168Y804095D01*
X485160Y804041D01*
X485148Y804004D01*
X485148Y804001D01*
X485149Y803964D01*
X485141Y803910D01*
X485141Y801370D01*
X485152Y801305D01*
X485154Y801239D01*
X485172Y801196D01*
X485180Y801149D01*
X485214Y801092D01*
X485239Y801032D01*
X485270Y800997D01*
X485295Y800956D01*
X485346Y800915D01*
X485390Y800866D01*
X485432Y800844D01*
X485469Y800815D01*
X485531Y800794D01*
X485590Y800763D01*
X485644Y800755D01*
X485681Y800743D01*
X485721Y800744D01*
X485775Y800736D01*
X489585Y800736D01*
X489650Y800747D01*
G37*
G36*
X951930Y800747D02*
X951930Y800747D01*
X951996Y800749D01*
X952039Y800767D01*
X952086Y800775D01*
X952143Y800809D01*
X952203Y800834D01*
X952238Y800865D01*
X952279Y800890D01*
X952321Y800941D01*
X952369Y800985D01*
X952391Y801027D01*
X952420Y801064D01*
X952441Y801126D01*
X952472Y801185D01*
X952480Y801239D01*
X952492Y801276D01*
X952491Y801316D01*
X952499Y801370D01*
X952499Y803910D01*
X952488Y803975D01*
X952486Y804041D01*
X952468Y804084D01*
X952460Y804131D01*
X952426Y804188D01*
X952401Y804248D01*
X952370Y804283D01*
X952345Y804324D01*
X952294Y804366D01*
X952250Y804414D01*
X952208Y804436D01*
X952171Y804465D01*
X952109Y804486D01*
X952050Y804517D01*
X951996Y804525D01*
X951959Y804537D01*
X951919Y804536D01*
X951865Y804544D01*
X948055Y804544D01*
X947990Y804533D01*
X947924Y804531D01*
X947881Y804513D01*
X947834Y804505D01*
X947777Y804471D01*
X947717Y804446D01*
X947682Y804415D01*
X947641Y804390D01*
X947600Y804339D01*
X947551Y804295D01*
X947529Y804253D01*
X947500Y804216D01*
X947479Y804154D01*
X947448Y804095D01*
X947440Y804041D01*
X947428Y804004D01*
X947428Y804001D01*
X947429Y803964D01*
X947421Y803910D01*
X947421Y801370D01*
X947432Y801305D01*
X947434Y801239D01*
X947452Y801196D01*
X947460Y801149D01*
X947494Y801092D01*
X947519Y801032D01*
X947550Y800997D01*
X947575Y800956D01*
X947626Y800915D01*
X947670Y800866D01*
X947712Y800844D01*
X947749Y800815D01*
X947811Y800794D01*
X947870Y800763D01*
X947924Y800755D01*
X947961Y800743D01*
X948001Y800744D01*
X948055Y800736D01*
X951865Y800736D01*
X951930Y800747D01*
G37*
G36*
X27370Y800747D02*
X27370Y800747D01*
X27436Y800749D01*
X27479Y800767D01*
X27526Y800775D01*
X27583Y800809D01*
X27643Y800834D01*
X27678Y800865D01*
X27719Y800890D01*
X27761Y800941D01*
X27809Y800985D01*
X27831Y801027D01*
X27860Y801064D01*
X27881Y801126D01*
X27912Y801185D01*
X27920Y801239D01*
X27932Y801276D01*
X27931Y801316D01*
X27939Y801370D01*
X27939Y803910D01*
X27928Y803975D01*
X27926Y804041D01*
X27908Y804084D01*
X27900Y804131D01*
X27866Y804188D01*
X27841Y804248D01*
X27810Y804283D01*
X27785Y804324D01*
X27734Y804366D01*
X27690Y804414D01*
X27648Y804436D01*
X27611Y804465D01*
X27549Y804486D01*
X27490Y804517D01*
X27436Y804525D01*
X27399Y804537D01*
X27359Y804536D01*
X27305Y804544D01*
X23495Y804544D01*
X23430Y804533D01*
X23364Y804531D01*
X23321Y804513D01*
X23274Y804505D01*
X23217Y804471D01*
X23157Y804446D01*
X23122Y804415D01*
X23081Y804390D01*
X23040Y804339D01*
X22991Y804295D01*
X22969Y804253D01*
X22940Y804216D01*
X22919Y804154D01*
X22888Y804095D01*
X22880Y804041D01*
X22868Y804004D01*
X22868Y804001D01*
X22869Y803964D01*
X22861Y803910D01*
X22861Y801370D01*
X22872Y801305D01*
X22874Y801239D01*
X22892Y801196D01*
X22900Y801149D01*
X22934Y801092D01*
X22959Y801032D01*
X22990Y800997D01*
X23015Y800956D01*
X23066Y800915D01*
X23110Y800866D01*
X23152Y800844D01*
X23189Y800815D01*
X23251Y800794D01*
X23310Y800763D01*
X23364Y800755D01*
X23401Y800743D01*
X23441Y800744D01*
X23495Y800736D01*
X27305Y800736D01*
X27370Y800747D01*
G37*
G36*
X1414210Y800747D02*
X1414210Y800747D01*
X1414276Y800749D01*
X1414319Y800767D01*
X1414366Y800775D01*
X1414423Y800809D01*
X1414483Y800834D01*
X1414518Y800865D01*
X1414559Y800890D01*
X1414601Y800941D01*
X1414649Y800985D01*
X1414671Y801027D01*
X1414700Y801064D01*
X1414721Y801126D01*
X1414752Y801185D01*
X1414760Y801239D01*
X1414772Y801276D01*
X1414771Y801316D01*
X1414779Y801370D01*
X1414779Y803910D01*
X1414768Y803975D01*
X1414766Y804041D01*
X1414748Y804084D01*
X1414740Y804131D01*
X1414706Y804188D01*
X1414681Y804248D01*
X1414650Y804283D01*
X1414625Y804324D01*
X1414574Y804366D01*
X1414530Y804414D01*
X1414488Y804436D01*
X1414451Y804465D01*
X1414389Y804486D01*
X1414330Y804517D01*
X1414276Y804525D01*
X1414239Y804537D01*
X1414199Y804536D01*
X1414145Y804544D01*
X1410335Y804544D01*
X1410270Y804533D01*
X1410204Y804531D01*
X1410161Y804513D01*
X1410114Y804505D01*
X1410057Y804471D01*
X1409997Y804446D01*
X1409962Y804415D01*
X1409921Y804390D01*
X1409880Y804339D01*
X1409831Y804295D01*
X1409809Y804253D01*
X1409780Y804216D01*
X1409759Y804154D01*
X1409728Y804095D01*
X1409720Y804041D01*
X1409708Y804004D01*
X1409708Y804001D01*
X1409709Y803964D01*
X1409701Y803910D01*
X1409701Y801370D01*
X1409712Y801305D01*
X1409714Y801239D01*
X1409732Y801196D01*
X1409740Y801149D01*
X1409774Y801092D01*
X1409799Y801032D01*
X1409830Y800997D01*
X1409855Y800956D01*
X1409906Y800915D01*
X1409950Y800866D01*
X1409992Y800844D01*
X1410029Y800815D01*
X1410091Y800794D01*
X1410150Y800763D01*
X1410204Y800755D01*
X1410241Y800743D01*
X1410281Y800744D01*
X1410335Y800736D01*
X1414145Y800736D01*
X1414210Y800747D01*
G37*
G36*
X951930Y768997D02*
X951930Y768997D01*
X951996Y768999D01*
X952039Y769017D01*
X952086Y769025D01*
X952143Y769059D01*
X952203Y769084D01*
X952238Y769115D01*
X952279Y769140D01*
X952321Y769191D01*
X952369Y769235D01*
X952391Y769277D01*
X952420Y769314D01*
X952441Y769376D01*
X952472Y769435D01*
X952480Y769489D01*
X952492Y769526D01*
X952491Y769566D01*
X952499Y769620D01*
X952499Y772160D01*
X952488Y772225D01*
X952486Y772291D01*
X952468Y772334D01*
X952460Y772381D01*
X952426Y772438D01*
X952401Y772498D01*
X952370Y772533D01*
X952345Y772574D01*
X952294Y772616D01*
X952250Y772664D01*
X952208Y772686D01*
X952171Y772715D01*
X952109Y772736D01*
X952050Y772767D01*
X951996Y772775D01*
X951959Y772787D01*
X951919Y772786D01*
X951865Y772794D01*
X948055Y772794D01*
X947990Y772783D01*
X947924Y772781D01*
X947881Y772763D01*
X947834Y772755D01*
X947777Y772721D01*
X947717Y772696D01*
X947682Y772665D01*
X947641Y772640D01*
X947600Y772589D01*
X947551Y772545D01*
X947529Y772503D01*
X947500Y772466D01*
X947479Y772404D01*
X947448Y772345D01*
X947440Y772291D01*
X947428Y772254D01*
X947428Y772251D01*
X947429Y772214D01*
X947421Y772160D01*
X947421Y769620D01*
X947432Y769555D01*
X947434Y769489D01*
X947452Y769446D01*
X947460Y769399D01*
X947494Y769342D01*
X947519Y769282D01*
X947550Y769247D01*
X947575Y769206D01*
X947626Y769165D01*
X947670Y769116D01*
X947712Y769094D01*
X947749Y769065D01*
X947811Y769044D01*
X947870Y769013D01*
X947924Y769005D01*
X947961Y768993D01*
X948001Y768994D01*
X948055Y768986D01*
X951865Y768986D01*
X951930Y768997D01*
G37*
G36*
X489650Y768997D02*
X489650Y768997D01*
X489716Y768999D01*
X489759Y769017D01*
X489806Y769025D01*
X489863Y769059D01*
X489923Y769084D01*
X489958Y769115D01*
X489999Y769140D01*
X490041Y769191D01*
X490089Y769235D01*
X490111Y769277D01*
X490140Y769314D01*
X490161Y769376D01*
X490192Y769435D01*
X490200Y769489D01*
X490212Y769526D01*
X490211Y769566D01*
X490219Y769620D01*
X490219Y772160D01*
X490208Y772225D01*
X490206Y772291D01*
X490188Y772334D01*
X490180Y772381D01*
X490146Y772438D01*
X490121Y772498D01*
X490090Y772533D01*
X490065Y772574D01*
X490014Y772616D01*
X489970Y772664D01*
X489928Y772686D01*
X489891Y772715D01*
X489829Y772736D01*
X489770Y772767D01*
X489716Y772775D01*
X489679Y772787D01*
X489639Y772786D01*
X489585Y772794D01*
X485775Y772794D01*
X485710Y772783D01*
X485644Y772781D01*
X485601Y772763D01*
X485554Y772755D01*
X485497Y772721D01*
X485437Y772696D01*
X485402Y772665D01*
X485361Y772640D01*
X485320Y772589D01*
X485271Y772545D01*
X485249Y772503D01*
X485220Y772466D01*
X485199Y772404D01*
X485168Y772345D01*
X485160Y772291D01*
X485148Y772254D01*
X485148Y772251D01*
X485149Y772214D01*
X485141Y772160D01*
X485141Y769620D01*
X485152Y769555D01*
X485154Y769489D01*
X485172Y769446D01*
X485180Y769399D01*
X485214Y769342D01*
X485239Y769282D01*
X485270Y769247D01*
X485295Y769206D01*
X485346Y769165D01*
X485390Y769116D01*
X485432Y769094D01*
X485469Y769065D01*
X485531Y769044D01*
X485590Y769013D01*
X485644Y769005D01*
X485681Y768993D01*
X485721Y768994D01*
X485775Y768986D01*
X489585Y768986D01*
X489650Y768997D01*
G37*
G36*
X27370Y768997D02*
X27370Y768997D01*
X27436Y768999D01*
X27479Y769017D01*
X27526Y769025D01*
X27583Y769059D01*
X27643Y769084D01*
X27678Y769115D01*
X27719Y769140D01*
X27761Y769191D01*
X27809Y769235D01*
X27831Y769277D01*
X27860Y769314D01*
X27881Y769376D01*
X27912Y769435D01*
X27920Y769489D01*
X27932Y769526D01*
X27931Y769566D01*
X27939Y769620D01*
X27939Y772160D01*
X27928Y772225D01*
X27926Y772291D01*
X27908Y772334D01*
X27900Y772381D01*
X27866Y772438D01*
X27841Y772498D01*
X27810Y772533D01*
X27785Y772574D01*
X27734Y772616D01*
X27690Y772664D01*
X27648Y772686D01*
X27611Y772715D01*
X27549Y772736D01*
X27490Y772767D01*
X27436Y772775D01*
X27399Y772787D01*
X27359Y772786D01*
X27305Y772794D01*
X23495Y772794D01*
X23430Y772783D01*
X23364Y772781D01*
X23321Y772763D01*
X23274Y772755D01*
X23217Y772721D01*
X23157Y772696D01*
X23122Y772665D01*
X23081Y772640D01*
X23040Y772589D01*
X22991Y772545D01*
X22969Y772503D01*
X22940Y772466D01*
X22919Y772404D01*
X22888Y772345D01*
X22880Y772291D01*
X22868Y772254D01*
X22868Y772251D01*
X22869Y772214D01*
X22861Y772160D01*
X22861Y769620D01*
X22872Y769555D01*
X22874Y769489D01*
X22892Y769446D01*
X22900Y769399D01*
X22934Y769342D01*
X22959Y769282D01*
X22990Y769247D01*
X23015Y769206D01*
X23066Y769165D01*
X23110Y769116D01*
X23152Y769094D01*
X23189Y769065D01*
X23251Y769044D01*
X23310Y769013D01*
X23364Y769005D01*
X23401Y768993D01*
X23441Y768994D01*
X23495Y768986D01*
X27305Y768986D01*
X27370Y768997D01*
G37*
G36*
X1414210Y768997D02*
X1414210Y768997D01*
X1414276Y768999D01*
X1414319Y769017D01*
X1414366Y769025D01*
X1414423Y769059D01*
X1414483Y769084D01*
X1414518Y769115D01*
X1414559Y769140D01*
X1414601Y769191D01*
X1414649Y769235D01*
X1414671Y769277D01*
X1414700Y769314D01*
X1414721Y769376D01*
X1414752Y769435D01*
X1414760Y769489D01*
X1414772Y769526D01*
X1414771Y769566D01*
X1414779Y769620D01*
X1414779Y772160D01*
X1414768Y772225D01*
X1414766Y772291D01*
X1414748Y772334D01*
X1414740Y772381D01*
X1414706Y772438D01*
X1414681Y772498D01*
X1414650Y772533D01*
X1414625Y772574D01*
X1414574Y772616D01*
X1414530Y772664D01*
X1414488Y772686D01*
X1414451Y772715D01*
X1414389Y772736D01*
X1414330Y772767D01*
X1414276Y772775D01*
X1414239Y772787D01*
X1414199Y772786D01*
X1414145Y772794D01*
X1410335Y772794D01*
X1410270Y772783D01*
X1410204Y772781D01*
X1410161Y772763D01*
X1410114Y772755D01*
X1410057Y772721D01*
X1409997Y772696D01*
X1409962Y772665D01*
X1409921Y772640D01*
X1409880Y772589D01*
X1409831Y772545D01*
X1409809Y772503D01*
X1409780Y772466D01*
X1409759Y772404D01*
X1409728Y772345D01*
X1409720Y772291D01*
X1409708Y772254D01*
X1409708Y772251D01*
X1409709Y772214D01*
X1409701Y772160D01*
X1409701Y769620D01*
X1409712Y769555D01*
X1409714Y769489D01*
X1409732Y769446D01*
X1409740Y769399D01*
X1409774Y769342D01*
X1409799Y769282D01*
X1409830Y769247D01*
X1409855Y769206D01*
X1409906Y769165D01*
X1409950Y769116D01*
X1409992Y769094D01*
X1410029Y769065D01*
X1410091Y769044D01*
X1410150Y769013D01*
X1410204Y769005D01*
X1410241Y768993D01*
X1410281Y768994D01*
X1410335Y768986D01*
X1414145Y768986D01*
X1414210Y768997D01*
G37*
G36*
X28640Y739787D02*
X28640Y739787D01*
X28706Y739789D01*
X28749Y739807D01*
X28796Y739815D01*
X28853Y739849D01*
X28913Y739874D01*
X28948Y739905D01*
X28989Y739930D01*
X29031Y739981D01*
X29079Y740025D01*
X29101Y740067D01*
X29130Y740104D01*
X29151Y740166D01*
X29182Y740225D01*
X29190Y740279D01*
X29202Y740316D01*
X29201Y740356D01*
X29209Y740410D01*
X29209Y742950D01*
X29198Y743015D01*
X29196Y743081D01*
X29178Y743124D01*
X29170Y743171D01*
X29136Y743228D01*
X29111Y743288D01*
X29080Y743323D01*
X29055Y743364D01*
X29004Y743406D01*
X28960Y743454D01*
X28918Y743476D01*
X28881Y743505D01*
X28819Y743526D01*
X28760Y743557D01*
X28706Y743565D01*
X28669Y743577D01*
X28629Y743576D01*
X28575Y743584D01*
X24765Y743584D01*
X24700Y743573D01*
X24634Y743571D01*
X24591Y743553D01*
X24544Y743545D01*
X24487Y743511D01*
X24427Y743486D01*
X24392Y743455D01*
X24351Y743430D01*
X24310Y743379D01*
X24261Y743335D01*
X24239Y743293D01*
X24210Y743256D01*
X24189Y743194D01*
X24158Y743135D01*
X24150Y743081D01*
X24138Y743044D01*
X24138Y743041D01*
X24139Y743004D01*
X24131Y742950D01*
X24131Y740410D01*
X24142Y740345D01*
X24144Y740279D01*
X24162Y740236D01*
X24170Y740189D01*
X24204Y740132D01*
X24229Y740072D01*
X24260Y740037D01*
X24285Y739996D01*
X24336Y739955D01*
X24380Y739906D01*
X24422Y739884D01*
X24459Y739855D01*
X24521Y739834D01*
X24580Y739803D01*
X24634Y739795D01*
X24671Y739783D01*
X24711Y739784D01*
X24765Y739776D01*
X28575Y739776D01*
X28640Y739787D01*
G37*
G36*
X490920Y739787D02*
X490920Y739787D01*
X490986Y739789D01*
X491029Y739807D01*
X491076Y739815D01*
X491133Y739849D01*
X491193Y739874D01*
X491228Y739905D01*
X491269Y739930D01*
X491311Y739981D01*
X491359Y740025D01*
X491381Y740067D01*
X491410Y740104D01*
X491431Y740166D01*
X491462Y740225D01*
X491470Y740279D01*
X491482Y740316D01*
X491481Y740356D01*
X491489Y740410D01*
X491489Y742950D01*
X491478Y743015D01*
X491476Y743081D01*
X491458Y743124D01*
X491450Y743171D01*
X491416Y743228D01*
X491391Y743288D01*
X491360Y743323D01*
X491335Y743364D01*
X491284Y743406D01*
X491240Y743454D01*
X491198Y743476D01*
X491161Y743505D01*
X491099Y743526D01*
X491040Y743557D01*
X490986Y743565D01*
X490949Y743577D01*
X490909Y743576D01*
X490855Y743584D01*
X487045Y743584D01*
X486980Y743573D01*
X486914Y743571D01*
X486871Y743553D01*
X486824Y743545D01*
X486767Y743511D01*
X486707Y743486D01*
X486672Y743455D01*
X486631Y743430D01*
X486590Y743379D01*
X486541Y743335D01*
X486519Y743293D01*
X486490Y743256D01*
X486469Y743194D01*
X486438Y743135D01*
X486430Y743081D01*
X486418Y743044D01*
X486418Y743041D01*
X486419Y743004D01*
X486411Y742950D01*
X486411Y740410D01*
X486422Y740345D01*
X486424Y740279D01*
X486442Y740236D01*
X486450Y740189D01*
X486484Y740132D01*
X486509Y740072D01*
X486540Y740037D01*
X486565Y739996D01*
X486616Y739955D01*
X486660Y739906D01*
X486702Y739884D01*
X486739Y739855D01*
X486801Y739834D01*
X486860Y739803D01*
X486914Y739795D01*
X486951Y739783D01*
X486991Y739784D01*
X487045Y739776D01*
X490855Y739776D01*
X490920Y739787D01*
G37*
G36*
X1415480Y739787D02*
X1415480Y739787D01*
X1415546Y739789D01*
X1415589Y739807D01*
X1415636Y739815D01*
X1415693Y739849D01*
X1415753Y739874D01*
X1415788Y739905D01*
X1415829Y739930D01*
X1415871Y739981D01*
X1415919Y740025D01*
X1415941Y740067D01*
X1415970Y740104D01*
X1415991Y740166D01*
X1416022Y740225D01*
X1416030Y740279D01*
X1416042Y740316D01*
X1416041Y740356D01*
X1416049Y740410D01*
X1416049Y742950D01*
X1416038Y743015D01*
X1416036Y743081D01*
X1416018Y743124D01*
X1416010Y743171D01*
X1415976Y743228D01*
X1415951Y743288D01*
X1415920Y743323D01*
X1415895Y743364D01*
X1415844Y743406D01*
X1415800Y743454D01*
X1415758Y743476D01*
X1415721Y743505D01*
X1415659Y743526D01*
X1415600Y743557D01*
X1415546Y743565D01*
X1415509Y743577D01*
X1415469Y743576D01*
X1415415Y743584D01*
X1411605Y743584D01*
X1411540Y743573D01*
X1411474Y743571D01*
X1411431Y743553D01*
X1411384Y743545D01*
X1411327Y743511D01*
X1411267Y743486D01*
X1411232Y743455D01*
X1411191Y743430D01*
X1411150Y743379D01*
X1411101Y743335D01*
X1411079Y743293D01*
X1411050Y743256D01*
X1411029Y743194D01*
X1410998Y743135D01*
X1410990Y743081D01*
X1410978Y743044D01*
X1410978Y743041D01*
X1410979Y743004D01*
X1410971Y742950D01*
X1410971Y740410D01*
X1410982Y740345D01*
X1410984Y740279D01*
X1411002Y740236D01*
X1411010Y740189D01*
X1411044Y740132D01*
X1411069Y740072D01*
X1411100Y740037D01*
X1411125Y739996D01*
X1411176Y739955D01*
X1411220Y739906D01*
X1411262Y739884D01*
X1411299Y739855D01*
X1411361Y739834D01*
X1411420Y739803D01*
X1411474Y739795D01*
X1411511Y739783D01*
X1411551Y739784D01*
X1411605Y739776D01*
X1415415Y739776D01*
X1415480Y739787D01*
G37*
G36*
X953200Y739787D02*
X953200Y739787D01*
X953266Y739789D01*
X953309Y739807D01*
X953356Y739815D01*
X953413Y739849D01*
X953473Y739874D01*
X953508Y739905D01*
X953549Y739930D01*
X953591Y739981D01*
X953639Y740025D01*
X953661Y740067D01*
X953690Y740104D01*
X953711Y740166D01*
X953742Y740225D01*
X953750Y740279D01*
X953762Y740316D01*
X953761Y740356D01*
X953769Y740410D01*
X953769Y742950D01*
X953758Y743015D01*
X953756Y743081D01*
X953738Y743124D01*
X953730Y743171D01*
X953696Y743228D01*
X953671Y743288D01*
X953640Y743323D01*
X953615Y743364D01*
X953564Y743406D01*
X953520Y743454D01*
X953478Y743476D01*
X953441Y743505D01*
X953379Y743526D01*
X953320Y743557D01*
X953266Y743565D01*
X953229Y743577D01*
X953189Y743576D01*
X953135Y743584D01*
X949325Y743584D01*
X949260Y743573D01*
X949194Y743571D01*
X949151Y743553D01*
X949104Y743545D01*
X949047Y743511D01*
X948987Y743486D01*
X948952Y743455D01*
X948911Y743430D01*
X948870Y743379D01*
X948821Y743335D01*
X948799Y743293D01*
X948770Y743256D01*
X948749Y743194D01*
X948718Y743135D01*
X948710Y743081D01*
X948698Y743044D01*
X948698Y743041D01*
X948699Y743004D01*
X948691Y742950D01*
X948691Y740410D01*
X948702Y740345D01*
X948704Y740279D01*
X948722Y740236D01*
X948730Y740189D01*
X948764Y740132D01*
X948789Y740072D01*
X948820Y740037D01*
X948845Y739996D01*
X948896Y739955D01*
X948940Y739906D01*
X948982Y739884D01*
X949019Y739855D01*
X949081Y739834D01*
X949140Y739803D01*
X949194Y739795D01*
X949231Y739783D01*
X949271Y739784D01*
X949325Y739776D01*
X953135Y739776D01*
X953200Y739787D01*
G37*
G36*
X1009334Y698131D02*
X1009334Y698131D01*
X1009400Y698133D01*
X1009443Y698151D01*
X1009490Y698159D01*
X1009547Y698193D01*
X1009607Y698218D01*
X1009642Y698249D01*
X1009683Y698274D01*
X1009725Y698325D01*
X1009773Y698369D01*
X1009795Y698411D01*
X1009824Y698448D01*
X1009845Y698510D01*
X1009876Y698569D01*
X1009884Y698623D01*
X1009896Y698660D01*
X1009895Y698700D01*
X1009903Y698754D01*
X1009903Y701294D01*
X1009892Y701359D01*
X1009890Y701425D01*
X1009872Y701468D01*
X1009864Y701515D01*
X1009830Y701572D01*
X1009805Y701632D01*
X1009774Y701667D01*
X1009749Y701708D01*
X1009698Y701750D01*
X1009654Y701798D01*
X1009612Y701820D01*
X1009575Y701849D01*
X1009513Y701870D01*
X1009454Y701901D01*
X1009400Y701909D01*
X1009363Y701921D01*
X1009323Y701920D01*
X1009269Y701928D01*
X1005459Y701928D01*
X1005394Y701917D01*
X1005328Y701915D01*
X1005285Y701897D01*
X1005238Y701889D01*
X1005181Y701855D01*
X1005121Y701830D01*
X1005086Y701799D01*
X1005045Y701774D01*
X1005004Y701723D01*
X1004955Y701679D01*
X1004933Y701637D01*
X1004904Y701600D01*
X1004883Y701538D01*
X1004852Y701479D01*
X1004844Y701425D01*
X1004832Y701388D01*
X1004832Y701385D01*
X1004833Y701348D01*
X1004825Y701294D01*
X1004825Y698754D01*
X1004836Y698689D01*
X1004838Y698623D01*
X1004856Y698580D01*
X1004864Y698533D01*
X1004898Y698476D01*
X1004923Y698416D01*
X1004954Y698381D01*
X1004979Y698340D01*
X1005030Y698299D01*
X1005074Y698250D01*
X1005116Y698228D01*
X1005153Y698199D01*
X1005215Y698178D01*
X1005274Y698147D01*
X1005328Y698139D01*
X1005365Y698127D01*
X1005405Y698128D01*
X1005459Y698120D01*
X1009269Y698120D01*
X1009334Y698131D01*
G37*
G36*
X547054Y698131D02*
X547054Y698131D01*
X547120Y698133D01*
X547163Y698151D01*
X547210Y698159D01*
X547267Y698193D01*
X547327Y698218D01*
X547362Y698249D01*
X547403Y698274D01*
X547445Y698325D01*
X547493Y698369D01*
X547515Y698411D01*
X547544Y698448D01*
X547565Y698510D01*
X547596Y698569D01*
X547604Y698623D01*
X547616Y698660D01*
X547615Y698700D01*
X547623Y698754D01*
X547623Y701294D01*
X547612Y701359D01*
X547610Y701425D01*
X547592Y701468D01*
X547584Y701515D01*
X547550Y701572D01*
X547525Y701632D01*
X547494Y701667D01*
X547469Y701708D01*
X547418Y701750D01*
X547374Y701798D01*
X547332Y701820D01*
X547295Y701849D01*
X547233Y701870D01*
X547174Y701901D01*
X547120Y701909D01*
X547083Y701921D01*
X547043Y701920D01*
X546989Y701928D01*
X543179Y701928D01*
X543114Y701917D01*
X543048Y701915D01*
X543005Y701897D01*
X542958Y701889D01*
X542901Y701855D01*
X542841Y701830D01*
X542806Y701799D01*
X542765Y701774D01*
X542724Y701723D01*
X542675Y701679D01*
X542653Y701637D01*
X542624Y701600D01*
X542603Y701538D01*
X542572Y701479D01*
X542564Y701425D01*
X542552Y701388D01*
X542552Y701385D01*
X542553Y701348D01*
X542545Y701294D01*
X542545Y698754D01*
X542556Y698689D01*
X542558Y698623D01*
X542576Y698580D01*
X542584Y698533D01*
X542618Y698476D01*
X542643Y698416D01*
X542674Y698381D01*
X542699Y698340D01*
X542750Y698299D01*
X542794Y698250D01*
X542836Y698228D01*
X542873Y698199D01*
X542935Y698178D01*
X542994Y698147D01*
X543048Y698139D01*
X543085Y698127D01*
X543125Y698128D01*
X543179Y698120D01*
X546989Y698120D01*
X547054Y698131D01*
G37*
G36*
X1471614Y698131D02*
X1471614Y698131D01*
X1471680Y698133D01*
X1471723Y698151D01*
X1471770Y698159D01*
X1471827Y698193D01*
X1471887Y698218D01*
X1471922Y698249D01*
X1471963Y698274D01*
X1472005Y698325D01*
X1472053Y698369D01*
X1472075Y698411D01*
X1472104Y698448D01*
X1472125Y698510D01*
X1472156Y698569D01*
X1472164Y698623D01*
X1472176Y698660D01*
X1472175Y698700D01*
X1472183Y698754D01*
X1472183Y701294D01*
X1472172Y701359D01*
X1472170Y701425D01*
X1472152Y701468D01*
X1472144Y701515D01*
X1472110Y701572D01*
X1472085Y701632D01*
X1472054Y701667D01*
X1472029Y701708D01*
X1471978Y701750D01*
X1471934Y701798D01*
X1471892Y701820D01*
X1471855Y701849D01*
X1471793Y701870D01*
X1471734Y701901D01*
X1471680Y701909D01*
X1471643Y701921D01*
X1471603Y701920D01*
X1471549Y701928D01*
X1467739Y701928D01*
X1467674Y701917D01*
X1467608Y701915D01*
X1467565Y701897D01*
X1467518Y701889D01*
X1467461Y701855D01*
X1467401Y701830D01*
X1467366Y701799D01*
X1467325Y701774D01*
X1467284Y701723D01*
X1467235Y701679D01*
X1467213Y701637D01*
X1467184Y701600D01*
X1467163Y701538D01*
X1467132Y701479D01*
X1467124Y701425D01*
X1467112Y701388D01*
X1467112Y701385D01*
X1467113Y701348D01*
X1467105Y701294D01*
X1467105Y698754D01*
X1467116Y698689D01*
X1467118Y698623D01*
X1467136Y698580D01*
X1467144Y698533D01*
X1467178Y698476D01*
X1467203Y698416D01*
X1467234Y698381D01*
X1467259Y698340D01*
X1467310Y698299D01*
X1467354Y698250D01*
X1467396Y698228D01*
X1467433Y698199D01*
X1467495Y698178D01*
X1467554Y698147D01*
X1467608Y698139D01*
X1467645Y698127D01*
X1467685Y698128D01*
X1467739Y698120D01*
X1471549Y698120D01*
X1471614Y698131D01*
G37*
G36*
X84774Y698131D02*
X84774Y698131D01*
X84840Y698133D01*
X84883Y698151D01*
X84930Y698159D01*
X84987Y698193D01*
X85047Y698218D01*
X85082Y698249D01*
X85123Y698274D01*
X85165Y698325D01*
X85213Y698369D01*
X85235Y698411D01*
X85264Y698448D01*
X85285Y698510D01*
X85316Y698569D01*
X85324Y698623D01*
X85336Y698660D01*
X85335Y698700D01*
X85343Y698754D01*
X85343Y701294D01*
X85332Y701359D01*
X85330Y701425D01*
X85312Y701468D01*
X85304Y701515D01*
X85270Y701572D01*
X85245Y701632D01*
X85214Y701667D01*
X85189Y701708D01*
X85138Y701750D01*
X85094Y701798D01*
X85052Y701820D01*
X85015Y701849D01*
X84953Y701870D01*
X84894Y701901D01*
X84840Y701909D01*
X84803Y701921D01*
X84763Y701920D01*
X84709Y701928D01*
X80899Y701928D01*
X80834Y701917D01*
X80768Y701915D01*
X80725Y701897D01*
X80678Y701889D01*
X80621Y701855D01*
X80561Y701830D01*
X80526Y701799D01*
X80485Y701774D01*
X80444Y701723D01*
X80395Y701679D01*
X80373Y701637D01*
X80344Y701600D01*
X80323Y701538D01*
X80292Y701479D01*
X80284Y701425D01*
X80272Y701388D01*
X80272Y701385D01*
X80273Y701348D01*
X80265Y701294D01*
X80265Y698754D01*
X80276Y698689D01*
X80278Y698623D01*
X80296Y698580D01*
X80304Y698533D01*
X80338Y698476D01*
X80363Y698416D01*
X80394Y698381D01*
X80419Y698340D01*
X80470Y698299D01*
X80514Y698250D01*
X80556Y698228D01*
X80593Y698199D01*
X80655Y698178D01*
X80714Y698147D01*
X80768Y698139D01*
X80805Y698127D01*
X80845Y698128D01*
X80899Y698120D01*
X84709Y698120D01*
X84774Y698131D01*
G37*
G36*
X1301180Y697877D02*
X1301180Y697877D01*
X1301246Y697879D01*
X1301289Y697897D01*
X1301336Y697905D01*
X1301393Y697939D01*
X1301453Y697964D01*
X1301488Y697995D01*
X1301529Y698020D01*
X1301571Y698071D01*
X1301619Y698115D01*
X1301641Y698157D01*
X1301670Y698194D01*
X1301691Y698256D01*
X1301722Y698315D01*
X1301730Y698369D01*
X1301742Y698406D01*
X1301741Y698446D01*
X1301749Y698500D01*
X1301749Y701040D01*
X1301738Y701105D01*
X1301736Y701171D01*
X1301718Y701214D01*
X1301710Y701261D01*
X1301676Y701318D01*
X1301651Y701378D01*
X1301620Y701413D01*
X1301595Y701454D01*
X1301544Y701496D01*
X1301500Y701544D01*
X1301458Y701566D01*
X1301421Y701595D01*
X1301359Y701616D01*
X1301300Y701647D01*
X1301246Y701655D01*
X1301209Y701667D01*
X1301169Y701666D01*
X1301115Y701674D01*
X1297305Y701674D01*
X1297240Y701663D01*
X1297174Y701661D01*
X1297131Y701643D01*
X1297084Y701635D01*
X1297027Y701601D01*
X1296967Y701576D01*
X1296932Y701545D01*
X1296891Y701520D01*
X1296850Y701469D01*
X1296801Y701425D01*
X1296779Y701383D01*
X1296750Y701346D01*
X1296729Y701284D01*
X1296698Y701225D01*
X1296690Y701171D01*
X1296678Y701134D01*
X1296678Y701131D01*
X1296679Y701094D01*
X1296671Y701040D01*
X1296671Y698500D01*
X1296682Y698435D01*
X1296684Y698369D01*
X1296702Y698326D01*
X1296710Y698279D01*
X1296744Y698222D01*
X1296769Y698162D01*
X1296800Y698127D01*
X1296825Y698086D01*
X1296876Y698045D01*
X1296920Y697996D01*
X1296962Y697974D01*
X1296999Y697945D01*
X1297061Y697924D01*
X1297120Y697893D01*
X1297174Y697885D01*
X1297211Y697873D01*
X1297251Y697874D01*
X1297305Y697866D01*
X1301115Y697866D01*
X1301180Y697877D01*
G37*
G36*
X376620Y697877D02*
X376620Y697877D01*
X376686Y697879D01*
X376729Y697897D01*
X376776Y697905D01*
X376833Y697939D01*
X376893Y697964D01*
X376928Y697995D01*
X376969Y698020D01*
X377011Y698071D01*
X377059Y698115D01*
X377081Y698157D01*
X377110Y698194D01*
X377131Y698256D01*
X377162Y698315D01*
X377170Y698369D01*
X377182Y698406D01*
X377181Y698446D01*
X377189Y698500D01*
X377189Y701040D01*
X377178Y701105D01*
X377176Y701171D01*
X377158Y701214D01*
X377150Y701261D01*
X377116Y701318D01*
X377091Y701378D01*
X377060Y701413D01*
X377035Y701454D01*
X376984Y701496D01*
X376940Y701544D01*
X376898Y701566D01*
X376861Y701595D01*
X376799Y701616D01*
X376740Y701647D01*
X376686Y701655D01*
X376649Y701667D01*
X376609Y701666D01*
X376555Y701674D01*
X372745Y701674D01*
X372680Y701663D01*
X372614Y701661D01*
X372571Y701643D01*
X372524Y701635D01*
X372467Y701601D01*
X372407Y701576D01*
X372372Y701545D01*
X372331Y701520D01*
X372290Y701469D01*
X372241Y701425D01*
X372219Y701383D01*
X372190Y701346D01*
X372169Y701284D01*
X372138Y701225D01*
X372130Y701171D01*
X372118Y701134D01*
X372118Y701131D01*
X372119Y701094D01*
X372111Y701040D01*
X372111Y698500D01*
X372122Y698435D01*
X372124Y698369D01*
X372142Y698326D01*
X372150Y698279D01*
X372184Y698222D01*
X372209Y698162D01*
X372240Y698127D01*
X372265Y698086D01*
X372316Y698045D01*
X372360Y697996D01*
X372402Y697974D01*
X372439Y697945D01*
X372501Y697924D01*
X372560Y697893D01*
X372614Y697885D01*
X372651Y697873D01*
X372691Y697874D01*
X372745Y697866D01*
X376555Y697866D01*
X376620Y697877D01*
G37*
G36*
X838900Y697877D02*
X838900Y697877D01*
X838966Y697879D01*
X839009Y697897D01*
X839056Y697905D01*
X839113Y697939D01*
X839173Y697964D01*
X839208Y697995D01*
X839249Y698020D01*
X839291Y698071D01*
X839339Y698115D01*
X839361Y698157D01*
X839390Y698194D01*
X839411Y698256D01*
X839442Y698315D01*
X839450Y698369D01*
X839462Y698406D01*
X839461Y698446D01*
X839469Y698500D01*
X839469Y701040D01*
X839458Y701105D01*
X839456Y701171D01*
X839438Y701214D01*
X839430Y701261D01*
X839396Y701318D01*
X839371Y701378D01*
X839340Y701413D01*
X839315Y701454D01*
X839264Y701496D01*
X839220Y701544D01*
X839178Y701566D01*
X839141Y701595D01*
X839079Y701616D01*
X839020Y701647D01*
X838966Y701655D01*
X838929Y701667D01*
X838889Y701666D01*
X838835Y701674D01*
X835025Y701674D01*
X834960Y701663D01*
X834894Y701661D01*
X834851Y701643D01*
X834804Y701635D01*
X834747Y701601D01*
X834687Y701576D01*
X834652Y701545D01*
X834611Y701520D01*
X834570Y701469D01*
X834521Y701425D01*
X834499Y701383D01*
X834470Y701346D01*
X834449Y701284D01*
X834418Y701225D01*
X834410Y701171D01*
X834398Y701134D01*
X834398Y701131D01*
X834399Y701094D01*
X834391Y701040D01*
X834391Y698500D01*
X834402Y698435D01*
X834404Y698369D01*
X834422Y698326D01*
X834430Y698279D01*
X834464Y698222D01*
X834489Y698162D01*
X834520Y698127D01*
X834545Y698086D01*
X834596Y698045D01*
X834640Y697996D01*
X834682Y697974D01*
X834719Y697945D01*
X834781Y697924D01*
X834840Y697893D01*
X834894Y697885D01*
X834931Y697873D01*
X834971Y697874D01*
X835025Y697866D01*
X838835Y697866D01*
X838900Y697877D01*
G37*
G36*
X1763460Y697877D02*
X1763460Y697877D01*
X1763526Y697879D01*
X1763569Y697897D01*
X1763616Y697905D01*
X1763673Y697939D01*
X1763733Y697964D01*
X1763768Y697995D01*
X1763809Y698020D01*
X1763851Y698071D01*
X1763899Y698115D01*
X1763921Y698157D01*
X1763950Y698194D01*
X1763971Y698256D01*
X1764002Y698315D01*
X1764010Y698369D01*
X1764022Y698406D01*
X1764021Y698446D01*
X1764029Y698500D01*
X1764029Y701040D01*
X1764018Y701105D01*
X1764016Y701171D01*
X1763998Y701214D01*
X1763990Y701261D01*
X1763956Y701318D01*
X1763931Y701378D01*
X1763900Y701413D01*
X1763875Y701454D01*
X1763824Y701496D01*
X1763780Y701544D01*
X1763738Y701566D01*
X1763701Y701595D01*
X1763639Y701616D01*
X1763580Y701647D01*
X1763526Y701655D01*
X1763489Y701667D01*
X1763449Y701666D01*
X1763395Y701674D01*
X1759585Y701674D01*
X1759520Y701663D01*
X1759454Y701661D01*
X1759411Y701643D01*
X1759364Y701635D01*
X1759307Y701601D01*
X1759247Y701576D01*
X1759212Y701545D01*
X1759171Y701520D01*
X1759130Y701469D01*
X1759081Y701425D01*
X1759059Y701383D01*
X1759030Y701346D01*
X1759009Y701284D01*
X1758978Y701225D01*
X1758970Y701171D01*
X1758958Y701134D01*
X1758958Y701131D01*
X1758959Y701094D01*
X1758951Y701040D01*
X1758951Y698500D01*
X1758962Y698435D01*
X1758964Y698369D01*
X1758982Y698326D01*
X1758990Y698279D01*
X1759024Y698222D01*
X1759049Y698162D01*
X1759080Y698127D01*
X1759105Y698086D01*
X1759156Y698045D01*
X1759200Y697996D01*
X1759242Y697974D01*
X1759279Y697945D01*
X1759341Y697924D01*
X1759400Y697893D01*
X1759454Y697885D01*
X1759491Y697873D01*
X1759531Y697874D01*
X1759585Y697866D01*
X1763395Y697866D01*
X1763460Y697877D01*
G37*
G36*
X1812990Y160667D02*
X1812990Y160667D01*
X1813056Y160669D01*
X1813099Y160687D01*
X1813146Y160695D01*
X1813203Y160729D01*
X1813263Y160754D01*
X1813298Y160785D01*
X1813339Y160810D01*
X1813381Y160861D01*
X1813429Y160905D01*
X1813451Y160947D01*
X1813480Y160984D01*
X1813501Y161046D01*
X1813532Y161105D01*
X1813540Y161159D01*
X1813552Y161196D01*
X1813551Y161236D01*
X1813559Y161290D01*
X1813559Y163830D01*
X1813548Y163895D01*
X1813546Y163961D01*
X1813528Y164004D01*
X1813520Y164051D01*
X1813486Y164108D01*
X1813461Y164168D01*
X1813430Y164203D01*
X1813405Y164244D01*
X1813354Y164286D01*
X1813310Y164334D01*
X1813268Y164356D01*
X1813231Y164385D01*
X1813169Y164406D01*
X1813110Y164437D01*
X1813056Y164445D01*
X1813019Y164457D01*
X1812979Y164456D01*
X1812925Y164464D01*
X1809115Y164464D01*
X1809050Y164453D01*
X1808984Y164451D01*
X1808941Y164433D01*
X1808894Y164425D01*
X1808837Y164391D01*
X1808777Y164366D01*
X1808742Y164335D01*
X1808701Y164310D01*
X1808660Y164259D01*
X1808611Y164215D01*
X1808589Y164173D01*
X1808560Y164136D01*
X1808539Y164074D01*
X1808508Y164015D01*
X1808500Y163961D01*
X1808488Y163924D01*
X1808488Y163921D01*
X1808489Y163884D01*
X1808481Y163830D01*
X1808481Y161290D01*
X1808492Y161225D01*
X1808494Y161159D01*
X1808512Y161116D01*
X1808520Y161069D01*
X1808554Y161012D01*
X1808579Y160952D01*
X1808610Y160917D01*
X1808635Y160876D01*
X1808686Y160835D01*
X1808730Y160786D01*
X1808772Y160764D01*
X1808809Y160735D01*
X1808871Y160714D01*
X1808930Y160683D01*
X1808984Y160675D01*
X1809021Y160663D01*
X1809061Y160664D01*
X1809115Y160656D01*
X1812925Y160656D01*
X1812990Y160667D01*
G37*
G36*
X1350710Y160667D02*
X1350710Y160667D01*
X1350776Y160669D01*
X1350819Y160687D01*
X1350866Y160695D01*
X1350923Y160729D01*
X1350983Y160754D01*
X1351018Y160785D01*
X1351059Y160810D01*
X1351101Y160861D01*
X1351149Y160905D01*
X1351171Y160947D01*
X1351200Y160984D01*
X1351221Y161046D01*
X1351252Y161105D01*
X1351260Y161159D01*
X1351272Y161196D01*
X1351271Y161236D01*
X1351279Y161290D01*
X1351279Y163830D01*
X1351268Y163895D01*
X1351266Y163961D01*
X1351248Y164004D01*
X1351240Y164051D01*
X1351206Y164108D01*
X1351181Y164168D01*
X1351150Y164203D01*
X1351125Y164244D01*
X1351074Y164286D01*
X1351030Y164334D01*
X1350988Y164356D01*
X1350951Y164385D01*
X1350889Y164406D01*
X1350830Y164437D01*
X1350776Y164445D01*
X1350739Y164457D01*
X1350699Y164456D01*
X1350645Y164464D01*
X1346835Y164464D01*
X1346770Y164453D01*
X1346704Y164451D01*
X1346661Y164433D01*
X1346614Y164425D01*
X1346557Y164391D01*
X1346497Y164366D01*
X1346462Y164335D01*
X1346421Y164310D01*
X1346380Y164259D01*
X1346331Y164215D01*
X1346309Y164173D01*
X1346280Y164136D01*
X1346259Y164074D01*
X1346228Y164015D01*
X1346220Y163961D01*
X1346208Y163924D01*
X1346208Y163921D01*
X1346209Y163884D01*
X1346201Y163830D01*
X1346201Y161290D01*
X1346212Y161225D01*
X1346214Y161159D01*
X1346232Y161116D01*
X1346240Y161069D01*
X1346274Y161012D01*
X1346299Y160952D01*
X1346330Y160917D01*
X1346355Y160876D01*
X1346406Y160835D01*
X1346450Y160786D01*
X1346492Y160764D01*
X1346529Y160735D01*
X1346591Y160714D01*
X1346650Y160683D01*
X1346704Y160675D01*
X1346741Y160663D01*
X1346781Y160664D01*
X1346835Y160656D01*
X1350645Y160656D01*
X1350710Y160667D01*
G37*
G36*
X878270Y160667D02*
X878270Y160667D01*
X878336Y160669D01*
X878379Y160687D01*
X878426Y160695D01*
X878483Y160729D01*
X878543Y160754D01*
X878578Y160785D01*
X878619Y160810D01*
X878661Y160861D01*
X878709Y160905D01*
X878731Y160947D01*
X878760Y160984D01*
X878781Y161046D01*
X878812Y161105D01*
X878820Y161159D01*
X878832Y161196D01*
X878831Y161236D01*
X878839Y161290D01*
X878839Y163830D01*
X878828Y163895D01*
X878826Y163961D01*
X878808Y164004D01*
X878800Y164051D01*
X878766Y164108D01*
X878741Y164168D01*
X878710Y164203D01*
X878685Y164244D01*
X878634Y164286D01*
X878590Y164334D01*
X878548Y164356D01*
X878511Y164385D01*
X878449Y164406D01*
X878390Y164437D01*
X878336Y164445D01*
X878299Y164457D01*
X878259Y164456D01*
X878205Y164464D01*
X874395Y164464D01*
X874330Y164453D01*
X874264Y164451D01*
X874221Y164433D01*
X874174Y164425D01*
X874117Y164391D01*
X874057Y164366D01*
X874022Y164335D01*
X873981Y164310D01*
X873940Y164259D01*
X873891Y164215D01*
X873869Y164173D01*
X873840Y164136D01*
X873819Y164074D01*
X873788Y164015D01*
X873780Y163961D01*
X873768Y163924D01*
X873768Y163921D01*
X873769Y163884D01*
X873761Y163830D01*
X873761Y161290D01*
X873772Y161225D01*
X873774Y161159D01*
X873792Y161116D01*
X873800Y161069D01*
X873834Y161012D01*
X873859Y160952D01*
X873890Y160917D01*
X873915Y160876D01*
X873966Y160835D01*
X874010Y160786D01*
X874052Y160764D01*
X874089Y160735D01*
X874151Y160714D01*
X874210Y160683D01*
X874264Y160675D01*
X874301Y160663D01*
X874341Y160664D01*
X874395Y160656D01*
X878205Y160656D01*
X878270Y160667D01*
G37*
G36*
X1802830Y160667D02*
X1802830Y160667D01*
X1802896Y160669D01*
X1802939Y160687D01*
X1802986Y160695D01*
X1803043Y160729D01*
X1803103Y160754D01*
X1803138Y160785D01*
X1803179Y160810D01*
X1803221Y160861D01*
X1803269Y160905D01*
X1803291Y160947D01*
X1803320Y160984D01*
X1803341Y161046D01*
X1803372Y161105D01*
X1803380Y161159D01*
X1803392Y161196D01*
X1803391Y161236D01*
X1803399Y161290D01*
X1803399Y163830D01*
X1803388Y163895D01*
X1803386Y163961D01*
X1803368Y164004D01*
X1803360Y164051D01*
X1803326Y164108D01*
X1803301Y164168D01*
X1803270Y164203D01*
X1803245Y164244D01*
X1803194Y164286D01*
X1803150Y164334D01*
X1803108Y164356D01*
X1803071Y164385D01*
X1803009Y164406D01*
X1802950Y164437D01*
X1802896Y164445D01*
X1802859Y164457D01*
X1802819Y164456D01*
X1802765Y164464D01*
X1798955Y164464D01*
X1798890Y164453D01*
X1798824Y164451D01*
X1798781Y164433D01*
X1798734Y164425D01*
X1798677Y164391D01*
X1798617Y164366D01*
X1798582Y164335D01*
X1798541Y164310D01*
X1798500Y164259D01*
X1798451Y164215D01*
X1798429Y164173D01*
X1798400Y164136D01*
X1798379Y164074D01*
X1798348Y164015D01*
X1798340Y163961D01*
X1798328Y163924D01*
X1798328Y163921D01*
X1798329Y163884D01*
X1798321Y163830D01*
X1798321Y161290D01*
X1798332Y161225D01*
X1798334Y161159D01*
X1798352Y161116D01*
X1798360Y161069D01*
X1798394Y161012D01*
X1798419Y160952D01*
X1798450Y160917D01*
X1798475Y160876D01*
X1798526Y160835D01*
X1798570Y160786D01*
X1798612Y160764D01*
X1798649Y160735D01*
X1798711Y160714D01*
X1798770Y160683D01*
X1798824Y160675D01*
X1798861Y160663D01*
X1798901Y160664D01*
X1798955Y160656D01*
X1802765Y160656D01*
X1802830Y160667D01*
G37*
G36*
X888430Y160667D02*
X888430Y160667D01*
X888496Y160669D01*
X888539Y160687D01*
X888586Y160695D01*
X888643Y160729D01*
X888703Y160754D01*
X888738Y160785D01*
X888779Y160810D01*
X888821Y160861D01*
X888869Y160905D01*
X888891Y160947D01*
X888920Y160984D01*
X888941Y161046D01*
X888972Y161105D01*
X888980Y161159D01*
X888992Y161196D01*
X888991Y161236D01*
X888999Y161290D01*
X888999Y163830D01*
X888988Y163895D01*
X888986Y163961D01*
X888968Y164004D01*
X888960Y164051D01*
X888926Y164108D01*
X888901Y164168D01*
X888870Y164203D01*
X888845Y164244D01*
X888794Y164286D01*
X888750Y164334D01*
X888708Y164356D01*
X888671Y164385D01*
X888609Y164406D01*
X888550Y164437D01*
X888496Y164445D01*
X888459Y164457D01*
X888419Y164456D01*
X888365Y164464D01*
X884555Y164464D01*
X884490Y164453D01*
X884424Y164451D01*
X884381Y164433D01*
X884334Y164425D01*
X884277Y164391D01*
X884217Y164366D01*
X884182Y164335D01*
X884141Y164310D01*
X884100Y164259D01*
X884051Y164215D01*
X884029Y164173D01*
X884000Y164136D01*
X883979Y164074D01*
X883948Y164015D01*
X883940Y163961D01*
X883928Y163924D01*
X883928Y163921D01*
X883929Y163884D01*
X883921Y163830D01*
X883921Y161290D01*
X883932Y161225D01*
X883934Y161159D01*
X883952Y161116D01*
X883960Y161069D01*
X883994Y161012D01*
X884019Y160952D01*
X884050Y160917D01*
X884075Y160876D01*
X884126Y160835D01*
X884170Y160786D01*
X884212Y160764D01*
X884249Y160735D01*
X884311Y160714D01*
X884370Y160683D01*
X884424Y160675D01*
X884461Y160663D01*
X884501Y160664D01*
X884555Y160656D01*
X888365Y160656D01*
X888430Y160667D01*
G37*
G36*
X1340550Y160667D02*
X1340550Y160667D01*
X1340616Y160669D01*
X1340659Y160687D01*
X1340706Y160695D01*
X1340763Y160729D01*
X1340823Y160754D01*
X1340858Y160785D01*
X1340899Y160810D01*
X1340941Y160861D01*
X1340989Y160905D01*
X1341011Y160947D01*
X1341040Y160984D01*
X1341061Y161046D01*
X1341092Y161105D01*
X1341100Y161159D01*
X1341112Y161196D01*
X1341111Y161236D01*
X1341119Y161290D01*
X1341119Y163830D01*
X1341108Y163895D01*
X1341106Y163961D01*
X1341088Y164004D01*
X1341080Y164051D01*
X1341046Y164108D01*
X1341021Y164168D01*
X1340990Y164203D01*
X1340965Y164244D01*
X1340914Y164286D01*
X1340870Y164334D01*
X1340828Y164356D01*
X1340791Y164385D01*
X1340729Y164406D01*
X1340670Y164437D01*
X1340616Y164445D01*
X1340579Y164457D01*
X1340539Y164456D01*
X1340485Y164464D01*
X1336675Y164464D01*
X1336610Y164453D01*
X1336544Y164451D01*
X1336501Y164433D01*
X1336454Y164425D01*
X1336397Y164391D01*
X1336337Y164366D01*
X1336302Y164335D01*
X1336261Y164310D01*
X1336220Y164259D01*
X1336171Y164215D01*
X1336149Y164173D01*
X1336120Y164136D01*
X1336099Y164074D01*
X1336068Y164015D01*
X1336060Y163961D01*
X1336048Y163924D01*
X1336048Y163921D01*
X1336049Y163884D01*
X1336041Y163830D01*
X1336041Y161290D01*
X1336052Y161225D01*
X1336054Y161159D01*
X1336072Y161116D01*
X1336080Y161069D01*
X1336114Y161012D01*
X1336139Y160952D01*
X1336170Y160917D01*
X1336195Y160876D01*
X1336246Y160835D01*
X1336290Y160786D01*
X1336332Y160764D01*
X1336369Y160735D01*
X1336431Y160714D01*
X1336490Y160683D01*
X1336544Y160675D01*
X1336581Y160663D01*
X1336621Y160664D01*
X1336675Y160656D01*
X1340485Y160656D01*
X1340550Y160667D01*
G37*
G36*
X426150Y160667D02*
X426150Y160667D01*
X426216Y160669D01*
X426259Y160687D01*
X426306Y160695D01*
X426363Y160729D01*
X426423Y160754D01*
X426458Y160785D01*
X426499Y160810D01*
X426541Y160861D01*
X426589Y160905D01*
X426611Y160947D01*
X426640Y160984D01*
X426661Y161046D01*
X426692Y161105D01*
X426700Y161159D01*
X426712Y161196D01*
X426711Y161236D01*
X426719Y161290D01*
X426719Y163830D01*
X426708Y163895D01*
X426706Y163961D01*
X426688Y164004D01*
X426680Y164051D01*
X426646Y164108D01*
X426621Y164168D01*
X426590Y164203D01*
X426565Y164244D01*
X426514Y164286D01*
X426470Y164334D01*
X426428Y164356D01*
X426391Y164385D01*
X426329Y164406D01*
X426270Y164437D01*
X426216Y164445D01*
X426179Y164457D01*
X426139Y164456D01*
X426085Y164464D01*
X422275Y164464D01*
X422210Y164453D01*
X422144Y164451D01*
X422101Y164433D01*
X422054Y164425D01*
X421997Y164391D01*
X421937Y164366D01*
X421902Y164335D01*
X421861Y164310D01*
X421820Y164259D01*
X421771Y164215D01*
X421749Y164173D01*
X421720Y164136D01*
X421699Y164074D01*
X421668Y164015D01*
X421660Y163961D01*
X421648Y163924D01*
X421648Y163921D01*
X421649Y163884D01*
X421641Y163830D01*
X421641Y161290D01*
X421652Y161225D01*
X421654Y161159D01*
X421672Y161116D01*
X421680Y161069D01*
X421714Y161012D01*
X421739Y160952D01*
X421770Y160917D01*
X421795Y160876D01*
X421846Y160835D01*
X421890Y160786D01*
X421932Y160764D01*
X421969Y160735D01*
X422031Y160714D01*
X422090Y160683D01*
X422144Y160675D01*
X422181Y160663D01*
X422221Y160664D01*
X422275Y160656D01*
X426085Y160656D01*
X426150Y160667D01*
G37*
G36*
X415990Y160667D02*
X415990Y160667D01*
X416056Y160669D01*
X416099Y160687D01*
X416146Y160695D01*
X416203Y160729D01*
X416263Y160754D01*
X416298Y160785D01*
X416339Y160810D01*
X416381Y160861D01*
X416429Y160905D01*
X416451Y160947D01*
X416480Y160984D01*
X416501Y161046D01*
X416532Y161105D01*
X416540Y161159D01*
X416552Y161196D01*
X416551Y161236D01*
X416559Y161290D01*
X416559Y163830D01*
X416548Y163895D01*
X416546Y163961D01*
X416528Y164004D01*
X416520Y164051D01*
X416486Y164108D01*
X416461Y164168D01*
X416430Y164203D01*
X416405Y164244D01*
X416354Y164286D01*
X416310Y164334D01*
X416268Y164356D01*
X416231Y164385D01*
X416169Y164406D01*
X416110Y164437D01*
X416056Y164445D01*
X416019Y164457D01*
X415979Y164456D01*
X415925Y164464D01*
X412115Y164464D01*
X412050Y164453D01*
X411984Y164451D01*
X411941Y164433D01*
X411894Y164425D01*
X411837Y164391D01*
X411777Y164366D01*
X411742Y164335D01*
X411701Y164310D01*
X411660Y164259D01*
X411611Y164215D01*
X411589Y164173D01*
X411560Y164136D01*
X411539Y164074D01*
X411508Y164015D01*
X411500Y163961D01*
X411488Y163924D01*
X411488Y163921D01*
X411489Y163884D01*
X411481Y163830D01*
X411481Y161290D01*
X411492Y161225D01*
X411494Y161159D01*
X411512Y161116D01*
X411520Y161069D01*
X411554Y161012D01*
X411579Y160952D01*
X411610Y160917D01*
X411635Y160876D01*
X411686Y160835D01*
X411730Y160786D01*
X411772Y160764D01*
X411809Y160735D01*
X411871Y160714D01*
X411930Y160683D01*
X411984Y160675D01*
X412021Y160663D01*
X412061Y160664D01*
X412115Y160656D01*
X415925Y160656D01*
X415990Y160667D01*
G37*
G36*
X489650Y135267D02*
X489650Y135267D01*
X489716Y135269D01*
X489759Y135287D01*
X489806Y135295D01*
X489863Y135329D01*
X489923Y135354D01*
X489958Y135385D01*
X489999Y135410D01*
X490041Y135461D01*
X490089Y135505D01*
X490111Y135547D01*
X490140Y135584D01*
X490161Y135646D01*
X490192Y135705D01*
X490200Y135759D01*
X490212Y135796D01*
X490211Y135836D01*
X490219Y135890D01*
X490219Y138430D01*
X490208Y138495D01*
X490206Y138561D01*
X490188Y138604D01*
X490180Y138651D01*
X490146Y138708D01*
X490121Y138768D01*
X490090Y138803D01*
X490065Y138844D01*
X490014Y138886D01*
X489970Y138934D01*
X489928Y138956D01*
X489891Y138985D01*
X489829Y139006D01*
X489770Y139037D01*
X489716Y139045D01*
X489679Y139057D01*
X489639Y139056D01*
X489585Y139064D01*
X485775Y139064D01*
X485710Y139053D01*
X485644Y139051D01*
X485601Y139033D01*
X485554Y139025D01*
X485497Y138991D01*
X485437Y138966D01*
X485402Y138935D01*
X485361Y138910D01*
X485320Y138859D01*
X485271Y138815D01*
X485249Y138773D01*
X485220Y138736D01*
X485199Y138674D01*
X485168Y138615D01*
X485160Y138561D01*
X485148Y138524D01*
X485148Y138521D01*
X485149Y138484D01*
X485141Y138430D01*
X485141Y135890D01*
X485152Y135825D01*
X485154Y135759D01*
X485172Y135716D01*
X485180Y135669D01*
X485214Y135612D01*
X485239Y135552D01*
X485270Y135517D01*
X485295Y135476D01*
X485346Y135435D01*
X485390Y135386D01*
X485432Y135364D01*
X485469Y135335D01*
X485531Y135314D01*
X485590Y135283D01*
X485644Y135275D01*
X485681Y135263D01*
X485721Y135264D01*
X485775Y135256D01*
X489585Y135256D01*
X489650Y135267D01*
G37*
G36*
X1414210Y135267D02*
X1414210Y135267D01*
X1414276Y135269D01*
X1414319Y135287D01*
X1414366Y135295D01*
X1414423Y135329D01*
X1414483Y135354D01*
X1414518Y135385D01*
X1414559Y135410D01*
X1414601Y135461D01*
X1414649Y135505D01*
X1414671Y135547D01*
X1414700Y135584D01*
X1414721Y135646D01*
X1414752Y135705D01*
X1414760Y135759D01*
X1414772Y135796D01*
X1414771Y135836D01*
X1414779Y135890D01*
X1414779Y138430D01*
X1414768Y138495D01*
X1414766Y138561D01*
X1414748Y138604D01*
X1414740Y138651D01*
X1414706Y138708D01*
X1414681Y138768D01*
X1414650Y138803D01*
X1414625Y138844D01*
X1414574Y138886D01*
X1414530Y138934D01*
X1414488Y138956D01*
X1414451Y138985D01*
X1414389Y139006D01*
X1414330Y139037D01*
X1414276Y139045D01*
X1414239Y139057D01*
X1414199Y139056D01*
X1414145Y139064D01*
X1410335Y139064D01*
X1410270Y139053D01*
X1410204Y139051D01*
X1410161Y139033D01*
X1410114Y139025D01*
X1410057Y138991D01*
X1409997Y138966D01*
X1409962Y138935D01*
X1409921Y138910D01*
X1409880Y138859D01*
X1409831Y138815D01*
X1409809Y138773D01*
X1409780Y138736D01*
X1409759Y138674D01*
X1409728Y138615D01*
X1409720Y138561D01*
X1409708Y138524D01*
X1409708Y138521D01*
X1409709Y138484D01*
X1409701Y138430D01*
X1409701Y135890D01*
X1409712Y135825D01*
X1409714Y135759D01*
X1409732Y135716D01*
X1409740Y135669D01*
X1409774Y135612D01*
X1409799Y135552D01*
X1409830Y135517D01*
X1409855Y135476D01*
X1409906Y135435D01*
X1409950Y135386D01*
X1409992Y135364D01*
X1410029Y135335D01*
X1410091Y135314D01*
X1410150Y135283D01*
X1410204Y135275D01*
X1410241Y135263D01*
X1410281Y135264D01*
X1410335Y135256D01*
X1414145Y135256D01*
X1414210Y135267D01*
G37*
G36*
X27370Y135267D02*
X27370Y135267D01*
X27436Y135269D01*
X27479Y135287D01*
X27526Y135295D01*
X27583Y135329D01*
X27643Y135354D01*
X27678Y135385D01*
X27719Y135410D01*
X27761Y135461D01*
X27809Y135505D01*
X27831Y135547D01*
X27860Y135584D01*
X27881Y135646D01*
X27912Y135705D01*
X27920Y135759D01*
X27932Y135796D01*
X27931Y135836D01*
X27939Y135890D01*
X27939Y138430D01*
X27928Y138495D01*
X27926Y138561D01*
X27908Y138604D01*
X27900Y138651D01*
X27866Y138708D01*
X27841Y138768D01*
X27810Y138803D01*
X27785Y138844D01*
X27734Y138886D01*
X27690Y138934D01*
X27648Y138956D01*
X27611Y138985D01*
X27549Y139006D01*
X27490Y139037D01*
X27436Y139045D01*
X27399Y139057D01*
X27359Y139056D01*
X27305Y139064D01*
X23495Y139064D01*
X23430Y139053D01*
X23364Y139051D01*
X23321Y139033D01*
X23274Y139025D01*
X23217Y138991D01*
X23157Y138966D01*
X23122Y138935D01*
X23081Y138910D01*
X23040Y138859D01*
X22991Y138815D01*
X22969Y138773D01*
X22940Y138736D01*
X22919Y138674D01*
X22888Y138615D01*
X22880Y138561D01*
X22868Y138524D01*
X22868Y138521D01*
X22869Y138484D01*
X22861Y138430D01*
X22861Y135890D01*
X22872Y135825D01*
X22874Y135759D01*
X22892Y135716D01*
X22900Y135669D01*
X22934Y135612D01*
X22959Y135552D01*
X22990Y135517D01*
X23015Y135476D01*
X23066Y135435D01*
X23110Y135386D01*
X23152Y135364D01*
X23189Y135335D01*
X23251Y135314D01*
X23310Y135283D01*
X23364Y135275D01*
X23401Y135263D01*
X23441Y135264D01*
X23495Y135256D01*
X27305Y135256D01*
X27370Y135267D01*
G37*
G36*
X951930Y135267D02*
X951930Y135267D01*
X951996Y135269D01*
X952039Y135287D01*
X952086Y135295D01*
X952143Y135329D01*
X952203Y135354D01*
X952238Y135385D01*
X952279Y135410D01*
X952321Y135461D01*
X952369Y135505D01*
X952391Y135547D01*
X952420Y135584D01*
X952441Y135646D01*
X952472Y135705D01*
X952480Y135759D01*
X952492Y135796D01*
X952491Y135836D01*
X952499Y135890D01*
X952499Y138430D01*
X952488Y138495D01*
X952486Y138561D01*
X952468Y138604D01*
X952460Y138651D01*
X952426Y138708D01*
X952401Y138768D01*
X952370Y138803D01*
X952345Y138844D01*
X952294Y138886D01*
X952250Y138934D01*
X952208Y138956D01*
X952171Y138985D01*
X952109Y139006D01*
X952050Y139037D01*
X951996Y139045D01*
X951959Y139057D01*
X951919Y139056D01*
X951865Y139064D01*
X948055Y139064D01*
X947990Y139053D01*
X947924Y139051D01*
X947881Y139033D01*
X947834Y139025D01*
X947777Y138991D01*
X947717Y138966D01*
X947682Y138935D01*
X947641Y138910D01*
X947600Y138859D01*
X947551Y138815D01*
X947529Y138773D01*
X947500Y138736D01*
X947479Y138674D01*
X947448Y138615D01*
X947440Y138561D01*
X947428Y138524D01*
X947428Y138521D01*
X947429Y138484D01*
X947421Y138430D01*
X947421Y135890D01*
X947432Y135825D01*
X947434Y135759D01*
X947452Y135716D01*
X947460Y135669D01*
X947494Y135612D01*
X947519Y135552D01*
X947550Y135517D01*
X947575Y135476D01*
X947626Y135435D01*
X947670Y135386D01*
X947712Y135364D01*
X947749Y135335D01*
X947811Y135314D01*
X947870Y135283D01*
X947924Y135275D01*
X947961Y135263D01*
X948001Y135264D01*
X948055Y135256D01*
X951865Y135256D01*
X951930Y135267D01*
G37*
G36*
X489650Y103517D02*
X489650Y103517D01*
X489716Y103519D01*
X489759Y103537D01*
X489806Y103545D01*
X489863Y103579D01*
X489923Y103604D01*
X489958Y103635D01*
X489999Y103660D01*
X490041Y103711D01*
X490089Y103755D01*
X490111Y103797D01*
X490140Y103834D01*
X490161Y103896D01*
X490192Y103955D01*
X490200Y104009D01*
X490212Y104046D01*
X490211Y104086D01*
X490219Y104140D01*
X490219Y106680D01*
X490208Y106745D01*
X490206Y106811D01*
X490188Y106854D01*
X490180Y106901D01*
X490146Y106958D01*
X490121Y107018D01*
X490090Y107053D01*
X490065Y107094D01*
X490014Y107136D01*
X489970Y107184D01*
X489928Y107206D01*
X489891Y107235D01*
X489829Y107256D01*
X489770Y107287D01*
X489716Y107295D01*
X489679Y107307D01*
X489639Y107306D01*
X489585Y107314D01*
X485775Y107314D01*
X485710Y107303D01*
X485644Y107301D01*
X485601Y107283D01*
X485554Y107275D01*
X485497Y107241D01*
X485437Y107216D01*
X485402Y107185D01*
X485361Y107160D01*
X485320Y107109D01*
X485271Y107065D01*
X485249Y107023D01*
X485220Y106986D01*
X485199Y106924D01*
X485168Y106865D01*
X485160Y106811D01*
X485148Y106774D01*
X485148Y106771D01*
X485149Y106734D01*
X485141Y106680D01*
X485141Y104140D01*
X485152Y104075D01*
X485154Y104009D01*
X485172Y103966D01*
X485180Y103919D01*
X485214Y103862D01*
X485239Y103802D01*
X485270Y103767D01*
X485295Y103726D01*
X485346Y103685D01*
X485390Y103636D01*
X485432Y103614D01*
X485469Y103585D01*
X485531Y103564D01*
X485590Y103533D01*
X485644Y103525D01*
X485681Y103513D01*
X485721Y103514D01*
X485775Y103506D01*
X489585Y103506D01*
X489650Y103517D01*
G37*
G36*
X27370Y103517D02*
X27370Y103517D01*
X27436Y103519D01*
X27479Y103537D01*
X27526Y103545D01*
X27583Y103579D01*
X27643Y103604D01*
X27678Y103635D01*
X27719Y103660D01*
X27761Y103711D01*
X27809Y103755D01*
X27831Y103797D01*
X27860Y103834D01*
X27881Y103896D01*
X27912Y103955D01*
X27920Y104009D01*
X27932Y104046D01*
X27931Y104086D01*
X27939Y104140D01*
X27939Y106680D01*
X27928Y106745D01*
X27926Y106811D01*
X27908Y106854D01*
X27900Y106901D01*
X27866Y106958D01*
X27841Y107018D01*
X27810Y107053D01*
X27785Y107094D01*
X27734Y107136D01*
X27690Y107184D01*
X27648Y107206D01*
X27611Y107235D01*
X27549Y107256D01*
X27490Y107287D01*
X27436Y107295D01*
X27399Y107307D01*
X27359Y107306D01*
X27305Y107314D01*
X23495Y107314D01*
X23430Y107303D01*
X23364Y107301D01*
X23321Y107283D01*
X23274Y107275D01*
X23217Y107241D01*
X23157Y107216D01*
X23122Y107185D01*
X23081Y107160D01*
X23040Y107109D01*
X22991Y107065D01*
X22969Y107023D01*
X22940Y106986D01*
X22919Y106924D01*
X22888Y106865D01*
X22880Y106811D01*
X22868Y106774D01*
X22868Y106771D01*
X22869Y106734D01*
X22861Y106680D01*
X22861Y104140D01*
X22872Y104075D01*
X22874Y104009D01*
X22892Y103966D01*
X22900Y103919D01*
X22934Y103862D01*
X22959Y103802D01*
X22990Y103767D01*
X23015Y103726D01*
X23066Y103685D01*
X23110Y103636D01*
X23152Y103614D01*
X23189Y103585D01*
X23251Y103564D01*
X23310Y103533D01*
X23364Y103525D01*
X23401Y103513D01*
X23441Y103514D01*
X23495Y103506D01*
X27305Y103506D01*
X27370Y103517D01*
G37*
G36*
X1414210Y103517D02*
X1414210Y103517D01*
X1414276Y103519D01*
X1414319Y103537D01*
X1414366Y103545D01*
X1414423Y103579D01*
X1414483Y103604D01*
X1414518Y103635D01*
X1414559Y103660D01*
X1414601Y103711D01*
X1414649Y103755D01*
X1414671Y103797D01*
X1414700Y103834D01*
X1414721Y103896D01*
X1414752Y103955D01*
X1414760Y104009D01*
X1414772Y104046D01*
X1414771Y104086D01*
X1414779Y104140D01*
X1414779Y106680D01*
X1414768Y106745D01*
X1414766Y106811D01*
X1414748Y106854D01*
X1414740Y106901D01*
X1414706Y106958D01*
X1414681Y107018D01*
X1414650Y107053D01*
X1414625Y107094D01*
X1414574Y107136D01*
X1414530Y107184D01*
X1414488Y107206D01*
X1414451Y107235D01*
X1414389Y107256D01*
X1414330Y107287D01*
X1414276Y107295D01*
X1414239Y107307D01*
X1414199Y107306D01*
X1414145Y107314D01*
X1410335Y107314D01*
X1410270Y107303D01*
X1410204Y107301D01*
X1410161Y107283D01*
X1410114Y107275D01*
X1410057Y107241D01*
X1409997Y107216D01*
X1409962Y107185D01*
X1409921Y107160D01*
X1409880Y107109D01*
X1409831Y107065D01*
X1409809Y107023D01*
X1409780Y106986D01*
X1409759Y106924D01*
X1409728Y106865D01*
X1409720Y106811D01*
X1409708Y106774D01*
X1409708Y106771D01*
X1409709Y106734D01*
X1409701Y106680D01*
X1409701Y104140D01*
X1409712Y104075D01*
X1409714Y104009D01*
X1409732Y103966D01*
X1409740Y103919D01*
X1409774Y103862D01*
X1409799Y103802D01*
X1409830Y103767D01*
X1409855Y103726D01*
X1409906Y103685D01*
X1409950Y103636D01*
X1409992Y103614D01*
X1410029Y103585D01*
X1410091Y103564D01*
X1410150Y103533D01*
X1410204Y103525D01*
X1410241Y103513D01*
X1410281Y103514D01*
X1410335Y103506D01*
X1414145Y103506D01*
X1414210Y103517D01*
G37*
G36*
X951930Y103517D02*
X951930Y103517D01*
X951996Y103519D01*
X952039Y103537D01*
X952086Y103545D01*
X952143Y103579D01*
X952203Y103604D01*
X952238Y103635D01*
X952279Y103660D01*
X952321Y103711D01*
X952369Y103755D01*
X952391Y103797D01*
X952420Y103834D01*
X952441Y103896D01*
X952472Y103955D01*
X952480Y104009D01*
X952492Y104046D01*
X952491Y104086D01*
X952499Y104140D01*
X952499Y106680D01*
X952488Y106745D01*
X952486Y106811D01*
X952468Y106854D01*
X952460Y106901D01*
X952426Y106958D01*
X952401Y107018D01*
X952370Y107053D01*
X952345Y107094D01*
X952294Y107136D01*
X952250Y107184D01*
X952208Y107206D01*
X952171Y107235D01*
X952109Y107256D01*
X952050Y107287D01*
X951996Y107295D01*
X951959Y107307D01*
X951919Y107306D01*
X951865Y107314D01*
X948055Y107314D01*
X947990Y107303D01*
X947924Y107301D01*
X947881Y107283D01*
X947834Y107275D01*
X947777Y107241D01*
X947717Y107216D01*
X947682Y107185D01*
X947641Y107160D01*
X947600Y107109D01*
X947551Y107065D01*
X947529Y107023D01*
X947500Y106986D01*
X947479Y106924D01*
X947448Y106865D01*
X947440Y106811D01*
X947428Y106774D01*
X947428Y106771D01*
X947429Y106734D01*
X947421Y106680D01*
X947421Y104140D01*
X947432Y104075D01*
X947434Y104009D01*
X947452Y103966D01*
X947460Y103919D01*
X947494Y103862D01*
X947519Y103802D01*
X947550Y103767D01*
X947575Y103726D01*
X947626Y103685D01*
X947670Y103636D01*
X947712Y103614D01*
X947749Y103585D01*
X947811Y103564D01*
X947870Y103533D01*
X947924Y103525D01*
X947961Y103513D01*
X948001Y103514D01*
X948055Y103506D01*
X951865Y103506D01*
X951930Y103517D01*
G37*
G36*
X1415480Y74307D02*
X1415480Y74307D01*
X1415546Y74309D01*
X1415589Y74327D01*
X1415636Y74335D01*
X1415693Y74369D01*
X1415753Y74394D01*
X1415788Y74425D01*
X1415829Y74450D01*
X1415871Y74501D01*
X1415919Y74545D01*
X1415941Y74587D01*
X1415970Y74624D01*
X1415991Y74686D01*
X1416022Y74745D01*
X1416030Y74799D01*
X1416042Y74836D01*
X1416041Y74876D01*
X1416049Y74930D01*
X1416049Y77470D01*
X1416038Y77535D01*
X1416036Y77601D01*
X1416018Y77644D01*
X1416010Y77691D01*
X1415976Y77748D01*
X1415951Y77808D01*
X1415920Y77843D01*
X1415895Y77884D01*
X1415844Y77926D01*
X1415800Y77974D01*
X1415758Y77996D01*
X1415721Y78025D01*
X1415659Y78046D01*
X1415600Y78077D01*
X1415546Y78085D01*
X1415509Y78097D01*
X1415469Y78096D01*
X1415415Y78104D01*
X1411605Y78104D01*
X1411540Y78093D01*
X1411474Y78091D01*
X1411431Y78073D01*
X1411384Y78065D01*
X1411327Y78031D01*
X1411267Y78006D01*
X1411232Y77975D01*
X1411191Y77950D01*
X1411150Y77899D01*
X1411101Y77855D01*
X1411079Y77813D01*
X1411050Y77776D01*
X1411029Y77714D01*
X1410998Y77655D01*
X1410990Y77601D01*
X1410978Y77564D01*
X1410978Y77561D01*
X1410979Y77524D01*
X1410971Y77470D01*
X1410971Y74930D01*
X1410982Y74865D01*
X1410984Y74799D01*
X1411002Y74756D01*
X1411010Y74709D01*
X1411044Y74652D01*
X1411069Y74592D01*
X1411100Y74557D01*
X1411125Y74516D01*
X1411176Y74475D01*
X1411220Y74426D01*
X1411262Y74404D01*
X1411299Y74375D01*
X1411361Y74354D01*
X1411420Y74323D01*
X1411474Y74315D01*
X1411511Y74303D01*
X1411551Y74304D01*
X1411605Y74296D01*
X1415415Y74296D01*
X1415480Y74307D01*
G37*
G36*
X953200Y74307D02*
X953200Y74307D01*
X953266Y74309D01*
X953309Y74327D01*
X953356Y74335D01*
X953413Y74369D01*
X953473Y74394D01*
X953508Y74425D01*
X953549Y74450D01*
X953591Y74501D01*
X953639Y74545D01*
X953661Y74587D01*
X953690Y74624D01*
X953711Y74686D01*
X953742Y74745D01*
X953750Y74799D01*
X953762Y74836D01*
X953761Y74876D01*
X953769Y74930D01*
X953769Y77470D01*
X953758Y77535D01*
X953756Y77601D01*
X953738Y77644D01*
X953730Y77691D01*
X953696Y77748D01*
X953671Y77808D01*
X953640Y77843D01*
X953615Y77884D01*
X953564Y77926D01*
X953520Y77974D01*
X953478Y77996D01*
X953441Y78025D01*
X953379Y78046D01*
X953320Y78077D01*
X953266Y78085D01*
X953229Y78097D01*
X953189Y78096D01*
X953135Y78104D01*
X949325Y78104D01*
X949260Y78093D01*
X949194Y78091D01*
X949151Y78073D01*
X949104Y78065D01*
X949047Y78031D01*
X948987Y78006D01*
X948952Y77975D01*
X948911Y77950D01*
X948870Y77899D01*
X948821Y77855D01*
X948799Y77813D01*
X948770Y77776D01*
X948749Y77714D01*
X948718Y77655D01*
X948710Y77601D01*
X948698Y77564D01*
X948698Y77561D01*
X948699Y77524D01*
X948691Y77470D01*
X948691Y74930D01*
X948702Y74865D01*
X948704Y74799D01*
X948722Y74756D01*
X948730Y74709D01*
X948764Y74652D01*
X948789Y74592D01*
X948820Y74557D01*
X948845Y74516D01*
X948896Y74475D01*
X948940Y74426D01*
X948982Y74404D01*
X949019Y74375D01*
X949081Y74354D01*
X949140Y74323D01*
X949194Y74315D01*
X949231Y74303D01*
X949271Y74304D01*
X949325Y74296D01*
X953135Y74296D01*
X953200Y74307D01*
G37*
G36*
X28640Y74307D02*
X28640Y74307D01*
X28706Y74309D01*
X28749Y74327D01*
X28796Y74335D01*
X28853Y74369D01*
X28913Y74394D01*
X28948Y74425D01*
X28989Y74450D01*
X29031Y74501D01*
X29079Y74545D01*
X29101Y74587D01*
X29130Y74624D01*
X29151Y74686D01*
X29182Y74745D01*
X29190Y74799D01*
X29202Y74836D01*
X29201Y74876D01*
X29209Y74930D01*
X29209Y77470D01*
X29198Y77535D01*
X29196Y77601D01*
X29178Y77644D01*
X29170Y77691D01*
X29136Y77748D01*
X29111Y77808D01*
X29080Y77843D01*
X29055Y77884D01*
X29004Y77926D01*
X28960Y77974D01*
X28918Y77996D01*
X28881Y78025D01*
X28819Y78046D01*
X28760Y78077D01*
X28706Y78085D01*
X28669Y78097D01*
X28629Y78096D01*
X28575Y78104D01*
X24765Y78104D01*
X24700Y78093D01*
X24634Y78091D01*
X24591Y78073D01*
X24544Y78065D01*
X24487Y78031D01*
X24427Y78006D01*
X24392Y77975D01*
X24351Y77950D01*
X24310Y77899D01*
X24261Y77855D01*
X24239Y77813D01*
X24210Y77776D01*
X24189Y77714D01*
X24158Y77655D01*
X24150Y77601D01*
X24138Y77564D01*
X24138Y77561D01*
X24139Y77524D01*
X24131Y77470D01*
X24131Y74930D01*
X24142Y74865D01*
X24144Y74799D01*
X24162Y74756D01*
X24170Y74709D01*
X24204Y74652D01*
X24229Y74592D01*
X24260Y74557D01*
X24285Y74516D01*
X24336Y74475D01*
X24380Y74426D01*
X24422Y74404D01*
X24459Y74375D01*
X24521Y74354D01*
X24580Y74323D01*
X24634Y74315D01*
X24671Y74303D01*
X24711Y74304D01*
X24765Y74296D01*
X28575Y74296D01*
X28640Y74307D01*
G37*
G36*
X490920Y74307D02*
X490920Y74307D01*
X490986Y74309D01*
X491029Y74327D01*
X491076Y74335D01*
X491133Y74369D01*
X491193Y74394D01*
X491228Y74425D01*
X491269Y74450D01*
X491311Y74501D01*
X491359Y74545D01*
X491381Y74587D01*
X491410Y74624D01*
X491431Y74686D01*
X491462Y74745D01*
X491470Y74799D01*
X491482Y74836D01*
X491481Y74876D01*
X491489Y74930D01*
X491489Y77470D01*
X491478Y77535D01*
X491476Y77601D01*
X491458Y77644D01*
X491450Y77691D01*
X491416Y77748D01*
X491391Y77808D01*
X491360Y77843D01*
X491335Y77884D01*
X491284Y77926D01*
X491240Y77974D01*
X491198Y77996D01*
X491161Y78025D01*
X491099Y78046D01*
X491040Y78077D01*
X490986Y78085D01*
X490949Y78097D01*
X490909Y78096D01*
X490855Y78104D01*
X487045Y78104D01*
X486980Y78093D01*
X486914Y78091D01*
X486871Y78073D01*
X486824Y78065D01*
X486767Y78031D01*
X486707Y78006D01*
X486672Y77975D01*
X486631Y77950D01*
X486590Y77899D01*
X486541Y77855D01*
X486519Y77813D01*
X486490Y77776D01*
X486469Y77714D01*
X486438Y77655D01*
X486430Y77601D01*
X486418Y77564D01*
X486418Y77561D01*
X486419Y77524D01*
X486411Y77470D01*
X486411Y74930D01*
X486422Y74865D01*
X486424Y74799D01*
X486442Y74756D01*
X486450Y74709D01*
X486484Y74652D01*
X486509Y74592D01*
X486540Y74557D01*
X486565Y74516D01*
X486616Y74475D01*
X486660Y74426D01*
X486702Y74404D01*
X486739Y74375D01*
X486801Y74354D01*
X486860Y74323D01*
X486914Y74315D01*
X486951Y74303D01*
X486991Y74304D01*
X487045Y74296D01*
X490855Y74296D01*
X490920Y74307D01*
G37*
G36*
X1009334Y32651D02*
X1009334Y32651D01*
X1009400Y32653D01*
X1009443Y32671D01*
X1009490Y32679D01*
X1009547Y32713D01*
X1009607Y32738D01*
X1009642Y32769D01*
X1009683Y32794D01*
X1009725Y32845D01*
X1009773Y32889D01*
X1009795Y32931D01*
X1009824Y32968D01*
X1009845Y33030D01*
X1009876Y33089D01*
X1009884Y33143D01*
X1009896Y33180D01*
X1009895Y33220D01*
X1009903Y33274D01*
X1009903Y35814D01*
X1009892Y35879D01*
X1009890Y35945D01*
X1009872Y35988D01*
X1009864Y36035D01*
X1009830Y36092D01*
X1009805Y36152D01*
X1009774Y36187D01*
X1009749Y36228D01*
X1009698Y36270D01*
X1009654Y36318D01*
X1009612Y36340D01*
X1009575Y36369D01*
X1009513Y36390D01*
X1009454Y36421D01*
X1009400Y36429D01*
X1009363Y36441D01*
X1009323Y36440D01*
X1009269Y36448D01*
X1005459Y36448D01*
X1005394Y36437D01*
X1005328Y36435D01*
X1005285Y36417D01*
X1005238Y36409D01*
X1005181Y36375D01*
X1005121Y36350D01*
X1005086Y36319D01*
X1005045Y36294D01*
X1005004Y36243D01*
X1004955Y36199D01*
X1004933Y36157D01*
X1004904Y36120D01*
X1004883Y36058D01*
X1004852Y35999D01*
X1004844Y35945D01*
X1004832Y35908D01*
X1004832Y35905D01*
X1004833Y35868D01*
X1004825Y35814D01*
X1004825Y33274D01*
X1004836Y33209D01*
X1004838Y33143D01*
X1004856Y33100D01*
X1004864Y33053D01*
X1004898Y32996D01*
X1004923Y32936D01*
X1004954Y32901D01*
X1004979Y32860D01*
X1005030Y32819D01*
X1005074Y32770D01*
X1005116Y32748D01*
X1005153Y32719D01*
X1005215Y32698D01*
X1005274Y32667D01*
X1005328Y32659D01*
X1005365Y32647D01*
X1005405Y32648D01*
X1005459Y32640D01*
X1009269Y32640D01*
X1009334Y32651D01*
G37*
G36*
X547054Y32651D02*
X547054Y32651D01*
X547120Y32653D01*
X547163Y32671D01*
X547210Y32679D01*
X547267Y32713D01*
X547327Y32738D01*
X547362Y32769D01*
X547403Y32794D01*
X547445Y32845D01*
X547493Y32889D01*
X547515Y32931D01*
X547544Y32968D01*
X547565Y33030D01*
X547596Y33089D01*
X547604Y33143D01*
X547616Y33180D01*
X547615Y33220D01*
X547623Y33274D01*
X547623Y35814D01*
X547612Y35879D01*
X547610Y35945D01*
X547592Y35988D01*
X547584Y36035D01*
X547550Y36092D01*
X547525Y36152D01*
X547494Y36187D01*
X547469Y36228D01*
X547418Y36270D01*
X547374Y36318D01*
X547332Y36340D01*
X547295Y36369D01*
X547233Y36390D01*
X547174Y36421D01*
X547120Y36429D01*
X547083Y36441D01*
X547043Y36440D01*
X546989Y36448D01*
X543179Y36448D01*
X543114Y36437D01*
X543048Y36435D01*
X543005Y36417D01*
X542958Y36409D01*
X542901Y36375D01*
X542841Y36350D01*
X542806Y36319D01*
X542765Y36294D01*
X542724Y36243D01*
X542675Y36199D01*
X542653Y36157D01*
X542624Y36120D01*
X542603Y36058D01*
X542572Y35999D01*
X542564Y35945D01*
X542552Y35908D01*
X542552Y35905D01*
X542553Y35868D01*
X542545Y35814D01*
X542545Y33274D01*
X542556Y33209D01*
X542558Y33143D01*
X542576Y33100D01*
X542584Y33053D01*
X542618Y32996D01*
X542643Y32936D01*
X542674Y32901D01*
X542699Y32860D01*
X542750Y32819D01*
X542794Y32770D01*
X542836Y32748D01*
X542873Y32719D01*
X542935Y32698D01*
X542994Y32667D01*
X543048Y32659D01*
X543085Y32647D01*
X543125Y32648D01*
X543179Y32640D01*
X546989Y32640D01*
X547054Y32651D01*
G37*
G36*
X1471614Y32651D02*
X1471614Y32651D01*
X1471680Y32653D01*
X1471723Y32671D01*
X1471770Y32679D01*
X1471827Y32713D01*
X1471887Y32738D01*
X1471922Y32769D01*
X1471963Y32794D01*
X1472005Y32845D01*
X1472053Y32889D01*
X1472075Y32931D01*
X1472104Y32968D01*
X1472125Y33030D01*
X1472156Y33089D01*
X1472164Y33143D01*
X1472176Y33180D01*
X1472175Y33220D01*
X1472183Y33274D01*
X1472183Y35814D01*
X1472172Y35879D01*
X1472170Y35945D01*
X1472152Y35988D01*
X1472144Y36035D01*
X1472110Y36092D01*
X1472085Y36152D01*
X1472054Y36187D01*
X1472029Y36228D01*
X1471978Y36270D01*
X1471934Y36318D01*
X1471892Y36340D01*
X1471855Y36369D01*
X1471793Y36390D01*
X1471734Y36421D01*
X1471680Y36429D01*
X1471643Y36441D01*
X1471603Y36440D01*
X1471549Y36448D01*
X1467739Y36448D01*
X1467674Y36437D01*
X1467608Y36435D01*
X1467565Y36417D01*
X1467518Y36409D01*
X1467461Y36375D01*
X1467401Y36350D01*
X1467366Y36319D01*
X1467325Y36294D01*
X1467284Y36243D01*
X1467235Y36199D01*
X1467213Y36157D01*
X1467184Y36120D01*
X1467163Y36058D01*
X1467132Y35999D01*
X1467124Y35945D01*
X1467112Y35908D01*
X1467112Y35905D01*
X1467113Y35868D01*
X1467105Y35814D01*
X1467105Y33274D01*
X1467116Y33209D01*
X1467118Y33143D01*
X1467136Y33100D01*
X1467144Y33053D01*
X1467178Y32996D01*
X1467203Y32936D01*
X1467234Y32901D01*
X1467259Y32860D01*
X1467310Y32819D01*
X1467354Y32770D01*
X1467396Y32748D01*
X1467433Y32719D01*
X1467495Y32698D01*
X1467554Y32667D01*
X1467608Y32659D01*
X1467645Y32647D01*
X1467685Y32648D01*
X1467739Y32640D01*
X1471549Y32640D01*
X1471614Y32651D01*
G37*
G36*
X84774Y32651D02*
X84774Y32651D01*
X84840Y32653D01*
X84883Y32671D01*
X84930Y32679D01*
X84987Y32713D01*
X85047Y32738D01*
X85082Y32769D01*
X85123Y32794D01*
X85165Y32845D01*
X85213Y32889D01*
X85235Y32931D01*
X85264Y32968D01*
X85285Y33030D01*
X85316Y33089D01*
X85324Y33143D01*
X85336Y33180D01*
X85335Y33220D01*
X85343Y33274D01*
X85343Y35814D01*
X85332Y35879D01*
X85330Y35945D01*
X85312Y35988D01*
X85304Y36035D01*
X85270Y36092D01*
X85245Y36152D01*
X85214Y36187D01*
X85189Y36228D01*
X85138Y36270D01*
X85094Y36318D01*
X85052Y36340D01*
X85015Y36369D01*
X84953Y36390D01*
X84894Y36421D01*
X84840Y36429D01*
X84803Y36441D01*
X84763Y36440D01*
X84709Y36448D01*
X80899Y36448D01*
X80834Y36437D01*
X80768Y36435D01*
X80725Y36417D01*
X80678Y36409D01*
X80621Y36375D01*
X80561Y36350D01*
X80526Y36319D01*
X80485Y36294D01*
X80444Y36243D01*
X80395Y36199D01*
X80373Y36157D01*
X80344Y36120D01*
X80323Y36058D01*
X80292Y35999D01*
X80284Y35945D01*
X80272Y35908D01*
X80272Y35905D01*
X80273Y35868D01*
X80265Y35814D01*
X80265Y33274D01*
X80276Y33209D01*
X80278Y33143D01*
X80296Y33100D01*
X80304Y33053D01*
X80338Y32996D01*
X80363Y32936D01*
X80394Y32901D01*
X80419Y32860D01*
X80470Y32819D01*
X80514Y32770D01*
X80556Y32748D01*
X80593Y32719D01*
X80655Y32698D01*
X80714Y32667D01*
X80768Y32659D01*
X80805Y32647D01*
X80845Y32648D01*
X80899Y32640D01*
X84709Y32640D01*
X84774Y32651D01*
G37*
G36*
X838900Y32397D02*
X838900Y32397D01*
X838966Y32399D01*
X839009Y32417D01*
X839056Y32425D01*
X839113Y32459D01*
X839173Y32484D01*
X839208Y32515D01*
X839249Y32540D01*
X839291Y32591D01*
X839339Y32635D01*
X839361Y32677D01*
X839390Y32714D01*
X839411Y32776D01*
X839442Y32835D01*
X839450Y32889D01*
X839462Y32926D01*
X839461Y32966D01*
X839469Y33020D01*
X839469Y35560D01*
X839458Y35625D01*
X839456Y35691D01*
X839438Y35734D01*
X839430Y35781D01*
X839396Y35838D01*
X839371Y35898D01*
X839340Y35933D01*
X839315Y35974D01*
X839264Y36016D01*
X839220Y36064D01*
X839178Y36086D01*
X839141Y36115D01*
X839079Y36136D01*
X839020Y36167D01*
X838966Y36175D01*
X838929Y36187D01*
X838889Y36186D01*
X838835Y36194D01*
X835025Y36194D01*
X834960Y36183D01*
X834894Y36181D01*
X834851Y36163D01*
X834804Y36155D01*
X834747Y36121D01*
X834687Y36096D01*
X834652Y36065D01*
X834611Y36040D01*
X834570Y35989D01*
X834521Y35945D01*
X834499Y35903D01*
X834470Y35866D01*
X834449Y35804D01*
X834418Y35745D01*
X834410Y35691D01*
X834398Y35654D01*
X834398Y35651D01*
X834399Y35614D01*
X834391Y35560D01*
X834391Y33020D01*
X834402Y32955D01*
X834404Y32889D01*
X834422Y32846D01*
X834430Y32799D01*
X834464Y32742D01*
X834489Y32682D01*
X834520Y32647D01*
X834545Y32606D01*
X834596Y32565D01*
X834640Y32516D01*
X834682Y32494D01*
X834719Y32465D01*
X834781Y32444D01*
X834840Y32413D01*
X834894Y32405D01*
X834931Y32393D01*
X834971Y32394D01*
X835025Y32386D01*
X838835Y32386D01*
X838900Y32397D01*
G37*
G36*
X1301180Y32397D02*
X1301180Y32397D01*
X1301246Y32399D01*
X1301289Y32417D01*
X1301336Y32425D01*
X1301393Y32459D01*
X1301453Y32484D01*
X1301488Y32515D01*
X1301529Y32540D01*
X1301571Y32591D01*
X1301619Y32635D01*
X1301641Y32677D01*
X1301670Y32714D01*
X1301691Y32776D01*
X1301722Y32835D01*
X1301730Y32889D01*
X1301742Y32926D01*
X1301741Y32966D01*
X1301749Y33020D01*
X1301749Y35560D01*
X1301738Y35625D01*
X1301736Y35691D01*
X1301718Y35734D01*
X1301710Y35781D01*
X1301676Y35838D01*
X1301651Y35898D01*
X1301620Y35933D01*
X1301595Y35974D01*
X1301544Y36016D01*
X1301500Y36064D01*
X1301458Y36086D01*
X1301421Y36115D01*
X1301359Y36136D01*
X1301300Y36167D01*
X1301246Y36175D01*
X1301209Y36187D01*
X1301169Y36186D01*
X1301115Y36194D01*
X1297305Y36194D01*
X1297240Y36183D01*
X1297174Y36181D01*
X1297131Y36163D01*
X1297084Y36155D01*
X1297027Y36121D01*
X1296967Y36096D01*
X1296932Y36065D01*
X1296891Y36040D01*
X1296850Y35989D01*
X1296801Y35945D01*
X1296779Y35903D01*
X1296750Y35866D01*
X1296729Y35804D01*
X1296698Y35745D01*
X1296690Y35691D01*
X1296678Y35654D01*
X1296678Y35651D01*
X1296679Y35614D01*
X1296671Y35560D01*
X1296671Y33020D01*
X1296682Y32955D01*
X1296684Y32889D01*
X1296702Y32846D01*
X1296710Y32799D01*
X1296744Y32742D01*
X1296769Y32682D01*
X1296800Y32647D01*
X1296825Y32606D01*
X1296876Y32565D01*
X1296920Y32516D01*
X1296962Y32494D01*
X1296999Y32465D01*
X1297061Y32444D01*
X1297120Y32413D01*
X1297174Y32405D01*
X1297211Y32393D01*
X1297251Y32394D01*
X1297305Y32386D01*
X1301115Y32386D01*
X1301180Y32397D01*
G37*
G36*
X376620Y32397D02*
X376620Y32397D01*
X376686Y32399D01*
X376729Y32417D01*
X376776Y32425D01*
X376833Y32459D01*
X376893Y32484D01*
X376928Y32515D01*
X376969Y32540D01*
X377011Y32591D01*
X377059Y32635D01*
X377081Y32677D01*
X377110Y32714D01*
X377131Y32776D01*
X377162Y32835D01*
X377170Y32889D01*
X377182Y32926D01*
X377181Y32966D01*
X377189Y33020D01*
X377189Y35560D01*
X377178Y35625D01*
X377176Y35691D01*
X377158Y35734D01*
X377150Y35781D01*
X377116Y35838D01*
X377091Y35898D01*
X377060Y35933D01*
X377035Y35974D01*
X376984Y36016D01*
X376940Y36064D01*
X376898Y36086D01*
X376861Y36115D01*
X376799Y36136D01*
X376740Y36167D01*
X376686Y36175D01*
X376649Y36187D01*
X376609Y36186D01*
X376555Y36194D01*
X372745Y36194D01*
X372680Y36183D01*
X372614Y36181D01*
X372571Y36163D01*
X372524Y36155D01*
X372467Y36121D01*
X372407Y36096D01*
X372372Y36065D01*
X372331Y36040D01*
X372290Y35989D01*
X372241Y35945D01*
X372219Y35903D01*
X372190Y35866D01*
X372169Y35804D01*
X372138Y35745D01*
X372130Y35691D01*
X372118Y35654D01*
X372118Y35651D01*
X372119Y35614D01*
X372111Y35560D01*
X372111Y33020D01*
X372122Y32955D01*
X372124Y32889D01*
X372142Y32846D01*
X372150Y32799D01*
X372184Y32742D01*
X372209Y32682D01*
X372240Y32647D01*
X372265Y32606D01*
X372316Y32565D01*
X372360Y32516D01*
X372402Y32494D01*
X372439Y32465D01*
X372501Y32444D01*
X372560Y32413D01*
X372614Y32405D01*
X372651Y32393D01*
X372691Y32394D01*
X372745Y32386D01*
X376555Y32386D01*
X376620Y32397D01*
G37*
G36*
X1763460Y32397D02*
X1763460Y32397D01*
X1763526Y32399D01*
X1763569Y32417D01*
X1763616Y32425D01*
X1763673Y32459D01*
X1763733Y32484D01*
X1763768Y32515D01*
X1763809Y32540D01*
X1763851Y32591D01*
X1763899Y32635D01*
X1763921Y32677D01*
X1763950Y32714D01*
X1763971Y32776D01*
X1764002Y32835D01*
X1764010Y32889D01*
X1764022Y32926D01*
X1764021Y32966D01*
X1764029Y33020D01*
X1764029Y35560D01*
X1764018Y35625D01*
X1764016Y35691D01*
X1763998Y35734D01*
X1763990Y35781D01*
X1763956Y35838D01*
X1763931Y35898D01*
X1763900Y35933D01*
X1763875Y35974D01*
X1763824Y36016D01*
X1763780Y36064D01*
X1763738Y36086D01*
X1763701Y36115D01*
X1763639Y36136D01*
X1763580Y36167D01*
X1763526Y36175D01*
X1763489Y36187D01*
X1763449Y36186D01*
X1763395Y36194D01*
X1759585Y36194D01*
X1759520Y36183D01*
X1759454Y36181D01*
X1759411Y36163D01*
X1759364Y36155D01*
X1759307Y36121D01*
X1759247Y36096D01*
X1759212Y36065D01*
X1759171Y36040D01*
X1759130Y35989D01*
X1759081Y35945D01*
X1759059Y35903D01*
X1759030Y35866D01*
X1759009Y35804D01*
X1758978Y35745D01*
X1758970Y35691D01*
X1758958Y35654D01*
X1758958Y35651D01*
X1758959Y35614D01*
X1758951Y35560D01*
X1758951Y33020D01*
X1758962Y32955D01*
X1758964Y32889D01*
X1758982Y32846D01*
X1758990Y32799D01*
X1759024Y32742D01*
X1759049Y32682D01*
X1759080Y32647D01*
X1759105Y32606D01*
X1759156Y32565D01*
X1759200Y32516D01*
X1759242Y32494D01*
X1759279Y32465D01*
X1759341Y32444D01*
X1759400Y32413D01*
X1759454Y32405D01*
X1759491Y32393D01*
X1759531Y32394D01*
X1759585Y32386D01*
X1763395Y32386D01*
X1763460Y32397D01*
G37*
D10*
X241300Y127000D03*
X215900Y127000D03*
D11*
X426718Y168404D02*
X432310Y168404D01*
X432310Y156716D01*
X426718Y156716D01*
X426718Y168404D01*
X426718Y158885D02*
X432310Y158885D01*
X432310Y161054D02*
X426718Y161054D01*
X426718Y163223D02*
X432310Y163223D01*
X432310Y165392D02*
X426718Y165392D01*
X426718Y167561D02*
X432310Y167561D01*
X421896Y168404D02*
X416304Y168404D01*
X421896Y168404D02*
X421896Y156716D01*
X416304Y156716D01*
X416304Y168404D01*
X416304Y158885D02*
X421896Y158885D01*
X421896Y161054D02*
X416304Y161054D01*
X416304Y163223D02*
X421896Y163223D01*
X421896Y165392D02*
X416304Y165392D01*
X416304Y167561D02*
X421896Y167561D01*
X411482Y168404D02*
X405890Y168404D01*
X411482Y168404D02*
X411482Y156716D01*
X405890Y156716D01*
X405890Y168404D01*
X405890Y158885D02*
X411482Y158885D01*
X411482Y161054D02*
X405890Y161054D01*
X405890Y163223D02*
X411482Y163223D01*
X411482Y165392D02*
X405890Y165392D01*
X405890Y167561D02*
X411482Y167561D01*
D12*
X301300Y51590D03*
X359100Y51590D03*
D11*
X377061Y40134D02*
X382653Y40134D01*
X382653Y28446D01*
X377061Y28446D01*
X377061Y40134D01*
X377061Y30615D02*
X382653Y30615D01*
X382653Y32784D02*
X377061Y32784D01*
X377061Y34953D02*
X382653Y34953D01*
X382653Y37122D02*
X377061Y37122D01*
X377061Y39291D02*
X382653Y39291D01*
X372239Y40134D02*
X366647Y40134D01*
X372239Y40134D02*
X372239Y28446D01*
X366647Y28446D01*
X366647Y40134D01*
X366647Y30615D02*
X372239Y30615D01*
X372239Y32784D02*
X366647Y32784D01*
X366647Y34953D02*
X372239Y34953D01*
X372239Y37122D02*
X366647Y37122D01*
X366647Y39291D02*
X372239Y39291D01*
D13*
X12700Y368300D03*
X393700Y12700D03*
D10*
X381000Y444500D03*
X381000Y419100D03*
X381000Y393700D03*
X381000Y368300D03*
X381000Y342900D03*
X381000Y317500D03*
X381000Y292100D03*
X381000Y266700D03*
X381000Y241300D03*
X381000Y215900D03*
X76200Y444500D03*
X76200Y419100D03*
X76200Y393700D03*
X76200Y368300D03*
X76200Y342900D03*
X76200Y317500D03*
X76200Y292100D03*
X76200Y266700D03*
X76200Y241300D03*
X76200Y215900D03*
D12*
X98100Y51590D03*
X155900Y51590D03*
D11*
X80393Y28700D02*
X74801Y28700D01*
X74801Y40388D01*
X80393Y40388D01*
X80393Y28700D01*
X80393Y30869D02*
X74801Y30869D01*
X74801Y33038D02*
X80393Y33038D01*
X80393Y35207D02*
X74801Y35207D01*
X74801Y37376D02*
X80393Y37376D01*
X80393Y39545D02*
X74801Y39545D01*
X85215Y28700D02*
X90807Y28700D01*
X85215Y28700D02*
X85215Y40388D01*
X90807Y40388D01*
X90807Y28700D01*
X90807Y30869D02*
X85215Y30869D01*
X85215Y33038D02*
X90807Y33038D01*
X90807Y35207D02*
X85215Y35207D01*
X85215Y37376D02*
X90807Y37376D01*
X90807Y39545D02*
X85215Y39545D01*
X34673Y82044D02*
X29081Y82044D01*
X34673Y82044D02*
X34673Y70356D01*
X29081Y70356D01*
X29081Y82044D01*
X29081Y72525D02*
X34673Y72525D01*
X34673Y74694D02*
X29081Y74694D01*
X29081Y76863D02*
X34673Y76863D01*
X34673Y79032D02*
X29081Y79032D01*
X29081Y81201D02*
X34673Y81201D01*
X24259Y82044D02*
X18667Y82044D01*
X24259Y82044D02*
X24259Y70356D01*
X18667Y70356D01*
X18667Y82044D01*
X18667Y72525D02*
X24259Y72525D01*
X24259Y74694D02*
X18667Y74694D01*
X18667Y76863D02*
X24259Y76863D01*
X24259Y79032D02*
X18667Y79032D01*
X18667Y81201D02*
X24259Y81201D01*
X27811Y143004D02*
X33403Y143004D01*
X33403Y131316D01*
X27811Y131316D01*
X27811Y143004D01*
X27811Y133485D02*
X33403Y133485D01*
X33403Y135654D02*
X27811Y135654D01*
X27811Y137823D02*
X33403Y137823D01*
X33403Y139992D02*
X27811Y139992D01*
X27811Y142161D02*
X33403Y142161D01*
X22989Y143004D02*
X17397Y143004D01*
X22989Y143004D02*
X22989Y131316D01*
X17397Y131316D01*
X17397Y143004D01*
X17397Y133485D02*
X22989Y133485D01*
X22989Y135654D02*
X17397Y135654D01*
X17397Y137823D02*
X22989Y137823D01*
X22989Y139992D02*
X17397Y139992D01*
X17397Y142161D02*
X22989Y142161D01*
D14*
X431800Y609600D03*
X431800Y25400D03*
X25400Y609600D03*
X25400Y25400D03*
D15*
X38100Y121906D03*
X38100Y151906D03*
D11*
X33403Y111254D02*
X27811Y111254D01*
X33403Y111254D02*
X33403Y99566D01*
X27811Y99566D01*
X27811Y111254D01*
X27811Y101735D02*
X33403Y101735D01*
X33403Y103904D02*
X27811Y103904D01*
X27811Y106073D02*
X33403Y106073D01*
X33403Y108242D02*
X27811Y108242D01*
X27811Y110411D02*
X33403Y110411D01*
X22989Y111254D02*
X17397Y111254D01*
X22989Y111254D02*
X22989Y99566D01*
X17397Y99566D01*
X17397Y111254D01*
X17397Y101735D02*
X22989Y101735D01*
X22989Y103904D02*
X17397Y103904D01*
X17397Y106073D02*
X22989Y106073D01*
X22989Y108242D02*
X17397Y108242D01*
X17397Y110411D02*
X22989Y110411D01*
D10*
X76200Y190500D03*
X381000Y190500D03*
X703580Y127000D03*
X678180Y127000D03*
D11*
X888998Y168404D02*
X894590Y168404D01*
X894590Y156716D01*
X888998Y156716D01*
X888998Y168404D01*
X888998Y158885D02*
X894590Y158885D01*
X894590Y161054D02*
X888998Y161054D01*
X888998Y163223D02*
X894590Y163223D01*
X894590Y165392D02*
X888998Y165392D01*
X888998Y167561D02*
X894590Y167561D01*
X884176Y168404D02*
X878584Y168404D01*
X884176Y168404D02*
X884176Y156716D01*
X878584Y156716D01*
X878584Y168404D01*
X878584Y158885D02*
X884176Y158885D01*
X884176Y161054D02*
X878584Y161054D01*
X878584Y163223D02*
X884176Y163223D01*
X884176Y165392D02*
X878584Y165392D01*
X878584Y167561D02*
X884176Y167561D01*
X873762Y168404D02*
X868170Y168404D01*
X873762Y168404D02*
X873762Y156716D01*
X868170Y156716D01*
X868170Y168404D01*
X868170Y158885D02*
X873762Y158885D01*
X873762Y161054D02*
X868170Y161054D01*
X868170Y163223D02*
X873762Y163223D01*
X873762Y165392D02*
X868170Y165392D01*
X868170Y167561D02*
X873762Y167561D01*
D12*
X763580Y51590D03*
X821380Y51590D03*
D11*
X839341Y40134D02*
X844933Y40134D01*
X844933Y28446D01*
X839341Y28446D01*
X839341Y40134D01*
X839341Y30615D02*
X844933Y30615D01*
X844933Y32784D02*
X839341Y32784D01*
X839341Y34953D02*
X844933Y34953D01*
X844933Y37122D02*
X839341Y37122D01*
X839341Y39291D02*
X844933Y39291D01*
X834519Y40134D02*
X828927Y40134D01*
X834519Y40134D02*
X834519Y28446D01*
X828927Y28446D01*
X828927Y40134D01*
X828927Y30615D02*
X834519Y30615D01*
X834519Y32784D02*
X828927Y32784D01*
X828927Y34953D02*
X834519Y34953D01*
X834519Y37122D02*
X828927Y37122D01*
X828927Y39291D02*
X834519Y39291D01*
D13*
X474980Y368300D03*
X855980Y12700D03*
D10*
X843280Y444500D03*
X843280Y419100D03*
X843280Y393700D03*
X843280Y368300D03*
X843280Y342900D03*
X843280Y317500D03*
X843280Y292100D03*
X843280Y266700D03*
X843280Y241300D03*
X843280Y215900D03*
X538480Y444500D03*
X538480Y419100D03*
X538480Y393700D03*
X538480Y368300D03*
X538480Y342900D03*
X538480Y317500D03*
X538480Y292100D03*
X538480Y266700D03*
X538480Y241300D03*
X538480Y215900D03*
D12*
X560380Y51590D03*
X618180Y51590D03*
D11*
X542673Y28700D02*
X537081Y28700D01*
X537081Y40388D01*
X542673Y40388D01*
X542673Y28700D01*
X542673Y30869D02*
X537081Y30869D01*
X537081Y33038D02*
X542673Y33038D01*
X542673Y35207D02*
X537081Y35207D01*
X537081Y37376D02*
X542673Y37376D01*
X542673Y39545D02*
X537081Y39545D01*
X547495Y28700D02*
X553087Y28700D01*
X547495Y28700D02*
X547495Y40388D01*
X553087Y40388D01*
X553087Y28700D01*
X553087Y30869D02*
X547495Y30869D01*
X547495Y33038D02*
X553087Y33038D01*
X553087Y35207D02*
X547495Y35207D01*
X547495Y37376D02*
X553087Y37376D01*
X553087Y39545D02*
X547495Y39545D01*
X496953Y82044D02*
X491361Y82044D01*
X496953Y82044D02*
X496953Y70356D01*
X491361Y70356D01*
X491361Y82044D01*
X491361Y72525D02*
X496953Y72525D01*
X496953Y74694D02*
X491361Y74694D01*
X491361Y76863D02*
X496953Y76863D01*
X496953Y79032D02*
X491361Y79032D01*
X491361Y81201D02*
X496953Y81201D01*
X486539Y82044D02*
X480947Y82044D01*
X486539Y82044D02*
X486539Y70356D01*
X480947Y70356D01*
X480947Y82044D01*
X480947Y72525D02*
X486539Y72525D01*
X486539Y74694D02*
X480947Y74694D01*
X480947Y76863D02*
X486539Y76863D01*
X486539Y79032D02*
X480947Y79032D01*
X480947Y81201D02*
X486539Y81201D01*
X490091Y143004D02*
X495683Y143004D01*
X495683Y131316D01*
X490091Y131316D01*
X490091Y143004D01*
X490091Y133485D02*
X495683Y133485D01*
X495683Y135654D02*
X490091Y135654D01*
X490091Y137823D02*
X495683Y137823D01*
X495683Y139992D02*
X490091Y139992D01*
X490091Y142161D02*
X495683Y142161D01*
X485269Y143004D02*
X479677Y143004D01*
X485269Y143004D02*
X485269Y131316D01*
X479677Y131316D01*
X479677Y143004D01*
X479677Y133485D02*
X485269Y133485D01*
X485269Y135654D02*
X479677Y135654D01*
X479677Y137823D02*
X485269Y137823D01*
X485269Y139992D02*
X479677Y139992D01*
X479677Y142161D02*
X485269Y142161D01*
D14*
X894080Y609600D03*
X894080Y25400D03*
X487680Y609600D03*
X487680Y25400D03*
D15*
X500380Y121906D03*
X500380Y151906D03*
D11*
X495683Y111254D02*
X490091Y111254D01*
X495683Y111254D02*
X495683Y99566D01*
X490091Y99566D01*
X490091Y111254D01*
X490091Y101735D02*
X495683Y101735D01*
X495683Y103904D02*
X490091Y103904D01*
X490091Y106073D02*
X495683Y106073D01*
X495683Y108242D02*
X490091Y108242D01*
X490091Y110411D02*
X495683Y110411D01*
X485269Y111254D02*
X479677Y111254D01*
X485269Y111254D02*
X485269Y99566D01*
X479677Y99566D01*
X479677Y111254D01*
X479677Y101735D02*
X485269Y101735D01*
X485269Y103904D02*
X479677Y103904D01*
X479677Y106073D02*
X485269Y106073D01*
X485269Y108242D02*
X479677Y108242D01*
X479677Y110411D02*
X485269Y110411D01*
D10*
X538480Y190500D03*
X843280Y190500D03*
X1165860Y127000D03*
X1140460Y127000D03*
D11*
X1351278Y168404D02*
X1356870Y168404D01*
X1356870Y156716D01*
X1351278Y156716D01*
X1351278Y168404D01*
X1351278Y158885D02*
X1356870Y158885D01*
X1356870Y161054D02*
X1351278Y161054D01*
X1351278Y163223D02*
X1356870Y163223D01*
X1356870Y165392D02*
X1351278Y165392D01*
X1351278Y167561D02*
X1356870Y167561D01*
X1346456Y168404D02*
X1340864Y168404D01*
X1346456Y168404D02*
X1346456Y156716D01*
X1340864Y156716D01*
X1340864Y168404D01*
X1340864Y158885D02*
X1346456Y158885D01*
X1346456Y161054D02*
X1340864Y161054D01*
X1340864Y163223D02*
X1346456Y163223D01*
X1346456Y165392D02*
X1340864Y165392D01*
X1340864Y167561D02*
X1346456Y167561D01*
X1336042Y168404D02*
X1330450Y168404D01*
X1336042Y168404D02*
X1336042Y156716D01*
X1330450Y156716D01*
X1330450Y168404D01*
X1330450Y158885D02*
X1336042Y158885D01*
X1336042Y161054D02*
X1330450Y161054D01*
X1330450Y163223D02*
X1336042Y163223D01*
X1336042Y165392D02*
X1330450Y165392D01*
X1330450Y167561D02*
X1336042Y167561D01*
D12*
X1225860Y51590D03*
X1283660Y51590D03*
D11*
X1301621Y40134D02*
X1307213Y40134D01*
X1307213Y28446D01*
X1301621Y28446D01*
X1301621Y40134D01*
X1301621Y30615D02*
X1307213Y30615D01*
X1307213Y32784D02*
X1301621Y32784D01*
X1301621Y34953D02*
X1307213Y34953D01*
X1307213Y37122D02*
X1301621Y37122D01*
X1301621Y39291D02*
X1307213Y39291D01*
X1296799Y40134D02*
X1291207Y40134D01*
X1296799Y40134D02*
X1296799Y28446D01*
X1291207Y28446D01*
X1291207Y40134D01*
X1291207Y30615D02*
X1296799Y30615D01*
X1296799Y32784D02*
X1291207Y32784D01*
X1291207Y34953D02*
X1296799Y34953D01*
X1296799Y37122D02*
X1291207Y37122D01*
X1291207Y39291D02*
X1296799Y39291D01*
D13*
X937260Y368300D03*
X1318260Y12700D03*
D10*
X1305560Y444500D03*
X1305560Y419100D03*
X1305560Y393700D03*
X1305560Y368300D03*
X1305560Y342900D03*
X1305560Y317500D03*
X1305560Y292100D03*
X1305560Y266700D03*
X1305560Y241300D03*
X1305560Y215900D03*
X1000760Y444500D03*
X1000760Y419100D03*
X1000760Y393700D03*
X1000760Y368300D03*
X1000760Y342900D03*
X1000760Y317500D03*
X1000760Y292100D03*
X1000760Y266700D03*
X1000760Y241300D03*
X1000760Y215900D03*
D12*
X1022660Y51590D03*
X1080460Y51590D03*
D11*
X1004953Y28700D02*
X999361Y28700D01*
X999361Y40388D01*
X1004953Y40388D01*
X1004953Y28700D01*
X1004953Y30869D02*
X999361Y30869D01*
X999361Y33038D02*
X1004953Y33038D01*
X1004953Y35207D02*
X999361Y35207D01*
X999361Y37376D02*
X1004953Y37376D01*
X1004953Y39545D02*
X999361Y39545D01*
X1009775Y28700D02*
X1015367Y28700D01*
X1009775Y28700D02*
X1009775Y40388D01*
X1015367Y40388D01*
X1015367Y28700D01*
X1015367Y30869D02*
X1009775Y30869D01*
X1009775Y33038D02*
X1015367Y33038D01*
X1015367Y35207D02*
X1009775Y35207D01*
X1009775Y37376D02*
X1015367Y37376D01*
X1015367Y39545D02*
X1009775Y39545D01*
X959233Y82044D02*
X953641Y82044D01*
X959233Y82044D02*
X959233Y70356D01*
X953641Y70356D01*
X953641Y82044D01*
X953641Y72525D02*
X959233Y72525D01*
X959233Y74694D02*
X953641Y74694D01*
X953641Y76863D02*
X959233Y76863D01*
X959233Y79032D02*
X953641Y79032D01*
X953641Y81201D02*
X959233Y81201D01*
X948819Y82044D02*
X943227Y82044D01*
X948819Y82044D02*
X948819Y70356D01*
X943227Y70356D01*
X943227Y82044D01*
X943227Y72525D02*
X948819Y72525D01*
X948819Y74694D02*
X943227Y74694D01*
X943227Y76863D02*
X948819Y76863D01*
X948819Y79032D02*
X943227Y79032D01*
X943227Y81201D02*
X948819Y81201D01*
X952371Y143004D02*
X957963Y143004D01*
X957963Y131316D01*
X952371Y131316D01*
X952371Y143004D01*
X952371Y133485D02*
X957963Y133485D01*
X957963Y135654D02*
X952371Y135654D01*
X952371Y137823D02*
X957963Y137823D01*
X957963Y139992D02*
X952371Y139992D01*
X952371Y142161D02*
X957963Y142161D01*
X947549Y143004D02*
X941957Y143004D01*
X947549Y143004D02*
X947549Y131316D01*
X941957Y131316D01*
X941957Y143004D01*
X941957Y133485D02*
X947549Y133485D01*
X947549Y135654D02*
X941957Y135654D01*
X941957Y137823D02*
X947549Y137823D01*
X947549Y139992D02*
X941957Y139992D01*
X941957Y142161D02*
X947549Y142161D01*
D14*
X1356360Y609600D03*
X1356360Y25400D03*
X949960Y609600D03*
X949960Y25400D03*
D15*
X962660Y121906D03*
X962660Y151906D03*
D11*
X957963Y111254D02*
X952371Y111254D01*
X957963Y111254D02*
X957963Y99566D01*
X952371Y99566D01*
X952371Y111254D01*
X952371Y101735D02*
X957963Y101735D01*
X957963Y103904D02*
X952371Y103904D01*
X952371Y106073D02*
X957963Y106073D01*
X957963Y108242D02*
X952371Y108242D01*
X952371Y110411D02*
X957963Y110411D01*
X947549Y111254D02*
X941957Y111254D01*
X947549Y111254D02*
X947549Y99566D01*
X941957Y99566D01*
X941957Y111254D01*
X941957Y101735D02*
X947549Y101735D01*
X947549Y103904D02*
X941957Y103904D01*
X941957Y106073D02*
X947549Y106073D01*
X947549Y108242D02*
X941957Y108242D01*
X941957Y110411D02*
X947549Y110411D01*
D10*
X1000760Y190500D03*
X1305560Y190500D03*
X1628140Y127000D03*
X1602740Y127000D03*
D11*
X1813558Y168404D02*
X1819150Y168404D01*
X1819150Y156716D01*
X1813558Y156716D01*
X1813558Y168404D01*
X1813558Y158885D02*
X1819150Y158885D01*
X1819150Y161054D02*
X1813558Y161054D01*
X1813558Y163223D02*
X1819150Y163223D01*
X1819150Y165392D02*
X1813558Y165392D01*
X1813558Y167561D02*
X1819150Y167561D01*
X1808736Y168404D02*
X1803144Y168404D01*
X1808736Y168404D02*
X1808736Y156716D01*
X1803144Y156716D01*
X1803144Y168404D01*
X1803144Y158885D02*
X1808736Y158885D01*
X1808736Y161054D02*
X1803144Y161054D01*
X1803144Y163223D02*
X1808736Y163223D01*
X1808736Y165392D02*
X1803144Y165392D01*
X1803144Y167561D02*
X1808736Y167561D01*
X1798322Y168404D02*
X1792730Y168404D01*
X1798322Y168404D02*
X1798322Y156716D01*
X1792730Y156716D01*
X1792730Y168404D01*
X1792730Y158885D02*
X1798322Y158885D01*
X1798322Y161054D02*
X1792730Y161054D01*
X1792730Y163223D02*
X1798322Y163223D01*
X1798322Y165392D02*
X1792730Y165392D01*
X1792730Y167561D02*
X1798322Y167561D01*
D12*
X1688140Y51590D03*
X1745940Y51590D03*
D11*
X1763901Y40134D02*
X1769493Y40134D01*
X1769493Y28446D01*
X1763901Y28446D01*
X1763901Y40134D01*
X1763901Y30615D02*
X1769493Y30615D01*
X1769493Y32784D02*
X1763901Y32784D01*
X1763901Y34953D02*
X1769493Y34953D01*
X1769493Y37122D02*
X1763901Y37122D01*
X1763901Y39291D02*
X1769493Y39291D01*
X1759079Y40134D02*
X1753487Y40134D01*
X1759079Y40134D02*
X1759079Y28446D01*
X1753487Y28446D01*
X1753487Y40134D01*
X1753487Y30615D02*
X1759079Y30615D01*
X1759079Y32784D02*
X1753487Y32784D01*
X1753487Y34953D02*
X1759079Y34953D01*
X1759079Y37122D02*
X1753487Y37122D01*
X1753487Y39291D02*
X1759079Y39291D01*
D13*
X1399540Y368300D03*
X1780540Y12700D03*
D10*
X1767840Y444500D03*
X1767840Y419100D03*
X1767840Y393700D03*
X1767840Y368300D03*
X1767840Y342900D03*
X1767840Y317500D03*
X1767840Y292100D03*
X1767840Y266700D03*
X1767840Y241300D03*
X1767840Y215900D03*
X1463040Y444500D03*
X1463040Y419100D03*
X1463040Y393700D03*
X1463040Y368300D03*
X1463040Y342900D03*
X1463040Y317500D03*
X1463040Y292100D03*
X1463040Y266700D03*
X1463040Y241300D03*
X1463040Y215900D03*
D12*
X1484940Y51590D03*
X1542740Y51590D03*
D11*
X1467233Y28700D02*
X1461641Y28700D01*
X1461641Y40388D01*
X1467233Y40388D01*
X1467233Y28700D01*
X1467233Y30869D02*
X1461641Y30869D01*
X1461641Y33038D02*
X1467233Y33038D01*
X1467233Y35207D02*
X1461641Y35207D01*
X1461641Y37376D02*
X1467233Y37376D01*
X1467233Y39545D02*
X1461641Y39545D01*
X1472055Y28700D02*
X1477647Y28700D01*
X1472055Y28700D02*
X1472055Y40388D01*
X1477647Y40388D01*
X1477647Y28700D01*
X1477647Y30869D02*
X1472055Y30869D01*
X1472055Y33038D02*
X1477647Y33038D01*
X1477647Y35207D02*
X1472055Y35207D01*
X1472055Y37376D02*
X1477647Y37376D01*
X1477647Y39545D02*
X1472055Y39545D01*
X1421513Y82044D02*
X1415921Y82044D01*
X1421513Y82044D02*
X1421513Y70356D01*
X1415921Y70356D01*
X1415921Y82044D01*
X1415921Y72525D02*
X1421513Y72525D01*
X1421513Y74694D02*
X1415921Y74694D01*
X1415921Y76863D02*
X1421513Y76863D01*
X1421513Y79032D02*
X1415921Y79032D01*
X1415921Y81201D02*
X1421513Y81201D01*
X1411099Y82044D02*
X1405507Y82044D01*
X1411099Y82044D02*
X1411099Y70356D01*
X1405507Y70356D01*
X1405507Y82044D01*
X1405507Y72525D02*
X1411099Y72525D01*
X1411099Y74694D02*
X1405507Y74694D01*
X1405507Y76863D02*
X1411099Y76863D01*
X1411099Y79032D02*
X1405507Y79032D01*
X1405507Y81201D02*
X1411099Y81201D01*
X1414651Y143004D02*
X1420243Y143004D01*
X1420243Y131316D01*
X1414651Y131316D01*
X1414651Y143004D01*
X1414651Y133485D02*
X1420243Y133485D01*
X1420243Y135654D02*
X1414651Y135654D01*
X1414651Y137823D02*
X1420243Y137823D01*
X1420243Y139992D02*
X1414651Y139992D01*
X1414651Y142161D02*
X1420243Y142161D01*
X1409829Y143004D02*
X1404237Y143004D01*
X1409829Y143004D02*
X1409829Y131316D01*
X1404237Y131316D01*
X1404237Y143004D01*
X1404237Y133485D02*
X1409829Y133485D01*
X1409829Y135654D02*
X1404237Y135654D01*
X1404237Y137823D02*
X1409829Y137823D01*
X1409829Y139992D02*
X1404237Y139992D01*
X1404237Y142161D02*
X1409829Y142161D01*
D14*
X1818640Y609600D03*
X1818640Y25400D03*
X1412240Y609600D03*
X1412240Y25400D03*
D15*
X1424940Y121906D03*
X1424940Y151906D03*
D11*
X1420243Y111254D02*
X1414651Y111254D01*
X1420243Y111254D02*
X1420243Y99566D01*
X1414651Y99566D01*
X1414651Y111254D01*
X1414651Y101735D02*
X1420243Y101735D01*
X1420243Y103904D02*
X1414651Y103904D01*
X1414651Y106073D02*
X1420243Y106073D01*
X1420243Y108242D02*
X1414651Y108242D01*
X1414651Y110411D02*
X1420243Y110411D01*
X1409829Y111254D02*
X1404237Y111254D01*
X1409829Y111254D02*
X1409829Y99566D01*
X1404237Y99566D01*
X1404237Y111254D01*
X1404237Y101735D02*
X1409829Y101735D01*
X1409829Y103904D02*
X1404237Y103904D01*
X1404237Y106073D02*
X1409829Y106073D01*
X1409829Y108242D02*
X1404237Y108242D01*
X1404237Y110411D02*
X1409829Y110411D01*
D10*
X1463040Y190500D03*
X1767840Y190500D03*
X241300Y792480D03*
X215900Y792480D03*
D11*
X426718Y833884D02*
X432310Y833884D01*
X432310Y822196D01*
X426718Y822196D01*
X426718Y833884D01*
X426718Y824365D02*
X432310Y824365D01*
X432310Y826534D02*
X426718Y826534D01*
X426718Y828703D02*
X432310Y828703D01*
X432310Y830872D02*
X426718Y830872D01*
X426718Y833041D02*
X432310Y833041D01*
X421896Y833884D02*
X416304Y833884D01*
X421896Y833884D02*
X421896Y822196D01*
X416304Y822196D01*
X416304Y833884D01*
X416304Y824365D02*
X421896Y824365D01*
X421896Y826534D02*
X416304Y826534D01*
X416304Y828703D02*
X421896Y828703D01*
X421896Y830872D02*
X416304Y830872D01*
X416304Y833041D02*
X421896Y833041D01*
X411482Y833884D02*
X405890Y833884D01*
X411482Y833884D02*
X411482Y822196D01*
X405890Y822196D01*
X405890Y833884D01*
X405890Y824365D02*
X411482Y824365D01*
X411482Y826534D02*
X405890Y826534D01*
X405890Y828703D02*
X411482Y828703D01*
X411482Y830872D02*
X405890Y830872D01*
X405890Y833041D02*
X411482Y833041D01*
D12*
X301300Y717070D03*
X359100Y717070D03*
D11*
X377061Y705614D02*
X382653Y705614D01*
X382653Y693926D01*
X377061Y693926D01*
X377061Y705614D01*
X377061Y696095D02*
X382653Y696095D01*
X382653Y698264D02*
X377061Y698264D01*
X377061Y700433D02*
X382653Y700433D01*
X382653Y702602D02*
X377061Y702602D01*
X377061Y704771D02*
X382653Y704771D01*
X372239Y705614D02*
X366647Y705614D01*
X372239Y705614D02*
X372239Y693926D01*
X366647Y693926D01*
X366647Y705614D01*
X366647Y696095D02*
X372239Y696095D01*
X372239Y698264D02*
X366647Y698264D01*
X366647Y700433D02*
X372239Y700433D01*
X372239Y702602D02*
X366647Y702602D01*
X366647Y704771D02*
X372239Y704771D01*
D13*
X12700Y1033780D03*
X393700Y678180D03*
D10*
X381000Y1109980D03*
X381000Y1084580D03*
X381000Y1059180D03*
X381000Y1033780D03*
X381000Y1008380D03*
X381000Y982980D03*
X381000Y957580D03*
X381000Y932180D03*
X381000Y906780D03*
X381000Y881380D03*
X76200Y1109980D03*
X76200Y1084580D03*
X76200Y1059180D03*
X76200Y1033780D03*
X76200Y1008380D03*
X76200Y982980D03*
X76200Y957580D03*
X76200Y932180D03*
X76200Y906780D03*
X76200Y881380D03*
D12*
X98100Y717070D03*
X155900Y717070D03*
D11*
X80393Y694180D02*
X74801Y694180D01*
X74801Y705868D01*
X80393Y705868D01*
X80393Y694180D01*
X80393Y696349D02*
X74801Y696349D01*
X74801Y698518D02*
X80393Y698518D01*
X80393Y700687D02*
X74801Y700687D01*
X74801Y702856D02*
X80393Y702856D01*
X80393Y705025D02*
X74801Y705025D01*
X85215Y694180D02*
X90807Y694180D01*
X85215Y694180D02*
X85215Y705868D01*
X90807Y705868D01*
X90807Y694180D01*
X90807Y696349D02*
X85215Y696349D01*
X85215Y698518D02*
X90807Y698518D01*
X90807Y700687D02*
X85215Y700687D01*
X85215Y702856D02*
X90807Y702856D01*
X90807Y705025D02*
X85215Y705025D01*
X34673Y747524D02*
X29081Y747524D01*
X34673Y747524D02*
X34673Y735836D01*
X29081Y735836D01*
X29081Y747524D01*
X29081Y738005D02*
X34673Y738005D01*
X34673Y740174D02*
X29081Y740174D01*
X29081Y742343D02*
X34673Y742343D01*
X34673Y744512D02*
X29081Y744512D01*
X29081Y746681D02*
X34673Y746681D01*
X24259Y747524D02*
X18667Y747524D01*
X24259Y747524D02*
X24259Y735836D01*
X18667Y735836D01*
X18667Y747524D01*
X18667Y738005D02*
X24259Y738005D01*
X24259Y740174D02*
X18667Y740174D01*
X18667Y742343D02*
X24259Y742343D01*
X24259Y744512D02*
X18667Y744512D01*
X18667Y746681D02*
X24259Y746681D01*
X27811Y808484D02*
X33403Y808484D01*
X33403Y796796D01*
X27811Y796796D01*
X27811Y808484D01*
X27811Y798965D02*
X33403Y798965D01*
X33403Y801134D02*
X27811Y801134D01*
X27811Y803303D02*
X33403Y803303D01*
X33403Y805472D02*
X27811Y805472D01*
X27811Y807641D02*
X33403Y807641D01*
X22989Y808484D02*
X17397Y808484D01*
X22989Y808484D02*
X22989Y796796D01*
X17397Y796796D01*
X17397Y808484D01*
X17397Y798965D02*
X22989Y798965D01*
X22989Y801134D02*
X17397Y801134D01*
X17397Y803303D02*
X22989Y803303D01*
X22989Y805472D02*
X17397Y805472D01*
X17397Y807641D02*
X22989Y807641D01*
D14*
X431800Y1275080D03*
X431800Y690880D03*
X25400Y1275080D03*
X25400Y690880D03*
D15*
X38100Y787386D03*
X38100Y817386D03*
D11*
X33403Y776734D02*
X27811Y776734D01*
X33403Y776734D02*
X33403Y765046D01*
X27811Y765046D01*
X27811Y776734D01*
X27811Y767215D02*
X33403Y767215D01*
X33403Y769384D02*
X27811Y769384D01*
X27811Y771553D02*
X33403Y771553D01*
X33403Y773722D02*
X27811Y773722D01*
X27811Y775891D02*
X33403Y775891D01*
X22989Y776734D02*
X17397Y776734D01*
X22989Y776734D02*
X22989Y765046D01*
X17397Y765046D01*
X17397Y776734D01*
X17397Y767215D02*
X22989Y767215D01*
X22989Y769384D02*
X17397Y769384D01*
X17397Y771553D02*
X22989Y771553D01*
X22989Y773722D02*
X17397Y773722D01*
X17397Y775891D02*
X22989Y775891D01*
D10*
X76200Y855980D03*
X381000Y855980D03*
X703580Y792480D03*
X678180Y792480D03*
D11*
X888998Y833884D02*
X894590Y833884D01*
X894590Y822196D01*
X888998Y822196D01*
X888998Y833884D01*
X888998Y824365D02*
X894590Y824365D01*
X894590Y826534D02*
X888998Y826534D01*
X888998Y828703D02*
X894590Y828703D01*
X894590Y830872D02*
X888998Y830872D01*
X888998Y833041D02*
X894590Y833041D01*
X884176Y833884D02*
X878584Y833884D01*
X884176Y833884D02*
X884176Y822196D01*
X878584Y822196D01*
X878584Y833884D01*
X878584Y824365D02*
X884176Y824365D01*
X884176Y826534D02*
X878584Y826534D01*
X878584Y828703D02*
X884176Y828703D01*
X884176Y830872D02*
X878584Y830872D01*
X878584Y833041D02*
X884176Y833041D01*
X873762Y833884D02*
X868170Y833884D01*
X873762Y833884D02*
X873762Y822196D01*
X868170Y822196D01*
X868170Y833884D01*
X868170Y824365D02*
X873762Y824365D01*
X873762Y826534D02*
X868170Y826534D01*
X868170Y828703D02*
X873762Y828703D01*
X873762Y830872D02*
X868170Y830872D01*
X868170Y833041D02*
X873762Y833041D01*
D12*
X763580Y717070D03*
X821380Y717070D03*
D11*
X839341Y705614D02*
X844933Y705614D01*
X844933Y693926D01*
X839341Y693926D01*
X839341Y705614D01*
X839341Y696095D02*
X844933Y696095D01*
X844933Y698264D02*
X839341Y698264D01*
X839341Y700433D02*
X844933Y700433D01*
X844933Y702602D02*
X839341Y702602D01*
X839341Y704771D02*
X844933Y704771D01*
X834519Y705614D02*
X828927Y705614D01*
X834519Y705614D02*
X834519Y693926D01*
X828927Y693926D01*
X828927Y705614D01*
X828927Y696095D02*
X834519Y696095D01*
X834519Y698264D02*
X828927Y698264D01*
X828927Y700433D02*
X834519Y700433D01*
X834519Y702602D02*
X828927Y702602D01*
X828927Y704771D02*
X834519Y704771D01*
D13*
X474980Y1033780D03*
X855980Y678180D03*
D10*
X843280Y1109980D03*
X843280Y1084580D03*
X843280Y1059180D03*
X843280Y1033780D03*
X843280Y1008380D03*
X843280Y982980D03*
X843280Y957580D03*
X843280Y932180D03*
X843280Y906780D03*
X843280Y881380D03*
X538480Y1109980D03*
X538480Y1084580D03*
X538480Y1059180D03*
X538480Y1033780D03*
X538480Y1008380D03*
X538480Y982980D03*
X538480Y957580D03*
X538480Y932180D03*
X538480Y906780D03*
X538480Y881380D03*
D12*
X560380Y717070D03*
X618180Y717070D03*
D11*
X542673Y694180D02*
X537081Y694180D01*
X537081Y705868D01*
X542673Y705868D01*
X542673Y694180D01*
X542673Y696349D02*
X537081Y696349D01*
X537081Y698518D02*
X542673Y698518D01*
X542673Y700687D02*
X537081Y700687D01*
X537081Y702856D02*
X542673Y702856D01*
X542673Y705025D02*
X537081Y705025D01*
X547495Y694180D02*
X553087Y694180D01*
X547495Y694180D02*
X547495Y705868D01*
X553087Y705868D01*
X553087Y694180D01*
X553087Y696349D02*
X547495Y696349D01*
X547495Y698518D02*
X553087Y698518D01*
X553087Y700687D02*
X547495Y700687D01*
X547495Y702856D02*
X553087Y702856D01*
X553087Y705025D02*
X547495Y705025D01*
X496953Y747524D02*
X491361Y747524D01*
X496953Y747524D02*
X496953Y735836D01*
X491361Y735836D01*
X491361Y747524D01*
X491361Y738005D02*
X496953Y738005D01*
X496953Y740174D02*
X491361Y740174D01*
X491361Y742343D02*
X496953Y742343D01*
X496953Y744512D02*
X491361Y744512D01*
X491361Y746681D02*
X496953Y746681D01*
X486539Y747524D02*
X480947Y747524D01*
X486539Y747524D02*
X486539Y735836D01*
X480947Y735836D01*
X480947Y747524D01*
X480947Y738005D02*
X486539Y738005D01*
X486539Y740174D02*
X480947Y740174D01*
X480947Y742343D02*
X486539Y742343D01*
X486539Y744512D02*
X480947Y744512D01*
X480947Y746681D02*
X486539Y746681D01*
X490091Y808484D02*
X495683Y808484D01*
X495683Y796796D01*
X490091Y796796D01*
X490091Y808484D01*
X490091Y798965D02*
X495683Y798965D01*
X495683Y801134D02*
X490091Y801134D01*
X490091Y803303D02*
X495683Y803303D01*
X495683Y805472D02*
X490091Y805472D01*
X490091Y807641D02*
X495683Y807641D01*
X485269Y808484D02*
X479677Y808484D01*
X485269Y808484D02*
X485269Y796796D01*
X479677Y796796D01*
X479677Y808484D01*
X479677Y798965D02*
X485269Y798965D01*
X485269Y801134D02*
X479677Y801134D01*
X479677Y803303D02*
X485269Y803303D01*
X485269Y805472D02*
X479677Y805472D01*
X479677Y807641D02*
X485269Y807641D01*
D14*
X894080Y1275080D03*
X894080Y690880D03*
X487680Y1275080D03*
X487680Y690880D03*
D15*
X500380Y787386D03*
X500380Y817386D03*
D11*
X495683Y776734D02*
X490091Y776734D01*
X495683Y776734D02*
X495683Y765046D01*
X490091Y765046D01*
X490091Y776734D01*
X490091Y767215D02*
X495683Y767215D01*
X495683Y769384D02*
X490091Y769384D01*
X490091Y771553D02*
X495683Y771553D01*
X495683Y773722D02*
X490091Y773722D01*
X490091Y775891D02*
X495683Y775891D01*
X485269Y776734D02*
X479677Y776734D01*
X485269Y776734D02*
X485269Y765046D01*
X479677Y765046D01*
X479677Y776734D01*
X479677Y767215D02*
X485269Y767215D01*
X485269Y769384D02*
X479677Y769384D01*
X479677Y771553D02*
X485269Y771553D01*
X485269Y773722D02*
X479677Y773722D01*
X479677Y775891D02*
X485269Y775891D01*
D10*
X538480Y855980D03*
X843280Y855980D03*
X1165860Y792480D03*
X1140460Y792480D03*
D11*
X1351278Y833884D02*
X1356870Y833884D01*
X1356870Y822196D01*
X1351278Y822196D01*
X1351278Y833884D01*
X1351278Y824365D02*
X1356870Y824365D01*
X1356870Y826534D02*
X1351278Y826534D01*
X1351278Y828703D02*
X1356870Y828703D01*
X1356870Y830872D02*
X1351278Y830872D01*
X1351278Y833041D02*
X1356870Y833041D01*
X1346456Y833884D02*
X1340864Y833884D01*
X1346456Y833884D02*
X1346456Y822196D01*
X1340864Y822196D01*
X1340864Y833884D01*
X1340864Y824365D02*
X1346456Y824365D01*
X1346456Y826534D02*
X1340864Y826534D01*
X1340864Y828703D02*
X1346456Y828703D01*
X1346456Y830872D02*
X1340864Y830872D01*
X1340864Y833041D02*
X1346456Y833041D01*
X1336042Y833884D02*
X1330450Y833884D01*
X1336042Y833884D02*
X1336042Y822196D01*
X1330450Y822196D01*
X1330450Y833884D01*
X1330450Y824365D02*
X1336042Y824365D01*
X1336042Y826534D02*
X1330450Y826534D01*
X1330450Y828703D02*
X1336042Y828703D01*
X1336042Y830872D02*
X1330450Y830872D01*
X1330450Y833041D02*
X1336042Y833041D01*
D12*
X1225860Y717070D03*
X1283660Y717070D03*
D11*
X1301621Y705614D02*
X1307213Y705614D01*
X1307213Y693926D01*
X1301621Y693926D01*
X1301621Y705614D01*
X1301621Y696095D02*
X1307213Y696095D01*
X1307213Y698264D02*
X1301621Y698264D01*
X1301621Y700433D02*
X1307213Y700433D01*
X1307213Y702602D02*
X1301621Y702602D01*
X1301621Y704771D02*
X1307213Y704771D01*
X1296799Y705614D02*
X1291207Y705614D01*
X1296799Y705614D02*
X1296799Y693926D01*
X1291207Y693926D01*
X1291207Y705614D01*
X1291207Y696095D02*
X1296799Y696095D01*
X1296799Y698264D02*
X1291207Y698264D01*
X1291207Y700433D02*
X1296799Y700433D01*
X1296799Y702602D02*
X1291207Y702602D01*
X1291207Y704771D02*
X1296799Y704771D01*
D13*
X937260Y1033780D03*
X1318260Y678180D03*
D10*
X1305560Y1109980D03*
X1305560Y1084580D03*
X1305560Y1059180D03*
X1305560Y1033780D03*
X1305560Y1008380D03*
X1305560Y982980D03*
X1305560Y957580D03*
X1305560Y932180D03*
X1305560Y906780D03*
X1305560Y881380D03*
X1000760Y1109980D03*
X1000760Y1084580D03*
X1000760Y1059180D03*
X1000760Y1033780D03*
X1000760Y1008380D03*
X1000760Y982980D03*
X1000760Y957580D03*
X1000760Y932180D03*
X1000760Y906780D03*
X1000760Y881380D03*
D12*
X1022660Y717070D03*
X1080460Y717070D03*
D11*
X1004953Y694180D02*
X999361Y694180D01*
X999361Y705868D01*
X1004953Y705868D01*
X1004953Y694180D01*
X1004953Y696349D02*
X999361Y696349D01*
X999361Y698518D02*
X1004953Y698518D01*
X1004953Y700687D02*
X999361Y700687D01*
X999361Y702856D02*
X1004953Y702856D01*
X1004953Y705025D02*
X999361Y705025D01*
X1009775Y694180D02*
X1015367Y694180D01*
X1009775Y694180D02*
X1009775Y705868D01*
X1015367Y705868D01*
X1015367Y694180D01*
X1015367Y696349D02*
X1009775Y696349D01*
X1009775Y698518D02*
X1015367Y698518D01*
X1015367Y700687D02*
X1009775Y700687D01*
X1009775Y702856D02*
X1015367Y702856D01*
X1015367Y705025D02*
X1009775Y705025D01*
X959233Y747524D02*
X953641Y747524D01*
X959233Y747524D02*
X959233Y735836D01*
X953641Y735836D01*
X953641Y747524D01*
X953641Y738005D02*
X959233Y738005D01*
X959233Y740174D02*
X953641Y740174D01*
X953641Y742343D02*
X959233Y742343D01*
X959233Y744512D02*
X953641Y744512D01*
X953641Y746681D02*
X959233Y746681D01*
X948819Y747524D02*
X943227Y747524D01*
X948819Y747524D02*
X948819Y735836D01*
X943227Y735836D01*
X943227Y747524D01*
X943227Y738005D02*
X948819Y738005D01*
X948819Y740174D02*
X943227Y740174D01*
X943227Y742343D02*
X948819Y742343D01*
X948819Y744512D02*
X943227Y744512D01*
X943227Y746681D02*
X948819Y746681D01*
X952371Y808484D02*
X957963Y808484D01*
X957963Y796796D01*
X952371Y796796D01*
X952371Y808484D01*
X952371Y798965D02*
X957963Y798965D01*
X957963Y801134D02*
X952371Y801134D01*
X952371Y803303D02*
X957963Y803303D01*
X957963Y805472D02*
X952371Y805472D01*
X952371Y807641D02*
X957963Y807641D01*
X947549Y808484D02*
X941957Y808484D01*
X947549Y808484D02*
X947549Y796796D01*
X941957Y796796D01*
X941957Y808484D01*
X941957Y798965D02*
X947549Y798965D01*
X947549Y801134D02*
X941957Y801134D01*
X941957Y803303D02*
X947549Y803303D01*
X947549Y805472D02*
X941957Y805472D01*
X941957Y807641D02*
X947549Y807641D01*
D14*
X1356360Y1275080D03*
X1356360Y690880D03*
X949960Y1275080D03*
X949960Y690880D03*
D15*
X962660Y787386D03*
X962660Y817386D03*
D11*
X957963Y776734D02*
X952371Y776734D01*
X957963Y776734D02*
X957963Y765046D01*
X952371Y765046D01*
X952371Y776734D01*
X952371Y767215D02*
X957963Y767215D01*
X957963Y769384D02*
X952371Y769384D01*
X952371Y771553D02*
X957963Y771553D01*
X957963Y773722D02*
X952371Y773722D01*
X952371Y775891D02*
X957963Y775891D01*
X947549Y776734D02*
X941957Y776734D01*
X947549Y776734D02*
X947549Y765046D01*
X941957Y765046D01*
X941957Y776734D01*
X941957Y767215D02*
X947549Y767215D01*
X947549Y769384D02*
X941957Y769384D01*
X941957Y771553D02*
X947549Y771553D01*
X947549Y773722D02*
X941957Y773722D01*
X941957Y775891D02*
X947549Y775891D01*
D10*
X1000760Y855980D03*
X1305560Y855980D03*
X1628140Y792480D03*
X1602740Y792480D03*
D11*
X1813558Y833884D02*
X1819150Y833884D01*
X1819150Y822196D01*
X1813558Y822196D01*
X1813558Y833884D01*
X1813558Y824365D02*
X1819150Y824365D01*
X1819150Y826534D02*
X1813558Y826534D01*
X1813558Y828703D02*
X1819150Y828703D01*
X1819150Y830872D02*
X1813558Y830872D01*
X1813558Y833041D02*
X1819150Y833041D01*
X1808736Y833884D02*
X1803144Y833884D01*
X1808736Y833884D02*
X1808736Y822196D01*
X1803144Y822196D01*
X1803144Y833884D01*
X1803144Y824365D02*
X1808736Y824365D01*
X1808736Y826534D02*
X1803144Y826534D01*
X1803144Y828703D02*
X1808736Y828703D01*
X1808736Y830872D02*
X1803144Y830872D01*
X1803144Y833041D02*
X1808736Y833041D01*
X1798322Y833884D02*
X1792730Y833884D01*
X1798322Y833884D02*
X1798322Y822196D01*
X1792730Y822196D01*
X1792730Y833884D01*
X1792730Y824365D02*
X1798322Y824365D01*
X1798322Y826534D02*
X1792730Y826534D01*
X1792730Y828703D02*
X1798322Y828703D01*
X1798322Y830872D02*
X1792730Y830872D01*
X1792730Y833041D02*
X1798322Y833041D01*
D12*
X1688140Y717070D03*
X1745940Y717070D03*
D11*
X1763901Y705614D02*
X1769493Y705614D01*
X1769493Y693926D01*
X1763901Y693926D01*
X1763901Y705614D01*
X1763901Y696095D02*
X1769493Y696095D01*
X1769493Y698264D02*
X1763901Y698264D01*
X1763901Y700433D02*
X1769493Y700433D01*
X1769493Y702602D02*
X1763901Y702602D01*
X1763901Y704771D02*
X1769493Y704771D01*
X1759079Y705614D02*
X1753487Y705614D01*
X1759079Y705614D02*
X1759079Y693926D01*
X1753487Y693926D01*
X1753487Y705614D01*
X1753487Y696095D02*
X1759079Y696095D01*
X1759079Y698264D02*
X1753487Y698264D01*
X1753487Y700433D02*
X1759079Y700433D01*
X1759079Y702602D02*
X1753487Y702602D01*
X1753487Y704771D02*
X1759079Y704771D01*
D13*
X1399540Y1033780D03*
X1780540Y678180D03*
D10*
X1767840Y1109980D03*
X1767840Y1084580D03*
X1767840Y1059180D03*
X1767840Y1033780D03*
X1767840Y1008380D03*
X1767840Y982980D03*
X1767840Y957580D03*
X1767840Y932180D03*
X1767840Y906780D03*
X1767840Y881380D03*
X1463040Y1109980D03*
X1463040Y1084580D03*
X1463040Y1059180D03*
X1463040Y1033780D03*
X1463040Y1008380D03*
X1463040Y982980D03*
X1463040Y957580D03*
X1463040Y932180D03*
X1463040Y906780D03*
X1463040Y881380D03*
D12*
X1484940Y717070D03*
X1542740Y717070D03*
D11*
X1467233Y694180D02*
X1461641Y694180D01*
X1461641Y705868D01*
X1467233Y705868D01*
X1467233Y694180D01*
X1467233Y696349D02*
X1461641Y696349D01*
X1461641Y698518D02*
X1467233Y698518D01*
X1467233Y700687D02*
X1461641Y700687D01*
X1461641Y702856D02*
X1467233Y702856D01*
X1467233Y705025D02*
X1461641Y705025D01*
X1472055Y694180D02*
X1477647Y694180D01*
X1472055Y694180D02*
X1472055Y705868D01*
X1477647Y705868D01*
X1477647Y694180D01*
X1477647Y696349D02*
X1472055Y696349D01*
X1472055Y698518D02*
X1477647Y698518D01*
X1477647Y700687D02*
X1472055Y700687D01*
X1472055Y702856D02*
X1477647Y702856D01*
X1477647Y705025D02*
X1472055Y705025D01*
X1421513Y747524D02*
X1415921Y747524D01*
X1421513Y747524D02*
X1421513Y735836D01*
X1415921Y735836D01*
X1415921Y747524D01*
X1415921Y738005D02*
X1421513Y738005D01*
X1421513Y740174D02*
X1415921Y740174D01*
X1415921Y742343D02*
X1421513Y742343D01*
X1421513Y744512D02*
X1415921Y744512D01*
X1415921Y746681D02*
X1421513Y746681D01*
X1411099Y747524D02*
X1405507Y747524D01*
X1411099Y747524D02*
X1411099Y735836D01*
X1405507Y735836D01*
X1405507Y747524D01*
X1405507Y738005D02*
X1411099Y738005D01*
X1411099Y740174D02*
X1405507Y740174D01*
X1405507Y742343D02*
X1411099Y742343D01*
X1411099Y744512D02*
X1405507Y744512D01*
X1405507Y746681D02*
X1411099Y746681D01*
X1414651Y808484D02*
X1420243Y808484D01*
X1420243Y796796D01*
X1414651Y796796D01*
X1414651Y808484D01*
X1414651Y798965D02*
X1420243Y798965D01*
X1420243Y801134D02*
X1414651Y801134D01*
X1414651Y803303D02*
X1420243Y803303D01*
X1420243Y805472D02*
X1414651Y805472D01*
X1414651Y807641D02*
X1420243Y807641D01*
X1409829Y808484D02*
X1404237Y808484D01*
X1409829Y808484D02*
X1409829Y796796D01*
X1404237Y796796D01*
X1404237Y808484D01*
X1404237Y798965D02*
X1409829Y798965D01*
X1409829Y801134D02*
X1404237Y801134D01*
X1404237Y803303D02*
X1409829Y803303D01*
X1409829Y805472D02*
X1404237Y805472D01*
X1404237Y807641D02*
X1409829Y807641D01*
D14*
X1818640Y1275080D03*
X1818640Y690880D03*
X1412240Y1275080D03*
X1412240Y690880D03*
D15*
X1424940Y787386D03*
X1424940Y817386D03*
D11*
X1420243Y776734D02*
X1414651Y776734D01*
X1420243Y776734D02*
X1420243Y765046D01*
X1414651Y765046D01*
X1414651Y776734D01*
X1414651Y767215D02*
X1420243Y767215D01*
X1420243Y769384D02*
X1414651Y769384D01*
X1414651Y771553D02*
X1420243Y771553D01*
X1420243Y773722D02*
X1414651Y773722D01*
X1414651Y775891D02*
X1420243Y775891D01*
X1409829Y776734D02*
X1404237Y776734D01*
X1409829Y776734D02*
X1409829Y765046D01*
X1404237Y765046D01*
X1404237Y776734D01*
X1404237Y767215D02*
X1409829Y767215D01*
X1409829Y769384D02*
X1404237Y769384D01*
X1404237Y771553D02*
X1409829Y771553D01*
X1409829Y773722D02*
X1404237Y773722D01*
X1404237Y775891D02*
X1409829Y775891D01*
D10*
X1463040Y855980D03*
X1767840Y855980D03*
D13*
X-26238Y1299210D03*
X1865198Y1299210D03*
D16*
X-35293Y63500D02*
X-35290Y63722D01*
X-35282Y63944D01*
X-35268Y64166D01*
X-35249Y64388D01*
X-35225Y64608D01*
X-35195Y64829D01*
X-35160Y65048D01*
X-35119Y65267D01*
X-35073Y65484D01*
X-35022Y65700D01*
X-34965Y65915D01*
X-34903Y66129D01*
X-34836Y66340D01*
X-34764Y66551D01*
X-34686Y66759D01*
X-34604Y66965D01*
X-34516Y67169D01*
X-34424Y67372D01*
X-34326Y67571D01*
X-34224Y67768D01*
X-34117Y67963D01*
X-34005Y68155D01*
X-33888Y68344D01*
X-33767Y68531D01*
X-33641Y68714D01*
X-33511Y68894D01*
X-33376Y69071D01*
X-33238Y69244D01*
X-33095Y69414D01*
X-32947Y69581D01*
X-32796Y69744D01*
X-32641Y69903D01*
X-32482Y70058D01*
X-32319Y70209D01*
X-32152Y70357D01*
X-31982Y70500D01*
X-31809Y70638D01*
X-31632Y70773D01*
X-31452Y70903D01*
X-31269Y71029D01*
X-31082Y71150D01*
X-30893Y71267D01*
X-30701Y71379D01*
X-30506Y71486D01*
X-30309Y71588D01*
X-30110Y71686D01*
X-29907Y71778D01*
X-29703Y71866D01*
X-29497Y71948D01*
X-29289Y72026D01*
X-29078Y72098D01*
X-28867Y72165D01*
X-28653Y72227D01*
X-28438Y72284D01*
X-28222Y72335D01*
X-28005Y72381D01*
X-27786Y72422D01*
X-27567Y72457D01*
X-27346Y72487D01*
X-27126Y72511D01*
X-26904Y72530D01*
X-26682Y72544D01*
X-26460Y72552D01*
X-26238Y72555D01*
X-26016Y72552D01*
X-25794Y72544D01*
X-25572Y72530D01*
X-25350Y72511D01*
X-25130Y72487D01*
X-24909Y72457D01*
X-24690Y72422D01*
X-24471Y72381D01*
X-24254Y72335D01*
X-24038Y72284D01*
X-23823Y72227D01*
X-23609Y72165D01*
X-23398Y72098D01*
X-23187Y72026D01*
X-22979Y71948D01*
X-22773Y71866D01*
X-22569Y71778D01*
X-22366Y71686D01*
X-22167Y71588D01*
X-21970Y71486D01*
X-21775Y71379D01*
X-21583Y71267D01*
X-21394Y71150D01*
X-21207Y71029D01*
X-21024Y70903D01*
X-20844Y70773D01*
X-20667Y70638D01*
X-20494Y70500D01*
X-20324Y70357D01*
X-20157Y70209D01*
X-19994Y70058D01*
X-19835Y69903D01*
X-19680Y69744D01*
X-19529Y69581D01*
X-19381Y69414D01*
X-19238Y69244D01*
X-19100Y69071D01*
X-18965Y68894D01*
X-18835Y68714D01*
X-18709Y68531D01*
X-18588Y68344D01*
X-18471Y68155D01*
X-18359Y67963D01*
X-18252Y67768D01*
X-18150Y67571D01*
X-18052Y67372D01*
X-17960Y67169D01*
X-17872Y66965D01*
X-17790Y66759D01*
X-17712Y66551D01*
X-17640Y66340D01*
X-17573Y66129D01*
X-17511Y65915D01*
X-17454Y65700D01*
X-17403Y65484D01*
X-17357Y65267D01*
X-17316Y65048D01*
X-17281Y64829D01*
X-17251Y64608D01*
X-17227Y64388D01*
X-17208Y64166D01*
X-17194Y63944D01*
X-17186Y63722D01*
X-17183Y63500D01*
X-17186Y63278D01*
X-17194Y63056D01*
X-17208Y62834D01*
X-17227Y62612D01*
X-17251Y62392D01*
X-17281Y62171D01*
X-17316Y61952D01*
X-17357Y61733D01*
X-17403Y61516D01*
X-17454Y61300D01*
X-17511Y61085D01*
X-17573Y60871D01*
X-17640Y60660D01*
X-17712Y60449D01*
X-17790Y60241D01*
X-17872Y60035D01*
X-17960Y59831D01*
X-18052Y59628D01*
X-18150Y59429D01*
X-18252Y59232D01*
X-18359Y59037D01*
X-18471Y58845D01*
X-18588Y58656D01*
X-18709Y58469D01*
X-18835Y58286D01*
X-18965Y58106D01*
X-19100Y57929D01*
X-19238Y57756D01*
X-19381Y57586D01*
X-19529Y57419D01*
X-19680Y57256D01*
X-19835Y57097D01*
X-19994Y56942D01*
X-20157Y56791D01*
X-20324Y56643D01*
X-20494Y56500D01*
X-20667Y56362D01*
X-20844Y56227D01*
X-21024Y56097D01*
X-21207Y55971D01*
X-21394Y55850D01*
X-21583Y55733D01*
X-21775Y55621D01*
X-21970Y55514D01*
X-22167Y55412D01*
X-22366Y55314D01*
X-22569Y55222D01*
X-22773Y55134D01*
X-22979Y55052D01*
X-23187Y54974D01*
X-23398Y54902D01*
X-23609Y54835D01*
X-23823Y54773D01*
X-24038Y54716D01*
X-24254Y54665D01*
X-24471Y54619D01*
X-24690Y54578D01*
X-24909Y54543D01*
X-25130Y54513D01*
X-25350Y54489D01*
X-25572Y54470D01*
X-25794Y54456D01*
X-26016Y54448D01*
X-26238Y54445D01*
X-26460Y54448D01*
X-26682Y54456D01*
X-26904Y54470D01*
X-27126Y54489D01*
X-27346Y54513D01*
X-27567Y54543D01*
X-27786Y54578D01*
X-28005Y54619D01*
X-28222Y54665D01*
X-28438Y54716D01*
X-28653Y54773D01*
X-28867Y54835D01*
X-29078Y54902D01*
X-29289Y54974D01*
X-29497Y55052D01*
X-29703Y55134D01*
X-29907Y55222D01*
X-30110Y55314D01*
X-30309Y55412D01*
X-30506Y55514D01*
X-30701Y55621D01*
X-30893Y55733D01*
X-31082Y55850D01*
X-31269Y55971D01*
X-31452Y56097D01*
X-31632Y56227D01*
X-31809Y56362D01*
X-31982Y56500D01*
X-32152Y56643D01*
X-32319Y56791D01*
X-32482Y56942D01*
X-32641Y57097D01*
X-32796Y57256D01*
X-32947Y57419D01*
X-33095Y57586D01*
X-33238Y57756D01*
X-33376Y57929D01*
X-33511Y58106D01*
X-33641Y58286D01*
X-33767Y58469D01*
X-33888Y58656D01*
X-34005Y58845D01*
X-34117Y59037D01*
X-34224Y59232D01*
X-34326Y59429D01*
X-34424Y59628D01*
X-34516Y59831D01*
X-34604Y60035D01*
X-34686Y60241D01*
X-34764Y60449D01*
X-34836Y60660D01*
X-34903Y60871D01*
X-34965Y61085D01*
X-35022Y61300D01*
X-35073Y61516D01*
X-35119Y61733D01*
X-35160Y61952D01*
X-35195Y62171D01*
X-35225Y62392D01*
X-35249Y62612D01*
X-35268Y62834D01*
X-35282Y63056D01*
X-35290Y63278D01*
X-35293Y63500D01*
D17*
X-26238Y63500D03*
M02*
