M48
;GenerationSoftware,Autodesk,EAGLE,9.6.2*%
;CreationDate,2023-02-27T17:46:24Z*%
FMAT,2
ICI,OFF
METRIC,TZ,000.000
T5C0.305
T4C0.650
T3C0.850
T2C1.016
T1C3.048
%
G90
M71
T1
X94996Y127508
X94996Y69088
X141224Y127508
X141224Y69088
X181864Y127508
X181864Y60960
X43180Y60960
X43180Y2540
X2540Y60960
X2540Y2540
X181864Y2540
X141224Y60960
X141224Y2540
X135636Y127508
X89408Y127508
X89408Y69088
X89408Y60960
X89408Y2540
X48768Y60960
X48768Y2540
X48768Y127508
X48768Y69088
X135636Y69088
X43180Y127508
X43180Y69088
X2540Y127508
X135636Y60960
X135636Y2540
X94996Y60960
X94996Y2540
X2540Y69088
X181864Y69088
T2
X7620Y44450
X84328Y85598
X116586Y79248
X114046Y79248
X130556Y110998
X130556Y108458
X130556Y105918
X130556Y103378
X130556Y100838
X130556Y98298
X130556Y95758
X130556Y93218
X130556Y90678
X130556Y88138
X100076Y110998
X100076Y108458
X100076Y105918
X100076Y103378
X100076Y100838
X100076Y98298
X100076Y95758
X176784Y85598
X100076Y93218
X100076Y90678
X100076Y88138
X100076Y85598
X130556Y85598
X162814Y79248
X160274Y79248
X176784Y110998
X176784Y108458
X176784Y105918
X176784Y103378
X176784Y100838
X176784Y98298
X176784Y95758
X176784Y93218
X176784Y90678
X176784Y88138
X146304Y110998
X146304Y108458
X146304Y105918
X146304Y103378
X146304Y100838
X146304Y98298
X146304Y95758
X146304Y93218
X146304Y90678
X146304Y88138
X146304Y85598
X24130Y12700
X21590Y12700
X38100Y44450
X38100Y41910
X38100Y39370
X38100Y36830
X38100Y34290
X38100Y31750
X38100Y29210
X38100Y26670
X38100Y24130
X38100Y21590
X7620Y41910
X7620Y39370
X7620Y36830
X7620Y34290
X7620Y31750
X7620Y29210
X7620Y26670
X7620Y24130
X7620Y21590
X7620Y19050
X38100Y19050
X70358Y12700
X67818Y12700
X84328Y44450
X84328Y41910
X84328Y39370
X84328Y36830
X84328Y34290
X84328Y31750
X84328Y29210
X84328Y26670
X84328Y24130
X84328Y21590
X53848Y44450
X53848Y41910
X53848Y39370
X53848Y36830
X53848Y34290
X53848Y31750
X53848Y29210
X53848Y26670
X53848Y24130
X53848Y21590
X53848Y19050
X84328Y19050
X116586Y12700
X114046Y12700
X130556Y44450
X130556Y41910
X130556Y39370
X130556Y36830
X130556Y34290
X130556Y31750
X130556Y29210
X130556Y26670
X130556Y24130
X130556Y21590
X100076Y44450
X100076Y41910
X100076Y39370
X100076Y36830
X100076Y34290
X100076Y31750
X100076Y29210
X100076Y26670
X100076Y24130
X100076Y21590
X100076Y19050
X130556Y19050
X162814Y12700
X160274Y12700
X176784Y44450
X176784Y41910
X176784Y39370
X176784Y36830
X176784Y34290
X176784Y31750
X176784Y29210
X176784Y26670
X176784Y24130
X176784Y21590
X146304Y44450
X146304Y41910
X146304Y39370
X146304Y36830
X146304Y34290
X146304Y31750
X146304Y29210
X146304Y26670
X146304Y24130
X146304Y21590
X146304Y19050
X176784Y19050
X24130Y79248
X21590Y79248
X38100Y110998
X38100Y108458
X38100Y105918
X38100Y103378
X38100Y100838
X38100Y98298
X38100Y95758
X38100Y93218
X38100Y90678
X38100Y88138
X7620Y110998
X7620Y108458
X7620Y105918
X7620Y103378
X7620Y100838
X7620Y98298
X7620Y95758
X7620Y93218
X7620Y90678
X7620Y88138
X7620Y85598
X38100Y85598
X70358Y79248
X67818Y79248
X84328Y110998
X84328Y108458
X84328Y105918
X84328Y103378
X84328Y100838
X84328Y98298
X84328Y95758
X84328Y93218
X84328Y90678
X84328Y88138
X53848Y110998
X53848Y108458
X53848Y105918
X53848Y103378
X53848Y100838
X53848Y98298
X53848Y95758
X53848Y93218
X53848Y90678
X53848Y88138
X53848Y85598
T3
X142494Y12191
X50038Y12191
X50038Y15191
X96266Y12191
X3810Y12191
X3810Y15191
X142494Y81739
X96266Y15191
X142494Y15191
X3810Y78739
X3810Y81739
X50038Y78739
X50038Y81739
X96266Y81739
X96266Y78739
X142494Y78739
T4
X122586Y5159
X128366Y5159
X102266Y5159
X108046Y5159
X168814Y5159
X174594Y5159
X154274Y5159
X30130Y71707
X76358Y5159
X9810Y71707
X15590Y71707
X30130Y5159
X35910Y5159
X76358Y71707
X82138Y71707
X56038Y71707
X61818Y71707
X9810Y5159
X15590Y5159
X82138Y5159
X128366Y71707
X102266Y71707
X108046Y71707
X148494Y5159
X56038Y5159
X35910Y71707
X168814Y71707
X174594Y71707
X148494Y71707
X154274Y71707
X61818Y5159
X122586Y71707
T5
X58540Y13082
X56388Y1270
X61468Y1270
X57861Y15900
X47244Y14605
X53958Y14461
X58928Y9881
X65398Y9703
X70739Y19431
X70739Y20320
X46863Y9779
X47600Y5055
X65278Y31115
X48285Y16180
X53848Y16180
X46838Y8076
X60325Y16002
X62103Y17755
X105207Y15342
X101752Y20244
X132842Y14224
X131318Y3429
X112014Y24130
X129286Y12065
X107696Y41148
X101371Y12116
X118364Y25908
X118364Y24511
X106172Y15367
X134366Y8636
X131826Y8636
X108966Y12192
X112014Y20066
X110109Y27178
X126797Y23673
X109220Y41148
X110871Y41148
X116332Y5715
X132207Y18186
X129159Y43815
X136906Y33020
X136906Y26670
X136906Y20320
X136906Y14097
X115316Y3810
X120396Y3810
X93726Y26670
X129032Y41275
X105918Y25019
X122174Y23241
X124130Y25400
X127254Y27432
X94996Y44450
X99085Y10211
X93624Y12243
X94259Y15291
X100101Y15291
X136906Y9017
X93751Y30505
X121666Y44450
X116586Y44450
X96164Y16713
X133960Y12725
X135636Y44450
X110236Y3810
X110439Y7112
X112268Y41148
X113792Y41148
X108966Y38100
X108966Y31750
X124206Y38100
X124206Y33020
X124206Y29210
X106426Y31750
X106426Y36830
X117221Y27178
X117221Y23495
X119507Y23241
X115443Y25400
X115443Y27178
X115443Y23495
X120777Y23241
X98806Y38100
X98806Y40640
X122809Y21844
X119736Y17501
X123876Y19380
X124562Y16256
X126187Y17653
X127813Y22454
X107188Y20447
X105537Y12827
X125476Y12624
X120142Y11074
X123723Y8992
X128651Y7366
X120244Y7010
X101879Y7290
X129311Y14986
X109576Y15037
X120371Y15062
X120117Y13691
X122504Y12649
X103530Y26441
X95250Y35560
X103403Y30251
X134247Y9660
X115037Y30201
X122555Y25654
X122555Y26543
X122555Y24638
X121310Y32639
X122149Y32639
X122961Y32639
X98298Y20879
X93726Y20955
X135255Y18288
X115062Y44196
X122936Y13589
X125603Y23114
X105537Y20447
X125476Y9881
X119006Y9754
X133350Y18288
X134493Y14478
X122936Y1270
X128016Y1270
X120815Y13335
X121920Y13335
X111455Y19431
X125171Y18085
X110490Y16891
X126949Y16942
X96825Y31166
X106553Y27178
X102870Y27178
X127127Y22479
X109322Y22377
X109982Y33909
X95225Y32868
X129235Y22936
X126492Y23012
X133096Y43180
X133096Y40386
X103378Y13081
X104768Y13082
X102616Y1270
X107696Y1270
X104089Y15900
X93472Y14605
X100186Y14461
X105156Y9881
X111626Y9703
X116967Y19431
X116967Y20320
X93091Y9779
X93828Y5055
X111506Y31115
X94513Y16180
X100076Y16180
X93066Y8076
X106553Y16002
X108331Y17755
X151435Y15342
X147980Y20244
X179070Y14224
X177546Y3429
X158242Y24130
X175514Y12065
X153924Y41148
X147599Y12116
X164592Y25908
X164592Y24511
X152400Y15367
X180594Y8636
X178054Y8636
X155194Y12192
X158242Y20066
X156337Y27178
X173025Y23673
X155448Y41148
X157099Y41148
X162560Y5715
X178435Y18186
X175387Y43815
X183134Y33020
X183134Y26670
X183134Y20320
X183134Y14097
X161544Y3810
X166624Y3810
X139954Y26670
X175260Y41275
X152146Y25019
X168402Y23241
X170358Y25400
X173482Y27432
X141224Y44450
X145313Y10211
X139852Y12243
X140487Y15291
X146329Y15291
X183134Y9017
X139979Y30505
X167894Y44450
X162814Y44450
X142392Y16713
X180188Y12725
X181864Y44450
X156464Y3810
X156667Y7112
X158496Y41148
X160020Y41148
X155194Y38100
X155194Y31750
X170434Y38100
X170434Y33020
X170434Y29210
X152654Y31750
X152654Y36830
X163449Y27178
X163449Y23495
X165735Y23241
X161671Y25400
X161671Y27178
X161671Y23495
X167005Y23241
X145034Y38100
X145034Y40640
X169037Y21844
X165964Y17501
X170104Y19380
X170790Y16256
X172415Y17653
X174041Y22454
X153416Y20447
X151765Y12827
X171704Y12624
X166370Y11074
X169951Y8992
X174879Y7366
X166472Y7010
X148107Y7290
X175539Y14986
X155804Y15037
X166599Y15062
X166345Y13691
X168732Y12649
X149758Y26441
X141478Y35560
X149631Y30251
X180475Y9660
X161265Y30201
X168783Y25654
X168783Y26543
X168783Y24638
X167538Y32639
X168377Y32639
X169189Y32639
X144526Y20879
X139954Y20955
X181483Y18288
X161290Y44196
X169164Y13589
X171831Y23114
X151765Y20447
X171704Y9881
X165234Y9754
X179578Y18288
X180721Y14478
X169164Y1270
X174244Y1270
X167043Y13335
X168148Y13335
X157683Y19431
X171399Y18085
X156718Y16891
X173177Y16942
X143053Y31166
X152781Y27178
X149098Y27178
X173355Y22479
X155550Y22377
X156210Y33909
X141453Y32868
X175463Y22936
X172720Y23012
X179324Y43180
X179324Y40386
X149606Y13081
X150996Y13082
X148844Y1270
X153924Y1270
X150317Y15900
X139700Y14605
X146414Y14461
X151384Y9881
X157854Y9703
X163195Y19431
X163195Y20320
X139319Y9779
X140056Y5055
X157734Y31115
X140741Y16180
X146304Y16180
X139294Y8076
X152781Y16002
X154559Y17755
X12751Y81890
X9296Y86792
X40386Y80772
X38862Y69977
X19558Y90678
X36830Y78613
X15240Y107696
X8915Y78664
X25908Y92456
X25908Y91059
X13716Y81915
X41910Y75184
X39370Y75184
X16510Y78740
X19558Y86614
X17653Y93726
X34341Y90221
X16764Y107696
X18415Y107696
X23876Y72263
X39751Y84734
X36703Y110363
X44450Y99568
X44450Y93218
X44450Y86868
X44450Y80645
X22860Y70358
X27940Y70358
X1270Y93218
X36576Y107823
X13462Y91567
X29718Y89789
X31674Y91948
X34798Y93980
X2540Y110998
X6629Y76759
X1168Y78791
X1803Y81839
X7645Y81839
X44450Y75565
X1295Y97053
X29210Y110998
X24130Y110998
X3708Y83261
X41504Y79273
X43180Y110998
X17780Y70358
X17983Y73660
X19812Y107696
X21336Y107696
X16510Y104648
X16510Y98298
X31750Y104648
X31750Y99568
X31750Y95758
X13970Y98298
X13970Y103378
X24765Y93726
X24765Y90043
X27051Y89789
X22987Y91948
X22987Y93726
X22987Y90043
X28321Y89789
X6350Y104648
X6350Y107188
X30353Y88392
X27280Y84049
X31420Y85928
X32106Y82804
X33731Y84201
X35357Y89002
X14732Y86995
X13081Y79375
X33020Y79172
X27686Y77622
X31267Y75540
X36195Y73914
X27788Y73558
X9423Y73838
X36855Y81534
X17120Y81585
X27915Y81610
X27661Y80239
X30048Y79197
X11074Y92989
X2794Y102108
X10947Y96799
X41791Y76208
X22581Y96749
X30099Y92202
X30099Y93091
X30099Y91186
X28854Y99187
X29693Y99187
X30505Y99187
X5842Y87427
X1270Y87503
X42799Y84836
X22606Y110744
X30480Y80137
X33147Y89662
X13081Y86995
X33020Y76429
X26550Y76302
X40894Y84836
X42037Y81026
X30480Y67818
X35560Y67818
X28359Y79883
X29464Y79883
X18999Y85979
X32715Y84633
X18034Y83439
X34493Y83490
X4369Y97714
X14097Y93726
X10414Y93726
X34671Y89027
X16866Y88925
X17526Y100457
X2769Y99416
X36779Y89484
X34036Y89560
X40640Y109728
X40640Y106934
X10922Y79629
X12312Y79630
X10160Y67818
X15240Y67818
X11633Y82448
X1016Y81153
X7730Y81009
X12700Y76429
X19170Y76251
X24511Y85979
X48768Y44450
X635Y76327
X1372Y71603
X19050Y97663
X2057Y82728
X7620Y82728
X610Y74624
X14097Y82550
X15875Y84303
X58979Y81890
X55524Y86792
X86614Y80772
X85090Y69977
X65786Y90678
X83058Y78613
X61468Y107696
X55143Y78664
X72136Y92456
X72136Y91059
X59944Y81915
X88138Y75184
X85598Y75184
X62738Y78740
X65786Y86614
X63881Y93726
X80569Y90221
X62992Y107696
X64643Y107696
X70104Y72263
X85979Y84734
X82931Y110363
X90678Y99568
X90678Y93218
X90678Y86868
X90678Y80645
X69088Y70358
X74168Y70358
X47498Y93218
X82804Y107823
X59690Y91567
X75946Y89789
X77902Y91948
X81026Y93980
X48768Y110998
X52857Y76759
X47396Y78791
X48031Y81839
X53873Y81839
X90678Y75565
X47523Y97053
X75438Y110998
X70358Y110998
X49936Y83261
X87732Y79273
X89408Y110998
X64008Y70358
X64211Y73660
X66040Y107696
X67564Y107696
X62738Y104648
X62738Y98298
X77978Y104648
X77978Y99568
X77978Y95758
X60198Y98298
X60198Y103378
X70993Y93726
X70993Y90043
X73279Y89789
X69215Y91948
X69215Y93726
X69215Y90043
X74549Y89789
X52578Y104648
X52578Y107188
X76581Y88392
X73508Y84049
X77648Y85928
X78334Y82804
X79959Y84201
X81585Y89002
X60960Y86995
X59309Y79375
X79248Y79172
X73914Y77622
X77495Y75540
X82423Y73914
X74016Y73558
X55651Y73838
X83083Y81534
X63348Y81585
X74143Y81610
X73889Y80239
X76276Y79197
X57302Y92989
X49022Y102108
X57175Y96799
X88019Y76208
X68809Y96749
X76327Y92202
X76327Y93091
X76327Y91186
X75082Y99187
X75921Y99187
X76733Y99187
X52070Y87427
X47498Y87503
X89027Y84836
X68834Y110744
X76708Y80137
X79375Y89662
X59309Y86995
X79248Y76429
X72778Y76302
X87122Y84836
X88265Y81026
X76708Y67818
X81788Y67818
X74587Y79883
X75692Y79883
X65227Y85979
X78943Y84633
X64262Y83439
X80721Y83490
X50597Y97714
X60325Y93726
X56642Y93726
X80899Y89027
X63094Y88925
X63754Y100457
X48997Y99416
X83007Y89484
X80264Y89560
X86868Y109728
X86868Y106934
X57150Y79629
X58540Y79630
X56388Y67818
X61468Y67818
X57861Y82448
X47244Y81153
X53958Y81009
X58928Y76429
X65398Y76251
X70739Y85979
X70739Y86868
X46863Y76327
X47600Y71603
X65278Y97663
X48285Y82728
X53848Y82728
X46838Y74624
X60325Y82550
X62103Y84303
X105207Y81890
X101752Y86792
X132842Y80772
X131318Y69977
X112014Y90678
X129286Y78613
X107696Y107696
X101371Y78664
X118364Y92456
X118364Y91059
X106172Y81915
X134366Y75184
X131826Y75184
X108966Y78740
X112014Y86614
X110109Y93726
X126797Y90221
X109220Y107696
X110871Y107696
X116332Y72263
X132207Y84734
X129159Y110363
X136906Y99568
X136906Y93218
X136906Y86868
X136906Y80645
X115316Y70358
X120396Y70358
X93726Y93218
X129032Y107823
X105918Y91567
X122174Y89789
X124130Y91948
X127254Y93980
X94996Y110998
X99085Y76759
X93624Y78791
X94259Y81839
X100101Y81839
X136906Y75565
X93751Y97053
X121666Y110998
X116586Y110998
X96164Y83261
X133960Y79273
X135636Y110998
X110236Y70358
X110439Y73660
X112268Y107696
X113792Y107696
X108966Y104648
X108966Y98298
X124206Y104648
X124206Y99568
X124206Y95758
X106426Y98298
X106426Y103378
X117221Y93726
X117221Y90043
X119507Y89789
X115443Y91948
X115443Y93726
X115443Y90043
X120777Y89789
X98806Y104648
X98806Y107188
X122809Y88392
X119736Y84049
X123876Y85928
X124562Y82804
X126187Y84201
X127813Y89002
X107188Y86995
X105537Y79375
X125476Y79172
X120142Y77622
X123723Y75540
X128651Y73914
X120244Y73558
X101879Y73838
X129311Y81534
X109576Y81585
X120371Y81610
X120117Y80239
X122504Y79197
X103530Y92989
X95250Y102108
X103403Y96799
X134247Y76208
X115037Y96749
X122555Y92202
X122555Y93091
X122555Y91186
X121310Y99187
X122149Y99187
X122961Y99187
X98298Y87427
X93726Y87503
X135255Y84836
X115062Y110744
X122936Y80137
X125603Y89662
X105537Y86995
X125476Y76429
X119006Y76302
X133350Y84836
X134493Y81026
X122936Y67818
X128016Y67818
X120815Y79883
X121920Y79883
X111455Y85979
X125171Y84633
X110490Y83439
X126949Y83490
X96825Y97714
X106553Y93726
X102870Y93726
X127127Y89027
X109322Y88925
X109982Y100457
X95225Y99416
X129235Y89484
X126492Y89560
X133096Y109728
X133096Y106934
X103378Y79629
X104768Y79630
X102616Y67818
X107696Y67818
X104089Y82448
X93472Y81153
X100186Y81009
X105156Y76429
X111626Y76251
X116967Y85979
X116967Y86868
X93091Y76327
X93828Y71603
X111506Y97663
X94513Y82728
X100076Y82728
X93066Y74624
X106553Y82550
X108331Y84303
X151435Y81890
X147980Y86792
X179070Y80772
X177546Y69977
X158242Y90678
X175514Y78613
X153924Y107696
X147599Y78664
X164592Y92456
X164592Y91059
X152400Y81915
X180594Y75184
X178054Y75184
X155194Y78740
X158242Y86614
X156337Y93726
X173025Y90221
X155448Y107696
X157099Y107696
X162560Y72263
X178435Y84734
X175387Y110363
X183134Y99568
X183134Y93218
X183134Y86868
X183134Y80645
X161544Y70358
X166624Y70358
X139954Y93218
X175260Y107823
X152146Y91567
X168402Y89789
X170358Y91948
X173482Y93980
X141224Y110998
X145313Y76759
X139852Y78791
X140487Y81839
X146329Y81839
X183134Y75565
X139979Y97053
X167894Y110998
X162814Y110998
X142392Y83261
X180188Y79273
X181864Y110998
X156464Y70358
X156667Y73660
X158496Y107696
X160020Y107696
X155194Y104648
X155194Y98298
X170434Y104648
X170434Y99568
X170434Y95758
X152654Y98298
X152654Y103378
X163449Y93726
X12751Y15342
X165735Y89789
X161671Y91948
X161671Y93726
X161671Y90043
X167005Y89789
X145034Y104648
X145034Y107188
X169037Y88392
X165964Y84049
X170104Y85928
X170790Y82804
X172415Y84201
X174041Y89002
X153416Y86995
X151765Y79375
X171704Y79172
X166370Y77622
X169951Y75540
X174879Y73914
X166472Y73558
X148107Y73838
X175539Y81534
X155804Y81585
X166599Y81610
X166345Y80239
X168732Y79197
X149758Y92989
X141478Y102108
X149631Y96799
X180475Y76208
X161265Y96749
X168783Y92202
X168783Y93091
X168783Y91186
X167538Y99187
X168377Y99187
X169189Y99187
X144526Y87427
X139954Y87503
X181483Y84836
X161290Y110744
X169164Y80137
X171831Y89662
X151765Y86995
X171704Y76429
X165234Y76302
X179578Y84836
X180721Y81026
X169164Y67818
X174244Y67818
X167043Y79883
X168148Y79883
X157683Y85979
X171399Y84633
X156718Y83439
X173177Y83490
X143053Y97714
X152781Y93726
X149098Y93726
X173355Y89027
X155550Y88925
X156210Y100457
X141453Y99416
X175463Y89484
X172720Y89560
X179324Y109728
X179324Y106934
X149606Y79629
X150996Y79630
X148844Y67818
X153924Y67818
X150317Y82448
X139700Y81153
X146414Y81009
X151384Y76429
X157854Y76251
X163195Y85979
X163195Y86868
X139319Y76327
X140056Y71603
X157734Y97663
X140741Y82728
X146304Y82728
X139294Y74624
X152781Y82550
X154559Y84303
X9296Y20244
X40386Y14224
X38862Y3429
X19558Y24130
X36830Y12065
X15240Y41148
X8915Y12116
X25908Y25908
X25908Y24511
X13716Y15367
X41910Y8636
X39370Y8636
X16510Y12192
X19558Y20066
X17653Y27178
X34341Y23673
X16764Y41148
X18415Y41148
X23876Y5715
X39751Y18186
X36703Y43815
X44450Y33020
X44450Y26670
X44450Y20320
X44450Y14097
X22860Y3810
X27940Y3810
X1270Y26670
X36576Y41275
X13462Y25019
X29718Y23241
X31674Y25400
X34798Y27432
X2540Y44450
X6629Y10211
X1168Y12243
X1803Y15291
X7645Y15291
X44450Y9017
X1295Y30505
X29210Y44450
X24130Y44450
X3708Y16713
X41504Y12725
X43180Y44450
X17780Y3810
X17983Y7112
X19812Y41148
X21336Y41148
X16510Y38100
X16510Y31750
X31750Y38100
X31750Y33020
X31750Y29210
X13970Y31750
X13970Y36830
X24765Y27178
X24765Y23495
X27051Y23241
X22987Y25400
X22987Y27178
X22987Y23495
X28321Y23241
X6350Y38100
X6350Y40640
X30353Y21844
X27280Y17501
X31420Y19380
X32106Y16256
X33731Y17653
X35357Y22454
X14732Y20447
X13081Y12827
X33020Y12624
X27686Y11074
X31267Y8992
X36195Y7366
X27788Y7010
X9423Y7290
X36855Y14986
X17120Y15037
X27915Y15062
X27661Y13691
X30048Y12649
X11074Y26441
X2794Y35560
X10947Y30251
X41791Y9660
X22581Y30201
X30099Y25654
X30099Y26543
X30099Y24638
X24511Y86868
X28854Y32639
X29693Y32639
X30505Y32639
X5842Y20879
X1270Y20955
X42799Y18288
X22606Y44196
X30480Y13589
X33147Y23114
X13081Y20447
X33020Y9881
X26550Y9754
X40894Y18288
X42037Y14478
X30480Y1270
X35560Y1270
X28359Y13335
X29464Y13335
X18999Y19431
X32715Y18085
X18034Y16891
X34493Y16942
X4369Y31166
X14097Y27178
X10414Y27178
X34671Y22479
X16866Y22377
X17526Y33909
X2769Y32868
X36779Y22936
X34036Y23012
X40640Y43180
X40640Y40386
X10922Y13081
X12312Y13082
X10160Y1270
X15240Y1270
X11633Y15900
X1016Y14605
X7730Y14461
X12700Y9881
X19170Y9703
X24511Y19431
X24511Y20320
X635Y9779
X1372Y5055
X19050Y31115
X2057Y16180
X7620Y16180
X610Y8076
X14097Y16002
X15875Y17755
X58979Y15342
X55524Y20244
X86614Y14224
X85090Y3429
X65786Y24130
X83058Y12065
X61468Y41148
X55143Y12116
X72136Y25908
X72136Y24511
X59944Y15367
X88138Y8636
X85598Y8636
X62738Y12192
X65786Y20066
X63881Y27178
X80569Y23673
X62992Y41148
X64643Y41148
X70104Y5715
X85979Y18186
X82931Y43815
X90678Y33020
X90678Y26670
X90678Y20320
X90678Y14097
X69088Y3810
X74168Y3810
X47498Y26670
X82804Y41275
X59690Y25019
X75946Y23241
X77902Y25400
X81026Y27432
X52857Y10211
X47396Y12243
X48031Y15291
X53873Y15291
X90678Y9017
X47523Y30505
X75438Y44450
X70358Y44450
X49936Y16713
X87732Y12725
X89408Y44450
X64008Y3810
X64211Y7112
X66040Y41148
X67564Y41148
X62738Y38100
X62738Y31750
X77978Y38100
X77978Y33020
X77978Y29210
X60198Y31750
X60198Y36830
X70993Y27178
X70993Y23495
X73279Y23241
X69215Y25400
X69215Y27178
X69215Y23495
X74549Y23241
X52578Y38100
X52578Y40640
X76581Y21844
X73508Y17501
X77648Y19380
X78334Y16256
X79959Y17653
X81585Y22454
X60960Y20447
X59309Y12827
X79248Y12624
X73914Y11074
X77495Y8992
X82423Y7366
X74016Y7010
X55651Y7290
X83083Y14986
X63348Y15037
X74143Y15062
X73889Y13691
X76276Y12649
X57302Y26441
X49022Y35560
X57175Y30251
X88019Y9660
X68809Y30201
X76327Y25654
X76327Y26543
X76327Y24638
X75082Y32639
X75921Y32639
X76733Y32639
X52070Y20879
X47498Y20955
X89027Y18288
X68834Y44196
X76708Y13589
X79375Y23114
X59309Y20447
X79248Y9881
X72778Y9754
X87122Y18288
X88265Y14478
X76708Y1270
X81788Y1270
X74587Y13335
X75692Y13335
X65227Y19431
X78943Y18085
X64262Y16891
X80721Y16942
X50597Y31166
X60325Y27178
X56642Y27178
X80899Y22479
X63094Y22377
X63754Y33909
X48997Y32868
X83007Y22936
X80264Y23012
X86868Y43180
X86868Y40386
X57150Y13081
X163449Y90043
M30