M48
;GenerationSoftware,Autodesk,EAGLE,9.6.2*%
;CreationDate,2024-03-22T16:36:50Z*%
FMAT,2
ICI,OFF
METRIC,TZ,000.000
T5C0.305
T4C0.650
T3C0.850
T2C1.016
T1C3.048
%
G90
M71
T1
X2540Y194056
X2540Y135636
X43180Y127508
X43180Y69088
X2540Y127508
X2540Y69088
X43180Y60960
X43180Y2540
X2540Y60960
X2540Y2540
X48768Y194056
X48768Y135636
X89408Y194056
X89408Y135636
X43180Y194056
X43180Y135636
X89408Y60960
X89408Y2540
X48768Y60960
X48768Y2540
X89408Y127508
X89408Y69088
X48768Y127508
X48768Y69088
T2
X84328Y152146
X7620Y39370
X38100Y154686
X7620Y177546
X7620Y175006
X7620Y172466
X7620Y169926
X7620Y167386
X7620Y164846
X7620Y162306
X7620Y159766
X7620Y157226
X7620Y152146
X38100Y152146
X70358Y145796
X67818Y145796
X84328Y177546
X53848Y31750
X84328Y175006
X84328Y172466
X84328Y169926
X84328Y167386
X84328Y164846
X84328Y162306
X84328Y159766
X84328Y157226
X84328Y154686
X53848Y177546
X53848Y175006
X53848Y172466
X53848Y169926
X53848Y167386
X53848Y164846
X53848Y162306
X53848Y159766
X53848Y157226
X53848Y154686
X53848Y152146
X24130Y12700
X21590Y12700
X38100Y44450
X38100Y41910
X38100Y39370
X38100Y36830
X38100Y34290
X38100Y31750
X38100Y29210
X38100Y26670
X38100Y24130
X38100Y21590
X7620Y44450
X7620Y41910
X7620Y36830
X7620Y34290
X7620Y31750
X7620Y29210
X7620Y26670
X7620Y24130
X7620Y21590
X7620Y19050
X38100Y19050
X70358Y12700
X67818Y12700
X84328Y44450
X84328Y41910
X84328Y39370
X84328Y36830
X84328Y34290
X84328Y31750
X84328Y29210
X84328Y26670
X84328Y24130
X84328Y21590
X53848Y44450
X53848Y41910
X53848Y39370
X53848Y36830
X53848Y34290
X7620Y154686
X53848Y29210
X53848Y26670
X53848Y24130
X53848Y21590
X53848Y19050
X84328Y19050
X24130Y79248
X21590Y79248
X38100Y110998
X38100Y108458
X38100Y105918
X38100Y103378
X38100Y100838
X38100Y98298
X38100Y95758
X38100Y93218
X38100Y90678
X38100Y88138
X7620Y110998
X7620Y108458
X7620Y105918
X7620Y103378
X7620Y100838
X7620Y98298
X7620Y95758
X7620Y93218
X7620Y90678
X7620Y88138
X7620Y85598
X38100Y85598
X70358Y79248
X67818Y79248
X84328Y110998
X84328Y108458
X84328Y105918
X84328Y103378
X84328Y100838
X84328Y98298
X84328Y95758
X84328Y93218
X84328Y90678
X84328Y88138
X53848Y110998
X53848Y108458
X53848Y105918
X53848Y103378
X53848Y100838
X53848Y98298
X53848Y95758
X53848Y93218
X53848Y90678
X53848Y88138
X53848Y85598
X84328Y85598
X24130Y145796
X21590Y145796
X38100Y177546
X38100Y175006
X38100Y172466
X38100Y169926
X38100Y167386
X38100Y164846
X38100Y162306
X38100Y159766
X38100Y157226
T3
X3810Y145287
X50038Y15191
X3810Y81739
X3810Y78739
X3810Y12191
X3810Y15191
X50038Y12191
X50038Y78739
X50038Y81739
X3810Y148287
X50038Y145287
X50038Y148287
T4
X56038Y5159
X61818Y5159
X30130Y71707
X35910Y71707
X9810Y71707
X76358Y71707
X30130Y5159
X56038Y71707
X61818Y71707
X35910Y5159
X9810Y5159
X30130Y138255
X35910Y138255
X9810Y138255
X15590Y138255
X15590Y71707
X15590Y5159
X76358Y138255
X82138Y138255
X56038Y138255
X61818Y138255
X76358Y5159
X82138Y5159
X82138Y71707
T5
X82423Y7366
X74016Y7010
X55651Y7290
X83083Y14986
X63348Y15037
X73889Y13691
X76276Y12649
X57302Y26441
X49022Y35560
X57175Y30251
X69215Y34798
X50571Y5258
X74168Y30480
X76708Y30480
X82423Y20295
X88019Y9660
X68809Y37821
X76708Y33274
X76708Y34163
X76708Y32258
X76175Y40259
X76987Y40259
X52070Y20879
X47498Y20955
X89027Y18288
X68834Y44196
X76708Y13589
X59309Y20447
X79248Y9881
X72778Y9754
X72778Y21343
X77768Y12529
X87122Y18288
X88265Y14478
X76708Y1270
X81788Y1270
X74587Y13335
X75692Y13335
X64211Y25527
X78943Y18085
X63246Y24638
X80721Y16942
X50597Y31166
X56642Y27178
X78613Y26543
X57086Y24066
X80289Y26060
X48997Y32868
X80645Y32258
X86868Y43180
X86868Y40386
X52959Y5969
X51689Y8698
X56388Y1270
X61468Y1270
X47244Y14605
X53958Y14461
X57849Y15367
X58928Y9881
X65398Y9703
X65398Y20897
X69240Y23978
X68682Y23419
X46863Y9779
X53238Y660
X65278Y38735
X48285Y16180
X53848Y16180
X46838Y8076
X62052Y17704
X57785Y16180
X64516Y16002
X69342Y15367
X46787Y6680
X9296Y86792
X40386Y80772
X13005Y80899
X19558Y98298
X36830Y78613
X15240Y107696
X8915Y78664
X26035Y99949
X26035Y98171
X41910Y75184
X39370Y75184
X16510Y78740
X17653Y101346
X16764Y107696
X18415Y107696
X23876Y72263
X39751Y84734
X36703Y110363
X44450Y99568
X44450Y93218
X44450Y86868
X44450Y80645
X24054Y69850
X1270Y93218
X36576Y107823
X13462Y91567
X34798Y93980
X2540Y110998
X6629Y76759
X1168Y78791
X1803Y81839
X7645Y81839
X44450Y75565
X1295Y97053
X29210Y110998
X24130Y110998
X3708Y83261
X41504Y79273
X43180Y110998
X18161Y71501
X17983Y73660
X19812Y107696
X21336Y107696
X16510Y104648
X31750Y104648
X31750Y99568
X31750Y95758
X13970Y98298
X13970Y103378
X24765Y101346
X24765Y97663
X22987Y99568
X22987Y97663
X6350Y104648
X6350Y107188
X30226Y88392
X27915Y84049
X31420Y85928
X31979Y82804
X34620Y84201
X14732Y86995
X12700Y79248
X33020Y79172
X27686Y77622
X31267Y75540
X36195Y73914
X27788Y73558
X9423Y73838
X36855Y81534
X17120Y81585
X27661Y80239
X30048Y79197
X11074Y92989
X2794Y102108
X10947Y96799
X22987Y101346
X4343Y71806
X27940Y97028
X30480Y97028
X36195Y86843
X41791Y76208
X22581Y104369
X30480Y99822
X30480Y100711
X30480Y98806
X29947Y106807
X30759Y106807
X5842Y87427
X1270Y87503
X42799Y84836
X22606Y110744
X30480Y80137
X13081Y86995
X33020Y76429
X26550Y76302
X26550Y87891
X31540Y79077
X40894Y84836
X42037Y81026
X30480Y67818
X35560Y67818
X28359Y79883
X29464Y79883
X17983Y92075
X32715Y84633
X17018Y91186
X34493Y83490
X4369Y97714
X10414Y93726
X32385Y93091
X10859Y90614
X34061Y92608
X2769Y99416
X34417Y98806
X40640Y109728
X40640Y106934
X6731Y72517
X5461Y75246
X10160Y67818
X15240Y67818
X1016Y81153
X7730Y81009
X11621Y81915
X12700Y76429
X19170Y76251
X19170Y87445
X23012Y90526
X22454Y89967
X635Y76327
X7010Y67208
X19050Y105283
X2057Y82728
X7620Y82728
X610Y74624
X15824Y84252
X11557Y82728
X18288Y82550
X23114Y81915
X559Y73228
X55524Y86792
X86614Y80772
X59233Y80899
X65786Y98298
X83058Y78613
X61468Y107696
X55143Y78664
X72263Y99949
X72263Y98171
X88138Y75184
X85598Y75184
X62738Y78740
X63881Y101346
X62992Y107696
X64643Y107696
X70104Y72263
X85979Y84734
X82931Y110363
X90678Y99568
X90678Y93218
X90678Y86868
X90678Y80645
X70282Y69850
X47498Y93218
X82804Y107823
X59690Y91567
X81026Y93980
X48768Y110998
X52857Y76759
X47396Y78791
X48031Y81839
X53873Y81839
X90678Y75565
X47523Y97053
X75438Y110998
X70358Y110998
X49936Y83261
X87732Y79273
X89408Y110998
X64389Y71501
X64211Y73660
X66040Y107696
X67564Y107696
X62738Y104648
X77978Y104648
X77978Y99568
X77978Y95758
X60198Y98298
X60198Y103378
X70993Y101346
X70993Y97663
X69215Y99568
X69215Y97663
X52578Y104648
X52578Y107188
X76454Y88392
X74143Y84049
X77648Y85928
X78207Y82804
X80848Y84201
X60960Y86995
X58928Y79248
X79248Y79172
X73914Y77622
X77495Y75540
X82423Y73914
X74016Y73558
X55651Y73838
X83083Y81534
X63348Y81585
X73889Y80239
X76276Y79197
X57302Y92989
X49022Y102108
X57175Y96799
X69215Y101346
X50571Y71806
X74168Y97028
X76708Y97028
X82423Y86843
X88019Y76208
X68809Y104369
X76708Y99822
X76708Y100711
X76708Y98806
X76175Y106807
X76987Y106807
X52070Y87427
X47498Y87503
X89027Y84836
X68834Y110744
X76708Y80137
X59309Y86995
X79248Y76429
X72778Y76302
X72778Y87891
X77768Y79077
X87122Y84836
X88265Y81026
X76708Y67818
X81788Y67818
X74587Y79883
X7010Y660
X64211Y92075
X78943Y84633
X63246Y91186
X80721Y83490
X50597Y97714
X56642Y93726
X78613Y93091
X57086Y90614
X80289Y92608
X48997Y99416
X80645Y98806
X86868Y109728
X86868Y106934
X52959Y72517
X51689Y75246
X56388Y67818
X61468Y67818
X47244Y81153
X53958Y81009
X57849Y81915
X58928Y76429
X65398Y76251
X65398Y87445
X69240Y90526
X68682Y89967
X46863Y76327
X53238Y67208
X65278Y105283
X48285Y82728
X53848Y82728
X46838Y74624
X62052Y84252
X57785Y82728
X64516Y82550
X69342Y81915
X46787Y73228
X9296Y153340
X40386Y147320
X13005Y147447
X19558Y164846
X36830Y145161
X15240Y174244
X8915Y145212
X26035Y166497
X26035Y164719
X41910Y141732
X39370Y141732
X16510Y145288
X17653Y167894
X16764Y174244
X18415Y174244
X23876Y138811
X39751Y151282
X36703Y176911
X44450Y166116
X44450Y159766
X44450Y153416
X44450Y147193
X24054Y136398
X1270Y159766
X36576Y174371
X13462Y158115
X34798Y160528
X2540Y177546
X6629Y143307
X1168Y145339
X1803Y148387
X7645Y148387
X44450Y142113
X1295Y163601
X29210Y177546
X24130Y177546
X3708Y149809
X41504Y145821
X43180Y177546
X18161Y138049
X17983Y140208
X19812Y174244
X21336Y174244
X16510Y171196
X31750Y171196
X31750Y166116
X31750Y162306
X13970Y164846
X13970Y169926
X24765Y167894
X24765Y164211
X22987Y166116
X22987Y164211
X6350Y171196
X6350Y173736
X30226Y154940
X27915Y150597
X31420Y152476
X31979Y149352
X34620Y150749
X14732Y153543
X12700Y145796
X33020Y145720
X27686Y144170
X31267Y142088
X36195Y140462
X27788Y140106
X9423Y140386
X36855Y148082
X17120Y148133
X27661Y146787
X30048Y145745
X11074Y159537
X2794Y168656
X10947Y163347
X22987Y167894
X4343Y138354
X27940Y163576
X30480Y163576
X36195Y153391
X41791Y142756
X22581Y170917
X30480Y166370
X30480Y167259
X30480Y165354
X29947Y173355
X30759Y173355
X5842Y153975
X1270Y154051
X42799Y151384
X22606Y177292
X30480Y146685
X13081Y153543
X33020Y142977
X26550Y142850
X26550Y154439
X31540Y145625
X40894Y151384
X42037Y147574
X30480Y134366
X35560Y134366
X28359Y146431
X29464Y146431
X17983Y158623
X32715Y151181
X17018Y157734
X34493Y150038
X4369Y164262
X10414Y160274
X32385Y159639
X10859Y157163
X34061Y159156
X2769Y165964
X34417Y165354
X40640Y176276
X40640Y173482
X6731Y139065
X5461Y141794
X10160Y134366
X15240Y134366
X1016Y147701
X7730Y147557
X11621Y148463
X12700Y142977
X19170Y142799
X19170Y153993
X23012Y157074
X22454Y156515
X635Y142875
X7010Y133756
X19050Y171831
X2057Y149276
X7620Y149276
X610Y141172
X15824Y150800
X11557Y149276
X18288Y149098
X23114Y148463
X559Y139776
X55524Y153340
X86614Y147320
X59233Y147447
X65786Y164846
X83058Y145161
X61468Y174244
X55143Y145212
X72263Y166497
X72263Y164719
X88138Y141732
X85598Y141732
X62738Y145288
X63881Y167894
X62992Y174244
X64643Y174244
X70104Y138811
X85979Y151282
X82931Y176911
X90678Y166116
X90678Y159766
X90678Y153416
X90678Y147193
X70282Y136398
X47498Y159766
X82804Y174371
X59690Y158115
X81026Y160528
X48768Y177546
X52857Y143307
X47396Y145339
X48031Y148387
X53873Y148387
X90678Y142113
X47523Y163601
X75438Y177546
X70358Y177546
X49936Y149809
X87732Y145821
X89408Y177546
X64389Y138049
X64211Y140208
X66040Y174244
X67564Y174244
X62738Y171196
X77978Y171196
X77978Y166116
X77978Y162306
X60198Y164846
X60198Y169926
X70993Y167894
X70993Y164211
X69215Y166116
X69215Y164211
X52578Y171196
X52578Y173736
X76454Y154940
X74143Y150597
X77648Y152476
X78207Y149352
X80848Y150749
X60960Y153543
X58928Y145796
X79248Y145720
X73914Y144170
X77495Y142088
X82423Y140462
X74016Y140106
X55651Y140386
X83083Y148082
X63348Y148133
X73889Y146787
X76276Y145745
X57302Y159537
X49022Y168656
X57175Y163347
X69215Y167894
X50571Y138354
X74168Y163576
X76708Y163576
X82423Y153391
X88019Y142756
X68809Y170917
X76708Y166370
X76708Y167259
X9296Y20244
X76175Y173355
X76987Y173355
X52070Y153975
X47498Y154051
X89027Y151384
X68834Y177292
X76708Y146685
X59309Y153543
X79248Y142977
X72778Y142850
X72778Y154439
X77768Y145625
X87122Y151384
X88265Y147574
X76708Y134366
X81788Y134366
X74587Y146431
X75692Y146431
X64211Y158623
X78943Y151181
X63246Y157734
X80721Y150038
X50597Y164262
X56642Y160274
X78613Y159639
X57086Y157163
X80289Y159156
X48997Y165964
X80645Y165354
X86868Y176276
X86868Y173482
X52959Y139065
X51689Y141794
X56388Y134366
X61468Y134366
X47244Y147701
X53958Y147557
X57849Y148463
X58928Y142977
X65398Y142799
X65398Y153993
X69240Y157074
X68682Y156515
X46863Y142875
X53238Y133756
X65278Y171831
X48285Y149276
X53848Y149276
X46838Y141172
X62052Y150800
X57785Y149276
X64516Y149098
X69342Y148463
X46787Y139776
X40386Y14224
X13005Y14351
X19558Y31750
X36830Y12065
X15240Y41148
X8915Y12116
X26035Y33401
X26035Y31623
X41910Y8636
X39370Y8636
X16510Y12192
X17653Y34798
X16764Y41148
X18415Y41148
X23876Y5715
X39751Y18186
X36703Y43815
X44450Y33020
X44450Y26670
X44450Y20320
X44450Y14097
X24054Y3302
X1270Y26670
X36576Y41275
X13462Y25019
X34798Y27432
X2540Y44450
X6629Y10211
X1168Y12243
X1803Y15291
X7645Y15291
X44450Y9017
X1295Y30505
X29210Y44450
X24130Y44450
X3708Y16713
X41504Y12725
X43180Y44450
X18161Y4953
X17983Y7112
X19812Y41148
X21336Y41148
X16510Y38100
X31750Y38100
X31750Y33020
X31750Y29210
X13970Y31750
X13970Y36830
X24765Y34798
X24765Y31115
X22987Y33020
X22987Y31115
X6350Y38100
X6350Y40640
X30226Y21844
X27915Y17501
X31420Y19380
X31979Y16256
X34620Y17653
X14732Y20447
X12700Y12700
X33020Y12624
X27686Y11074
X31267Y8992
X36195Y7366
X27788Y7010
X9423Y7290
X36855Y14986
X17120Y15037
X27661Y13691
X30048Y12649
X11074Y26441
X2794Y35560
X10947Y30251
X75692Y79883
X22987Y34798
X4343Y5258
X27940Y30480
X30480Y30480
X36195Y20295
X41791Y9660
X22581Y37821
X30480Y33274
X30480Y34163
X30480Y32258
X29947Y40259
X30759Y40259
X5842Y20879
X1270Y20955
X42799Y18288
X22606Y44196
X30480Y13589
X13081Y20447
X33020Y9881
X26550Y9754
X26550Y21343
X31540Y12529
X40894Y18288
X42037Y14478
X30480Y1270
X35560Y1270
X28359Y13335
X29464Y13335
X17983Y25527
X32715Y18085
X17018Y24638
X34493Y16942
X4369Y31166
X10414Y27178
X32385Y26543
X10859Y24066
X34061Y26060
X2769Y32868
X34417Y32258
X40640Y43180
X40640Y40386
X6731Y5969
X5461Y8698
X10160Y1270
X15240Y1270
X1016Y14605
X7730Y14461
X11621Y15367
X12700Y9881
X19170Y9703
X19170Y20897
X23012Y23978
X22454Y23419
X635Y9779
X19050Y38735
X2057Y16180
X7620Y16180
X610Y8076
X15824Y17704
X11557Y16180
X18288Y16002
X23114Y15367
X559Y6680
X55524Y20244
X86614Y14224
X59233Y14351
X65786Y31750
X83058Y12065
X61468Y41148
X55143Y12116
X72263Y33401
X72263Y31623
X88138Y8636
X85598Y8636
X62738Y12192
X63881Y34798
X62992Y41148
X64643Y41148
X70104Y5715
X85979Y18186
X82931Y43815
X90678Y33020
X90678Y26670
X90678Y20320
X90678Y14097
X70282Y3302
X47498Y26670
X82804Y41275
X59690Y25019
X81026Y27432
X48768Y44450
X52857Y10211
X47396Y12243
X48031Y15291
X53873Y15291
X90678Y9017
X47523Y30505
X75438Y44450
X70358Y44450
X49936Y16713
X87732Y12725
X89408Y44450
X64389Y4953
X64211Y7112
X66040Y41148
X67564Y41148
X62738Y38100
X77978Y38100
X77978Y33020
X77978Y29210
X60198Y31750
X60198Y36830
X70993Y34798
X70993Y31115
X69215Y33020
X69215Y31115
X52578Y38100
X52578Y40640
X76454Y21844
X74143Y17501
X77648Y19380
X78207Y16256
X80848Y17653
X60960Y20447
X58928Y12700
X79248Y12624
X73914Y11074
X77495Y8992
X76708Y165354
M30