G04 EAGLE Gerber RS-274X export*
G75*
%MOMM*%
%FSLAX34Y34*%
%LPD*%
%INSoldermask Bottom*%
%IPPOS*%
%AMOC8*
5,1,8,0,0,1.08239X$1,22.5*%
G01*
%ADD10C,2.006600*%
%ADD11C,0.228344*%
%ADD12C,0.777000*%
%ADD13C,1.127000*%
%ADD14C,3.175000*%
%ADD15C,0.977000*%
%ADD16C,1.270000*%
%ADD17C,1.627000*%

G36*
X415990Y826147D02*
X415990Y826147D01*
X416056Y826149D01*
X416099Y826167D01*
X416146Y826175D01*
X416203Y826209D01*
X416263Y826234D01*
X416298Y826265D01*
X416339Y826290D01*
X416381Y826341D01*
X416429Y826385D01*
X416451Y826427D01*
X416480Y826464D01*
X416501Y826526D01*
X416532Y826585D01*
X416540Y826639D01*
X416552Y826676D01*
X416551Y826716D01*
X416559Y826770D01*
X416559Y829310D01*
X416548Y829375D01*
X416546Y829441D01*
X416528Y829484D01*
X416520Y829531D01*
X416486Y829588D01*
X416461Y829648D01*
X416430Y829683D01*
X416405Y829724D01*
X416354Y829766D01*
X416310Y829814D01*
X416268Y829836D01*
X416231Y829865D01*
X416169Y829886D01*
X416110Y829917D01*
X416056Y829925D01*
X416019Y829937D01*
X415979Y829936D01*
X415925Y829944D01*
X412115Y829944D01*
X412050Y829933D01*
X411984Y829931D01*
X411941Y829913D01*
X411894Y829905D01*
X411837Y829871D01*
X411777Y829846D01*
X411742Y829815D01*
X411701Y829790D01*
X411660Y829739D01*
X411611Y829695D01*
X411589Y829653D01*
X411560Y829616D01*
X411539Y829554D01*
X411508Y829495D01*
X411500Y829441D01*
X411488Y829404D01*
X411488Y829401D01*
X411489Y829364D01*
X411481Y829310D01*
X411481Y826770D01*
X411492Y826705D01*
X411494Y826639D01*
X411512Y826596D01*
X411520Y826549D01*
X411554Y826492D01*
X411579Y826432D01*
X411610Y826397D01*
X411635Y826356D01*
X411686Y826315D01*
X411730Y826266D01*
X411772Y826244D01*
X411809Y826215D01*
X411871Y826194D01*
X411930Y826163D01*
X411984Y826155D01*
X412021Y826143D01*
X412061Y826144D01*
X412115Y826136D01*
X415925Y826136D01*
X415990Y826147D01*
G37*
G36*
X888430Y826147D02*
X888430Y826147D01*
X888496Y826149D01*
X888539Y826167D01*
X888586Y826175D01*
X888643Y826209D01*
X888703Y826234D01*
X888738Y826265D01*
X888779Y826290D01*
X888821Y826341D01*
X888869Y826385D01*
X888891Y826427D01*
X888920Y826464D01*
X888941Y826526D01*
X888972Y826585D01*
X888980Y826639D01*
X888992Y826676D01*
X888991Y826716D01*
X888999Y826770D01*
X888999Y829310D01*
X888988Y829375D01*
X888986Y829441D01*
X888968Y829484D01*
X888960Y829531D01*
X888926Y829588D01*
X888901Y829648D01*
X888870Y829683D01*
X888845Y829724D01*
X888794Y829766D01*
X888750Y829814D01*
X888708Y829836D01*
X888671Y829865D01*
X888609Y829886D01*
X888550Y829917D01*
X888496Y829925D01*
X888459Y829937D01*
X888419Y829936D01*
X888365Y829944D01*
X884555Y829944D01*
X884490Y829933D01*
X884424Y829931D01*
X884381Y829913D01*
X884334Y829905D01*
X884277Y829871D01*
X884217Y829846D01*
X884182Y829815D01*
X884141Y829790D01*
X884100Y829739D01*
X884051Y829695D01*
X884029Y829653D01*
X884000Y829616D01*
X883979Y829554D01*
X883948Y829495D01*
X883940Y829441D01*
X883928Y829404D01*
X883928Y829401D01*
X883929Y829364D01*
X883921Y829310D01*
X883921Y826770D01*
X883932Y826705D01*
X883934Y826639D01*
X883952Y826596D01*
X883960Y826549D01*
X883994Y826492D01*
X884019Y826432D01*
X884050Y826397D01*
X884075Y826356D01*
X884126Y826315D01*
X884170Y826266D01*
X884212Y826244D01*
X884249Y826215D01*
X884311Y826194D01*
X884370Y826163D01*
X884424Y826155D01*
X884461Y826143D01*
X884501Y826144D01*
X884555Y826136D01*
X888365Y826136D01*
X888430Y826147D01*
G37*
G36*
X286450Y1364627D02*
X286450Y1364627D01*
X286516Y1364629D01*
X286559Y1364647D01*
X286606Y1364655D01*
X286663Y1364689D01*
X286723Y1364714D01*
X286758Y1364745D01*
X286799Y1364770D01*
X286841Y1364821D01*
X286889Y1364865D01*
X286911Y1364907D01*
X286940Y1364944D01*
X286961Y1365006D01*
X286992Y1365065D01*
X287000Y1365119D01*
X287012Y1365156D01*
X287011Y1365196D01*
X287019Y1365250D01*
X287019Y1367790D01*
X287008Y1367855D01*
X287006Y1367921D01*
X286988Y1367964D01*
X286980Y1368011D01*
X286946Y1368068D01*
X286921Y1368128D01*
X286890Y1368163D01*
X286865Y1368204D01*
X286814Y1368246D01*
X286770Y1368294D01*
X286728Y1368316D01*
X286691Y1368345D01*
X286629Y1368366D01*
X286570Y1368397D01*
X286516Y1368405D01*
X286479Y1368417D01*
X286439Y1368416D01*
X286385Y1368424D01*
X282575Y1368424D01*
X282510Y1368413D01*
X282444Y1368411D01*
X282401Y1368393D01*
X282354Y1368385D01*
X282297Y1368351D01*
X282237Y1368326D01*
X282202Y1368295D01*
X282161Y1368270D01*
X282120Y1368219D01*
X282071Y1368175D01*
X282049Y1368133D01*
X282020Y1368096D01*
X281999Y1368034D01*
X281968Y1367975D01*
X281960Y1367921D01*
X281948Y1367884D01*
X281948Y1367881D01*
X281949Y1367844D01*
X281941Y1367790D01*
X281941Y1365250D01*
X281952Y1365185D01*
X281954Y1365119D01*
X281972Y1365076D01*
X281980Y1365029D01*
X282014Y1364972D01*
X282039Y1364912D01*
X282070Y1364877D01*
X282095Y1364836D01*
X282146Y1364795D01*
X282190Y1364746D01*
X282232Y1364724D01*
X282269Y1364695D01*
X282331Y1364674D01*
X282390Y1364643D01*
X282444Y1364635D01*
X282481Y1364623D01*
X282521Y1364624D01*
X282575Y1364616D01*
X286385Y1364616D01*
X286450Y1364627D01*
G37*
G36*
X748730Y1364627D02*
X748730Y1364627D01*
X748796Y1364629D01*
X748839Y1364647D01*
X748886Y1364655D01*
X748943Y1364689D01*
X749003Y1364714D01*
X749038Y1364745D01*
X749079Y1364770D01*
X749121Y1364821D01*
X749169Y1364865D01*
X749191Y1364907D01*
X749220Y1364944D01*
X749241Y1365006D01*
X749272Y1365065D01*
X749280Y1365119D01*
X749292Y1365156D01*
X749291Y1365196D01*
X749299Y1365250D01*
X749299Y1367790D01*
X749288Y1367855D01*
X749286Y1367921D01*
X749268Y1367964D01*
X749260Y1368011D01*
X749226Y1368068D01*
X749201Y1368128D01*
X749170Y1368163D01*
X749145Y1368204D01*
X749094Y1368246D01*
X749050Y1368294D01*
X749008Y1368316D01*
X748971Y1368345D01*
X748909Y1368366D01*
X748850Y1368397D01*
X748796Y1368405D01*
X748759Y1368417D01*
X748719Y1368416D01*
X748665Y1368424D01*
X744855Y1368424D01*
X744790Y1368413D01*
X744724Y1368411D01*
X744681Y1368393D01*
X744634Y1368385D01*
X744577Y1368351D01*
X744517Y1368326D01*
X744482Y1368295D01*
X744441Y1368270D01*
X744400Y1368219D01*
X744351Y1368175D01*
X744329Y1368133D01*
X744300Y1368096D01*
X744279Y1368034D01*
X744248Y1367975D01*
X744240Y1367921D01*
X744228Y1367884D01*
X744228Y1367881D01*
X744229Y1367844D01*
X744221Y1367790D01*
X744221Y1365250D01*
X744232Y1365185D01*
X744234Y1365119D01*
X744252Y1365076D01*
X744260Y1365029D01*
X744294Y1364972D01*
X744319Y1364912D01*
X744350Y1364877D01*
X744375Y1364836D01*
X744426Y1364795D01*
X744470Y1364746D01*
X744512Y1364724D01*
X744549Y1364695D01*
X744611Y1364674D01*
X744670Y1364643D01*
X744724Y1364635D01*
X744761Y1364623D01*
X744801Y1364624D01*
X744855Y1364616D01*
X748665Y1364616D01*
X748730Y1364627D01*
G37*
G36*
X426150Y826147D02*
X426150Y826147D01*
X426216Y826149D01*
X426259Y826167D01*
X426306Y826175D01*
X426363Y826209D01*
X426423Y826234D01*
X426458Y826265D01*
X426499Y826290D01*
X426541Y826341D01*
X426589Y826385D01*
X426611Y826427D01*
X426640Y826464D01*
X426661Y826526D01*
X426692Y826585D01*
X426700Y826639D01*
X426712Y826676D01*
X426711Y826716D01*
X426719Y826770D01*
X426719Y829310D01*
X426708Y829375D01*
X426706Y829441D01*
X426688Y829484D01*
X426680Y829531D01*
X426646Y829588D01*
X426621Y829648D01*
X426590Y829683D01*
X426565Y829724D01*
X426514Y829766D01*
X426470Y829814D01*
X426428Y829836D01*
X426391Y829865D01*
X426329Y829886D01*
X426270Y829917D01*
X426216Y829925D01*
X426179Y829937D01*
X426139Y829936D01*
X426085Y829944D01*
X422275Y829944D01*
X422210Y829933D01*
X422144Y829931D01*
X422101Y829913D01*
X422054Y829905D01*
X421997Y829871D01*
X421937Y829846D01*
X421902Y829815D01*
X421861Y829790D01*
X421820Y829739D01*
X421771Y829695D01*
X421749Y829653D01*
X421720Y829616D01*
X421699Y829554D01*
X421668Y829495D01*
X421660Y829441D01*
X421648Y829404D01*
X421648Y829401D01*
X421649Y829364D01*
X421641Y829310D01*
X421641Y826770D01*
X421652Y826705D01*
X421654Y826639D01*
X421672Y826596D01*
X421680Y826549D01*
X421714Y826492D01*
X421739Y826432D01*
X421770Y826397D01*
X421795Y826356D01*
X421846Y826315D01*
X421890Y826266D01*
X421932Y826244D01*
X421969Y826215D01*
X422031Y826194D01*
X422090Y826163D01*
X422144Y826155D01*
X422181Y826143D01*
X422221Y826144D01*
X422275Y826136D01*
X426085Y826136D01*
X426150Y826147D01*
G37*
G36*
X878270Y826147D02*
X878270Y826147D01*
X878336Y826149D01*
X878379Y826167D01*
X878426Y826175D01*
X878483Y826209D01*
X878543Y826234D01*
X878578Y826265D01*
X878619Y826290D01*
X878661Y826341D01*
X878709Y826385D01*
X878731Y826427D01*
X878760Y826464D01*
X878781Y826526D01*
X878812Y826585D01*
X878820Y826639D01*
X878832Y826676D01*
X878831Y826716D01*
X878839Y826770D01*
X878839Y829310D01*
X878828Y829375D01*
X878826Y829441D01*
X878808Y829484D01*
X878800Y829531D01*
X878766Y829588D01*
X878741Y829648D01*
X878710Y829683D01*
X878685Y829724D01*
X878634Y829766D01*
X878590Y829814D01*
X878548Y829836D01*
X878511Y829865D01*
X878449Y829886D01*
X878390Y829917D01*
X878336Y829925D01*
X878299Y829937D01*
X878259Y829936D01*
X878205Y829944D01*
X874395Y829944D01*
X874330Y829933D01*
X874264Y829931D01*
X874221Y829913D01*
X874174Y829905D01*
X874117Y829871D01*
X874057Y829846D01*
X874022Y829815D01*
X873981Y829790D01*
X873940Y829739D01*
X873891Y829695D01*
X873869Y829653D01*
X873840Y829616D01*
X873819Y829554D01*
X873788Y829495D01*
X873780Y829441D01*
X873768Y829404D01*
X873768Y829401D01*
X873769Y829364D01*
X873761Y829310D01*
X873761Y826770D01*
X873772Y826705D01*
X873774Y826639D01*
X873792Y826596D01*
X873800Y826549D01*
X873834Y826492D01*
X873859Y826432D01*
X873890Y826397D01*
X873915Y826356D01*
X873966Y826315D01*
X874010Y826266D01*
X874052Y826244D01*
X874089Y826215D01*
X874151Y826194D01*
X874210Y826163D01*
X874264Y826155D01*
X874301Y826143D01*
X874341Y826144D01*
X874395Y826136D01*
X878205Y826136D01*
X878270Y826147D01*
G37*
G36*
X27370Y800747D02*
X27370Y800747D01*
X27436Y800749D01*
X27479Y800767D01*
X27526Y800775D01*
X27583Y800809D01*
X27643Y800834D01*
X27678Y800865D01*
X27719Y800890D01*
X27761Y800941D01*
X27809Y800985D01*
X27831Y801027D01*
X27860Y801064D01*
X27881Y801126D01*
X27912Y801185D01*
X27920Y801239D01*
X27932Y801276D01*
X27931Y801316D01*
X27939Y801370D01*
X27939Y803910D01*
X27928Y803975D01*
X27926Y804041D01*
X27908Y804084D01*
X27900Y804131D01*
X27866Y804188D01*
X27841Y804248D01*
X27810Y804283D01*
X27785Y804324D01*
X27734Y804366D01*
X27690Y804414D01*
X27648Y804436D01*
X27611Y804465D01*
X27549Y804486D01*
X27490Y804517D01*
X27436Y804525D01*
X27399Y804537D01*
X27359Y804536D01*
X27305Y804544D01*
X23495Y804544D01*
X23430Y804533D01*
X23364Y804531D01*
X23321Y804513D01*
X23274Y804505D01*
X23217Y804471D01*
X23157Y804446D01*
X23122Y804415D01*
X23081Y804390D01*
X23040Y804339D01*
X22991Y804295D01*
X22969Y804253D01*
X22940Y804216D01*
X22919Y804154D01*
X22888Y804095D01*
X22880Y804041D01*
X22868Y804004D01*
X22868Y804001D01*
X22869Y803964D01*
X22861Y803910D01*
X22861Y801370D01*
X22872Y801305D01*
X22874Y801239D01*
X22892Y801196D01*
X22900Y801149D01*
X22934Y801092D01*
X22959Y801032D01*
X22990Y800997D01*
X23015Y800956D01*
X23066Y800915D01*
X23110Y800866D01*
X23152Y800844D01*
X23189Y800815D01*
X23251Y800794D01*
X23310Y800763D01*
X23364Y800755D01*
X23401Y800743D01*
X23441Y800744D01*
X23495Y800736D01*
X27305Y800736D01*
X27370Y800747D01*
G37*
G36*
X489650Y800747D02*
X489650Y800747D01*
X489716Y800749D01*
X489759Y800767D01*
X489806Y800775D01*
X489863Y800809D01*
X489923Y800834D01*
X489958Y800865D01*
X489999Y800890D01*
X490041Y800941D01*
X490089Y800985D01*
X490111Y801027D01*
X490140Y801064D01*
X490161Y801126D01*
X490192Y801185D01*
X490200Y801239D01*
X490212Y801276D01*
X490211Y801316D01*
X490219Y801370D01*
X490219Y803910D01*
X490208Y803975D01*
X490206Y804041D01*
X490188Y804084D01*
X490180Y804131D01*
X490146Y804188D01*
X490121Y804248D01*
X490090Y804283D01*
X490065Y804324D01*
X490014Y804366D01*
X489970Y804414D01*
X489928Y804436D01*
X489891Y804465D01*
X489829Y804486D01*
X489770Y804517D01*
X489716Y804525D01*
X489679Y804537D01*
X489639Y804536D01*
X489585Y804544D01*
X485775Y804544D01*
X485710Y804533D01*
X485644Y804531D01*
X485601Y804513D01*
X485554Y804505D01*
X485497Y804471D01*
X485437Y804446D01*
X485402Y804415D01*
X485361Y804390D01*
X485320Y804339D01*
X485271Y804295D01*
X485249Y804253D01*
X485220Y804216D01*
X485199Y804154D01*
X485168Y804095D01*
X485160Y804041D01*
X485148Y804004D01*
X485148Y804001D01*
X485149Y803964D01*
X485141Y803910D01*
X485141Y801370D01*
X485152Y801305D01*
X485154Y801239D01*
X485172Y801196D01*
X485180Y801149D01*
X485214Y801092D01*
X485239Y801032D01*
X485270Y800997D01*
X485295Y800956D01*
X485346Y800915D01*
X485390Y800866D01*
X485432Y800844D01*
X485469Y800815D01*
X485531Y800794D01*
X485590Y800763D01*
X485644Y800755D01*
X485681Y800743D01*
X485721Y800744D01*
X485775Y800736D01*
X489585Y800736D01*
X489650Y800747D01*
G37*
G36*
X426150Y1491627D02*
X426150Y1491627D01*
X426216Y1491629D01*
X426259Y1491647D01*
X426306Y1491655D01*
X426363Y1491689D01*
X426423Y1491714D01*
X426458Y1491745D01*
X426499Y1491770D01*
X426541Y1491821D01*
X426589Y1491865D01*
X426611Y1491907D01*
X426640Y1491944D01*
X426661Y1492006D01*
X426692Y1492065D01*
X426700Y1492119D01*
X426712Y1492156D01*
X426711Y1492196D01*
X426719Y1492250D01*
X426719Y1494790D01*
X426708Y1494855D01*
X426706Y1494921D01*
X426688Y1494964D01*
X426680Y1495011D01*
X426646Y1495068D01*
X426621Y1495128D01*
X426590Y1495163D01*
X426565Y1495204D01*
X426514Y1495246D01*
X426470Y1495294D01*
X426428Y1495316D01*
X426391Y1495345D01*
X426329Y1495366D01*
X426270Y1495397D01*
X426216Y1495405D01*
X426179Y1495417D01*
X426139Y1495416D01*
X426085Y1495424D01*
X422275Y1495424D01*
X422210Y1495413D01*
X422144Y1495411D01*
X422101Y1495393D01*
X422054Y1495385D01*
X421997Y1495351D01*
X421937Y1495326D01*
X421902Y1495295D01*
X421861Y1495270D01*
X421820Y1495219D01*
X421771Y1495175D01*
X421749Y1495133D01*
X421720Y1495096D01*
X421699Y1495034D01*
X421668Y1494975D01*
X421660Y1494921D01*
X421648Y1494884D01*
X421648Y1494881D01*
X421649Y1494844D01*
X421641Y1494790D01*
X421641Y1492250D01*
X421652Y1492185D01*
X421654Y1492119D01*
X421672Y1492076D01*
X421680Y1492029D01*
X421714Y1491972D01*
X421739Y1491912D01*
X421770Y1491877D01*
X421795Y1491836D01*
X421846Y1491795D01*
X421890Y1491746D01*
X421932Y1491724D01*
X421969Y1491695D01*
X422031Y1491674D01*
X422090Y1491643D01*
X422144Y1491635D01*
X422181Y1491623D01*
X422221Y1491624D01*
X422275Y1491616D01*
X426085Y1491616D01*
X426150Y1491627D01*
G37*
G36*
X888430Y1491627D02*
X888430Y1491627D01*
X888496Y1491629D01*
X888539Y1491647D01*
X888586Y1491655D01*
X888643Y1491689D01*
X888703Y1491714D01*
X888738Y1491745D01*
X888779Y1491770D01*
X888821Y1491821D01*
X888869Y1491865D01*
X888891Y1491907D01*
X888920Y1491944D01*
X888941Y1492006D01*
X888972Y1492065D01*
X888980Y1492119D01*
X888992Y1492156D01*
X888991Y1492196D01*
X888999Y1492250D01*
X888999Y1494790D01*
X888988Y1494855D01*
X888986Y1494921D01*
X888968Y1494964D01*
X888960Y1495011D01*
X888926Y1495068D01*
X888901Y1495128D01*
X888870Y1495163D01*
X888845Y1495204D01*
X888794Y1495246D01*
X888750Y1495294D01*
X888708Y1495316D01*
X888671Y1495345D01*
X888609Y1495366D01*
X888550Y1495397D01*
X888496Y1495405D01*
X888459Y1495417D01*
X888419Y1495416D01*
X888365Y1495424D01*
X884555Y1495424D01*
X884490Y1495413D01*
X884424Y1495411D01*
X884381Y1495393D01*
X884334Y1495385D01*
X884277Y1495351D01*
X884217Y1495326D01*
X884182Y1495295D01*
X884141Y1495270D01*
X884100Y1495219D01*
X884051Y1495175D01*
X884029Y1495133D01*
X884000Y1495096D01*
X883979Y1495034D01*
X883948Y1494975D01*
X883940Y1494921D01*
X883928Y1494884D01*
X883928Y1494881D01*
X883929Y1494844D01*
X883921Y1494790D01*
X883921Y1492250D01*
X883932Y1492185D01*
X883934Y1492119D01*
X883952Y1492076D01*
X883960Y1492029D01*
X883994Y1491972D01*
X884019Y1491912D01*
X884050Y1491877D01*
X884075Y1491836D01*
X884126Y1491795D01*
X884170Y1491746D01*
X884212Y1491724D01*
X884249Y1491695D01*
X884311Y1491674D01*
X884370Y1491643D01*
X884424Y1491635D01*
X884461Y1491623D01*
X884501Y1491624D01*
X884555Y1491616D01*
X888365Y1491616D01*
X888430Y1491627D01*
G37*
G36*
X878270Y1491627D02*
X878270Y1491627D01*
X878336Y1491629D01*
X878379Y1491647D01*
X878426Y1491655D01*
X878483Y1491689D01*
X878543Y1491714D01*
X878578Y1491745D01*
X878619Y1491770D01*
X878661Y1491821D01*
X878709Y1491865D01*
X878731Y1491907D01*
X878760Y1491944D01*
X878781Y1492006D01*
X878812Y1492065D01*
X878820Y1492119D01*
X878832Y1492156D01*
X878831Y1492196D01*
X878839Y1492250D01*
X878839Y1494790D01*
X878828Y1494855D01*
X878826Y1494921D01*
X878808Y1494964D01*
X878800Y1495011D01*
X878766Y1495068D01*
X878741Y1495128D01*
X878710Y1495163D01*
X878685Y1495204D01*
X878634Y1495246D01*
X878590Y1495294D01*
X878548Y1495316D01*
X878511Y1495345D01*
X878449Y1495366D01*
X878390Y1495397D01*
X878336Y1495405D01*
X878299Y1495417D01*
X878259Y1495416D01*
X878205Y1495424D01*
X874395Y1495424D01*
X874330Y1495413D01*
X874264Y1495411D01*
X874221Y1495393D01*
X874174Y1495385D01*
X874117Y1495351D01*
X874057Y1495326D01*
X874022Y1495295D01*
X873981Y1495270D01*
X873940Y1495219D01*
X873891Y1495175D01*
X873869Y1495133D01*
X873840Y1495096D01*
X873819Y1495034D01*
X873788Y1494975D01*
X873780Y1494921D01*
X873768Y1494884D01*
X873768Y1494881D01*
X873769Y1494844D01*
X873761Y1494790D01*
X873761Y1492250D01*
X873772Y1492185D01*
X873774Y1492119D01*
X873792Y1492076D01*
X873800Y1492029D01*
X873834Y1491972D01*
X873859Y1491912D01*
X873890Y1491877D01*
X873915Y1491836D01*
X873966Y1491795D01*
X874010Y1491746D01*
X874052Y1491724D01*
X874089Y1491695D01*
X874151Y1491674D01*
X874210Y1491643D01*
X874264Y1491635D01*
X874301Y1491623D01*
X874341Y1491624D01*
X874395Y1491616D01*
X878205Y1491616D01*
X878270Y1491627D01*
G37*
G36*
X415990Y1491627D02*
X415990Y1491627D01*
X416056Y1491629D01*
X416099Y1491647D01*
X416146Y1491655D01*
X416203Y1491689D01*
X416263Y1491714D01*
X416298Y1491745D01*
X416339Y1491770D01*
X416381Y1491821D01*
X416429Y1491865D01*
X416451Y1491907D01*
X416480Y1491944D01*
X416501Y1492006D01*
X416532Y1492065D01*
X416540Y1492119D01*
X416552Y1492156D01*
X416551Y1492196D01*
X416559Y1492250D01*
X416559Y1494790D01*
X416548Y1494855D01*
X416546Y1494921D01*
X416528Y1494964D01*
X416520Y1495011D01*
X416486Y1495068D01*
X416461Y1495128D01*
X416430Y1495163D01*
X416405Y1495204D01*
X416354Y1495246D01*
X416310Y1495294D01*
X416268Y1495316D01*
X416231Y1495345D01*
X416169Y1495366D01*
X416110Y1495397D01*
X416056Y1495405D01*
X416019Y1495417D01*
X415979Y1495416D01*
X415925Y1495424D01*
X412115Y1495424D01*
X412050Y1495413D01*
X411984Y1495411D01*
X411941Y1495393D01*
X411894Y1495385D01*
X411837Y1495351D01*
X411777Y1495326D01*
X411742Y1495295D01*
X411701Y1495270D01*
X411660Y1495219D01*
X411611Y1495175D01*
X411589Y1495133D01*
X411560Y1495096D01*
X411539Y1495034D01*
X411508Y1494975D01*
X411500Y1494921D01*
X411488Y1494884D01*
X411488Y1494881D01*
X411489Y1494844D01*
X411481Y1494790D01*
X411481Y1492250D01*
X411492Y1492185D01*
X411494Y1492119D01*
X411512Y1492076D01*
X411520Y1492029D01*
X411554Y1491972D01*
X411579Y1491912D01*
X411610Y1491877D01*
X411635Y1491836D01*
X411686Y1491795D01*
X411730Y1491746D01*
X411772Y1491724D01*
X411809Y1491695D01*
X411871Y1491674D01*
X411930Y1491643D01*
X411984Y1491635D01*
X412021Y1491623D01*
X412061Y1491624D01*
X412115Y1491616D01*
X415925Y1491616D01*
X415990Y1491627D01*
G37*
G36*
X489650Y1466227D02*
X489650Y1466227D01*
X489716Y1466229D01*
X489759Y1466247D01*
X489806Y1466255D01*
X489863Y1466289D01*
X489923Y1466314D01*
X489958Y1466345D01*
X489999Y1466370D01*
X490041Y1466421D01*
X490089Y1466465D01*
X490111Y1466507D01*
X490140Y1466544D01*
X490161Y1466606D01*
X490192Y1466665D01*
X490200Y1466719D01*
X490212Y1466756D01*
X490211Y1466796D01*
X490219Y1466850D01*
X490219Y1469390D01*
X490208Y1469455D01*
X490206Y1469521D01*
X490188Y1469564D01*
X490180Y1469611D01*
X490146Y1469668D01*
X490121Y1469728D01*
X490090Y1469763D01*
X490065Y1469804D01*
X490014Y1469846D01*
X489970Y1469894D01*
X489928Y1469916D01*
X489891Y1469945D01*
X489829Y1469966D01*
X489770Y1469997D01*
X489716Y1470005D01*
X489679Y1470017D01*
X489639Y1470016D01*
X489585Y1470024D01*
X485775Y1470024D01*
X485710Y1470013D01*
X485644Y1470011D01*
X485601Y1469993D01*
X485554Y1469985D01*
X485497Y1469951D01*
X485437Y1469926D01*
X485402Y1469895D01*
X485361Y1469870D01*
X485320Y1469819D01*
X485271Y1469775D01*
X485249Y1469733D01*
X485220Y1469696D01*
X485199Y1469634D01*
X485168Y1469575D01*
X485160Y1469521D01*
X485148Y1469484D01*
X485148Y1469481D01*
X485149Y1469444D01*
X485141Y1469390D01*
X485141Y1466850D01*
X485152Y1466785D01*
X485154Y1466719D01*
X485172Y1466676D01*
X485180Y1466629D01*
X485214Y1466572D01*
X485239Y1466512D01*
X485270Y1466477D01*
X485295Y1466436D01*
X485346Y1466395D01*
X485390Y1466346D01*
X485432Y1466324D01*
X485469Y1466295D01*
X485531Y1466274D01*
X485590Y1466243D01*
X485644Y1466235D01*
X485681Y1466223D01*
X485721Y1466224D01*
X485775Y1466216D01*
X489585Y1466216D01*
X489650Y1466227D01*
G37*
G36*
X27370Y1466227D02*
X27370Y1466227D01*
X27436Y1466229D01*
X27479Y1466247D01*
X27526Y1466255D01*
X27583Y1466289D01*
X27643Y1466314D01*
X27678Y1466345D01*
X27719Y1466370D01*
X27761Y1466421D01*
X27809Y1466465D01*
X27831Y1466507D01*
X27860Y1466544D01*
X27881Y1466606D01*
X27912Y1466665D01*
X27920Y1466719D01*
X27932Y1466756D01*
X27931Y1466796D01*
X27939Y1466850D01*
X27939Y1469390D01*
X27928Y1469455D01*
X27926Y1469521D01*
X27908Y1469564D01*
X27900Y1469611D01*
X27866Y1469668D01*
X27841Y1469728D01*
X27810Y1469763D01*
X27785Y1469804D01*
X27734Y1469846D01*
X27690Y1469894D01*
X27648Y1469916D01*
X27611Y1469945D01*
X27549Y1469966D01*
X27490Y1469997D01*
X27436Y1470005D01*
X27399Y1470017D01*
X27359Y1470016D01*
X27305Y1470024D01*
X23495Y1470024D01*
X23430Y1470013D01*
X23364Y1470011D01*
X23321Y1469993D01*
X23274Y1469985D01*
X23217Y1469951D01*
X23157Y1469926D01*
X23122Y1469895D01*
X23081Y1469870D01*
X23040Y1469819D01*
X22991Y1469775D01*
X22969Y1469733D01*
X22940Y1469696D01*
X22919Y1469634D01*
X22888Y1469575D01*
X22880Y1469521D01*
X22868Y1469484D01*
X22868Y1469481D01*
X22869Y1469444D01*
X22861Y1469390D01*
X22861Y1466850D01*
X22872Y1466785D01*
X22874Y1466719D01*
X22892Y1466676D01*
X22900Y1466629D01*
X22934Y1466572D01*
X22959Y1466512D01*
X22990Y1466477D01*
X23015Y1466436D01*
X23066Y1466395D01*
X23110Y1466346D01*
X23152Y1466324D01*
X23189Y1466295D01*
X23251Y1466274D01*
X23310Y1466243D01*
X23364Y1466235D01*
X23401Y1466223D01*
X23441Y1466224D01*
X23495Y1466216D01*
X27305Y1466216D01*
X27370Y1466227D01*
G37*
G36*
X27370Y1434477D02*
X27370Y1434477D01*
X27436Y1434479D01*
X27479Y1434497D01*
X27526Y1434505D01*
X27583Y1434539D01*
X27643Y1434564D01*
X27678Y1434595D01*
X27719Y1434620D01*
X27761Y1434671D01*
X27809Y1434715D01*
X27831Y1434757D01*
X27860Y1434794D01*
X27881Y1434856D01*
X27912Y1434915D01*
X27920Y1434969D01*
X27932Y1435006D01*
X27931Y1435046D01*
X27939Y1435100D01*
X27939Y1437640D01*
X27928Y1437705D01*
X27926Y1437771D01*
X27908Y1437814D01*
X27900Y1437861D01*
X27866Y1437918D01*
X27841Y1437978D01*
X27810Y1438013D01*
X27785Y1438054D01*
X27734Y1438096D01*
X27690Y1438144D01*
X27648Y1438166D01*
X27611Y1438195D01*
X27549Y1438216D01*
X27490Y1438247D01*
X27436Y1438255D01*
X27399Y1438267D01*
X27359Y1438266D01*
X27305Y1438274D01*
X23495Y1438274D01*
X23430Y1438263D01*
X23364Y1438261D01*
X23321Y1438243D01*
X23274Y1438235D01*
X23217Y1438201D01*
X23157Y1438176D01*
X23122Y1438145D01*
X23081Y1438120D01*
X23040Y1438069D01*
X22991Y1438025D01*
X22969Y1437983D01*
X22940Y1437946D01*
X22919Y1437884D01*
X22888Y1437825D01*
X22880Y1437771D01*
X22868Y1437734D01*
X22868Y1437731D01*
X22869Y1437694D01*
X22861Y1437640D01*
X22861Y1435100D01*
X22872Y1435035D01*
X22874Y1434969D01*
X22892Y1434926D01*
X22900Y1434879D01*
X22934Y1434822D01*
X22959Y1434762D01*
X22990Y1434727D01*
X23015Y1434686D01*
X23066Y1434645D01*
X23110Y1434596D01*
X23152Y1434574D01*
X23189Y1434545D01*
X23251Y1434524D01*
X23310Y1434493D01*
X23364Y1434485D01*
X23401Y1434473D01*
X23441Y1434474D01*
X23495Y1434466D01*
X27305Y1434466D01*
X27370Y1434477D01*
G37*
G36*
X489650Y1434477D02*
X489650Y1434477D01*
X489716Y1434479D01*
X489759Y1434497D01*
X489806Y1434505D01*
X489863Y1434539D01*
X489923Y1434564D01*
X489958Y1434595D01*
X489999Y1434620D01*
X490041Y1434671D01*
X490089Y1434715D01*
X490111Y1434757D01*
X490140Y1434794D01*
X490161Y1434856D01*
X490192Y1434915D01*
X490200Y1434969D01*
X490212Y1435006D01*
X490211Y1435046D01*
X490219Y1435100D01*
X490219Y1437640D01*
X490208Y1437705D01*
X490206Y1437771D01*
X490188Y1437814D01*
X490180Y1437861D01*
X490146Y1437918D01*
X490121Y1437978D01*
X490090Y1438013D01*
X490065Y1438054D01*
X490014Y1438096D01*
X489970Y1438144D01*
X489928Y1438166D01*
X489891Y1438195D01*
X489829Y1438216D01*
X489770Y1438247D01*
X489716Y1438255D01*
X489679Y1438267D01*
X489639Y1438266D01*
X489585Y1438274D01*
X485775Y1438274D01*
X485710Y1438263D01*
X485644Y1438261D01*
X485601Y1438243D01*
X485554Y1438235D01*
X485497Y1438201D01*
X485437Y1438176D01*
X485402Y1438145D01*
X485361Y1438120D01*
X485320Y1438069D01*
X485271Y1438025D01*
X485249Y1437983D01*
X485220Y1437946D01*
X485199Y1437884D01*
X485168Y1437825D01*
X485160Y1437771D01*
X485148Y1437734D01*
X485148Y1437731D01*
X485149Y1437694D01*
X485141Y1437640D01*
X485141Y1435100D01*
X485152Y1435035D01*
X485154Y1434969D01*
X485172Y1434926D01*
X485180Y1434879D01*
X485214Y1434822D01*
X485239Y1434762D01*
X485270Y1434727D01*
X485295Y1434686D01*
X485346Y1434645D01*
X485390Y1434596D01*
X485432Y1434574D01*
X485469Y1434545D01*
X485531Y1434524D01*
X485590Y1434493D01*
X485644Y1434485D01*
X485681Y1434473D01*
X485721Y1434474D01*
X485775Y1434466D01*
X489585Y1434466D01*
X489650Y1434477D01*
G37*
G36*
X27370Y1402727D02*
X27370Y1402727D01*
X27436Y1402729D01*
X27479Y1402747D01*
X27526Y1402755D01*
X27583Y1402789D01*
X27643Y1402814D01*
X27678Y1402845D01*
X27719Y1402870D01*
X27761Y1402921D01*
X27809Y1402965D01*
X27831Y1403007D01*
X27860Y1403044D01*
X27881Y1403106D01*
X27912Y1403165D01*
X27920Y1403219D01*
X27932Y1403256D01*
X27931Y1403296D01*
X27939Y1403350D01*
X27939Y1405890D01*
X27928Y1405955D01*
X27926Y1406021D01*
X27908Y1406064D01*
X27900Y1406111D01*
X27866Y1406168D01*
X27841Y1406228D01*
X27810Y1406263D01*
X27785Y1406304D01*
X27734Y1406346D01*
X27690Y1406394D01*
X27648Y1406416D01*
X27611Y1406445D01*
X27549Y1406466D01*
X27490Y1406497D01*
X27436Y1406505D01*
X27399Y1406517D01*
X27359Y1406516D01*
X27305Y1406524D01*
X23495Y1406524D01*
X23430Y1406513D01*
X23364Y1406511D01*
X23321Y1406493D01*
X23274Y1406485D01*
X23217Y1406451D01*
X23157Y1406426D01*
X23122Y1406395D01*
X23081Y1406370D01*
X23040Y1406319D01*
X22991Y1406275D01*
X22969Y1406233D01*
X22940Y1406196D01*
X22919Y1406134D01*
X22888Y1406075D01*
X22880Y1406021D01*
X22868Y1405984D01*
X22868Y1405981D01*
X22869Y1405944D01*
X22861Y1405890D01*
X22861Y1403350D01*
X22872Y1403285D01*
X22874Y1403219D01*
X22892Y1403176D01*
X22900Y1403129D01*
X22934Y1403072D01*
X22959Y1403012D01*
X22990Y1402977D01*
X23015Y1402936D01*
X23066Y1402895D01*
X23110Y1402846D01*
X23152Y1402824D01*
X23189Y1402795D01*
X23251Y1402774D01*
X23310Y1402743D01*
X23364Y1402735D01*
X23401Y1402723D01*
X23441Y1402724D01*
X23495Y1402716D01*
X27305Y1402716D01*
X27370Y1402727D01*
G37*
G36*
X489650Y1402727D02*
X489650Y1402727D01*
X489716Y1402729D01*
X489759Y1402747D01*
X489806Y1402755D01*
X489863Y1402789D01*
X489923Y1402814D01*
X489958Y1402845D01*
X489999Y1402870D01*
X490041Y1402921D01*
X490089Y1402965D01*
X490111Y1403007D01*
X490140Y1403044D01*
X490161Y1403106D01*
X490192Y1403165D01*
X490200Y1403219D01*
X490212Y1403256D01*
X490211Y1403296D01*
X490219Y1403350D01*
X490219Y1405890D01*
X490208Y1405955D01*
X490206Y1406021D01*
X490188Y1406064D01*
X490180Y1406111D01*
X490146Y1406168D01*
X490121Y1406228D01*
X490090Y1406263D01*
X490065Y1406304D01*
X490014Y1406346D01*
X489970Y1406394D01*
X489928Y1406416D01*
X489891Y1406445D01*
X489829Y1406466D01*
X489770Y1406497D01*
X489716Y1406505D01*
X489679Y1406517D01*
X489639Y1406516D01*
X489585Y1406524D01*
X485775Y1406524D01*
X485710Y1406513D01*
X485644Y1406511D01*
X485601Y1406493D01*
X485554Y1406485D01*
X485497Y1406451D01*
X485437Y1406426D01*
X485402Y1406395D01*
X485361Y1406370D01*
X485320Y1406319D01*
X485271Y1406275D01*
X485249Y1406233D01*
X485220Y1406196D01*
X485199Y1406134D01*
X485168Y1406075D01*
X485160Y1406021D01*
X485148Y1405984D01*
X485148Y1405981D01*
X485149Y1405944D01*
X485141Y1405890D01*
X485141Y1403350D01*
X485152Y1403285D01*
X485154Y1403219D01*
X485172Y1403176D01*
X485180Y1403129D01*
X485214Y1403072D01*
X485239Y1403012D01*
X485270Y1402977D01*
X485295Y1402936D01*
X485346Y1402895D01*
X485390Y1402846D01*
X485432Y1402824D01*
X485469Y1402795D01*
X485531Y1402774D01*
X485590Y1402743D01*
X485644Y1402735D01*
X485681Y1402723D01*
X485721Y1402724D01*
X485775Y1402716D01*
X489585Y1402716D01*
X489650Y1402727D01*
G37*
G36*
X61660Y1363103D02*
X61660Y1363103D01*
X61726Y1363105D01*
X61769Y1363123D01*
X61816Y1363131D01*
X61873Y1363165D01*
X61933Y1363190D01*
X61968Y1363221D01*
X62009Y1363246D01*
X62051Y1363297D01*
X62099Y1363341D01*
X62121Y1363383D01*
X62150Y1363420D01*
X62171Y1363482D01*
X62202Y1363541D01*
X62210Y1363595D01*
X62222Y1363632D01*
X62221Y1363672D01*
X62229Y1363726D01*
X62229Y1366266D01*
X62218Y1366331D01*
X62216Y1366397D01*
X62198Y1366440D01*
X62190Y1366487D01*
X62156Y1366544D01*
X62131Y1366604D01*
X62100Y1366639D01*
X62075Y1366680D01*
X62024Y1366722D01*
X61980Y1366770D01*
X61938Y1366792D01*
X61901Y1366821D01*
X61839Y1366842D01*
X61780Y1366873D01*
X61726Y1366881D01*
X61689Y1366893D01*
X61649Y1366892D01*
X61595Y1366900D01*
X57785Y1366900D01*
X57720Y1366889D01*
X57654Y1366887D01*
X57611Y1366869D01*
X57564Y1366861D01*
X57507Y1366827D01*
X57447Y1366802D01*
X57412Y1366771D01*
X57371Y1366746D01*
X57330Y1366695D01*
X57281Y1366651D01*
X57259Y1366609D01*
X57230Y1366572D01*
X57209Y1366510D01*
X57178Y1366451D01*
X57170Y1366397D01*
X57158Y1366360D01*
X57158Y1366357D01*
X57159Y1366320D01*
X57151Y1366266D01*
X57151Y1363726D01*
X57162Y1363661D01*
X57164Y1363595D01*
X57182Y1363552D01*
X57190Y1363505D01*
X57224Y1363448D01*
X57249Y1363388D01*
X57280Y1363353D01*
X57305Y1363312D01*
X57356Y1363271D01*
X57400Y1363222D01*
X57442Y1363200D01*
X57479Y1363171D01*
X57541Y1363150D01*
X57600Y1363119D01*
X57654Y1363111D01*
X57691Y1363099D01*
X57731Y1363100D01*
X57785Y1363092D01*
X61595Y1363092D01*
X61660Y1363103D01*
G37*
G36*
X523940Y1363103D02*
X523940Y1363103D01*
X524006Y1363105D01*
X524049Y1363123D01*
X524096Y1363131D01*
X524153Y1363165D01*
X524213Y1363190D01*
X524248Y1363221D01*
X524289Y1363246D01*
X524331Y1363297D01*
X524379Y1363341D01*
X524401Y1363383D01*
X524430Y1363420D01*
X524451Y1363482D01*
X524482Y1363541D01*
X524490Y1363595D01*
X524502Y1363632D01*
X524501Y1363672D01*
X524509Y1363726D01*
X524509Y1366266D01*
X524498Y1366331D01*
X524496Y1366397D01*
X524478Y1366440D01*
X524470Y1366487D01*
X524436Y1366544D01*
X524411Y1366604D01*
X524380Y1366639D01*
X524355Y1366680D01*
X524304Y1366722D01*
X524260Y1366770D01*
X524218Y1366792D01*
X524181Y1366821D01*
X524119Y1366842D01*
X524060Y1366873D01*
X524006Y1366881D01*
X523969Y1366893D01*
X523929Y1366892D01*
X523875Y1366900D01*
X520065Y1366900D01*
X520000Y1366889D01*
X519934Y1366887D01*
X519891Y1366869D01*
X519844Y1366861D01*
X519787Y1366827D01*
X519727Y1366802D01*
X519692Y1366771D01*
X519651Y1366746D01*
X519610Y1366695D01*
X519561Y1366651D01*
X519539Y1366609D01*
X519510Y1366572D01*
X519489Y1366510D01*
X519458Y1366451D01*
X519450Y1366397D01*
X519438Y1366360D01*
X519438Y1366357D01*
X519439Y1366320D01*
X519431Y1366266D01*
X519431Y1363726D01*
X519442Y1363661D01*
X519444Y1363595D01*
X519462Y1363552D01*
X519470Y1363505D01*
X519504Y1363448D01*
X519529Y1363388D01*
X519560Y1363353D01*
X519585Y1363312D01*
X519636Y1363271D01*
X519680Y1363222D01*
X519722Y1363200D01*
X519759Y1363171D01*
X519821Y1363150D01*
X519880Y1363119D01*
X519934Y1363111D01*
X519971Y1363099D01*
X520011Y1363100D01*
X520065Y1363092D01*
X523875Y1363092D01*
X523940Y1363103D01*
G37*
G36*
X173166Y1363103D02*
X173166Y1363103D01*
X173232Y1363105D01*
X173275Y1363123D01*
X173322Y1363131D01*
X173379Y1363165D01*
X173439Y1363190D01*
X173474Y1363221D01*
X173515Y1363246D01*
X173557Y1363297D01*
X173605Y1363341D01*
X173627Y1363383D01*
X173656Y1363420D01*
X173677Y1363482D01*
X173708Y1363541D01*
X173716Y1363595D01*
X173728Y1363632D01*
X173727Y1363672D01*
X173735Y1363726D01*
X173735Y1366266D01*
X173724Y1366331D01*
X173722Y1366397D01*
X173704Y1366440D01*
X173696Y1366487D01*
X173662Y1366544D01*
X173637Y1366604D01*
X173606Y1366639D01*
X173581Y1366680D01*
X173530Y1366722D01*
X173486Y1366770D01*
X173444Y1366792D01*
X173407Y1366821D01*
X173345Y1366842D01*
X173286Y1366873D01*
X173232Y1366881D01*
X173195Y1366893D01*
X173155Y1366892D01*
X173101Y1366900D01*
X169291Y1366900D01*
X169226Y1366889D01*
X169160Y1366887D01*
X169117Y1366869D01*
X169070Y1366861D01*
X169013Y1366827D01*
X168953Y1366802D01*
X168918Y1366771D01*
X168877Y1366746D01*
X168836Y1366695D01*
X168787Y1366651D01*
X168765Y1366609D01*
X168736Y1366572D01*
X168715Y1366510D01*
X168684Y1366451D01*
X168676Y1366397D01*
X168664Y1366360D01*
X168664Y1366357D01*
X168665Y1366320D01*
X168657Y1366266D01*
X168657Y1363726D01*
X168668Y1363661D01*
X168670Y1363595D01*
X168688Y1363552D01*
X168696Y1363505D01*
X168730Y1363448D01*
X168755Y1363388D01*
X168786Y1363353D01*
X168811Y1363312D01*
X168862Y1363271D01*
X168906Y1363222D01*
X168948Y1363200D01*
X168985Y1363171D01*
X169047Y1363150D01*
X169106Y1363119D01*
X169160Y1363111D01*
X169197Y1363099D01*
X169237Y1363100D01*
X169291Y1363092D01*
X173101Y1363092D01*
X173166Y1363103D01*
G37*
G36*
X635446Y1363103D02*
X635446Y1363103D01*
X635512Y1363105D01*
X635555Y1363123D01*
X635602Y1363131D01*
X635659Y1363165D01*
X635719Y1363190D01*
X635754Y1363221D01*
X635795Y1363246D01*
X635837Y1363297D01*
X635885Y1363341D01*
X635907Y1363383D01*
X635936Y1363420D01*
X635957Y1363482D01*
X635988Y1363541D01*
X635996Y1363595D01*
X636008Y1363632D01*
X636007Y1363672D01*
X636015Y1363726D01*
X636015Y1366266D01*
X636004Y1366331D01*
X636002Y1366397D01*
X635984Y1366440D01*
X635976Y1366487D01*
X635942Y1366544D01*
X635917Y1366604D01*
X635886Y1366639D01*
X635861Y1366680D01*
X635810Y1366722D01*
X635766Y1366770D01*
X635724Y1366792D01*
X635687Y1366821D01*
X635625Y1366842D01*
X635566Y1366873D01*
X635512Y1366881D01*
X635475Y1366893D01*
X635435Y1366892D01*
X635381Y1366900D01*
X631571Y1366900D01*
X631506Y1366889D01*
X631440Y1366887D01*
X631397Y1366869D01*
X631350Y1366861D01*
X631293Y1366827D01*
X631233Y1366802D01*
X631198Y1366771D01*
X631157Y1366746D01*
X631116Y1366695D01*
X631067Y1366651D01*
X631045Y1366609D01*
X631016Y1366572D01*
X630995Y1366510D01*
X630964Y1366451D01*
X630956Y1366397D01*
X630944Y1366360D01*
X630944Y1366357D01*
X630945Y1366320D01*
X630937Y1366266D01*
X630937Y1363726D01*
X630948Y1363661D01*
X630950Y1363595D01*
X630968Y1363552D01*
X630976Y1363505D01*
X631010Y1363448D01*
X631035Y1363388D01*
X631066Y1363353D01*
X631091Y1363312D01*
X631142Y1363271D01*
X631186Y1363222D01*
X631228Y1363200D01*
X631265Y1363171D01*
X631327Y1363150D01*
X631386Y1363119D01*
X631440Y1363111D01*
X631477Y1363099D01*
X631517Y1363100D01*
X631571Y1363092D01*
X635381Y1363092D01*
X635446Y1363103D01*
G37*
G36*
X27370Y768997D02*
X27370Y768997D01*
X27436Y768999D01*
X27479Y769017D01*
X27526Y769025D01*
X27583Y769059D01*
X27643Y769084D01*
X27678Y769115D01*
X27719Y769140D01*
X27761Y769191D01*
X27809Y769235D01*
X27831Y769277D01*
X27860Y769314D01*
X27881Y769376D01*
X27912Y769435D01*
X27920Y769489D01*
X27932Y769526D01*
X27931Y769566D01*
X27939Y769620D01*
X27939Y772160D01*
X27928Y772225D01*
X27926Y772291D01*
X27908Y772334D01*
X27900Y772381D01*
X27866Y772438D01*
X27841Y772498D01*
X27810Y772533D01*
X27785Y772574D01*
X27734Y772616D01*
X27690Y772664D01*
X27648Y772686D01*
X27611Y772715D01*
X27549Y772736D01*
X27490Y772767D01*
X27436Y772775D01*
X27399Y772787D01*
X27359Y772786D01*
X27305Y772794D01*
X23495Y772794D01*
X23430Y772783D01*
X23364Y772781D01*
X23321Y772763D01*
X23274Y772755D01*
X23217Y772721D01*
X23157Y772696D01*
X23122Y772665D01*
X23081Y772640D01*
X23040Y772589D01*
X22991Y772545D01*
X22969Y772503D01*
X22940Y772466D01*
X22919Y772404D01*
X22888Y772345D01*
X22880Y772291D01*
X22868Y772254D01*
X22868Y772251D01*
X22869Y772214D01*
X22861Y772160D01*
X22861Y769620D01*
X22872Y769555D01*
X22874Y769489D01*
X22892Y769446D01*
X22900Y769399D01*
X22934Y769342D01*
X22959Y769282D01*
X22990Y769247D01*
X23015Y769206D01*
X23066Y769165D01*
X23110Y769116D01*
X23152Y769094D01*
X23189Y769065D01*
X23251Y769044D01*
X23310Y769013D01*
X23364Y769005D01*
X23401Y768993D01*
X23441Y768994D01*
X23495Y768986D01*
X27305Y768986D01*
X27370Y768997D01*
G37*
G36*
X489650Y768997D02*
X489650Y768997D01*
X489716Y768999D01*
X489759Y769017D01*
X489806Y769025D01*
X489863Y769059D01*
X489923Y769084D01*
X489958Y769115D01*
X489999Y769140D01*
X490041Y769191D01*
X490089Y769235D01*
X490111Y769277D01*
X490140Y769314D01*
X490161Y769376D01*
X490192Y769435D01*
X490200Y769489D01*
X490212Y769526D01*
X490211Y769566D01*
X490219Y769620D01*
X490219Y772160D01*
X490208Y772225D01*
X490206Y772291D01*
X490188Y772334D01*
X490180Y772381D01*
X490146Y772438D01*
X490121Y772498D01*
X490090Y772533D01*
X490065Y772574D01*
X490014Y772616D01*
X489970Y772664D01*
X489928Y772686D01*
X489891Y772715D01*
X489829Y772736D01*
X489770Y772767D01*
X489716Y772775D01*
X489679Y772787D01*
X489639Y772786D01*
X489585Y772794D01*
X485775Y772794D01*
X485710Y772783D01*
X485644Y772781D01*
X485601Y772763D01*
X485554Y772755D01*
X485497Y772721D01*
X485437Y772696D01*
X485402Y772665D01*
X485361Y772640D01*
X485320Y772589D01*
X485271Y772545D01*
X485249Y772503D01*
X485220Y772466D01*
X485199Y772404D01*
X485168Y772345D01*
X485160Y772291D01*
X485148Y772254D01*
X485148Y772251D01*
X485149Y772214D01*
X485141Y772160D01*
X485141Y769620D01*
X485152Y769555D01*
X485154Y769489D01*
X485172Y769446D01*
X485180Y769399D01*
X485214Y769342D01*
X485239Y769282D01*
X485270Y769247D01*
X485295Y769206D01*
X485346Y769165D01*
X485390Y769116D01*
X485432Y769094D01*
X485469Y769065D01*
X485531Y769044D01*
X485590Y769013D01*
X485644Y769005D01*
X485681Y768993D01*
X485721Y768994D01*
X485775Y768986D01*
X489585Y768986D01*
X489650Y768997D01*
G37*
G36*
X489650Y737247D02*
X489650Y737247D01*
X489716Y737249D01*
X489759Y737267D01*
X489806Y737275D01*
X489863Y737309D01*
X489923Y737334D01*
X489958Y737365D01*
X489999Y737390D01*
X490041Y737441D01*
X490089Y737485D01*
X490111Y737527D01*
X490140Y737564D01*
X490161Y737626D01*
X490192Y737685D01*
X490200Y737739D01*
X490212Y737776D01*
X490211Y737816D01*
X490219Y737870D01*
X490219Y740410D01*
X490208Y740475D01*
X490206Y740541D01*
X490188Y740584D01*
X490180Y740631D01*
X490146Y740688D01*
X490121Y740748D01*
X490090Y740783D01*
X490065Y740824D01*
X490014Y740866D01*
X489970Y740914D01*
X489928Y740936D01*
X489891Y740965D01*
X489829Y740986D01*
X489770Y741017D01*
X489716Y741025D01*
X489679Y741037D01*
X489639Y741036D01*
X489585Y741044D01*
X485775Y741044D01*
X485710Y741033D01*
X485644Y741031D01*
X485601Y741013D01*
X485554Y741005D01*
X485497Y740971D01*
X485437Y740946D01*
X485402Y740915D01*
X485361Y740890D01*
X485320Y740839D01*
X485271Y740795D01*
X485249Y740753D01*
X485220Y740716D01*
X485199Y740654D01*
X485168Y740595D01*
X485160Y740541D01*
X485148Y740504D01*
X485148Y740501D01*
X485149Y740464D01*
X485141Y740410D01*
X485141Y737870D01*
X485152Y737805D01*
X485154Y737739D01*
X485172Y737696D01*
X485180Y737649D01*
X485214Y737592D01*
X485239Y737532D01*
X485270Y737497D01*
X485295Y737456D01*
X485346Y737415D01*
X485390Y737366D01*
X485432Y737344D01*
X485469Y737315D01*
X485531Y737294D01*
X485590Y737263D01*
X485644Y737255D01*
X485681Y737243D01*
X485721Y737244D01*
X485775Y737236D01*
X489585Y737236D01*
X489650Y737247D01*
G37*
G36*
X27370Y737247D02*
X27370Y737247D01*
X27436Y737249D01*
X27479Y737267D01*
X27526Y737275D01*
X27583Y737309D01*
X27643Y737334D01*
X27678Y737365D01*
X27719Y737390D01*
X27761Y737441D01*
X27809Y737485D01*
X27831Y737527D01*
X27860Y737564D01*
X27881Y737626D01*
X27912Y737685D01*
X27920Y737739D01*
X27932Y737776D01*
X27931Y737816D01*
X27939Y737870D01*
X27939Y740410D01*
X27928Y740475D01*
X27926Y740541D01*
X27908Y740584D01*
X27900Y740631D01*
X27866Y740688D01*
X27841Y740748D01*
X27810Y740783D01*
X27785Y740824D01*
X27734Y740866D01*
X27690Y740914D01*
X27648Y740936D01*
X27611Y740965D01*
X27549Y740986D01*
X27490Y741017D01*
X27436Y741025D01*
X27399Y741037D01*
X27359Y741036D01*
X27305Y741044D01*
X23495Y741044D01*
X23430Y741033D01*
X23364Y741031D01*
X23321Y741013D01*
X23274Y741005D01*
X23217Y740971D01*
X23157Y740946D01*
X23122Y740915D01*
X23081Y740890D01*
X23040Y740839D01*
X22991Y740795D01*
X22969Y740753D01*
X22940Y740716D01*
X22919Y740654D01*
X22888Y740595D01*
X22880Y740541D01*
X22868Y740504D01*
X22868Y740501D01*
X22869Y740464D01*
X22861Y740410D01*
X22861Y737870D01*
X22872Y737805D01*
X22874Y737739D01*
X22892Y737696D01*
X22900Y737649D01*
X22934Y737592D01*
X22959Y737532D01*
X22990Y737497D01*
X23015Y737456D01*
X23066Y737415D01*
X23110Y737366D01*
X23152Y737344D01*
X23189Y737315D01*
X23251Y737294D01*
X23310Y737263D01*
X23364Y737255D01*
X23401Y737243D01*
X23441Y737244D01*
X23495Y737236D01*
X27305Y737236D01*
X27370Y737247D01*
G37*
G36*
X748730Y699147D02*
X748730Y699147D01*
X748796Y699149D01*
X748839Y699167D01*
X748886Y699175D01*
X748943Y699209D01*
X749003Y699234D01*
X749038Y699265D01*
X749079Y699290D01*
X749121Y699341D01*
X749169Y699385D01*
X749191Y699427D01*
X749220Y699464D01*
X749241Y699526D01*
X749272Y699585D01*
X749280Y699639D01*
X749292Y699676D01*
X749291Y699716D01*
X749299Y699770D01*
X749299Y702310D01*
X749288Y702375D01*
X749286Y702441D01*
X749268Y702484D01*
X749260Y702531D01*
X749226Y702588D01*
X749201Y702648D01*
X749170Y702683D01*
X749145Y702724D01*
X749094Y702766D01*
X749050Y702814D01*
X749008Y702836D01*
X748971Y702865D01*
X748909Y702886D01*
X748850Y702917D01*
X748796Y702925D01*
X748759Y702937D01*
X748719Y702936D01*
X748665Y702944D01*
X744855Y702944D01*
X744790Y702933D01*
X744724Y702931D01*
X744681Y702913D01*
X744634Y702905D01*
X744577Y702871D01*
X744517Y702846D01*
X744482Y702815D01*
X744441Y702790D01*
X744400Y702739D01*
X744351Y702695D01*
X744329Y702653D01*
X744300Y702616D01*
X744279Y702554D01*
X744248Y702495D01*
X744240Y702441D01*
X744228Y702404D01*
X744228Y702401D01*
X744229Y702364D01*
X744221Y702310D01*
X744221Y699770D01*
X744232Y699705D01*
X744234Y699639D01*
X744252Y699596D01*
X744260Y699549D01*
X744294Y699492D01*
X744319Y699432D01*
X744350Y699397D01*
X744375Y699356D01*
X744426Y699315D01*
X744470Y699266D01*
X744512Y699244D01*
X744549Y699215D01*
X744611Y699194D01*
X744670Y699163D01*
X744724Y699155D01*
X744761Y699143D01*
X744801Y699144D01*
X744855Y699136D01*
X748665Y699136D01*
X748730Y699147D01*
G37*
G36*
X286450Y699147D02*
X286450Y699147D01*
X286516Y699149D01*
X286559Y699167D01*
X286606Y699175D01*
X286663Y699209D01*
X286723Y699234D01*
X286758Y699265D01*
X286799Y699290D01*
X286841Y699341D01*
X286889Y699385D01*
X286911Y699427D01*
X286940Y699464D01*
X286961Y699526D01*
X286992Y699585D01*
X287000Y699639D01*
X287012Y699676D01*
X287011Y699716D01*
X287019Y699770D01*
X287019Y702310D01*
X287008Y702375D01*
X287006Y702441D01*
X286988Y702484D01*
X286980Y702531D01*
X286946Y702588D01*
X286921Y702648D01*
X286890Y702683D01*
X286865Y702724D01*
X286814Y702766D01*
X286770Y702814D01*
X286728Y702836D01*
X286691Y702865D01*
X286629Y702886D01*
X286570Y702917D01*
X286516Y702925D01*
X286479Y702937D01*
X286439Y702936D01*
X286385Y702944D01*
X282575Y702944D01*
X282510Y702933D01*
X282444Y702931D01*
X282401Y702913D01*
X282354Y702905D01*
X282297Y702871D01*
X282237Y702846D01*
X282202Y702815D01*
X282161Y702790D01*
X282120Y702739D01*
X282071Y702695D01*
X282049Y702653D01*
X282020Y702616D01*
X281999Y702554D01*
X281968Y702495D01*
X281960Y702441D01*
X281948Y702404D01*
X281948Y702401D01*
X281949Y702364D01*
X281941Y702310D01*
X281941Y699770D01*
X281952Y699705D01*
X281954Y699639D01*
X281972Y699596D01*
X281980Y699549D01*
X282014Y699492D01*
X282039Y699432D01*
X282070Y699397D01*
X282095Y699356D01*
X282146Y699315D01*
X282190Y699266D01*
X282232Y699244D01*
X282269Y699215D01*
X282331Y699194D01*
X282390Y699163D01*
X282444Y699155D01*
X282481Y699143D01*
X282521Y699144D01*
X282575Y699136D01*
X286385Y699136D01*
X286450Y699147D01*
G37*
G36*
X635446Y697623D02*
X635446Y697623D01*
X635512Y697625D01*
X635555Y697643D01*
X635602Y697651D01*
X635659Y697685D01*
X635719Y697710D01*
X635754Y697741D01*
X635795Y697766D01*
X635837Y697817D01*
X635885Y697861D01*
X635907Y697903D01*
X635936Y697940D01*
X635957Y698002D01*
X635988Y698061D01*
X635996Y698115D01*
X636008Y698152D01*
X636007Y698192D01*
X636015Y698246D01*
X636015Y700786D01*
X636004Y700851D01*
X636002Y700917D01*
X635984Y700960D01*
X635976Y701007D01*
X635942Y701064D01*
X635917Y701124D01*
X635886Y701159D01*
X635861Y701200D01*
X635810Y701242D01*
X635766Y701290D01*
X635724Y701312D01*
X635687Y701341D01*
X635625Y701362D01*
X635566Y701393D01*
X635512Y701401D01*
X635475Y701413D01*
X635435Y701412D01*
X635381Y701420D01*
X631571Y701420D01*
X631506Y701409D01*
X631440Y701407D01*
X631397Y701389D01*
X631350Y701381D01*
X631293Y701347D01*
X631233Y701322D01*
X631198Y701291D01*
X631157Y701266D01*
X631116Y701215D01*
X631067Y701171D01*
X631045Y701129D01*
X631016Y701092D01*
X630995Y701030D01*
X630964Y700971D01*
X630956Y700917D01*
X630944Y700880D01*
X630944Y700877D01*
X630945Y700840D01*
X630937Y700786D01*
X630937Y698246D01*
X630948Y698181D01*
X630950Y698115D01*
X630968Y698072D01*
X630976Y698025D01*
X631010Y697968D01*
X631035Y697908D01*
X631066Y697873D01*
X631091Y697832D01*
X631142Y697791D01*
X631186Y697742D01*
X631228Y697720D01*
X631265Y697691D01*
X631327Y697670D01*
X631386Y697639D01*
X631440Y697631D01*
X631477Y697619D01*
X631517Y697620D01*
X631571Y697612D01*
X635381Y697612D01*
X635446Y697623D01*
G37*
G36*
X523940Y697623D02*
X523940Y697623D01*
X524006Y697625D01*
X524049Y697643D01*
X524096Y697651D01*
X524153Y697685D01*
X524213Y697710D01*
X524248Y697741D01*
X524289Y697766D01*
X524331Y697817D01*
X524379Y697861D01*
X524401Y697903D01*
X524430Y697940D01*
X524451Y698002D01*
X524482Y698061D01*
X524490Y698115D01*
X524502Y698152D01*
X524501Y698192D01*
X524509Y698246D01*
X524509Y700786D01*
X524498Y700851D01*
X524496Y700917D01*
X524478Y700960D01*
X524470Y701007D01*
X524436Y701064D01*
X524411Y701124D01*
X524380Y701159D01*
X524355Y701200D01*
X524304Y701242D01*
X524260Y701290D01*
X524218Y701312D01*
X524181Y701341D01*
X524119Y701362D01*
X524060Y701393D01*
X524006Y701401D01*
X523969Y701413D01*
X523929Y701412D01*
X523875Y701420D01*
X520065Y701420D01*
X520000Y701409D01*
X519934Y701407D01*
X519891Y701389D01*
X519844Y701381D01*
X519787Y701347D01*
X519727Y701322D01*
X519692Y701291D01*
X519651Y701266D01*
X519610Y701215D01*
X519561Y701171D01*
X519539Y701129D01*
X519510Y701092D01*
X519489Y701030D01*
X519458Y700971D01*
X519450Y700917D01*
X519438Y700880D01*
X519438Y700877D01*
X519439Y700840D01*
X519431Y700786D01*
X519431Y698246D01*
X519442Y698181D01*
X519444Y698115D01*
X519462Y698072D01*
X519470Y698025D01*
X519504Y697968D01*
X519529Y697908D01*
X519560Y697873D01*
X519585Y697832D01*
X519636Y697791D01*
X519680Y697742D01*
X519722Y697720D01*
X519759Y697691D01*
X519821Y697670D01*
X519880Y697639D01*
X519934Y697631D01*
X519971Y697619D01*
X520011Y697620D01*
X520065Y697612D01*
X523875Y697612D01*
X523940Y697623D01*
G37*
G36*
X61660Y697623D02*
X61660Y697623D01*
X61726Y697625D01*
X61769Y697643D01*
X61816Y697651D01*
X61873Y697685D01*
X61933Y697710D01*
X61968Y697741D01*
X62009Y697766D01*
X62051Y697817D01*
X62099Y697861D01*
X62121Y697903D01*
X62150Y697940D01*
X62171Y698002D01*
X62202Y698061D01*
X62210Y698115D01*
X62222Y698152D01*
X62221Y698192D01*
X62229Y698246D01*
X62229Y700786D01*
X62218Y700851D01*
X62216Y700917D01*
X62198Y700960D01*
X62190Y701007D01*
X62156Y701064D01*
X62131Y701124D01*
X62100Y701159D01*
X62075Y701200D01*
X62024Y701242D01*
X61980Y701290D01*
X61938Y701312D01*
X61901Y701341D01*
X61839Y701362D01*
X61780Y701393D01*
X61726Y701401D01*
X61689Y701413D01*
X61649Y701412D01*
X61595Y701420D01*
X57785Y701420D01*
X57720Y701409D01*
X57654Y701407D01*
X57611Y701389D01*
X57564Y701381D01*
X57507Y701347D01*
X57447Y701322D01*
X57412Y701291D01*
X57371Y701266D01*
X57330Y701215D01*
X57281Y701171D01*
X57259Y701129D01*
X57230Y701092D01*
X57209Y701030D01*
X57178Y700971D01*
X57170Y700917D01*
X57158Y700880D01*
X57158Y700877D01*
X57159Y700840D01*
X57151Y700786D01*
X57151Y698246D01*
X57162Y698181D01*
X57164Y698115D01*
X57182Y698072D01*
X57190Y698025D01*
X57224Y697968D01*
X57249Y697908D01*
X57280Y697873D01*
X57305Y697832D01*
X57356Y697791D01*
X57400Y697742D01*
X57442Y697720D01*
X57479Y697691D01*
X57541Y697670D01*
X57600Y697639D01*
X57654Y697631D01*
X57691Y697619D01*
X57731Y697620D01*
X57785Y697612D01*
X61595Y697612D01*
X61660Y697623D01*
G37*
G36*
X173166Y697623D02*
X173166Y697623D01*
X173232Y697625D01*
X173275Y697643D01*
X173322Y697651D01*
X173379Y697685D01*
X173439Y697710D01*
X173474Y697741D01*
X173515Y697766D01*
X173557Y697817D01*
X173605Y697861D01*
X173627Y697903D01*
X173656Y697940D01*
X173677Y698002D01*
X173708Y698061D01*
X173716Y698115D01*
X173728Y698152D01*
X173727Y698192D01*
X173735Y698246D01*
X173735Y700786D01*
X173724Y700851D01*
X173722Y700917D01*
X173704Y700960D01*
X173696Y701007D01*
X173662Y701064D01*
X173637Y701124D01*
X173606Y701159D01*
X173581Y701200D01*
X173530Y701242D01*
X173486Y701290D01*
X173444Y701312D01*
X173407Y701341D01*
X173345Y701362D01*
X173286Y701393D01*
X173232Y701401D01*
X173195Y701413D01*
X173155Y701412D01*
X173101Y701420D01*
X169291Y701420D01*
X169226Y701409D01*
X169160Y701407D01*
X169117Y701389D01*
X169070Y701381D01*
X169013Y701347D01*
X168953Y701322D01*
X168918Y701291D01*
X168877Y701266D01*
X168836Y701215D01*
X168787Y701171D01*
X168765Y701129D01*
X168736Y701092D01*
X168715Y701030D01*
X168684Y700971D01*
X168676Y700917D01*
X168664Y700880D01*
X168664Y700877D01*
X168665Y700840D01*
X168657Y700786D01*
X168657Y698246D01*
X168668Y698181D01*
X168670Y698115D01*
X168688Y698072D01*
X168696Y698025D01*
X168730Y697968D01*
X168755Y697908D01*
X168786Y697873D01*
X168811Y697832D01*
X168862Y697791D01*
X168906Y697742D01*
X168948Y697720D01*
X168985Y697691D01*
X169047Y697670D01*
X169106Y697639D01*
X169160Y697631D01*
X169197Y697619D01*
X169237Y697620D01*
X169291Y697612D01*
X173101Y697612D01*
X173166Y697623D01*
G37*
G36*
X888430Y160667D02*
X888430Y160667D01*
X888496Y160669D01*
X888539Y160687D01*
X888586Y160695D01*
X888643Y160729D01*
X888703Y160754D01*
X888738Y160785D01*
X888779Y160810D01*
X888821Y160861D01*
X888869Y160905D01*
X888891Y160947D01*
X888920Y160984D01*
X888941Y161046D01*
X888972Y161105D01*
X888980Y161159D01*
X888992Y161196D01*
X888991Y161236D01*
X888999Y161290D01*
X888999Y163830D01*
X888988Y163895D01*
X888986Y163961D01*
X888968Y164004D01*
X888960Y164051D01*
X888926Y164108D01*
X888901Y164168D01*
X888870Y164203D01*
X888845Y164244D01*
X888794Y164286D01*
X888750Y164334D01*
X888708Y164356D01*
X888671Y164385D01*
X888609Y164406D01*
X888550Y164437D01*
X888496Y164445D01*
X888459Y164457D01*
X888419Y164456D01*
X888365Y164464D01*
X884555Y164464D01*
X884490Y164453D01*
X884424Y164451D01*
X884381Y164433D01*
X884334Y164425D01*
X884277Y164391D01*
X884217Y164366D01*
X884182Y164335D01*
X884141Y164310D01*
X884100Y164259D01*
X884051Y164215D01*
X884029Y164173D01*
X884000Y164136D01*
X883979Y164074D01*
X883948Y164015D01*
X883940Y163961D01*
X883928Y163924D01*
X883928Y163921D01*
X883929Y163884D01*
X883921Y163830D01*
X883921Y161290D01*
X883932Y161225D01*
X883934Y161159D01*
X883952Y161116D01*
X883960Y161069D01*
X883994Y161012D01*
X884019Y160952D01*
X884050Y160917D01*
X884075Y160876D01*
X884126Y160835D01*
X884170Y160786D01*
X884212Y160764D01*
X884249Y160735D01*
X884311Y160714D01*
X884370Y160683D01*
X884424Y160675D01*
X884461Y160663D01*
X884501Y160664D01*
X884555Y160656D01*
X888365Y160656D01*
X888430Y160667D01*
G37*
G36*
X878270Y160667D02*
X878270Y160667D01*
X878336Y160669D01*
X878379Y160687D01*
X878426Y160695D01*
X878483Y160729D01*
X878543Y160754D01*
X878578Y160785D01*
X878619Y160810D01*
X878661Y160861D01*
X878709Y160905D01*
X878731Y160947D01*
X878760Y160984D01*
X878781Y161046D01*
X878812Y161105D01*
X878820Y161159D01*
X878832Y161196D01*
X878831Y161236D01*
X878839Y161290D01*
X878839Y163830D01*
X878828Y163895D01*
X878826Y163961D01*
X878808Y164004D01*
X878800Y164051D01*
X878766Y164108D01*
X878741Y164168D01*
X878710Y164203D01*
X878685Y164244D01*
X878634Y164286D01*
X878590Y164334D01*
X878548Y164356D01*
X878511Y164385D01*
X878449Y164406D01*
X878390Y164437D01*
X878336Y164445D01*
X878299Y164457D01*
X878259Y164456D01*
X878205Y164464D01*
X874395Y164464D01*
X874330Y164453D01*
X874264Y164451D01*
X874221Y164433D01*
X874174Y164425D01*
X874117Y164391D01*
X874057Y164366D01*
X874022Y164335D01*
X873981Y164310D01*
X873940Y164259D01*
X873891Y164215D01*
X873869Y164173D01*
X873840Y164136D01*
X873819Y164074D01*
X873788Y164015D01*
X873780Y163961D01*
X873768Y163924D01*
X873768Y163921D01*
X873769Y163884D01*
X873761Y163830D01*
X873761Y161290D01*
X873772Y161225D01*
X873774Y161159D01*
X873792Y161116D01*
X873800Y161069D01*
X873834Y161012D01*
X873859Y160952D01*
X873890Y160917D01*
X873915Y160876D01*
X873966Y160835D01*
X874010Y160786D01*
X874052Y160764D01*
X874089Y160735D01*
X874151Y160714D01*
X874210Y160683D01*
X874264Y160675D01*
X874301Y160663D01*
X874341Y160664D01*
X874395Y160656D01*
X878205Y160656D01*
X878270Y160667D01*
G37*
G36*
X426150Y160667D02*
X426150Y160667D01*
X426216Y160669D01*
X426259Y160687D01*
X426306Y160695D01*
X426363Y160729D01*
X426423Y160754D01*
X426458Y160785D01*
X426499Y160810D01*
X426541Y160861D01*
X426589Y160905D01*
X426611Y160947D01*
X426640Y160984D01*
X426661Y161046D01*
X426692Y161105D01*
X426700Y161159D01*
X426712Y161196D01*
X426711Y161236D01*
X426719Y161290D01*
X426719Y163830D01*
X426708Y163895D01*
X426706Y163961D01*
X426688Y164004D01*
X426680Y164051D01*
X426646Y164108D01*
X426621Y164168D01*
X426590Y164203D01*
X426565Y164244D01*
X426514Y164286D01*
X426470Y164334D01*
X426428Y164356D01*
X426391Y164385D01*
X426329Y164406D01*
X426270Y164437D01*
X426216Y164445D01*
X426179Y164457D01*
X426139Y164456D01*
X426085Y164464D01*
X422275Y164464D01*
X422210Y164453D01*
X422144Y164451D01*
X422101Y164433D01*
X422054Y164425D01*
X421997Y164391D01*
X421937Y164366D01*
X421902Y164335D01*
X421861Y164310D01*
X421820Y164259D01*
X421771Y164215D01*
X421749Y164173D01*
X421720Y164136D01*
X421699Y164074D01*
X421668Y164015D01*
X421660Y163961D01*
X421648Y163924D01*
X421648Y163921D01*
X421649Y163884D01*
X421641Y163830D01*
X421641Y161290D01*
X421652Y161225D01*
X421654Y161159D01*
X421672Y161116D01*
X421680Y161069D01*
X421714Y161012D01*
X421739Y160952D01*
X421770Y160917D01*
X421795Y160876D01*
X421846Y160835D01*
X421890Y160786D01*
X421932Y160764D01*
X421969Y160735D01*
X422031Y160714D01*
X422090Y160683D01*
X422144Y160675D01*
X422181Y160663D01*
X422221Y160664D01*
X422275Y160656D01*
X426085Y160656D01*
X426150Y160667D01*
G37*
G36*
X415990Y160667D02*
X415990Y160667D01*
X416056Y160669D01*
X416099Y160687D01*
X416146Y160695D01*
X416203Y160729D01*
X416263Y160754D01*
X416298Y160785D01*
X416339Y160810D01*
X416381Y160861D01*
X416429Y160905D01*
X416451Y160947D01*
X416480Y160984D01*
X416501Y161046D01*
X416532Y161105D01*
X416540Y161159D01*
X416552Y161196D01*
X416551Y161236D01*
X416559Y161290D01*
X416559Y163830D01*
X416548Y163895D01*
X416546Y163961D01*
X416528Y164004D01*
X416520Y164051D01*
X416486Y164108D01*
X416461Y164168D01*
X416430Y164203D01*
X416405Y164244D01*
X416354Y164286D01*
X416310Y164334D01*
X416268Y164356D01*
X416231Y164385D01*
X416169Y164406D01*
X416110Y164437D01*
X416056Y164445D01*
X416019Y164457D01*
X415979Y164456D01*
X415925Y164464D01*
X412115Y164464D01*
X412050Y164453D01*
X411984Y164451D01*
X411941Y164433D01*
X411894Y164425D01*
X411837Y164391D01*
X411777Y164366D01*
X411742Y164335D01*
X411701Y164310D01*
X411660Y164259D01*
X411611Y164215D01*
X411589Y164173D01*
X411560Y164136D01*
X411539Y164074D01*
X411508Y164015D01*
X411500Y163961D01*
X411488Y163924D01*
X411488Y163921D01*
X411489Y163884D01*
X411481Y163830D01*
X411481Y161290D01*
X411492Y161225D01*
X411494Y161159D01*
X411512Y161116D01*
X411520Y161069D01*
X411554Y161012D01*
X411579Y160952D01*
X411610Y160917D01*
X411635Y160876D01*
X411686Y160835D01*
X411730Y160786D01*
X411772Y160764D01*
X411809Y160735D01*
X411871Y160714D01*
X411930Y160683D01*
X411984Y160675D01*
X412021Y160663D01*
X412061Y160664D01*
X412115Y160656D01*
X415925Y160656D01*
X415990Y160667D01*
G37*
G36*
X489650Y135267D02*
X489650Y135267D01*
X489716Y135269D01*
X489759Y135287D01*
X489806Y135295D01*
X489863Y135329D01*
X489923Y135354D01*
X489958Y135385D01*
X489999Y135410D01*
X490041Y135461D01*
X490089Y135505D01*
X490111Y135547D01*
X490140Y135584D01*
X490161Y135646D01*
X490192Y135705D01*
X490200Y135759D01*
X490212Y135796D01*
X490211Y135836D01*
X490219Y135890D01*
X490219Y138430D01*
X490208Y138495D01*
X490206Y138561D01*
X490188Y138604D01*
X490180Y138651D01*
X490146Y138708D01*
X490121Y138768D01*
X490090Y138803D01*
X490065Y138844D01*
X490014Y138886D01*
X489970Y138934D01*
X489928Y138956D01*
X489891Y138985D01*
X489829Y139006D01*
X489770Y139037D01*
X489716Y139045D01*
X489679Y139057D01*
X489639Y139056D01*
X489585Y139064D01*
X485775Y139064D01*
X485710Y139053D01*
X485644Y139051D01*
X485601Y139033D01*
X485554Y139025D01*
X485497Y138991D01*
X485437Y138966D01*
X485402Y138935D01*
X485361Y138910D01*
X485320Y138859D01*
X485271Y138815D01*
X485249Y138773D01*
X485220Y138736D01*
X485199Y138674D01*
X485168Y138615D01*
X485160Y138561D01*
X485148Y138524D01*
X485148Y138521D01*
X485149Y138484D01*
X485141Y138430D01*
X485141Y135890D01*
X485152Y135825D01*
X485154Y135759D01*
X485172Y135716D01*
X485180Y135669D01*
X485214Y135612D01*
X485239Y135552D01*
X485270Y135517D01*
X485295Y135476D01*
X485346Y135435D01*
X485390Y135386D01*
X485432Y135364D01*
X485469Y135335D01*
X485531Y135314D01*
X485590Y135283D01*
X485644Y135275D01*
X485681Y135263D01*
X485721Y135264D01*
X485775Y135256D01*
X489585Y135256D01*
X489650Y135267D01*
G37*
G36*
X27370Y135267D02*
X27370Y135267D01*
X27436Y135269D01*
X27479Y135287D01*
X27526Y135295D01*
X27583Y135329D01*
X27643Y135354D01*
X27678Y135385D01*
X27719Y135410D01*
X27761Y135461D01*
X27809Y135505D01*
X27831Y135547D01*
X27860Y135584D01*
X27881Y135646D01*
X27912Y135705D01*
X27920Y135759D01*
X27932Y135796D01*
X27931Y135836D01*
X27939Y135890D01*
X27939Y138430D01*
X27928Y138495D01*
X27926Y138561D01*
X27908Y138604D01*
X27900Y138651D01*
X27866Y138708D01*
X27841Y138768D01*
X27810Y138803D01*
X27785Y138844D01*
X27734Y138886D01*
X27690Y138934D01*
X27648Y138956D01*
X27611Y138985D01*
X27549Y139006D01*
X27490Y139037D01*
X27436Y139045D01*
X27399Y139057D01*
X27359Y139056D01*
X27305Y139064D01*
X23495Y139064D01*
X23430Y139053D01*
X23364Y139051D01*
X23321Y139033D01*
X23274Y139025D01*
X23217Y138991D01*
X23157Y138966D01*
X23122Y138935D01*
X23081Y138910D01*
X23040Y138859D01*
X22991Y138815D01*
X22969Y138773D01*
X22940Y138736D01*
X22919Y138674D01*
X22888Y138615D01*
X22880Y138561D01*
X22868Y138524D01*
X22868Y138521D01*
X22869Y138484D01*
X22861Y138430D01*
X22861Y135890D01*
X22872Y135825D01*
X22874Y135759D01*
X22892Y135716D01*
X22900Y135669D01*
X22934Y135612D01*
X22959Y135552D01*
X22990Y135517D01*
X23015Y135476D01*
X23066Y135435D01*
X23110Y135386D01*
X23152Y135364D01*
X23189Y135335D01*
X23251Y135314D01*
X23310Y135283D01*
X23364Y135275D01*
X23401Y135263D01*
X23441Y135264D01*
X23495Y135256D01*
X27305Y135256D01*
X27370Y135267D01*
G37*
G36*
X489650Y103517D02*
X489650Y103517D01*
X489716Y103519D01*
X489759Y103537D01*
X489806Y103545D01*
X489863Y103579D01*
X489923Y103604D01*
X489958Y103635D01*
X489999Y103660D01*
X490041Y103711D01*
X490089Y103755D01*
X490111Y103797D01*
X490140Y103834D01*
X490161Y103896D01*
X490192Y103955D01*
X490200Y104009D01*
X490212Y104046D01*
X490211Y104086D01*
X490219Y104140D01*
X490219Y106680D01*
X490208Y106745D01*
X490206Y106811D01*
X490188Y106854D01*
X490180Y106901D01*
X490146Y106958D01*
X490121Y107018D01*
X490090Y107053D01*
X490065Y107094D01*
X490014Y107136D01*
X489970Y107184D01*
X489928Y107206D01*
X489891Y107235D01*
X489829Y107256D01*
X489770Y107287D01*
X489716Y107295D01*
X489679Y107307D01*
X489639Y107306D01*
X489585Y107314D01*
X485775Y107314D01*
X485710Y107303D01*
X485644Y107301D01*
X485601Y107283D01*
X485554Y107275D01*
X485497Y107241D01*
X485437Y107216D01*
X485402Y107185D01*
X485361Y107160D01*
X485320Y107109D01*
X485271Y107065D01*
X485249Y107023D01*
X485220Y106986D01*
X485199Y106924D01*
X485168Y106865D01*
X485160Y106811D01*
X485148Y106774D01*
X485148Y106771D01*
X485149Y106734D01*
X485141Y106680D01*
X485141Y104140D01*
X485152Y104075D01*
X485154Y104009D01*
X485172Y103966D01*
X485180Y103919D01*
X485214Y103862D01*
X485239Y103802D01*
X485270Y103767D01*
X485295Y103726D01*
X485346Y103685D01*
X485390Y103636D01*
X485432Y103614D01*
X485469Y103585D01*
X485531Y103564D01*
X485590Y103533D01*
X485644Y103525D01*
X485681Y103513D01*
X485721Y103514D01*
X485775Y103506D01*
X489585Y103506D01*
X489650Y103517D01*
G37*
G36*
X27370Y103517D02*
X27370Y103517D01*
X27436Y103519D01*
X27479Y103537D01*
X27526Y103545D01*
X27583Y103579D01*
X27643Y103604D01*
X27678Y103635D01*
X27719Y103660D01*
X27761Y103711D01*
X27809Y103755D01*
X27831Y103797D01*
X27860Y103834D01*
X27881Y103896D01*
X27912Y103955D01*
X27920Y104009D01*
X27932Y104046D01*
X27931Y104086D01*
X27939Y104140D01*
X27939Y106680D01*
X27928Y106745D01*
X27926Y106811D01*
X27908Y106854D01*
X27900Y106901D01*
X27866Y106958D01*
X27841Y107018D01*
X27810Y107053D01*
X27785Y107094D01*
X27734Y107136D01*
X27690Y107184D01*
X27648Y107206D01*
X27611Y107235D01*
X27549Y107256D01*
X27490Y107287D01*
X27436Y107295D01*
X27399Y107307D01*
X27359Y107306D01*
X27305Y107314D01*
X23495Y107314D01*
X23430Y107303D01*
X23364Y107301D01*
X23321Y107283D01*
X23274Y107275D01*
X23217Y107241D01*
X23157Y107216D01*
X23122Y107185D01*
X23081Y107160D01*
X23040Y107109D01*
X22991Y107065D01*
X22969Y107023D01*
X22940Y106986D01*
X22919Y106924D01*
X22888Y106865D01*
X22880Y106811D01*
X22868Y106774D01*
X22868Y106771D01*
X22869Y106734D01*
X22861Y106680D01*
X22861Y104140D01*
X22872Y104075D01*
X22874Y104009D01*
X22892Y103966D01*
X22900Y103919D01*
X22934Y103862D01*
X22959Y103802D01*
X22990Y103767D01*
X23015Y103726D01*
X23066Y103685D01*
X23110Y103636D01*
X23152Y103614D01*
X23189Y103585D01*
X23251Y103564D01*
X23310Y103533D01*
X23364Y103525D01*
X23401Y103513D01*
X23441Y103514D01*
X23495Y103506D01*
X27305Y103506D01*
X27370Y103517D01*
G37*
G36*
X489650Y71767D02*
X489650Y71767D01*
X489716Y71769D01*
X489759Y71787D01*
X489806Y71795D01*
X489863Y71829D01*
X489923Y71854D01*
X489958Y71885D01*
X489999Y71910D01*
X490041Y71961D01*
X490089Y72005D01*
X490111Y72047D01*
X490140Y72084D01*
X490161Y72146D01*
X490192Y72205D01*
X490200Y72259D01*
X490212Y72296D01*
X490211Y72336D01*
X490219Y72390D01*
X490219Y74930D01*
X490208Y74995D01*
X490206Y75061D01*
X490188Y75104D01*
X490180Y75151D01*
X490146Y75208D01*
X490121Y75268D01*
X490090Y75303D01*
X490065Y75344D01*
X490014Y75386D01*
X489970Y75434D01*
X489928Y75456D01*
X489891Y75485D01*
X489829Y75506D01*
X489770Y75537D01*
X489716Y75545D01*
X489679Y75557D01*
X489639Y75556D01*
X489585Y75564D01*
X485775Y75564D01*
X485710Y75553D01*
X485644Y75551D01*
X485601Y75533D01*
X485554Y75525D01*
X485497Y75491D01*
X485437Y75466D01*
X485402Y75435D01*
X485361Y75410D01*
X485320Y75359D01*
X485271Y75315D01*
X485249Y75273D01*
X485220Y75236D01*
X485199Y75174D01*
X485168Y75115D01*
X485160Y75061D01*
X485148Y75024D01*
X485148Y75021D01*
X485149Y74984D01*
X485141Y74930D01*
X485141Y72390D01*
X485152Y72325D01*
X485154Y72259D01*
X485172Y72216D01*
X485180Y72169D01*
X485214Y72112D01*
X485239Y72052D01*
X485270Y72017D01*
X485295Y71976D01*
X485346Y71935D01*
X485390Y71886D01*
X485432Y71864D01*
X485469Y71835D01*
X485531Y71814D01*
X485590Y71783D01*
X485644Y71775D01*
X485681Y71763D01*
X485721Y71764D01*
X485775Y71756D01*
X489585Y71756D01*
X489650Y71767D01*
G37*
G36*
X27370Y71767D02*
X27370Y71767D01*
X27436Y71769D01*
X27479Y71787D01*
X27526Y71795D01*
X27583Y71829D01*
X27643Y71854D01*
X27678Y71885D01*
X27719Y71910D01*
X27761Y71961D01*
X27809Y72005D01*
X27831Y72047D01*
X27860Y72084D01*
X27881Y72146D01*
X27912Y72205D01*
X27920Y72259D01*
X27932Y72296D01*
X27931Y72336D01*
X27939Y72390D01*
X27939Y74930D01*
X27928Y74995D01*
X27926Y75061D01*
X27908Y75104D01*
X27900Y75151D01*
X27866Y75208D01*
X27841Y75268D01*
X27810Y75303D01*
X27785Y75344D01*
X27734Y75386D01*
X27690Y75434D01*
X27648Y75456D01*
X27611Y75485D01*
X27549Y75506D01*
X27490Y75537D01*
X27436Y75545D01*
X27399Y75557D01*
X27359Y75556D01*
X27305Y75564D01*
X23495Y75564D01*
X23430Y75553D01*
X23364Y75551D01*
X23321Y75533D01*
X23274Y75525D01*
X23217Y75491D01*
X23157Y75466D01*
X23122Y75435D01*
X23081Y75410D01*
X23040Y75359D01*
X22991Y75315D01*
X22969Y75273D01*
X22940Y75236D01*
X22919Y75174D01*
X22888Y75115D01*
X22880Y75061D01*
X22868Y75024D01*
X22868Y75021D01*
X22869Y74984D01*
X22861Y74930D01*
X22861Y72390D01*
X22872Y72325D01*
X22874Y72259D01*
X22892Y72216D01*
X22900Y72169D01*
X22934Y72112D01*
X22959Y72052D01*
X22990Y72017D01*
X23015Y71976D01*
X23066Y71935D01*
X23110Y71886D01*
X23152Y71864D01*
X23189Y71835D01*
X23251Y71814D01*
X23310Y71783D01*
X23364Y71775D01*
X23401Y71763D01*
X23441Y71764D01*
X23495Y71756D01*
X27305Y71756D01*
X27370Y71767D01*
G37*
G36*
X748730Y33667D02*
X748730Y33667D01*
X748796Y33669D01*
X748839Y33687D01*
X748886Y33695D01*
X748943Y33729D01*
X749003Y33754D01*
X749038Y33785D01*
X749079Y33810D01*
X749121Y33861D01*
X749169Y33905D01*
X749191Y33947D01*
X749220Y33984D01*
X749241Y34046D01*
X749272Y34105D01*
X749280Y34159D01*
X749292Y34196D01*
X749291Y34236D01*
X749299Y34290D01*
X749299Y36830D01*
X749288Y36895D01*
X749286Y36961D01*
X749268Y37004D01*
X749260Y37051D01*
X749226Y37108D01*
X749201Y37168D01*
X749170Y37203D01*
X749145Y37244D01*
X749094Y37286D01*
X749050Y37334D01*
X749008Y37356D01*
X748971Y37385D01*
X748909Y37406D01*
X748850Y37437D01*
X748796Y37445D01*
X748759Y37457D01*
X748719Y37456D01*
X748665Y37464D01*
X744855Y37464D01*
X744790Y37453D01*
X744724Y37451D01*
X744681Y37433D01*
X744634Y37425D01*
X744577Y37391D01*
X744517Y37366D01*
X744482Y37335D01*
X744441Y37310D01*
X744400Y37259D01*
X744351Y37215D01*
X744329Y37173D01*
X744300Y37136D01*
X744279Y37074D01*
X744248Y37015D01*
X744240Y36961D01*
X744228Y36924D01*
X744228Y36921D01*
X744229Y36884D01*
X744221Y36830D01*
X744221Y34290D01*
X744232Y34225D01*
X744234Y34159D01*
X744252Y34116D01*
X744260Y34069D01*
X744294Y34012D01*
X744319Y33952D01*
X744350Y33917D01*
X744375Y33876D01*
X744426Y33835D01*
X744470Y33786D01*
X744512Y33764D01*
X744549Y33735D01*
X744611Y33714D01*
X744670Y33683D01*
X744724Y33675D01*
X744761Y33663D01*
X744801Y33664D01*
X744855Y33656D01*
X748665Y33656D01*
X748730Y33667D01*
G37*
G36*
X286450Y33667D02*
X286450Y33667D01*
X286516Y33669D01*
X286559Y33687D01*
X286606Y33695D01*
X286663Y33729D01*
X286723Y33754D01*
X286758Y33785D01*
X286799Y33810D01*
X286841Y33861D01*
X286889Y33905D01*
X286911Y33947D01*
X286940Y33984D01*
X286961Y34046D01*
X286992Y34105D01*
X287000Y34159D01*
X287012Y34196D01*
X287011Y34236D01*
X287019Y34290D01*
X287019Y36830D01*
X287008Y36895D01*
X287006Y36961D01*
X286988Y37004D01*
X286980Y37051D01*
X286946Y37108D01*
X286921Y37168D01*
X286890Y37203D01*
X286865Y37244D01*
X286814Y37286D01*
X286770Y37334D01*
X286728Y37356D01*
X286691Y37385D01*
X286629Y37406D01*
X286570Y37437D01*
X286516Y37445D01*
X286479Y37457D01*
X286439Y37456D01*
X286385Y37464D01*
X282575Y37464D01*
X282510Y37453D01*
X282444Y37451D01*
X282401Y37433D01*
X282354Y37425D01*
X282297Y37391D01*
X282237Y37366D01*
X282202Y37335D01*
X282161Y37310D01*
X282120Y37259D01*
X282071Y37215D01*
X282049Y37173D01*
X282020Y37136D01*
X281999Y37074D01*
X281968Y37015D01*
X281960Y36961D01*
X281948Y36924D01*
X281948Y36921D01*
X281949Y36884D01*
X281941Y36830D01*
X281941Y34290D01*
X281952Y34225D01*
X281954Y34159D01*
X281972Y34116D01*
X281980Y34069D01*
X282014Y34012D01*
X282039Y33952D01*
X282070Y33917D01*
X282095Y33876D01*
X282146Y33835D01*
X282190Y33786D01*
X282232Y33764D01*
X282269Y33735D01*
X282331Y33714D01*
X282390Y33683D01*
X282444Y33675D01*
X282481Y33663D01*
X282521Y33664D01*
X282575Y33656D01*
X286385Y33656D01*
X286450Y33667D01*
G37*
G36*
X635446Y32143D02*
X635446Y32143D01*
X635512Y32145D01*
X635555Y32163D01*
X635602Y32171D01*
X635659Y32205D01*
X635719Y32230D01*
X635754Y32261D01*
X635795Y32286D01*
X635837Y32337D01*
X635885Y32381D01*
X635907Y32423D01*
X635936Y32460D01*
X635957Y32522D01*
X635988Y32581D01*
X635996Y32635D01*
X636008Y32672D01*
X636007Y32712D01*
X636015Y32766D01*
X636015Y35306D01*
X636004Y35371D01*
X636002Y35437D01*
X635984Y35480D01*
X635976Y35527D01*
X635942Y35584D01*
X635917Y35644D01*
X635886Y35679D01*
X635861Y35720D01*
X635810Y35762D01*
X635766Y35810D01*
X635724Y35832D01*
X635687Y35861D01*
X635625Y35882D01*
X635566Y35913D01*
X635512Y35921D01*
X635475Y35933D01*
X635435Y35932D01*
X635381Y35940D01*
X631571Y35940D01*
X631506Y35929D01*
X631440Y35927D01*
X631397Y35909D01*
X631350Y35901D01*
X631293Y35867D01*
X631233Y35842D01*
X631198Y35811D01*
X631157Y35786D01*
X631116Y35735D01*
X631067Y35691D01*
X631045Y35649D01*
X631016Y35612D01*
X630995Y35550D01*
X630964Y35491D01*
X630956Y35437D01*
X630944Y35400D01*
X630944Y35397D01*
X630945Y35360D01*
X630937Y35306D01*
X630937Y32766D01*
X630948Y32701D01*
X630950Y32635D01*
X630968Y32592D01*
X630976Y32545D01*
X631010Y32488D01*
X631035Y32428D01*
X631066Y32393D01*
X631091Y32352D01*
X631142Y32311D01*
X631186Y32262D01*
X631228Y32240D01*
X631265Y32211D01*
X631327Y32190D01*
X631386Y32159D01*
X631440Y32151D01*
X631477Y32139D01*
X631517Y32140D01*
X631571Y32132D01*
X635381Y32132D01*
X635446Y32143D01*
G37*
G36*
X523940Y32143D02*
X523940Y32143D01*
X524006Y32145D01*
X524049Y32163D01*
X524096Y32171D01*
X524153Y32205D01*
X524213Y32230D01*
X524248Y32261D01*
X524289Y32286D01*
X524331Y32337D01*
X524379Y32381D01*
X524401Y32423D01*
X524430Y32460D01*
X524451Y32522D01*
X524482Y32581D01*
X524490Y32635D01*
X524502Y32672D01*
X524501Y32712D01*
X524509Y32766D01*
X524509Y35306D01*
X524498Y35371D01*
X524496Y35437D01*
X524478Y35480D01*
X524470Y35527D01*
X524436Y35584D01*
X524411Y35644D01*
X524380Y35679D01*
X524355Y35720D01*
X524304Y35762D01*
X524260Y35810D01*
X524218Y35832D01*
X524181Y35861D01*
X524119Y35882D01*
X524060Y35913D01*
X524006Y35921D01*
X523969Y35933D01*
X523929Y35932D01*
X523875Y35940D01*
X520065Y35940D01*
X520000Y35929D01*
X519934Y35927D01*
X519891Y35909D01*
X519844Y35901D01*
X519787Y35867D01*
X519727Y35842D01*
X519692Y35811D01*
X519651Y35786D01*
X519610Y35735D01*
X519561Y35691D01*
X519539Y35649D01*
X519510Y35612D01*
X519489Y35550D01*
X519458Y35491D01*
X519450Y35437D01*
X519438Y35400D01*
X519438Y35397D01*
X519439Y35360D01*
X519431Y35306D01*
X519431Y32766D01*
X519442Y32701D01*
X519444Y32635D01*
X519462Y32592D01*
X519470Y32545D01*
X519504Y32488D01*
X519529Y32428D01*
X519560Y32393D01*
X519585Y32352D01*
X519636Y32311D01*
X519680Y32262D01*
X519722Y32240D01*
X519759Y32211D01*
X519821Y32190D01*
X519880Y32159D01*
X519934Y32151D01*
X519971Y32139D01*
X520011Y32140D01*
X520065Y32132D01*
X523875Y32132D01*
X523940Y32143D01*
G37*
G36*
X61660Y32143D02*
X61660Y32143D01*
X61726Y32145D01*
X61769Y32163D01*
X61816Y32171D01*
X61873Y32205D01*
X61933Y32230D01*
X61968Y32261D01*
X62009Y32286D01*
X62051Y32337D01*
X62099Y32381D01*
X62121Y32423D01*
X62150Y32460D01*
X62171Y32522D01*
X62202Y32581D01*
X62210Y32635D01*
X62222Y32672D01*
X62221Y32712D01*
X62229Y32766D01*
X62229Y35306D01*
X62218Y35371D01*
X62216Y35437D01*
X62198Y35480D01*
X62190Y35527D01*
X62156Y35584D01*
X62131Y35644D01*
X62100Y35679D01*
X62075Y35720D01*
X62024Y35762D01*
X61980Y35810D01*
X61938Y35832D01*
X61901Y35861D01*
X61839Y35882D01*
X61780Y35913D01*
X61726Y35921D01*
X61689Y35933D01*
X61649Y35932D01*
X61595Y35940D01*
X57785Y35940D01*
X57720Y35929D01*
X57654Y35927D01*
X57611Y35909D01*
X57564Y35901D01*
X57507Y35867D01*
X57447Y35842D01*
X57412Y35811D01*
X57371Y35786D01*
X57330Y35735D01*
X57281Y35691D01*
X57259Y35649D01*
X57230Y35612D01*
X57209Y35550D01*
X57178Y35491D01*
X57170Y35437D01*
X57158Y35400D01*
X57158Y35397D01*
X57159Y35360D01*
X57151Y35306D01*
X57151Y32766D01*
X57162Y32701D01*
X57164Y32635D01*
X57182Y32592D01*
X57190Y32545D01*
X57224Y32488D01*
X57249Y32428D01*
X57280Y32393D01*
X57305Y32352D01*
X57356Y32311D01*
X57400Y32262D01*
X57442Y32240D01*
X57479Y32211D01*
X57541Y32190D01*
X57600Y32159D01*
X57654Y32151D01*
X57691Y32139D01*
X57731Y32140D01*
X57785Y32132D01*
X61595Y32132D01*
X61660Y32143D01*
G37*
G36*
X173166Y32143D02*
X173166Y32143D01*
X173232Y32145D01*
X173275Y32163D01*
X173322Y32171D01*
X173379Y32205D01*
X173439Y32230D01*
X173474Y32261D01*
X173515Y32286D01*
X173557Y32337D01*
X173605Y32381D01*
X173627Y32423D01*
X173656Y32460D01*
X173677Y32522D01*
X173708Y32581D01*
X173716Y32635D01*
X173728Y32672D01*
X173727Y32712D01*
X173735Y32766D01*
X173735Y35306D01*
X173724Y35371D01*
X173722Y35437D01*
X173704Y35480D01*
X173696Y35527D01*
X173662Y35584D01*
X173637Y35644D01*
X173606Y35679D01*
X173581Y35720D01*
X173530Y35762D01*
X173486Y35810D01*
X173444Y35832D01*
X173407Y35861D01*
X173345Y35882D01*
X173286Y35913D01*
X173232Y35921D01*
X173195Y35933D01*
X173155Y35932D01*
X173101Y35940D01*
X169291Y35940D01*
X169226Y35929D01*
X169160Y35927D01*
X169117Y35909D01*
X169070Y35901D01*
X169013Y35867D01*
X168953Y35842D01*
X168918Y35811D01*
X168877Y35786D01*
X168836Y35735D01*
X168787Y35691D01*
X168765Y35649D01*
X168736Y35612D01*
X168715Y35550D01*
X168684Y35491D01*
X168676Y35437D01*
X168664Y35400D01*
X168664Y35397D01*
X168665Y35360D01*
X168657Y35306D01*
X168657Y32766D01*
X168668Y32701D01*
X168670Y32635D01*
X168688Y32592D01*
X168696Y32545D01*
X168730Y32488D01*
X168755Y32428D01*
X168786Y32393D01*
X168811Y32352D01*
X168862Y32311D01*
X168906Y32262D01*
X168948Y32240D01*
X168985Y32211D01*
X169047Y32190D01*
X169106Y32159D01*
X169160Y32151D01*
X169197Y32139D01*
X169237Y32140D01*
X169291Y32132D01*
X173101Y32132D01*
X173166Y32143D01*
G37*
D10*
X241300Y127000D03*
X215900Y127000D03*
D11*
X426718Y168404D02*
X432310Y168404D01*
X432310Y156716D01*
X426718Y156716D01*
X426718Y168404D01*
X426718Y158885D02*
X432310Y158885D01*
X432310Y161054D02*
X426718Y161054D01*
X426718Y163223D02*
X432310Y163223D01*
X432310Y165392D02*
X426718Y165392D01*
X426718Y167561D02*
X432310Y167561D01*
X421896Y168404D02*
X416304Y168404D01*
X421896Y168404D02*
X421896Y156716D01*
X416304Y156716D01*
X416304Y168404D01*
X416304Y158885D02*
X421896Y158885D01*
X421896Y161054D02*
X416304Y161054D01*
X416304Y163223D02*
X421896Y163223D01*
X421896Y165392D02*
X416304Y165392D01*
X416304Y167561D02*
X421896Y167561D01*
X411482Y168404D02*
X405890Y168404D01*
X411482Y168404D02*
X411482Y156716D01*
X405890Y156716D01*
X405890Y168404D01*
X405890Y158885D02*
X411482Y158885D01*
X411482Y161054D02*
X405890Y161054D01*
X405890Y163223D02*
X411482Y163223D01*
X411482Y165392D02*
X405890Y165392D01*
X405890Y167561D02*
X411482Y167561D01*
D12*
X301300Y51590D03*
X359100Y51590D03*
D11*
X282069Y29716D02*
X276477Y29716D01*
X276477Y41404D01*
X282069Y41404D01*
X282069Y29716D01*
X282069Y31885D02*
X276477Y31885D01*
X276477Y34054D02*
X282069Y34054D01*
X282069Y36223D02*
X276477Y36223D01*
X276477Y38392D02*
X282069Y38392D01*
X282069Y40561D02*
X276477Y40561D01*
X286891Y29716D02*
X292483Y29716D01*
X286891Y29716D02*
X286891Y41404D01*
X292483Y41404D01*
X292483Y29716D01*
X292483Y31885D02*
X286891Y31885D01*
X286891Y34054D02*
X292483Y34054D01*
X292483Y36223D02*
X286891Y36223D01*
X286891Y38392D02*
X292483Y38392D01*
X292483Y40561D02*
X286891Y40561D01*
D13*
X12700Y368300D03*
X393700Y12700D03*
D10*
X381000Y444500D03*
X381000Y419100D03*
X381000Y393700D03*
X381000Y368300D03*
X381000Y342900D03*
X381000Y317500D03*
X381000Y292100D03*
X381000Y266700D03*
X381000Y241300D03*
X381000Y215900D03*
X76200Y444500D03*
X76200Y419100D03*
X76200Y393700D03*
X76200Y368300D03*
X76200Y342900D03*
X76200Y317500D03*
X76200Y292100D03*
X76200Y266700D03*
X76200Y241300D03*
X76200Y215900D03*
D12*
X98100Y51590D03*
X155900Y51590D03*
D11*
X173607Y39880D02*
X179199Y39880D01*
X179199Y28192D01*
X173607Y28192D01*
X173607Y39880D01*
X173607Y30361D02*
X179199Y30361D01*
X179199Y32530D02*
X173607Y32530D01*
X173607Y34699D02*
X179199Y34699D01*
X179199Y36868D02*
X173607Y36868D01*
X173607Y39037D02*
X179199Y39037D01*
X168785Y39880D02*
X163193Y39880D01*
X168785Y39880D02*
X168785Y28192D01*
X163193Y28192D01*
X163193Y39880D01*
X163193Y30361D02*
X168785Y30361D01*
X168785Y32530D02*
X163193Y32530D01*
X163193Y34699D02*
X168785Y34699D01*
X168785Y36868D02*
X163193Y36868D01*
X163193Y39037D02*
X168785Y39037D01*
X57279Y28192D02*
X51687Y28192D01*
X51687Y39880D01*
X57279Y39880D01*
X57279Y28192D01*
X57279Y30361D02*
X51687Y30361D01*
X51687Y32530D02*
X57279Y32530D01*
X57279Y34699D02*
X51687Y34699D01*
X51687Y36868D02*
X57279Y36868D01*
X57279Y39037D02*
X51687Y39037D01*
X62101Y28192D02*
X67693Y28192D01*
X62101Y28192D02*
X62101Y39880D01*
X67693Y39880D01*
X67693Y28192D01*
X67693Y30361D02*
X62101Y30361D01*
X62101Y32530D02*
X67693Y32530D01*
X67693Y34699D02*
X62101Y34699D01*
X62101Y36868D02*
X67693Y36868D01*
X67693Y39037D02*
X62101Y39037D01*
X33403Y143004D02*
X27811Y143004D01*
X33403Y143004D02*
X33403Y131316D01*
X27811Y131316D01*
X27811Y143004D01*
X27811Y133485D02*
X33403Y133485D01*
X33403Y135654D02*
X27811Y135654D01*
X27811Y137823D02*
X33403Y137823D01*
X33403Y139992D02*
X27811Y139992D01*
X27811Y142161D02*
X33403Y142161D01*
X22989Y143004D02*
X17397Y143004D01*
X22989Y143004D02*
X22989Y131316D01*
X17397Y131316D01*
X17397Y143004D01*
X17397Y133485D02*
X22989Y133485D01*
X22989Y135654D02*
X17397Y135654D01*
X17397Y137823D02*
X22989Y137823D01*
X22989Y139992D02*
X17397Y139992D01*
X17397Y142161D02*
X22989Y142161D01*
D14*
X431800Y609600D03*
X431800Y25400D03*
X25400Y609600D03*
X25400Y25400D03*
D15*
X38100Y121906D03*
X38100Y151906D03*
D11*
X33403Y111254D02*
X27811Y111254D01*
X33403Y111254D02*
X33403Y99566D01*
X27811Y99566D01*
X27811Y111254D01*
X27811Y101735D02*
X33403Y101735D01*
X33403Y103904D02*
X27811Y103904D01*
X27811Y106073D02*
X33403Y106073D01*
X33403Y108242D02*
X27811Y108242D01*
X27811Y110411D02*
X33403Y110411D01*
X22989Y111254D02*
X17397Y111254D01*
X22989Y111254D02*
X22989Y99566D01*
X17397Y99566D01*
X17397Y111254D01*
X17397Y101735D02*
X22989Y101735D01*
X22989Y103904D02*
X17397Y103904D01*
X17397Y106073D02*
X22989Y106073D01*
X22989Y108242D02*
X17397Y108242D01*
X17397Y110411D02*
X22989Y110411D01*
D10*
X76200Y190500D03*
X381000Y190500D03*
D11*
X33403Y79504D02*
X27811Y79504D01*
X33403Y79504D02*
X33403Y67816D01*
X27811Y67816D01*
X27811Y79504D01*
X27811Y69985D02*
X33403Y69985D01*
X33403Y72154D02*
X27811Y72154D01*
X27811Y74323D02*
X33403Y74323D01*
X33403Y76492D02*
X27811Y76492D01*
X27811Y78661D02*
X33403Y78661D01*
X22989Y79504D02*
X17397Y79504D01*
X22989Y79504D02*
X22989Y67816D01*
X17397Y67816D01*
X17397Y79504D01*
X17397Y69985D02*
X22989Y69985D01*
X22989Y72154D02*
X17397Y72154D01*
X17397Y74323D02*
X22989Y74323D01*
X22989Y76492D02*
X17397Y76492D01*
X17397Y78661D02*
X22989Y78661D01*
D10*
X703580Y127000D03*
X678180Y127000D03*
D11*
X888998Y168404D02*
X894590Y168404D01*
X894590Y156716D01*
X888998Y156716D01*
X888998Y168404D01*
X888998Y158885D02*
X894590Y158885D01*
X894590Y161054D02*
X888998Y161054D01*
X888998Y163223D02*
X894590Y163223D01*
X894590Y165392D02*
X888998Y165392D01*
X888998Y167561D02*
X894590Y167561D01*
X884176Y168404D02*
X878584Y168404D01*
X884176Y168404D02*
X884176Y156716D01*
X878584Y156716D01*
X878584Y168404D01*
X878584Y158885D02*
X884176Y158885D01*
X884176Y161054D02*
X878584Y161054D01*
X878584Y163223D02*
X884176Y163223D01*
X884176Y165392D02*
X878584Y165392D01*
X878584Y167561D02*
X884176Y167561D01*
X873762Y168404D02*
X868170Y168404D01*
X873762Y168404D02*
X873762Y156716D01*
X868170Y156716D01*
X868170Y168404D01*
X868170Y158885D02*
X873762Y158885D01*
X873762Y161054D02*
X868170Y161054D01*
X868170Y163223D02*
X873762Y163223D01*
X873762Y165392D02*
X868170Y165392D01*
X868170Y167561D02*
X873762Y167561D01*
D12*
X763580Y51590D03*
X821380Y51590D03*
D11*
X744349Y29716D02*
X738757Y29716D01*
X738757Y41404D01*
X744349Y41404D01*
X744349Y29716D01*
X744349Y31885D02*
X738757Y31885D01*
X738757Y34054D02*
X744349Y34054D01*
X744349Y36223D02*
X738757Y36223D01*
X738757Y38392D02*
X744349Y38392D01*
X744349Y40561D02*
X738757Y40561D01*
X749171Y29716D02*
X754763Y29716D01*
X749171Y29716D02*
X749171Y41404D01*
X754763Y41404D01*
X754763Y29716D01*
X754763Y31885D02*
X749171Y31885D01*
X749171Y34054D02*
X754763Y34054D01*
X754763Y36223D02*
X749171Y36223D01*
X749171Y38392D02*
X754763Y38392D01*
X754763Y40561D02*
X749171Y40561D01*
D13*
X474980Y368300D03*
X855980Y12700D03*
D10*
X843280Y444500D03*
X843280Y419100D03*
X843280Y393700D03*
X843280Y368300D03*
X843280Y342900D03*
X843280Y317500D03*
X843280Y292100D03*
X843280Y266700D03*
X843280Y241300D03*
X843280Y215900D03*
X538480Y444500D03*
X538480Y419100D03*
X538480Y393700D03*
X538480Y368300D03*
X538480Y342900D03*
X538480Y317500D03*
X538480Y292100D03*
X538480Y266700D03*
X538480Y241300D03*
X538480Y215900D03*
D12*
X560380Y51590D03*
X618180Y51590D03*
D11*
X635887Y39880D02*
X641479Y39880D01*
X641479Y28192D01*
X635887Y28192D01*
X635887Y39880D01*
X635887Y30361D02*
X641479Y30361D01*
X641479Y32530D02*
X635887Y32530D01*
X635887Y34699D02*
X641479Y34699D01*
X641479Y36868D02*
X635887Y36868D01*
X635887Y39037D02*
X641479Y39037D01*
X631065Y39880D02*
X625473Y39880D01*
X631065Y39880D02*
X631065Y28192D01*
X625473Y28192D01*
X625473Y39880D01*
X625473Y30361D02*
X631065Y30361D01*
X631065Y32530D02*
X625473Y32530D01*
X625473Y34699D02*
X631065Y34699D01*
X631065Y36868D02*
X625473Y36868D01*
X625473Y39037D02*
X631065Y39037D01*
X519559Y28192D02*
X513967Y28192D01*
X513967Y39880D01*
X519559Y39880D01*
X519559Y28192D01*
X519559Y30361D02*
X513967Y30361D01*
X513967Y32530D02*
X519559Y32530D01*
X519559Y34699D02*
X513967Y34699D01*
X513967Y36868D02*
X519559Y36868D01*
X519559Y39037D02*
X513967Y39037D01*
X524381Y28192D02*
X529973Y28192D01*
X524381Y28192D02*
X524381Y39880D01*
X529973Y39880D01*
X529973Y28192D01*
X529973Y30361D02*
X524381Y30361D01*
X524381Y32530D02*
X529973Y32530D01*
X529973Y34699D02*
X524381Y34699D01*
X524381Y36868D02*
X529973Y36868D01*
X529973Y39037D02*
X524381Y39037D01*
X495683Y143004D02*
X490091Y143004D01*
X495683Y143004D02*
X495683Y131316D01*
X490091Y131316D01*
X490091Y143004D01*
X490091Y133485D02*
X495683Y133485D01*
X495683Y135654D02*
X490091Y135654D01*
X490091Y137823D02*
X495683Y137823D01*
X495683Y139992D02*
X490091Y139992D01*
X490091Y142161D02*
X495683Y142161D01*
X485269Y143004D02*
X479677Y143004D01*
X485269Y143004D02*
X485269Y131316D01*
X479677Y131316D01*
X479677Y143004D01*
X479677Y133485D02*
X485269Y133485D01*
X485269Y135654D02*
X479677Y135654D01*
X479677Y137823D02*
X485269Y137823D01*
X485269Y139992D02*
X479677Y139992D01*
X479677Y142161D02*
X485269Y142161D01*
D14*
X894080Y609600D03*
X894080Y25400D03*
X487680Y609600D03*
X487680Y25400D03*
D15*
X500380Y121906D03*
X500380Y151906D03*
D11*
X495683Y111254D02*
X490091Y111254D01*
X495683Y111254D02*
X495683Y99566D01*
X490091Y99566D01*
X490091Y111254D01*
X490091Y101735D02*
X495683Y101735D01*
X495683Y103904D02*
X490091Y103904D01*
X490091Y106073D02*
X495683Y106073D01*
X495683Y108242D02*
X490091Y108242D01*
X490091Y110411D02*
X495683Y110411D01*
X485269Y111254D02*
X479677Y111254D01*
X485269Y111254D02*
X485269Y99566D01*
X479677Y99566D01*
X479677Y111254D01*
X479677Y101735D02*
X485269Y101735D01*
X485269Y103904D02*
X479677Y103904D01*
X479677Y106073D02*
X485269Y106073D01*
X485269Y108242D02*
X479677Y108242D01*
X479677Y110411D02*
X485269Y110411D01*
D10*
X538480Y190500D03*
X843280Y190500D03*
D11*
X495683Y79504D02*
X490091Y79504D01*
X495683Y79504D02*
X495683Y67816D01*
X490091Y67816D01*
X490091Y79504D01*
X490091Y69985D02*
X495683Y69985D01*
X495683Y72154D02*
X490091Y72154D01*
X490091Y74323D02*
X495683Y74323D01*
X495683Y76492D02*
X490091Y76492D01*
X490091Y78661D02*
X495683Y78661D01*
X485269Y79504D02*
X479677Y79504D01*
X485269Y79504D02*
X485269Y67816D01*
X479677Y67816D01*
X479677Y79504D01*
X479677Y69985D02*
X485269Y69985D01*
X485269Y72154D02*
X479677Y72154D01*
X479677Y74323D02*
X485269Y74323D01*
X485269Y76492D02*
X479677Y76492D01*
X479677Y78661D02*
X485269Y78661D01*
D10*
X241300Y792480D03*
X215900Y792480D03*
D11*
X426718Y833884D02*
X432310Y833884D01*
X432310Y822196D01*
X426718Y822196D01*
X426718Y833884D01*
X426718Y824365D02*
X432310Y824365D01*
X432310Y826534D02*
X426718Y826534D01*
X426718Y828703D02*
X432310Y828703D01*
X432310Y830872D02*
X426718Y830872D01*
X426718Y833041D02*
X432310Y833041D01*
X421896Y833884D02*
X416304Y833884D01*
X421896Y833884D02*
X421896Y822196D01*
X416304Y822196D01*
X416304Y833884D01*
X416304Y824365D02*
X421896Y824365D01*
X421896Y826534D02*
X416304Y826534D01*
X416304Y828703D02*
X421896Y828703D01*
X421896Y830872D02*
X416304Y830872D01*
X416304Y833041D02*
X421896Y833041D01*
X411482Y833884D02*
X405890Y833884D01*
X411482Y833884D02*
X411482Y822196D01*
X405890Y822196D01*
X405890Y833884D01*
X405890Y824365D02*
X411482Y824365D01*
X411482Y826534D02*
X405890Y826534D01*
X405890Y828703D02*
X411482Y828703D01*
X411482Y830872D02*
X405890Y830872D01*
X405890Y833041D02*
X411482Y833041D01*
D12*
X301300Y717070D03*
X359100Y717070D03*
D11*
X282069Y695196D02*
X276477Y695196D01*
X276477Y706884D01*
X282069Y706884D01*
X282069Y695196D01*
X282069Y697365D02*
X276477Y697365D01*
X276477Y699534D02*
X282069Y699534D01*
X282069Y701703D02*
X276477Y701703D01*
X276477Y703872D02*
X282069Y703872D01*
X282069Y706041D02*
X276477Y706041D01*
X286891Y695196D02*
X292483Y695196D01*
X286891Y695196D02*
X286891Y706884D01*
X292483Y706884D01*
X292483Y695196D01*
X292483Y697365D02*
X286891Y697365D01*
X286891Y699534D02*
X292483Y699534D01*
X292483Y701703D02*
X286891Y701703D01*
X286891Y703872D02*
X292483Y703872D01*
X292483Y706041D02*
X286891Y706041D01*
D13*
X12700Y1033780D03*
X393700Y678180D03*
D10*
X381000Y1109980D03*
X381000Y1084580D03*
X381000Y1059180D03*
X381000Y1033780D03*
X381000Y1008380D03*
X381000Y982980D03*
X381000Y957580D03*
X381000Y932180D03*
X381000Y906780D03*
X381000Y881380D03*
X76200Y1109980D03*
X76200Y1084580D03*
X76200Y1059180D03*
X76200Y1033780D03*
X76200Y1008380D03*
X76200Y982980D03*
X76200Y957580D03*
X76200Y932180D03*
X76200Y906780D03*
X76200Y881380D03*
D12*
X98100Y717070D03*
X155900Y717070D03*
D11*
X173607Y705360D02*
X179199Y705360D01*
X179199Y693672D01*
X173607Y693672D01*
X173607Y705360D01*
X173607Y695841D02*
X179199Y695841D01*
X179199Y698010D02*
X173607Y698010D01*
X173607Y700179D02*
X179199Y700179D01*
X179199Y702348D02*
X173607Y702348D01*
X173607Y704517D02*
X179199Y704517D01*
X168785Y705360D02*
X163193Y705360D01*
X168785Y705360D02*
X168785Y693672D01*
X163193Y693672D01*
X163193Y705360D01*
X163193Y695841D02*
X168785Y695841D01*
X168785Y698010D02*
X163193Y698010D01*
X163193Y700179D02*
X168785Y700179D01*
X168785Y702348D02*
X163193Y702348D01*
X163193Y704517D02*
X168785Y704517D01*
X57279Y693672D02*
X51687Y693672D01*
X51687Y705360D01*
X57279Y705360D01*
X57279Y693672D01*
X57279Y695841D02*
X51687Y695841D01*
X51687Y698010D02*
X57279Y698010D01*
X57279Y700179D02*
X51687Y700179D01*
X51687Y702348D02*
X57279Y702348D01*
X57279Y704517D02*
X51687Y704517D01*
X62101Y693672D02*
X67693Y693672D01*
X62101Y693672D02*
X62101Y705360D01*
X67693Y705360D01*
X67693Y693672D01*
X67693Y695841D02*
X62101Y695841D01*
X62101Y698010D02*
X67693Y698010D01*
X67693Y700179D02*
X62101Y700179D01*
X62101Y702348D02*
X67693Y702348D01*
X67693Y704517D02*
X62101Y704517D01*
X33403Y808484D02*
X27811Y808484D01*
X33403Y808484D02*
X33403Y796796D01*
X27811Y796796D01*
X27811Y808484D01*
X27811Y798965D02*
X33403Y798965D01*
X33403Y801134D02*
X27811Y801134D01*
X27811Y803303D02*
X33403Y803303D01*
X33403Y805472D02*
X27811Y805472D01*
X27811Y807641D02*
X33403Y807641D01*
X22989Y808484D02*
X17397Y808484D01*
X22989Y808484D02*
X22989Y796796D01*
X17397Y796796D01*
X17397Y808484D01*
X17397Y798965D02*
X22989Y798965D01*
X22989Y801134D02*
X17397Y801134D01*
X17397Y803303D02*
X22989Y803303D01*
X22989Y805472D02*
X17397Y805472D01*
X17397Y807641D02*
X22989Y807641D01*
D14*
X431800Y1275080D03*
X431800Y690880D03*
X25400Y1275080D03*
X25400Y690880D03*
D15*
X38100Y787386D03*
X38100Y817386D03*
D11*
X33403Y776734D02*
X27811Y776734D01*
X33403Y776734D02*
X33403Y765046D01*
X27811Y765046D01*
X27811Y776734D01*
X27811Y767215D02*
X33403Y767215D01*
X33403Y769384D02*
X27811Y769384D01*
X27811Y771553D02*
X33403Y771553D01*
X33403Y773722D02*
X27811Y773722D01*
X27811Y775891D02*
X33403Y775891D01*
X22989Y776734D02*
X17397Y776734D01*
X22989Y776734D02*
X22989Y765046D01*
X17397Y765046D01*
X17397Y776734D01*
X17397Y767215D02*
X22989Y767215D01*
X22989Y769384D02*
X17397Y769384D01*
X17397Y771553D02*
X22989Y771553D01*
X22989Y773722D02*
X17397Y773722D01*
X17397Y775891D02*
X22989Y775891D01*
D10*
X76200Y855980D03*
X381000Y855980D03*
D11*
X33403Y744984D02*
X27811Y744984D01*
X33403Y744984D02*
X33403Y733296D01*
X27811Y733296D01*
X27811Y744984D01*
X27811Y735465D02*
X33403Y735465D01*
X33403Y737634D02*
X27811Y737634D01*
X27811Y739803D02*
X33403Y739803D01*
X33403Y741972D02*
X27811Y741972D01*
X27811Y744141D02*
X33403Y744141D01*
X22989Y744984D02*
X17397Y744984D01*
X22989Y744984D02*
X22989Y733296D01*
X17397Y733296D01*
X17397Y744984D01*
X17397Y735465D02*
X22989Y735465D01*
X22989Y737634D02*
X17397Y737634D01*
X17397Y739803D02*
X22989Y739803D01*
X22989Y741972D02*
X17397Y741972D01*
X17397Y744141D02*
X22989Y744141D01*
D10*
X703580Y792480D03*
X678180Y792480D03*
D11*
X888998Y833884D02*
X894590Y833884D01*
X894590Y822196D01*
X888998Y822196D01*
X888998Y833884D01*
X888998Y824365D02*
X894590Y824365D01*
X894590Y826534D02*
X888998Y826534D01*
X888998Y828703D02*
X894590Y828703D01*
X894590Y830872D02*
X888998Y830872D01*
X888998Y833041D02*
X894590Y833041D01*
X884176Y833884D02*
X878584Y833884D01*
X884176Y833884D02*
X884176Y822196D01*
X878584Y822196D01*
X878584Y833884D01*
X878584Y824365D02*
X884176Y824365D01*
X884176Y826534D02*
X878584Y826534D01*
X878584Y828703D02*
X884176Y828703D01*
X884176Y830872D02*
X878584Y830872D01*
X878584Y833041D02*
X884176Y833041D01*
X873762Y833884D02*
X868170Y833884D01*
X873762Y833884D02*
X873762Y822196D01*
X868170Y822196D01*
X868170Y833884D01*
X868170Y824365D02*
X873762Y824365D01*
X873762Y826534D02*
X868170Y826534D01*
X868170Y828703D02*
X873762Y828703D01*
X873762Y830872D02*
X868170Y830872D01*
X868170Y833041D02*
X873762Y833041D01*
D12*
X763580Y717070D03*
X821380Y717070D03*
D11*
X744349Y695196D02*
X738757Y695196D01*
X738757Y706884D01*
X744349Y706884D01*
X744349Y695196D01*
X744349Y697365D02*
X738757Y697365D01*
X738757Y699534D02*
X744349Y699534D01*
X744349Y701703D02*
X738757Y701703D01*
X738757Y703872D02*
X744349Y703872D01*
X744349Y706041D02*
X738757Y706041D01*
X749171Y695196D02*
X754763Y695196D01*
X749171Y695196D02*
X749171Y706884D01*
X754763Y706884D01*
X754763Y695196D01*
X754763Y697365D02*
X749171Y697365D01*
X749171Y699534D02*
X754763Y699534D01*
X754763Y701703D02*
X749171Y701703D01*
X749171Y703872D02*
X754763Y703872D01*
X754763Y706041D02*
X749171Y706041D01*
D13*
X474980Y1033780D03*
X855980Y678180D03*
D10*
X843280Y1109980D03*
X843280Y1084580D03*
X843280Y1059180D03*
X843280Y1033780D03*
X843280Y1008380D03*
X843280Y982980D03*
X843280Y957580D03*
X843280Y932180D03*
X843280Y906780D03*
X843280Y881380D03*
X538480Y1109980D03*
X538480Y1084580D03*
X538480Y1059180D03*
X538480Y1033780D03*
X538480Y1008380D03*
X538480Y982980D03*
X538480Y957580D03*
X538480Y932180D03*
X538480Y906780D03*
X538480Y881380D03*
D12*
X560380Y717070D03*
X618180Y717070D03*
D11*
X635887Y705360D02*
X641479Y705360D01*
X641479Y693672D01*
X635887Y693672D01*
X635887Y705360D01*
X635887Y695841D02*
X641479Y695841D01*
X641479Y698010D02*
X635887Y698010D01*
X635887Y700179D02*
X641479Y700179D01*
X641479Y702348D02*
X635887Y702348D01*
X635887Y704517D02*
X641479Y704517D01*
X631065Y705360D02*
X625473Y705360D01*
X631065Y705360D02*
X631065Y693672D01*
X625473Y693672D01*
X625473Y705360D01*
X625473Y695841D02*
X631065Y695841D01*
X631065Y698010D02*
X625473Y698010D01*
X625473Y700179D02*
X631065Y700179D01*
X631065Y702348D02*
X625473Y702348D01*
X625473Y704517D02*
X631065Y704517D01*
X519559Y693672D02*
X513967Y693672D01*
X513967Y705360D01*
X519559Y705360D01*
X519559Y693672D01*
X519559Y695841D02*
X513967Y695841D01*
X513967Y698010D02*
X519559Y698010D01*
X519559Y700179D02*
X513967Y700179D01*
X513967Y702348D02*
X519559Y702348D01*
X519559Y704517D02*
X513967Y704517D01*
X524381Y693672D02*
X529973Y693672D01*
X524381Y693672D02*
X524381Y705360D01*
X529973Y705360D01*
X529973Y693672D01*
X529973Y695841D02*
X524381Y695841D01*
X524381Y698010D02*
X529973Y698010D01*
X529973Y700179D02*
X524381Y700179D01*
X524381Y702348D02*
X529973Y702348D01*
X529973Y704517D02*
X524381Y704517D01*
X495683Y808484D02*
X490091Y808484D01*
X495683Y808484D02*
X495683Y796796D01*
X490091Y796796D01*
X490091Y808484D01*
X490091Y798965D02*
X495683Y798965D01*
X495683Y801134D02*
X490091Y801134D01*
X490091Y803303D02*
X495683Y803303D01*
X495683Y805472D02*
X490091Y805472D01*
X490091Y807641D02*
X495683Y807641D01*
X485269Y808484D02*
X479677Y808484D01*
X485269Y808484D02*
X485269Y796796D01*
X479677Y796796D01*
X479677Y808484D01*
X479677Y798965D02*
X485269Y798965D01*
X485269Y801134D02*
X479677Y801134D01*
X479677Y803303D02*
X485269Y803303D01*
X485269Y805472D02*
X479677Y805472D01*
X479677Y807641D02*
X485269Y807641D01*
D14*
X894080Y1275080D03*
X894080Y690880D03*
X487680Y1275080D03*
X487680Y690880D03*
D15*
X500380Y787386D03*
X500380Y817386D03*
D11*
X495683Y776734D02*
X490091Y776734D01*
X495683Y776734D02*
X495683Y765046D01*
X490091Y765046D01*
X490091Y776734D01*
X490091Y767215D02*
X495683Y767215D01*
X495683Y769384D02*
X490091Y769384D01*
X490091Y771553D02*
X495683Y771553D01*
X495683Y773722D02*
X490091Y773722D01*
X490091Y775891D02*
X495683Y775891D01*
X485269Y776734D02*
X479677Y776734D01*
X485269Y776734D02*
X485269Y765046D01*
X479677Y765046D01*
X479677Y776734D01*
X479677Y767215D02*
X485269Y767215D01*
X485269Y769384D02*
X479677Y769384D01*
X479677Y771553D02*
X485269Y771553D01*
X485269Y773722D02*
X479677Y773722D01*
X479677Y775891D02*
X485269Y775891D01*
D10*
X538480Y855980D03*
X843280Y855980D03*
D11*
X495683Y744984D02*
X490091Y744984D01*
X495683Y744984D02*
X495683Y733296D01*
X490091Y733296D01*
X490091Y744984D01*
X490091Y735465D02*
X495683Y735465D01*
X495683Y737634D02*
X490091Y737634D01*
X490091Y739803D02*
X495683Y739803D01*
X495683Y741972D02*
X490091Y741972D01*
X490091Y744141D02*
X495683Y744141D01*
X485269Y744984D02*
X479677Y744984D01*
X485269Y744984D02*
X485269Y733296D01*
X479677Y733296D01*
X479677Y744984D01*
X479677Y735465D02*
X485269Y735465D01*
X485269Y737634D02*
X479677Y737634D01*
X479677Y739803D02*
X485269Y739803D01*
X485269Y741972D02*
X479677Y741972D01*
X479677Y744141D02*
X485269Y744141D01*
D10*
X241300Y1457960D03*
X215900Y1457960D03*
D11*
X426718Y1499364D02*
X432310Y1499364D01*
X432310Y1487676D01*
X426718Y1487676D01*
X426718Y1499364D01*
X426718Y1489845D02*
X432310Y1489845D01*
X432310Y1492014D02*
X426718Y1492014D01*
X426718Y1494183D02*
X432310Y1494183D01*
X432310Y1496352D02*
X426718Y1496352D01*
X426718Y1498521D02*
X432310Y1498521D01*
X421896Y1499364D02*
X416304Y1499364D01*
X421896Y1499364D02*
X421896Y1487676D01*
X416304Y1487676D01*
X416304Y1499364D01*
X416304Y1489845D02*
X421896Y1489845D01*
X421896Y1492014D02*
X416304Y1492014D01*
X416304Y1494183D02*
X421896Y1494183D01*
X421896Y1496352D02*
X416304Y1496352D01*
X416304Y1498521D02*
X421896Y1498521D01*
X411482Y1499364D02*
X405890Y1499364D01*
X411482Y1499364D02*
X411482Y1487676D01*
X405890Y1487676D01*
X405890Y1499364D01*
X405890Y1489845D02*
X411482Y1489845D01*
X411482Y1492014D02*
X405890Y1492014D01*
X405890Y1494183D02*
X411482Y1494183D01*
X411482Y1496352D02*
X405890Y1496352D01*
X405890Y1498521D02*
X411482Y1498521D01*
D12*
X301300Y1382550D03*
X359100Y1382550D03*
D11*
X282069Y1360676D02*
X276477Y1360676D01*
X276477Y1372364D01*
X282069Y1372364D01*
X282069Y1360676D01*
X282069Y1362845D02*
X276477Y1362845D01*
X276477Y1365014D02*
X282069Y1365014D01*
X282069Y1367183D02*
X276477Y1367183D01*
X276477Y1369352D02*
X282069Y1369352D01*
X282069Y1371521D02*
X276477Y1371521D01*
X286891Y1360676D02*
X292483Y1360676D01*
X286891Y1360676D02*
X286891Y1372364D01*
X292483Y1372364D01*
X292483Y1360676D01*
X292483Y1362845D02*
X286891Y1362845D01*
X286891Y1365014D02*
X292483Y1365014D01*
X292483Y1367183D02*
X286891Y1367183D01*
X286891Y1369352D02*
X292483Y1369352D01*
X292483Y1371521D02*
X286891Y1371521D01*
D13*
X12700Y1699260D03*
X393700Y1343660D03*
D10*
X381000Y1775460D03*
X381000Y1750060D03*
X381000Y1724660D03*
X381000Y1699260D03*
X381000Y1673860D03*
X381000Y1648460D03*
X381000Y1623060D03*
X381000Y1597660D03*
X381000Y1572260D03*
X381000Y1546860D03*
X76200Y1775460D03*
X76200Y1750060D03*
X76200Y1724660D03*
X76200Y1699260D03*
X76200Y1673860D03*
X76200Y1648460D03*
X76200Y1623060D03*
X76200Y1597660D03*
X76200Y1572260D03*
X76200Y1546860D03*
D12*
X98100Y1382550D03*
X155900Y1382550D03*
D11*
X173607Y1370840D02*
X179199Y1370840D01*
X179199Y1359152D01*
X173607Y1359152D01*
X173607Y1370840D01*
X173607Y1361321D02*
X179199Y1361321D01*
X179199Y1363490D02*
X173607Y1363490D01*
X173607Y1365659D02*
X179199Y1365659D01*
X179199Y1367828D02*
X173607Y1367828D01*
X173607Y1369997D02*
X179199Y1369997D01*
X168785Y1370840D02*
X163193Y1370840D01*
X168785Y1370840D02*
X168785Y1359152D01*
X163193Y1359152D01*
X163193Y1370840D01*
X163193Y1361321D02*
X168785Y1361321D01*
X168785Y1363490D02*
X163193Y1363490D01*
X163193Y1365659D02*
X168785Y1365659D01*
X168785Y1367828D02*
X163193Y1367828D01*
X163193Y1369997D02*
X168785Y1369997D01*
X57279Y1359152D02*
X51687Y1359152D01*
X51687Y1370840D01*
X57279Y1370840D01*
X57279Y1359152D01*
X57279Y1361321D02*
X51687Y1361321D01*
X51687Y1363490D02*
X57279Y1363490D01*
X57279Y1365659D02*
X51687Y1365659D01*
X51687Y1367828D02*
X57279Y1367828D01*
X57279Y1369997D02*
X51687Y1369997D01*
X62101Y1359152D02*
X67693Y1359152D01*
X62101Y1359152D02*
X62101Y1370840D01*
X67693Y1370840D01*
X67693Y1359152D01*
X67693Y1361321D02*
X62101Y1361321D01*
X62101Y1363490D02*
X67693Y1363490D01*
X67693Y1365659D02*
X62101Y1365659D01*
X62101Y1367828D02*
X67693Y1367828D01*
X67693Y1369997D02*
X62101Y1369997D01*
X33403Y1473964D02*
X27811Y1473964D01*
X33403Y1473964D02*
X33403Y1462276D01*
X27811Y1462276D01*
X27811Y1473964D01*
X27811Y1464445D02*
X33403Y1464445D01*
X33403Y1466614D02*
X27811Y1466614D01*
X27811Y1468783D02*
X33403Y1468783D01*
X33403Y1470952D02*
X27811Y1470952D01*
X27811Y1473121D02*
X33403Y1473121D01*
X22989Y1473964D02*
X17397Y1473964D01*
X22989Y1473964D02*
X22989Y1462276D01*
X17397Y1462276D01*
X17397Y1473964D01*
X17397Y1464445D02*
X22989Y1464445D01*
X22989Y1466614D02*
X17397Y1466614D01*
X17397Y1468783D02*
X22989Y1468783D01*
X22989Y1470952D02*
X17397Y1470952D01*
X17397Y1473121D02*
X22989Y1473121D01*
D14*
X431800Y1940560D03*
X431800Y1356360D03*
X25400Y1940560D03*
X25400Y1356360D03*
D15*
X38100Y1452866D03*
X38100Y1482866D03*
D11*
X33403Y1442214D02*
X27811Y1442214D01*
X33403Y1442214D02*
X33403Y1430526D01*
X27811Y1430526D01*
X27811Y1442214D01*
X27811Y1432695D02*
X33403Y1432695D01*
X33403Y1434864D02*
X27811Y1434864D01*
X27811Y1437033D02*
X33403Y1437033D01*
X33403Y1439202D02*
X27811Y1439202D01*
X27811Y1441371D02*
X33403Y1441371D01*
X22989Y1442214D02*
X17397Y1442214D01*
X22989Y1442214D02*
X22989Y1430526D01*
X17397Y1430526D01*
X17397Y1442214D01*
X17397Y1432695D02*
X22989Y1432695D01*
X22989Y1434864D02*
X17397Y1434864D01*
X17397Y1437033D02*
X22989Y1437033D01*
X22989Y1439202D02*
X17397Y1439202D01*
X17397Y1441371D02*
X22989Y1441371D01*
D10*
X76200Y1521460D03*
X381000Y1521460D03*
D11*
X33403Y1410464D02*
X27811Y1410464D01*
X33403Y1410464D02*
X33403Y1398776D01*
X27811Y1398776D01*
X27811Y1410464D01*
X27811Y1400945D02*
X33403Y1400945D01*
X33403Y1403114D02*
X27811Y1403114D01*
X27811Y1405283D02*
X33403Y1405283D01*
X33403Y1407452D02*
X27811Y1407452D01*
X27811Y1409621D02*
X33403Y1409621D01*
X22989Y1410464D02*
X17397Y1410464D01*
X22989Y1410464D02*
X22989Y1398776D01*
X17397Y1398776D01*
X17397Y1410464D01*
X17397Y1400945D02*
X22989Y1400945D01*
X22989Y1403114D02*
X17397Y1403114D01*
X17397Y1405283D02*
X22989Y1405283D01*
X22989Y1407452D02*
X17397Y1407452D01*
X17397Y1409621D02*
X22989Y1409621D01*
D10*
X703580Y1457960D03*
X678180Y1457960D03*
D11*
X888998Y1499364D02*
X894590Y1499364D01*
X894590Y1487676D01*
X888998Y1487676D01*
X888998Y1499364D01*
X888998Y1489845D02*
X894590Y1489845D01*
X894590Y1492014D02*
X888998Y1492014D01*
X888998Y1494183D02*
X894590Y1494183D01*
X894590Y1496352D02*
X888998Y1496352D01*
X888998Y1498521D02*
X894590Y1498521D01*
X884176Y1499364D02*
X878584Y1499364D01*
X884176Y1499364D02*
X884176Y1487676D01*
X878584Y1487676D01*
X878584Y1499364D01*
X878584Y1489845D02*
X884176Y1489845D01*
X884176Y1492014D02*
X878584Y1492014D01*
X878584Y1494183D02*
X884176Y1494183D01*
X884176Y1496352D02*
X878584Y1496352D01*
X878584Y1498521D02*
X884176Y1498521D01*
X873762Y1499364D02*
X868170Y1499364D01*
X873762Y1499364D02*
X873762Y1487676D01*
X868170Y1487676D01*
X868170Y1499364D01*
X868170Y1489845D02*
X873762Y1489845D01*
X873762Y1492014D02*
X868170Y1492014D01*
X868170Y1494183D02*
X873762Y1494183D01*
X873762Y1496352D02*
X868170Y1496352D01*
X868170Y1498521D02*
X873762Y1498521D01*
D12*
X763580Y1382550D03*
X821380Y1382550D03*
D11*
X744349Y1360676D02*
X738757Y1360676D01*
X738757Y1372364D01*
X744349Y1372364D01*
X744349Y1360676D01*
X744349Y1362845D02*
X738757Y1362845D01*
X738757Y1365014D02*
X744349Y1365014D01*
X744349Y1367183D02*
X738757Y1367183D01*
X738757Y1369352D02*
X744349Y1369352D01*
X744349Y1371521D02*
X738757Y1371521D01*
X749171Y1360676D02*
X754763Y1360676D01*
X749171Y1360676D02*
X749171Y1372364D01*
X754763Y1372364D01*
X754763Y1360676D01*
X754763Y1362845D02*
X749171Y1362845D01*
X749171Y1365014D02*
X754763Y1365014D01*
X754763Y1367183D02*
X749171Y1367183D01*
X749171Y1369352D02*
X754763Y1369352D01*
X754763Y1371521D02*
X749171Y1371521D01*
D13*
X474980Y1699260D03*
X855980Y1343660D03*
D10*
X843280Y1775460D03*
X843280Y1750060D03*
X843280Y1724660D03*
X843280Y1699260D03*
X843280Y1673860D03*
X843280Y1648460D03*
X843280Y1623060D03*
X843280Y1597660D03*
X843280Y1572260D03*
X843280Y1546860D03*
X538480Y1775460D03*
X538480Y1750060D03*
X538480Y1724660D03*
X538480Y1699260D03*
X538480Y1673860D03*
X538480Y1648460D03*
X538480Y1623060D03*
X538480Y1597660D03*
X538480Y1572260D03*
X538480Y1546860D03*
D12*
X560380Y1382550D03*
X618180Y1382550D03*
D11*
X635887Y1370840D02*
X641479Y1370840D01*
X641479Y1359152D01*
X635887Y1359152D01*
X635887Y1370840D01*
X635887Y1361321D02*
X641479Y1361321D01*
X641479Y1363490D02*
X635887Y1363490D01*
X635887Y1365659D02*
X641479Y1365659D01*
X641479Y1367828D02*
X635887Y1367828D01*
X635887Y1369997D02*
X641479Y1369997D01*
X631065Y1370840D02*
X625473Y1370840D01*
X631065Y1370840D02*
X631065Y1359152D01*
X625473Y1359152D01*
X625473Y1370840D01*
X625473Y1361321D02*
X631065Y1361321D01*
X631065Y1363490D02*
X625473Y1363490D01*
X625473Y1365659D02*
X631065Y1365659D01*
X631065Y1367828D02*
X625473Y1367828D01*
X625473Y1369997D02*
X631065Y1369997D01*
X519559Y1359152D02*
X513967Y1359152D01*
X513967Y1370840D01*
X519559Y1370840D01*
X519559Y1359152D01*
X519559Y1361321D02*
X513967Y1361321D01*
X513967Y1363490D02*
X519559Y1363490D01*
X519559Y1365659D02*
X513967Y1365659D01*
X513967Y1367828D02*
X519559Y1367828D01*
X519559Y1369997D02*
X513967Y1369997D01*
X524381Y1359152D02*
X529973Y1359152D01*
X524381Y1359152D02*
X524381Y1370840D01*
X529973Y1370840D01*
X529973Y1359152D01*
X529973Y1361321D02*
X524381Y1361321D01*
X524381Y1363490D02*
X529973Y1363490D01*
X529973Y1365659D02*
X524381Y1365659D01*
X524381Y1367828D02*
X529973Y1367828D01*
X529973Y1369997D02*
X524381Y1369997D01*
X495683Y1473964D02*
X490091Y1473964D01*
X495683Y1473964D02*
X495683Y1462276D01*
X490091Y1462276D01*
X490091Y1473964D01*
X490091Y1464445D02*
X495683Y1464445D01*
X495683Y1466614D02*
X490091Y1466614D01*
X490091Y1468783D02*
X495683Y1468783D01*
X495683Y1470952D02*
X490091Y1470952D01*
X490091Y1473121D02*
X495683Y1473121D01*
X485269Y1473964D02*
X479677Y1473964D01*
X485269Y1473964D02*
X485269Y1462276D01*
X479677Y1462276D01*
X479677Y1473964D01*
X479677Y1464445D02*
X485269Y1464445D01*
X485269Y1466614D02*
X479677Y1466614D01*
X479677Y1468783D02*
X485269Y1468783D01*
X485269Y1470952D02*
X479677Y1470952D01*
X479677Y1473121D02*
X485269Y1473121D01*
D14*
X894080Y1940560D03*
X894080Y1356360D03*
X487680Y1940560D03*
X487680Y1356360D03*
D15*
X500380Y1452866D03*
X500380Y1482866D03*
D11*
X495683Y1442214D02*
X490091Y1442214D01*
X495683Y1442214D02*
X495683Y1430526D01*
X490091Y1430526D01*
X490091Y1442214D01*
X490091Y1432695D02*
X495683Y1432695D01*
X495683Y1434864D02*
X490091Y1434864D01*
X490091Y1437033D02*
X495683Y1437033D01*
X495683Y1439202D02*
X490091Y1439202D01*
X490091Y1441371D02*
X495683Y1441371D01*
X485269Y1442214D02*
X479677Y1442214D01*
X485269Y1442214D02*
X485269Y1430526D01*
X479677Y1430526D01*
X479677Y1442214D01*
X479677Y1432695D02*
X485269Y1432695D01*
X485269Y1434864D02*
X479677Y1434864D01*
X479677Y1437033D02*
X485269Y1437033D01*
X485269Y1439202D02*
X479677Y1439202D01*
X479677Y1441371D02*
X485269Y1441371D01*
D10*
X538480Y1521460D03*
X843280Y1521460D03*
D11*
X495683Y1410464D02*
X490091Y1410464D01*
X495683Y1410464D02*
X495683Y1398776D01*
X490091Y1398776D01*
X490091Y1410464D01*
X490091Y1400945D02*
X495683Y1400945D01*
X495683Y1403114D02*
X490091Y1403114D01*
X490091Y1405283D02*
X495683Y1405283D01*
X495683Y1407452D02*
X490091Y1407452D01*
X490091Y1409621D02*
X495683Y1409621D01*
X485269Y1410464D02*
X479677Y1410464D01*
X485269Y1410464D02*
X485269Y1398776D01*
X479677Y1398776D01*
X479677Y1410464D01*
X479677Y1400945D02*
X485269Y1400945D01*
X485269Y1403114D02*
X479677Y1403114D01*
X479677Y1405283D02*
X485269Y1405283D01*
X485269Y1407452D02*
X479677Y1407452D01*
X479677Y1409621D02*
X485269Y1409621D01*
D13*
X-26238Y1964690D03*
X940638Y1964690D03*
D16*
X-35293Y63500D02*
X-35290Y63722D01*
X-35282Y63944D01*
X-35268Y64166D01*
X-35249Y64388D01*
X-35225Y64608D01*
X-35195Y64829D01*
X-35160Y65048D01*
X-35119Y65267D01*
X-35073Y65484D01*
X-35022Y65700D01*
X-34965Y65915D01*
X-34903Y66129D01*
X-34836Y66340D01*
X-34764Y66551D01*
X-34686Y66759D01*
X-34604Y66965D01*
X-34516Y67169D01*
X-34424Y67372D01*
X-34326Y67571D01*
X-34224Y67768D01*
X-34117Y67963D01*
X-34005Y68155D01*
X-33888Y68344D01*
X-33767Y68531D01*
X-33641Y68714D01*
X-33511Y68894D01*
X-33376Y69071D01*
X-33238Y69244D01*
X-33095Y69414D01*
X-32947Y69581D01*
X-32796Y69744D01*
X-32641Y69903D01*
X-32482Y70058D01*
X-32319Y70209D01*
X-32152Y70357D01*
X-31982Y70500D01*
X-31809Y70638D01*
X-31632Y70773D01*
X-31452Y70903D01*
X-31269Y71029D01*
X-31082Y71150D01*
X-30893Y71267D01*
X-30701Y71379D01*
X-30506Y71486D01*
X-30309Y71588D01*
X-30110Y71686D01*
X-29907Y71778D01*
X-29703Y71866D01*
X-29497Y71948D01*
X-29289Y72026D01*
X-29078Y72098D01*
X-28867Y72165D01*
X-28653Y72227D01*
X-28438Y72284D01*
X-28222Y72335D01*
X-28005Y72381D01*
X-27786Y72422D01*
X-27567Y72457D01*
X-27346Y72487D01*
X-27126Y72511D01*
X-26904Y72530D01*
X-26682Y72544D01*
X-26460Y72552D01*
X-26238Y72555D01*
X-26016Y72552D01*
X-25794Y72544D01*
X-25572Y72530D01*
X-25350Y72511D01*
X-25130Y72487D01*
X-24909Y72457D01*
X-24690Y72422D01*
X-24471Y72381D01*
X-24254Y72335D01*
X-24038Y72284D01*
X-23823Y72227D01*
X-23609Y72165D01*
X-23398Y72098D01*
X-23187Y72026D01*
X-22979Y71948D01*
X-22773Y71866D01*
X-22569Y71778D01*
X-22366Y71686D01*
X-22167Y71588D01*
X-21970Y71486D01*
X-21775Y71379D01*
X-21583Y71267D01*
X-21394Y71150D01*
X-21207Y71029D01*
X-21024Y70903D01*
X-20844Y70773D01*
X-20667Y70638D01*
X-20494Y70500D01*
X-20324Y70357D01*
X-20157Y70209D01*
X-19994Y70058D01*
X-19835Y69903D01*
X-19680Y69744D01*
X-19529Y69581D01*
X-19381Y69414D01*
X-19238Y69244D01*
X-19100Y69071D01*
X-18965Y68894D01*
X-18835Y68714D01*
X-18709Y68531D01*
X-18588Y68344D01*
X-18471Y68155D01*
X-18359Y67963D01*
X-18252Y67768D01*
X-18150Y67571D01*
X-18052Y67372D01*
X-17960Y67169D01*
X-17872Y66965D01*
X-17790Y66759D01*
X-17712Y66551D01*
X-17640Y66340D01*
X-17573Y66129D01*
X-17511Y65915D01*
X-17454Y65700D01*
X-17403Y65484D01*
X-17357Y65267D01*
X-17316Y65048D01*
X-17281Y64829D01*
X-17251Y64608D01*
X-17227Y64388D01*
X-17208Y64166D01*
X-17194Y63944D01*
X-17186Y63722D01*
X-17183Y63500D01*
X-17186Y63278D01*
X-17194Y63056D01*
X-17208Y62834D01*
X-17227Y62612D01*
X-17251Y62392D01*
X-17281Y62171D01*
X-17316Y61952D01*
X-17357Y61733D01*
X-17403Y61516D01*
X-17454Y61300D01*
X-17511Y61085D01*
X-17573Y60871D01*
X-17640Y60660D01*
X-17712Y60449D01*
X-17790Y60241D01*
X-17872Y60035D01*
X-17960Y59831D01*
X-18052Y59628D01*
X-18150Y59429D01*
X-18252Y59232D01*
X-18359Y59037D01*
X-18471Y58845D01*
X-18588Y58656D01*
X-18709Y58469D01*
X-18835Y58286D01*
X-18965Y58106D01*
X-19100Y57929D01*
X-19238Y57756D01*
X-19381Y57586D01*
X-19529Y57419D01*
X-19680Y57256D01*
X-19835Y57097D01*
X-19994Y56942D01*
X-20157Y56791D01*
X-20324Y56643D01*
X-20494Y56500D01*
X-20667Y56362D01*
X-20844Y56227D01*
X-21024Y56097D01*
X-21207Y55971D01*
X-21394Y55850D01*
X-21583Y55733D01*
X-21775Y55621D01*
X-21970Y55514D01*
X-22167Y55412D01*
X-22366Y55314D01*
X-22569Y55222D01*
X-22773Y55134D01*
X-22979Y55052D01*
X-23187Y54974D01*
X-23398Y54902D01*
X-23609Y54835D01*
X-23823Y54773D01*
X-24038Y54716D01*
X-24254Y54665D01*
X-24471Y54619D01*
X-24690Y54578D01*
X-24909Y54543D01*
X-25130Y54513D01*
X-25350Y54489D01*
X-25572Y54470D01*
X-25794Y54456D01*
X-26016Y54448D01*
X-26238Y54445D01*
X-26460Y54448D01*
X-26682Y54456D01*
X-26904Y54470D01*
X-27126Y54489D01*
X-27346Y54513D01*
X-27567Y54543D01*
X-27786Y54578D01*
X-28005Y54619D01*
X-28222Y54665D01*
X-28438Y54716D01*
X-28653Y54773D01*
X-28867Y54835D01*
X-29078Y54902D01*
X-29289Y54974D01*
X-29497Y55052D01*
X-29703Y55134D01*
X-29907Y55222D01*
X-30110Y55314D01*
X-30309Y55412D01*
X-30506Y55514D01*
X-30701Y55621D01*
X-30893Y55733D01*
X-31082Y55850D01*
X-31269Y55971D01*
X-31452Y56097D01*
X-31632Y56227D01*
X-31809Y56362D01*
X-31982Y56500D01*
X-32152Y56643D01*
X-32319Y56791D01*
X-32482Y56942D01*
X-32641Y57097D01*
X-32796Y57256D01*
X-32947Y57419D01*
X-33095Y57586D01*
X-33238Y57756D01*
X-33376Y57929D01*
X-33511Y58106D01*
X-33641Y58286D01*
X-33767Y58469D01*
X-33888Y58656D01*
X-34005Y58845D01*
X-34117Y59037D01*
X-34224Y59232D01*
X-34326Y59429D01*
X-34424Y59628D01*
X-34516Y59831D01*
X-34604Y60035D01*
X-34686Y60241D01*
X-34764Y60449D01*
X-34836Y60660D01*
X-34903Y60871D01*
X-34965Y61085D01*
X-35022Y61300D01*
X-35073Y61516D01*
X-35119Y61733D01*
X-35160Y61952D01*
X-35195Y62171D01*
X-35225Y62392D01*
X-35249Y62612D01*
X-35268Y62834D01*
X-35282Y63056D01*
X-35290Y63278D01*
X-35293Y63500D01*
D17*
X-26238Y63500D03*
M02*
